<svg xmlns="http://www.w3.org/2000/svg" width="99" height="55" fill="none" viewBox="0 0 99 55"><path fill="url(#a)" d="M6.931 24.268c.03-.9-.114-1.78-.49-2.673-.199.07-.38.14-.567.198-.465.146-.866.019-1.21-.311a3 3 0 0 1-.294-.356c-.526-.722-.738-1.423.078-2.381.114-.137.231-.272.363-.43-.117-.267-.225-.525-.357-.828-.147.038-.294.064-.428.111-.46.174-.92.123-1.37-.021a1.5 1.5 0 0 1-.522-.319c-.252-.227-.337-.53-.18-.843.16-.32.364-.617.58-.98-.059-.119-.115-.29-.217-.428-.378-.523-.775-1.033-1.16-1.55-.28-.37-.587-.728-.826-1.123-.477-.785-.436-1.563.107-2.322a4.35 4.35 0 0 1 1.433-1.279c.932-.523 1.943-.835 2.956-1.018.203-.301.376-.586.577-.854.291-.39.693-.614 1.176-.684.543-.083 1.031.01 1.392.475.06.077.13.15.203.236.915-.345 1.81-.744 2.79-.223.18-.172.338-.332.512-.48.356-.304.745-.558 1.201-.695.855-.256 1.761.114 2.001.967.029.1.03.203.057.358 1.022-.4 1.584-1.091 1.92-1.986.056-.15 0-.351-.03-.525-.085-.48-.212-.958-.269-1.444a3.15 3.15 0 0 1 .217-1.597c.302-.737.849-1.16 1.64-1.24.704-.073 1.392.038 2.069.213.526.134 1.04.314 1.565.448.93.237 1.877.334 2.84.34 1.109.006 2.22.017 3.32.193a19.7 19.7 0 0 1 6.559 2.269 24 24 0 0 1 5.229 3.965c1.6 1.593 2.78 3.46 3.644 5.53.388.93.73 1.88 1.097 2.822.245.626.478 1.26.756 1.87 1.114 2.46 2.77 4.467 5.074 5.907a57 57 0 0 0 3.137 1.851c2.663 1.44 5.268 2.967 7.722 4.743a40 40 0 0 0 3.995 2.527c.79.44 1.604.837 2.4 1.266.261.139.52.175.818.142 1.675-.168 3.292.075 4.86.694 1.285.509 2.469 1.173 3.575 1.998.626.47 1.295.869 2.088.97.508.068 1.026.102 1.543.11a22 22 0 0 0 1.779-.064c1.65-.12 3.102.394 4.43 1.344 1.341.957 2.477 2.104 3.341 3.51.27.441.565.865.83 1.31.948 1.61 2.238 2.891 3.762 3.952 1.102.768 2.213 1.523 3.314 2.292.254.177.507.363.715.587.475.515.436 1.103-.09 1.565-.19.167-.415.315-.647.413-1.618.67-3.248.782-4.893.08-.841-.364-1.57-.887-2.293-1.436a8 8 0 0 1-.6-.492c-.457-.439-1.002-.704-1.608-.877-2.111-.604-4.21-1.255-6.38-1.626a8.6 8.6 0 0 0-3.159.038c-.686.14-1.36.317-2.044.453-.634.127-1.266.26-1.907.334-1.635.18-3.124-.248-4.473-1.178-.361-.249-.733-.486-1.076-.757-.477-.375-1.022-.492-1.603-.452a8 8 0 0 0-1.3.182c-2.431.586-4.895.73-7.385.66-1.263-.035-2.529-.011-3.794.008-.54.008-1.081.057-1.62.111a8.5 8.5 0 0 0-4.037 1.482c-.74.517-1.462 1.063-2.183 1.606a18 18 0 0 1-3.81 2.218c-2.248.947-4.604 1.358-7.034 1.335-2.722-.023-5.4-.423-8.049-1.045-2.955-.694-5.808-1.687-8.596-2.876-2.007-.855-4.078-1.475-6.241-1.802-.56-.085-1.112-.235-1.654-.39a3.5 3.5 0 0 1-.771-.358c-.646-.385-1.016-.968-1.02-1.718a4.3 4.3 0 0 1 .183-1.295c.234-.766.535-1.511.806-2.265.322-.901.601-1.812.74-2.767.148-1.019.044-2.011-.222-2.989-.052-.192-.18-.365-.294-.533-.228-.344-.496-.663-.707-1.016-.39-.651-.502-1.342-.213-2.08.33-.838.15-1.559-.517-2.177-.695-.643-1.428-1.176-2.387-1.354a3.8 3.8 0 0 1-1.304-.487c-.934-.578-1.38-1.57-1.187-2.653.11-.608.387-1.119.8-1.566.262-.284.545-.547.838-.843zm34.88-10.228c.131-.061.183-.162.105-.293-.035-.057-.116-.143-.147-.13-.134.047-.067.135-.024.221.032.065.043.137.064.205.038.009.078.026.114.029.025.002.055-.01.083-.015-.02-.013-.039-.038-.06-.039q-.07.003-.14.02zM1.231 11.443c-.022.04-.042.078-.057.123-.01.092-.064.205-.029.27q.218.41.477.795c.454.69.891 1.392 1.16 2.18.016.04.066.071.132.133 1.016-1.362 1.17-2.97 1.406-4.602-1.111-.04-2.114.313-3.161.486-.046.107-.093.196-.125.288-.022.071-.016.145-.022.228l.22.095zm4.838 2.434a10 10 0 0 1-1.354 3.288c.108.123.201.24.305.352.102.107.21.209.331.33.572-.384 1.012-.853 1.435-1.334a7.3 7.3 0 0 0 1.73-3.413c.22-1.06.502-2.11.75-3.16.009-.043-.029-.093-.045-.134-.334-.225-.799-.147-1.144-.512.504-.209.901.174 1.355.083l.143-.458c-.57-.07-1.1-.137-1.637-.205-.204.415-.242.872-.522 1.178-.212-.007-.279-.108-.316-.238A2.87 2.87 0 0 1 7.054 8.2c.06-.278.119-.549.058-.85-.342-.148-.606-.025-.838.208-.246.245-.392.545-.484.874-.108.397-.21.797-.284 1.205-.164.86-.298 1.727-.468 2.589-.213 1.1-.585 2.144-1.241 3.066-.239.336-.506.652-.741.99-.078.11-.104.26-.157.402.87.16 1.034.083 1.434-.598.433-.739.767-1.52 1.056-2.326.291-.8.627-1.585.955-2.374.149-.354.335-.696.657-.942.017.058.05.11.038.147-.254.842-.51 1.679-.768 2.519-.094.247-.299.467-.199.764zM22.076 6.28l-.102.235-3.472-.165c-.04.114-.092.231-.125.357-.011.046.008.1.018.193.436.096.888.186 1.334.298.478.118.95.25 1.421.382.124.037.242.105.168.297-.879-.11-1.737-.434-2.717-.367.534.573.653 1.246.682 1.914.278.07.512.107.726.187 1.59.599 3.251.806 4.935.891 1.081.053 2.165.09 3.246.19 1.798.164 3.397.839 4.809 1.965 1.033.828 1.928 1.79 2.764 2.81.685.842 1.358 1.692 2.01 2.558 1.807 2.405 4.122 4.18 6.776 5.543 2.416 1.24 4.854 2.437 7.212 3.782 1.483.844 2.969 1.681 4.45 2.53 1.462.834 2.952 1.614 4.53 2.199.568.212 1.148.386 1.858.622-.165-.148-.216-.204-.274-.246a426 426 0 0 0-3.28-2.205 52 52 0 0 0-4.247-2.56c-1.685-.905-3.363-1.817-4.992-2.822-2.317-1.429-4.129-3.341-5.454-5.703-.774-1.38-1.657-2.683-2.533-3.992-.46-.686-.985-1.331-1.585-1.9-.873-.825-1.873-1.448-2.966-1.941-.8-.36-1.602-.727-2.36-1.165-1.077-.626-1.951-1.52-2.845-2.376a35 35 0 0 0-1.429-1.303A4.55 4.55 0 0 0 28.5 5.447c-.717-.141-1.431-.17-2.157-.176-2.452-.02-4.901-.047-7.343-.317-.15-.017-.305 0-.49 0 .036.307.065.582.098.876.158.026.283.05.407.066l3.064.386zm-9.051 37.352-.34.043a7.2 7.2 0 0 0-.648 2.143c-.088.635 0 .762.57 1.02.546.254 1.134.351 1.72.444 2.154.348 4.224.968 6.25 1.777 2.668 1.06 5.36 2.05 8.159 2.728 2.287.558 4.596.96 6.948 1.093 1.846.105 3.667-.038 5.455-.516 2-.54 3.798-1.479 5.44-2.731a71 71 0 0 1 2.24-1.662 10.2 10.2 0 0 1 3.743-1.633 14 14 0 0 1 2.77-.304c1.418-.021 2.84-.045 4.259-.01 2.204.056 4.384-.096 6.538-.616a11.4 11.4 0 0 1 1.527-.257c1.096-.11 2.1.151 2.988.827.35.265.721.502 1.078.753.927.655 1.96.924 3.08.82.641-.056 1.277-.187 1.908-.308.687-.13 1.366-.301 2.05-.425a9.6 9.6 0 0 1 3.616.017c.966.193 1.915.422 2.847.74.233.08.465.247.774.09-1.09-.776-2.167-1.521-3.306-2.174a154 154 0 0 0-3.531-1.946c-1.23-.667-2.522-1.2-3.829-1.698-.435-.167-.884-.293-1.326-.434-.673-.214-1.372-.212-2.068-.264-1.898-.14-3.764 0-5.608.48a117 117 0 0 1-3.165.767c-2.364.547-4.747.65-7.159.36-1.745-.209-3.47-.553-5.185-.918-3.06-.647-6.057-.446-9.013.55-.708.24-1.415.497-2.123.745-1.573.546-3.183.915-4.857.894a38 38 0 0 1-3.167-.156c-1.96-.184-3.88-.604-5.762-1.168-1.187-.357-2.369-.754-3.465-1.346-.933-.505-1.86-1.02-2.725-1.63-1.675-1.173-3.24-2.472-4.604-4.004-.569-.64-1.101-1.306-1.508-2.057a4.3 4.3 0 0 1-.39-.926c-.261-.97.19-1.516 1.186-1.453.333.021.665.085.99.154 1.493.315 2.984.6 4.513.665 2.29.094 4.537-.174 6.762-.704 1.108-.265 2.203-.566 3.313-.826 2.193-.515 4.41-.871 6.673-.832.933.015 1.845.134 2.754.37 1.27.33 2.41.941 3.519 1.603 1.529.915 3.007 1.917 4.532 2.84a42 42 0 0 0 3.19 1.755c1.634.8 3.374 1.303 5.145 1.696 2.17.486 4.37.778 6.583.982 2.314.214 4.635.283 6.958.31 2.108.024 4.161.4 6.16 1.057 2.841.933 5.482 2.307 8.036 3.843a44 44 0 0 1 6.482 4.765 42 42 0 0 0 2.447 2.018c1.35 1.024 2.858 1.253 4.476.747.113-.035.266-.037.298-.239-.04-.034-.083-.09-.14-.124a54 54 0 0 1-3.971-2.563c-1.368-.963-2.521-2.13-3.399-3.563-.38-.617-.762-1.23-1.127-1.853-.755-1.295-1.775-2.34-3-3.192-.96-.665-2.005-1.066-3.198-.968-.438.035-.875.048-1.316.06q-.736.02-1.47.017c-1.225-.014-2.33-.433-3.36-1.06-.64-.39-1.258-.819-1.912-1.182a10.85 10.85 0 0 0-5.262-1.396 5 5 0 0 0-1.968.375c-.55.224-1.088.481-1.64.703-.77.31-1.53.633-2.315.894-2.042.673-4.03.486-5.937-.5a22 22 0 0 1-2.39-1.435 57 57 0 0 1-4.13-3.134c-1.98-1.63-4.043-3.131-6.349-4.272-1.237-.611-2.515-1.088-3.875-1.325-1.588-.28-3.139-.067-4.673.36-1.722.482-3.39 1.123-5.061 1.74-1.675.617-3.347 1.247-5.08 1.686-.822.207-1.665.337-2.499.505l-.108-.228c1.135-.347 2.285-.649 3.396-1.056 1.433-.527 2.832-1.131 4.242-1.714 1.696-.704 3.362-1.477 5.123-2.018.99-.304 1.993-.55 3.032-.596.107-.005.26.032.307-.134-.047-.029-.085-.066-.13-.081-2.143-.775-4.009-2.005-5.763-3.435-1.141-.93-2.314-1.817-3.58-2.576-1.739-1.044-3.6-1.68-5.657-1.617-.591.019-1.183.067-1.777.081-.774.02-1.55.053-2.32.025-1.308-.046-2.561-.355-3.705-1.006-.511-.293-.977-.664-1.501-1.026-.636 1.273-1.91 1.873-3.057 2.696.509.546.967 1.06 1.45 1.557 1.058 1.084 2.31 1.896 3.666 2.554.16.078.335.145.481.246.062.044.064.167.094.252-.089.02-.184.064-.268.053-.1-.013-.195-.067-.288-.107-.855-.37-1.699-.765-2.463-1.306-1.078-.763-2.108-1.58-2.81-2.733-.052-.086-.13-.15-.197-.23-.36.255-.617.558-.783.892.375.395.709.747 1.045 1.104.388.413.762.84 1.163 1.242a11.5 11.5 0 0 0 3.932 2.564c1.33.524 2.72.8 4.152.873 1.158.06 2.32.11 3.474.2.718.052 1.442.078 2.14.303l.26.024c.303.072.604.139.907.21-.03.08-.058.165-.089.245a33 33 0 0 0-5.236-.34c-.697.008-1.391.029-2.086.012-2.741-.065-5.207-.924-7.372-2.617-.898-.702-1.654-1.544-2.38-2.417-.092-.111-.151-.268-.366-.23-.189.524-.223 1.092-.353 1.637s-.31 1.08-.472 1.64c.471.503.924.991 1.377 1.479l-.106.246c-.595-.355-1.066-.86-1.545-1.375-.107.09-.194.145-.26.218-.065.073-.107.16-.16.244.813 1.112 1.707 2.095 2.814 2.87.084.218.29.252.475.31.644.241 1.287.486 1.928.725l-.082.23c-2.4-.445-4.24-1.753-5.657-3.719-.43.233-.726.553-1.012.882-.083.095-.14.218-.195.334-.387.857.031 1.63.954 1.775.28.045.559.085.839.143 1.141.235 2.152.715 2.974 1.56.729.751 1.067 1.642.95 2.683-.037.33-.119.667-.242.973-.157.38-.104.708.124 1.022.352.478.687.974 1.075 1.416 2.333 2.684 4.934 5.06 8.007 6.892a21 21 0 0 0 4.595 2.047c2.44.745 4.943 1.038 7.495.974 2.261-.054 4.47-.44 6.66-.965 1.51-.362 3.01-.744 4.525-1.087a33 33 0 0 1 7.843-.808c.151.002.32-.044.4.139.05.11-.14.227-.403.24a33 33 0 0 0-4.39.461c-1.684.295-3.337.705-4.987 1.155-1.544.423-3.086.877-4.643 1.253-3.06.74-6.162.998-9.303.654-2.542-.283-4.974-.937-7.265-2.084-2.066-1.033-3.958-2.338-5.703-3.849-.953-.826-1.86-1.713-2.785-2.575l-.166-.096q.001.09.005.175c-.037.897-.074 1.795-.118 2.736 0 0 .022.047.057.084 1.576 1.705 3.395 3.083 5.503 4.066.114.05.219.13.319.202.018.016 0 .088-.016.133-.006.014-.04.033-.059.03-.097-.022-.202-.033-.293-.077-.718-.353-1.441-.695-2.144-1.075a15.4 15.4 0 0 1-3.253-2.345c-.084-.08-.18-.15-.317-.264-.127.372-.233.685-.34.99l.279.404zm53.267-8.92c-.624-.337-1.117-.614-1.622-.875a4.3 4.3 0 0 0-.71-.303c-.793-.24-1.587-.466-2.384-.688-1.83-.512-3.54-1.31-5.214-2.182-1.421-.742-2.81-1.538-4.214-2.313-2.015-1.109-4.074-2.138-6.14-3.15-1.277-.624-2.544-1.274-3.767-1.997-1.882-1.114-3.497-2.552-4.868-4.262-.646-.803-1.284-1.616-1.934-2.422-.728-.907-1.5-1.773-2.364-2.553-.79-.714-1.647-1.334-2.645-1.727a8.7 8.7 0 0 0-2.714-.578c-1.005-.053-2.009-.098-3.015-.149-1.32-.063-2.618-.26-3.875-.69-.581-.2-1.166-.403-1.774-.61-.402.832-1.052 1.405-1.79 1.898-.298.201-.587.419-.882.633-.827.603-1.189 1.449-1.303 2.436.223.138.425.25.613.383a7.64 7.64 0 0 0 3.372 1.276c1.028.136 2.06.096 3.093.056.645-.025 1.289-.077 1.934-.073 1.463.011 2.871.294 4.208.91q1.418.653 2.66 1.582a70 70 0 0 1 3.284 2.587c1.954 1.662 4.171 2.853 6.552 3.772.192.075.4.102.596.157.573.163 1.154.296 1.71.498 2.526.915 4.815 2.26 6.924 3.907.841.656 1.709 1.221 2.686 1.66a30.4 30.4 0 0 0 4.149 1.516c1.994.57 3.938 1.259 5.813 2.145.185.09.378.172.559.272a.62.62 0 0 0 .593.007c.792-.364 1.586-.723 2.472-1.13zm-51.765-2.026c.092.18.158.339.25.489a14 14 0 0 0 2.27 2.732c.146.14.325.255.504.349 2.116 1.11 4.329 1.969 6.654 2.518 3.492.825 7.022 1.15 10.603.808 2.138-.2 4.246-.578 6.348-.989 2.686-.53 5.386-.982 8.117-1.197.106-.009.207-.058.43-.123-.66-.344-1.225-.6-1.75-.921-1.636-.99-3.254-2-4.877-3.01-.9-.558-1.821-1.08-2.793-1.512-1.175-.52-2.4-.797-3.685-.748-.903.033-1.806.078-2.7.182-1.675.193-3.3.599-4.927 1.024-1.273.334-2.555.65-3.849.903-2.14.42-4.301.5-6.473.241-1.159-.137-2.283-.412-3.41-.7-.217-.056-.428-.156-.712-.046m50.256 7.776c-.113-.024-.212-.05-.31-.058-.82-.076-1.645-.136-2.467-.22-2.775-.292-5.525-.72-8.226-1.435-.171-.044-.356-.057-.533-.07-.436-.028-.874-.04-1.313-.073a17.6 17.6 0 0 0-3.015.029c-2.573.24-5.123.63-7.67 1.055-1.833.307-3.67.613-5.52.794-5.614.554-11.018-.24-16.154-2.65-.123-.058-.252-.102-.44-.178.07.106.084.159.12.183.777.551 1.533 1.14 2.345 1.64.988.609 2.023 1.15 3.132 1.527 1.03.348 2.061.672 3.12.922 1.99.476 3.996.794 6.04.887 1.827.088 3.607-.136 5.336-.75.73-.26 1.461-.523 2.195-.773 2.295-.78 4.646-1.209 7.082-1.073 1.446.08 2.866.355 4.285.622 1.52.29 3.048.532 4.595.642 2.506.18 4.935-.255 7.33-.944.02-.005.028-.035.066-.082zM18.399 4.525c.28.016.508.038.737.036 2.323-.002 4.645-.013 6.967-.015.567 0 1.136-.016 1.702.025 1.297.091 2.477.5 3.454 1.392.666.61 1.333 1.22 1.986 1.84 1.175 1.109 2.45 2.053 3.968 2.659 1.629.653 3.049 1.623 4.203 2.963.056.067.15.103.226.153.042-.058.074-.082.071-.096-.024-.12-.028-.249-.082-.357-.69-1.457-1.552-2.798-2.664-3.972a21.2 21.2 0 0 0-4.915-3.86c-1.857-1.056-3.815-1.827-5.927-2.216-1.175-.216-2.363-.227-3.548-.244-1.218-.02-2.416-.153-3.585-.54-.636-.211-1.283-.407-1.942-.526-.947-.177-1.027-.06-1.04.878-.008.626.193 1.217.385 1.887zM7.938 23.261c.067-.136.12-.22.15-.308.067-.195.13-.391.179-.59.132-.552.242-1.11.384-1.661.288-1.157.846-2.163 1.768-2.936.334-.282.701-.525 1.057-.782.356-.256.718-.506 1.068-.768a2.88 2.88 0 0 0 1.043-1.503c.108-.347.233-.686.352-1.028.209-.59.498-1.133.934-1.592.06-.063.19-.108.084-.273l-1.099-.238c-.1-.022-.216-.017-.299-.07-.074-.045-.105-.147-.16-.226.08-.05.155-.114.242-.14.069-.021.154.007.227.022l1.72.3c.417-.31.876-.64 1.327-.987.31-.238.563-.53.688-.917.124-.385.056-.61-.272-.878-.1-.081-.216-.145-.31-.231-.371-.326-.568-.732-.55-1.232.005-.138.037-.28.056-.424l-1.827.597c-.156.782-.828 1.338-1.204 2.11.152.031.25.07.341.071q1.081.009 2.167.007c.127 0 .262-.018.384.001.056.007.141.095.135.139-.004.057-.077.14-.136.157a1.7 1.7 0 0 1-.383.054c-.92.067-1.84.177-2.763.014-.123.285-.262.538-.343.803-.157.52-.272 1.05-.422 1.573-.06.207-.105.39.068.567.024.023-.031.189-.05.185-.293 0-.306.236-.374.422-.472 1.327-1.193 2.516-2.035 3.64-.358.476-.768.908-1.262 1.248-.066.044-.17.032-.37.064.126-.195.185-.3.263-.394.21-.26.452-.498.638-.772 1.107-1.62 1.864-3.39 2.218-5.325.165-.89.304-1.789.695-2.614.197-.417.422-.828.664-1.222.314-.511.396-.7.432-1.234-.1.007-.204-.008-.285.024-.371.144-.649.414-.912.701-.86.94-1.344 2.08-1.682 3.282-.25.894-.45 1.805-.667 2.706a8 8 0 0 1-1.535 3.18c-.649.815-1.418 1.497-2.22 2.148-.299.243-.58.51-.871.765-.206.182-.209.405-.116.64.047.117.11.233.176.346.178.302.349.367.634.186.257-.164.489-.377.728-.57.278-.222.535-.483.92-.515.074.535.024.64-.678 1.491.19.294.41.58.578.893.173.316.3.658.489 1.091zm45.922 9.983c1.282.985 2.443 1.792 3.677 2.499 1.637.936 3.341 1.161 5.136.533a1 1 0 0 1 .073-.023c.117-.047.259-.061.259-.256-.595-.22-1.194-.457-1.806-.666-.999-.34-2.003-.677-3.016-.975-1.285-.382-2.582-.727-3.873-1.087-.087-.025-.185-.012-.448-.02zM8.13 7.617c.021.313-.154.563-.091.819.58.073 1.115.14 1.677.209l.605-1.096c-.235-.055-.406-.129-.578-.131a5.9 5.9 0 0 0-1.613.199M4.36 10.04c.04-.231.089-.43.109-.633.01-.114-.015-.23-.022-.352-1.286.226-2.123.587-2.607 1.13.837-.115 1.638-.238 2.518-.141z"/><path fill="url(#b)" d="M13.025 43.632q.781.66 1.554 1.323c.011.005-.006.044-.013.08-.032.015-.077.05-.102.04a2 2 0 0 1-.344-.162 7.6 7.6 0 0 1-1.44-1.24l.34-.043z"/><path fill="url(#c)" d="M23.155 31.266c-1.052.26-2.19.33-2.667.124.502-.067.927-.12 1.353-.177.4-.055.803-.117 1.205-.176z"/><path fill="url(#d)" d="M6.27 13.113c.453.162.91.322 1.359.495.108.042.195.135.305.212-.231.183-.383-.005-.548-.042-.173-.041-.337-.12-.509-.174-.19-.057-.385-.107-.593-.163-.081.168-.146.3-.214.436-.1-.297.105-.517.2-.764"/><path fill="url(#e)" d="M22.076 6.28c.682-.013 1.356.062 2.177.138-.511.223-1.043.23-2.28.1l.101-.234z"/><path fill="url(#f)" d="M1.232 11.443c.367-.163.753-.12 1.13-.08.368.038.759-.005 1.223.28-.894-.035-1.653-.008-2.41-.077q.027-.066.057-.123"/><path fill="url(#g)" d="M27.62 26.27c.345.081.69.154 1.032.243.088.021.167.093.27.15-.348.138-.388.133-1.39-.152.03-.08.059-.165.09-.245z"/><path fill="url(#h)" d="M10.641 25.681c.326.226.676.424.959.787q-.498-.072-1.069-.542l.107-.246z"/><path fill="url(#i)" d="M13.786 28.923c.047.008.11 0 .145.025.056.037.093.1.138.152-.052.041-.1.114-.159.122-.066.005-.138-.043-.203-.067q.04-.115.082-.23z"/><path fill="url(#j)" d="M11.383 27.888q.238.156.474.311c-.185-.06-.39-.093-.474-.31"/><path fill="url(#k)" d="M66.153 43.042c3.191-1.081 6.551-.775 9.283.576-.085.069-.149.168-.217.168a2.6 2.6 0 0 1-.535-.062c-1.089-.2-2.178-.4-3.263-.611-1.486-.288-2.97-.24-4.45.042-.175.034-.352.08-.532.087-.068 0-.137-.094-.29-.202z"/><path fill="url(#l)" d="M26.338 49.292c-.196.071-.244.105-.29.102-2.262-.128-4.338-.831-6.269-2-.124-.075-.175-.181-.05-.343.104.032.229.048.336.103 1.483.755 3.072 1.189 4.675 1.599q.635.16 1.27.341c.082.023.154.092.328.197"/><path fill="url(#m)" d="M34.612 48.29c.253-.018.507-.04.76-.057 1.4-.088 2.76-.367 4.079-.845a19 19 0 0 1 2.444-.715c.076.176-.007.25-.135.313a12 12 0 0 1-2.676 1.004c-1.362.325-2.746.454-4.141.463-.119 0-.24-.031-.36-.05q.015-.059.023-.12z"/><path fill="url(#n)" d="M12.694 25.355c.49.267.966.562 1.472.802.512.242 1.044.451 1.582.625.513.162 1.047.267 1.579.378.538.114 1.097.132 1.706.366-.145.072-.203.127-.262.127-1.58.053-3.076-.251-4.466-1.026-.518-.287-1.023-.598-1.528-.906-.114-.07-.19-.175-.083-.366"/><path fill="url(#o)" d="M78.11 45.658c-.22-.007-.376.01-.522-.023-.83-.185-1.654-.381-2.479-.577-.85-.203-1.697-.417-2.545-.627a.6.6 0 0 1-.203-.088c-.033-.022-.05-.09-.046-.138.001-.042.04-.11.067-.115.122-.019.251-.044.369-.022 1.183.236 2.375.452 3.546.738.569.14 1.107.411 1.66.63.036.015.055.078.153.222"/><path fill="url(#p)" d="M23.3 22.95c-.096.015-.188.043-.279.037-1.446-.058-2.882-.16-4.264-.643-.484-.17-.95-.394-1.42-.606-.072-.03-.112-.133-.264-.33.265.082.38.101.485.151.918.44 1.895.663 2.893.811.788.113 1.58.227 2.368.352.166.025.325.09.49.14l-.008.094z"/><path fill="url(#q)" d="M29.49 20.468c-.408-.142-.824-.267-1.227-.429-1.007-.401-2.014-.799-3.101-.956-.04-.004-.075-.062-.113-.09.157-.237.37-.103.562-.088 1.444.134 2.761.598 3.875 1.562z"/><path fill="url(#r)" d="M27.633 16.693c-.385-.027-.75-.13-1.105-.25a14.6 14.6 0 0 0-5.7-.747c-.181.01-.18.006-.348-.151.031-.033.06-.092.097-.098 1.329-.178 2.66-.233 3.993-.032 1.033.155 1.986.533 2.91.996.063.031.104.104.145.164.013.019.005.049.008.118"/><path fill="url(#s)" d="M31.716 19.037c-.548-.279-2.66-1.818-2.808-2.026-.008-.011.02-.046.045-.103.231-.027.412.123.597.233 1.009.601 1.571 1.09 2.165 1.896"/><path fill="url(#t)" d="M29.101 15.51c-1.273-.412-2.388-.776-3.55-1.151.065-.061.11-.138.153-.137.89.025 2.455.6 3.397 1.287"/><path fill="url(#u)" d="M28.707 9.604c.555-.12.97.044 1.368.16 1.013.299 2.019.624 2.942 1.167.942.551 1.794 1.203 2.572 1.966 1.206 1.181 2.156 2.552 3.033 3.968-.107.199-.199.146-.297.032-.685-.804-1.374-1.605-2.052-2.414-.681-.81-1.39-1.587-2.212-2.259-1.339-1.1-2.869-1.816-4.523-2.282-.2-.056-.398-.108-.594-.172-.044-.015-.082-.056-.234-.164z"/><path fill="url(#v)" d="M39.638 17.097c.494.433 3.17 3.514 3.43 3.949-.213.072-.32-.1-.44-.204a19.7 19.7 0 0 1-2.959-3.25 1 1 0 0 1-.167-.338c-.009-.038.083-.104.13-.155z"/><path fill="url(#w)" d="M13.592 13.353c-.372-.08-.664-.139-.955-.218-.042-.01-.067-.118-.074-.18-.003-.023.089-.089.117-.077.298.104.633.13.908.473z"/><defs><linearGradient id="a" x1="-3.5" x2="13.014" y1="82.5" y2="13.298" gradientUnits="userSpaceOnUse"><stop stop-color="#dec184" stop-opacity=".28"/><stop offset=".63" stop-color="#e5b77a" stop-opacity=".38"/><stop offset="1" stop-color="#fbefd9" stop-opacity=".15"/></linearGradient><linearGradient id="b" x1="-3.5" x2="13.014" y1="82.5" y2="13.298" gradientUnits="userSpaceOnUse"><stop stop-color="#dec184" stop-opacity=".28"/><stop offset=".63" stop-color="#e5b77a" stop-opacity=".38"/><stop offset="1" stop-color="#fbefd9" stop-opacity=".15"/></linearGradient><linearGradient id="c" x1="-3.5" x2="13.014" y1="82.5" y2="13.298" gradientUnits="userSpaceOnUse"><stop stop-color="#dec184" stop-opacity=".28"/><stop offset=".63" stop-color="#e5b77a" stop-opacity=".38"/><stop offset="1" stop-color="#fbefd9" stop-opacity=".15"/></linearGradient><linearGradient id="d" x1="-3.5" x2="13.014" y1="82.5" y2="13.298" gradientUnits="userSpaceOnUse"><stop stop-color="#dec184" stop-opacity=".28"/><stop offset=".63" stop-color="#e5b77a" stop-opacity=".38"/><stop offset="1" stop-color="#fbefd9" stop-opacity=".15"/></linearGradient><linearGradient id="e" x1="-3.5" x2="13.014" y1="82.5" y2="13.298" gradientUnits="userSpaceOnUse"><stop stop-color="#dec184" stop-opacity=".28"/><stop offset=".63" stop-color="#e5b77a" stop-opacity=".38"/><stop offset="1" stop-color="#fbefd9" stop-opacity=".15"/></linearGradient><linearGradient id="f" x1="-3.5" x2="13.014" y1="82.5" y2="13.298" gradientUnits="userSpaceOnUse"><stop stop-color="#dec184" stop-opacity=".28"/><stop offset=".63" stop-color="#e5b77a" stop-opacity=".38"/><stop offset="1" stop-color="#fbefd9" stop-opacity=".15"/></linearGradient><linearGradient id="g" x1="-3.5" x2="13.014" y1="82.5" y2="13.298" gradientUnits="userSpaceOnUse"><stop stop-color="#dec184" stop-opacity=".28"/><stop offset=".63" stop-color="#e5b77a" stop-opacity=".38"/><stop offset="1" stop-color="#fbefd9" stop-opacity=".15"/></linearGradient><linearGradient id="h" x1="-3.5" x2="13.014" y1="82.5" y2="13.298" gradientUnits="userSpaceOnUse"><stop stop-color="#dec184" stop-opacity=".28"/><stop offset=".63" stop-color="#e5b77a" stop-opacity=".38"/><stop offset="1" stop-color="#fbefd9" stop-opacity=".15"/></linearGradient><linearGradient id="i" x1="-3.5" x2="13.014" y1="82.5" y2="13.298" gradientUnits="userSpaceOnUse"><stop stop-color="#dec184" stop-opacity=".28"/><stop offset=".63" stop-color="#e5b77a" stop-opacity=".38"/><stop offset="1" stop-color="#fbefd9" stop-opacity=".15"/></linearGradient><linearGradient id="j" x1="-3.5" x2="13.014" y1="82.5" y2="13.298" gradientUnits="userSpaceOnUse"><stop stop-color="#dec184" stop-opacity=".28"/><stop offset=".63" stop-color="#e5b77a" stop-opacity=".38"/><stop offset="1" stop-color="#fbefd9" stop-opacity=".15"/></linearGradient><linearGradient id="k" x1="-3.5" x2="13.014" y1="82.5" y2="13.298" gradientUnits="userSpaceOnUse"><stop stop-color="#dec184" stop-opacity=".28"/><stop offset=".63" stop-color="#e5b77a" stop-opacity=".38"/><stop offset="1" stop-color="#fbefd9" stop-opacity=".15"/></linearGradient><linearGradient id="l" x1="-3.5" x2="13.014" y1="82.5" y2="13.298" gradientUnits="userSpaceOnUse"><stop stop-color="#dec184" stop-opacity=".28"/><stop offset=".63" stop-color="#e5b77a" stop-opacity=".38"/><stop offset="1" stop-color="#fbefd9" stop-opacity=".15"/></linearGradient><linearGradient id="m" x1="-3.5" x2="13.014" y1="82.5" y2="13.298" gradientUnits="userSpaceOnUse"><stop stop-color="#dec184" stop-opacity=".28"/><stop offset=".63" stop-color="#e5b77a" stop-opacity=".38"/><stop offset="1" stop-color="#fbefd9" stop-opacity=".15"/></linearGradient><linearGradient id="n" x1="-3.5" x2="13.014" y1="82.5" y2="13.298" gradientUnits="userSpaceOnUse"><stop stop-color="#dec184" stop-opacity=".28"/><stop offset=".63" stop-color="#e5b77a" stop-opacity=".38"/><stop offset="1" stop-color="#fbefd9" stop-opacity=".15"/></linearGradient><linearGradient id="o" x1="-3.5" x2="13.014" y1="82.5" y2="13.298" gradientUnits="userSpaceOnUse"><stop stop-color="#dec184" stop-opacity=".28"/><stop offset=".63" stop-color="#e5b77a" stop-opacity=".38"/><stop offset="1" stop-color="#fbefd9" stop-opacity=".15"/></linearGradient><linearGradient id="p" x1="-3.5" x2="13.014" y1="82.5" y2="13.298" gradientUnits="userSpaceOnUse"><stop stop-color="#dec184" stop-opacity=".28"/><stop offset=".63" stop-color="#e5b77a" stop-opacity=".38"/><stop offset="1" stop-color="#fbefd9" stop-opacity=".15"/></linearGradient><linearGradient id="q" x1="-3.5" x2="13.014" y1="82.5" y2="13.298" gradientUnits="userSpaceOnUse"><stop stop-color="#dec184" stop-opacity=".28"/><stop offset=".63" stop-color="#e5b77a" stop-opacity=".38"/><stop offset="1" stop-color="#fbefd9" stop-opacity=".15"/></linearGradient><linearGradient id="r" x1="-3.5" x2="13.014" y1="82.5" y2="13.298" gradientUnits="userSpaceOnUse"><stop stop-color="#dec184" stop-opacity=".28"/><stop offset=".63" stop-color="#e5b77a" stop-opacity=".38"/><stop offset="1" stop-color="#fbefd9" stop-opacity=".15"/></linearGradient><linearGradient id="s" x1="-3.5" x2="13.014" y1="82.5" y2="13.298" gradientUnits="userSpaceOnUse"><stop stop-color="#dec184" stop-opacity=".28"/><stop offset=".63" stop-color="#e5b77a" stop-opacity=".38"/><stop offset="1" stop-color="#fbefd9" stop-opacity=".15"/></linearGradient><linearGradient id="t" x1="-3.5" x2="13.014" y1="82.5" y2="13.298" gradientUnits="userSpaceOnUse"><stop stop-color="#dec184" stop-opacity=".28"/><stop offset=".63" stop-color="#e5b77a" stop-opacity=".38"/><stop offset="1" stop-color="#fbefd9" stop-opacity=".15"/></linearGradient><linearGradient id="u" x1="-3.5" x2="13.014" y1="82.5" y2="13.298" gradientUnits="userSpaceOnUse"><stop stop-color="#dec184" stop-opacity=".28"/><stop offset=".63" stop-color="#e5b77a" stop-opacity=".38"/><stop offset="1" stop-color="#fbefd9" stop-opacity=".15"/></linearGradient><linearGradient id="v" x1="-3.5" x2="13.014" y1="82.5" y2="13.298" gradientUnits="userSpaceOnUse"><stop stop-color="#dec184" stop-opacity=".28"/><stop offset=".63" stop-color="#e5b77a" stop-opacity=".38"/><stop offset="1" stop-color="#fbefd9" stop-opacity=".15"/></linearGradient><linearGradient id="w" x1="-3.5" x2="13.014" y1="82.5" y2="13.298" gradientUnits="userSpaceOnUse"><stop stop-color="#dec184" stop-opacity=".28"/><stop offset=".63" stop-color="#e5b77a" stop-opacity=".38"/><stop offset="1" stop-color="#fbefd9" stop-opacity=".15"/></linearGradient></defs></svg>