<svg xmlns="http://www.w3.org/2000/svg" width="701" height="343" fill="none" viewBox="0 0 701 343"><path fill="#0f1628" d="M200.483 312.67c.545 1.166.953 3.524.99 4.696 1.386 1.302-.88 4.782 1.561 4.907 2.498.127 4.53-.754 6.923-1.317 1.049-.248 4.308.132 5.069-1.304.944-1.781 1.011-3.815 1.295-5.786.247-1.712.782-4.063.853-5.139.163-2.468.741-5.164 2.128-7.337 2.905-4.55 8.576-7.368 10.969-12.288 1.673-3.44 2.452-8.22 4.609-11.348.685-.993.946-2.299 1.586-3.259.606-.91 1.648-1.814 2.105-2.897.905-2.143 1.669-4.665 3.351-6.357 3.369-3.389 9.253-4.175 13.306-6.795 3.117-2.015 5.723-4.663 7.567-7.928.559-.991.94-2.062 1.467-3.046.6-1.12 1.449-2.292 1.325-3.509-.112-1.09-1.723-6.815-3.652-5.876-2.131 1.036-13.423 22.105-16.35 17.448-.665-1.057 1.398-3.754 1.498-4.827.463-4.936 1.876-12.198-.275-16.759-.786-1.666-4.197-9.392-6.96-6.406-1.391 1.503.799 6.458.856 8.346.079 2.615-.032 5.659-.128 8.074-.121 3.002-.302 4.957-.903 6.317-2.347 5.316-8.095 13.603-13.439 5.228-.581-.91-1.623-1.512-2.021-2.513a45 45 0 0 0-1.453-3.208c-3.657-7.343-4.326-15.918-2.521-23.876.261-1.149.912-6.207-.079-9.207-.362-1.094-2.128-5.738-4.186-4.086-2.566 2.058-2.685 6.378-6.414 7.172-1.384.294-2.198-1.174-2.597-1.549-2.507-2.355-2.097-4.793-1.173-7.211 1.18-3.092 4.84-9.212 1.641-12.218-.829-.778-2.232-1.432-3.316-.609-.992.752-1.386 2.926-1.712 3.96-.802 2.545-.366 7.521-2.597 6.57-1.621-.692-5.494-7.211-6.569-8.506-1.55-1.867-3.699-3.348-6.222-3.01-2.496.334.426 6.802 1.051 7.66 2.9 3.981 6.241 8.387 9.957 11.684 4.134 3.668 12.817 16.039 12.005 21.859-.194 1.393-4.515 3.976-7.871 1.073-3.107-2.688-5.083-5.794-7.465-9.061-2.579-3.539-4.434-8.892-8.664-10.839-.549-.252-2.493-.68-2.648.3-.175 1.106.839 3.101 1.352 4.014 1.504 2.681 3.319 5.256 5.186 7.696 1.108 1.449 2.402 2.872 2.946 3.708.621.954 1.832 2.011 1.833 3.283.001 1.436-5.451 2.54-4.823 3.702.856 1.586 5.559 3.103 7.419 3.823 1.411.546 2.554.568 4.077.683 1.965.149 4.47 2.032 5.339 2.946 2.451 2.577 4.35 5.609 6.433 8.46 1.871 2.562 4.127 4.742 6.223 7.114 1.534 1.737 2.033 3.863 2.469 6.091.648 3.312 2.128 6.311.342 9.611-1.46 2.699-2.291 6.274-4.036 8.798-1.136 1.644-4.688 6.074-6.283 6.935-3.402 1.837-3.19 1.723-6.812-10.329-1.476-4.91-1.849-7.242-1.372-12.088.258-2.626.174-4.893-.858-7.307-.977-2.287-5.537-4.981-7.636-6.199-3.129-1.815-6.527-2.279-9.824-4.722-1.621-1.202-2.45-2.111-3.253-3.029-.791-.904-1.331-1.987-2.397-3.296-1.832-2.248-3.507-4.24-4.288-2.982-1.262 2.031.245 10.135 1.699 11.729 2.992 3.28 7.75 7.367 11.823 9.176 2.052.912 4.626 1.674 6.065 3.529.352.453.798 2.255.607 4.635-.287 3.579-.094 6.85 1.085 10.268 2.335 6.771 5.823 21.452-8.31 12.162-1.606-1.055-11.422-11.201-12.715-7.49-.539 1.549-.681 3.767.337 5.144 1.641 2.221 3.266 4.48 5.68 5.947 2.393 1.455 4.901 2.736 7.313 4.164 1.292.764 2.128 1.628 3.198 2.266 1.551.925 4.416 1.229 5.25 1.851 1.04.774 2.526 1.395 3.034 2.484"/><path fill="#0f1628" fill-rule="evenodd" d="M268.566 316.82c-.096-3.074-.598-9.28-1.987-11.64-.725-1.233-3.438-3.213-6.508-5.454-5.661-4.132-12.538-9.152-10.416-12.014 2.529-3.408 5.644-1.292 8.735.806 2.459 1.671 4.903 3.33 7.024 2.188 2.996-1.613 1.911-7.276 1.255-10.697-.218-1.14-.389-2.031-.346-2.441.349-3.281 4.529 3.495 6.667 4.98.912.633 1.822 1.03 2.321 2.096 1.118 2.391-.79 4.215-1.515 5.944-.76 1.81-.772 5.127-.351 8.757.343 2.962 4.931 3.58 7.146 2.906 4.366-1.329 3.532-10.269 2.925-13.35-.305-1.55-1.641-2.844-3.178-4.333-4.189-4.058-7.772-8.701-11.257-13.362-1.68-2.247-2.761-7.025-.377-9.144 3.922-3.488 7.972 3.057 11.88 9.372 3.466 5.601 6.82 11.02 9.874 9.101 1.447-.91 1.183-2.586.914-4.301-.209-1.329-.421-2.681.156-3.719.437-.787 1.521-.98 1.962-1.767 1.303-2.325-1.775-5.2-3.15-6.726-1.351-1.5-2.118-3.347-3.506-5.395-1.461-2.156-3.623-4.31-5.291-5.577-3.338-2.535-5.817-6.462-8.677-9.501-1.899-2.017-2.261-6.128-2.55-9.409-.419-4.747-7.743-18.752 1.286-17.782 5.598.601 6.071 5.784 6.494 10.408.171 1.883.335 3.673.833 5.024.729 1.98 1.37 4.143 2.049 5.986.873 2.369 4.146 4.796 6.796 4.217 1.543-.337 1.441-2.607 1.33-5.071-.171-3.793.421-7.542.272-11.349-.047-1.217-.08-2.055.063-2.398.478-1.149 2.281-1.18 3.297-.965 5.437 1.15 5.148 10.892 3.651 14.538-.867 2.111-.773 4.969-.627 9.412.041 1.232.085 2.587.114 4.081.05 2.563 1.338 4.614 2.916 6.524 1.118 1.355 2.862 2.391 3.927 3.986 2.304 3.454 5.396 6.717 9.898 6.598 2.095-.055 2.981-4.495 3.616-6 3.573-8.467-1.22-18.85-4.172-26.861-.457-1.239-.891-6.231-1.326-11.228-.161-2.288-.393-4.579-.637-6.86-.4-3.735-3.183-7.184-6.4-8.876-2.721-1.431-4.219-3.512-6.504-4.606-1.862-.892-7.203-.786-12.479-.235-8.471.886-17.005 1.069-25.459 2.195-3.935.524-6.413.745-8.694-.033-2.144-.73-3.227-1.376-4.008-1.582-1.769-.466-3.035-2.923-4.105-4.676-1.029-1.688-2.958-2.932-4.96-4.961-2.025-2.053-.062-6.547-2.877-7.67-4.1-1.636-8.663-1.477-12.976-1.613-2.539-.081-5.358.217-8.255.523-6.275.663-13.035 1.468-18.619-2.113-.983-.631-2.773-1.779-1.928-3.01.759-1.107 3.914-1.281 7.87-1.5 1.358-.075 2.81-.155 4.293-.28 3.563-.3 2.311-6.195.872-8.169-1.755-2.408-2.724-9.098-2.557-12.085.077-1.376 2.116-1.586 3.139-1.127 1.711.77 1.664 3.431 2.343 5.274 1.193 3.225 1.882 8.278 4.517 10.641 1.77 1.587 3.783 1.978 6.426 2.207 2.217.192 4.221 1.11 6.256 1.509.96.189 2.797.38 5.035.08 5.033-.676.465-13.797.13-16.208-.223-1.603.469-4.821 2.552-4.897 1.961-.071 3.795 2.35 5.092 3.945.929 1.142 1.037 2.812 1.261 6.259.052.793.11 1.681.185 2.677.414 5.489 1.408 12.924 2.314 14.524.881 1.555 2.662 3.556 4.271 5.141 1.996 1.968 3.759 1.029 5.423.142 1.138-.607 2.23-1.189 3.319-.8 1.609.575 2.333 2.557 3.474 4.384 2.197 3.518 8.744 3.016 12.167 2.653 1.38-.146 1.673-1.809 1.096-2.898-.455-.859-1.575-1.717-2.762-2.627-2.107-1.615-4.427-3.393-3.629-5.629.54-1.512 3.217-2.943 4.807-2.331 1.5.577 2.541 1.656 4.059 3.228.873.904 1.905 1.972 3.272 3.202 4.044 3.637 10.845 3.325 15.955 3.09l.501-.023c3.047-.137 2.374-5.957 1.875-7.732-2.481-8.825-13.619-14.105-21.721-15.147-2.577-.331-5.68-.597-8.012-.759-3.685-.255-9.55-2.841-9.692-6.981-.041-1.215 1.103-1.705 2.107-2.135.597-.256 1.144-.49 1.365-.843.84-1.345-1.367-2.894-3.211-4.189-5.513-3.871-6.892 1.359-12.35-2.595-3.144-2.278-10.461-9.287-11.283-13.442-.109-.548-3.034-7.147-3.342-7.755-1.333-2.623-4.334-3.513-6.645-4.198-4.716-1.397-8.91-2.967-13.259-5.16-.958-.484-1.421-2.778-1.673-3.313-.925-1.962 3.707-1.088 8.096-.259 2.091.394 4.127.779 5.481.841 1.428.066 1.288-3.898.862-7.682-.293-2.609-1.902-3.644-3.306-4.546-.504-.325-.982-.633-1.363-.99-1.6-1.503-14.24-15.967-9.651-18.005 2.199-.977 4.234 3.442 5.501 4.632 2.571 2.414 4.225 5.014 7.419 6.67 2.611 1.352 3.938-4.593 5.545-7.076 1.608-2.483 1.916-8.897 4.881-6.75s-1.604 7.67-2.938 12.367c-1.773 6.244-3.799 21.097 1.628 25.06.754.55 2.107.481 3.418.286.629-.093 5.153-1.037 5.601-2.16 1.238-3.105.3-5.687.199-8.928-.102-3.241.815-3.538 1.493-4.102 2.189-1.818 2.826 1.079 3.47 7.191s1.555 6.78-.2 11.015c-1.019 2.46-3.749 4.064-3.907 6.229-.188 2.579 2.758 8.852 4.458 11.13 1.451 1.945 11.914 6.179 13.505 2.748 1.627-3.507 1.236-9.001.994-12.398-.116-1.636-.198-2.786-.003-2.993 2.345-2.496 4.795 3.314 5.734 4.772 4.232 6.569 2.011 15.187 2.336 22.486.136 3.061 8.563.321 10.318.314 2.476-.01 3.203 3.076 4.109 4.676 1.807 3.19 7.558 4.608 10.861 5.249 7.28 1.41 7.249-13.992 7.137-17.648-.083-2.725-2.773-4.58-4.631-6.854-1.63-1.994-3.781-4.223-5.462-6.034-2.079-2.24-5.121-2.942-7.944-3.786-2.603-.778-4.748-2.795-6.882-4.049-2.231-1.313-3.901-3.142-4.529-5.673-1.057-4.264 4.866-1.707 8.651-.073 1.508.651 2.677 1.155 2.927 1.022 1.987-1.057 2.381-3.251 2.575-9.597.078-2.52-.449-15.029 2.33-14.602 8.429 1.293 3.904 14.358 3.713 19.261-.143 3.653.495 8.597 1.1 10.441.574 1.752 3.666 4.901 5.775 3.784 1.969-1.043 1.777-3.944 1.592-6.749-.171-2.581-.336-5.08 1.19-5.98 3.758-2.215 4.921 3.535 5.535 5.711.501 1.778.507 4.143.517 8.401.005 2.251.011 5.032.093 8.534.136 5.812 3.968 9.925 7.041 14.394 3.213 4.673 9.968-1.223 11.727-4.465 1.106-2.039.419-4.957-.215-7.647-1.051-4.459-1.466-9.033-1.612-13.608-.075-2.318.69-.641 1.997 2.221 1.85 4.053 4.785 10.483 7.96 11.321 5.351 1.413 6.056-9.875 6.254-13.047l.01-.165c.162-2.575 2.016-7.175 2.546-10.321.36-2.142 3.842-2.531 5.506-2.276 1.855.285 1.521 8.657.803 12.847-.61 3.557-3.995 6.391-3.25 10.336.244 1.297 1.827 1.531 3.378 1.76.702.104 1.397.206 1.96.406.831.295 1.505.963 2.294 1.401.787.438.722 3.065.582 5.939-.148 3.016-6.521.736-8.121.585-2.346-.222-5.115.078-7.714 1.244-4.315 1.935-6.78 6.014-9.954 9.231-5.124 5.194-10.93 10.079-13.425 17.167-.908 2.579-.881 4.483-.858 6.082.015 1.087.029 2.033-.255 2.954-.897 2.909-.777 4.91-.727 9.09.019 1.657.921 2.839 1.851 4.058 3.134 4.11 5.874 9.157 6.636 14.3.178 1.207.34 2.618.505 4.046.398 3.469.809 7.045 1.501 8.07 1.055 1.564 2.143 3.037 3.767 4.071 4.704 2.994 10.362-2.526 12.998-6.137 2.342-3.207-.078-10.154-.494-13.473-.324-2.585-1.211-7.739-2.536-9.338s-5.039-5.519-7.934-8.081c-2.896-2.563-2.988-4.129-3.056-6.173-.077-2.307 1.227-4.427 2.211-5.611 3.181-3.479 8.757 2.236 11.903 6.47 1.056 1.42 1.823 2.453 2.104 2.47 1.157.071 1.726-1.294 2.484-3.115.392-.939.833-1.999 1.432-3.046 1.449-2.533 2.459-5.738 3.174-7.783.323-.923.643-1.49 2.264-1.541s4.072 3.3 4.62 4.28l.028.051c2.763 4.923-2.681 9.726-4.988 13.813-1.552 2.747-3.473 19.684.165 20.475 1.712.373 3.897.888 5.57 1.915 3.798 2.333-3.068 8.02-4.198 9.363-1.107 1.316-1.884 3.002-2.694 4.761l-.17.368c-.977 2.115-2.503 4.107-3.522 6.391-2.052 4.597-3.804 9.639-6.309 14.008-.954 1.662-1.195 3.986-2.15 5.652-5.478 9.552-4.082 23.153-.446 32.974 3.163 8.543 15.638 15.769 14.526 25.293-.27 2.315-7.145.962-8.402.973-2.191.02-9.276-.251-19.272-.094-11.078.175-22.485 1.082-33.157 4.21-6.103 1.788-12.299 3.604-18.325.82-.952-.74-1.906-1.339-2.845-1.695-.475-.218-1.018-2.835-1.502-3.136m27.656-33.863c.429-.485 1.064-1.392 1.109-1.724.644-.518.885-1.286 1.44-1.877 4.198-3.465 18.268 8.632 16.62 11.878-1.423 2.801-6.102 8.042-9.566 8.146-3.584.108-5.794-2.865-8.443-4.765-1.005-.721-2.606-1.869-3.171-3.166-1.121-2.575.211-6.456 2.011-8.492" clip-rule="evenodd"/><path fill="#0f1628" d="M386.377 232.425c-.07 1.298-.088 5.099-1.409 4.414-3.275-1.7-18.052-20.444-18.414-20.039-2.133 2.385-2.834 5.607-.554 8.377.721.876 7.258 7.868 5.35 8.469-.583.184-7.13 4.13-6.915 4.801-1.804 4.111 13.717-.604 17.009 9.199.356 3.059 1.865 9.964 2.027 12.913.35 6.336-7.111 33.878-17.403 29.948-3.754-1.434-12.417-7.191-13.637-11.132-.767-2.477-2.77-12.909-5.967-9.23-15.654 18.018 22.884 31.408 14.564 44.835-1.043 1.684 13.683 7.018 14.23 3.173 1.197-8.409 12.468-14.536 11.574-23.138-.256-2.456-.249-6.306-.013-7.313 1.194-5.103 4.267-5.422 6.934-9.623.651-1.025 3.018-5.2 3.889-5.526 2.398-.898 4.41-1.591 6.415-2.096 1.418-.357 4.749-3.319 5.246-4.546 2.527-6.241 1.564-11.077-4.74-5.202-.79.735-7.697 6.368-9.121 4.741-3.408-3.893-.217-14.654 2.906-18.53 2.754-3.418 5.968-5.618 9.537-8.04 2.602-1.767 20.726-10.573 16.035-15.601-1.993-2.136-7.223-.604-8.928 1.258-2.24 2.445-5.712 8.347-9.91 6.399-1.83-.848.06-8.342.059-9.69-.014-14.783-5.094-33.524 6.371-45.057 3.384-3.405 8.079-7.761 3.157-12.259-.865-.791-4.127-4.442-5.515-2.11-.701 1.178-4.316 11.494-6.892 5.477-3.299-7.704 2.038-16.539.067-24.246-.392-1.533-3.015-6.643-5.053-5.537-4.863 2.641 1.936 13.108-3.073 16.416-1.326.876-4.134 2.148-5.324.519-.574-.786-7.507-8.051-8.136-3.323-.778 5.834 10.399 15.073 13.677 19.76 3.939 5.635-1.411 18.036-1.873 24.052-.404 5.264-.377 7.637-.096 8.106 1.943 3.252 4.766 8.248 4.573 12.122-.121 2.435-1.684 5.745-4.634 4.513-2.42-1.011-13.53-24.394-14.192-23.838-9.463 7.947 8.643 27.988 8.179 36.584M451.25 308.032c-.411 1.585-.519 2.964-.495 3.727-.644.021-.35.363.024.654 1.483.449 4.073-1.136 7.807-.63 1.613.219 2.837.703 5.296 1.256 3.278.737 5.12 1.89 6.956.773 3.245-1.973 5.03-5.591 7.049-8.698 3.123-4.808 6.352-9.088 10.555-13.097 1.081-1.031 2.898-2.539 3.96-4.495 1.943-3.577 6.666-6.022 9.742-8.431 7.975-6.246 13.623-16.298 18.852-24.825 1.203-1.96 3.722-9.426.549-10.367-2.019-.599-4.864-1.618-6.467.364-1.704 2.107-4.746 4.131-5.495 6.883-.678 2.489-.384 5.677-1.98 7.805-.737.984-2.012 2.315-3.849 4.453-.813.946-1.007 2.291-1.8 2.468-2.025.452-.8-5.382-.453-6.087.575-1.168 1.819-2.006 1.724-3.626-.079-1.347-2.452-8.821-5.174-7.187-.338.203-.515.813-.913 1.451-1.619 2.595-2.919 5.353-2.876 8.511.048 3.454 1.07 9.249-1.575 12.178-1.963 2.172-4.398 3.715-6.416 5.761-1.638 1.66-12.833 13.483-15.058 10.012-.24-.376-.253-.925-.394-1.602-.317-1.522-.825-5.809-.898-9.108-.162-7.303-.224-15.9 4.06-22.276 2.022-3.011 4.212-5.964 6.002-9.122 2.629-4.64 6.652-8.174 9.692-12.494 4.12-5.852 5.478-13.96 6.279-20.941.95-8.274 2.499-18.143.246-26.345-.303-1.106-.826-2.565-1.618-5.09-1.225-3.906-.961-9.936.333-13.964 1.082-3.365 4.202-11.706-2.202-12.617-1.319-.188-3.769-.494-4.01.436-1.258 4.86.043 10.134-1.679 14.93-.39 1.084-.477 2.541-1.609 2.693-1.106.148-2.463.276-3.155-.519-2.099-2.411-2.475-5.931-5.086-8.084-.984-.812-1.781-1.388-2.405-2.186-.683-.871-2.836-5.709-4.431-4.342-2.577 2.208-1.553 5.919.377 8.195 1.576 1.857 4.549 2.345 5.665 4.614.989 2.011.623 6.519-1.77 7.418-9.172 3.444-14.036-4.605-16.503-11.687-1.517-4.355-4.378-10.115-9.809-10.037-3.642.052-9.255.879-12.808-.827-1.224-.587-5.875-4.727-6.418-1.787-.164.888-.756 2.575.153 3.486 1.186 1.187 2.206 2.059 3.574 2.722 4.204 2.035 9.449 1.285 13.779 2.865 1.55.566 2.55.912 3.228 1.549 1.878 1.763 1.928 7.032.664 9.104-3.381 5.541-10.191 8.766-15.664 11.608-1.021.53-3.463.184-3.749 1.423-.403 1.748 1.566 4.816 3.198 5.266 6.155 1.696 13.518-3.951 19.175-5.972 2.401-.857 5.661-2.27 8.239-1.368 4.885 1.709 9.557 5.059 13.402 8.356 2.567 2.202 7.239 5.269 8.097 8.668 1.487 5.888 1.789 11.315-.497 17.047-.497 1.246-1.584 5.618-3.305 8.214-.603.91-4.508 2.645-5.991 2.396-3.195-.537-5.626-29.005-10.257-21.45-1.53 2.496-4.257 5.061-4.109 8.223.14 2.992 2.829 6.092 3.925 8.913 1.091 2.805 1.567 7.622 2.42 10.468.927 3.092 2.117 5.688 2.71 8.836 1.182 6.266-2.23 11.531-4.861 17.579-.609 1.398-1.266 2.242-1.722 3.774-1.905 6.393-2.386 13.253-5.065 19.443-.087.202-1.302 3.825-2.783 2.954-3.124-1.837-5.063-3.013-6.277-5.793-1.737-3.979-.298-10.429-2.779-14.015-.801-1.158-2.353-1.107-3.356-1.074h-.015c-1.836.06-3.337.71-4.764 3.265-2.304 4.128 8.787 26.459 13.381 34.153.609 1.018 2.11 2.612 1.427 5.249"/><path fill="#0f1628" fill-rule="evenodd" d="M567.732 257.888c.624-2.222 1.875-4.403 3.319-7.857 6.424-15.369-23.594-24.771-32.778-29.152-5.216-2.487-9.218-8.202-12.58-12.713-1.255-1.684-4.16-19.374-1.086-19.516 1.643-.076 2.57 2.856 3.484 4.691 3.032 6.09 6.499 9.32 12.852 11.778 6.493 2.513 11.334 7.202 17.461 10.157 2.621 1.264 15.105 15.371 18.018 13.091 1.973-1.544 2.218-5.575 3.402-7.86 1.16-2.239-3.484-4.928-5.259-7.276-3.046-4.03-7.219-7.202-10.437-11.156-6.3-7.743-16.321-10.571-22.451-18.453-4.856-6.245-8.228-15.065-7.941-23.003.41-11.356 15.68 19.897 16.314 20.711 1.236 1.589 3.696 1.748 8.566 1.524 4.398-.203 3.699-7.849 6.284-10.28 1.782-1.676 5.03 2.594 5.328 4.084.853 4.263-.488 6.533-.94 9.486-1.239 8.095 9.3 29.117 20.133 26.458 8.383-2.057-3.5-12.463-4.929-14.111-6.45-7.442-5.456-25.937 1.352-33.244 2.517-2.701 11.201 11.858 12.827 13.319 1.523 1.369 3.248 2.071 3.797 2.289 3.541 1.405-.093-10.61-1.304-12.207-7.414-9.781-24.737-4.889-34.134-7.698-7.483-2.236-10.482-10.614-17.174-13.423-1.909-.801-4.513-.633-6.632-1.265-10.497-3.129-21.446-3.95-30.943-9.731-2.115-1.287-3.332-2.304-4.26-2.277-4.044.117-1.472 11.186-2.539 13.105-2.054 3.695-7.432-1.513-8.478-3.213-1.082-1.759-3.624-1.98-5.525-3.163-5.656-3.52-10.638-7.826-15.738-12.072-1.436-1.195-2.887-3.162-4.704-4.12-1.581-.833-3.984-1.197-6.179-1.668-4.595-.986-15.545-8.96-13.814-14.847.087-.298 16.385 5.686 18.707 5.696 1.622.007 2.671-1.557 3.651-2.36 7.408-6.072-11.094-24.5-6.179-26.253 13.041-4.655 6.235 9.136 12.299 13.564 5.314 3.879 8.696-11.49 12.624-12.956 1.724-.643 2.336 6.165 2.397 6.975.841 11.194-17.026 18.936-13.734 29.672 1.212 3.954 11.864 9.398 15.867 9.052 13.319-1.151-2.735-17.93 1.376-20.596 7.232-4.69 12.083 12.849 15.879 16.635 9.551 9.524 8.428-9.956 7.385-14.649-.382-1.715-2.091-2.261-2.197-3.11-.328-2.637 5.21-3.003 6.559-3.005 7.707-.01 4.412 11.133 6.989 14.669 1.445 1.983 5.21 10.522 8.72 8.654 8.256-4.393 6.331-19.1 5.838-26.928-.259-4.127-25.733-2.283-27.247-3.345-3.902-2.737-6.139-6.886-9.545-10.093-6.082-5.725-14.646-7.066-21.674-10.88-1.692-.919-1.503-5.136-.364-6.348 2.39-2.545 4.896-1.002 7.015 1.088 2.567 2.532 7.212 3.955 10.817 3.702 12.07-.846-3.937-30.138.147-32.262 10.196-5.301 9.994 31.386 11.804 37.23 4.883 15.775 8.992-5.007 10.894-6.15 1.597-.958 3.387 1.67 4.924 3.634 2.105 2.692-.508 5.906-.675 8.014-.266 3.368 7.353-3.892 8.003-4.197 3.374-1.581 5.598.439 7.48 1.001 7.296 2.18 6.464-11.168 4.753-14.568-1.598-3.176-8.373-2.94-11.366-3.835-4.393-1.313-6.568-6.187-10.57-8.122-2.348-1.135-4.185-2.428-6.345-4.448-1.144-1.07-.852-4.69-.431-8.426.343-3.052 7.804.218 9.247.616 5.574 1.535 1.565-19.735 1.498-21.68-.08-2.359 11.305.174 10.146-3.031-1.611-4.452-10.544-15.372-5.053-19.934 7.377-6.13 7.57 11.306 8.697 12.671s2.738 3.475 4.719 4.585c5.225 2.931 7.649-18.847 12.553-15.208 6.347 4.709.42 17.03 1.982 23.5 1.204 4.987 9.854-7.988 13.613-3.592 6.291 7.355-7.555 13.506-12.542 15.21-11.614 3.971-11.448 32.365-6.511 40.069 2.347 3.661 7.843-3.352 10.089-2.176 10.502 5.498-7.448 26.758-11.872 31.468-4.372 4.655-7.099 26.035.799 28.447 2.758.842 2.754-3.457 3.569-4.989 3.454-6.493 8.304 14.36 9.244 15.367 1.235 1.323 12.454 2.451 13.809.042 3.419-6.074-7.963-16.392-11.243-20.042-3.041-3.384-5.544-8.756-5.702-13.317-.078-2.266 5.438 2.348 5.745 2.675 1.314 1.395 1.413 2.983 2.276 3.421 3.4 1.727-4.488-19.593-.766-21.997 7.206-4.656 9.328 20.002 14.481 21.567 2.94.893-5.103-25.668-5.495-29.577-.828-8.255-.225-14.445.281-15.622 4.712-10.977 9.155 15.923 9.535 17.218.486 1.653 3.021-1.394 3.283-1.646 1.344-1.293 3.064 1.183 3.633 2.046 3.017 4.572 1.203 13.895-.327 19.014-2.231 7.463-3.044 17.432-.009 24.665 1.256 2.992 6.237 3.771 9.173 3.288 9.092-1.493-.194-22.075-1.993-26.84-.63-1.669-.421-3.482-.769-7.169-1.286-13.614.661-15.864.806-18.74.275-5.451 5.381-.452 6.807 1.94 5.923 9.939-2.835 35.535 9.455 41.903 2.529 1.31 1.493-11.47 1.325-12.442-.42-2.431-1.478-4.984-2.016-7.382-.553-2.462-3.703-18.074-.037-18.232 10.45-.453 4.982 16.676 9.834 19.309 2.708 1.469 2.507-.131 4.304-1.291 1.607-1.039 3.646 1.481 4.348 2.565 2.43 3.755-3.59 7.683-5.65 9.95-6.019 6.624 6.31 16.108 10.755 19.443 5.001 3.753 6.27 9.747 6.857 15.603.326 1.647.891 3.206 1.47 4.775.604.219 2.149.139 2.874.357 2.225.67.357-8.801.055-9.95-2.224-8.465-.767-17.514-3.685-25.734-.654-1.841-1.429-3.493-1.779-8.865-1.314-20.17-18.359-36.029-29.668-51.202-3.226-4.329-11.176-12.324-8.326-18.515 2.873-6.243 6.926 8.572 9.655 9.646 4.066 1.6 1.768-12.528 2.667-12.497 4.249.148 4.299 7.212 5.355 9.962 1.938 5.05 1.226 12.069 4.946 16.281 8.341 9.445 7.418-12.619 6.466-15.845-.726-2.463-6.988-14.44-3.511-16.087 9.73-4.61 5.874 11.434 12.488 11.84 1.269.078 1.307-2.373 2.492-4.627 1.45-2.757 2.812-4.111 4.112-4.696 3.363-1.51 4.936 5.829 5.221 7.624.788 4.952-4.058 7.369-5.693 11.516-1.738 4.407 7.49 31.269 11.174 29.586 2.827-1.292 1-7.681.009-9.593-2.054-3.958-1.601-11.837 2.045-14.882 6.044-5.048 7.505 15.394 7.317 17.032-.343 2.99-.504 4.932-.87 6.689-1.648 7.91-7.606 13.349-10.203 20.772-1.348 3.851-.321 9.339.949 13.166.476 1.435 2.762 2.189 5.112 4.512 21.272 21.021 19.109 43.255 19.802 70.776.951 37.855 1.946 75.682 2.6 113.548.219 12.656-.137 12.668-.623 12.505-10.42-3.497-21.327-2.985-32.191-2.475l-.116.006c-31.5 1.478-62.908 4.805-94.349 7.096-6.31.46-13.514 2.591-19.749.921-3.13-.838-6.375-.696-7.913-1.727-3.92-2.628-18.249-12.434-15.137-17.763 5.818-2.781-1.094-15.838-3.241-18.89-2.548-3.622-9.731-18.226-5.351-21.865 6.405-5.321 8.067 6.768 10.084 9.91 2.74 4.27 8.908 8.336 13.284 10.602 8.506 4.405 9.247-9.405 9.415-14.084.389-10.845 10.465-10.537 12.822-18.943m73.154-101.117c.974 1.068 2.892 3.018 3.218 3.552 1.305 2.992 2.044 17.198-3.916 16.483-5.928-.711-16.517.453-19.216-7.008-2.611-7.217 15.31-20.225 19.914-13.027M548.862 31.457c4.073-.875 9.18 3.918 7.726 7.938-.465 4.888-1.135 9.271-4.692 12.935-1.61 1.657-7.425 3.813-7.559-.579-.08-2.641 1.284-3.907 1.996-6.297.867-2.914-1.638-13.103 2.529-13.998" clip-rule="evenodd"/><path fill="#0f1628" d="M128.255 328.725c-.809 1.82-1.269 4.717-1.513 5.848s-1.791 1.337-2.157 1.489c-.784.363-1.232 1.276-2.083 1.51-6.286 1.722-13.163 1.386-19.554 2.776-3.84.836-7.752 1.674-11.678 1.901-6.528.378-12.99-.474-19.491-.849-5.809-.336-11.644-.667-17.458-.873-2.573-.091-5.348.259-7.89-.242-1.543-.303-4.323-1.641-6.59-2.628-4.838-2.108-10.894-5.668-12.5-11.197-1.566-5.398-1.71-15.18-5.79-19.615-5.048-5.486-5.251-2.674-11.487-7.213-2.303-1.676-4.326-12.036-7.068-13.088-3.475-1.334-4.261-10.334-.567-10.441 6.878-.199 8.76 8.919 13.77 12.307.847.573 1.427 1.308 2.296 1.628 2.122.78 1.433-4.774 1.355-5.444-.863-7.478-4.529-14.863-2.052-22.538.383-1.185.455-3.57 2.117-3.799 1.308-.18 3.047-.147 3.745.365 1.339.982 2.29 2.693 2.718 4.287 1.5 5.6 4.156 11.525 2.866 17.451-.66 3.032-.78 6.045-.814 9.153-.093 8.709 10.047 47.96 23.9 26.745 1.219-1.866.36-5.34.36-8.747-.217-2.431.223-6.036-.154-6.945-1.074-2.152-1.27-4.725-2.447-6.881-1.371-2.513-3.327-5.088-3.352-8.048-.03-3.56-.124-6.008-.212-6.469-1.028-5.398-3.867-9.452-5.62-14.456-1.14-3.255-.633-7.531.668-10.683.533-1.29 7.294-11.337 9.7-9.833 4.182 2.612 2.555 5.437 1.057 8.806-1.497 3.37-2.16 6.451-2.241 9.054-.274 8.744 3.307 21.381 7.435 29.312 1.084 2.083 2.072 4.666 3.81 6.28.159.147 2.72 2.738 3.078 1.984 1.035-2.178 2.818-4.375 2.961-6.805.346-5.884 2.161-11.541 3.05-17.339.526-3.428 2.9-7.478 2.57-10.776-.321-3.215-3.334-5.708-4.384-8.841-1.095-3.27-3.807-9.379-1.236-12.584 1.26-1.572 5.245-.927 6.921-.237 3.041 1.25 5.311 7.832 9.062 6.093 3.786-1.756 2.211-11.143 2.474-14.579.32-4.178 2.617-7.839 4.02-11.71.36-.996.316-1.786.815-2.232 1.304-1.165 2.638-2.417 4.08-3.41.968-.667 2.203-2.974 3.594-2.865 1.145.09 3.095.722 3.446 1.973.994 3.551-3.413 9.593-5.36 12.264-.81 1.11-1.987 1.927-2.374 3.13-.52 1.617-1.968 8.647.969 9.132 4.107.678 8.116-4.158 11.416-5.809 1.214-.607 2.558-1.248 3.587-2.221.962-.912 2.053-2.901 3.689-3.43 2.474-.799 2.098 5.886 1.255 6.769-3.058 3.199-7.004 5.494-10.41 8.276-6.712 5.482-10.919 11.509-16.167 18.425-.96 1.264-1.592 2.982-2.575 4.39-1.565 2.24-3.29 5.309-3.993 7.929-.643 2.403-1.573 9.695 2.536 10.238 6.093.805 14.683-8.59 16.711-12.992 1.297-2.815 5.254-21.703 9.56-18.35 4.291 3.34 1.836 15.056.045 19.333-1.735 4.146-4.364 8.83-7.885 11.709-4.915 4.02-11.273 6.752-15.763 11.054-2.328 2.23-4.481 4.157-7.479 5.449-2.303.994-6.388 1.186-7.17 4.191-.402 1.542-.19 9.91 3.139 8.93 1.214-.358 2.109-1.485 3.132-2.326 3.952-3.246 9.15-9.684 14.656-9.282 4.582.335-3.549 19.551 5.302 19.533 2.462-.005 6.457-.979 8.082-2.983.859-1.06 1.36-2.122 2.425-4.04 2.063-3.716 4.9-7.24 4.847-11.721-.042-3.607-3.771-22.525 3.949-19.565 10.203 3.912 3.639 21.516-.011 28.32-.759 1.416-2.521 5.845-.7 6.911 2.515 1.471 7.916-8.558 8.588-10.409 2.466-6.791 4.861-16.882 10.104-22.101.862-.859 1.699-2.439 3.24-2.37 2.37.106 4.614-.221 4.692 1.321.242 4.797-3.149 8.055-5.868 11.557-1.214 1.565-2.675 2.646-2.623 4.145.152 4.42 2.892 7.624 6.876 3.971 2.606-2.388 6.827-11.963 11.721-7.059 4.51 4.519-6.482 14.445-9.556 16.555-1.478 1.014-5.576 1.256-7.327 2.423-3.998 2.662-6.851 6.748-8.79 11.108"/></svg>