<svg xmlns="http://www.w3.org/2000/svg" width="63" height="65" fill="none" viewBox="0 0 63 65"><path fill="#a18f8c" d="M58.95 42.51s-.198-.632-.168-1.029.258-.483.694-1.025c.93-1.156 1.625-2.75 1.32-4.503-.085-.496-.182-.982-.277-1.472-.052-.262-.295-1.022-.182-.78.712 1.52 2.717 3.473 1.107 5.025-2.698 2.602-2.495 3.784-2.495 3.784M42.426 4.025c.063.375 0 .759.343 1.134.375.41.752.66 1.744.536 1.098-.138 1.864-1.574 2.477-1.036.426.374.241 2.026.33 2.54.248 1.435.37 2.497 1.266 3.635 1.04 1.322 4.807-.058 5.582.926 1.26 1.603.266 3.268-.561 4.701-.234.405-.731.786-1.073 1.09-.187.165-.802.56-.56.496.615-.165 1.31-.53 1.775-.974 1.76-1.677 3.4-4.305 2.055-6.726-.617-1.111-1.696-1.02-2.794-.725-.343.092-.587.08-.93.01-.135-.027-.367-.092-.234-.128 1.223-.328.926-2.086 2.928-2.733.578-.187 1.036-.183 1.715.076 1.266.484 1.582 1.544 1.582 1.544s-.109-.677-.348-1.04c-1.086-1.648-2.369-1.546-3.475-1.355-2.362.409-1.696 2.89-3.55 2.36-2.264-.648-1.309-4.214-3.236-4.934-.649-.242-2.042 1.333-2.773 1.522-.58.15-.838.129-1.297-.132-.186-.105-.596-.621-.741-.886a2.3 2.3 0 0 1-.206-.534s-.046.472-.02.633M39.722 3.14c-2.715-1.134-3.393-1.55-5.214-1.804-1.865-.26-6.394.791-7.748 2.45-.682.835-.219 2.18-.881 2.94-.597.685-.751-1.426-.516-2.119s2.774-2.952.204-2.953c-2.05 0-4.16 3.198-2.93 4.877.384.523.642.714 1.184 1.025.291.166.89.22.84.287-.126.17-1.046.085-1.534-.17-.75-.391-1.481-1.21-1.618-2.026-.308-1.834.611-3.084.508-3.24-.096-.144-.297.616-.774 1.129-.423.455-.875 1.12-2.401 1.217s-2.867-.62-3.261-2.066c-.219-.803-.048.419 1.521.871 1.12.323 2.622-.881 3.574-1.516C24.57-.55 29.85-.37 34.52.904c1.457.397 2.987 1.236 5.202 2.235M43.766 58.397s-.135 2.33-2.178 2.651-2.667-.98-3.984-.203-2.364 3.343-3.95 3.613c-1.588.27-4.458.034-6.011-1.08s-1.874-2.786-3.005-3.478-1.874-.625-3.259-.22c-1.384.406-3.17.346-4.64-.158-1.47-.505-3.697-1.722-5.046-3.335s-2.237-3.62-2.852-4.365-1.89-2.148-3.667-2.895-3.089-.727-3.19-2.948 1.307-2.364-.958-5.044c-2.266-2.681-.255-1.464 1.028-.652 1.284.812 2.492 1.831 3.059 2.7.566.868.18 1.633.236 2.237s-.595 1.18-.293 1.86c.302.679 1.086 1.33 2.624 1.604s1.852.494 2.427 1.352c.576.86.084 1.955.007 2.618-.076.663.73 2.305 2.8 3.817 1.088.796 1.49.746 3.433 1.257 1.06.279 1.717.97 2.542 1.216s1.19.255 2.284.23 2.117-.514 3.535.17 1.486 1.135 2.304 1.852 1.666 1.642 4.562 2.07c2.896.43 3.325-.786 3.888-1.152.563-.367 2.033-1.774 2.752-2.13.72-.354 1.73-.171 2.379.154.648.326 1.052.483 1.777-.05.682-.502.903-.793 1.396-1.69"/></svg>