<svg xmlns="http://www.w3.org/2000/svg" width="2081" height="1551" fill="none" viewBox="0 0 2081 1551"><g filter="url(#a)" opacity=".3" style="mix-blend-mode:overlay"><path fill="#fff" fill-opacity=".48" d="M1638.82 18.267 67.123 1032.56l-45.878 149.46L1719.37 17.029zM1913.06 27.017l-173.56 2.668L51.023 1201.14l-26.843 171.9zM17.449 935.059 1497.73 79.12l-21.59.332L16.84 895.49zM736.147 1421.64C1015.59 1083.97 2009.68 91.308 2017.41 85.478l8.58 34.298L882.402 1474.98zM964.139 1496.41 2034.33 152.459l27.57 19.634L1045.1 1532.63z"/><path stroke="#fff" stroke-opacity=".74" stroke-width="9" d="m45.683 1204.85 5.34-3.71m0 0L1739.5 29.685l173.56-2.668L24.18 1373.04zm16.1-168.58L1638.82 18.267l80.55-1.238L21.245 1182.02zM1497.73 79.12 17.449 935.06l-.608-39.569L1476.14 79.452zm519.68 6.358c-7.73 5.83-1001.82 998.492-1281.263 1336.162l146.255 53.34L2025.99 119.776zm16.92 66.981L964.139 1496.41l80.961 36.22L2061.9 172.093z"/></g><defs><filter id="a" width="2080.56" height="1550.51" x="0" y=".001" color-interpolation-filters="sRGB" filterUnits="userSpaceOnUse"><feFlood flood-opacity="0" result="BackgroundImageFix"/><feBlend in="SourceGraphic" in2="BackgroundImageFix" result="shape"/><feGaussianBlur result="effect1_foregroundBlur_457_33" stdDeviation="6.15"/></filter></defs></svg>