<svg xmlns="http://www.w3.org/2000/svg" width="699" height="189" fill="none" viewBox="0 0 699 189"><path fill="#fff" d="M461.472 65q7.876 0 14.319 3.923 6.5 3.866 10.354 10.479Q490 85.958 490 93.972t-3.855 14.626q-3.855 6.557-10.354 10.479Q469.349 123 461.472 123q-7.875 0-14.373-3.923-6.444-3.922-10.299-10.479-3.8-6.612-3.8-14.626t3.8-14.57q3.855-6.612 10.299-10.48 6.498-3.921 14.373-3.922m19.551 48.866a13.9 13.9 0 0 0 3.194-5.1q1.047-2.97 1.047-6.276 0-5.38-2.589-11.264t-7.6-11.04q-5.066-5.1-10.849-7.733-5.783-2.69-11.069-2.69-3.304 0-6.169 1.065a13.6 13.6 0 0 0-5.011 3.25 14.4 14.4 0 0 0-3.194 5.156q-1.047 2.915-1.047 6.276 0 5.38 2.589 11.264 2.588 5.828 7.6 10.983 5.066 5.1 10.849 7.79 5.783 2.634 11.069 2.634 3.304 0 6.169-1.065a13.6 13.6 0 0 0 5.011-3.25M504.175 101.069V78.095q0-4.694-2.992-7.953-2.994-3.314-7.183-3.314V66h23.182v.828q-4.24 0-7.233 3.314-2.943 3.258-2.943 7.953v13.033c.715 4.372.824 5.194 1.223 6.372 2.129 5.081 2.647 6.625 6.172 10.638q5.087 6.352 12.37 8.836c1.164.405 1.572.526 2.803.526 1.928-.147 3.21-1.064 4.574-2.5 1.629-1.841 3.675-5.573 4.573-7.966.931-2.43 1.548-5.809 1.548-8.534V73.732q0-.276-.05-.497-.299-2.762-2.095-4.584-1.745-1.823-4.239-1.823h-.05V66H556v.828h-.05q-2.594 0-4.439 2.044-1.846 1.988-1.945 4.97v40.426q.149 2.928 1.945 4.915 1.845 1.989 4.439 1.989h.05V122h-9.396q-2.744 0-4.689-2.264h-.05l-.199-.332-.15-.165a.6.6 0 0 0-.1-.166q-.099-.11-.099-.166a1 1 0 0 0-.15-.221q-.05-.165-.2-.386a8 8 0 0 0-.249-.608q-.1-.331-.249-.773a8 8 0 0 1-.2-1.767V108c-1.548 3.5-3.338 7.502-6.63 10.3-3.292 2.761-6.22 3.7-10.51 3.7q-6.434 0-11.372-4.142-4.938-4.197-6.784-10.824a22.6 22.6 0 0 1-.798-5.965M643.203 77.102v22.987q0 3.039.801 5.968 1.85 6.63 6.802 10.83 4.951 4.145 11.404 4.145c4.301 0 7.237-.94 10.538-3.703 3.302-2.799 5.096-6.803 6.648-10.305v7.156q0 .883.201 1.768.15.442.25.774.15.331.25.607.15.222.2.387a.9.9 0 0 1 .15.221q0 .055.1.166a.7.7 0 0 1 .1.166l.15.166.2.331h.05c1.701 3.592 8.887 3.45 10.287 3.01.251-.079.667-.349 1.187-.744.326-.249.692-.546 1.084-.876 1.554-1.311 3.499-3.139 4.852-4.452-.849.707-2.554 1.782-5.319 2.731-3.607 1.237-4.204-2.911-4.42-5.14V72.847q.1-2.984 1.951-4.974 1.851-2.044 4.452-2.044h.05V65h-22.227v.829h.05q2.502 0 4.252 1.823 1.8 1.824 2.1 4.587.05.22.05.497v24.782c0 2.726-.618 6.107-1.552 8.539-.9 2.394-2.952 6.129-4.586 7.971-1.367 1.436-2.652 2.354-4.586 2.501-1.234 0-1.644-.121-2.811-.526q-7.302-2.487-12.404-8.841c-3.309-3.76-3.976-5.353-5.799-9.714l-.389-.93c-.358-1.053-.483-1.822-1.017-5.092l-.21-1.284v-13.04q0-4.698 2.951-7.958 3.001-3.315 7.252-3.315V65H633v.829q4.202 0 7.202 3.315 3.001 3.26 3.001 7.957M584.829 114.384V72.243q0-3.032-2.153-5.11Q580.522 65 577.52 65H568v.898h.057q3.003 0 5.156 2.134 2.154 2.078 2.153 5.053v41.187q0 3.032-2.153 5.165-2.153 2.077-5.156 2.077H568v.899h24.195v-.899h-.056q-3.003 0-5.1-2.021-2.097-2.078-2.21-5.109"/><path fill="#fff" d="M594.292 89.119h-9.463v.898c3.664.14 11.628.155 14.166-.898q.793-.225 1.53-.562 1.133-.45 2.21-1.067a15 15 0 0 0 2.04-1.403q1.02-.73 1.87-1.572a15 15 0 0 0 1.643-1.797 22 22 0 0 0 1.417-2.021q.623-1.067 1.133-2.19l.567-1.347v-.112q.51-1.46.85-2.864.396-1.46 1.246-2.863.624-1.011 1.473-1.853a12.2 12.2 0 0 1 1.87-1.516 12 12 0 0 1 4.533-1.797q.737-.112 1.474-.168h.51v-.898h-12.636v11.116a12 12 0 0 1-.567 1.629 17 17 0 0 1-1.077 2.19 19 19 0 0 1-1.36 2.02 25 25 0 0 1-1.643 1.797 19 19 0 0 1-1.87 1.628q-.963.73-2.04 1.292-1.076.617-2.266 1.066a12.7 12.7 0 0 1-2.38.786q-1.247.281-2.493.45a4.5 4.5 0 0 1-.737.056"/><path fill="#fff" fill-rule="evenodd" d="M584.586 90.984h1.289c7.029 0 12.297 6.67 18.685 14.756l.924 1.169C615.059 119.173 627.211 134 651.24 134c15.007 0 30.719-8.029 37.532-13.428l2.228-2.223-2.198.824-2.209 1.739c-3.222 2.471-16.111 10.251-31.67 10.251-21.099 0-30.851-12.373-39.765-23.683-1.083-1.373-2.153-2.731-3.229-4.049-4.235-5.154-8.529-9.732-14.12-12.228-3.481-1.54-7.112-1.567-8.821-1.356q-.181.03-.374.054c-1.025.133-2.321.168-3.936.168z" clip-rule="evenodd"/><path fill="#fff" d="M594.292 89.119h-9.463v.898c3.664.14 11.628.155 14.166-.898q.793-.225 1.53-.562 1.133-.45 2.21-1.067a15 15 0 0 0 2.04-1.403q1.02-.73 1.87-1.572a15 15 0 0 0 1.643-1.797 22 22 0 0 0 1.417-2.021q.623-1.067 1.133-2.19l.567-1.347v-.112q.51-1.46.85-2.864.396-1.46 1.246-2.863.624-1.011 1.473-1.853a12.2 12.2 0 0 1 1.87-1.516 12 12 0 0 1 4.533-1.797q.737-.112 1.474-.168h.51v-.898h-12.636v11.116a12 12 0 0 1-.567 1.629 17 17 0 0 1-1.077 2.19 19 19 0 0 1-1.36 2.02 25 25 0 0 1-1.643 1.797 19 19 0 0 1-1.87 1.628q-.963.73-2.04 1.292-1.076.617-2.266 1.066a12.7 12.7 0 0 1-2.38.786q-1.247.281-2.493.45a4.5 4.5 0 0 1-.737.056"/><path fill="#fff" fill-rule="evenodd" d="M584.586 90.984h1.289c7.029 0 12.297 6.67 18.685 14.756l.924 1.169C615.059 119.173 627.211 134 651.24 134c15.007 0 30.719-8.029 37.532-13.428l2.228-2.223-2.198.824-2.209 1.739c-3.222 2.471-16.111 10.251-31.67 10.251-21.099 0-30.851-12.373-39.765-23.683-1.083-1.373-2.153-2.731-3.229-4.049-4.235-5.154-8.529-9.732-14.12-12.228-3.481-1.54-7.112-1.567-8.821-1.356q-.181.03-.374.054c-1.025.133-2.321.168-3.936.168zM218.055 95.836v-9.328c0-13-12.252-21.508-24.744-21.508-14.722 0-24.164 12.662-24.164 20.09 0 3.601.279 8.31 4.744 12.148-5.949 4.205-6.262 10.388-5.693 14.238.841 5.836 8.366 9.524 14.166 9.524s12.492-.032 25.579-9.524c.148 7.016 3.569 10.524 11.599 10.524 4.313 0 11.989 0 16.264-6.541 1.73-3.381 1.603-5.607-.534-8.877-2.509-3.838-7.481-8.613-17.217-10.746m-10.112-9.328V93.4c-9.542-3.17-24.749-.834-31.914 2.903-5.026-3.795-5.056-9.251-4.984-12.147 0-7.016 9.067-16.656 21.113-16.656 12.938 0 15.785 9.103 15.785 19.008m10.112 27.341V97.238c11.339 2.803 19.573 10.199 15.08 17.287-1.613 2.544-5.767 3.737-7.997 3.737-3.867 0-7.083-1.833-7.083-4.413m-40.842-2.373c-1.338-2.837-.949-7.697 1.898-10.033l.475-.468c3.627 1.908 8.446 3.738 13.76 3.738 2.531-.311 7.212-1.588 5.694-4.205-1.898-3.27-5.22 0-4.271 1.402s-3.321 2.432-6.168 1.683c-2.561-.453-5.546-2.087-8.066-3.795l.679-.474c6.862-5.14 20.393-6.758 26.729-4.686v14.28c-4.759 3.611-9.852 6.541-17.114 7.475-6.498.836-11.717-.892-13.616-4.917" clip-rule="evenodd"/><path fill="#fff" d="m294.283 111.08.717.546q-4.024 4.804-9.759 7.59-5.734 2.784-12.46 2.784h-.166q-7.94-.11-14.39-3.931-6.451-3.876-10.366-10.319-3.86-6.443-3.859-14.195v-.492q.22-7.862 4.08-14.195t10.31-10.1Q264.896 65 272.781 65q8.38 0 15.272 4.313.331.165.662.164.551 0 .937-.546 1.158-1.692 1.158-3.822v-.054h.882V87.44h-.882v-.055q0-2.238-1.213-3.986a25 25 0 0 0-.938-1.091 26 26 0 0 0-2.205-2.348 42 42 0 0 0-3.032-2.73q-4.632-3.713-9.594-5.624-4.907-1.91-9.483-1.91-3.308 0-6.23 1.091a14.2 14.2 0 0 0-5.073 3.167 14.5 14.5 0 0 0-3.253 5.078q-1.047 2.838-1.047 6.115 0 5.296 2.646 11.083 2.646 5.733 7.719 10.81 5.127 5.023 10.917 7.644 5.844 2.62 11.192 2.621 3.309 0 6.175-1.038a14.7 14.7 0 0 0 5.128-3.221q1.213-1.365 1.654-2.02zM302 66h48v12.306h-.884q-.11-4.866-3.369-8.11-3.26-3.3-7.954-3.301h-7.181v48.106q.11 3.02 2.099 5.09 2.044 2.014 4.971 2.014h.056V123h-23.531v-.895h.055q2.928 0 5.027-2.07 2.099-2.126 2.099-5.09v-48.05h-7.181q-4.695 0-7.954 3.3-3.259 3.245-3.424 8.111H302z"/><path fill="#fff" fill-rule="evenodd" d="M395.978 65.49c-2.579 0-6 1.592-11.673 12.2 7.137-5.255 16.948-10.099 24.589-9.116 3.108.4 5.525 4.103 5.525 10.966 0 7.357-3.593 16.503-10.429 24.4-6.837 7.898-9.808 7.334-9.808 7.334 2.971.564 17.834-5.031 35.709-22.48-6.677 8.453-14.275 16.357-24.036 22.48q-10.5 4.867-19.064 6.1c-20.179 1.988-25.735-2.085-25.832-4.318-3.934 7.74-9.628 16.26-17.318 27.765-1.71 2.558-3.519 5.265-5.429 8.143 25.003 7.311 69.5 15.486 94.516 5.036 12.296-4.55 19.966-11.232 23.698-18-.942 7.477-3.667 10.367-4.989 10.911 21.229-5.568 41.469-4.628 53.256-3.56 11.838 1.071 20.307 8.11 20.307 12.816-9.392-16.406-51.664-11.651-51.664-11.651-11.981 1.203-18.454 4.181-24.115 6.785-4.09 1.881-8.426 2.951-12.769 4.25-37.507 11.213-70.128 2.627-100.841-3.085C322.625 165.489 307.462 172 301.214 172c-8.615 0-11.177-1.676-13.741-5.236-3.587-6.611-2.049-16.274 21.014-20.343 7.175-1.266 11.276-1.526 18.962 0 1.692-2.384 3.405-4.71 5.182-7.123 5.819-7.899 12.319-16.725 20.957-31.529 7.585-12.563 10.326-17.913 12.155-21.483 1.28-2.5 2.113-4.126 3.85-6.746 10.545-9.275 21.41-16.526 26.385-14.05m-29.493 38.45-4.283 7.334c14.154 8.523 24.771-2.038 29.053-6.298l.26-.259c8.381-9.23 12.452-18.962 14.34-27.644q0-2.604-5.526-3.632-4.213 0-22.171 11.583c-2.365 3.829-4.644 7.303-6.551 10.21-3.032 4.622-5.122 7.809-5.122 8.706m-41.926 46.127c-10.544 12.2-27.86 24.326-35.547 15.68-4.738-5.594 2.05-12.206 9.736-14.278 7.095-1.913 17.85-3.103 25.811-1.402M154.759 180.938Q164.722 189 176.088 189q15.103 0 28.025-14.884c1.713-2.116 3.892-4.998 3.892-7.598 0-.31.208.311 0 0-1.195 4.015-5.887 7.994-8.084 9.482q-6.205 4.628-14.024 4.628-4.204 0-8.563-1.086-14.48-3.411-23.043-9.768-8.562-6.201-12.144-14.574-3.58-8.372-3.58-17.985 0-10.388 3.113-21.706a180 180 0 0 1 8.096-22.327q4.827-11.164 9.809-20.931l2.335-4.806a217 217 0 0 1 16.971-30.39q9.652-14.574 23.977-20.62l2.802.465q8.564 1.86 14.012 1.86 7.318 0 7.318-3.41t-7.473-3.411q-14.948.31-28.803 9.457-13.234 8.683-23.821 21.086-10.432 12.404-16.348 24.498l-4.36 9.147h-34.563l2.491-6.357q4.671-12.713 10.587-23.722 8.096-14.574 21.797-16.59 6.538 0 13.545-5.271 10.587-8.062 10.587-17.365 0-4.03-2.335-6.822C169.549 1.654 170 4.743 170 6.5c0 3.514-2.163 6.11-5.588 9.315q-5.138 4.806-11.522 6.201-3.114.62-7.006.62-9.342 0-22.887-2.325-16.347-2.791-36.588-3.566h-2.024q-13.233 0-26.312 4.186-12.922 4.185-21.797 13.489-8.874 9.149-10.431 24.032-10.12 3.876-17.438 12.404Q1.246 79.228.156 92.562L0 95.352q0 15.97 11.366 24.808 11.365 8.993 29.27 8.993 23.82-.156 42.193-13.954 18.527-13.955 27.557-36.281h34.564q-9.498 20.931-11.833 41.552l-.155 6.512q0 17.83 5.916 31.784 6.072 14.11 15.881 22.172m-79.404-66.98Q58.54 127.292 41.57 127.602h-.779q-14.634 0-23.042-8.837-8.407-8.993-8.407-26.048 0-11.474 4.67-19.07 4.67-7.753 11.677-11.784.312 13.954 9.186 23.877 9.03 9.923 23.198 9.923 5.45 0 11.522-1.86 13.544-4.653 19.773-13.645 6.227-9.147 6.227-18.14 0-7.907-4.515-13.799-4.359-5.892-12.3-5.892-2.49 0-5.449.776h-.311q-3.892.775-3.892 2.635 0 .775.467 1.24.623.465 1.4.466 1.558-.31 1.558-1.706 0-.62-.623-1.24 1.87-.465 3.581-.465 6.384 0 10.12 6.202 3.737 6.046 3.737 14.109 0 8.372-4.827 16.435-4.671 8.062-15.413 11.473-4.983 1.395-9.498 1.395-8.408 0-14.323-4.496-5.918-4.496-9.03-11.783-3.115-7.288-3.114-15.815l.155-2.946q4.983-1.55 9.809-1.55l2.802.155q12.3 1.24 16.037 10.698-1.246.31-1.557 1.705 0 .775.467 1.396.622.465 1.401.465t1.246-.465q.622-.62.622-1.396 0-.465-.311-1.395-1.556-6.357-7.629-9.613-6.071-3.255-14.168-3.256-4.203 0-8.563.93 1.713-13.953 7.629-21.706 6.072-7.752 15.102-10.698 9.186-3.1 19.929-3.101 9.496 0 19.461 1.55a847 847 0 0 1 19.462 3.256q11.677 2.326 21.486 3.411 1.867 0 4.048.31-18.995 6.202-30.983 27.289a202 202 0 0 0-9.965 20.155 175 175 0 0 1-9.653 19.846q-5.448 9.458-14.635 17.365" clip-rule="evenodd"/><path fill="#fff" d="M514.5 61.246q0 2.5 1.13 4.754h1.507a6.6 6.6 0 0 1-1.575-2.377q-.548-1.393-.548-2.705 0-.738.171-1.352.753-2.09 2.637-2.992 1.884-.943 3.733-1.23a13 13 0 0 1 1.781-.123q1.472 0 2.945.37 2.02.613 3.972 1.516.205.04.411.163.309.083.583.164a7.3 7.3 0 0 0 2.602.492q1.062 0 2.089-.45 1.61-.78 2.535-2.5a8.46 8.46 0 0 0 1.027-3.812c-3.178 6.106-7.014 2.435-10.973.769-1.457-.614-2.68-.933-4.233-.933q-.993 0-2.02.205-2.054.492-3.836 1.885-1.746 1.394-2.842 3.525-1.096 2.09-1.096 4.63"/></svg>