<svg xmlns="http://www.w3.org/2000/svg" width="46" height="45" fill="none" viewBox="0 0 46 45"><g opacity=".78"><path fill="#fff" d="M0 28.958q.003-.212.01-.423c5.27-4.998 8.785-10.076 12.085-15.57 2.057-3.422 4.034-7.007 6.299-10.836q.228-.092.456-.18c-2.345 3.948-4.377 7.642-6.497 11.172C8.996 18.707 5.414 23.87 0 28.958"/><path fill="url(#a)" d="M0 28.958q.003-.212.01-.423c5.27-4.998 8.785-10.076 12.085-15.57 2.057-3.422 4.034-7.007 6.299-10.836q.228-.092.456-.18c-2.345 3.948-4.377 7.642-6.497 11.172C8.996 18.707 5.414 23.87 0 28.958"/><path fill="#fff" d="M.045 31.085c6.413-5.536 10.482-11.21 14.206-17.404 2.379-3.956 4.621-8.127 7.243-12.611q.207-.056.413-.11c-2.684 4.576-4.968 8.83-7.4 12.875-3.77 6.27-7.897 12.017-14.439 17.626z"/><path fill="url(#b)" d="M.045 31.085c6.413-5.536 10.482-11.21 14.206-17.404 2.379-3.956 4.621-8.127 7.243-12.611q.207-.056.413-.11c-2.684 4.576-4.968 8.83-7.4 12.875-3.77 6.27-7.897 12.017-14.439 17.626z"/><path fill="#fff" d="M.175 32.622c6.616-5.444 10.777-11.06 14.564-17.27 2.76-4.528 5.329-9.378 8.503-14.71l.4-.084c-3.233 5.416-5.835 10.34-8.646 14.95C11.166 21.79 6.95 27.47.216 32.978q-.023-.177-.041-.356"/><path fill="url(#c)" d="M.175 32.622c6.616-5.444 10.777-11.06 14.564-17.27 2.76-4.528 5.329-9.378 8.503-14.71l.4-.084c-3.233 5.416-5.835 10.34-8.646 14.95C11.166 21.79 6.95 27.47.216 32.978q-.023-.177-.041-.356"/><path fill="#fff" d="M.37 34.063c7.54-5.989 12.1-12.243 16.157-19.138C19.19 10.398 21.64 5.586 24.576.389l.378-.06c-2.98 5.267-5.46 10.144-8.168 14.748C12.691 22.038 8.078 28.354.424 34.402q-.028-.17-.054-.339"/><path fill="url(#d)" d="M.37 34.063c7.54-5.989 12.1-12.243 16.157-19.138C19.19 10.398 21.64 5.586 24.576.389l.378-.06c-2.98 5.267-5.46 10.144-8.168 14.748C12.691 22.038 8.078 28.354.424 34.402q-.028-.17-.054-.339"/><path fill="#fff" d="M.626 35.439c8.02-6.262 13.196-12.986 17.78-20.352C21.341 10.37 24.041 5.383 27.09.084q.18-.014.36-.025c-3.084 5.356-5.808 10.399-8.788 15.186C14.041 22.67 8.814 29.451.696 35.764q-.036-.162-.07-.325"/><path fill="url(#e)" d="M.626 35.439c8.02-6.262 13.196-12.986 17.78-20.352C21.341 10.37 24.041 5.383 27.09.084q.18-.014.36-.025c-3.084 5.356-5.808 10.399-8.788 15.186C14.041 22.67 8.814 29.451.696 35.764q-.036-.162-.07-.325"/><path fill="#fff" d="M1.098 37.356C9.23 31.338 14.628 24.76 19.397 17.45 22.917 12.056 26.096 6.262 29.779 0l.347.006c-3.72 6.317-6.924 12.163-10.478 17.61-4.803 7.36-10.245 13.987-18.46 20.047z"/><path fill="url(#f)" d="M1.098 37.356C9.23 31.338 14.628 24.76 19.397 17.45 22.917 12.056 26.096 6.262 29.779 0l.347.006c-3.72 6.317-6.924 12.163-10.478 17.61-4.803 7.36-10.245 13.987-18.46 20.047z"/><path fill="#fff" d="M1.497 38.652q-.05-.151-.098-.302c9.298-6.875 15.716-14.602 21.304-22.997 3.239-4.866 6.201-9.957 9.283-15.238q.165.014.328.032c-3.106 5.323-6.092 10.459-9.362 15.372-5.619 8.442-12.08 16.218-21.455 23.133"/><path fill="url(#g)" d="M1.497 38.652q-.05-.151-.098-.302c9.298-6.875 15.716-14.602 21.304-22.997 3.239-4.866 6.201-9.957 9.283-15.238q.165.014.328.032c-3.106 5.323-6.092 10.459-9.362 15.372-5.619 8.442-12.08 16.218-21.455 23.133"/><path fill="#fff" d="M1.79 39.487c7.874-5.738 13.736-12.197 19.004-19.38C25.247 14.033 29.282 7.44 33.749.326l.324.051c-4.493 7.152-8.55 13.786-13.038 19.906-5.298 7.225-11.2 13.724-19.136 19.494z"/><path fill="url(#h)" d="M1.79 39.487c7.874-5.738 13.736-12.197 19.004-19.38C25.247 14.033 29.282 7.44 33.749.326l.324.051c-4.493 7.152-8.55 13.786-13.038 19.906-5.298 7.225-11.2 13.724-19.136 19.494z"/><path fill="#fff" d="M2.028 40.113c9.552-6.732 16.639-14.434 22.846-22.837C28.758 12.016 32.3 6.48 35.888.732l.312.072c-3.606 5.776-7.169 11.349-11.084 16.65-6.235 8.44-13.361 16.18-22.973 22.944z"/><path fill="url(#i)" d="M2.028 40.113c9.552-6.732 16.639-14.434 22.846-22.837C28.758 12.016 32.3 6.48 35.888.732l.312.072c-3.606 5.776-7.169 11.349-11.084 16.65-6.235 8.44-13.361 16.18-22.973 22.944z"/><path fill="#fff" d="M2.582 41.425c7.996-5.361 14.242-11.45 19.867-18.308 5.39-6.571 10.206-13.842 15.448-21.853l.3.091C32.934 9.4 28.093 16.71 22.68 23.309c-3.964 4.833-8.238 9.286-13.212 13.375 5.925-4.589 10.895-9.597 15.424-15.025 5.1-6.113 9.641-12.759 14.362-19.947l.289.104c-4.738 7.217-9.298 13.897-14.42 20.036-6.202 7.432-13.225 14.072-22.377 19.93z"/><path fill="url(#j)" d="M2.582 41.425c7.996-5.361 14.242-11.45 19.867-18.308 5.39-6.571 10.206-13.842 15.448-21.853l.3.091C32.934 9.4 28.093 16.71 22.68 23.309c-3.964 4.833-8.238 9.286-13.212 13.375 5.925-4.589 10.895-9.597 15.424-15.025 5.1-6.113 9.641-12.759 14.362-19.947l.289.104c-4.738 7.217-9.298 13.897-14.42 20.036-6.202 7.432-13.225 14.072-22.377 19.93z"/><path fill="#fff" d="M3.229 42.769c11.8-7.057 19.839-15.125 26.49-24.062 3.89-5.23 7.304-10.753 10.719-16.547l.279.117c-3.426 5.814-6.855 11.362-10.758 16.608-6.675 8.969-14.745 17.068-26.59 24.15q-.071-.134-.14-.266"/><path fill="url(#k)" d="M3.229 42.769c11.8-7.057 19.839-15.125 26.49-24.062 3.89-5.23 7.304-10.753 10.719-16.547l.279.117c-3.426 5.814-6.855 11.362-10.758 16.608-6.675 8.969-14.745 17.068-26.59 24.15q-.071-.134-.14-.266"/><path fill="#fff" d="M3.728 43.696q-.075-.13-.147-.26c13.157-7.499 21.972-16.08 29.081-25.527 3.57-4.744 6.71-9.705 9.754-14.86l.268.135c-3.052 5.17-6.202 10.148-9.782 14.906-7.137 9.484-15.985 18.091-29.174 25.606"/><path fill="url(#l)" d="M3.728 43.696q-.075-.13-.147-.26c13.157-7.499 21.972-16.08 29.081-25.527 3.57-4.744 6.71-9.705 9.754-14.86l.268.135c-3.052 5.17-6.202 10.148-9.782 14.906-7.137 9.484-15.985 18.091-29.174 25.606"/><path fill="#fff" d="M4.09 44.328q-.076-.128-.152-.258c15.727-8.841 25.94-19.178 33.804-30.186 2.32-3.247 4.435-6.552 6.427-9.894q.13.076.257.153c-1.996 3.35-4.116 6.662-6.44 9.915-7.891 11.048-18.138 21.41-33.895 30.27"/><path fill="url(#m)" d="M4.09 44.328q-.076-.128-.152-.258c15.727-8.841 25.94-19.178 33.804-30.186 2.32-3.247 4.435-6.552 6.427-9.894q.13.076.257.153c-1.996 3.35-4.116 6.662-6.44 9.915-7.891 11.048-18.138 21.41-33.895 30.27"/><path fill="#fff" d="m4.429 44.888-.158-.255C20.657 35.358 31.645 24.356 40.076 12.8a143 143 0 0 0 5.414-7.994l.25.166a143 143 0 0 1-5.421 8.006c-8.458 11.591-19.476 22.617-35.89 31.91"/><path fill="url(#n)" d="m4.429 44.888-.158-.255C20.657 35.358 31.645 24.356 40.076 12.8a143 143 0 0 0 5.414-7.994l.25.166a143 143 0 0 1-5.421 8.006c-8.458 11.591-19.476 22.617-35.89 31.91"/></g><defs><linearGradient id="a" x1="8.6" x2="55.132" y1="53.377" y2=".308" gradientUnits="userSpaceOnUse"><stop offset=".225" stop-color="#e091be" stop-opacity=".78"/><stop offset=".521" stop-color="#726dd8"/><stop offset="1" stop-color="#e0be91" stop-opacity=".69"/></linearGradient><linearGradient id="b" x1="8.6" x2="55.132" y1="53.377" y2=".308" gradientUnits="userSpaceOnUse"><stop offset=".225" stop-color="#e091be" stop-opacity=".78"/><stop offset=".521" stop-color="#726dd8"/><stop offset="1" stop-color="#e0be91" stop-opacity=".69"/></linearGradient><linearGradient id="c" x1="8.6" x2="55.132" y1="53.377" y2=".308" gradientUnits="userSpaceOnUse"><stop offset=".225" stop-color="#e091be" stop-opacity=".78"/><stop offset=".521" stop-color="#726dd8"/><stop offset="1" stop-color="#e0be91" stop-opacity=".69"/></linearGradient><linearGradient id="d" x1="8.6" x2="55.132" y1="53.377" y2=".308" gradientUnits="userSpaceOnUse"><stop offset=".225" stop-color="#e091be" stop-opacity=".78"/><stop offset=".521" stop-color="#726dd8"/><stop offset="1" stop-color="#e0be91" stop-opacity=".69"/></linearGradient><linearGradient id="e" x1="8.6" x2="55.132" y1="53.377" y2=".308" gradientUnits="userSpaceOnUse"><stop offset=".225" stop-color="#e091be" stop-opacity=".78"/><stop offset=".521" stop-color="#726dd8"/><stop offset="1" stop-color="#e0be91" stop-opacity=".69"/></linearGradient><linearGradient id="f" x1="8.6" x2="55.132" y1="53.377" y2=".308" gradientUnits="userSpaceOnUse"><stop offset=".225" stop-color="#e091be" stop-opacity=".78"/><stop offset=".521" stop-color="#726dd8"/><stop offset="1" stop-color="#e0be91" stop-opacity=".69"/></linearGradient><linearGradient id="g" x1="8.6" x2="55.132" y1="53.377" y2=".308" gradientUnits="userSpaceOnUse"><stop offset=".225" stop-color="#e091be" stop-opacity=".78"/><stop offset=".521" stop-color="#726dd8"/><stop offset="1" stop-color="#e0be91" stop-opacity=".69"/></linearGradient><linearGradient id="h" x1="8.6" x2="55.132" y1="53.377" y2=".308" gradientUnits="userSpaceOnUse"><stop offset=".225" stop-color="#e091be" stop-opacity=".78"/><stop offset=".521" stop-color="#726dd8"/><stop offset="1" stop-color="#e0be91" stop-opacity=".69"/></linearGradient><linearGradient id="i" x1="8.6" x2="55.132" y1="53.377" y2=".308" gradientUnits="userSpaceOnUse"><stop offset=".225" stop-color="#e091be" stop-opacity=".78"/><stop offset=".521" stop-color="#726dd8"/><stop offset="1" stop-color="#e0be91" stop-opacity=".69"/></linearGradient><linearGradient id="j" x1="8.6" x2="55.132" y1="53.377" y2=".308" gradientUnits="userSpaceOnUse"><stop offset=".225" stop-color="#e091be" stop-opacity=".78"/><stop offset=".521" stop-color="#726dd8"/><stop offset="1" stop-color="#e0be91" stop-opacity=".69"/></linearGradient><linearGradient id="k" x1="8.6" x2="55.132" y1="53.377" y2=".308" gradientUnits="userSpaceOnUse"><stop offset=".225" stop-color="#e091be" stop-opacity=".78"/><stop offset=".521" stop-color="#726dd8"/><stop offset="1" stop-color="#e0be91" stop-opacity=".69"/></linearGradient><linearGradient id="l" x1="8.6" x2="55.132" y1="53.377" y2=".308" gradientUnits="userSpaceOnUse"><stop offset=".225" stop-color="#e091be" stop-opacity=".78"/><stop offset=".521" stop-color="#726dd8"/><stop offset="1" stop-color="#e0be91" stop-opacity=".69"/></linearGradient><linearGradient id="m" x1="8.6" x2="55.132" y1="53.377" y2=".308" gradientUnits="userSpaceOnUse"><stop offset=".225" stop-color="#e091be" stop-opacity=".78"/><stop offset=".521" stop-color="#726dd8"/><stop offset="1" stop-color="#e0be91" stop-opacity=".69"/></linearGradient><linearGradient id="n" x1="8.6" x2="55.132" y1="53.377" y2=".308" gradientUnits="userSpaceOnUse"><stop offset=".225" stop-color="#e091be" stop-opacity=".78"/><stop offset=".521" stop-color="#726dd8"/><stop offset="1" stop-color="#e0be91" stop-opacity=".69"/></linearGradient></defs></svg>