<svg xmlns="http://www.w3.org/2000/svg" width="39" height="45" fill="none" viewBox="0 0 39 45"><g opacity=".65"><path fill="url(#a)" d="M32.336 2.37C34.232.014 34.984-.245 37.258.747c.596.26 1.232.547 1.363 1.356.007.038-.052.11-.104.135-.061.038-.135.043-.208.06-.907-1.438-2.585-.07-3.659-1.081-.15-.141-.71.446-.786.966 2.807 1.71 3.013 1.712 4.443.08.78.865-.01 1.87.17 2.871.32 1.713-.266 3.583-.16 5.434.049.858-.799 1.482-1.367 2.091-.498.538-.613.938-.126 1.593 2.116 2.86 1.139 5.473-.82 7.846-.664.795-.82 1.4-.331 2.255.076.135.132.282.178.43 1.135 4.035.743 5.042-2.95 6.79-1.035.49-1.731 1.265-2.288 2.16-1.967 3.168-4.798 4.073-8.137 3.692-1.4-.156-2.8-.396-4.182-.704-2.197-.487-3.983-.275-5.47 1.937-.96 1.426-1.713 3.162-3.318 4.039-.329.179-.627.429-.955.608-3.105 1.674-5.991-.143-5.607-3.784.358-3.444-.44-6.406-1.811-9.468C-.213 27.056.059 23.775.93 20.598c.25-.918.708-1.873 1.482-2.301 1.405-.78 1.297-1.925 1.08-3.214-.08-.464-.154-.935-.191-1.402-.215-3.019 1.143-4.623 4.006-4.601 2.519.017 5.024.54 7.566.124.77-.125 1.2-.21 1.343-1.122.152-.956.618-1.777 1.577-2.117 2.276-.81 4.56-1.309 6.833-.021-.439.455-.966.312-1.479.224-1.42-.249-2.837-.135-4.206.256-1.78.513-2.716 2.458-2.009 4.279 1.11 2.85 2.618 5.438 4.78 7.55 2.545 2.49 5.762 3.517 8.986 4.404 1.51.416 3.22-.025 4.45-.988 2.75-2.153 2.611-5.692-.205-8.129-.105 1.866.17 3.727-.582 5.916-.537-1.703-.185-2.947-.186-4.173.006-2.02.038-2.023-1.95-2.356-.91 3.129-1.397 4.046-2.786 5.2.026-.747.438-1.312.73-1.937.402-.839.738-1.718 1.037-2.6.213-.625.212-1.184-.518-1.56-.665-.334-1.038-.197-1.507.378-1.162 1.417-2.173 2.987-3.961 4.547 1.2-2.393 2.551-4.036 3.753-5.775-1.9-1.582-2.022-1.59-3.644.2-.756.835-1.451 1.728-2.411 2.88.358-2.706 2.427-3.435 3.66-5.008-.453-.971-1.056-1.618-2.224-1.23-.012-.2-.017-.396-.029-.597 1.055-.335.865-.87.227-1.487.529-.372 1.052-.75 1.477-1.282.488-.61 1.158-1.104 1.884-1.081 1.007.032 1.714-.185 2.376-1.098.495-.688 1.35-1.105 2.093-.126-.111.086-.215.221-.34.252-.208.06-.436.047-.65.09-.55.11-.945.417-1.053 1.023-.128.714.473.863.846 1.19.707.618 1.986.407 2.198 1.724-1.393-.414-1.61 1.358-2.838 1.7.415-.795.748-1.433 1.067-2.054-1.76-2.297-2.754.217-4.132.81.162-1.136 1.233-1.456 1.414-2.375-1.169-.172-1.709-.084-2.255.356-.95.77-1.102 1.441-.324 2.367 2.224 2.634 4.902 4.51 8.29 5.01 1.617.242 3.362-1.792 2.946-3.436-.28-1.106-.836-1.19-1.48-.24-.126.009-.257.023-.39.027-.093-.531-.143-1.115-.774-1.24-.695-.131-.843.511-1.05.973-.309.704-.59 1.412-1.382 1.824.002-1.349 1.38-2.31.872-3.714.514-.819 1.03-.127 1.473.044.627.237 1.214.594 1.897.609.62.019.965-.324 1.094-.942.086-.437.372-.994-.114-1.257-.322-.174-.877-.343-1.2.127-.56.816-.598.265-.664-.251-.047-.36.107-.808-.352-.972-.697-.07-.789 1.005-1.51.988-.128-.68.893-1.142.08-1.763-.858-.663-1.348.389-2.07.528.224-.519.417-.93.363-1.413zm-4.867 32.546c-.132-.83.786-1.336.616-2.18-1.85-.355-1.817-.323-2.948.985-.486.56-.796 1.538-1.878 1.299.555-.94 1.786-1.332 1.654-2.626-.543-.327-1.105-.535-1.572-.38-1.18.378-1.336 2.068-2.607 2.412-.136-1.16 1.59-1.513 1.16-2.737-1.495-.9-2.645-.748-3.552.876-.432.78-1.103 1.43-2.121 1.388.525-1.273 2-1.733 2.297-3.124-.314-.577-.918-.508-1.357-.78-.964-.583-1.63-.655-2.23.696-.725 1.645-2.186 2.657-3.69 3.533.601-.948 1.31-1.786 2.007-2.634 2.117-2.563 2.094-2.701-.86-4.21-.11-.06-.285.019-.505.045-1.111 2.119-2.086 4.419-3.698 6.292-.012-.687.22-1.24.522-1.793.775-1.43 1.528-2.88 2.237-4.35.213-.446.572-1.103-.17-1.393-.968-.387-1.68-1.346-2.802-1.37-.811 1.724-1.014 3.73-2.156 5.314-.162-1.164.257-2.178.58-3.196.964-3.016.98-3.011-1.194-5.05-.09-.083-.273-.054-.39-.068-.614.462-.65 1.23-.93 1.865-.3.67-.156 1.533-.846 2.23-.383-1.138-.05-2.062.34-2.827.686-1.323.938-2.65.68-4.104 1.239.743 1.621 2.25 2.646 3.249 2.056 2.002 4.512 3.31 6.847 4.824 4.126 2.677 8.708 3.997 13.514 4.405 2.483.216 4.913-.197 7.09-1.639.693-.462 1.506-1.032 1.388-1.987-.17-1.393-.34-2.808-.98-4.102-.258-.525-.598-.641-1.08-.48-.499.17-.38.564-.321.957.054.388.119.787.083 1.175-.115 1.139-.147 2.333-1.19 3.691.235-1.711.443-2.867.53-4.032.07-.905-.258-1.465-1.289-1.445-.819.018-1.476-.29-1.72 1.076-.395 2.164-.835 2.62-2.284 3.727.24-.431.416-.678.516-.954.386-1.022 1-1.937 1.207-3.043.15-.81-.008-1.432-.844-1.62-.783-.182-.749.504-.927 1.003-.488 1.36-.991 2.726-2.35 3.485.705-1.273 1.34-2.56 1.757-3.965.337-1.13-.486-1.287-1.136-1.64-.732-.397-1.088-.054-1.344.635-.743 1.999-2.34 3.2-3.68 4.651.178-.94.868-1.458 1.353-2.146.61-.887 1.347-1.687 1.737-2.738.138-.357.396-.654.203-1.078-.652-1.41-2.317-1.57-3.07-.214-1.004 1.787-2.44 3.116-3.758 4.59.939-1.9 2.09-3.614 3.377-5.241.991-1.249.848-1.256-.16-2.524-.861-1.077-1.558-.598-2.27.016-.977.85-1.99 1.636-2.864 2.625-.785.893-1.477 1.926-2.737 2.745.802-1.711 1.931-2.768 2.89-3.953 1.008-1.245 2.431-1.974 3.525-3.012-.37-1.475-1.19-2.23-2.59-2.078.147-.676 1.072-.594.767-1.406-.244-.66-.72-.735-1.257-.698-.442.03-.887.123-1.333.181-2.512.296-4.85 1.206-7.098 2.424 1.06-1.534 2.635-2.028 4.193-2.527a15 15 0 0 1 3.958-.719c.343-.018.784.014.712-.591-.055-.495-.405-.61-.793-.634-.292-.02-.604-.026-.887.027-1.864.34-3.718.194-5.57-.077-3.973-.572-5.222 1.355-4.45 4.956.065.303.142.64.096.934-.177 1.07.43 2.237-.388 3.216-.337-.156-.537-.786-1.06-.218-.856.931-1.42 1.977-1.648 3.275-.746 4.337.318 8.232 2.493 11.854 1.146 1.903 2.793 2.954 4.932 3.176.415.039 1.109-.316 1.135.605-2.357.682-4.182-.524-6.062-2.214-.1 1.585-.225 2.82-.25 4.052-.058 2.858 2.043 4.258 4.487 3.055 1.909-.942 2.875-2.816 4.05-4.486.039-.047-.254-.352-.386-.539-.003-.14-.054-.388-.008-.419 2.432-1.308 4.9-2.11 7.66-1.18 1.112.371 2.323.456 3.502.543 1.631.129 3.258.084 4.69-.977 1.136-.839 2.29-1.673 2.89-3.18-.805-.214-1.39-.084-1.662.718-.262.779-.66 1.4-1.374 1.767z"/><path fill="url(#b)" d="M9.577 19.461c1.413-2.682 3.083-5.018 6.21-5.362-1.018.971-2.426 1.314-3.415 2.345-.954.988-1.868 2.014-2.79 3.023z"/><path fill="url(#c)" d="M2.965 27.509c-.085-.196-.223-.388-.229-.583-.014-.245-.15-.69.287-.63.367.048.227.466.205.72-.017.174-.203.338-.315.508l.058-.01z"/><path fill="url(#d)" d="M2.913 27.524c.176.016.283.232.195.266-.414.163-.14-.152-.137-.276z"/><path fill="url(#e)" d="M5.77 30.864c.034.032.078.062.086.1.018.145-.068.201-.23.145-.011-.01-.018-.133.01-.19.02-.035.088-.035.134-.055"/><path fill="url(#f)" d="M11.814 37.652c-.21.322-.434.365-.68.04.097-.151-.013-.412.313-.435.327-.022.253.257.361.39z"/><path fill="url(#g)" d="M11.176 37.69c-.207.355-.428.37-.675.046.093-.146-.013-.413.314-.435s.253.256.36.389"/><path fill="url(#h)" d="M10.544 37.733c-.208.345-.436.332-.675.047.097-.153-.013-.414.314-.436.326-.022.252.257.36.39"/><path fill="url(#i)" d="M24.354 8.033c-1.175.55-2.432.94-3.643 2.343.984-2.133 1.14-2.25 3.61-2.934.01.2.017.396.028.597z"/><path fill="url(#j)" d="M34.212 20.004c.034.042.08.095.098.144.007.027-.038.07-.062.11.01-.084.011-.168.022-.253l-.063.005z"/><path fill="url(#k)" d="M34.27 20.005c-.181-.116-.317-.275-.192-.496.028-.058.292-.065.317-.01.123.22-.015.387-.183.516l.064-.005z"/><path fill="url(#l)" d="M35.964 9.491c.084.437.122 1.01-.422.947-.335-.038-.05-.606-.022-.939.149.001.297.003.444-.008"/><path fill="url(#m)" d="M36.068 8.807c.11.25.07.477-.099.678a6 6 0 0 1-.444.009c.056-.223.102-.444.158-.666.127-.009.258-.012.39-.027z"/><path fill="url(#n)" d="M34.592.112c.787-.261 1.607-.047 2.745.45.585.255 1.331.58 1.481 1.507a.26.26 0 0 1-.019.145.4.4 0 0 1-.051.083.5.5 0 0 1-.101.09c.253.427.234.873.167 1.29q-.031.19-.068.373a8 8 0 0 0-.064.363 2.1 2.1 0 0 0-.008.683l.051.334c.097.784.033 1.59-.049 2.388-.094.922-.211 1.832-.16 2.737.03.503-.207.922-.496 1.277-.146.178-.31.346-.469.504-.162.161-.316.31-.454.459l-.001-.001c-.243.261-.358.457-.38.64-.019.154.026.336.19.586l.08.111.194.275c.928 1.372 1.179 2.703.959 3.983-.233 1.357-.992 2.636-1.982 3.835-.323.388-.501.706-.553 1.011-.051.299.014.617.242 1.018l.06.116q.084.177.136.354l.001.005.195.722c.413 1.614.525 2.745.132 3.663-.395.92-1.28 1.584-2.728 2.319l-.656.32c-.989.468-1.659 1.21-2.203 2.085-1.003 1.615-2.233 2.663-3.646 3.256-1.411.591-2.99.722-4.683.53v-.002a39 39 0 0 1-3.16-.487l-1.043-.22c-1.085-.24-2.041-.3-2.901-.046-.854.253-1.637.824-2.36 1.9-.237.351-.462.724-.694 1.102-.23.377-.467.76-.726 1.127-.517.733-1.128 1.415-1.969 1.874-.154.084-.302.186-.46.294-.155.106-.32.219-.494.314-1.6.863-3.18.842-4.317.093-1.067-.704-1.7-2.02-1.612-3.727l.027-.347c.353-3.396-.432-6.321-1.794-9.364-1.374-3.058-1.09-6.394-.214-9.59.252-.93.73-1.954 1.578-2.423.657-.365.942-.8 1.05-1.284.084-.376.064-.792.003-1.25l-.073-.47c-.08-.466-.156-.944-.194-1.421v-.002c-.109-1.537.179-2.754.897-3.585.722-.835 1.842-1.24 3.31-1.23 1.267.009 2.54.145 3.786.225 1.255.08 2.499.107 3.747-.097.398-.065.649-.114.826-.235.159-.108.284-.296.351-.722.16-1 .657-1.9 1.708-2.274l.43-.15c2.098-.705 4.254-1.088 6.409.055.482-.342.936-.684 1.307-1.15.503-.628 1.227-1.182 2.048-1.157.489.016.885-.03 1.233-.178.345-.147.66-.403.974-.837.263-.366.64-.686 1.079-.767.394-.073.794.056 1.156.43.853-1.04 1.508-1.67 2.23-1.91m2.666.634C34.997-.24 34.24.01 32.366 2.33c-.74-.953-1.585-.538-2.077.146-.662.913-1.369 1.13-2.376 1.098-.726-.023-1.396.47-1.884 1.08-.418.524-.93.897-1.45 1.263-2.259-1.255-4.526-.758-6.786.047l-.174.07c-.842.373-1.26 1.151-1.403 2.047l-.03.16c-.169.761-.59.844-1.313.962-2.542.415-5.047-.107-7.566-.124l-.264.002c-2.683.077-3.95 1.675-3.742 4.599.037.467.112.938.191 1.402.217 1.29.325 2.435-1.08 3.214l-.142.085c-.689.461-1.106 1.355-1.34 2.216-.87 3.177-1.143 6.458.203 9.454 1.37 3.062 2.17 6.023 1.811 9.467-.384 3.641 2.502 5.458 5.607 3.784.246-.134.476-.308.713-.462l.242-.145c1.404-.768 2.156-2.193 2.966-3.493l.352-.546c1.487-2.212 3.273-2.424 5.47-1.937 1.383.308 2.782.548 4.182.704 3.339.38 6.17-.524 8.137-3.692.522-.839 1.166-1.573 2.098-2.066l.19-.095c3.693-1.747 4.085-2.754 2.95-6.789a2.4 2.4 0 0 0-.124-.327l-.054-.103c-.427-.749-.362-1.305.106-1.965l.225-.29c1.959-2.373 2.936-4.986.82-7.846-.487-.655-.372-1.055.126-1.593.568-.61 1.416-1.233 1.367-2.091-.1-1.735.409-3.488.21-5.111l-.05-.323c-.177-.99.592-1.984-.147-2.842.066-.013.132-.02.187-.054.052-.026.111-.097.104-.135-.115-.708-.616-1.016-1.14-1.257zM3.865 35.556c1.865 1.677 3.677 2.876 6.009 2.227.23.273.448.29.65-.022.23.288.436.274.632-.043.232.287.441.247.64-.044.14.188.392.459.355.503l-.433.633c-.997 1.49-1.946 3.029-3.616 3.853l-.228.105c-2.27.976-4.188-.304-4.258-2.897v-.263c.024-1.233.15-2.467.25-4.052m.171.417c-.095 1.401-.198 2.517-.22 3.639-.028 1.38.464 2.37 1.216 2.88.75.507 1.807.569 2.981-.009l.335-.18c.756-.444 1.357-1.05 1.897-1.734.6-.762 1.105-1.59 1.677-2.412l-.055-.072q-.036-.046-.08-.099a.5.5 0 0 1-.28.127.48.48 0 0 1-.33-.098.5.5 0 0 1-.31.152.49.49 0 0 1-.33-.111.5.5 0 0 1-.311.136c-.162.006-.3-.075-.416-.185-2.253.575-4.034-.517-5.774-2.034M3.016 18.86c.516-.56.718.045 1.047.21.245 1.438-.007 2.753-.687 4.063-.39.765-.723 1.689-.34 2.827.647-.653.56-1.454.794-2.103l.051-.127c.281-.634.317-1.404.93-1.865.118.014.301-.015.39.068 2.175 2.039 2.159 2.034 1.194 5.05l-.25.764c-.245.77-.45 1.559-.329 2.432 1.142-1.584 1.345-3.59 2.156-5.313 1.123.023 1.834.982 2.803 1.369.741.29.382.947.17 1.392-.71 1.47-1.463 2.921-2.238 4.351-.302.552-.534 1.106-.522 1.793 1.612-1.873 2.586-4.173 3.698-6.292.22-.026.396-.105.505-.046l.52.268c2.428 1.268 2.325 1.54.34 3.943-.697.848-1.406 1.686-2.008 2.634 1.411-.821 2.784-1.763 3.547-3.232l.144-.301c.6-1.35 1.266-1.28 2.23-.697.439.272 1.043.204 1.357.781-.296 1.392-1.772 1.85-2.297 3.124 1.018.042 1.69-.609 2.12-1.388.908-1.624 2.058-1.775 3.553-.876.43 1.224-1.295 1.577-1.16 2.737 1.23-.333 1.417-1.93 2.5-2.373l.107-.038c.467-.156 1.03.052 1.572.379.132 1.294-1.1 1.687-1.654 2.626.947.209 1.302-.514 1.702-1.073l.176-.226c1.131-1.308 1.098-1.34 2.948-.985.17.841-.741 1.345-.617 2.17.622-.322 1.005-.835 1.265-1.479l.105-.284c.272-.802.857-.932 1.663-.719-.602 1.508-1.755 2.342-2.892 3.181-1.43 1.061-3.058 1.106-4.689.977-1.032-.076-2.088-.151-3.08-.418l-.421-.125c-2.762-.93-5.229-.128-7.661 1.18-.036.025-.014.185-.001.32-.043-.136-.056-.3-.31-.282l-.103.019c-.18.06-.14.241-.192.374-.073-.141-.04-.37-.337-.35l-.103.02c-.18.06-.144.243-.192.372-.073-.14-.04-.368-.337-.348l-.103.018c-.136.046-.145.16-.164.272-.09-.749-.73-.432-1.124-.469l-.395-.052c-1.818-.286-3.259-1.206-4.316-2.777l-.22-.346C1.752 30.48.688 26.715 1.302 22.54l.064-.405c.228-1.298.792-2.344 1.648-3.275m.375-.031c-.037.007-.111.039-.229.166v-.001c-.782.85-1.308 1.794-1.552 2.942l-.046.232c-.736 4.28.311 8.127 2.467 11.718 1.114 1.849 2.706 2.862 4.78 3.079.079.007.176-.003.308-.018.121-.013.272-.029.414-.01a.62.62 0 0 1 .422.232q.008.012.014.024a.6.6 0 0 1 .2-.049.5.5 0 0 1 .298.062l.024.019.024-.023a.5.5 0 0 1 .286-.101.5.5 0 0 1 .298.062l.024.018q.012-.012.026-.023a.5.5 0 0 1 .284-.1.6.6 0 0 1 .188.016q.011-.01.024-.02l.01-.006.008-.005c2.45-1.318 4.98-2.15 7.82-1.195l.41.124c.968.26 2.005.334 3.041.41 1.623.128 3.187.077 4.557-.938l.14-.105-.298-.278-.005-.005-.208-.194.138-.072c-.013-.424.195-.77.36-1.059.17-.298.3-.544.287-.827a11 11 0 0 0-.922-.15c-.26-.024-.433-.01-.576.04s-.278.142-.452.314c-.177.174-.38.412-.667.743-.112.13-.215.284-.332.455-.114.166-.24.347-.39.502-.15.157-.332.297-.559.377s-.489.096-.79.03l-.27-.06.14-.238c.152-.256.347-.47.543-.664.205-.204.388-.362.57-.551.32-.336.54-.68.518-1.19-.503-.288-.96-.425-1.314-.308h-.001c-.511.164-.809.611-1.165 1.14-.34.504-.735 1.08-1.451 1.275l-.225.061-.027-.23c-.08-.691.405-1.142.744-1.505.181-.195.33-.368.414-.557a.8.8 0 0 0 .033-.566c-.7-.41-1.287-.556-1.786-.447-.51.112-.985.502-1.423 1.287-.449.81-1.178 1.537-2.305 1.49l-.285-.012.109-.264c.282-.685.821-1.15 1.281-1.587.453-.43.837-.84.985-1.43-.121-.184-.284-.274-.484-.347-.122-.044-.228-.072-.367-.118a1.8 1.8 0 0 1-.393-.174l-.175-.101c-.393-.218-.688-.305-.931-.252-.232.05-.475.241-.729.73l-.109.228c-.753 1.708-2.265 2.748-3.773 3.625l-.27-.28c.61-.961 1.329-1.81 2.023-2.654.532-.643.918-1.122 1.159-1.506.244-.388.31-.635.271-.827s-.196-.392-.572-.651c-.278-.193-.653-.401-1.136-.653l-.52-.268c-.005 0-.028-.001-.083.009l-.197.037c-1.083 2.076-2.07 4.373-3.679 6.244l-.342.397-.01-.524c-.013-.739.239-1.329.546-1.892l.576-1.074a98 98 0 0 0 1.657-3.268c.114-.238.235-.475.254-.686a.37.37 0 0 0-.044-.238c-.039-.063-.116-.134-.272-.196H10.7c-.51-.204-.961-.563-1.38-.84-.393-.26-.777-.465-1.223-.507-.366.812-.604 1.68-.888 2.562-.296.918-.64 1.841-1.23 2.66l-.275.38.107-.047.096.09.021.02q.016.012.037.033a.3.3 0 0 1 .07.1l.016.055.003.012.003.087a.31.31 0 0 1-.142.256c-.118.075-.257.051-.355.017l-.04-.014-.031-.029a.2.2 0 0 1-.048-.068.3.3 0 0 1-.02-.079 1 1 0 0 1-.005-.079c0-.045.006-.129.04-.2l.005-.007.052-.066a.3.3 0 0 1 .053-.036.4.4 0 0 1 .076-.028l.043-.01-.067-.477c-.17-1.22.271-2.288.586-3.283.243-.758.422-1.314.522-1.758s.119-.755.055-1.028c-.063-.27-.212-.527-.49-.848-.28-.323-.677-.696-1.222-1.207.004.004-.008-.005-.066-.009l-.097-.003-.027-.002c-.23.192-.363.442-.47.733-.057.159-.106.322-.16.495-.052.17-.11.346-.185.515-.066.149-.11.313-.149.494-.035.167-.073.386-.115.574-.092.403-.24.836-.622 1.222l-.022.022q.131.041.216.148a.53.53 0 0 1 .099.297c.005.091-.005.186-.016.263l-.028.203a.73.73 0 0 1-.16.358l-.056.07q.04.04.068.082c.031.05.06.116.06.19a.25.25 0 0 1-.158.244l-.001-.002a1 1 0 0 1-.156.05.4.4 0 0 1-.164 0 .24.24 0 0 1-.169-.157.3.3 0 0 1-.003-.153l.003-.012-.13-.01.156-.238v-.002c-.025-.046-.052-.099-.077-.151a.95.95 0 0 1-.103-.366l-.022-.2a1.1 1.1 0 0 1-.003-.268.43.43 0 0 1 .158-.292.4.4 0 0 1 .201-.08l-.025-.073c-.408-1.214-.046-2.199.352-2.982.648-1.249.893-2.493.68-3.849a1.5 1.5 0 0 1-.176-.151c-.083-.08-.139-.138-.198-.178-.053-.036-.084-.04-.113-.034M30.22 32.568c-.279-.051-.503-.046-.68.021-.185.07-.345.214-.464.49l-.048.127c-.256.76-.647 1.402-1.341 1.808l.04.253c.998-.74 1.94-1.485 2.493-2.7m-2.756 2.342.005.006v-.01zM5.77 30.864c-.046.02-.115.02-.134.054l-.016.053a.3.3 0 0 0 .006.138c.141.05.225.012.231-.095l-.002-.05c-.007-.038-.051-.068-.085-.1m9.504-20.842c.388.023.738.14.793.634.072.605-.37.573-.712.591l-.505.03a15.2 15.2 0 0 0-3.453.69l-.584.188c-1.36.45-2.682.996-3.61 2.338 2.108-1.142 4.295-2.014 6.63-2.362l.469-.062c.446-.058.89-.15 1.333-.18.538-.037 1.013.036 1.257.697.305.812-.62.73-.766 1.406 1.398-.152 2.22.603 2.59 2.078-1.095 1.038-2.518 1.767-3.526 3.012l-.367.44c-.87 1.019-1.822 2.016-2.523 3.513 1.26-.82 1.952-1.852 2.737-2.745.874-.989 1.887-1.775 2.865-2.625.71-.614 1.408-1.093 2.268-.016 1.01 1.268 1.152 1.275.16 2.524l-.475.614c-1.096 1.444-2.08 2.964-2.901 4.626 1.235-1.38 2.575-2.636 3.565-4.26l.193-.33c.753-1.355 2.418-1.195 3.07.215.193.424-.065.721-.203 1.078-.39 1.05-1.127 1.85-1.737 2.738-.485.688-1.174 1.205-1.353 2.146 1.34-1.451 2.937-2.652 3.68-4.65.256-.69.613-1.033 1.344-.636.65.353 1.473.51 1.136 1.64-.417 1.406-1.052 2.692-1.757 3.965 1.189-.664 1.723-1.793 2.165-2.976l.186-.509c.177-.499.143-1.185.926-1.004.836.19.993.81.844 1.621l-.043.204c-.24 1.016-.802 1.88-1.164 2.84l-.089.204c-.103.206-.248.426-.427.749 1.45-1.107 1.889-1.563 2.283-3.727.245-1.366.902-1.058 1.721-1.076 1.03-.02 1.359.54 1.29 1.445-.088 1.165-.297 2.32-.532 4.032 1.044-1.358 1.076-2.552 1.19-3.69.019-.195.011-.392-.007-.589l-.075-.587c-.06-.393-.178-.788.32-.956.483-.162.823-.046 1.08.48.64 1.293.812 2.708.981 4.101.118.955-.695 1.525-1.388 1.987l-.411.258c-2.07 1.233-4.352 1.584-6.68 1.381l-.897-.088c-4.33-.475-8.464-1.72-12.229-4.07l-.387-.247c-2.19-1.419-4.484-2.659-6.456-4.458l-.39-.366c-1.015-.989-1.402-2.474-2.61-3.225.739-.913.264-1.985.345-2.99l.025-.201c.035-.22 0-.466-.047-.702l-.05-.232c-.771-3.601.478-5.528 4.452-4.956 1.85.27 3.706.418 5.57.077.211-.04.44-.047.664-.04zm-.012.198a3.5 3.5 0 0 0-.838.025c-1.896.346-3.778.196-5.636-.075-1.963-.283-3.177.063-3.822.842-.65.786-.787 2.088-.404 3.873.055.254.13.575.112.878l-.014.13c-.04.245-.037.5-.018.77.018.256.053.56.067.83.025.498-.013 1.02-.33 1.51.54.39.913.918 1.25 1.447.386.608.722 1.206 1.213 1.684 2.037 1.984 4.462 3.275 6.816 4.8C17.75 29.59 22.3 30.9 27.08 31.308c2.449.212 4.832-.196 6.962-1.607.35-.233.703-.476.958-.772.249-.29.393-.617.343-1.023-.17-1.399-.34-2.78-.962-4.038-.117-.24-.238-.354-.354-.403a.56.56 0 0 0-.332-.017l-.15.04a.4.4 0 0 0-.182.108.24.24 0 0 0-.055.127.8.8 0 0 0 .005.217l.045.286v.002c.046.331.106.699.094 1.065l-.01.156v.002c-.114 1.13-.148 2.382-1.231 3.793l-.46.598.103-.747c.237-1.723.444-2.864.53-4.02.033-.433-.034-.738-.188-.93-.13-.16-.351-.278-.727-.298l-.17-.002c-.21.004-.424-.012-.59-.017a1.3 1.3 0 0 0-.43.04.52.52 0 0 0-.282.222c-.066.098-.128.24-.18.442l-.047.224c-.198 1.089-.413 1.777-.776 2.334-.361.555-.86.964-1.583 1.516l-.297-.257c.12-.216.23-.394.313-.537a2.5 2.5 0 0 0 .192-.387v-.002c.196-.52.454-1.02.676-1.503.226-.49.422-.978.52-1.506.073-.39.064-.7-.037-.925-.094-.212-.284-.38-.653-.464-.17-.04-.27-.026-.327-.001a.3.3 0 0 0-.143.145 1.5 1.5 0 0 0-.11.322l-.05.2-.064.21c-.485 1.349-1.009 2.792-2.442 3.593l-.61.342.338-.614c.702-1.27 1.33-2.54 1.74-3.925l.045-.183a1 1 0 0 0 .008-.4.6.6 0 0 0-.194-.325 1.7 1.7 0 0 0-.394-.25c-.148-.075-.34-.16-.505-.25-.335-.182-.527-.165-.655-.091-.147.085-.28.283-.406.621-.383 1.032-.987 1.853-1.655 2.595-.334.37-.686.722-1.036 1.07s-.698.692-1.03 1.051l-.474.514.13-.687c.098-.513.336-.906.601-1.252.131-.171.273-.335.406-.493.136-.16.265-.314.38-.479.155-.224.317-.443.477-.659q.244-.322.474-.648c.305-.436.576-.883.762-1.385l.002-.003c.038-.098.084-.192.123-.273.04-.085.075-.159.1-.232a.54.54 0 0 0 .022-.305l-.038-.112c-.3-.647-.82-.987-1.332-1.028-.507-.04-1.04.213-1.382.828-1.017 1.812-2.482 3.17-3.783 4.625l-.328-.222c.946-1.915 2.105-3.64 3.4-5.276l.313-.408a3 3 0 0 0 .204-.309c.099-.176.122-.29.11-.39-.013-.107-.07-.232-.205-.424a7 7 0 0 0-.246-.323l-.337-.42c-.404-.506-.727-.6-1-.555-.308.051-.62.284-.98.596-.99.86-1.985 1.63-2.847 2.606-.767.872-1.487 1.942-2.778 2.782l-.587.382.297-.635c.815-1.741 1.976-2.833 2.916-3.994.52-.642 1.144-1.148 1.764-1.618.593-.448 1.175-.86 1.69-1.334q-.27-.981-.81-1.43c-.377-.312-.875-.455-1.532-.383l-.189.02-.033.032c-.53.507-1.162.848-1.76 1.18-.604.337-1.177.668-1.648 1.159-.951.986-1.863 2.008-2.786 3.019l-.137.15-.148-.138-.005-.006-.112-.104.071-.135c1.415-2.686 3.128-5.112 6.365-5.468l.186-.021c.115-.379.436-.565.604-.697.1-.078.155-.138.18-.203.023-.057.035-.151-.03-.324h-.001c-.107-.29-.252-.427-.411-.498-.17-.075-.383-.087-.644-.07-.436.03-.854.119-1.322.18h-.002c-2.478.292-4.792 1.19-7.026 2.4l-.26-.288c1.105-1.597 2.748-2.107 4.297-2.603a15.4 15.4 0 0 1 3.499-.698l.512-.031c.095-.005.172-.006.254-.014a.6.6 0 0 0 .178-.042.14.14 0 0 0 .072-.072.5.5 0 0 0 .017-.24c-.021-.197-.096-.294-.182-.35-.099-.065-.24-.097-.424-.109M2.966 27.535c-.029.135-.249.409.142.255.079-.03 0-.207-.142-.255m-.053-.011a.2.2 0 0 1 .053.011l.005-.02-.006-.006-.017-.034zm.11-1.228c-.437-.06-.301.385-.287.63.006.184.127.365.212.55.097-.132.223-.262.266-.396l.014-.065c.021-.237.145-.62-.142-.706zM24.59 5.976c.607.601.767 1.12-.265 1.45.012.2.017.395.029.596 1.168-.388 1.771.259 2.223 1.23-1.232 1.573-3.301 2.302-3.66 5.007.96-1.151 1.656-2.044 2.412-2.88 1.622-1.79 1.744-1.78 3.644-.199-1.202 1.739-2.552 3.382-3.753 5.775 1.564-1.365 2.534-2.738 3.53-4.01l.43-.537c.47-.575.843-.712 1.508-.377.73.375.73.934.518 1.559a23 23 0 0 1-1.037 2.6c-.292.625-.704 1.19-.73 1.936 1.389-1.153 1.876-2.07 2.787-5.2 1.987.334 1.955.337 1.949 2.357.001 1.226-.35 2.47.186 4.173.753-2.19.477-4.05.582-5.916 2.816 2.437 2.955 5.976.206 8.129l-.236.173c-1.207.84-2.799 1.206-4.215.815-3.123-.86-6.24-1.85-8.745-4.175l-.24-.228c-2.163-2.113-3.67-4.7-4.78-7.552-.708-1.82.228-3.765 2.008-4.278 1.369-.391 2.785-.505 4.207-.256.499.086 1.01.222 1.442-.191m-.017.273c-.487.336-1.041.188-1.46.116-1.387-.243-2.774-.134-4.117.25-1.66.479-2.544 2.297-1.877 4.014l.21.528c1.081 2.623 2.52 4.996 4.524 6.953 2.503 2.45 5.673 3.467 8.898 4.353 1.44.398 3.087-.023 4.275-.952 1.328-1.04 1.948-2.405 1.907-3.795-.038-1.281-.64-2.605-1.806-3.734q-.013.476-.013.962c0 .47 0 .95-.02 1.44-.037.956-.155 1.958-.514 3.04a.5.5 0 0 1-.047.552l.216.202-.242.016a.26.26 0 0 1-.053.12l-.025.033-.007.009-.002.004-.37-.128v-.007l-.482.034.368-.285a.49.49 0 0 1-.032-.564.25.25 0 0 1 .096-.095.4.4 0 0 1 .084-.033l.017-.004a6.9 6.9 0 0 1-.233-2.095c.01-.344.038-.672.062-.986.024-.315.045-.617.045-.914.001-.51.005-.878-.021-1.156-.026-.276-.08-.429-.162-.53-.081-.1-.216-.18-.477-.254a10 10 0 0 0-.95-.19c-.43 1.47-.773 2.453-1.177 3.209-.424.793-.913 1.33-1.621 1.917l-.343.286.015-.446c.014-.41.135-.764.284-1.09.074-.162.156-.32.236-.471.08-.154.159-.302.23-.453.397-.83.73-1.703 1.028-2.58.102-.3.14-.553.089-.762-.048-.196-.184-.388-.51-.555-.31-.156-.515-.183-.682-.138-.173.048-.351.185-.579.464-1.146 1.398-2.179 2.997-3.984 4.572l-.31-.241c1.174-2.34 2.495-3.977 3.661-5.648-.407-.337-.718-.589-.98-.757-.291-.187-.492-.255-.665-.246-.171.009-.356.095-.612.31a6 6 0 0 0-.428.407l-.54.583c-.752.831-1.44 1.715-2.405 2.873l-.443.53.09-.684c.187-1.409.822-2.306 1.559-3.044.363-.364.758-.695 1.125-1.022.339-.301.656-.605.935-.943-.207-.42-.433-.744-.715-.93-.28-.187-.639-.255-1.143-.102l-.302.363-.013-.22c-1.105.498-2.217.911-3.303 2.17l-.332-.214c.486-1.055.79-1.665 1.303-2.08.49-.397 1.155-.606 2.284-.92v-.01l.147-.047c.518-.164.607-.341.61-.451 0-.071-.028-.167-.108-.292a2 2 0 0 0-.193-.242m-8.785 7.85c-3.128.344-4.798 2.68-6.21 5.362l.005.006c.69-.757 1.377-1.523 2.08-2.276l.71-.747c.988-1.03 2.396-1.374 3.415-2.345m18.46 6.16c.024-.041.069-.084.062-.111a.4.4 0 0 0-.045-.08q-.008.095-.017.19m-.029-.252h-.003v.002l-.004.006.008-.002.045.055q.001-.03.005-.058h.006l-.006-.005q-.014-.01-.026-.02zm-.012.002.009-.001-.004-.005zm.188-.51c-.026-.054-.289-.048-.317.01-.118.21 0 .361.166.475.151-.125.266-.28.15-.485M28.894 4.71c-.18.919-1.252 1.239-1.414 2.375 1.378-.593 2.372-3.107 4.132-.81-.319.62-.652 1.259-1.067 2.054 1.22-.34 1.442-2.09 2.811-1.708l-.009.016c.509 1.403-.87 2.365-.872 3.714.791-.412 1.073-1.12 1.382-1.824.206-.462.355-1.104 1.05-.973.631.125.68.709.775 1.24.132-.004.263-.018.39-.027.643-.95 1.198-.866 1.479.24.416 1.644-1.33 3.678-2.946 3.436-3.176-.469-5.729-2.147-7.868-4.526l-.422-.484c-.778-.926-.626-1.597.324-2.367.546-.44 1.086-.528 2.255-.356m-.261.168c-.457-.057-.794-.066-1.068-.022-.31.05-.551.163-.8.364-.464.376-.69.697-.739 1.002-.046.296.069.638.441 1.082l.419.48c2.117 2.354 4.63 4 7.748 4.46.716.108 1.494-.29 2.054-.943.56-.652.856-1.506.669-2.246-.067-.264-.148-.452-.23-.574-.083-.12-.157-.16-.212-.168-.055-.01-.14.006-.261.095q-.074.055-.158.143l.049-.005-.25.298a.8.8 0 0 1 .026.349.8.8 0 0 1-.146.347c.035.205.06.453.008.66a.58.58 0 0 1-.216.339.62.62 0 0 1-.448.096.362.362 0 0 1-.317-.255.74.74 0 0 1-.005-.337c.019-.104.05-.218.074-.313l.01-.04h-.011l.051-.21.016-.183h.029l.044-.182q.034-.15.07-.306c-.047-.274-.079-.512-.166-.706a.57.57 0 0 0-.446-.353.53.53 0 0 0-.31.019.5.5 0 0 0-.198.168 1.6 1.6 0 0 0-.166.305q-.038.087-.076.18-.037.092-.078.184c-.303.691-.609 1.472-1.472 1.922l-.294.152.001-.33c.001-.732.379-1.364.648-1.923.265-.551.444-1.055.262-1.64a.9.9 0 0 0-.573.065c-.197.095-.372.261-.56.475-.179.204-.38.463-.602.677-.229.221-.5.42-.851.517l-.445.124.214-.409c.39-.746.705-1.354 1.006-1.938-.393-.485-.721-.694-.998-.754-.29-.062-.567.026-.864.22-.303.196-.596.478-.92.77-.313.281-.655.57-1.033.733l-.328.141.05-.352c.091-.633.438-1.036.752-1.376.263-.285.484-.516.6-.802M24.32 7.442c-2.468.684-2.625.801-3.609 2.934 1.209-1.402 2.465-1.793 3.638-2.342-.012-.199-.017-.393-.029-.592m11.644 2.05c-.147.01-.295.008-.444.007-.028.333-.313.9.022.94.544.063.505-.511.422-.948m-.281-.664c-.056.222-.102.443-.158.666.149 0 .297.002.444-.009a.61.61 0 0 0 .099-.678l.005-.006c-.132.015-.264.018-.39.027m-11.334-.794v.005l.005-.006zm7.997-5.653c.038.464-.148.865-.365 1.368.722-.139 1.212-1.191 2.07-.528.813.621-.208 1.083-.08 1.763.721.017.813-1.058 1.51-.988.46.164.305.611.352.972.062.483.099.998.566.387l.099-.136c.322-.47.877-.301 1.199-.127.486.263.2.82.114 1.257-.129.618-.474.961-1.094.942-.512-.011-.97-.215-1.432-.416l-.465-.193c-.435-.167-.94-.837-1.444-.087-.215-1.198-1.335-1.097-2.052-1.583l-.14-.106c-.349-.306-.9-.457-.861-1.063l.016-.127c.095-.53.409-.832.854-.973l.198-.05c.215-.043.443-.03.651-.09.111-.027.206-.137.304-.222m-.25.414a2 2 0 0 1-.36.058l-.16.015-.145.02q-.375.074-.596.278c-.145.133-.252.32-.299.585a.63.63 0 0 0 .016.337q.046.12.157.221c.077.071.17.135.279.207.103.069.223.147.329.239.15.132.337.225.553.31q.161.061.333.122c.114.04.232.085.346.135.23.1.46.23.648.433q.17.184.274.442a.7.7 0 0 1 .19-.109.73.73 0 0 1 .518.013c.148.055.288.144.404.218.125.08.221.143.31.176q.242.095.472.196.23.104.455.192c.3.117.593.201.901.208h.002c.27.008.458-.062.592-.181.138-.123.241-.319.3-.603.023-.117.06-.244.089-.354.031-.116.056-.222.065-.318a.46.46 0 0 0-.022-.22.27.27 0 0 0-.09-.113l-.055-.035a1.2 1.2 0 0 0-.51-.154.47.47 0 0 0-.384.16l-.045.058c-.142.207-.268.354-.386.431a.4.4 0 0 1-.229.071.3.3 0 0 1-.219-.11.5.5 0 0 1-.093-.168 1 1 0 0 1-.047-.178c-.023-.12-.039-.26-.055-.383l-.011-.16q-.002-.08 0-.15c0-.097 0-.177-.01-.249a.33.33 0 0 0-.052-.152.3.3 0 0 0-.127-.09c-.206-.008-.335.134-.54.4-.187.24-.45.601-.927.59l-.162-.004-.03-.158a1 1 0 0 1 .086-.593c.036-.083.079-.162.118-.234.041-.074.078-.138.11-.202.064-.13.088-.222.077-.3-.011-.073-.059-.176-.237-.313h-.001c-.185-.143-.331-.181-.453-.176-.128.006-.257.06-.405.151a4 4 0 0 0-.226.154c-.077.055-.16.116-.245.172-.167.112-.36.223-.58.265l-.372.071.15-.347c.15-.348.271-.62.325-.883zm2.554-1.58c1.068 1.007 2.734-.342 3.645 1.06-1.42 1.618-1.632 1.612-4.43-.093.075-.52.634-1.107.785-.966m-.08.194a.9.9 0 0 0-.19.172 1.5 1.5 0 0 0-.288.504c.642.39 1.136.682 1.538.88.429.212.73.305.975.31.235.004.44-.072.678-.255.219-.168.454-.417.757-.758a1.15 1.15 0 0 0-.591-.408c-.266-.079-.563-.076-.897-.058-.615.033-1.378.134-1.982-.387m-2.225.949-.01.013.01-.035z"/></g><defs><linearGradient id="a" x1="19.429" x2="25.99" y1="0" y2="50.965" gradientUnits="userSpaceOnUse"><stop stop-color="#ffd8f5"/><stop offset="1" stop-color="#bfaa90"/></linearGradient><linearGradient id="b" x1="19.429" x2="25.99" y1="0" y2="50.965" gradientUnits="userSpaceOnUse"><stop stop-color="#ffd8f5"/><stop offset="1" stop-color="#bfaa90"/></linearGradient><linearGradient id="c" x1="19.429" x2="25.99" y1="0" y2="50.965" gradientUnits="userSpaceOnUse"><stop stop-color="#ffd8f5"/><stop offset="1" stop-color="#bfaa90"/></linearGradient><linearGradient id="d" x1="19.429" x2="25.99" y1="0" y2="50.965" gradientUnits="userSpaceOnUse"><stop stop-color="#ffd8f5"/><stop offset="1" stop-color="#bfaa90"/></linearGradient><linearGradient id="e" x1="19.429" x2="25.99" y1="0" y2="50.965" gradientUnits="userSpaceOnUse"><stop stop-color="#ffd8f5"/><stop offset="1" stop-color="#bfaa90"/></linearGradient><linearGradient id="f" x1="19.429" x2="25.99" y1="0" y2="50.965" gradientUnits="userSpaceOnUse"><stop stop-color="#ffd8f5"/><stop offset="1" stop-color="#bfaa90"/></linearGradient><linearGradient id="g" x1="19.429" x2="25.99" y1="0" y2="50.965" gradientUnits="userSpaceOnUse"><stop stop-color="#ffd8f5"/><stop offset="1" stop-color="#bfaa90"/></linearGradient><linearGradient id="h" x1="19.429" x2="25.99" y1="0" y2="50.965" gradientUnits="userSpaceOnUse"><stop stop-color="#ffd8f5"/><stop offset="1" stop-color="#bfaa90"/></linearGradient><linearGradient id="i" x1="19.429" x2="25.99" y1="0" y2="50.965" gradientUnits="userSpaceOnUse"><stop stop-color="#ffd8f5"/><stop offset="1" stop-color="#bfaa90"/></linearGradient><linearGradient id="j" x1="19.429" x2="25.99" y1="0" y2="50.965" gradientUnits="userSpaceOnUse"><stop stop-color="#ffd8f5"/><stop offset="1" stop-color="#bfaa90"/></linearGradient><linearGradient id="k" x1="19.429" x2="25.99" y1="0" y2="50.965" gradientUnits="userSpaceOnUse"><stop stop-color="#ffd8f5"/><stop offset="1" stop-color="#bfaa90"/></linearGradient><linearGradient id="l" x1="19.429" x2="25.99" y1="0" y2="50.965" gradientUnits="userSpaceOnUse"><stop stop-color="#ffd8f5"/><stop offset="1" stop-color="#bfaa90"/></linearGradient><linearGradient id="m" x1="19.429" x2="25.99" y1="0" y2="50.965" gradientUnits="userSpaceOnUse"><stop stop-color="#ffd8f5"/><stop offset="1" stop-color="#bfaa90"/></linearGradient><linearGradient id="n" x1="19.429" x2="25.99" y1="0" y2="50.965" gradientUnits="userSpaceOnUse"><stop stop-color="#ffd8f5"/><stop offset="1" stop-color="#bfaa90"/></linearGradient></defs></svg>