<svg xmlns="http://www.w3.org/2000/svg" width="1409" height="453" fill="none" viewBox="0 0 1409 453"><path fill="url(#a)" d="M1351.52 31.767c84.6 37.391 68.94 143.737-4.09 191.315-58.42 38.063-130.49-6.071-139.16-28.876 4.5-13.204-7.64-40.522-25.57-30.314-16.56 9.425-26.65 22.815-35.48 17.902-39.05-21.727 6.15-45.264 9.56-75.587 1.79-15.92-8.37-21-37.34-.607s-35.04 42.066-36.1 63.347c-1.07 21.281 11.02 30.123 1.51 22.643-55.56-43.666-9.18-133.005 78.23-168.288 87.42-35.283 103.84-28.926 188.44 8.465"/><path fill="url(#b)" d="M1113.03 253.389c34.84 19.704 43.38 15.342 60.79 6.075-13.06 47.126-121.59 47.191-127.19 26.422-5.6-20.768 31.56-52.201 66.4-32.497"/><path fill="url(#c)" d="M1070.61 369.699c41.8-15.316 4.08 20.318-20 40.05-7.6 1.345-24.96 7.399-34.36 8.483-57.325 6.617-101.329-49.976-160.362-32.736-52.105 15.216-95.659 51.581-150.28 60.274-33.181 5.281-62.695-10.047-89.228-26.313 84.413 45.699 172.527-45.154 250.77-70.271 43.423-13.939 91.532 15.086 134.21 21.634 16.29 2.501 54.79 11.082 69.25-1.121"/><path fill="url(#d)" d="M587.845 413.415c6.678 11.111 11.151 18.125 14.199 30.831.736 3.068 1.064 3.074 0 0-22.44-64.81-130.995 10.289-172.975 7.928-42.792-2.408-77.763-10.462-109.731-43.046-14.145-14.417-26.839-45.018-49.994-45.773-11.149-.364-25.344 3.526-35.056-4.068-30.243-23.647-21.267-93.266 28.335-88.051 73.128 7.688 55.649 107.09 114.485 120.619 49.783 11.448 178.528-32.028 210.737 21.56"/><path fill="url(#e)" d="M340.567 288.094c.262 12.813 1.723 29.422 6.456 41.353-18.324-39.658-91.212-109.733-131.971-108.161-45.099 1.739-100.183 18.157-135.024-20.261-7.588-8.366-13.71-32.078-25.582-34.992-18.94-4.65-60.494-17.398-53.704-45.864 20.926-87.728 337.751 66.714 339.825 167.925"/><path fill="url(#f)" d="M692.878 399.699c-60.714 43.121-109.577-67.711-134.584-100.688-39.205-51.702-123.311-56.379-176.993-31.602-41.632 19.215-11.583 70.017 17.556 81.327 19.3 7.49 41.299-.919 60.377-3.905 84.984-13.298 146.222 86.561 226.05 73.378 22.208-3.667 30.639-37.77 7.594-18.51"/><path fill="url(#g)" d="M1053.82 217.093c-10.7 30.555-70.72 56.053-68.714 22.653s41.774 4.472 68.714-22.653"/><defs><linearGradient id="a" x1="1642.9" x2="-237.099" y1="389.81" y2="238.809" gradientUnits="userSpaceOnUse"><stop stop-color="#5c9cca"/><stop offset="1" stop-color="#8c9cc5"/></linearGradient><linearGradient id="b" x1="1642.9" x2="-237.099" y1="389.81" y2="238.809" gradientUnits="userSpaceOnUse"><stop stop-color="#5c9cca"/><stop offset="1" stop-color="#8c9cc5"/></linearGradient><linearGradient id="c" x1="1642.9" x2="-237.099" y1="389.81" y2="238.809" gradientUnits="userSpaceOnUse"><stop stop-color="#5c9cca"/><stop offset="1" stop-color="#8c9cc5"/></linearGradient><linearGradient id="d" x1="1642.9" x2="-237.099" y1="389.81" y2="238.809" gradientUnits="userSpaceOnUse"><stop stop-color="#5c9cca"/><stop offset="1" stop-color="#8c9cc5"/></linearGradient><linearGradient id="e" x1="1642.9" x2="-237.099" y1="389.81" y2="238.809" gradientUnits="userSpaceOnUse"><stop stop-color="#5c9cca"/><stop offset="1" stop-color="#8c9cc5"/></linearGradient><linearGradient id="f" x1="1642.9" x2="-237.099" y1="389.81" y2="238.809" gradientUnits="userSpaceOnUse"><stop stop-color="#5c9cca"/><stop offset="1" stop-color="#8c9cc5"/></linearGradient><linearGradient id="g" x1="1642.9" x2="-237.099" y1="389.81" y2="238.809" gradientUnits="userSpaceOnUse"><stop stop-color="#5c9cca"/><stop offset="1" stop-color="#8c9cc5"/></linearGradient></defs></svg>