<svg xmlns="http://www.w3.org/2000/svg" width="2150" height="475" fill="none" viewBox="0 0 2150 475"><path fill="#fff" d="M1196.18 14.093c0 4.456 101.21 8.886 125.09 11.716-29-.694-117.8-1.547-143.09-3.367-27.43-1.972-53.26-3.169-81.54-6.743-26.67-3.37-49.67-5.72-77.23-7.081C981.917 6.768 873.384 2.73 789.9.72 761.09.028 665.714-.531 531.779.853c-56.971.59-92.631 1.587-115.695 1.97-56.256.933-129.638 2.405-115.846 5.349 6.515 1.39 34.291 3.595 67.902 5.92 15.108 1.046 110.754 1.491 242.082-.128 74.893-.924 164.341-.033 234.874 2.216 40.542 1.293 131.976 6.86 136.193 16.975.628 1.505-5.087 2.195-10.888 2.896-11.515 1.39-24.745 2.206-38.983 2.78-28.897 1.168-63.594 2.215-98.119 1.388-28.961-.694-76.567.554-114.028 0-39.134-.579-111.562-1.639-205.227 3.136-50.585 2.58-138.174 1.626-133.004 7.8.779.93 5.065 1.62 13.096 2.439s19.459 1.739 75.953 2.199 155.068.46 210.242.341c55.174-.118 66.577-.5 75.261-.463 28.918.122 208.555-2.946 311.588.463 58.64 1.94 164.71 3.674 175.98 3.674 27.85 0 71.01 9.002 78.11 9.22 48.14 1.48-101.82 11.583-224.63 15.484-33.66 1.069-125.006 7.12-211.262 7.368-120.413.345-206.27 2.313-231 3.467-67.317 3.14-225.206-.62-231.498 9.823-.627 1.042 4.96 1.59 13.096 1.851 18.009.578 97.724 1.065 166.042.226 67.252-.825 73.186-.571 134.845-4.966 64.048-4.565 217.198-5.152 297.737-3.467 128.27 2.683 212.27-.809 216.54 5.311.65.93-3.28 1.682-7.98 2.321-18.81 2.554-37.68 5.29-60.63 6.848-36.37 2.467-88.5 5.371-124.14 6.97-39.16 1.756-111.153 3.126-216.714 3.132-59.416.004-162.308.081-218.857.467-101.603.694-310.189 1.101-273.814 4.534 12.294 1.161 64.272.331 123.994 2.921 56.732 2.461 251.178 2.024 314.682 5.635 76.227 4.334 14.106 9.31 9.059 9.534-36.451 1.617-245.436-1.386-378.816-3.547-65.802-1.067-161.331.59-231.38.146C78.1 142.4 1.586 139.23.004 142.94c-.693 1.624 103.103 6.438 162.222 9.615 15.108.812 100.205.965 223.328 6.503 48.659 2.188 82.279 1.568 146.669 4.303 92.946 3.949 137.18 2.766 168.315 4.796 60.564 3.948 122.486 8.001 141.138 12.263 7.121 1.628 6.692 2.906 1.299 3.827l-.731.124c-11.457 1.958-26.839 4.586-60.655 5.556-32.447.93-95.118 9.081-201.93 4.54-65.499-2.784-127.939-8.829-183.9-7.196-92.556 2.701-160.759-3.581-207.643-4.855-32.641-.887-46.459-3.249-80.921-1.996-6.516.237-41.36 0-34.167 2.794 20.283 7.879 168.369 4.459 236.387 9.926 12.966 1.042 83.12-3.059 187.536 1.718 58.118 2.659 88.338 4.215 110.738 4.743 39.936.941 123.734 2.004 189.051 3.485 31.061.704 75.085 1.389 88.638 5.819 2.857.934 3.823 1.951-.086 2.788-8.659 1.854-76.111 6.738-175.793 8.471-28.879.502-19.987 2.829-8.961 3.234 25.217.927 156.628 1.404 228.239 8.623 17.252 1.739 32.278 3.716 33.767 6.043.671 1.049-2.186 1.969-8.03 2.784-5.845.815-14.068 1.684-21.646 1.969-24.546.923-50.457-2.004-104.136-2.004-93.824 0-137.34-1.831-168.097-.713-6.515.237-56.682 0-68.409 0-14.551 0-52.097 2.32-48.864 4.334 1.494.931 30.882 2.388 36.297 2.561 10.801.345 26.902.493 47.706 1.046 52.88 1.404 169.925-1.604 199.635-1.046 12.23.23 104.46 3.896 232.08 12.581 64.53 4.391 92.23 6.457 91.09 8.573-2.28 4.195-22.82 9.693-49.23 13.598-35.3 5.22-55.67 8.722-88.01 11.374-35.429 2.907-119.447 5.001-189.93 0-44-3.121-102.572 3.414-209.5 0-145.522-4.645-253 .379-253.865 3.754-2.266 8.839 37.269 3.54 63.245 3.125 36.192-.578 70.491 4.044 179.138 0 53.269-1.983 113.647-5.225 200.869 0 87.21 5.224 154.927 4.028 174.917 8.354 8.615 1.864 15.269 3.848 9.221 4.753-21.611 3.235-44.062 3.872-68.063 4.554l-2.717.078c-36.841 1.052-71.196 4.105-113.358 3.136-72.49-1.666-200.193-5.365-236.07-3.136-5.779.359-13.563 1.573-9.264 2.213 31.364 4.669 128.201.125 180.052 2.554 38.96 1.825 84.344 2.577 149.218 3.652l3.815.063c55.52.92 113.802 1.134 160.782-.24 31.8-.931 108.5-4.51 195.57 4.903 15.02 1.624 16.45 2.544 14.22 3.833s-7.95 2.9-15.96 4.06c-8 1.161-17.84 2.019-28.16 2.196-20.15.345-48.55-.3-77.94-2.339-41.91-2.906-119.8-7.093-102.95-4.391 10.87 1.743 34.19 3.405 56.32 6.043 28.19 3.359 56.08 5.577 82.99 5.914 55.33.693 135.55-.767 154.38 1.864 21.64 3.025 91.62 7.159 72.75 11.852-6.52 1.621-16.56 4.447-29.63 4.175-68.4-1.418-108.81 3.373-83.43 5.322l1.25.096c9.26.713 38.61 2.975 52.87 3.291 36.75.816 131.46.643 138.31 8.486.61.693-6.52 1.066-22.62 1.038-72.01-.122-131.44-3.742-189.65-1.502-12.32.474-23.75 1.394-19.16 2.684 4.59 1.289 24.05 3.213 39 3.704 38.92 1.279 76.56 2.894 120.44 3.712 31.04.578 165.92 2.72 128.25 6.631-26.82 2.785-71.8 6.003-109.01 8.357-33.31 2.109-101.45 3.094-113.87 8.482-1.35.582 4.24 1.109 10.9 1.391 13.68.578 248.16-3.2 196.85 3.952-5.8.808-16.64 1.976-28.92 2.903-21.65 1.634-45.61 2.629-122.82 4.645-53.37 1.394-119.91 1.116-141.92 6.165-3.58.819-3.89 1.989 6.73 2.199 59.13 1.171 97.93 2.406 126.15 6.046 10.78 1.391 15.02 1.453 17.9 3.307s-10.53 3.476-20.26 4.5l-1.36.143c-32.59 3.431-97.87 10.304-111.83 16.448-2.12.934-1.34 1.924 2.23 2.669l.19.04c7.27 1.518 21.29 4.447 56.87 5.993 7.94.345 15.37.283 13.57-.366-5.8-2.091-20.4-3.907-22.36-5.81-2.14-2.087-3.14-5.228 7.3-7.666 7.92-1.851 24.7-3.988 52.83-5.925 59.2-4.073 95.78-7.421 168.1-9.517 44.01-1.275 78.1-2.777 106.73-3.014 42.56-.352 80.75-.115 99.44-4.426 3.55-.819 2.8-1.87-6.68-3.029-44.66-5.457-71.59-6.344-98.04-9.05-5.75-.589-10.27-1.456-10.78-2.561-2.07-4.538-12.06-9.706 2.99-12.072 3.68-.578 11.16-.662 18.07-1.16 40.68-2.931 111.04-8.293 114.62-13.717.69-1.049-.74-1.969-4.4-2.666s-9.61-1.099-15.17-1.742c-23.12-2.677-61.75-5.966-97.47-8.598-42.62-3.14-109.71-2.053-131.24-6.858-9.35-2.087-19.62-5.052-10.69-7.203 8.66-2.084 20.94-4.273 35.39-4.513 6.52-.108 12.37.311 18.03.819 26.06 2.335 64.52 2.666 99.39.499 28.2-1.753 67.33 3.252 84.53-3.545 3.53-1.394 1.28-2.427-4.43-3.129-12.26-1.506-26.9-2.422-41.15-2.077-14.4.348-28.51 1.247-44.76 1.979-36.09 1.624-74.82 3.68-100.29 1.028-32.42-3.377-59.68-5.832-72.77-10.11-2.86-.934-2.86-1.854-2.12-2.788s2.16-1.853 13.18-2.314c11.02-.46 31.33-.108 43.96-.578 34.68-1.289 93.9-.675 121.62-7.684 6.45-1.631-3.48-.81-8.65-1.5s-39.73-.182-48.35 0c-27.45.579-37.34-1.062-59.12-2.902-31.77-2.683-81.46-4.65-98.77-9.768-3.57-1.056-5.61-2.593-1.36-3.6 16.62-3.94 40.05-6.592 62.61-9.146l.2-.022c21.65-2.45 67.17-7.163 52.54-10.577-7.95-1.854-25.29-3.122-41.17-4.876-23.14-2.554-62.61-4.38-61.24-8.485.74-2.203 13.5-7.135 48.47-12.312 25.91-3.837 57.32-6.329 82.21-11.853 5.78-1.282 10.51-2.825-2.51-3.007-41.15-.575-82.63-.764-95.03-2.795-5-.819-6.19-1.808-2.79-3.028 15.2-5.458 11.46-14.129 59.22-12.305 28.36 1.082 60.81-5.936 90.26-9.417 43.21-5.105 79.51-4.911 107.48-3.907 45.74 1.641 94.01-1.194 100-1.194 14.5 0 59.2-3.501 56-7.528S1789.02 215.97 1781 216c-32.49.122-28 2.778-69 2.778h-85.09c-23.32 0-62.19 4.45-99.53 9.169-26.67 3.37-68.84-.639-106.86 0-27.38.46-66.01-.253-58.23-1.642 19.63-3.502 62.36-9.002 46.11-12.305-2.23-.453-7.83.239-16.69.237-40.44-.007-95.72.49-124.75-7.928-6.42-1.864-8.98-3.925-.54-4.753 39.05-3.83 68.39-8.097 125.09-8.235 91.37-.223 113.71 4.456 143.32 4.886 15.84.23 34.45-.18 49.78-1.99 32.56-3.844 71.97-6.938 74.92-11.037.67-.934-2.56-2.132-10.24-1.721-45.54 2.432-85.6 3.388-102.38.679-9.36-1.509-22.27-2.854-24.49-4.649-2.14-1.739-4.73-4.246 5.89-5.342 28.16-2.906 52.82-8.418 86.58-10.333 12.23-.693 37.2-1.26 70.09-.805 41.8.579 70.32 1.472 107.45 1.858 33.92.352 83.82-.543 126.24-1.516 30.36-.697 97.56 2.33 105.3-5.593 5.67-5.81 15.9-12.348-11.75-15.679-19.62-2.363-64.42-2.961-115.35-3.641l-4.53-.06c-43.22-.578-98.52-.025-95-4.192 1.47-1.739 22.33-3.701 39.72-8.249 3.57-.934 3.57-1.854.63-3.025s-7.64-2.987-15.93-3.241c-30.31-.927-52.6-4.152-81.52-5.342-28.18-1.161-65.22-.563-113.33-3.133-59.61-3.185-141.77-9.47-150.66-15.818-2.12-1.516-.69-2.896 3.71-4.179 4.39-1.282 11.53-2.432 18.05-3.007 6.51-.575 12.3-.613 19.5-.22 31.78 1.736 74.56 1.035 106.04-1.289 25.3-1.868 101.37-8.459 70.57-10.34-9.42-.575-25.1-1.159-41.95-2.094-39.68-2.203-67.4-4.412-103.92-5.22-42.51-.941-78.9-2.228-85-6.988-3.58-2.784-1.65-5.442 6.6-7.433 20.21-4.879 36.09-10.854 69.39-11.253 28.83-.345 68.1.089 111.97 1.412 103.53 3.122 227.19 4.984 248.65-.265 4.32-1.06 9.68-2.991 3.46-3.83-13.72-1.85-34.75-5.655-82.41-5.213-64.26.595-114.75 3.387-147.79-.244-15.82-1.74-36.12-3.703-43.18-6.625-2.82-1.164-.6-2.206 4.41-2.781 10.09-1.157 19.59-3.139 33.21-5.001 24.59-3.363 51.32-6.096 85.17-4.861 28.85 1.052 72.99 4.391 252.95 7.21l2.44.038c65.97 1.034 158.85 2.49 139.21-1.223-31.63-5.977-100.95-12.56-137.41-14.288-68.42-3.245-171.75-5.68-238.68-2.886-36.15 1.51-83.4 4.005-133.51 7.207-38.23 2.443-46.47 8.834-139.72 4.175-51.06-2.55-116.32-2.098-151.74-2.561-44.26-.579-150.09-3.983-150.09.474"/></svg>