<?xml version="1.0" encoding="UTF-8"?>
<svg xmlns="http://www.w3.org/2000/svg" version="1.1" viewBox="0 0 618 331">
  <defs>
    <style>
      .cls-1 {
        fill: #afafaf;
      }
    </style>
  </defs>
  <!-- Generator: Adobe Illustrator 28.6.0, SVG Export Plug-In . SVG Version: 1.2.0 Build 709)  -->
  <g>
    <g id="_Слой_1" data-name="Слой_1">
      <path class="cls-1" d="M281.9,226.4c11.8-10.5,24-18.6,29.6-15.8-2.9,0-6.7,1.8-13.1,13.8,8-5.9,19-11.4,27.6-10.3,3.5.5,6.2,4.6,6.2,12.4s-4,18.6-11.7,27.5c-7.7,8.9-11,8.3-11,8.3,3.3.6,20-5.7,40-25.4-7.5,9.5-16,18.5-26.9,25.4-7.8,3.7-15,6-21.4,6.9-22.6,2.2-28.8-2.4-28.9-4.9-4.4,8.7-10.8,18.3-19.4,31.3-1.9,2.9-3.9,5.9-6.1,9.2,28,8.2,77.9,17.5,105.9,5.7,13.8-5.1,22.4-12.7,26.6-20.3-1.1,8.4-4.1,11.7-5.6,12.3,23.8-6.3,46.5-5.2,59.7-4,13.3,1.2,22.8,9.1,22.8,14.5-10.5-18.5-57.8-13.2-57.9-13.1-13.4,1.4-20.7,4.7-27,7.7-4.6,2.1-9.4,3.3-14.3,4.8-42,12.6-78.6,3-113-3.5-14.6,14.7-31.5,22-38.5,22s-12.5-1.9-15.4-5.9c-4-7.5-2.3-18.4,23.5-22.9,8-1.4,12.6-1.7,21.2,0,1.9-2.7,3.8-5.3,5.8-8,6.5-8.9,13.8-18.9,23.5-35.6,8.5-14.2,11.6-20.2,13.6-24.2,1.4-2.8,2.4-4.7,4.3-7.6ZM231.5,305.9c-8.9-1.9-21-.6-28.9,1.6-8.6,2.3-16.2,9.8-10.9,16.1,8.6,9.8,28-3.9,39.8-17.7ZM403.7,279.2v.4s0,0,0,0c-.4,0-.8,0-1,0-.2,0-.4,0-.5.1-.1,0-.2.2-.2.5,0,.2,0,.6,0,1v2.1s0,4.1,0,4.1v1.7c0,.7,0,1.1,0,1.3,0,.2,0,.3.1.4,0,0,.2.1.3.2.2,0,.6,0,1.2,0h0c0,0,0,.5,0,.5h0c-1.6,0-2.4,0-2.6,0-.2,0-1.1,0-2.6,0h0c0,0,0-.5,0-.5h0c.6,0,1-.1,1.1-.2.2,0,.3,0,.4-.1,0,0,.1-.2.2-.4,0-.2,0-.6,0-1.2v-1.9s0-2,0-2c-1.8,0-3.1,0-3.8,0-.7,0-2,0-3.7,0v2s0,1.7,0,1.7c0,.7,0,1.1,0,1.3,0,.2,0,.3.1.4,0,0,.2.1.3.2.2,0,.6,0,1.2,0h0c0,0,0,.5,0,.5h0c-1.6,0-2.4,0-2.6,0-.2,0-1.1,0-2.6,0h0c0,0,0-.5,0-.5h0c.6,0,.9-.1,1.1-.1.2,0,.3,0,.4-.1,0,0,.1-.2.2-.4,0-.2,0-.6,0-1.2v-1.9s0-4.1,0-4.1v-1.7c0-.7,0-1.1,0-1.3,0-.2,0-.3-.1-.4,0,0-.2-.1-.3-.2-.2,0-.6,0-1.2,0h0c0,0,0-.5,0-.5h0c1.6,0,2.4,0,2.6,0,.2,0,1.1,0,2.6,0h0c0,0,0,.5,0,.5h0c-.4,0-.7,0-1,.1-.2,0-.4,0-.5.1-.1,0-.2.2-.2.5,0,.2,0,.6,0,1v2.1s0,1.2,0,1.2c1.3,0,2.6,0,3.8,0,1.6,0,2.9,0,3.7,0v-1.2s0-1.7,0-1.7c0-.7,0-1.1,0-1.3,0-.2,0-.3-.1-.4s-.2-.1-.3-.2c-.2,0-.6,0-1.2,0h0c0,0,0-.5,0-.5h0c1.6,0,2.4,0,2.6,0,.2,0,1.1,0,2.6,0h0ZM415.3,283.4v.4s0,0,0,0c-.7,0-1.1.3-1.2.5,0,.2-.1,1-.1,2.4v1.6c0,1.4,0,2.2.2,2.4,0,.2.5.4,1.2.5h0c0,0,0,.4,0,.4h0c-.8,0-1.6,0-2.1,0-.5,0-1.2,0-2.1,0h0c0,0,0-.4,0-.4h0c.7-.2,1.1-.3,1.2-.5,0-.2.1-1,.1-2.4v-3.6s-.2,0-.2,0c-.4.6-1.1,1.8-2.1,3.5-1,1.7-1.6,2.9-2,3.6-.6,0-1,0-1.4,0-.4,0-.9,0-1.6,0h0c0,0,0-.4,0-.4h0c.4-.1.6-.2.8-.2.2,0,.3-.1.3-.2,0,0,0-.2.1-.3,0-.1,0-.4,0-1,0-.5,0-.9,0-1.2v-1.6c0-1.4,0-2.2-.2-2.4,0-.2-.5-.4-1.2-.4h0c0,0,0-.4,0-.4h0c.8,0,1.6,0,2.1,0,.5,0,1.2,0,2.1,0h0c0,0,0,.4,0,.4h0c-.4.1-.7.2-.8.3-.2,0-.3.1-.3.2,0,0,0,.1-.1.3,0,.1,0,.4,0,1,0,.5,0,1,0,1.3v3.7s.2,0,.2,0c.6-.8,1.3-2,2.2-3.6.9-1.5,1.6-2.7,2.1-3.6.6,0,1.1,0,1.4,0,.4,0,.9,0,1.5,0h0ZM446.4,282.9c.7,0,1.4.2,1.9.5.6.3,1,.8,1.2,1.3.2.5.3,1.1.3,1.7,0,.2,0,.4,0,.5h0c-.4.2-1,.3-1.7.3-.7,0-1.2,0-1.4,0h-2.9c0,1.2.3,2.2,1,2.7.6.6,1.4.9,2.3.9.4,0,.8,0,1.2-.2.4-.1.8-.3,1.2-.6v.2c.1,0-.1.6-.1.6-.6.4-1.2.7-1.7.8-.5.1-.9.2-1.3.2-.7,0-1.4-.1-2.1-.4-.7-.3-1.2-.7-1.6-1.4-.4-.7-.6-1.5-.6-2.4,0-.6,0-1.2.2-1.7.2-.5.3-.9.5-1.1.2-.2.5-.5.9-.8.4-.3.9-.5,1.3-.7.5-.2,1-.3,1.5-.3ZM424.7,283.3c0,1,0,2.1,0,3.2v1.7c0,1.4,0,2.2.2,2.4,0,.2.5.4,1.2.5h0c0,0,0,.4,0,.4h0c-.8,0-1.6,0-2.1,0-.6,0-1.3,0-2.1,0h0c0,0,0-.4,0-.4h0c.4-.1.6-.2.8-.2.2,0,.3-.1.4-.2,0,0,0-.2.1-.3,0-.1,0-.4,0-1,0-.5,0-.9,0-1.2v-4.1h-.2l-2.1,3-1.6,2.3c-.4.6-.6.9-.7,1,0,0,0,.2,0,.2,0,.1,0,.2.2.3.1,0,.5.1,1,.2h0c0,0,0,.4,0,.4h0c-.7,0-1.3,0-1.8,0-.4,0-1,0-1.8,0h0c0,0,0-.4,0-.4h0c.3,0,.6-.2.8-.3.2-.1.5-.4.8-.8.3-.4.9-1.1,1.5-2l1.9-2.5c.6-.7.9-1.2.9-1.3,0-.1.1-.2.1-.3,0-.1,0-.2-.2-.3-.1,0-.6,0-1.4-.2h0c0,0,0-.4,0-.4h0c.6,0,1.3,0,2.1,0,.7,0,1.4,0,2,0h0ZM441.4,279.1c0,.6-.2,1.4-.2,2.4h0c0,0-.3,0-.3,0h0c0,0-.1-.7-.1-.7,0-.2-.1-.5-.2-.6,0-.2-.2-.3-.4-.3-.2,0-.4-.1-.6-.1-.2,0-.5,0-.9,0h-3.1s0,7.7,0,7.7c0,.5,0,1,0,1.8,0,.7,0,1.2,0,1.3,0,.2,0,.3.1.4,0,0,.2.1.4.2.2,0,.6,0,1.1,0h0c0,0,0,.5,0,.5h0c-1,0-1.9,0-2.6,0-.8,0-1.7,0-2.6,0h0c0,0,0-.5,0-.5h0c.5,0,.9-.1,1.1-.1.2,0,.4,0,.4-.2,0,0,.1-.2.1-.4,0-.2,0-.6,0-1.3,0-.7,0-1.3,0-1.8v-4.1c0-.6,0-1.3,0-2,0-.7,0-1.1,0-1.2,0-.1,0-.2-.1-.3,0,0-.2-.1-.4-.1-.2,0-.6,0-1.1,0h0c0,0,0-.5,0-.5h0c.9,0,3.2,0,6.9,0,.2,0,1,0,2.4,0v.2ZM461.6,283.1v.4s0,0,0,0c-.7,0-1.1.3-1.2.5,0,.2-.1,1-.1,2.4v1.6c0,1.4,0,2.2.2,2.4,0,.2.5.4,1.2.5h0c0,0,0,.4,0,.4h0c-.8,0-1.6,0-2.1,0-.5,0-1.2,0-2.1,0h0c0,0,0-.4,0-.4h0c.7-.2,1.1-.3,1.2-.5,0-.2.1-1,.1-2.4v-3.6s-.2,0-.2,0c-.4.6-1.1,1.8-2.1,3.5-1,1.7-1.6,2.9-2,3.6-.6,0-1,0-1.4,0-.4,0-.9,0-1.6,0h0c0,0,0-.4,0-.4h0c.4-.1.6-.2.8-.2.2,0,.3-.1.3-.2,0,0,0-.2.1-.3,0-.1,0-.4,0-1,0-.5,0-.9,0-1.2v-1.6c0-1.4,0-2.2-.2-2.4,0-.2-.5-.4-1.2-.4h0c0,0,0-.4,0-.4h0c.8,0,1.6,0,2.1,0,.5,0,1.2,0,2.1,0h0c0,0,0,.4,0,.4h0c-.4.1-.7.2-.8.3-.2,0-.3.1-.3.2,0,0-.1.1-.1.2,0,.1,0,.4,0,1,0,.5,0,1,0,1.3v3.7s.2,0,.2,0c.6-.8,1.3-2,2.2-3.6.9-1.5,1.6-2.7,2.1-3.6.6,0,1.1,0,1.4,0,.4,0,.9,0,1.5,0h0ZM480.7,282.7c.9,0,1.7.2,2.2.7.6.5.8,1.1.8,2v1.8s0,2.7,0,2.7c0,.3,0,.5,0,.6,0,.1.1.2.2.2,0,0,.3,0,.6,0h0c0,0,0,.4,0,.4h0c-.5,0-.8,0-1.1,0-.3,0-.7,0-1.2,0h-.1c0-.1,0-1.6,0-1.6l-1.2.9c-.4.3-.7.5-.8.6-.3.1-.7.2-1.1.2-.7,0-1.3-.2-1.7-.6-.4-.4-.6-.9-.6-1.5,0-.7.2-1.2.5-1.6.4-.4.9-.8,1.6-1,.7-.2,1.8-.5,3.3-.7,0-.4,0-.7,0-.9,0-.3-.2-.5-.4-.7-.2-.2-.4-.4-.8-.5-.3-.1-.6-.2-1-.2-.2,0-.4,0-.6,0-.2,0-.4,0-.5.2-.2,0-.3.1-.3.2,0,0,0,0,0,.2,0,0,0,.2-.2.4,0,.2-.2.4-.2.5h0s-.4,0-.4,0h0c0-.2,0-.3,0-.5v-.7c.6-.4,1.2-.7,1.7-.9.5-.2,1-.3,1.5-.3ZM475,283v.4s0,0,0,0c-.5,0-.7,0-.8.1,0,0-.2.1-.2.2,0,.1,0,.4-.1.9,0,.5,0,1,0,1.7v1.5c0,.4,0,1,0,1.5,0,.6,0,.9.1,1,0,.1.2.2.2.2.1,0,.4,0,.8.1h0c0,0,0,.4,0,.4h0c-.6,0-1.3,0-2,0-.7,0-1.4,0-2,0h0c0,0,0-.4,0-.4h0c.5-.1.7-.1.8-.2.1,0,.2-.1.2-.2,0-.1,0-.4,0-.9,0-.5,0-1,0-1.7v-3.4s-.1,0-.1,0l-3.3,6.8h-.3s-3.3-6.8-3.3-6.8h-.1s.1,4.6.1,4.6c0,.3,0,.6,0,.6,0,.4,0,.6,0,.7,0,.1.1.2.3.2.1,0,.4,0,.9.1h0c0,0,0,.4,0,.4h0c-.5,0-1.1,0-1.6,0-.5,0-1,0-1.5,0h0c0,0,0-.4,0-.4h0c.5-.1.8-.1,1-.2.1,0,.2-.1.2-.3,0-.1,0-.6,0-1.3v-4c0-.7,0-1.1,0-1.2,0-.1-.1-.2-.2-.3-.1,0-.5-.1-1-.1h0c0,0,0-.4,0-.4h0c.6,0,1.1,0,1.5,0,.4,0,.8,0,1.4,0l3,6.2h.1s3-6.2,3-6.2c.5,0,.9,0,1.3,0,.5,0,.9,0,1.4,0h0ZM495.9,282.9v.4s0,0,0,0c-.5,0-.7,0-.8.1,0,0-.2.1-.2.2,0,.1,0,.4-.1.9,0,.5,0,1,0,1.7v1.5s0,1.6,0,1.6c0,.6,0,.9.1,1,0,.1.2.2.3.2.1,0,.4,0,.8.1h0c0,0,0,.4,0,.4h0c-.6,0-1.3,0-1.9,0-.7,0-1.4,0-1.9,0h0c0,0,0-.4,0-.4h0c.5-.1.7-.1.8-.2.1,0,.2-.1.2-.2,0-.1,0-.4.1-.8,0-.4,0-1,0-1.8v-.7c-.7,0-1.4,0-2.3,0-.8,0-1.5,0-2.3,0v.7c0,.5,0,1,0,1.6,0,.6,0,.9.1,1,0,.1.2.2.3.2.1,0,.4,0,.8.1h0c0,0,0,.4,0,.4h0c-.6,0-1.3,0-1.9,0-.7,0-1.4,0-1.9,0h0c0,0,0-.4,0-.4h0c.5-.1.7-.1.8-.2,0,0,.2-.1.2-.2,0-.1.1-.4.1-.8,0-.4,0-1,0-1.8v-1.5c0-.5,0-1,0-1.6,0-.6,0-.9-.1-1,0-.1-.2-.2-.3-.2,0,0-.4,0-.8-.1h0c0,0,0-.4,0-.4h0c.6,0,1.2,0,1.9,0,.7,0,1.4,0,1.9,0h0c0,0,0,.4,0,.4h0c-.5.1-.7.2-.8.2,0,0-.2.1-.2.2,0,.1,0,.4-.1.8,0,.4,0,1,0,1.8v.2c1.1,0,1.9,0,2.3,0,.5,0,1.3,0,2.3,0v-.2c0-.4,0-1,0-1.5,0-.6,0-.9-.1-1,0-.1-.1-.2-.2-.2,0,0-.4,0-.8-.1h0c0,0,0-.4,0-.4h0c.6,0,1.3,0,1.9,0,.7,0,1.4,0,1.9,0h0ZM482.3,286.6c-1.4.2-2.4.5-3,.8-.6.3-.8.8-.8,1.6,0,.5.1.8.4,1.1.3.2.6.4,1,.4.8,0,1.6-.5,2.4-1.4v-2.4ZM446,283.5c-.7,0-1.3.3-1.7.8-.4.5-.6,1.3-.6,2.3.1,0,.5,0,1.3,0,.7,0,1.3,0,1.6,0,.8,0,1.4,0,1.5,0,0-.1,0-.3,0-.3,0-.9-.2-1.6-.6-2.1-.4-.4-.9-.7-1.6-.7ZM459,280.3c-.7.9-1.6,1.3-2.6,1.3-.6,0-1-.1-1.5-.4-.4-.3-.8-.6-1.1-1.1l.9-.7h.2c.2,1.2.8,1.7,1.8,1.7.5,0,.9-.1,1.2-.4.3-.3.5-.7.5-1.2h.2c0,0,.4.9.4.9ZM140.5,0c15.8,0,29.9,2.7,42.3,8,9.6,4.2,17.3,10,23.2,17.4,5.9,7.5,8.9,16.6,8.9,27.5l-.2,4.7c-1.6,16.4-8,31-19,43.8-9.9,11.6-21.9,21-36,28.2,6.1,3.5,11.6,7.7,16.7,12.6,14.2-11.3,29.1-17,44.7-17s5.8.2,8.8.6l-.2.6c-2-.3-3.9-.4-5.9-.4-9.6,0-19.7,2.7-30.2,8-5.7,2.7-10.7,6.2-15,10.4,6.6,7.4,11.6,15.5,14.8,24.2,3.3,8.6,4.9,17.3,4.9,26.2,0,17.2-5.7,32.6-17.2,46.3-7.2,8.5-16.1,15.3-26.9,20.5-10.7,5.1-22.9,7.6-36.7,7.6h-52.3c-9.8,1.7-20,2.5-30.8,2.5s-17-.6-24-1.8c-6.9-1.2-10.3-2.8-10.3-4.9,0-2.9,5.5-4.3,16.6-4.3s17.5.7,27.5,2c10.1,1.3,18,2.5,23.4,3.5,11.2-4.2,20.9-11.3,29.1-21.5,8.2-10.2,16.1-21.6,23.6-34.2l6-9.6c12.9-21.2,28.4-39.9,46.4-55.9-4.7-5.5-10.2-10.2-16.4-13.9-.3.1-.6.3-.8.4-15.8,7.3-31.7,11-47.6,11s-24.7-3-32.6-8.9c-2.3-1.8-4.3-3.8-5.7-6-5.9,3.2-11,7.1-15.2,11.5-5.9,6.1-10.3,12.8-13.3,20.1-.5,1.2-.9,2.5-1.3,3.7-5,15.2-2.7,27.6-2.7,27.7.9,5.8,2.8,11,5.6,15.7,4.3,6.8,10.5,11,18.7,12.7,1.6.3,3.2.4,4.9.4l3.5-.2c9.4-1.6,16.7-6.5,22.1-14.9,5.3-8.3,8.1-17.5,8.4-27.6,0-6-1.3-11-3.9-15.1-2.5-4.2-6.5-6.3-12.1-6.3h-1c.4.5.6,1,.6,1.6,0,.7-.3,1.2-.8,1.8-.4.5-1,.8-1.8.8s-1.4-.3-2-.8c-.4-.7-.6-1.3-.6-2,0-.9.5-1.6,1.4-2,1-.5,3.1-.8,6.2-.8,6.9,0,12.6,2.1,17.2,6.4,4.7,4.2,7.2,9.3,7.6,15.4l.2,2.1c0,9.1-3.8,18.2-11.3,27.2-7.5,8.9-17.6,14-30.2,15.4-1.2.1-2.4.2-3.7.2l-5.1-.2c-12.2-1-21.3-5-27.3-11.9-6-7-9-15.3-9-24.8,0-7.6,1.8-15.2,5.5-23.1,3.6-7.9,9-15.2,16-21.9,6.1-5.7,13.4-10.6,21.9-14.4-1.3-3-2-6.3-2-10.1,0-4.7,1.3-9.9,4-15.5-8.2-3.5-14.2-8.1-18-13.6-3.8-5.7-5.7-11.8-5.7-18.4,0-7.6,2.3-15.3,6.8-23.1,4.6-8,11-15.2,19.4-21.8,8.5-6.7,18.5-12.1,30-16.1C113.9,2.1,126.6,0,140.5,0ZM228.7,206c6,0,11.4,1.5,16.3,4.4,4.9,2.9,8.9,6.8,11.8,11.7,2.9,4.9,4.4,10.3,4.4,16.3s-1.5,11.4-4.4,16.4c-2.9,4.9-6.9,8.8-11.8,11.7-4.9,2.9-10.3,4.4-16.3,4.4s-11.4-1.5-16.4-4.4c-4.9-2.9-8.8-6.8-11.7-11.7-2.9-4.9-4.3-10.4-4.3-16.4s1.4-11.4,4.3-16.3c2.9-4.9,6.8-8.9,11.7-11.7,4.9-2.9,10.4-4.4,16.4-4.4ZM385.8,206c5.9,0,11.2,1.5,16,4.4,4.8,2.9,8.7,6.8,11.6,11.7,2.9,4.9,4.3,10.3,4.3,16.3s-1.4,11.4-4.3,16.4c-2.9,4.9-6.7,8.8-11.6,11.7-4.8,2.9-10.1,4.4-16,4.4s-11.2-1.5-16-4.4c-4.8-2.9-8.6-6.8-11.5-11.7-2.8-4.9-4.2-10.4-4.2-16.4s1.4-11.4,4.2-16.3c2.9-4.9,6.7-8.9,11.5-11.7,4.8-2.9,10.2-4.4,16-4.4ZM455.7,206c4.1,0,7.5,1,10.3,3.1,3.1,2.3,4.7,5.5,4.7,9.5,0,5.4-4.6,10.5-13.8,15.4-6.9,3.1-13.8,6.2-20.6,9.4-3.7,2.1-5.6,5.8-5.6,11.1s4,9.4,12,9.4,9.7-1.7,14.7-5.2c.3-.1,1.6-1.4,3.8-3.8,1.7-1.8,2.2-1.1,3.9-2.2.6-.4,1.1-.6,1.1.2,0,.8-.8,2.2-2.3,4.3-6.5,9.2-15.1,13.7-25.7,13.7s-8.3-1.1-11.3-3.4c-3.5-2.5-5.3-6-5.3-10.5s1.3-7.7,4-10.7c3.5-3.8,8.7-6.8,15.6-9.1,7.9-2.5,13.2-4.8,15.9-6.8,2.7-2,4-5.2,4-9.6s-1.3-4.8-3.8-6.5c-2.2-1.4-4.7-2.1-7.5-2.1s-7.5,1.2-11.6,3.7c-4,2.5-6,3.7-6,3.7-.8,0-1.2-.4-1.2-1.2s.9-2.2,2.6-3.9c5.7-5.8,13.1-8.6,22.2-8.6ZM618,158.5c-1.3,4.7-4.1,8.7-7,11.8-1.9,2-3.7,3.7-5.3,5-.2.2-.4.4-.6.6h0c-1.2,1-2.1,1.8-2.5,2.4-.4.5-1.5,1.6-3,3.1h0c-4.9,4.8-13.6,13.3-14.1,18.6.4,2.1,1,2.8,1.4,3.2,0,0,0,0,.1.1,0,0,0,0,.1.1.7.8,3.7,4.2,3.3,6.2-.3-.3-.6-.6-.8-.9h0c-.5-.5-.9-.9-1.2-1.3-5-4.7-17.7-.7-14.7,7.1.6,1.6,1.1,2.4,1.5,3.2.5.9.9,1.6,1.1,2.9-1-1.6-3.6-4.6-5.5-5.5-3.1.6-10.4,3.2-8.4,7.8.5,1.1,1.4,1.8,2,2.1.9.2,1.9.5,2.8.8,12,3.4,29.6,7.4,44.3-3.6h0c-2.4,2.4-6.8,5.7-13.2,7.1-.8.2-1.9.5-3.3.7-.4,0-.8.1-1.2.2-11.3,2.1-18.3,9.3-17.3,13.6.4,1.2.8,2.5,1,3.1-.7-.8-2.4-2.5-2.9-3.6-.2-.4-.7-1-1.5-1.5-3.5-2.7-8.2-4-9.7,1.3,0,.2-.1.4-.2.6,0,1.3.2,2.3.3,2.7-.5-.9-1.5-3-1.7-3.7-2.4-1.8-5.6-2.1-7.5.3-1.6,2.1-2.3,2.9-2.4,3.1,1.5-2.7,1.6-4.7,1-7.9-1-6-11.5-11.2-16.7-.5v23.1c.1,2.2.8,4.1,2.2,5.6,1.4,1.5,3,2.3,4.9,2.3h0v.9h-10.4c-2,0-3.8-.9-5.2-2.6h0l-.2-.4-.2-.2c0,0,0-.1-.1-.2,0,0-.1-.1-.1-.2,0,0,0-.2-.2-.3,0-.1-.1-.3-.2-.4,0-.2-.2-.4-.3-.7,0-.3-.2-.5-.3-.9-.1-.7-.2-1.3-.2-2v-8.1c-1.7,4-3.7,8.5-7.4,11.7-3.7,3.1-6.9,4.2-11.7,4.2s-9-1.6-12.6-4.7c-3.7-3.2-6.2-7.3-7.5-12.3-.6-2.2-.9-4.5-.9-6.8v-26.1c0-3.6-1.1-6.6-3.3-9-2.2-2.5-4.9-3.8-8-3.8v-.9h25.8v.9c-3.1,0-5.8,1.3-8,3.8-2.2,2.5-3.3,5.5-3.3,9v14.8c.8,5,.9,5.9,1.4,7.2,2.4,5.8,2.9,7.5,6.9,12.1,3.8,4.8,8.4,8.2,13.8,10,1.3.5,1.7.6,3.1.6,2.1-.2,3.6-1.2,5.1-2.8,1.8-2.1,4.1-6.3,5.1-9.1,1-2.8,1.7-6.6,1.7-9.7v-28.2c0-.2,0-.4,0-.6-.2-2.1-1-3.8-2.3-5.2-1.3-1.4-2.9-2.1-4.7-2.1h0v-.9h24.6v.9h0c-1.9,0-3.6.8-4.9,2.3-1.4,1.5-2.1,3.4-2.2,5.6v14.3h0c2.4-2.6,1.8-2.8,5.1-7.4,3.3-4.6,11.4-18.7,14-30.3,1.7,4,23.2-4.5,30.6-7.4,14.6-5.8,26.8-12.7,31.8-25.5ZM174.9,148.1c-9,10.3-16.8,22.2-23.4,35.8-3.9,7.3-8.1,14.5-12.5,21.7-16.1,24.9-35.5,44-58.2,57.3l-8.6,4.1h45.3c13.3,0,25-4.1,35.3-12.3,10.3-8.3,18.3-18.8,24.2-31.3,6-12.6,9-25.4,9-38.3s-3.7-26.6-11.1-36.9ZM316.4,219.5c-3.1,0-11.4,4.4-24.8,13.1-2.7,4.3-5.2,8.2-7.3,11.5-3.4,5.2-5.7,8.8-5.7,9.8l-4.8,8.3c15.9,9.6,27.8-2.3,32.6-7.1.1-.1.2-.2.3-.3,9.4-10.4,14-21.4,16.1-31.2,0-2-2.1-3.3-6.2-4.1ZM219.2,211.4c-2.5,0-4.9.4-7,1.2-2.2.8-4.1,2-5.7,3.6-1.6,1.7-2.8,3.6-3.6,5.8-.8,2.2-1.2,4.5-1.2,7,0,4,1,8.2,2.9,12.6,2,4.4,4.9,8.5,8.7,12.3,3.8,3.8,8,6.7,12.4,8.7,4.4,2,8.6,3,12.6,3s4.9-.4,7-1.2c2.2-.8,4.1-2,5.7-3.6,1.6-1.6,2.8-3.5,3.6-5.7.8-2.2,1.2-4.6,1.2-7,0-4-1-8.2-2.9-12.6-2-4.4-4.9-8.5-8.7-12.4-3.8-3.8-8-6.7-12.4-8.7-4.4-2-8.6-3-12.6-3ZM376.5,211.4c-2.5,0-4.8.4-6.9,1.2-2.1.8-4,2-5.6,3.6-1.6,1.7-2.8,3.6-3.6,5.8-.8,2.2-1.2,4.5-1.2,7,0,4,1,8.2,2.9,12.6,1.9,4.4,4.8,8.5,8.5,12.3,3.8,3.8,7.8,6.7,12.1,8.7,4.3,2,8.4,3,12.4,3s4.8-.4,6.9-1.2c2.1-.8,4-2,5.6-3.6,1.6-1.6,2.8-3.5,3.6-5.7.8-2.2,1.2-4.6,1.2-7,0-4-1-8.2-2.9-12.6-1.9-4.4-4.8-8.5-8.5-12.4-3.8-3.8-7.8-6.7-12.1-8.7-4.3-2-8.4-3-12.4-3ZM568.2,227.7c-2.4-.7-8.3-1.8-13.1-.8-4.5,1.1-5.3,2.2-5.1,2.7.9-.5,4.3-1.1,10.3.8,6.9,2.3,10.9,5.6,15.1,11.9,1.1-6.3,8.3-10.7,14.9-11.5-3,.3-6.3.3-9.3-.3-6.5-1.2-11.2-2.4-12.7-2.8ZM554.6,234.7c-.9,0-.4,1-.1,1.5.5.8,1.1,3,.4,5.7,1.8-2.1,5.2-.9,6.8.1-1-2.5-3.1-6.6-7-7.4ZM562.6,232.9c-5.1-1.9-8.5-1.8-9.6-1.3-.1.2,0,.6,1.1,1.2.2.1.6.2,1,.2,1.8.2,5.1.7,8,9.1,2.2-3.6,6.1-3.8,9.2-1.3-1.9-2.4-5.4-6.2-9.7-7.9ZM550.6,220.8c-2.2,0-7,1.4-8,6.8.8,0,1.9-.4,3.4-.9,3.6-1.3,9.2-3.2,16.4-1.9-1.6-1.4-5.8-3.8-11.8-4ZM560.8,212.6c-6.6.1-11.9,3.6-13.3,5-1.2,1.1-2.7,3.3-3.3,4.3.4-.4,1.6-1.3,3.1-2,1.8-.8,8.1-2.2,14.4,2.6-.8-4,4.9-7.2,8.2-7.9-1.6-.9-4.7-2.1-9-2.1ZM587,206c-2.3-2.5-6.4-5.5-10.9-4.9-7,1-11.1,2.5-16.7,6.1-3.7,2.6-3.5,3.3-2.9,3.4,2.1-.2,7.3-.3,10.9,1.2,2.4,1,4.1,1.8,5.1,2.3,0-7.5,8.5-10.8,14.5-8.1ZM604.8,175.4c-1.2.9-2.4,1.9-3.8,2.9-2.4,1.7-6.9,4-12.4,6.8l-.6.3c-8.9,3.5-27.4,10.6-30.1,11.4-.7,2-3.5,8.2-4.8,11-.4.3-.8.7,1.1-.3,8.1-7.1,15.8-8.8,21.8-8.8,3.5,0,7,1.7,9.2,3.1-.7-1.3-.3-5.9,6.9-13.5,6-6.4,11-11.4,12.8-13.1ZM374.7,170.1v.7h-.1c-.8.2-1.3.4-1.6.5-.3.1-.5.2-.6.4-.1.1-.2.3-.2.5,0,.2,0,.8-.1,1.9,0,1,0,1.9,0,2.5v8.4h.1c1,.1,1.9,0,2.8,0l.2.2c-.6,1.8-1.1,3.8-1.5,6.2h-.8c0-1.1,0-2.1,0-2.9,0-.8-.1-1.3-.3-1.5-.1-.2-.3-.3-.6-.5-.3-.1-1.1-.2-2.4-.2-1.3,0-2.7,0-4.1,0-1.5,0-3.1,0-4.6,0h-3.7c-.9,0-1.7,0-2.3.1h-.1v-.9h.1c.7-.2,1.2-.3,1.6-.5.3-.1.6-.3.7-.4.1-.2.2-.4.2-.6,0-.2,0-.9,0-1.9,0-1,0-1.8,0-2.3v-3.2c0-2.7,0-4.3-.3-4.7-.2-.4-.9-.7-2.3-.9h-.1v-.9h.1c1.6,0,3,0,4.1,0s2.4,0,4.1-.1h.1v.9h-.1c-.8.2-1.3.4-1.6.5-.3.1-.5.2-.6.4-.1.1-.2.3-.2.5,0,.2,0,.8-.1,1.9,0,1.1,0,1.9,0,2.5v8.4h.1c0,.1,8.6.1,8.6.1h.1v-8.5c0-2.7,0-4.3-.3-4.7-.2-.4-1-.7-2.3-.9h-.1v-.9h.1c1.6,0,3,0,4.1,0s2.5,0,4.1-.1h.1ZM395.3,169.5c1.4,0,2.7.3,3.7,1,1.1.6,1.8,1.5,2.3,2.5s.7,2.1.7,3.3,0,.7,0,1l-.2.2c-.8.2-1.9.3-3.2.3s-2.2,0-2.7,0h-5.7c0,2.4.6,4.2,1.8,5.3,1.2,1.1,2.7,1.7,4.4,1.7s1.6-.1,2.4-.4c.8-.3,1.6-.7,2.4-1.2l.3.3-.6,1.3c-1.2.8-2.3,1.3-3.3,1.5-1,.2-1.8.3-2.6.3-1.4,0-2.8-.3-4-.8-1.3-.5-2.3-1.5-3.1-2.8-.8-1.3-1.2-2.9-1.2-4.7s.2-2.3.5-3.3c.3-1,.6-1.7,1-2.2.3-.5.9-1,1.7-1.6.8-.6,1.6-1,2.5-1.4.9-.3,1.9-.5,2.9-.5ZM302.4,169.6c1.8,0,3.4.3,4.6,1,1.3.7,2.3,1.6,3,2.8.7,1.2,1.1,2.6,1.1,4s-.2,2.8-.7,4c-.5,1.2-1.2,2.2-2.1,3-.9.8-1.8,1.4-2.8,1.8-1,.3-2.1.5-3.4.5-2.9,0-5.1-.8-6.6-2.5-1.5-1.6-2.3-3.7-2.3-6.1s.4-3.2,1.1-4.5c.7-1.3,1.8-2.3,3.2-3,1.4-.7,3-1,4.9-1ZM218.9,170c1.6,0,2.8.1,3.7.1s1,0,1.7,0c2.1,0,3.5,0,4.2,0,1.4,0,2.4.3,3,.9s1,1.3,1,2.2c0,1.9-1.3,3.2-3.9,3.9,1.6,0,2.8.5,3.6,1.2.8.7,1.2,1.6,1.2,2.7s-.5,2.6-1.6,3.7c-1.1,1.1-2.8,1.7-5.1,1.7s-.5,0-1,0c-1,0-1.8,0-2.3,0-1.4,0-2.8,0-4.3.1h-.1v-.9h.1c.9-.2,1.4-.3,1.6-.3.2,0,.3-.2.5-.5.1-.2.2-.8.2-1.6,0-.8,0-2,0-3.4v-3c0-.9,0-1.9,0-3,0-1.1,0-1.8-.2-2-.1-.2-.3-.4-.5-.4-.2,0-.7-.2-1.6-.2h-.1v-.9h.1ZM281.2,170.1v.7h-.1c-.8.2-1.4.4-2,.7-.6.3-2.6,2-6.1,5.2l7.2,7.5c.5.5.9.9,1,1,.2.1.5.2.8.2h0v.8h0c-1.8,0-3,0-3.3-.1-.4-.1-.8-.4-1.3-.7-.5-.4-1.3-1.2-2.4-2.4-2.3-2.4-3.8-3.9-4.7-4.7h-.1v1.4c0,1,0,2,0,3.1,0,1.1,0,1.8.2,2,.1.2.3.4.5.4.2,0,.7.1,1.6.2h.1v.9h-.1c-1.2,0-2.4,0-3.8,0s-2.7,0-3.8.1h-.1v-.9h.1c.9-.2,1.4-.3,1.6-.3.2,0,.3-.2.5-.5.1-.2.2-.8.2-1.6,0-.8,0-2,0-3.4v-3c0-.9,0-1.9,0-3,0-1.1,0-1.8-.2-2-.1-.2-.3-.4-.5-.4-.2,0-.7-.2-1.6-.2h-.1v-.9h.1c1.2,0,2.4,0,3.8,0s2.7,0,3.8-.1h.1v.9h-.1c-.9.2-1.4.3-1.6.4-.2,0-.3.2-.5.4-.1.2-.2.8-.2,1.6,0,.8,0,2,0,3.4v1.1h.1c1.5-1.3,3-2.6,4.3-4,1.4-1.4,2.1-2.2,2.3-2.3.1-.2.2-.3.2-.4s-.1-.2-.3-.3v-.7h.1c1,0,1.7,0,2,0,.6,0,1.3,0,2-.1h.1ZM342.4,170.1v.7h-.1c-.9.2-1.4.3-1.6.4-.2,0-.3.2-.5.5-.1.2-.2.8-.2,1.7,0,.9,0,2,0,3.3v6c0,1.1.1,1.8.2,2,.1.2.3.4.5.4.2,0,.7.1,1.6.2h.1v.9h-.1c-1.2,0-2.4,0-3.7,0s-2.6,0-3.7.1h-.1v-.9h.1c.9-.2,1.4-.3,1.6-.3.2,0,.4-.2.5-.5.1-.2.2-.8.2-1.6,0-.9,0-2,0-3.4v-1.4c-1.3,0-2.8,0-4.4,0s-3,0-4.5,0v1.4c0,.9,0,1.9,0,3.1,0,1.1,0,1.8.2,2,.1.2.3.4.5.4.2,0,.7.1,1.6.2h.1v.9h-.1c-1.2,0-2.4,0-3.7,0s-2.6,0-3.7.1h-.1v-.9h.1c.9-.2,1.4-.3,1.6-.3.2,0,.3-.2.5-.5.1-.2.2-.8.2-1.6,0-.8,0-2,0-3.4v-3c0-.9,0-1.9,0-3,0-1.1-.1-1.8-.2-2-.1-.2-.3-.4-.5-.4-.2,0-.7-.2-1.6-.2h-.1v-.9h.1c1.2,0,2.4,0,3.7,0s2.6,0,3.7-.1h.1v.9h-.1c-.9.2-1.4.3-1.6.4-.2,0-.3.2-.5.5-.1.2-.2.8-.2,1.6,0,.8,0,2,0,3.4v.5c2.2,0,3.7,0,4.5,0s2.4,0,4.4,0v-.5c0-.9,0-1.9,0-3,0-1.1-.1-1.8-.2-2-.1-.2-.3-.4-.5-.5-.2,0-.7-.2-1.6-.2h-.1v-.9h.1c1.2,0,2.4,0,3.7,0s2.6,0,3.7-.1h.1ZM302,170.8c-1.6,0-2.8.5-3.8,1.6-1,1.1-1.5,2.7-1.5,4.9s.5,4.2,1.5,5.8c1,1.6,2.4,2.4,4.3,2.4s2.9-.6,3.9-1.9c.9-1.3,1.4-3,1.4-5.2s-.5-4.2-1.5-5.6c-1-1.4-2.4-2.1-4.3-2.1ZM225.4,177.8c-.3,0-.7,0-1.3,0v7.3c.7,0,1.4.1,2.1.1,1,0,1.8-.2,2.4-.6.6-.4,1-.9,1.3-1.4.3-.6.4-1.2.4-1.8s-.2-1.4-.5-2c-.4-.6-.9-1-1.6-1.2-.7-.2-1.6-.3-2.8-.3ZM226,171.1c-.6,0-1.2,0-1.9,0v5.7c.3,0,.7,0,1,0,1.6,0,2.8-.3,3.4-.8.7-.5,1-1.3,1-2.2s-.3-1.5-.8-2c-.5-.5-1.4-.8-2.8-.8ZM394.6,170.7c-1.4,0-2.5.5-3.3,1.5-.8,1-1.2,2.4-1.2,4.4.2,0,1,0,2.4.1,1.4,0,2.5,0,3.2,0,1.6,0,2.6,0,3,0,0-.3,0-.5,0-.6,0-1.8-.4-3.1-1.1-4-.7-.9-1.8-1.3-3-1.3ZM232.4,72.5c2.2,0,4.2.8,5.8,2.4,1.6,1.6,2.4,3.5,2.4,5.7v19h10.6c.3,0,.6,0,.8,0,.9-.1,1.9-.3,2.8-.5.9-.2,1.8-.5,2.7-.9.9-.3,1.7-.7,2.5-1.2.8-.4,1.6-.9,2.3-1.5.7-.5,1.4-1.2,2.1-1.8.6-.6,1.2-1.3,1.8-2,.6-.7,1.1-1.5,1.5-2.3s.9-1.6,1.2-2.5c.3-.6.5-1.2.6-1.8v-12.5h14.2v1h-.6c-.5,0-1.1.1-1.7.2-1.9.3-3.6,1-5.1,2-.8.5-1.5,1.1-2.1,1.7-.6.6-1.2,1.3-1.7,2.1-.6,1.1-1.1,2.1-1.4,3.2-.3,1.1-.6,2.1-1,3.2h0c0,.1-.6,1.6-.6,1.6-.4.8-.8,1.7-1.3,2.5-.5.8-1,1.5-1.6,2.3-.6.7-1.2,1.4-1.8,2-.6.6-1.3,1.2-2.1,1.8-.7.6-1.5,1.1-2.3,1.6-.8.5-1.6.9-2.5,1.2-.6.3-1.1.5-1.7.6-1.1.4-3,.7-5.3.9,1.2.3,2.6.6,3.8,1.2,6.3,2.8,11.1,8,15.8,13.8,1.2,1.5,2.4,3,3.6,4.6,10,12.7,20.9,26.6,44.6,26.6s31.9-8.7,35.5-11.5l2.5-2,.6.7-2.6,2c-7.6,6.1-23.3,14-40.2,14-27,0-40.6-16.7-51.3-30.5-.3-.4-.7-.9-1-1.3-7.1-9-12.9-16.4-20.6-16.6h-.4s-1.1,0-1.1,0v26.6c0,2.3.9,4.2,2.5,5.7,1.6,1.5,3.5,2.3,5.7,2.3h0v1h-27.1v-1h0c2.2,0,4.2-.8,5.8-2.3,1.6-1.6,2.4-3.5,2.4-5.8v-46.3c0-2.2-.8-4.1-2.4-5.7-1.6-1.6-3.5-2.4-5.8-2.4h0v-1h10.7ZM107.9,118.8c-11.1,0-20.9,1.6-29.4,4.8.8,3.6,2.4,6.7,5,9.4,4.7,4.9,13,7.4,25.1,7.4s23.2-2.6,34-7.8c2.8-1.4,5.5-2.8,8.1-4.4-2.3-1.1-4.7-2.1-7.2-3-11.7-4.3-23.5-6.4-35.5-6.4ZM330.8,72.5c5.9,0,11.3,1.5,16.2,4.4,4.9,2.9,8.7,6.8,11.6,11.6,1,1.7,1.8,3.4,2.5,5.2l-9.2,2.9-44.2,12.5c2,3.8,4.6,7.5,8,11,3.8,3.8,7.9,6.7,12.2,8.6,4.3,2,8.5,2.9,12.4,2.9s4.8-.4,7-1.2c2.2-.8,4-2,5.7-3.6l.2-.3.7.7c-2.4,2.4-5.1,4.4-8.1,6.1-4.5,2.5-9.5,3.7-14.9,3.7s-11.3-1.4-16.1-4.3c-4.9-2.9-8.7-6.8-11.6-11.7-2.9-4.9-4.3-10.3-4.3-16.3s1.4-11.4,4.3-16.3c2.9-4.9,6.8-8.8,11.6-11.6,4.9-2.9,10.2-4.4,16.1-4.4ZM398.3,72.5c13.9,0,27.6,9.6,27.6,24.4v10.6c10.9,2.4,16.4,7.8,19.2,12.2,2.4,3.7,2.5,6.2.6,10.1-4.8,7.4-13.3,7.4-18.2,7.4-9,0-12.8-4-12.9-11.9-14.6,10.8-22.1,10.8-28.5,10.8s-14.9-4.2-15.8-10.8c-.6-4.4-.3-11.4,6.4-16.1-5-4.3-5.3-9.7-5.3-13.8,0-8.4,10.5-22.8,27-22.8ZM472.8,73.5c-3.4,0-6.3,1.2-8.7,3.7-2.4,2.5-2.7,5.6-2.8,9.3v17.8h37.9v-22.6c0-2.2-.8-4.2-2.3-5.8-1.5-1.6-3.3-2.4-5.4-2.4h0v-1h25.8v1h0c-2.1,0-4,.8-5.5,2.4-1.5,1.6-2.3,3.5-2.3,5.8v46.4c0,2.3.9,4.2,2.4,5.8,1.5,1.5,3.3,2.3,5.4,2.3h0v1h-25.8v-1h0c2.1,0,4-.8,5.4-2.4,1.5-1.6,2.3-3.5,2.3-5.8v-22.7h-37.9v17.9c.1,3.7,1.4,6.8,3.8,9.3,2.4,2.5,4.3,3.7,7.7,3.7v1h-25.8v-1c3.4,0,5.4-1.2,7.8-3.7,2.4-2.5,3.6-5.6,3.7-9.3v-36.7c0-3.7-1.3-6.8-3.7-9.3-2.4-2.5-4.3-3.7-7.8-3.7v-1h25.8v1ZM425.9,127.8c0,2.9,3.6,5,7.9,5s7.1-1.4,8.9-4.2c5-8-4.2-16.4-16.8-19.6v18.8ZM414.6,106.1c-7.1-2.3-22.2-.5-29.8,5.3l-.8.5c2.8,1.9,6.1,3.8,9,4.3,3.2.8,7.9-.3,6.9-1.9-1.1-1.6,2.6-5.3,4.8-1.6,1.7,3-3.5,4.4-6.4,4.8-5.9,0-11.3-2.1-15.4-4.2l-.5.5c-3.2,2.6-3.6,8.2-2.1,11.4,2.1,4.6,7.9,6.5,15.2,5.6,8.1-1.1,13.8-4.4,19.1-8.5v-16.2ZM143.9,2.5c-12.7,0-25.3,2.4-38,7.2-12.7,4.8-23.3,11.8-31.9,20.9-8.6,9.1-13.6,20.2-15,33.4l-.2,3.2c0,11.2,4.6,20.4,13.7,27.5,7.8-12.1,19.7-22.4,35.5-30.7,15.8-8.5,31.4-12.7,46.9-12.7,6.2,0,11.9.8,17.1,2.3,8.5,2.5,12.7,6.9,12.7,13.1-.1,3.3-.9,4.9-2.3,4.9s-1.5-.3-2.1-.9c-.6-.8-1-1.5-1-2.1,0-1,.8-1.6,2.5-1.9,0-3.9-2.2-6.9-6.5-8.9-5.8-2.8-12.2-4.2-19.2-4.2-13.7,0-27.6,4.4-41.8,13.3-14.2,8.7-24.7,19.8-31.5,33.2,2.8.6,6.1,1.1,10.1,1.5,1.6.3,3.2.4,4.7.4,14.7,0,28.3-4.2,41-12.7-.1-.4-.2-.9-.2-1.5.1-.8.4-1.3.8-1.7.5-.4,1.1-.6,1.9-.6,1.5.3,2.3.9,2.3,2.1s-.9,2.4-2.7,3.4c-13.2,9-27.5,13.5-43.1,13.5s-4.1-.1-6.6-.4c-2.4-.3-5.5-.7-9.3-1.3-2.5,5.9-3.8,11.4-3.8,16.5s0,1.3,0,1.9c9.2-2.9,19.5-4.3,31-4.3s24.5,2.2,36.3,6.4c2.8,1,5.6,2.1,8.2,3.3,6.5-4.2,12.4-9.1,17.8-14.6,8.5-8.6,15.3-17.9,20.5-28.1,6.2-12.1,9.3-23.8,9.3-35.1s-2.3-18-6.8-24.5c-4.4-6.6-10.4-11.6-17.8-15.2-9.5-4.4-20.4-6.6-32.6-6.6ZM321.4,77.8c-2.4,0-4.8.4-6.9,1.2-2.2.8-4,2-5.7,3.6-1.6,1.7-2.8,3.6-3.6,5.8-.7,2.2-1.1,4.5-1.1,6.9,0,4.1,1,8.3,3,12.8l43.9-12.8c-1.4-2-3.1-4-4.9-5.9-3.8-3.8-7.9-6.7-12.2-8.6-4.3-2-8.5-3-12.5-3ZM397,75.3c-13.4,0-23.6,10.9-23.6,18.9,0,3.3,0,9.5,5.6,13.8,8-4.2,25-6.9,35.6-3.3v-7.8c0-11.2-3.2-21.5-17.6-21.5ZM309.6,47.2c1.9,0,3.4,1.5,3.4,3.4s-1.5,3.4-3.4,3.4c-1.9,0-3.4-1.5-3.4-3.4s1.5-3.4,3.4-3.4ZM320.5,47.9c1.2,2.2-1.5,3.3-1.8,3.5-.9.4-3.8.9-5.1.7v-.2c2.8-.6,6.2-2.9,6.9-4.1ZM298.6,47.8c.8,1.2,4.1,3.5,6.9,4.1v.2c-1.2.2-4.2-.3-5.1-.7-.3-.2-3-1.3-1.8-3.5ZM318.5,42.9c1.8.2,3.6,2.5,1.1,5.1-.8.8-3.1,2.5-5.9,3.3.1-.3.1-1.1,0-1.4,1.4-1.4,4.2-4.9,4.7-7.1ZM300.6,42.8c.5,2.2,3.4,5.7,4.7,7.1,0,.3,0,1.1,0,1.4-2.8-.8-5.1-2.6-5.9-3.3-2.5-2.7-.7-5,1.1-5.1ZM314.2,38.7c3-.9,5.1,2,3.5,5.1-.7,1.3-2.3,3.8-3.9,5.1-.3-.8-1-1.5-1.3-1.7.9-2,2.6-6.1,1.7-8.5ZM301.4,43.7c-1.6-3,.5-6,3.5-5.1-.9,2.4.7,6.5,1.7,8.5-.2.2-.9.8-1.3,1.7-1.6-1.3-3.2-3.8-3.9-5.1ZM309.7,35.8c1,0,2.9.4,3.7,3,.8,2.5-.8,6.4-1.7,8-.3-.3-1.1-.8-2.1-.8-1,0-1.7.4-2.1.8-.8-1.7-2.3-5.7-1.5-8.2.8-2.5,2.8-2.8,3.8-2.8Z"/>
    </g>
  </g>
</svg>