<svg xmlns="http://www.w3.org/2000/svg" width="594" height="1737" fill="none" viewBox="0 0 594 1737"><path fill="url(#a)" d="M125.5 1077.5c-12.8 54 5.333 615.5 16 659.5H6.5L0 0h108.5c0 28.833 4.4 262.4 22 292 22 37-51 72.5-40 99s62-22 135-57c0-25.5 54.11-58.73 58.5-75.5 4.582-17.504-24-100-34.5-106L243 69c7 20.167 51.9 184.6 49.5 197-3 15.5-34 26-18 68 20-16.5 43.5-15 66-42s83.5-40 79.5-45.5 1.5-18 6.5-23.5 2.5-3.5 4.5-15c0-6.4 7.5-33 8.5-34h5.196a.4.4 0 0 1 .304 0h-.304c-2.638.939-11.463 23.261-10.696 34 .8 11.2-1.667 16-3 17-5.167 4.833-12.4 18 0 32 18-10 51-11.5 56.5-10.5s27 11.5 35.5 12 15-5 17.5-9c2-3.2 21.5 0 50-25.5l3 2.5c-21.5 16.5-35.6 22.8-42 24-8 1.5-11.5 15.5-28.5 15.5-15.5-3-21-9-38-11-13.6-1.6-35.333 8.667-44.5 14H460c4.667 1.333 18.5 6.2 36.5 15 40.8 5.683 81.167-3.466 87.5-8v3c-46.5 12.5-64.8 20.3-124 1.5C386 257 341.5 320 318 334s-53 79-92.5 97.5-51.5 9.5-84 49c-33.6 52-32.333 298.667-27.5 415.5 9.167 38 24.3 127.5 11.5 181.5"/><defs><linearGradient id="a" x1="54.5" x2="283.25" y1="316.5" y2="1277" gradientUnits="userSpaceOnUse"><stop stop-color="#9dc5e3"/><stop offset="1" stop-color="#b5d5ed"/></linearGradient></defs></svg>