<svg xmlns="http://www.w3.org/2000/svg" width="1920" height="310" fill="none" viewBox="0 0 1920 310"><path fill="url(#a)" d="M2006.61 270.841c14.23 6.944 14.55 25.01 9.87 38.334-21.56-20.087-9.91-38.271-9.87-38.334M638.403-235.216c14.231-3.727 28.653-.125 41.343 4.862a168 168 0 0 1 27.905 14.071c1.376-2.039 3.263-4.197 5.815-6.433 1.133 3.191 1.683 6.897 1.259 10.479 2.533-2.987 6.612-6.041 13.174-8.347-.626 4.097-2.296 8.569-5.055 12.161 1.723-.972 3.786-1.827 6.243-2.412 1.181-1.462 2.631-2.975 4.4-4.525a24.5 24.5 0 0 1 1.006 3.761 38 38 0 0 1 4.447.022 34.3 34.3 0 0 1-4.058 4.826c-.079 2.884-.738 5.757-2.179 8.295 2.509-2.164 5.977-4.248 10.77-5.932a28.2 28.2 0 0 1-2.612 8.224c2.4-1.847 5.553-3.6 9.696-5.056-.498 3.257-1.655 6.75-3.495 9.851 2.478.17 5.157.677 8.01 1.66 2.435-2.592 6.062-5.191 11.453-7.352-.347 3.487-1.431 7.273-3.327 10.598 3.497-2.015 8.389-3.561 15.156-3.524-1.67 2.74-3.919 5.479-6.552 7.74a46 46 0 0 1 1.668-.706 28 28 0 0 1-.44 2.84c2.057.446 4.262 1.178 6.605 2.284a38 38 0 0 1-4.281 2.599c-.484 3.386-1.646 6.971-3.557 10.09 3.327-1.551 7.699-2.643 13.404-2.612a33.4 33.4 0 0 1-4.072 5.356c2.565-.674 5.566-1.081 9.07-1.062-1.662 2.726-3.896 5.452-6.511 7.706 5.743.007 17.083 2.104 22.577 17.5-5.967-.011-12.375-1.212-17.346-3.898a30 30 0 0 1-1.784.662c3.743.784 7.944 2.855 11.991 7.384-4.42 1.341-9.486 1.969-13.909 1.269 1.446 1.018 2.855 2.379 4.085 4.2 1.821.335 3.765.874 5.828 1.672a37 37 0 0 1-3.666 2.584 27 27 0 0 1 1.106 3.821 32 32 0 0 1-6.075-1.257 29 29 0 0 1-3.16 1.103c5.25 1.939 11.051 6.358 14.52 16.08-4.788-.009-9.86-.784-14.246-2.477q.548.55 1.092 1.16a38 38 0 0 1-3.334.845 44 44 0 0 1 5.216 1.74c-3.359 2.628-7.344 5.01-11.51 6.674 2.456 1.199 4.995 3.05 7.476 5.827-4.42 1.341-9.485 1.97-13.907 1.27 1.445 1.018 2.854 2.38 4.083 4.2 1.821.334 3.765.874 5.828 1.672a38 38 0 0 1-3.664 2.584l.079.21c2.392 2.474 4.585 5.818 6.289 10.324-4.821.063-9.946-.644-14.388-2.288a28 28 0 0 1 2.763 2.708c-2.909.884-6.097 1.455-9.198 1.545 2.522 1.195 5.138 3.073 7.691 5.931-3.787 1.15-8.048 1.776-11.973 1.491.003 1.796.095 3.577.266 5.338q.318 1.104.763 2.204c1.305-1.076 2.789-1.563 3.536-1.65l.085-.107-.011.102c1.493-.057 5.232 3.04 5.28 6.755-.01 1.48-.36 2.978-.885 4.376l.162.06q-.133.104-.267.207a19.2 19.2 0 0 1-2.699 4.7 12 12 0 0 1-.195 1.676 13 13 0 0 1-.547 1.944q.08.2.162.398a25.4 25.4 0 0 1 3.858 3.222l-.127-1.098c1.002-7.294 8.183-14.143 9.39-13.799 1.197.344 6.218 8.998 4.766 16.223a290 290 0 0 1 4.094-.205c-.319-3.824.687-7.407.694-7.43 0 0 8.525.623 11.978 6.9q.414-.44.822-.828c-2.362-2.808-3.636-5.95-3.318-6.496l.011.096c.487-.833 8.278-2.417 13.284.492 2.302 1.326 3.214 3.31 3.476 5.023q.022.001.024.002c.426-.854 1.011-1.77 1.798-2.568.076-2.75.556-4.777 1.016-5.035.843-.439 6.316 1.093 10.845 4.494.808.357 1.343.659 1.427.757q.008.008.01.014l-.107-.005.001.002a.4.4 0 0 1 .116.099l-.107-.085c-.005.002-.087.036-.232.106 1.449 1.241 2.741 2.691 3.667 4.345l.068.125.14.003c-1.863-4.675-2.216-9.243-1.542-9.86a.4.4 0 0 1 .094-.115c.351-.332 2.303-.268 4.78.123-1.243-.187-2.315-.269-3.089-.24 1.587.041 4.017.402 6.602 1.213 2.655-1.248 5.786-2.162 8.825-1.923 6.071.36 8.239 5.636 8.451 7.455.053.459-.168 1.117-.613 1.844q.14.023.276.053a16 16 0 0 1 1.922-1.47c-.903-.978-1.485-2.532-2.319-4.115.425.201 1.233.246 2.317.377q.002-.048.008-.1c-1.163-2.6-2.418-3.814-3.064-10.967-.692-6.806-.122-12.79-1.105-15.392 4.998 1.165 11.886 5.214 12.491 13.777q.02.278.027.55c3.57-2.723 6.781-3.54 8.837-5.462 2.368-2.215 1.863-3.223 2.652-3.121 1.377.13 1.77 6.874-.675 10.942-2.544 4.309-6.677 7.657-10.564 9.468.383.059.782.143 1.188.256a9 9 0 0 0-1.052-.202c1.747.283 3.808 1.083 5.437 2.795l.014.015c.966-7.538 7.765-14.653 9.204-14.68a.5.5 0 0 1 .168-.006c.502.137 1.639 1.556 2.865 3.74-.532-.926-1.047-1.695-1.492-2.256 1.926 2.68 4.752 8.583 4.52 14.14 1.11.274 1.828.61 1.959.922.058.14.064.383.019.71a19.5 19.5 0 0 1 3.417-.43q.539-.026 1.087.018c-.129-.689-.292-1.273-.508-1.734a18.4 18.4 0 0 1 6.238 2.44q.333-.144.662-.271c-.12-2.6.206-4.535.673-4.796a.7.7 0 0 1 .25-.07c-.726-2.55-.776-4.883-.167-5.08.565-.163.292.838 2.625 2.506 2.238 1.68 5.47 1.886 9.505 4.812 1.349 1.026 2.676 2.372 3.818 3.716q1.584-.112 3.161-.238c-1.319-1.7-2.247-3.843-1.49-4.795.61-.769 1.882-.123 4.223.997.742-1.774 1.817-3.436 3.024-4.916l-.117-.015c-.912 1.367-5.621 2.69-9.766 1.33-4.85-1.57-10.381-7.329-9.916-8.353.466-1.024 5.757-3.19 12.275-.651 5.91 2.32 7.218 6.047 7.616 6.97h.516a28 28 0 0 1 2.121-2.164c-.451-2.727.325-7.409 3.635-10.011 6.24-4.897 16.854-4.773 17.574-3.596.72 1.178-1.727 11.938-8.31 16.39-.362.236-.639.365-.915.494.712.431 1.417.918 2.083 1.455 1.41-.076 2.91 0 4.339.326q.41-.088.865-.168c1.826-3.655 4.697-6.955 5.888-7.414l-.326.038c.277-.129.458-.247.661-.174.731.235 2.213 2.603 2.604 6.217.088.738.132 1.53.114 2.367q.42.213.831.47 2.252-.404 4.498-.814a9.4 9.4 0 0 1 4.188-.85c-4.478-6.156-4.473-15.838-3.464-16.813a.5.5 0 0 1 .137-.149c.458-.247 2.229-.065 4.654.72-1.322-.392-2.435-.618-3.195-.673 3.302.436 11.065 3.183 14.709 8.549q.123.18.235.36c.398-.757.844-1.5 1.338-2.217-.464-1.259-.615-2.202-.419-2.449.225-.284 1.495-.633 3.237-.78a11.7 11.7 0 0 1 1.975-1.294.4.4 0 0 1 .08-.093l-.066.085c.68-.357 1.384-.653 2.068-.89a44 44 0 0 1-1.622-.374 30 30 0 0 1 3.083-2.79 30 30 0 0 1-2.069-3.54c2.113.029 4.32.24 6.486.653 2.765-1.469 5.792-2.475 8.865-2.688-3.221-.838-6.811-2.475-10.639-5.366a35.6 35.6 0 0 1 9.014-2.298c-2.873-.918-6.01-2.48-9.326-4.985 6.176-2.476 14.186-3.597 20.266-1.08-1.15-.849-2.29-1.89-3.35-3.166a39.4 39.4 0 0 1-6.147-1.064 30 30 0 0 1 3.447-3.069q-.3-.587-.57-1.217c-4.639 2.513-11.386 4.302-21.106 3.596 5.136-8.29 14.949-16.293 26.096-15.048a21 21 0 0 1-3.89-2.944c-1.94-.16-4.051-.504-6.35-1.083a30 30 0 0 1 3.09-2.795 30 30 0 0 1-2.075-3.55 37.6 37.6 0 0 1 6.505.656c2.76-1.463 5.78-2.464 8.85-2.676-3.22-.837-6.81-2.473-10.64-5.366a36 36 0 0 1 5.41-1.68 35 35 0 0 1-4.05-2.666c5.82-2.335 13.27-3.465 19.21-1.475-.03-.274-.05-.553-.07-.836.24.078.47.159.7.242-1.78-2.182-3.35-5.034-4.42-8.764 3.54.55 7.25 1.659 10.45 3.32 3.22-6.435 8.98-11.589 17.77-12.002 0 0 .74 3.459-.87 7.939 2.69.933 5.39 2.228 7.76 3.83-1.25-2.412-2.16-5.435-2.4-9.22 6.39 2.107 12.94 6.28 15.12 11.767-.16-2.136.15-4.601 1.25-7.368a34 34 0 0 1-2.21-3.12 38 38 0 0 1 3.77-.045q.75-1.288 1.74-2.646c.74.936 1.43 1.938 2.05 2.983 1.53.218 3.05.537 4.49.969-2.47-2.775-4.5-6.852-4.88-12.833 4.33 1.43 8.74 3.811 11.81 6.909-.51-1.656-.78-3.571-.61-5.758a29.5 29.5 0 0 1-3.56-4.678 38 38 0 0 1 4.51-.01 27 27 0 0 1 1.5-3.723 29.7 29.7 0 0 1 4.02 4.471c2.6.578 5.08 1.485 7.17 2.769.21-.089.43-.177.65-.265-1.24-2.404-2.14-5.41-2.37-9.167 2.86.945 5.76 2.31 8.28 4.019-1.26-2.416-2.17-5.444-2.41-9.239 5.05 1.669 10.21 4.632 13.23 8.517q1.065-.354 2.13-.711c.26-1.336.7-2.761 1.38-4.271a31 31 0 0 1-2.42-3.371 38 38 0 0 1 4.28-.021c.33-.51.68-1.029 1.07-1.555.44.56.86 1.145 1.27 1.747 1.85.213 3.69.569 5.43 1.09-2.47-2.775-4.5-6.853-4.88-12.834 4.33 1.43 8.74 3.813 11.81 6.911-.51-1.656-.77-3.571-.61-5.758a29.5 29.5 0 0 1-3.56-4.679c1.46-.091 2.98-.097 4.51-.01a27 27 0 0 1 1.5-3.723 29.7 29.7 0 0 1 4.02 4.471c2.97.658 5.76 1.74 8.02 3.323.05-.054.1-.108.16-.161-1.43-2.507-2.47-5.717-2.73-9.825 2.85.942 5.74 2.299 8.25 4-1.25-2.413-2.16-5.436-2.4-9.221 3.64 1.202 7.34 3.075 10.24 5.48 2.11-.869 4.3-1.544 6.55-2.06.7-1.526 1.64-3.138 2.88-4.832a28 28 0 0 1 2.57 3.888c17.55-2.156 38.22 2.909 56.41-.031 10.18-1.65 19.64-5.878 29.91-7.005 20.15-2.218 39.37 7.639 59.46 10.563 12.46 1.811 25.71 1.026 37.1 5.771 17.23 7.194 26.44 25.587 44.75 30.32 6.02 1.554 12.53 1.45 18.35 3.471 4.53 1.557 8.39 4.309 12.75 6.207 1.37.598 2.77 1.099 4.18 1.518 10.25-12.152 21.4-12.617 27.18-11.799-2.28-3.241-3.97-7.003-5.01-10.667 4.05.559 7.39 1.565 10.13 2.833a37.3 37.3 0 0 1-2.98-7.366c6.59.91 11.29 2.998 14.62 5.485-1.19-4.222-1.37-8.903-.83-13.218a38 38 0 0 1-4.08-3.947c3.06-.988 5.84-1.535 8.36-1.748.08-1.221.22-2.426.41-3.595.59.384 1.16.771 1.7 1.16-2.3-3.26-4.01-7.056-5.06-10.751 7.82 1.079 12.97 3.82 16.35 6.916-1.11-4.461-1.13-9.36-.4-13.763 5.51 3.579 8.85 7.413 10.83 11.043 3.61-.753 6.87-.938 9.79-.736-1.11-4.168-1.32-8.712-.84-12.853 4.31 2.511 7.38 5.231 9.56 7.939-.68-3.552-.75-7.273-.36-10.715 4.99 2.905 8.32 6.09 10.52 9.214-.84-3.406-.68-7.105.17-10.719a37 37 0 0 1-3.14-6.719c1.86.144 3.57.392 5.16.721.69-1.585 1.5-3.105 2.37-4.521 1.54 2.229 2.72 4.36 3.62 6.38 2.64 1.142 4.75 2.554 6.42 4.056-2.02-4.937-2.49-10.789-1.89-16.004 6.8 3.963 10.52 8.442 12.48 12.584.68-4.539 2.51-9.072 4.85-12.861 2.21 3.199 3.69 6.191 4.62 8.953a218 218 0 0 1 36.72-12.89c16.24-4.111 34.05-6.21 49.28.817 27.06 12.478 38.83 50.111 68.13 55.562 5.43 1.022 11.08.766 16.4 2.236 6.85 1.9 12.65 6.491 19.3 8.986 20.28 7.606 43.1-5.448 64.33-1.177 14.04 2.819 25.37 12.788 38.04 19.445 20.44 10.755 45.57 13.585 62 29.79 8.36 8.272 13.56 19.246 21.44 27.979 14.1 15.624 36.74 24.519 50.86 38.866a37.5 37.5 0 0 1 5.44-2.354c-.22 2.66-.66 5.025-1.24 7.127a43 43 0 0 1 4.25 6.636c4.53-.541 9.35.024 13.6 1.262-3.21 3.833-6.41 6.401-9.45 8.083 3.61-.064 7.29.493 10.61 1.462-3.48 4.156-6.95 6.826-10.21 8.49 0 .092.01.184.01.276 3.3-.116 6.67.666 9.88 2.017a37 37 0 0 1 7.16-1.953 40 40 0 0 1-1.59 4.964c1.45.958 2.81 2.008 4.06 3.11-2.46 1.139-4.76 1.941-6.9 2.476-1.59 2.424-3.34 4.264-5.11 5.66 5.21-1.157 11.07-.638 16.11.833-5.07 6.055-10.13 8.96-14.55 10.184 1.99.65 3.93 1.538 5.78 2.59q1.26-.537 2.52-.968-.105 1.227-.27 2.372c1.37.92 2.66 1.92 3.85 2.967a41 41 0 0 1-4.85 1.895c-.58 2.066-1.31 3.875-2.14 5.462.45.74.91 1.48 1.36 2.218 5.79-2.026 12.78-1.605 18.66.11-3.2 3.82-6.39 6.384-9.42 8.066 3.61-.062 7.28.493 10.59 1.46-3.18 3.805-6.36 6.365-9.38 8.047.12.239.25.478.37.717 2.92.083 5.88.833 8.71 2.027a37 37 0 0 1 7.13-1.941 40 40 0 0 1-1.57 4.945 38 38 0 0 1 4.05 3.109c-2.46 1.138-4.76 1.94-6.9 2.474-1.57 2.419-3.32 4.256-5.09 5.653 5.21-1.146 11.06-.625 16.09.842-5.07 6.056-10.13 8.96-14.55 10.185 1.66.542 3.29 1.25 4.86 2.08 1.38-.67 2.79-1.25 4.19-1.727a38 38 0 0 1-.52 3.978c1.19.825 2.31 1.708 3.35 2.629a41 41 0 0 1-4.44 1.764c-1.18 3.667-2.85 6.47-4.67 8.613 6.3-4.24 15.47-4.126 22.87-1.967-3.2 3.824-6.39 6.389-9.43 8.071 3.41-.06 6.87.433 10.04 1.3 2.08-5.826 5.47-8.964 5.47-8.964 7.61 6.489 8.74 15.878 6.57 24.875 4.19.457 8.4 1.841 12.03 3.692-3.92 3.196-7.58 5.124-10.91 6.199q.405.109.81.225-.36.43-.72.837c6.94 1.976 12.78 8.306 16.19 14.787-2.07.15-3.98.148-5.75.023a37 37 0 0 1 3.56 5.499c-5.75.416-10.29-.333-13.86-1.67 2.61 2.339 4.56 5.483 5.9 8.936a37 37 0 0 1 6.35 3.773 42 42 0 0 1-4.64 2.308c.31 1.708.51 3.421.58 5.087-2.53-.974-4.71-2.069-6.59-3.238-2.11.411-4.06.525-5.84.434 11.04 6.358 13.58 21.547 11.66 33.835-9.34-5.957-14.01-12.496-16.21-18.343q-.75.47-1.47.884c.38 1.889.61 3.792.69 5.637-2.45-.942-4.57-1.998-6.4-3.124a23.2 23.2 0 0 1-5.46 1.025c7.46 1.554 13.78 8.233 17.38 15.08-4.98.36-9.05-.155-12.37-1.168 2.56 2.553 4.72 5.583 6.33 8.647-5.75.416-10.28-.332-13.85-1.669 2.61 2.338 4.55 5.481 5.89 8.933a37.4 37.4 0 0 1 6.38 3.782c-1.62.93-3.17 1.693-4.67 2.315.32 1.703.51 3.412.59 5.074-2.53-.972-4.71-2.064-6.58-3.229-1.38.268-2.69.408-3.93.449a46 46 0 0 1-.49 2.305c3.03 2.744 5.57 6.184 7.4 9.667-4.11.297-7.59 0-10.55-.681-.3.645-.62 1.28-.94 1.9a55 55 0 0 1-2.11-2.795 23 23 0 0 1-3.83-1.79c2.02 4.135 3.07 8.924 3.27 13.382a40 40 0 0 1-5.31-2.477c1.23 3.288 1.94 6.822 2.17 10.177-7.68-2.766-12.2-6.68-14.84-10.534 2.54 7.204.05 16.08-3.96 22.706-2.87-4.081-4.53-7.834-5.37-11.2-.87 3.506-2.35 6.913-4.15 9.871-3.31-4.714-5-8.989-5.69-12.737-.67 3.434-2.36 6.712-4.63 9.633.27 2.503.27 5.027.04 7.419a41 41 0 0 1-4.39-2.811 38 38 0 0 1-4.05 3.116c-.47-2.67-.65-5.1-.62-7.308-1.92-2.144-3.24-4.307-4.14-6.371a26.5 26.5 0 0 1-.53 4.217c2.86 3.605 4.91 8.06 6.07 12.371-2.6-.394-4.9-.972-6.93-1.678-1.07 5.434-4.2 10.423-8.31 14.613-.25.903-.54 1.787-.85 2.644-.32-.309-.63-.619-.94-.926-2.97 2.703-6.33 5.012-9.72 6.811a54 54 0 0 1-.12-6.53c-1.68-1.731-3.05-3.434-4.15-5.095 1.96 7.467 1.04 16.129-1.39 23.419-4.08-3.68-7.01-7.313-9.07-10.788-.55.627-1.11 1.232-1.69 1.806-.98-2.536-1.63-4.89-2.02-7.069-2.31-1.734-4.02-3.604-5.29-5.459.81 5.284-.1 11.102-1.9 16.04-5.71-5.465-8.27-10.709-9.2-15.206-1.71 4.272-4.57 8.265-7.74 11.411-2.22-5.775-2.76-10.605-2.37-14.571-.24.018-.48.036-.73.052.03 5.069-.91 10.24-2.45 14.86a49 49 0 0 1-1.24-1.157 36.7 36.7 0 0 1-5.21 7.31c-3.13-7.053-3.56-12.768-2.78-17.231l-.12-.213c-3.61 6.495-11.51 10.643-18.88 12.26.97-4.891 2.54-8.679 4.39-11.611-3.13 1.788-6.63 3.064-10.01 3.805 1.13-5.662 3.06-9.844 5.3-12.934-2.95 1.897-6.5 2.936-10.18 3.311a36.7 36.7 0 0 1-5.35 5.147 42 42 0 0 1-.99-5.113 37.5 37.5 0 0 1-5.05-.783c1.61-2.176 3.24-3.982 4.86-5.478.22-2.885.88-5.341 1.76-7.416-3.14 2.746-7.11 4.778-11.15 6.074-3.95 3.597-8.72 6.474-13.47 8.441.2-9.62 2.6-16.465 5.75-21.323q-.315-1.18-.54-2.312c-.34-.067-.68-.138-1.01-.214q.39-.526.78-1.025a33.4 33.4 0 0 1-.47-6.875c-3.45 2.198-7.44 3.733-11.29 4.578.97-4.879 2.53-8.659 4.38-11.588-3.13 1.786-6.62 3.06-10 3.801 1.13-5.679 3.06-9.869 5.31-12.962-2.95 1.903-6.5 2.944-10.19 3.32a37 37 0 0 1-5.34 5.146 42 42 0 0 1-1-5.113q-.66-.058-1.32-.14c-1.61 5.991-4.86 11.79-8.66 16.472-11.58-22.502-.58-35.388 2.8-38.607-3.91.436-7.99.119-11.68-.717 3.5-4.734 7.1-7.721 10.5-9.554a37 37 0 0 1-7.85-.911c1.56-2.107 3.13-3.867 4.7-5.335a36 36 0 0 1-.52-5.402 39 39 0 0 1-5.9 4.042c-.62.473-1.24.925-1.88 1.349-.02-.108-.03-.216-.05-.323a48.7 48.7 0 0 1-9.34 3.516c.53-3.376 1.29-6.367 2.21-9.018q-.435.311-.87.606c-.81-4.505-.81-8.328-.29-11.56-2.28 1.862-4.97 3.341-7.81 4.445a37 37 0 0 1-3.07 6.69 40 40 0 0 1-3.07-4.908q-.81.164-1.62.29c.21-.786.43-1.54.67-2.266-1.8-4.054-2.38-7.675-2.3-10.781-2.46 4.728-6.6 8.876-10.96 11.792-.31-1.762-.51-3.42-.59-4.979-2.07.896-4.19 1.64-6.27 2.222.69-4.896 1.87-8.993 3.36-12.424-2.49.987-5.1 1.68-7.64 2.09-2.37 3.174-5.43 5.947-8.6 8.068-.17-.937-.3-1.846-.4-2.725-6.06 8.255-17.87 12.012-28.26 12.338 5.42-13.497 13.32-19.277 19.94-21.668-.01-2.705.32-5.086.87-7.177-2.05 2.853-4.98 5.125-8.28 6.828a37 37 0 0 1-3.1 6.76 42 42 0 0 1-2.79-4.407c-1.67.497-3.35.871-5 1.123.7-2.63 1.56-4.919 2.53-6.913-.83-2.755-1.12-5.271-1.05-7.517-2.46 4.745-6.61 8.908-10.98 11.833-1.07-5.966-.72-10.735.36-14.52-2.06 2.908-5.04 5.217-8.39 6.939 1.47 5.888.46 12.732-1.72 18.396-4.18-4.148-6.63-8.142-7.95-11.776a49 49 0 0 1-4.32 4.894c-2.5 3.976-6.13 7.449-9.92 9.988-.88-4.9-.8-8.994-.15-12.397a34.2 34.2 0 0 1-4.82 4.863c1.09 9.585-3.94 19.989-10.37 27.394-5.29-11.151-5.29-19.843-3.5-26.183q-.195.343-.39.678a41 41 0 0 1-2.78-4.395c-1.67.495-3.35.868-4.99 1.12.7-2.621 1.56-4.903 2.52-6.892-.05-.17-.1-.339-.14-.508-6.02 6.03-15.3 9.388-23.82 10.337 3.01-9.672 7.52-15.712 12.14-19.473.36-1.383.81-2.639 1.33-3.779q-1.38.857-2.85 1.568c-2.32 2.955-5.21 5.542-8.21 7.546a40 40 0 0 1-.48-3.536q-.45.224-.9.435c-.01-.487-.02-.967-.02-1.44q-.255.045-.51.087.255-.964.54-1.868.09-2.728.42-5.149a31 31 0 0 1-2.27 2.362c3.89 10.655-1.49 23.402-8.81 32.122-11.37-22.973.25-35.713 3.51-38.675.11-.875.24-1.71.41-2.505q-.39.154-.78.285c-1.95 2.24-4.47 4.071-7.24 5.5a37.3 37.3 0 0 1-3.09 6.738 39 39 0 0 1-2.79-4.395c-1.66.494-3.34.868-4.99 1.12.7-2.621 1.56-4.904 2.53-6.892-.68-2.207-1-4.261-1.07-6.145q-.285-.176-.57-.356c-2.5 4.31-6.36 8.079-10.41 10.786-.93-5.22-.78-9.525-.01-13.054a40 40 0 0 1-1.49-2.991c-.06.026-.11.051-.17.076.8 9.296-3.94 19.323-10.02 26.569-8.31-16.781-4.35-28.101-.34-34.14-2.82 1.873-5.96 3.322-9.05 4.297.35-3.246 1-6.044 1.84-8.455-2.83 1.89-5.99 3.352-9.1 4.333.62-5.743 2.16-10.081 4.12-13.359-2.76 2.155-6.2 3.512-9.83 4.219a36.6 36.6 0 0 1-4.88 5.618 43 43 0 0 1-1.45-5.011q-.525.002-1.05-.01c-1.91 5.274-5.03 10.276-8.58 14.364-2.48-5.227-3.79-9.914-4.31-14.072-4.81 1.725-10.05 2.565-14.95 2.641 5.04-12.013 11.97-17.806 18.14-20.531.95-1.719 1.98-3.13 2.92-4.239-3.85.969-8 1.158-11.86.76-5.72 5.279-14.01 8.354-21.81 9.426-.02.072-.03.146-.05.219-.09-.057-.19-.118-.28-.176-.3.038-.59.076-.89.109l.18-.569a32 32 0 0 1-2.66-1.986q-.525 1.184-1.11 2.338c4.53 2.818 13.55 10.745 8.73 27.325-7-4.717-13.28-11.985-13.75-19.472-.33.421-.67.835-1.01 1.239a54 54 0 0 1-2.58-6.106c-1.52-.43-3-.959-4.42-1.588 1.76 2.167 3.32 4.991 4.39 8.676-6-.911-12.47-3.411-16.18-7.503q-.36.406-.72.796c.28 2.09.17 4.5-.57 7.251.16 1.619.16 3.402-.06 5.368-3.43-1.68-6.79-4.04-9.25-6.829.27 3.479-.67 7.825-4.22 12.956a28.5 28.5 0 0 1-2.6-3.726c-2.6 2.225-6.03 4.39-10.56 6.329-.11-1.647-.09-3.35.08-5.061-.92.639-1.92 1.273-3.03 1.895-.36-1.799-.53-3.71-.46-5.62-2.19-2.098-3.9-4.494-4.71-7.063-.35 2.879-1.55 6.209-4.15 9.956-1.77-2.151-3.31-4.657-4.31-7.271-.52 2.593-1.72 5.519-3.96 8.758-1.71-2.07-3.2-4.471-4.2-6.978-2.75 3.197-6.98 6.406-13.42 9.162-.22-3.503.13-7.261 1.18-10.8-.3.122-.61.243-.92.362-.02-1.535.12-3.128.41-4.71a26 26 0 0 1-.94-.358c-.4 1.787-1 3.688-1.84 5.707-5.26-4.298-9.86-10.255-11.17-16.373-2.94-1.543-5.77-3.575-7.98-5.935.08 1.101.06 2.428-.18 3.907 2.92 4.487 4.75 11.176 1.97 20.751-3.43-2.309-6.68-5.231-9.17-8.489-2.56 2.272-5.96 4.496-10.47 6.508-.34-4.091.1-8.539 1.53-12.592-.25-.16-.51-.324-.76-.491a36 36 0 0 1-3.66 2.343c-.36-1.795-.53-3.7-.46-5.603-2.19-2.09-3.89-4.477-4.71-7.036-.36 2.869-1.56 6.184-4.14 9.914-1.68-2.022-3.13-4.359-4.13-6.803-.68 1.842-1.7 3.823-3.16 5.937-1.67-2.026-3.13-4.367-4.13-6.816-.35 5.491-3.51 14.183-18.27 20.502-.46-7.169 1.49-15.406 6.96-20.651-.03-.044-.06-.087-.08-.131-.82.383-1.69.754-2.62 1.111-1.32 2.493-3.48 5.168-6.91 7.897-1.43-3.514-2.16-7.59-1.63-11.357-.2-.014-.39-.031-.58-.049-1.05 1.118-2.37 2.223-4.02 3.254-.37 1.644-.97 3.417-1.86 5.321a30 30 0 0 1-2.93-2.97c-1.3.503-2.73.968-4.31 1.378.23-1.824.7-3.706 1.39-5.528-1.2-2.129-2-4.378-2.19-6.616-.14-.178-.28-.362-.41-.549q-.45.83-1.02 1.681c.73 3.253 2.24 16.341-17.95 24.988-.55-8.621 2.38-18.785 10.72-23.434-.16-.82-.28-1.65-.35-2.48a36 36 0 0 1-2.37 3.243c-.2.473-.4.955-.63 1.446-.12-.1-.23-.202-.34-.304q-.375.434-.78.871c-.14-.222-.27-.446-.41-.673q-.99.947-2.19 1.904c-1.05-2.591-1.73-5.488-1.8-8.34-.44-.736-.84-1.486-1.18-2.248a15 15 0 0 1-1.06 2.888c1.28 4.398 1.27 10.119-1.71 17.343-5.51-4.497-10.29-10.811-11.34-17.226-.13.081-.25.164-.38.245-.37 1.648-.97 3.426-1.86 5.336a31 31 0 0 1-2.94-2.982c-1.3.502-2.73.967-4.3 1.375.02-.163.04-.326.07-.49-2.11 4.628-6.7 9.833-16.26 14.096-.62-7.418 1.33-16.01 7.15-21.295-.46-1.686-.76-3.44-.83-5.184-1.34 2.36-3.45 4.876-6.66 7.437-1.34-3.297-2.07-7.088-1.72-10.656a32 32 0 0 1-.45-4.893c-2.86 1.587-6.7 2.876-11.85 3.45 1.45-4.426 4.36-9.025 8.51-11.903-1.45-2.581-2.33-5.34-2.24-8.042-1.24 2.783-3.52 5.828-7.43 8.942-1.53-3.777-2.26-8.203-1.49-12.197-1.14 1.384-2.67 2.772-4.72 4.048-.37 1.643-.97 3.415-1.86 5.318a31 31 0 0 1-2.92-2.97 40 40 0 0 1-4.32 1.38c.23-1.824.7-3.707 1.39-5.529-1.43-2.542-2.29-5.255-2.23-7.915-.72 1.515-1.74 3.103-3.18 4.734 3.41 4.492 5.94 11.621 2.64 22.272-7.16-4.98-13.52-12.688-13.43-20.464-.53.485-1.11.975-1.72 1.465-1.12-2.748-1.81-5.84-1.81-8.859-1.57-1.416-3.05-3.038-4.29-4.784-.76 2.764-2.09 5.79-4.19 9.073a37.5 37.5 0 0 1-3.25-4.23c-.88.9-1.89 1.814-3.05 2.732-1.53-3.772-2.26-8.19-1.49-12.178-1.59 1.916-3.91 3.836-7.33 5.459q-.315.823-.72 1.681c-.34-.298-.67-.608-1-.925-1.42.573-3 1.098-4.77 1.556.23-1.806.69-3.67 1.37-5.476-1.41-1.965-2.52-4.087-3.14-6.248-1.35 2.186-3.36 4.494-6.31 6.841-.11-.26-.21-.524-.31-.79-.74 2.026-1.79 4.181-3.2 6.461a37.4 37.4 0 0 1-4.73-6.416l-.21.176c-.23-.558-.43-1.131-.62-1.714-.85-1.668-1.54-3.39-2.01-5.125-.91 1.001-1.97 2.012-3.23 3.026.33 1.613.52 3.407.5 5.402a34.4 34.4 0 0 1-5.99-3.047c1.42 2.67 2.37 6.121 2.34 10.575-3.04-1.192-6.08-2.877-8.61-4.936.68 3.508 1.61 16.324-18.43 24.574-.21-4.576.56-9.57 2.59-13.93-.33-.169-.67-.343-1-.523-.99.879-2.12 1.763-3.41 2.641a24.6 24.6 0 0 1-1.05-5.587c-2.4-1.92-4.34-4.176-5.42-6.672-.05 2.894-.9 6.304-3.09 10.237-1.99-2.003-3.78-4.375-5.05-6.894-.24 2.62-1.13 5.624-3.02 9.017-2.28-2.29-4.29-5.065-5.56-7.99-1.07 1.323-2.38 2.65-3.98 3.954 0 .324.01.653.01.988q-.42-.165-.84-.34-.75.575-1.59 1.141c-.35 4.382-2.27 9.619-7.21 15.51-2.31-3.378-4.17-7.322-5.05-11.319-2.15-2.632-3.87-5.674-4.64-8.76-.47 1.655-1.31 3.435-2.67 5.273.35 1.651.55 3.493.53 5.55a35 35 0 0 1-3.97-1.853c-.99.874-2.12 1.753-3.4 2.626-.55-1.763-.92-3.65-1.05-5.555-2.4-1.924-4.36-4.185-5.44-6.688-.05 2.894-.9 6.303-3.09 10.236-1.99-2.003-3.78-4.376-5.05-6.895-.24 2.62-1.13 5.624-3.02 9.018a28.6 28.6 0 0 1-3.81-4.738c-1.42-.53-2.85-1.308-3.9-2.33-1.32-1.275-2.44-2.748-3.35-4.297q-.51.429-1.05.855c.12 1.35.04 2.842-.37 4.287-1.32 4.519-6.55 9.782-7.46 9.5-1.01-.369-3.12-5.166-.92-11.338.78-2.203 1.8-3.748 2.79-4.83.03-.275.08-.549.12-.822q-.72.07-1.47.125c.79-2.03 1.82-4.078 3.07-6.037-.46-.09-.93-.172-1.44-.225-.93.756-1.98 1.506-3.17 2.243-4.74 4.876-9.64 8.34-10.93 10.71 0 .079-.01.12-.01.12a18.5 18.5 0 0 1-1.92-6.277c-.36-3.093.1-6.518 2.16-9.684-1.63.395-3.45.705-5.47.9.28-.793.61-1.59.98-2.383q-.765.15-1.53.297c-.21.09-.41.178-.62.262q.165.423.18.814c.09.304.14.481.14.483-.01.003-.06.027-.16.068-.14.342-.6 1.18-1.96 1.677.24.494.37.787.37.787-.01.006-1.28.812-3.22 1.527.05 3.19.09 5.693.13 7.076v.088c2.03.408 8.52 3.254 12.11 7.913 3.43 4.355 2.18 7.893 1.42 8.856-.78.866-5.63.072-8.68-3.55-2.23-2.601-3.76-5.885-4.64-8.534.2 2.907.48 5.377.71 7.342.09.784.17 1.49.25 2.115 1.22.249 3.29 1.574 3.3 5.815-.01 4.106-2.11 6.389-3 6.555l-.02.003-.11.013v-.013c-.9-.134-3.74-3.004-3.82-6.913-.09-2.122.38-3.5 1.06-4.348.4-.508.86-.82 1.33-.992-.06-.596-.14-1.266-.23-1.993-.34-2.967-.82-7.083-.93-12.211-.02-.922-.05-2.343-.08-4.133-.78 1.542-1.88 2.753-2.74 3.548.44 1.475.73 5.066-1.59 8.664-2.96 4.612-7.88 4.118-10.08 2.82-1.87-1.042-3.11-2.547-1.79-4.544.58-.844 3.7-2.468 6.57-3.77 2.92-1.417 5.2-3.063 6.12-3.648 1.17-1.06 3-3.078 3.47-5.668v-.079c-2.81.827-6.55 1.21-9.99-.744-1.19-.654-2.23-1.682-3.13-2.883-.46.028-.91.055-1.37.08 1.79 1.942 2.85 3.754 2.86 3.77 0 0-6.98 6.05-14.099 3.385-1.191-.444-2.325-1.236-3.374-2.212-2.01.784-4.303 1.296-6.488 1.032l-.012-.096-.215-.027a7 7 0 0 1-2.725-.965c-.815 1.635-2.204 3.4-4.126 4.628-4.244 2.821-12.23 3.556-12.736 2.548s1.101-6.434 7.101-10.041l.104-.061q.294-.29.608-.507c.383-.25.788-.468 1.2-.657a.2.2 0 0 1-.018-.062l.083-.048c.14-.074.37-.17.636-.272a7.8 7.8 0 0 1-2.026-.797l-.352-.023c-2.43 3.948-6.612 6.761-7.354 6.456-.534-.221-1.793-2.743-2.363-5.871-2.405 1.071-4.445 1.52-4.462 1.524 0 0-.481-1.157-.838-2.916-.574 1.028-.981 1.918-1.137 2.66a18.4 18.4 0 0 1-2.506-3.376c-.21.113-.379.161-.496.137-.099-.02-.228-.1-.382-.227-1.121.386-2.331.69-3.556.83-1.1.133-2.215.135-3.292-.053-1.277-.22-2.301-.71-3.117-1.332-.814.375-1.719.711-2.689.978a7.8 7.8 0 0 1-1.108 1.871 7 7 0 0 1-1.139 1.165c-3.114 2.496-10.092 1.854-10.223 1.578l-.011-.096-.011-.096q.01.021.066.042c.262-.258 1.396-1.44 2.362-3.428.2-.39.406-.789.619-1.184a14 14 0 0 1-1.84-.781c-.437.872-.798 1.423-.884 1.433-.288.033-.679-1.667-2.266-3.616l-.026-.03-.039-.035-1.488-.132c-1.031 3.561-2.543 6.065-3.032 8.471 1.423 1.413 2.162 1.25 2.172 1.789l.006.027q.07-.02.073-.022a.44.44 0 0 1-.071.166l-.003.038q.017.143-.255.32l-.007-.069c-.368.273-1.104.46-2.052.53.14 1.055.474 1.313.063 1.614-.462.301-1.57-.412-2.748-1.691-1.994-.237-4.222-.87-5.953-2.05l-.362-.247a22 22 0 0 1-2.005-1.585c-.797-.243-1.573-.58-2.243-1.026-2.726-1.814-4.841-4.553-6.068-7.19l-.492.02a5 5 0 0 1-.764.375 47 47 0 0 1-.674 3.069l.076-.009c.705.21 3.907 5.172 2.815 9.179-.796 3.196-4.217 3.885-5.391 3.828-1.022-.05-3.16-2.102-3.403-4.523a4 4 0 0 1-.533-.063l-.107-.085q.135.018.269.024a4 4 0 0 1-.297-.06q.014.019.028.036c-.897-.187-1.935-.745-2.887-1.41-1.272-.963-2.642-2.777-3.274-5.064a12.8 12.8 0 0 1-3.052-1.596c-1.242.576-2.801 1.145-4.518 1.427-1.225 1.148-2.596 2.18-3.923 3.05-1.209 3.617-4.065 7-4.852 6.599-.524-.327.295-.81-.027-3.586a7 7 0 0 0-.059-.389c-.649.242-1.089.333-1.222.247-.059-.046-.111-.168-.15-.351-.111-.396-.13-1.195-.011-2.239-2.072-.066-4.368-.36-6.567-1.019l-2.276.586c.84 1.611 1.645 2.987 2.391 5.538 1.031 3.857-.519 5.59-.519 5.59-.015-.02-.947-1.255-4.009-1.861a6 6 0 0 0-.692-.101c2.8 1.325 5.041 2.375 6.517 2.526-3.332 3.977-10.033 8.248-17.899 4.993a12 12 0 0 1-.546-.24c.861 4.446.123 7.686.943 10.378.846 3.103 2.009 3.064 1.596 3.695-.742 1.152-6.973-1.42-9.488-5.493-4.059-6.318-4.618-14.824-2.651-19.153q-2.056.449-4.189.895l-.139.218c-.191 3.331-2.019 7.34-2.723 7.335-.211.025-.566-.194-.97-.623-1.38 2.579-2.704 4.807-3.542 5.318a5 5 0 0 1-.494.271c-.669 2.288-1.14 4.153-1.081 5.441l-.09-.055.005.163c-.107-.085-.31-.158-.417-.242v-.11a18 18 0 0 1-1.588-1.16c-.643.099-1.566.135-2.655.07-3.697-.197-9.455-1.446-13.088-4.836-2.185-2.073-2.876-4.467-2.897-6.538q-.155.55-.36 1.097c-.084.107-.276.13-.468.153-.107-.085-.129-.277-.152-.468q.136-.364.248-.73-1.221.173-2.464.341c-.513 1.63-1.422 3.667-3.717 7.093-3.717 5.536-7.865 9.741-8.873 12.379l-.004.011.026.182-.062-.084-.034.095c-2.523-3.337-4.787-8.885-2.89-14.594-3.494 1.302-10.915 2.577-16.41-.039a10 10 0 0 1-2.188-1.385c-.567 3.178-2.286 6.299-2.483 6.39-.247.029-.57-1.216-1.717-2.792.093 3.183-.378 5.879-1.01 6.117l-.093-.074q.018.082-.002.085-.08.02-.163-.06l-.054.004c-.647.113-2.191-.485-3.885-1.892-3.652 2.484-8.441 3.212-8.491 3.22-.004-.01-.274-.759-.525-1.957-2.73 2.44-5.552 4.16-6.709 4.257-.208.03-.371.018-.48-.046l.03-.055c-.413-.31-.851-1.282-1.088-2.721-.88 1.444-1.732 2.361-2.101 2.368-.748.012-4.253-3.34-5.898-7.444l-.025-.015c-2.205-1.282-4.575-2.696-5.8-4.393q-.372.201-.789.407c-1.837.857-3.249 1.007-4.191.949-.848.699-1.774 1.327-2.656 1.843.503 1.45.684 2.707.059 3.49q.06-.035.116-.074c-.008.014-.239.413-.849.747.452 1.104.829 2.274 1.039 3.401.787 4.274-.353 7.025.117 9.396.373 2.38 1.259 2.472.92 2.899-.594.748-5.054-1.643-6.69-4.848-1.817-3.632-2.178-7.977-1.558-11.272a40 40 0 0 1-1.555 2.647c1.051.68 1.081 4.963-1.135 8.053-2.428 3.386-8.133 6.183-8.787 5.58-.653-.605-1.078-5.113 2.485-9.6 3.129-4.05 6.424-4.142 7.204-4.136l-.096.012q.06-.003.119.006c.42-.65.647-1.778 1.294-2.99-.917-.502-1.633-1.048-2.617-1.533-1.743-.858-5.643-1.273-6.246-3.593-.136-.404-.088-.876.216-1.428a1 1 0 0 1 .186-.234 17 17 0 0 1-1.474-1.677 8 8 0 0 0-.978.817l-.011-.097c-1.487 1.434-2.59 5.345-5.805 4.458-1.19-.329-1.835-1.133-2.245-2.052-.081.387-.197.636-.342.704-.515.24-2.388-.293-4.366-1.952-.592 1.083-1.2 2.222-1.809 3.383 1.42 1.42 2.625 2.201 4.9 6.866 2.304 4.776 3.509 9.291 4.86 10.88l-.096.01.001.002c-3.935.458-9.999-.68-12.736-6.667a9.1 9.1 0 0 1-.801-3.477 422 422 0 0 0-3.327 6.859c.479 2.77 3.2 7.06 2.748 9.874-.509 3.163-3.077 6.178-3.077 6.178q0-.002-.05-.033.06.125.062.128s-4.694-2.71-5.182-7.231a7 7 0 0 1-.051-.988c.078-2.594 2.332-5.563 3.9-7.325.504-1.045 2.261-4.757 4.435-9.132-1.361.944-2.98 1.859-4.11 2.453-1.477 2.636-4.961 7.86-9.712 8.63-6.379 1.031-10.94-3.939-10.963-3.963 14.435-2.165 21.447-6.279 21.447-6.279l.003.024c1.527-.84 3.337-1.938 4.353-2.899 1.379-2.737 2.863-5.605 4.27-8.159a13 13 0 0 1-.618-.675 2 2 0 0 1-.08.408c-.273.812-.66 1.398-1.134 1.807-.659.606-1.492.842-2.417.82a5 5 0 0 1-.578-.022c.04.696-.027 1.166-.185 1.292a.5.5 0 0 1-.13.07l.046.037c-.536.507-5.244.254-9.215-1.761-1.194.309-2.057.423-2.132.365-.115-.092.155-.543.505-1.33a11 11 0 0 1-1.701-1.44l-.012-.096c-.98-1.023-1.52-2.116-1.775-3.175a7.2 7.2 0 0 1-.153-2.613l-.007-.001.014-.073c-.865.946-2.036 1.926-3.503 2.498a1 1 0 0 1-.105.126c-.173.164-.609.258-1.213.253q-.564.107-1.176.122c-2.24.042-4.869-1.407-6.727-2.736-2.792 6.904-10.105 12.33-11.27 11.911-.858-.31-3.149-5.465-3.474-11.14a27 27 0 0 1-1.722-1.51q-1.661.125-3.414.273l.095.176c2.389 4.669 2.129 8.288 3.422 11.048 1.377 2.652 2.325 2.445 2.104 3.053-.454 1.119-6.53-.114-9.531-3.354-2.739-2.88-4.557-6.618-5.408-10.086l-1.02.094c-.064.45-.228.875-.474 1.276.585 1.384 1.128 2.597 1.929 3.572 2.049 2.574 3.061 2.07 2.861 2.869a.45.45 0 0 1-.106.21l.032-.008c-.137.737-2.391 1.053-5.028.676.28 2.216.163 4.732-.912 6.804-1.988 3.82-6.479 3.664-7.89 3.246s-3.936-4.586-2.575-7.945c.43-1.043 1.08-2.016 1.845-2.894-.75-.633-1.588-1.569-2.325-2.816-1.287 2.194-2.956 4.515-5.096 6.952a31.8 31.8 0 0 1-3.154-8.054 4 4 0 0 1-.37.13c-.199.995-.423 1.745-.672 2.095-1.091 1.485-2.412 1.834-3.715 1.5l-.108-.085q.268.035.532.03a4 4 0 0 1-.714-.13q.043.058.087.112c-.908-.282-1.946-.841-2.802-1.518-1.027-.845-2.122-2.281-2.793-4.073l-.744.007c-.371 2.328-.146 4.17.072 5.44 1.585-.062 4.207.849 5.788 5.243 1.717 4.747-.016 8.247-.942 8.646-.91.39-5.465-1.597-7.227-5.885-4.761 6.142-14.21 9.124-15.154 8.294-.158-.138-.305-.538-.419-1.139a51 51 0 0 1-3.054 3.829c-3.856-6.9-5.638-16.223-1.681-23.727a45 45 0 0 1-.791-.534q-.042.177-.086.355.047.765.055 1.58-.217-.065-.433-.131-.155.555-.33 1.123-.329-.212-.655-.433a35 35 0 0 1-1.163 2.665 25.3 25.3 0 0 1-3.422-3.832c-.626.356-1.249.624-1.842.82 2.227 3.328 3.891 7.903 4.231 14.193-6.907-1.685-13.943-5.322-17.655-10.658q-.117.191-.239.384c.378 1.647.605 3.509.624 5.616a30 30 0 0 1-3.936-1.423 40 40 0 0 1-3.293 3.095q-.075-.233-.147-.47c.095 5.083-1.806 11.76-8.595 19.725-3.753-6.428-5.704-15.02-2.726-22.299a25 25 0 0 1-1.712-2.218c-1.373 1.965-2.464 3.524-2.771 4.653l-.056-.065a35 35 0 0 1-1.252 2.893c-2.627-2.398-4.919-5.504-6.141-8.872a32 32 0 0 1-2.518-4.223c-1.893 2.662-4.799 5.48-9.207 8.22-.598-4.619.045-10.023 2.552-14.41-2.424-1.703-4.401-3.815-5.491-6.29.083 3.046-.656 6.774-2.843 11.27-3.01-2.749-5.58-6.424-6.606-10.36-.434 1.74-1.217 3.65-2.515 5.684.375 1.642.599 3.498.619 5.598a30 30 0 0 1-3.921-1.417 40 40 0 0 1-3.302 3.105 24.6 24.6 0 0 1-1.128-5.589c-2.381-1.68-4.328-3.757-5.419-6.185.004 1.678-.24 3.555-.831 5.646 5.014 2.583 10.366 7.927 11.978 18.96-8.609-1.405-17.666-5.623-20.935-12.679-.275.67-.58 1.359-.924 2.066-2.19-2-4.147-4.491-5.446-7.216a29.3 29.3 0 0 1-5.934-2.468c.505 2.821.61 6.126.125 9.995a38 38 0 0 1-4.753-2.418 34 34 0 0 1-1.573 3.779c-3.004-2.744-5.572-6.413-6.6-10.342-.603 2.41-1.874 5.145-4.254 8.08q.063.882.074 1.829-.651-.187-1.301-.405a39 39 0 0 1-3.637 3.462 24.7 24.7 0 0 1-1.124-5.534c-2.118-1.165-4.037-2.6-5.526-4.283-.272 2.553-1.098 5.505-2.746 8.894a25 25 0 0 1-.616-.583c.199 2.15.187 4.545-.104 7.21a37 37 0 0 1-7.031-3.752q-.058.125-.118.252a26 26 0 0 1-1.302-1.28c-1.484-1.14-2.847-2.395-4.024-3.756q-.132.447-.286.906.53.9.999 1.81a45 45 0 0 1-1.716.07q-.277.656-.603 1.335c.996 1.313 1.935 2.852 2.779 4.66a34.5 34.5 0 0 1-6.715-.17c2.433 1.797 4.777 4.502 6.663 8.538-3.255.233-6.723.022-9.89-.747 2.125 2.874 8.486 14.038-6.04 30.118-2.166-4.037-3.62-8.878-3.665-13.688a30 30 0 0 1-1.129-.04 34 34 0 0 1-1.943 3.856 24.7 24.7 0 0 1-3.354-4.59c-2.537-.595-4.889-1.545-6.793-2.913q-.13.51-.278 1.016c.762 2.354 1.152 5.241.927 8.782a29 29 0 0 1-3.85-1.695q-.294.548-.6 1.078a43 43 0 0 1-1.631-2.4q-.745-.49-1.443-1.029c.911 2.468 1.403 5.562 1.157 9.44-3.041-1.086-6.052-2.723-8.461-4.812-.39 1.651-1 3.414-1.887 5.282q.222.432.435.887-.447.032-.9.053a35 35 0 0 1-.949 1.717c1.579 4.102 2.104 9.654.184 17.101-3.546-2.05-6.918-4.81-9.437-8.036-3.075-1.448-5.939-3.451-7.96-5.906.285 1.697.299 3.663-.14 5.91 1.03 1.338 2 2.917 2.87 4.78-1.434.103-2.91.12-4.383.041a34 34 0 0 1-1.935 3.833 24.7 24.7 0 0 1-3.338-4.563c-2.998-.699-5.738-1.895-7.79-3.689 1.201 2.634 1.905 6.075 1.619 10.568-2.658-.949-5.292-2.32-7.523-4.046.91 2.469 1.401 5.563 1.155 9.442-5.811-2.077-11.513-6.162-13.118-11.577l-.163.167c-.318 3.535-1.915 7.905-6.052 13.009a24 24 0 0 1-2.768-6.24q-.623.376-1.277.749c-.283-3.749.057-7.86 1.18-11.783l-.597-.121c-.529 3.117-2.022 6.804-5.148 11.038-1.97-2.781-3.489-6.182-3.996-9.673q-.358.692-.805 1.404.204 1.069.357 2.127a56 56 0 0 1-1.535-.448c-1.938 2.502-4.8 5.118-8.991 7.644-.369-3.408-.063-7.234 1.152-10.753a45 45 0 0 1-.961-.501 25 25 0 0 1-3.918 2.279c-.798 1.637-1.848 3.38-3.211 5.227q-.538-.76-1.025-1.577c-2.468 2.447-5.69 4.921-9.884 7.302-.446-5.903.657-12.704 3.922-18.255-1.293 1.17-2.817 2.342-4.608 3.502a42 42 0 0 1-1.507 5.016c-2.438-1.767-4.74-3.922-6.639-6.338q-.482.31-.99.617a26 26 0 0 1-.138-2.152c-2.521-3.691-4.056-7.89-3.773-12.201a38 38 0 0 1-6.155.52c1.903-3.209 4.588-6.428 7.766-8.895q.012-.206.029-.411-.182.13-.364.258a44 44 0 0 1-.317-1.865 23.7 23.7 0 0 1-3.712 3.169c-.448 1.711-1.127 3.569-2.096 5.581a26 26 0 0 1-2.466-2.568q-.275.65-.567 1.285c.465 1.881 1.189 6.738-1.598 12.63 5.319 5.819 8.487 14.191 9.615 21.976-9.202-2.542-15.219-6.521-19.15-10.74a53 53 0 0 1-5.663 3.803 34.1 34.1 0 0 1 .779-11.013c-2.911-6.253-2.431-11.488-2.431-11.488 2.664-.071 5.122.32 7.38 1.085a20.7 20.7 0 0 1 8.064-6.119l-.201-.283q-.376.133-.764.263.094-.528.211-1.063a48 48 0 0 1-2.602-4.299q-.066.53-.147 1.052a42 42 0 0 1-3.023-2.115q-.967.963-2.101 1.945a24.7 24.7 0 0 1-1.118-4.729 30 30 0 0 1-1.399-1.464 28 28 0 0 1-1.447 1.881 31 31 0 0 1-1.63 5.615 37 37 0 0 1 2.833 6.793 40 40 0 0 1-5.686-1.074q-.433.712-.889 1.393a44 44 0 0 1-1.21-2.031c-4.197-1.427-7.256-3.451-9.485-5.616 1.811 5.012 2.051 10.87 1.242 16.05a41 41 0 0 1-4.061-2.937 49 49 0 0 1-2.619 6.116c-3.13-3.827-5.34-7.475-6.853-10.896a37 37 0 0 1-3.642 7.034c.723 3.899.691 8.026.102 11.794a43 43 0 0 1-2.274-1.554c1.965 10.049-3.28 21.282-10.082 29.139-6.25-13.132-5.146-22.857-2.418-29.345-1.992-1.829-3.521-3.682-4.689-5.501.71 3.438.396 7.13-.589 10.711a37 37 0 0 1 2.871 6.86 41 41 0 0 1-5.133-.933 37 37 0 0 1-2.565 4.441c-1.456-2.301-2.555-4.488-3.363-6.552-2.594-1.25-4.636-2.748-6.243-4.316 1.824 5.02 2.068 10.897 1.256 16.091-5.11-3.256-8.378-6.747-10.43-10.104.74 3.487.421 7.237-.587 10.871 5.326 2.911 9.679 8.285 12.367 13.728-5.889.269-10.481-.644-14.05-2.134a49 49 0 0 1 .672 6.493c1.23 4.531 1.322 9.555.617 14.064-4.198-2.675-7.153-5.508-9.213-8.295.334 2.26.423 4.577.308 6.84 7.786 5.697 12.024 16.449 13.113 26.193-11.788-3.667-18.179-9.558-21.627-15.172q.124.373.239.744a41 41 0 0 1-5.121-.93 37 37 0 0 1-2.558 4.428c-1.451-2.292-2.547-4.471-3.355-6.528q-.24-.117-.473-.236c.359 8.507-3.466 17.611-8.541 24.516-5.074-8.769-6.46-16.176-6.092-22.124a23 23 0 0 1-1.877-3.535 30 30 0 0 1-.781 3.158c.604 3.706.543 7.586-.013 11.147a43 43 0 0 1-2.926-2.041 48 48 0 0 1-.29.955 61 61 0 0 1-1.07-.963q-.143.222-.287.439a44 44 0 0 1-1.003-1.666 50 50 0 0 1-3.5-3.803c.12 1.086.184 2.179.2 3.269 10.467 4.364 16.191 16.962 17.645 28.251-24.603-7.211-26.093-24.39-26.058-28.796a27 27 0 0 1-1.564-1.997q-.15.39-.324.771c.326 2.953-.03 6.042-.862 9.052 1.2 2.21 2.16 4.541 2.86 6.839a41 41 0 0 1-5.122-.93 37 37 0 0 1-2.558 4.427c-1.451-2.292-2.546-4.471-3.354-6.528-2.08-1-3.805-2.157-5.237-3.384q-.326.094-.653.184c1.474 4.758 1.627 10.152.875 14.962-4.472-2.851-7.535-5.88-9.605-8.842a43 43 0 0 1-3.21-.929l-.056.174c7.375 5.713 11.532 15.997 12.74 25.377-17.968-5.266-23.608-15.849-25.33-22.891-.535 3.344-1.6 6.636-2.974 9.566-2.152-2.456-3.77-4.828-4.968-7.086-.532 3.365-1.6 6.682-2.984 9.631-3.806-4.344-5.947-8.423-7.031-12.082-.287 3.491-1.62 6.938-3.562 10.089.535 2.466.803 4.98.828 7.388a41 41 0 0 1-4.667-2.329q-.357.392-.724.77c2.587 4.974 4.15 10.66 4.75 16.04-5.525-1.719-9.862-3.929-13.269-6.368-1.994 4.708-4.925 9.128-8.195 12.787-5.417-11.849-4.979-20.871-2.8-27.255a26.5 26.5 0 0 1-1.137-5.021c-1.894 3.485-4.57 6.667-7.48 9.236.006 8.187-3.706 16.813-8.564 23.423-1.407-2.432-2.53-4.76-3.41-6.98q-.473.339-.965.651a37 37 0 0 1 1.573 5.967q-.556-.136-1.093-.281c2.022 4.368 3.312 9.157 3.901 13.73-7.842-2.298-13.335-5.611-17.18-9.199-.52 3.44-1.606 6.837-3.02 9.849-3.288-3.754-5.333-7.31-6.528-10.569-.495 3.575-1.609 7.116-3.076 10.242-3.823-4.363-5.966-8.46-7.045-12.132-.277 3.512-1.613 6.98-3.567 10.149.535 2.466.803 4.98.828 7.389a42 42 0 0 1-3.83-1.856 49 49 0 0 1 1.299 6.525c-5.516-1.617-9.869-3.737-13.305-6.1a37 37 0 0 1-2.008 5.308c-5.21-5.946-7.301-11.394-7.83-15.953-2.082 4.104-5.274 7.829-8.71 10.677-.72-2.503-1.156-4.813-1.366-6.941-1.463-3.368-2.167-6.426-2.367-9.156a31 31 0 0 1-1.044-.923c-3.186 5.995-9.796 10.48-16.244 12.833.32-4.997 1.385-8.969 2.845-12.127-2.666 2.037-5.695 3.674-8.717 4.85 4.417 11.018-1.508 24.22-9.371 33.019-12.278-26.86 5.521-39.196 5.521-39.196a21.4 21.4 0 0 1 3.254 4.832c.498-4.942 1.751-8.81 3.374-11.837a19 19 0 0 1-2.605 1.845c-.39.836-.528 1.794-.331 2.861a16 16 0 0 0-1.764-1.77 27 27 0 0 1-4.926 1.669 37 37 0 0 1-4.595 5.788 41 41 0 0 1-1.662-4.921c-1.73.083-3.448.043-5.105-.107 1.302-2.374 2.677-4.384 4.084-6.084a26 26 0 0 1-.034-2.189c-1.249-.42-2.497-.843-3.721-1.298-2.765 2.032-5.884 3.646-8.968 4.771.211-3.299.749-6.152 1.509-8.619a16.5 16.5 0 0 1-2.105-1.904c-1.309-1.408-2.309-3.008-3.089-4.728a37 37 0 0 1-4.313-.135 41 41 0 0 1 2.765-4.38c-.685-2.692-1.07-5.511-1.421-8.248-.641-5.016-2.34-9.431-4.479-13.153-3.421 3.432-7.93 6.06-12.365 7.678.319-4.976 1.376-8.937 2.826-12.089-2.875 2.192-6.168 3.923-9.421 5.11.114-1.771.321-3.414.606-4.937-2.867 5.039-7.001 9.566-11.401 13.039-1.61-6.153-1.96-11.402-1.52-15.853q-.034-.128-.066-.256c-1.73.082-3.449.041-5.106-.109 1.303-2.374 2.676-4.383 4.083-6.083-.165-2.889.158-5.41.756-7.584-3.517 4.018-8.545 7.067-13.478 8.867.309-4.83 1.315-8.704 2.7-11.809-4.925 1.256-10.185 1.605-15.053 1.232a54 54 0 0 1 3.532-5.768 37 37 0 0 1-3.658 1.564 44 44 0 0 1 .178-2.045c-2.786 5.06-6.833 9.631-11.162 13.164-3.642-13.077-1.487-22.131 1.904-28.098a28 28 0 0 1-3.643 1.131 37 37 0 0 1-4.592 5.783 41 41 0 0 1-1.66-4.913 37 37 0 0 1-5.126-.107c1.309-2.384 2.689-4.401 4.102-6.105-.163-2.884.16-5.402.757-7.573-3.517 4.019-8.545 7.068-13.479 8.869.504-7.867 2.853-13.196 5.684-16.8q-1.024.335-2.081.596c-2.625 6.556-7.577 12.56-12.966 16.959-5.765-20.702 2.997-31.323 8.192-35.572-3.926-.523-7.835-1.831-11.232-3.553 3.156-2.598 6.153-4.366 8.944-5.523a37 37 0 0 1-7.429-2.807c5.136-4.229 9.851-6.262 13.942-7.031-3.917-1.981-7.479-5.024-10.281-8.35-1.91.258-3.823.363-5.67.328 1.347-2.92 2.83-5.336 4.38-7.331a37 37 0 0 1-2.364-2.74q1.026-.262 2.006-.464c-3.961-.514-7.909-1.83-11.336-3.567 6.095-5.018 11.598-6.942 16.167-7.333-4.031-2.208-7.65-5.51-10.393-9.031 6.367-1.626 11.452-1.485 15.459-.477 1.897-3.168 3.97-5.691 6.096-7.7-3.819-2.006-7.297-4.936-10.02-8.093 4.769-1.47 8.85-1.886 12.313-1.648-3.068-1.91-5.854-4.377-8.117-7 5.52-1.702 10.119-1.992 13.904-1.488-3.075-1.69-5.681-4.319-7.768-7.387a37 37 0 0 1-7.066-2.248 41 41 0 0 1 4.024-3.303 37 37 0 0 1-1.715-4.808c2.684.377 5.053.95 7.143 1.665 2.633-1.172 5.097-1.763 7.336-1.976-4.997-1.864-9.624-5.478-13.052-9.453 7.529-2.32 13.343-2.018 17.718-.652-2.882-3.571-4.97-7.994-6.173-12.28 3.851.54 7.052 1.484 9.713 2.671a218 218 0 0 1 15.41-35.733c7.987-14.73 18.517-29.25 34.007-35.685 27.516-11.44 63.159 5.417 87.026-12.431 4.433-3.3 8.073-7.627 12.76-10.543 6.038-3.747 13.345-4.9 19.69-8.103 19.337-9.754 25.209-35.384 42.736-48.096 11.59-8.414 26.6-9.986 40.082-14.791 21.756-7.734 40.872-24.295 63.921-25.39 11.748-.54 23.344 3.073 35.109 3.194 21.039.229 42.927-10.391 63.05-11.053a37 37 0 0 1 1.954-5.593c1.803 1.969 3.248 3.89 4.397 5.744 2.626.225 5.215.667 7.762 1.373 2.673-3.698 6.357-6.862 10.144-9.144.643 4.956.361 9.052-.462 12.427 2.403-2.701 5.305-5.028 8.269-6.814.698 5.375.307 9.738-.682 13.266l.214.176c2.147-2.5 5.012-4.455 8.176-5.895a37 37 0 0 1 3.42-6.591 41 41 0 0 1 2.575 4.533 37 37 0 0 1 5.033-.873c-.829 2.579-1.798 4.813-2.857 6.751.711 2.807.872 5.346.697 7.595 2.683-4.617 7.035-8.571 11.534-11.282 1.016 7.831-.275 13.516-2.371 17.597 1.825-1.02 3.795-1.848 5.818-2.49q.46-1.292 1-2.513a44 44 0 0 1 1.563 1.805 37 37 0 0 1 4.787-.817 41 41 0 0 1-1.893 4.849c1.125 1.828 1.961 3.591 2.566 5.276q1.274.255 2.552.504c2.431-5.626 7.48-10.482 12.729-13.644.641 4.937.363 9.022-.454 12.389 2.399-2.693 5.294-5.012 8.252-6.795.639 4.92.365 8.993-.444 12.353q.39.105.778.214c2.041-2.091 4.601-3.761 7.394-5.03a37 37 0 0 1 3.409-6.562 41 41 0 0 1 2.566 4.512 37 37 0 0 1 5.033-.872c-.828 2.578-1.797 4.811-2.855 6.748.711 2.796.876 5.327.707 7.571 2.687-4.605 7.033-8.55 11.522-11.254 1.016 7.83-.276 13.514-2.37 17.595a31 31 0 0 1 4.818-2.156 37 37 0 0 1 1.575-4.257 42 42 0 0 1 2.571 3.081 37 37 0 0 1 4.204-.682 42 42 0 0 1-1.714 4.46c1.895 3.355 2.828 6.478 3.168 9.27 1.153-7.503 7.451-14.168 14.056-18.148.642 4.945.363 9.035-.457 12.405 2.264-2.545 4.972-4.757 7.757-6.499-2.856-5.454-2.881-10.054-2.881-10.098 7.389-.89 13.528 1.945 18.305 6.626q.735-.479 1.453-.974c6.278-4.353 11.585-9.809 17.485-14.559-17.706-3.128-21.93-17.078-21.93-17.078 11.885-5.207 23.391 1.563 31.084 10.876 16.755-9.094 37.139-8.834 55.538-14.547 12.025-3.736 23.646-10.157 35.963-10.781 18.646-.934 34.887 11.692 53.449 8.071 6.101-1.191 11.929-4.09 18.053-4.775 4.762-.55 9.429.271 14.18.105 25.651-.938 43.61-28.705 68.918-35.32M-64.65 250.935q.124.123.247.248.138-.251.28-.494zm2089.78-4.861c-.04.017-.08.033-.13.05.07.204.13.409.19.616.08-.272.17-.538.26-.796-.11.043-.21.088-.32.13m-187.26-19.651c-.67.586-1.38 1.14-2.12 1.661.32 1.901.4 3.845.27 5.802.04-.036.08-.071.11-.106.22-2.857.87-5.294 1.74-7.357m-44.39-32.836c11.05 11.355 5.2 28.443-3.71 39.411-13.5-26.244 3.71-39.409 3.71-39.411m37.77 23.865c-.21.04-.42.077-.64.112.08.093.17.187.25.281q.195-.201.39-.393M45.114 204.783q.171.937.262 1.896a22 22 0 0 1 2.717.252q-.073-.625-.112-1.228l-.284-.238c-.842-.224-1.706-.451-2.583-.682m-18.6-1.033a8.5 8.5 0 0 0-1.315.792q.6 1.08 1.011 2.182c.03-1.058.14-2.052.304-2.974m2031.606-6.732c.45.087.91.194 1.35.319a20 20 0 0 1-1.16-1.41 40 40 0 0 0-.19 1.091m-224.2-1.708a6 6 0 0 1-.2.322l.31-.106c-.04-.072-.07-.144-.11-.216m239.09-17.003c.18.37.35.745.52 1.126.72.186 1.44.396 2.14.627-.02-.151-.05-.301-.07-.45-.94-.397-1.8-.836-2.59-1.303m-1942.674-4.096q.189.919.283 1.859.582.06 1.15.151a26 26 0 0 1-1.433-2.01m1553.634-6.34q-.54.762-1.17 1.47c.23.312.46.627.67.945.13-.845.3-1.649.5-2.415m-1906.312-20.059q.006.236.004.471.19-.056.379-.107zm1826.072-21.878c-.38.506-.78.997-1.21 1.474q.915 1.058 1.65 2.169c.28-.318.55-.623.83-.915 0-.123-.01-.245-.02-.367-.4-.771-.82-1.561-1.25-2.361m503.67-34.378c14.52 6.36 15.52 24.406 11.39 37.907-22.37-19.245-11.39-37.907-11.39-37.907M-239.647 122.63a21.4 21.4 0 0 1-3.556.457 20.6 20.6 0 0 1 1.545 4.642 27 27 0 0 1 1.76-2.514q-.004-.124-.005-.248c.001-.795.094-1.572.256-2.337m1709.057-5.563c.13.126.25.254.38.386.07-.084.13-.169.2-.252-.19-.044-.38-.09-.58-.134m602.6-8.852c-3.36 3.731-6.68 6.126-9.8 7.61 2.86-.199 5.81.302 8.66 1.286a27.7 27.7 0 0 1 1.14-8.896m-481.59 2.909q-.39 1.174-.93 2.223c.8-.695 1.61-1.287 2.4-1.792a8.4 8.4 0 0 0-1.47-.431m-1895.749-2.311c16.312-24.62 36.19-16.036 36.19-16.036-4.509 15.206-22.279 18.47-36.19 16.036m741.683-39.592c.013.014 11.503 12.085-5.448 30.849-5.071-9.451-6.242-23.313 5.448-30.85m931.116 27.891c-.71.281-1.4.558-2.08.831-.1.1-.19.2-.29.301.04.307.08.62.1.941q1.125-.334 2.34-.552c-.05-.51-.07-1.016-.07-1.52m15.9-3.2c.3.674.56 1.41.76 2.207q.18-.883.54-1.776a8.4 8.4 0 0 0-1.3-.432m-991.014-.87a18 18 0 0 1-.309 2.445l.071.094a20 20 0 0 1 .653-2.392q-.209-.072-.415-.146m.48-2.713q.163.975.273 1.942.233-.58.506-1.148a19 19 0 0 1-.779-.794m895.854-4.771a18 18 0 0 1-.92 1.688c.32-.094.64-.182.97-.263-.04-.476-.06-.951-.05-1.425m-888.992-2.101q.112.156.223.317.121-.086.245-.172a23 23 0 0 1-.468-.145m798.142-32.804c.01.052 5.14 15.873-18.21 25.49-.51-10.715 4.41-23.727 18.21-25.49M590.654 59.8q.017.06.005.106c-.113.448-.351.865-.696 1.245.409.6.783 1.506 1.036 2.586a17.5 17.5 0 0 1 .168-3.94zm-57.274 1.76q.003.919-.1 1.92.368-.333.762-.656-.37-.615-.662-1.264m172.684-2.352c-.264 1.036-.459 2.002-.48 2.947q-.015.467 0 .857c.993-.211 2.048-.403 2.945-.617 1.397-.342 2.91-.925 4.135-1.454-2.149-.358-4.32-1.088-5.96-1.838q-.314.058-.64.105m80.113 2.31.073.152.106-.171zm-70.733-.35.072.224q.067-.115.136-.23zm-23.165-3.944q-.002.324.014.651c2.93.74 4.021.384 6.598 1.151a9 9 0 0 1-.212-.631 22 22 0 0 1-1.668-.73q-.847-.087-1.714-.169a21 21 0 0 1-1.577-.147q-.714-.064-1.441-.125m-1.206.297.219.069a11 11 0 0 1 0-.437zm458.127-7.543c-.47 1.657-1.3 3.44-2.66 5.283 0 .038.01.077.02.116.94-1.243 2.03-2.38 3.27-3.377q-.375-1.006-.63-2.022m9.42-2.275c.03.127.05.254.07.383l.29-.05zm-257.022-7.88c-.476.164-1 .286-1.556.376q-.182.288-.377.574c-.055.999-.12 2.011-.199 2.98.734-.61 1.351-.965 1.628-.961.168-.653.265-1.701.504-2.97m-13.47 1.711a18 18 0 0 1-1.259.777q.636-.195 1.246-.39.003-.192.013-.387m280.042-8.436c.07.086.13.172.2.26.01-.122.03-.244.04-.366zM852.927-37.695a17.8 17.8 0 0 0 2.642 3.633 7.3 7.3 0 0 1 1.488-.652c.746-.21 1.515-.35 2.281-.435q.259-.03.516-.054a6 6 0 0 1 .069-1.333c-1.923.387-3.587.257-4.691-.488a.26.26 0 0 1-.079-.096 7.8 7.8 0 0 1-2.226-.575m135.914-15.687c-.366.34-.918.898-1.585 2.097 1.19.335 2.337.826 3.337 1.522q.117.085.229.172.179-.016.358-.028.41-.819.872-1.614a21 21 0 0 1-2.538-2.086q-.333-.028-.673-.063m20.949-16.496c-.49.118-1 .225-1.55.313q.57.195 1.11.43c.15-.248.3-.495.44-.743m-3.88-17.58c.62.186 1.24.388 1.84.607q.48-.231.96-.443c-.8-.084-1.64-.215-2.5-.404zm40.55-41.683c-.81 1.884-2.04 3.908-3.91 5.907 2.54.721 4.9 1.78 6.82 3.233-1.43-2.34-2.52-5.327-2.91-9.14m-269.853 1.537q.198-.078.402-.152a13 13 0 0 1-.268-.357zm691.773-13.823a20.2 20.2 0 0 1-2.36 4.281 27 27 0 0 1 3.04-.411l.18-.172c.58-.537 1.22-.995 1.89-1.394-.97-.68-1.88-1.453-2.75-2.304m-466.16 3.586c4.22-10.051 14.47-20.473 28.07-17.634 0 0-2.1 16.333-28.07 17.634m-652.745-13.686a40 40 0 0 1 .171 2.92q.685-.3 1.366-.606a27 27 0 0 1-1.537-2.314m430.879-1.76a22 22 0 0 1-2.828 1.485c.468.381.894.8 1.262 1.276q.048.063.094.128c.813.165 1.649.383 2.505.663a13.5 13.5 0 0 1-1.033-3.552m656.416-43.494c29.16-4.694 36.32 15.74 36.32 15.74-14.23 6.99-28.68-3.863-36.32-15.74m-651.768 12.379s10.405-14.986 33.738-8.11c-8.963 8.316-23.373 15.087-33.738 8.11"/><defs><radialGradient id="a" cx="0" cy="0" r="1" gradientTransform="matrix(0 308.5 -1197.54 0 959 186)" gradientUnits="userSpaceOnUse"><stop stop-color="#b0d4ef"/><stop offset="1" stop-color="#4a6e90"/></radialGradient></defs></svg>