<svg xmlns="http://www.w3.org/2000/svg" width="1920" height="824" fill="none" viewBox="0 0 1920 824"><path fill="url(#a)" fill-rule="evenodd" d="M480.873-118.045c3.086-4.851 10.964-8.844 11.815-8.155.946.789 1.678 7.058-2.881 13.325-3.891 5.326-8.019 5.938-9.406 6.057-3.878 5.078-6.94 10.568-9.345 16.218.48.607.94 1.231 1.377 1.86 1.84-.132 3.434.206 4.246.548.657.278 1.403 1.233 1.984 2.56a25 25 0 0 1 1.928-1.913c-.674-2.274 2.247-8.523 7.486-11.791 6.143-3.832 17.319-4.588 18.061-3.227.74 1.361-1.731 9.015-10.301 13.86-7.886 4.377-13.136 2.452-14.377 1.948l-.193-.004-.083-.034c-.742.664-1.258 1.536-2.045 2.46q.106.354.194.726c.994-.822 1.805-1.201 2.176-.933.502.374-.047.784-.336 2.682 1.506.91 3.222 2.45 4.634 4.41 1.839.491 4.112 1.081 6.871 1.583 6.806 1.185 8.853-.028 15.175 1.244 5.44 1.156 6.635 4.336 6.644 4.359-.015.002-2.134.357-4.891 3.759-.643.746-1.209 1.732-1.776 2.8-.492 1.595-1.293 3.163-2.517 4.53.671.11 1.445-.068 2.112.233 6.835 2.199 12.703 8.418 15.414 12.557-.455-2.197-.301-3.812.109-4.315.69-.723 5.513.489 10.169 2.855 9.145-4.867 19.773 1.593 19.842 1.635-.002.006-.757 2.018-2.218 4.552 3.12.016 6.951-.127 11.155-.021a319 319 0 0 1 10.278-3.236q-.183-.215-.364-.437c-6.479-7.92-2.716-16.354.786-19.494 2.314-2.029 4.745-3.283 7.015-2.318 2.155-3.962 4.545-6.68 5.35-6.763l.017.047q.17.023.4.144c1.353.542 4.632 4.213 7.164 9.14a23 23 0 0 1 3.338-.362l-.003-.007c.121-.008.316-.016.569-.019l-.027-.074c.016-.002 1.086-.16 2.605.012-1.13-3.17-.689-6.47.254-9.1a18 18 0 0 0-.578 1.765c.182-.705.408-1.372.66-1.99 1.012-2.701 2.534-4.65 3.355-4.947 1.794-.647 8.351 1.467 11.447 8.439l.138.328c2.566-.217 4.505.142 4.676.97.189.91-1.067.449-3.604 3.788a8.4 8.4 0 0 1-.136 1.722 22 22 0 0 1 6.955-6.236 17.7 17.7 0 0 1 2.921-1.338c4.271-1.52 8.155-.844 11.16.668 3.387-.596 7.56-.55 11.705 1.483 3.34 1.6 5.802 4.629 7.593 7.902.941.463 1.824.999 2.579 1.615.537 0 1.044.015 1.534.041-.079-1.445.051-2.638-.033-3.484-1.953-.57-8.796-8.47-8.893-16.032.041-5.503 5.968-9.952 8.214-9.75 2.291.329 8.637 2.664 9.221 9.097.707 7.978-6.711 16.72-8.26 16.845l-.045-.128a1 1 0 0 1-.084-.001c.083.852.183 2.037.261 3.476 1.765.113 3.34.346 5.301.447 2.777-3.167 6.29-6.064 10.254-8.045a24 24 0 0 1-.68-4.338c-.665-9.87 4.486-16.062 6.035-16.188.976-.078 3.485 3.771 5.238 8.425 3.45.227 12.233 2.6 17.883 7.073a12.3 12.3 0 0 1 2.006 1.878c-2.619-3.533-5.08-7.886-5.174-11.858-.256-10.721 11.011-17.107 11.053-17.13.004.004 5.404 6.143 6.429 12.993.734 4.91-2.797 11.804-4.763 17.356 2.714-1.703 6.382-2.8 10.788-1.666a24.7 24.7 0 0 1-.299-5.043c.831.652 2.065 1.233 3.604 1.81.663-4.364 4.542-7.995 6.386-8.204l-.019-.092.174.082c1.196.07 3.698.679 5.81 2.384.337-6.908-.135-14-1.779-21.033-1.284-.758-4.662-3.013-5.988-9.245-1.732-7.609 1.591-12.85 2.744-13.267l.059-.008c1.307-.066 6.531 6.679 7.384 12.202.744 4.162-.897 8.458-2.447 9.996 1.548 6.618 2.082 13.28 1.89 19.795a67 67 0 0 1 3.421-5.326c-1.522-2.417-4.822-8.927-1.183-15.394 4.507-7.98 13.017-8.882 18.518-7.688-2.148 2.075-4.333 8.063-8.101 14.477-3.984 6.715-5.762 7.293-8.104 9.41-1.778 2.322-3.349 5.195-4.697 7.623l-.015.24c.418.575.786 1.221 1.079 1.948.467-2.366 1.28-4.454 2.014-6.014a27 27 0 0 1 1.386-2.652c.016-.252.061-.383.134-.374l.011.138.037-.061.08-.124.082-.174s6.703 2.766 10.782 7.758c3.166-9.224 13.267-16.508 14.827-16.27 1.686.26 7.033 13.065 4.125 23.069-.199.65-.528 1.346-.774 1.868 2.817-.34 5.455.353 7.63 1.434 2.244-1.594 4.468-2.309 5.325-2.061 1.493.432 4.794 4.179 5.032 9.839 1.306.92 2.099 1.706 2.191 2.145l.01.045c.12.695-1.159 2.458-3.364 4.492a10 10 0 0 1-2.153 3.082 21.06 21.06 0 0 1 9.572-1.573l.149.813c10.227.645 13.877 9.152 13.815 13.797-.118 4.087-1.375 7.429-5.819 7.154-1.624-.033-5.836-2.835-10.036-5.72-1.675 1.213-3.893 2.545-6.415 3.704 4.184 1.372 6.529 3.965 6.434 4.76-.034.57-2.181 1.593-4.918 2.284 1.085 3.79 1.606 7.943 1.251 12.04-.294 3.213-1.826 6.576-3.526 9.103 1.897 1.33 3.102 2.792 3.182 3.587.088 1.292-1.317 4.297-4.377 6.645.71 1.277 1.254 1.626 1.342 2.007.081.167.081.32-.021.538 0 0-.21.221-.466.314l-.046-.128.002-.003c-.763.197-2.275-.13-4.013-.858-.663.284-1.371.533-2.126.734.843 2.922-.567 7.142-.575 9.625-.079 1.842.142 3.341.182 5.1 2.274-.044 4.108.442 5.376.316a.9.9 0 0 1 .082-.228c.621-1.091 3.139-5.753 11.371-7.422 9.048-1.818 15.343 1.979 15.723 3.43.377 1.454-8.091 7.685-14.658 8.753-6.126.896-12.239-2.15-12.53-4.184-1.166.116-2.811.24-4.818.294 5.281 1.525 11.351 5.25 15.267 10.563 3.558 4.64 3.798 12.93 2.167 13.23-.942.194-.416-1.152-3.573-3.48-3.204-2.455-8.125-2.847-13.697-7.05-1.534-1.181-3-2.626-4.303-4.115-.957.627-1.727.656-1.727.656l.076-.042c-.908.118-1.837-.228-2.779-.877-.895.628-1.795 1.097-2.628 1.397-3.67 1.468-7.162 1.427-8.684-2.79a3 3 0 0 1-.085-.521 9.5 9.5 0 0 1-1.838-1.37c1.103 2.107 1.626 3.788 1.461 4.223l-.028.056a.5.5 0 0 1-.067.081l.013.037c-.358.94-7.238 2.374-13.64.962-3.549 2.11-6.277 4.165-7.655 5.098-.617 1.876-1.144 4.345-1.227 7.289a11 11 0 0 1 2.504-2.211q-.045-.191.023-.316c3.184-5.626 19.329-6.248 30.489.995 5.644 3.598 9.386 12.36 7.73 13.39-.933.625-.928-.965-5.311-2.273-3.841-1.147-8.459-.128-14.77-1.377q.216.447.411.92c4.618 11.19-1.535 20.632-7.113 25.243-.395-3.902-4.875-11.098-8.278-20.126-3.718-9.535-2.84-11.805-3.029-15.898-1.311.876-2.324 1.449-2.705 1.945.039-2.714-.12-5.205.446-7.084q-.084.03-.125.021c-.323-.11-.908-1.497-1.176-3.669-.422 1.29-1.085 2.28-1.602 2.793a9 9 0 0 1-.928.764c.999.633 1.678 1.315 1.896 1.921.877 2.429 1.409 10.326-5.984 14.725-4.719 2.83-10.816 3.37-15.704 3.04-1.528 1.213-3.143 2.009-4.505 2.369-3.45.982-6.753.726-8.061-2.508-3.864.908-9.059 1.433-13.989.639.765 1.885 1.595 2.594 1.6 2.598-.019.016-2.599 2.08-7.962.415-3.291-1.034-5.179-2.127-7.192-3.267-3.907 1.598-5.965 2.604-6.814 1.383l-.139-.382q.112.139.243.238l-.022-.03c-.436-.699-.338-1.719.099-2.838a1951 1951 0 0 1-12.925 4.732 13 13 0 0 1-.241 1.23c-1.794 6.899-5.784 11.056-8.453 12.723a31 31 0 0 1 2.946 5.73l.128-.047c2.177 5.665.585 13.89-1.185 15.178l.04.113-.512.185c-.192-.003-.325-.039-.425-.113-.77-.207-.14-1.517-2.666-4.84-2.354-3.095-6.558-4.893-10.808-9.363.108.37.104.747.009 1.129-.096 1.289-.872 2.45-1.873 3.516-1.774 3.78-4.464 6.507-7.456 8.409l2.448 2.897c3.267 2.631 7.578 3.092 10.006 3.109 1.868-.242 5.986-.6 10.488-1.9 4.624-1.234 10.018-2.745 11.494-2.266 3.558 1.028 3.629 4.035 2.583 7.157-1.164 3.597-6.501 9.278-14.616 6.859-6.558-1.795-9.902-6.506-10.786-8.609-1.843-.087-4.338-.439-6.762-1.497a733 733 0 0 1 4.065 4.856c5.054 5.978 8.587 11.35 11.309 15.28a212 212 0 0 0 1.946 2.77c1.957-.666 4.863-.154 8.123 3.854 4.034 4.756 3.5 11.304 2.439 11.976-1.015.8-5.983.279-10.191-4.558-4.33-5.057-3.183-8.741-1.972-10.223-.539-.8-1.138-1.711-1.827-2.708-1.808-2.568-4.006-5.853-6.801-9.557 1.732 3.977 3.383 9.518 3.397 14.974-.001 7.222-4.814 13.146-6.629 12.934l.013-.078a.8.8 0 0 1-.188-.003c-.659-.101-1.839-.609-3.061-1.695a10.8 10.8 0 0 1-.988 3.519l.103.476c1.864 2.553 4.111 5.465 6.506 7.778 3.115 2.083 5.196 2.296 11.004 9.442 5.46 6.698 8.976 13.231 11.867 15.222-6.023 2.172-15.917 2.85-22.582-5.58-5.313-6.831-2.683-14.739-1.318-17.805-1.696-1.663-3.305-3.577-4.773-5.49 1.344 7.502 1.872 15.307 1.205 23.238 1.976 1.665 4.354 6.135 4.28 10.82-.103 6.537-5.019 15.387-6.485 15.338-1.339-.095-5.998-5.781-5.434-14.651.53-8.004 4.511-11.105 5.652-11.844l.013-.154-.004-.01.005-.004c.674-8.354-.006-16.569-1.577-24.428-2.176 2.536-5.143 3.714-6.543 3.957-2.317.402-8.936-4.289-9.346-10.641-.459-8.051 5.398-16.667 7.737-18.45a149 149 0 0 0-2.092-4.505c-2.202-.053-4.556-.596-6.715-2.082l-.127.046c-3.718-2.641-5.76-9.061-6.638-12.599l-.347-.406a26 26 0 0 1-1.614 2.906 403 403 0 0 1 1.831 6.919c1.985 1.61 5.183 7.867 2.061 15.422-3.133 7.774-11.623 9.535-12.284 8.907s.266-3.274 2.24-5.43c2.348-2.724 4.241-4.707 6.015-9.824 1.153-3.371.575-6.318.496-7.999-.358-1.395-.91-3.53-1.643-6.265-3.521 4.024-9.564 6.388-10.404 5.139-.404-.72.887-.754 2.005-4.478.294-1.057.415-2.172.475-3.37-1.623-.811-3.839-2.61-5.577-4.887q0 .136.042.258a2 2 0 0 1-.1-.335q-.071-.094-.141-.19a14 14 0 0 1-1.23 2.067 11 11 0 0 1-1.531 1.678 9.7 9.7 0 0 1-1.629 1.243q.557.135 1.124.269c-.026.024-7.732 7.111-17.343 4.52a12 12 0 0 1-2.17-.789c-.66 1.345-1.395 2.524-2.102 3.416 1.594 2.012 2.954 4.386 3.507 6.894 1.066 4.96-3.547 10.234-5.654 10.417-1.979.136-8.249-.781-10.023-6.497-2.106-7.04 3.229-16.33 4.512-16.794q.02-.007.042-.011a76 76 0 0 1-1.991-7.909l-1.47.428c-1.86 5.256-5.653 11.015-10.885 14.816-5.039 3.695-13.78 3.957-14.124 2.203-.194-.94 1.155-.416 3.702-3.79.495-.654.911-1.374 1.294-2.151q-.783.055-1.589.083c-.017.825-.211 1.384-.623 1.532-.713.257-.781-.418-2.125-1.528-2.022-.068-4.054-.298-5.944-.762a14 14 0 0 1-2.706-1.02l-4.731 1.334a27 27 0 0 1-2.802 1.599c-.543 8.577-6.599 14.647-11.831 17.601.137-2.509-1.15-6.733-2.579-12.039-4.184 2.008-8.784 1.861-12.166 1.284q-1.049.31-2.098.622a24 24 0 0 1 2.457 3.186c5.326 8.335 3.962 16.194 2.69 17.086-1.319.763-10.807-5.059-14.487-11.243-1.068-1.748-1.733-3.69-2.08-5.561q-1.337.413-2.677.832c-1.99 2.753-4.518 4.432-5.506 4.385-.638-.012-1.686-.483-2.819-1.389-.133 5.446-1.703 13.699-6.235 19.243-4.943 5.971-14.94 5.965-16.842 3.906a8 8 0 0 1-.429-.512c-.204 2.058-.29 3.721-.076 5.28l.059.015c1.22.572 6.649 2.37 9.694 10.805 3.367 9.33.399 16.756-1.139 17.312-1.41.508-9.438-7.286-11.627-14.153-1.877-5.888.032-12.505 2.066-13.791-.264-1.888-.385-4.299.035-6.87-4.54 1.914-12.881 4.784-18.511 2.889q-.67-.22-1.296-.488c-.562 3.833-4.913 6.947-6.497 9.797-2.107 3.793-1.753 5.978-1.753 5.978s-3.317.04-6.444-4.61a29 29 0 0 1-2.147-3.822.67.67 0 0 1-.354.101c-1.164-.014-.206-1.371-3.174-4.778a15 15 0 0 0-1.661-1.598c-.657 1.899-1.592 3.06-2.092 3.24l-.082.174c-.533.12-1.944-1.302-3.317-3.352q-2.468.807-4.949 1.605c2.36 4.808 1.616 9.987.638 10.71-1.131.837-6.558.391-11.097-4.885-.678.356-1.365.676-2.053.959 5.301 5.875 5.433 14.621 5.433 14.652-.036.008-8.074 1.745-14.58-.665-1.344-.507-2.647-1.397-3.915-2.51-2.104.158-6.076-.642-10.245-3.41a14 14 0 0 1-2.486 3.544c-2.983 3.059-7.1 5.076-11.128 6.326-.961 1.733-1.999 2.719-2.529 2.788-.415.062-1.113-.59-1.897-1.692q-.69.13-1.35.23c-2.346 1.256-5.111 2.044-6.837 3.22l-.164.122-.047.098a17 17 0 0 0-2.208 1.885c-.325.349-.59.673-.806.964q.18.695.32 1.347c1.288.257 2.786.414 4.455.225l.099-.094c5.402-.669 7.743-2.167 10.763-3.939 2.533-1.493 5.235-1.827 5.8-1.239q-.003-.002-.148.05a1 1 0 0 1 .049.043c.565.588-2.975 8.704-11.189 10.38-3.689.74-6.845.197-9.294-.818-.028.498-.106.848-.236 1.016-.31.439-1.979.608-4.351.399.38.537.7 1.092.94 1.666 3.202 7.454-2.892 15.024-2.918 15.056-.054-.028-5.534-2.82-8.12-7.273-1.814-2.947-1.449-8.249-1.546-12.556-2.353-1.079-4.612-2.464-6.49-4.207-.386-.432-.742-.786-1.052-1.209q-.04.306-.083.595c.287.703.386 1.212.273 1.428-.078.146-.321.326-.702.52-.234.755-.505 1.223-.78 1.281-.252.079-.723-.015-1.331-.289-1.412 1.574-3.118 2.745-4.728 3.539-.733 1.746-2.572 4.314-5.265 6.155a130 130 0 0 1 6.497 3.859c3.189.29 11.254 3.017 14.852 8.578.878 1.365 1.318 2.735 1.462 4.042l.264.252c2.539.898 5.373 1.796 8.045 2.357l-.002-.023c3.462.065 4.928-.966 12.77 1.296 7.076 2.057 12.88 5.148 15.765 5.202-3.176 4.56-10.117 9.724-18.908 6.867-6.909-2.201-8.884-8.921-9.428-11.908-2.012-.376-4.048-.934-5.987-1.551 4.505 4.641 8.578 9.873 11.883 15.751 2.189.1 6.27 2.139 8.558 5.693 3.074 4.773 3.852 13.45 2.78 14.104-.843.513-4.739-.575-8.261-4.272a19.8 19.8 0 0 1-2.826-3.73c-3.244-5.547-2.29-9.551-1.873-10.979-3.53-6.261-7.949-11.775-12.832-16.611-.41 2.72-1.874 4.887-2.728 5.708l-.004.191-.073-.123c-1.627 1.339-8.469 1.051-11.693-3.078-4.061-5.421-4.283-14.107-3.444-16.731a128 128 0 0 0-6.598-3.857 12.1 12.1 0 0 1-4.076 1.174l1.506 1.567c5.1 9.045 2.883 22.861 1.234 23.506-1.635.637-14.661-4.795-19.197-14.147a403 403 0 0 1-4.421 3.722c3.633 4.034 5.561 8.936 5.561 8.936s-10.104 6.575-19.337 2.475a30 30 0 0 1-.218 1.629c5.05 1.138 9.162 3.58 9.27 4.463l-.094-.097c.162 1.352-7.233 9.778-15.336 10.783-3.716.476-6.434-.975-8.19-2.674l-.028.019-.001-.001c.251 1.323.376 2.849.173 4.417 2.262 3.153 3.454 5.838 3.157 6.521-.569 1.212-8.024 4.164-16.014 4.209-1.212.289-2.068.406-2.246.368q-.017 0-.024-.008l.124-.086h-.003q-.172.01-.214-.011l.192.003c.002-.005.066-.113.17-.318-2.686-.157-5.373-.682-7.823-1.749l-.185-.082-.158.115c6.08 3.66 10.373 8.488 10.143 9.755a.7.7 0 0 1-.006.21c-.111.672-2.358 2.267-5.472 3.942 1.555-.85 2.828-1.674 3.673-2.367-1.818 1.307-4.854 2.976-8.448 4.272-1.916 3.666-4.652 7.366-8.268 9.69-7.125 4.777-14.063.702-15.852-1.16-.451-.469-.763-1.396-.884-2.592q-.177.092-.355.174c-.238 1.168-.53 2.279-.903 3.291 1.848.329 3.828 1.577 6.114 2.643-.648.137-1.594.775-2.923 1.552q.038.057.075.121c3.526 1.927 5.971 2.219 12.801 9.699 6.585 7.051 11.051 14.256 14.374 16.339-6.605 2.957-17.795 4.29-25.78-4.809q-.26-.296-.501-.595c-1.685 6.104-4.593 9.759-5.261 13.673-.769 4.509.659 5.21-.315 5.769-1.658 1.028-7.854-6.209-8.578-12.863-.821-7.009.962-14.294 3.781-19.645-.481.261-1.001.507-1.552.726.48-.205.932-.432 1.353-.672-2.203 1.174-5.2 2.035-8.491 1.502l-.028-.004c5.348 9.288 3.786 23.079 2.194 24.337a.7.7 0 0 1-.184.15c-.68.276-3.168-.348-6.409-1.756 1.388.586 2.621 1.011 3.6 1.261-4.449-1.367-12.66-5.582-17.141-12.02-1.48.64-2.573.876-2.987.636-.183-.107-.397-.375-.626-.779a27.5 27.5 0 0 1-3.47 3.398 12 12 0 0 1-1.237.907c.733.663 1.415 1.181 2.051 1.514-2.494 1.244-5.662 2.276-9.086 2.583q-.252.446-.512.869c2.352 2.817 3.638 5.269 3.336 5.96a1 1 0 0 1-.221.291c2.992 2.244 5.039 4.823 4.523 5.564-.495.663-1.044-.693-5.087-.575-3.945.023-7.751 2.55-14.778 2.709-2.39-.001-5.028-.38-7.456-.915a509 509 0 0 0-3.348 2.965c2.931.782 5.802 2.397 5.766 4.112-.029 1.383-2.009 1.744-5.593 2.485.681 2.624.892 5.407.8 8.099l.144-.083c-.143-2.313 4.015-7.818 9.831-9.827 6.785-2.377 17.908-.631 18.261.916.352 1.546-3.741 8.496-13.227 11.208-8.615 2.438-13.265-.632-14.501-1.328l-.577.44a39 39 0 0 1-.537 4.24c2.833 2.677 5.96 8.595 4.463 14.342-2.827 10.823-14.851 19.742-16.665 19.035s-8.248-14.878-4.655-25.494c.205-.574.406-.956.606-1.337a27 27 0 0 1-3.58.144c-1.52 1.288-3.268 2.485-5.152 3.338q-.384.45-.827.925c1.07 5.664.662 11.82-.285 13.351l.334-.321c-.2.381-.304.668-.594.758-1.02.361-4.705-1.032-8.228-4.757a24 24 0 0 1-2.148-2.56q-.655.12-1.335.182a2080 2080 0 0 0-4.355 4.753c-.89 1.64-2.183 3.259-3.977 4.527 10.28 3.09 18.537 13.966 18.236 15.922a.7.7 0 0 1-.026.283c-.304.668-2.448 1.975-5.84 3.163 1.819-.688 3.262-1.383 4.162-1.971-4.08 2.329-15.14 5.87-23.811 2.955a17 17 0 0 1-.57-.204c.197 1.189.33 2.404.388 3.629 1.595 1.018 2.569 1.949 2.56 2.393-.011.511-1.138 1.987-2.97 3.639a16.6 16.6 0 0 1-1.111 3.137.6.6 0 0 1-.012.174q.002-.075 0-.152c-1.955 4.186-5.327 7.535-6.396 6.867a1 1 0 0 1-.142-.139c-.65-.572.421-1.183-.116-4.948-1.622.64-3.33 1.067-5.046 1.139-4.032.108-6.625-1.85-8.154-3.888l-.172.192c.054.574.081 1.18.068 1.806q.59.191 1.169.411c5.725 2.224 10.968 9.056 9.885 10.288-.59.567-.946-.787-4.883-1.149-2.608-.24-5.282.576-8.798.948 1.207 1.509 1.787 2.949 1.77 3.734-.135 1.827-6.037 7.877-13.141 7.167.372.585.553 1.165.827 1.844 2.963 9.968-2.123 22.962-3.765 23.221-.727.147-3.189-1.235-5.974-3.644-.357.064-.764.159-1.221.296-.765.249-1.656.612-2.668 1.144l-.11-.001-.181.093c-1.82 1.026-3.751 3.154-5.917 4.701q-.383.548-.804 1.109c.641 1.192.916 2.106.676 2.45-.297.445-1.64.94-3.62 1.033-2.905 3.057-6.538 5.853-10.602 7.172-3.277 1.025-6.2.751-8.622-.084q-.361.367-.726.69l-.535.581c2.2 4.931 5.062 10.467 4.637 14.789-.722 6.899-5.838 13.333-5.864 13.365-.04-.02-7.812-4.013-10.728-11.363q-.84.74-1.769 1.416c2.718 6.407.714 11.469-.538 12.112-1.081.556-6.054-1.071-9.318-5.317q-1.815 1.871-3.631 3.725c1.229 2.14 1.878 4.035 1.534 4.459l-.193-.002c-.383.367-1.838.692-3.831.439.186.768.41 1.5.697 2.197 1.739 4.17 3.38 3.912 2.878 4.961a.7.7 0 0 1-.248.275 29 29 0 0 1 2.474 3.617c2.77 4.84 1.292 7.79 1.278 7.819-.019-.013-1.824-1.283-6.136-1.076-3.257.157-7.976 2.677-11.661 1.482q-.037.68-.138 1.378c-.795 5.887-7.063 12.093-10.791 15.315 2.49.762 4.598 1.939 6.174 3.012 2.054-1.253 8.83-.033 13.278 4.259 5.186 5.005 8.616 15.656 7.535 16.695-1.18 1.132-9.152.503-16.023-6.65-6.212-6.466-5.42-12.129-5.39-13.477q.004-.031.01-.061c-1.301-.883-2.83-1.542-4.765-2.27q.164.335.269.611c1.002 2.618-3.422 11.582-10.964 13.367-6.978 1.607-15.073-.643-20.015-2.937.311 1.417.269 2.565-.003 3.143-.395.906-3.021 2.428-6.372 2.992q-.969 1.016-1.931 2.032c1.523 1.14 2.97 2.596 4.063 4.329 3.913 6.039 4.929 17.127 3.66 17.969-1.363.745-9.013-1.514-14.125-9.982a24 24 0 0 1-1.767-3.614q-.745.801-1.488 1.604c-.981 3.288-2.888 7.476-6.542 10.336 4.125 3.633 7.341 6.659 9.651 7.648-4.966 3.382-13.092 6.121-21.022 2.807a27 27 0 0 1-2.675 1.803q-1.642 1.82-3.291 3.651c.009.893-.077 1.827-.286 2.878-.421 1.9-1.115 3.823-1.951 5.665.401 1.697.976 2.057.429 2.583-.316.303-.902.229-1.649-.121a45 45 0 0 1-.779 1.388c.867.001 1.696-.053 2.502-.206 4.154-.789 4.281-2.23 5.038-1.639 1.42 1.086-2.689 8.804-8.234 11.685-5.726 3.006-12.568 3.855-18.105 3.193l-1.035 1.127a76 76 0 0 1 6.208 5.29q.014-.017.029-.032c.982-.944 11.675-1.612 17.053 3.396 4.339 4.123 2.384 10.15 1.385 11.864-1.097 1.808-7.871 3.606-11.845.453-2.003-1.608-3.528-3.879-4.625-6.198-1.113.237-2.496.374-3.994.37a12 12 0 0 1-.254 2.296c-1.933 9.746-11.668 13.518-11.737 13.544q.132-.568.257-1.126a9.8 9.8 0 0 1-1.836.91c-.665.27-1.391.485-2.183.628-.79.131-1.592.19-2.398.186l.108.211c.087.063.159.137.256.238a.8.8 0 0 0-.214-.152c1.271 2.567 1.903 5.35 1.91 7.165 1.101.476 2.154.863 3.233 1.067 3.834.649 4.436-.494 4.902.188.748 1.307-4.049 5.675-9.216 7.049a613 613 0 0 0 4.888 4.249c1.472.815 3.858 2.64 7.391 3.099 5.373.677 7.989-.141 11.471-1.039 2.808-.814 5.59-.473 5.861.398s-5.071 7.701-13.428 7.065c-8.156-.548-12.348-6.187-12.912-8.679a431 431 0 0 1-5.392-4.708 26 26 0 0 1-3.32.158l.21.492c2.782 2.355 7.634 7.03 8.354 11.533l-.098.094c.376 2.595-.18 4.945-1.109 6.942a147 147 0 0 0 3.112 3.871c2.634-1.306 12.954-2.739 19.967 1.24 5.513 3.182 6.787 11.194 5.4 13.093-.839 1.148-3.209 3.286-6.446 4.113 6.349 4.891 13.411 9.14 21.199 12.238l.006-.004.006.009.145.056c1.169-.695 5.712-2.89 13.122.181 8.202 3.425 11.234 10.122 10.727 11.363-.606 1.337-10.718 1.822-16.624-.982-4.234-2.01-7.187-6.122-7.804-8.632-7.405-2.916-14.168-6.847-20.298-11.377 1.064 2.164 2.067 4.455 2.807 6.712 3.354.135 11.608 1.281 15.378 9.071 4.604 9.71-.389 18.279-5.005 22.717-.504-3.474-4.801-9.521-8.387-17.384-3.832-8.372-3.101-10.332-3.589-14.047-1.011-3.173-2.628-6.478-4.09-9.281l-.381-.302a10.8 10.8 0 0 1-3.592-.673c.432 1.576.364 2.86.163 3.495a1 1 0 0 1-.08.17l.076.022c-.615 1.721-8.059 3.411-14.533.211-4.885-2.43-9.121-6.363-11.918-9.679 2.082 4.147 4.052 7.573 5.553 10.331.589 1.06 1.14 2 1.619 2.837 1.865-.429 5.675.176 8.29 6.298 2.472 5.917.737 10.601-.429 11.156-1.073.654-7.179-1.769-9.655-7.494-2.149-4.698-1.321-7.53.144-8.989-.462-.863-.998-1.851-1.622-2.973-2.317-4.181-5.567-9.727-8.685-16.907a692 692 0 0 1-2.554-5.797c-.125 2.642-.914 5.035-1.654 6.726 1.494 1.725 4.235 6.81 2.939 13.484-1.428 8.347-8.885 10.614-12.626 10.064-3.262-.446-5.926-1.843-5.272-5.488.226-1.535 3.97-5.701 7.125-9.299 3.161-3.46 5.306-6.992 6.351-8.56 1.061-2.184 2.557-6.254 1.647-10.349-.479-1.099-.986-2.261-1.513-3.477-3.031 1.84-6.668 3.042-10.843 2.957-1.398.426-2.783.606-3.98.121a2.13 2.13 0 0 1-1.01-.507c2.124 5.791 1.874 10.356 3.606 13.837 1.86 3.737 3.313 3.753 3.158 4.535.021.123-.005.258-.088.431l-.393.378-.084-.087c-1.939 1.016-10.017-1.201-14.131-5.663l.099-.095a31 31 0 0 1-3.831-5.179c-2.677 1.654-8.173 3.388-15.152 1.94a13 13 0 0 1-1.209-.329 1927 1927 0 0 1-9.969 9.49c1.196.105 2.155.469 2.589 1.17l.015.032a1.4 1.4 0 0 0-.106-.322l.283.294c.717 1.301-1.097 2.7-4.261 5.495.131 2.309.274 4.487-.258 7.895-.885 5.548-3.88 6.945-3.899 6.954-.002-.007-.27-1.064-1.621-2.585-1.473 4.771-4.244 9.194-6.771 12.256 2.32 2.606 1.086 5.68-1.324 8.338-.926 1.062-2.355 2.158-4.119 2.99-1.87 4.528-5.056 9.754-9.685 12.73-7.219 4.678-14.062.703-15.851-1.159-.446-.465-.758-1.376-.882-2.552a9 9 0 0 1-1.096.493c-.689.236-1.87.393-3.213.2 1.828 1.203 2.813 2.342 2.768 2.68q-.01.041-.075.102c1.935.326 4.098 1.571 6.549 2.739-.614.122-1.577.776-2.944 1.563 3.586 1.983 6.011 2.202 12.911 9.76 6.586 7.052 11.051 14.256 14.374 16.339-6.605 2.957-17.794 4.29-25.78-4.808a18 18 0 0 1-.643-.777c-1.677 6.211-4.637 9.899-5.311 13.851-.769 4.509.659 5.21-.314 5.769-1.658 1.028-7.854-6.209-8.579-12.863-1.548-13.214 6.162-27.412 12.616-27.773q.143-.007.294.119a11 11 0 0 1 3.092-1.265c-2.676-1.23-5.124-1.852-7.079-2.13-1.446.822-4.498 2.357-7.962 4.604-1.57 6.365-5.905 11.897-6.906 11.801l-.027-.028a.6.6 0 0 1-.103.025h-.062c-.464-.046-1.738-1.26-3.138-3.182.262.863.379 1.619.413 2.255q.26.155.429.306c3.106 3.234 1.597 6.383-1.346 9.023-.638.613-1.457 1.213-2.417 1.737.165 1.132.064 2.117-.444 2.879l.07-.049s-.367.678-1.353 1.258c.757 1.828 1.403 3.781 1.783 5.68 1.298 6.857-.531 11.444.251 15.404.688 3.862 2.128 3.986 1.535 4.744-.99 1.329-8.316-2.56-10.899-7.804-3.028-5.865-3.678-12.958-2.705-18.368a68 68 0 0 1-2.398 4.19c1.695 1.162 1.716 7.992-1.803 13.087-3.867 5.414-13.207 10.245-14.34 9.261-1.134-.984-1.747-8.309 3.892-15.615 5.144-6.641 10.44-6.832 11.692-6.905a1 1 0 0 1 .24.027c.675-1.08 1.052-2.94 2.099-4.959-1.559-.815-2.805-1.677-4.492-2.423-2.229-1.092-6.637-1.698-8.884-3.749a15.4 15.4 0 0 1-1.598 1.581c-.117 1.881-.495 3.38-1.01 3.977l.004-.001.095.098a1.4 1.4 0 0 1-.488.28c-.24-.005-.378-.073-.492-.22-.302-.248-.375-.889-1.205-2.092-3.461 1.703-6.777 1.63-7.896.979-.677-.424-1.455-2.152-1.806-4.442-3.019.404-6.712.287-9.724-.873-3.829-1.498-7.321-3.805-10.238-6.457-1.833 2.148-3.701 3.618-4.226 3.398-.755-.268-2.041-3.519-1.417-7.878-2.156 1.748-4.334 3.146-6.164 4.109.726 5.045 1.371 10.063.681 11.533-1.723 4.106-5.275 3.751-8.991 2.046-4.191-2.002-10.2-9.044-6.247-18.499l-.662-.493a21.06 21.06 0 0 1 5.651-7.884 10 10 0 0 1-3.718.565c-2.801 1.074-4.948 1.44-5.517 1.024l-.036-.028c-.353-.277-.707-1.336-.953-2.915-4.968-2.721-6.864-7.34-6.589-8.87.157-.878 1.783-2.555 4.207-3.86-.006-2.429.542-5.101 2.094-7.476-.577-.011-1.346-.025-2.017-.134-10.256-1.826-19.366-12.292-18.852-13.92.477-1.503 11.482-7.332 21.154-6.083-2.667-5.869-2.177-13.103-2.177-13.103l.192.004.148-.017.071-.007-.12-.07c.024-.069.162-.052.395.046a27 27 0 0 1 2.992-.069c1.724.034 3.956.23 6.284.86a9 9 0 0 1-1.268-1.829l-.223-.093c-2.773.132-6.046.266-8.916.831-2.935 1.162-4.24 2.501-12.025 3.097-7.42.536-13.756-.159-16.567.847 1.366-5.46 5.946-12.69 15.097-13.194 7.41-.397 11.782 5.446 13.275 7.881a67 67 0 0 1 6.292-.706c-5.926-2.715-11.662-6.146-16.91-10.466-2.065.708-6.643.275-10.044-2.236-4.573-3.212-8.305-10.882-7.667-12.026l.033-.05c.884-.849 7.056-1.505 13.109 3.419 4.999 3.951 5.525 7.978 5.635 9.465 5.576 4.59 11.725 8.155 18.067 10.914-.593-2.649-.03-5.162.438-6.264l.004-.193.073.058c1.004-1.561 5.979-3.429 10.184-2.09.166-1.635.19-2.999-.026-4.033a24.8 24.8 0 0 1 4.389 2.503c.935-4.453 3.545-7.254 6.273-8.933-5.847-.698-13.592-.587-17.669-3.421-5.687-3.954-8.798-11.514-8.8-11.52 0 0 10.739-7.307 20.255-2.319 3.519 1.845 6.331 5.98 8.338 9.894a12.3 12.3 0 0 1-.795-2.632c-1.506-7.047.259-15.971 1.584-19.165-3.395-3.633-5.735-7.588-5.232-8.429.798-1.332 8.632-3.208 17.185 1.763a23.7 23.7 0 0 1 3.588 2.532c3.533-2.676 7.687-4.542 11.756-5.629.778-1.803 1.267-3.317 1.947-4.949a83 83 0 0 1-3-1.774.4.4 0 0 1-.036.075l.095.098c-.798 1.332-11.922 4.109-18.762-.06-5.508-3.375-4.788-10.098-4.068-12.298.815-2.102 7.428-5.444 12.38-3.042 6.734 3.438 10.786 13.071 10.432 15.075.722.45 1.848.863 3.108 1.575.194-.451.405-.913.642-1.394-.217-.95-.306-1.979-.304-3.027-2.141-3.057-3.764-6.606-3.719-10.309.014-4.618 1.822-8.378 3.856-11.15-.023-3.365 1.091-7.146 4.346-10.301a17.6 17.6 0 0 1 2.495-2.026 22 22 0 0 1 8.672-3.471 8.3 8.3 0 0 1-1.604-.642c-4.118.796-4.261 2.125-4.993 1.553-.667-.521-.129-2.417 1.203-4.622l-.234-.269c-4.878-5.865-3.867-12.68-2.492-14.002.629-.604 3.051-1.104 5.92-.815.666.048 1.365.141 2.077.29a18 18 0 0 0-1.838-.264c2.776.32 5.929 1.386 8.27 3.804.519-1.439 1.134-2.327 1.143-2.341l.055.058c.115-.226.209-.397.27-.502l.005.007a23 23 0 0 1 1.803-2.832c-3.295-4.453-5.134-9.022-5.019-10.474a1.3 1.3 0 0 1 .047-.422l-.034-.036c.432-.685 3.928-1.623 8.434-1.799.14-2.463 2.342-4.086 5.186-5.262 4.367-1.748 13.597-1.383 17.825 7.934q.119.26.23.52a320 320 0 0 1 7.454-7.78c1.768-3.816 3.594-7.186 4.962-9.991-2.91.186-5.043-.027-5.063-.029-.005-.052-1.099-12.464 7.326-18.513-.058-5.222.992-10.081 1.946-10.381 1.194-.275 5.542 2.031 8.787 7.457 3.181-.096 6.291.211 8.555.565-1.007-2.425-1.633-4.65-1.883-6.484-2.198-.714-5.825-6.653-5.502-12.806.25-7.213 6.13-16.824 7.665-16.605 1.535.221 6.402 6.664 5.523 16.368-.864 8.935-5.55 12.121-6.626 12.967l1.432 5.03c.007-.017.206-.572.303-.667.936-1.656 5.533-3.373 10.346-2.969-.833-1.101-1.495-2.392-1.828-3.899-.421-2.04.026-4.474.774-6.729-.654-1.026-.967-1.827-.779-2.125l.174.003q.017-.014.037-.029l.007-.011c.194-.262.808-.569 1.732-.782a31 31 0 0 1 1.045-2.068c-3.308-4.053-5.179-9.612-4.065-10.223.778-.37.75.976 4.371 2.583 1.933.786 4.061.927 6.555 1.289q.098-.493.206-.955c-.969-2.517-1.352-4.591-.888-5.037.958-.92 7.277-.551 12.826 4.909.985-2.053 2.311-4.066 3.93-5.56 2.485-2.293 5.384-4.142 8.389-5.541a22.1 22.1 0 0 1 5.36-4.748c-1.817.198-4.006-.168-6.57-1.512a15.3 15.3 0 0 1-4.128-3.089c-3.222-3.354-4.001-7.371-3.55-8.86l-.054-.032q.014-.013.065-.004.016-.048.033-.091c.307-.724 2.118-2.026 4.532-2.879.589-1.24 1.679-2.39 3.011-3.43 1.663-1.338 4.478-2.553 7.683-2.729 2.077-8.854 8.847-16.665 10.332-16.474.273.044.713.363 1.254.907 1.405 1.383 3.564 4.414 5.298 8.194a38 38 0 0 1 7.551-.544c-1.278-1.211-2.487-2.254-3.83-2.977-3.994-2.191-5.075-1.152-5.247-2.118-.441-1.837 8.485-5.328 14.996-3.86 7.141 1.675 13.637 6.042 17.723 10.663a80 80 0 0 1 1.174-3.383 108 108 0 0 1 2.548-6.214c-2.348.132-4.211.092-5.008-.28-4.003-1.807-3.54-5.455-1.732-9.079q.153-.291.337-.59c-2.669-2.269-4.362-4.242-4.266-4.68.054-.244.458-.531 1.135-.812 2.251-.987 7.818-2.148 13.551-1.032 2.414-.256 5.12.122 8.029 1.496a22.6 22.6 0 0 1 4.596 2.857 265 265 0 0 0 2.525-3.207c-2.843-.691-4.835-1.526-5.047-2.211-.167-.539.311-2.083 1.33-4.097-6.453-4.745-10.815-11.418-10.306-12.719.373-.95 4.453-3.092 9.762-4.398 1.314-5.817 3.701-10.34 4.795-10.539.906-.164 4.182 1.707 7.64 4.876 3.327-1.282 7.199-1.27 10.561-.729-.588-1.37-1.096-2.727-1.448-4.039a11 11 0 0 0-.59 0c-4.522.012-4.94 1.544-5.693.76-.765-.796.88-3.655 3.683-6.304-8.114-4.216-14.103-7.142-16.392-8.264-1.653-.483-4.133-1.318-7.265-.913-5.402.67-7.645 2.072-10.764 3.939-2.533 1.493-5.234 1.828-5.893 1.142 0 0 .048-.013.148-.05q-.026-.022-.05-.045c-.658-.687 2.976-8.703 11.284-10.281a17.6 17.6 0 0 1 3.589-.308 9 9 0 0 1-4.263-3.008c-5.019-6.279-3.305-17.586-2.208-18.56l-.046-.128a.5.5 0 0 1 .099-.054 98 98 0 0 1-5.993-8.561l-.577.174c.784 6.363-.633 14.862-4.849 21.623-3.615 5.636-12.227 9.464-13.258 7.814-.626-.93.968-.927 2.158-5.256.385-1.4.474-2.907.495-4.566-3.181 1.258-6.228 1.21-7.815-2.473-.562-1.246-.22-5.479.337-10.002l-1.523.499a1.2 1.2 0 0 1-.065.421c-.357.858-3.656 1.924-8.072 2.332q-1.543.54-3.024 1.086.724.834 1.396 1.813c5.931 8.405 1.47 16.514-2.252 19.445-3.173 2.444-6.598 3.39-9.181-.156-.462-.641-.8-2.085-1.061-3.957-3.221 1.378-6.638 1.281-9.387.775 2.495 2.197 4.859 5.819 4.254 10.904-1.138 10.088-11.954 19.043-13.724 18.96l-.129.047c-1.641-.132-8.13-12.092-6.212-22.027a11.1 11.1 0 0 1 1.206-3.289c-3.767 1.422-8.07 1.716-10.422 1.232-3.151 1.876-6.392 3.728-9.864 5.542 7.485 7.816 8.236 22.415 7.061 23.816l.046.128c-1.345 1.494-16.22-.798-23.781-8.904l-.023-.026c-.161.169-.457.326-.867.467-2.762 1.035-11.535 1.219-19.037-1.804q-.873.21-1.731.403-.134.714-.351 1.385-.034.098-.069.194c-.341 7.871-3.434 15.08-4.684 15.532-.524.235-2.066-.373-4.05-1.634.111 7.816-.603 14.426.506 17.5-6.941-1.975-16.22-8.018-16.588-19.874-.125-4.562 1.537-8.182 3.664-10.925a48 48 0 0 1-2.016-.166 93 93 0 0 1-6.049 7.74c.832 2.69.081 8.482-3.172 12.87-4.429 5.787-14.745 10.517-15.847 9.47a1 1 0 0 1-.07-.066l-.058.112c-1.23-1.002-1.553-9.119 4.814-16.759 2.921-3.553 5.852-5.312 8.218-6.176 1.847-.695 3.363-.843 4.281-.863a90 90 0 0 0 5.3-6.675c-2.88-.476-5.529-1.228-7.961-2.254-2.712 8.749-10.719 16.189-12.247 16.116-1.769-.085-8.607-12.209-7.084-22.436.026-.731.529-1.346.729-1.996-1.769.491-3.53.515-5.178.249-1.209.035-2.343.105-3.297.352-4.271.964-5.529 2.707-5.537 2.718-.019-.019-2.337-2.5-.963-7.886 1.661-6.232 3.655-7.529 5.608-14.156.773-2.696 1.251-4.995 1.625-6.862-1.132-2.134-1.752-4.355-1.9-6.108-1.83-.582-2.441-.271-2.554-.888-.075-.451.625-1.009 1.802-1.536a12 12 0 0 1-.565-.496c-1.177.297-2.187.372-3.112.743q0 .044-.006.09l-.082.174c-.097 1.335-.698 6.897-8.116 12.027-8.141 5.535-16.098 4.359-16.99 3.092-.89-1.269 4.739-10.953 10.895-14.762 5.251-3.248 12.149-3.098 13.888-1.486a25 25 0 0 1 2.568-.88c-.931-1.109-1.457-2.201-1.415-2.913.053-.879.457-2.458 1.391-4.048a38 38 0 0 1-1.058-2.061c-6.13-.347-12.409-.034-18.679 1.193-.722 1.19-3.099 4.62-9.599 5.748-7.638 1.309-12.933-2.125-13.221-3.321-.24-1.069 6.829-6.363 12.545-6.98 4.319-.466 8.617 1.303 10.032 2.91 6.095-1.205 12.194-1.563 18.16-1.298a25 25 0 0 1-.449-1.216 46 46 0 0 1-3.061-2.204c-2.62 1.458-9.124 4.26-15.32.454-7.828-4.832-8.29-13.332-6.911-18.741 1.949 2.187 7.865 4.531 14.125 8.629 6.827 4.471 6.996 6.144 9.256 8.795q.64.507 1.328 1c-.29-1.306-.417-2.594-.316-3.819.908-10.728 12.761-16.013 12.761-16.013s4.598 6.72 5.064 13.63c.031.729-.036 1.494-.18 2.285q.318-.561.653-1.117c-.245-.755-.439-1.03-.088-1.307.174-.182.492-.168.899-.002 1.858-2.901 4.025-5.689 6.452-8.37l.248-.502c-3.048-4.105-3.389-9.379-2.59-10.554 1.164-1.572 7.531-3.871 14.184-.269 1.941-5.025 4.669-7.914 5.58-11.191 1.072-3.853-.194-4.552.657-5.003.746-.341 2.344 1.176 3.767 3.515a33 33 0 0 1 1.964-1.581q-.15-.066-.303-.137c-10.41-4.768-16.52-18.884-15.83-20.581.671-1.641 14.475-3.814 24.346.947-.471-6.522 4.032-11.894 5.426-11.971 1.42-.078 5.808 3.251 6.623 10.323.766 6.542-1.972 9.341-4.013 10.258.522 1.74 1.396 4.207 3.327 6.913l.945-.459c-.279-2.683.2-5.185.965-6.897.657-1.392 1.615-2.75 2.584-3.677l-.04.194q.393-.35.822-.61a5 5 0 0 0-.654.37l.082-.174c1.436-1.24 3.323-1.631 5.635-.442.534.285 1.287 1.092 2.164 2.225 1.624-.28 2.999.117 4.21.883 1.354-2.13 3.289-4.34 6.017-5.966-.035-2.733.527-4.996 1.211-6.58-1.517-.627-2.949-1.447-4.148-2.494-3.829-3.385-3.26-10.234-1.743-11.649 1.518-1.414 7.091-4.435 12.002-.861 2.66 1.94 4.388 5.043 5.428 8.018 3.092-2.134 6.137-3.151 6.773-2.307l-.046.01a.65.65 0 0 1 .267.199c.753.884-.841.882-1.811 5.42-.399 1.733-.32 3.607-.189 5.721a4.7 4.7 0 0 1 1.4 1.314q.676-.262 1.345-.523c-1.104-4.913-1.158-10.777.49-16.133 1.754-5.976 8.649-11.351 9.926-10.223.661.628-.666.963-.738 5.177.102 4.297 2.706 8.703 2.624 16.099l-.01.281q2.307-.915 4.482-1.801c.388-1.088.81-2.072 1.225-2.989-3.155-7.368-3.504-15.315-2.615-16.247 1.205-1.262 13.849.992 21.714 7.955 1.511-2.845 3.92-6.328 6.774-7.682a10 10 0 0 1 1.562-.585c.759-.385 1.368-.542 1.689-.444q.1.03.212.094c2.212-.199 4.305.302 5.992.952l-.062-.082.007-.007a10.2 10.2 0 0 1-1.448-3.394c-.344-1.498-.349-3.217.246-5.124l-.046-.128c.308-1 .734-1.965 1.243-2.889-.938-.774-1.561-1.173-1.473-1.361.057-.12 1.218-.518 2.921-.879 3.747-5.039 9.531-8.317 10.526-8.015l-.033.077a.6.6 0 0 1 .207.005c.279.06.658.611 1.045 1.516q.354-.223.716-.393c1.155-.609 2.354-.834 3.567-.482.855.219 1.712.716 2.568 1.568q.175.18.357.465.163-.644.356-1.241c-3.381-2.341-7.057-5.028-10.518-7.617-1.888-.575-4.863-.823-7.318-.923l.01.03c-.064-.004-11.492-.769-31.021 5.553 0 0 2.625-9.181 11.35-11.894 6.482-2.015 14.163 2.392 17.685 4.792 1.8.04 4.419.176 6.729.513-5.492-4.156-10.043-7.74-11.336-8.742-3.087-1.238-7.8-3.571-9.53-6.797-.22-.423-.402-.851-.554-1.279-2.227-6.015 1.997-12.386 1.997-12.386 0 .002-.002.072.001.201l.045-.073c.039.017 5.146 2.206 7.766 5.866 2.34 3.269 1.599 10.395 2.736 14.193a584 584 0 0 0 8.51 6.57 12.9 12.9 0 0 1-1.174-4.895c-.307-9.278 6.635-14.526 11.89-16.421v.002l.129-.048c-.708 2.856.609 9.314.701 16.792.059 7.32-.971 9.063-1.872 11.748a313 313 0 0 0 4.41 3.134c1.455-3.337 3.485-5.188 4.285-5.209.227-.005.531.238.875.675-.06-1.418.248-2.84 1.545-4.003 3.502-3.14 7.352 1.106 10.13 1.982l-.046-.128c.66.208 1.243.337 1.748.414.208-1.071.487-2.101.807-3.042a1.4 1.4 0 0 1-.381-.179c-.731-.507-1.088-1.071-1.171-1.667-.696-3.309 3.966-6.284 5.627-8.462.939-1.231 1.499-2.371 2.341-3.581-1.578-1.123-2.574-2.404-3.513-2.962a.8.8 0 0 1-.145.085l.128-.046c-.98.498-5.2 2.452-11.695-.695-7.319-3.427-9.616-9.387-9.171-10.56.447-1.172 9.408-1.225 14.601 1.525 4.74 2.509 7.394 7.935 6.493 9.453.9.536 2.156 1.325 3.628 2.365-2.852-3.771-5.129-9.484-5.117-15.212.052-5.074 4.179-10.896 5.399-10.325.697.326-.364.999.662 4.24.897 3.288 4.064 6.046 5.755 11.936.444 1.554.704 3.269.827 4.947.986.038 1.529.402 1.542.41a4 4 0 0 0-.194-.023c1.282.597 1.843 2.298 2.119 4.445 1.438.097 3.001.308 4.511.658 1.153-.665 3.031-1.363 5.889-1.435q.655-.003 1.251.016c.48-2.912 2.584-6.186 4.562-9.19l.023-.035c-.503-6.215 1.815-12.65 2.767-13.105.47-.223 2.122.399 4.141 1.669-.605-1.965-.663-3.467-.336-4.118l-.073-.052c.098-.149.295-.268.577-.36 1.52-.606 6.165-.207 11.146 1.158-.433-1.66-.564-2.771-.567-2.798.012-.004 6.545-2.119 12.744-1.273 1.255-2.841 2.827-4.566 3.715-4.83l.073-.029q.054-.154.165-.178.029-.01.058.106l.071-.152c.947-.096 3.236 3.011 5.12 7.088.457-2.711.082-4.485.411-4.605.307-.007 4.438 2.852 7.152 6.508a14 14 0 0 1 1.891-3.124c5.295-6.756 15.465-9.809 20.695-10.361-5.983-6.016-6.612-14.445-5.523-20.243l.102.099.026-.145.081.246.013.011c2.93 2.697 10.81 5.4 18.982 10.053 5.051 2.884 7.477 4.884 9.149 6.619q1.674-.568 3.326-1.119-.372-.391-.772-.764c-.092-.256-.184-.512-.102-.686.256-.092.513-.184.687-.103a20 20 0 0 1 1.143 1.16c-1.275-2.628-1.906-6.084-.45-10.076 2.456-6.563 8.941-11.758 13.485-14.33 1.333-.766 2.521-1.299 3.397-1.579.396-.877.827-1.702 1.275-2.464l-.07-.138c.083-.174.293-.395.375-.569q.046.103.096.208l.078-.126c.735 1.665 2.503 3.722 4.786 6.191q.378-.005.792.032c1.38.118 4.453 2.099 7.815 4.488.24-.796.55-1.294.833-1.396.885-.45 5.713 3.463 8.048 7.55l.312.188a669 669 0 0 1 5.853-1.503c-5.203-4.229-9.845-15.319-8.69-25.848.615-6.722 6.865-13.887 8.526-12.898.917.536-.575 1.219.307 5.668.656 3.914 3.624 7.542 5.332 13.697q.256-.326.538-.647c7.885-9.054 19.03-7.873 25.735-4.946-1.769 1.119-3.937 3.854-6.639 7.286q.439-.271.81-.562c3.5-2.702 3.89-4.857 3.892-4.87.032.013 3.051 1.243 4.168 6.731.66 3.689.51 5.932.462 8.494l3.242-.69c2.362-2.213 5.076-4.027 7.65-5.414-.806-1.243-1.284-2.265-1.393-2.834-.065-.256-.077-.441-.032-.537.113-.192.727-.354 1.698-.457a9 9 0 0 0-.17-.527c-1.337-3.707-2.675-3.802-2.22-4.544.743-1.001 6.474 1.475 10.275 5.282 2.222.265 4.6.706 6.87 1.384 2.344-.723 4.669-.983 6.599-1.036a18 18 0 0 1 2.85-3.935c-.638-3.284-.048-6.435.953-8.45.784-1.438 1.743-2.796 2.758-3.595l-.013.063a6 6 0 0 1 .338-.263 5 5 0 0 0-.325.2l.082-.174q.309-.231.633-.416c-1.214-3.208.196-7.142 1.454-7.847 1.447-.811 6.198-2.091 9.212 1.444 3.896 4.373 2.973 12.651 2.214 13.358l-.101.037c.645.746 1.639 1.936 2.778 3.451a7 7 0 0 1 1.202-.006l.634-.285c-.108-4.101.84-8.889 3.142-12.891.564-.985 1.334-1.897 2.187-2.704a31 31 0 0 1 1.535-3.262l.303-.541c1.444-2.576 3.859-4.776 6.227-6.328.683-2.355 1.634-3.953 2.407-3.862.707.123.448.656.933 2.076 1.242-.506 2.289-.732 2.924-.619l-.033-.092q.454.053.523.245l.028.044a.6.6 0 0 1 .192.165l-.104.02.009.037c.326.687-.71.944-1.62 3.623 2.13 2.731 5.612 4.943 9.153 8.792l1.796-1.103.027-.069.013-.055c.78-3.457.206-5.85.589-5.99.115-.041.917.429 2.017 1.256a20 20 0 0 1 1.832-2.144 93 93 0 0 1-1.525-1.105c-2.468-1.902-4.644-2.683-5.136-2.845q-.058.063-.058.095l-.046-.127-.047-.128c-.01-.43 8.398-5.628 13.899-4.434.78.174 1.503.433 2.171.755.966.444 1.821 1.02 2.574 1.667a25 25 0 0 1 4.009-.455c.64-1.297 1.626-2.561 3.099-3.641 1.118-.824 2.372-1.471 3.686-1.974.046-3.42.006-6.2-.521-8l-.004-.016-.186-.181q.071.02.143.042l-.044-.136c2.353.66 4.98 1.785 7.446 3.447.184-1.065.425-2.075.708-3.009.663.84 1.737 1.707 3.107 2.645-.654-2.444-.774-4.208-.774-4.208.024-.006 2.882-.721 6.592-.88-1.246-4.309-1.242-8.284-.706-8.897.745-.852 7.791.07 13.341 3.528l.429-.25.01-.014a11 11 0 0 1 2.048-2.264c-.4.037-.75.061-.974.056l-.136-.009a.3.3 0 0 1-.014-.09c-.64.02-1.288 0-1.929-.076a6.5 6.5 0 0 1-1.087-.257l-.169-.012c-9.843-.784-15.281-6.623-15.276-8.214.007-1.591 10.551-5.681 17.682-4.786 3.197.342 6.06 1.696 8.117 3.249.658-1.057 1.576-2.067 2.835-2.932l.254-.17-.045-.127c1.465-.964 3.129-1.638 4.846-2.09 1.24-1.622 2.201-2.61 2.204-2.614.011.007.812.528 1.959 1.496.207-.516.43-1.019.673-1.5 1.002-4.293 2.452-7.787 3.526-8.753.207-.212.402-.335.579-.357l.013.088c.729-.005 2.049.714 3.543 2.127-.244-2.373-.069-4.13.34-4.452.83-.652 7.625.12 12.974 3.325l.041-.004c1.458-.18 2.966-.36 4.432-.45 2.868-3.522 6.885-5.178 10.414-5.938q.13-.502.281-.997c-2.23-2.485-5.396-3.706-7.358-4.259-1.53-.16-5.447-.803-10.024-.756-4.434.154-9.392.064-10.658-.635-2.927-1.69-2.302-4.37-.595-6.864 1.953-3.015 7.855-6.732 14.499-2.772 5.182 3.089 7.073 7.804 7.455 9.938 1.582.464 3.732 1.302 5.685 2.76a484 484 0 0 1-3.315-7.048 21 21 0 0 1-1.575-1.287c-4.531-4.126-5.6-8.188-8.149-10.449-2.452-2.355-3.524-1.702-3.508-2.472.021-.935 3.428-1.76 7.04-1.439l-.446-1.238c-.705.079-1.491-.021-2.309-.414-1.39-.645-2.851-2.088-4.071-4.823-2.357-4.985-.577-10.393.474-11.127l-.006-.017.153-.056.03-.01c1.227-.349 5.311 1.214 7.895 6.396 2.663 5.355.884 8.33-.512 9.416l.785 2.174c.914.199 1.803.483 2.614.874q.539.265 1.061.558c.135-1.592.38-3.198.773-4.757 1.007-4.162 3.686-7.322 5.88-8.893 1.025-2.202 2.103-3.708 2.65-3.655 1.249.12 5.573 4.821 5.402 12.901-.057 7.217-3.678 10.134-4.559 10.791l.098-.095a.8.8 0 0 1-.14.093c.085 1.09.792 2.55 1.099 4.462 1.339-.2 2.52-.218 3.881-.448a25.9 25.9 0 0 1-1.079-7.794l.078.15c2.595 1.808 8.795 3.008 16.008 5.179-.188-2.8-.654-6.22 2.551-7.61-1.234-.745-2.547-1.73-3.898-3.034-5.131-4.938-6.514-10.457-6.398-13.233-2.466-1.496-4.465-2.649-5.89-2.962l.1-.094h-.002c4.027-3.872 11.807-7.769 19.989-3.382a12.9 12.9 0 0 1 3.868 3.22 590 590 0 0 0-2.119-10.54c-2.902-2.703-9.617-5.196-11.511-8.742-2.128-3.986-1.817-9.562-1.817-9.562l.085-.008a5 5 0 0 0-.18-.09s7.583-.963 11.988 3.698q.477.488.901 1.065c2.125 2.98 2.129 8.238 1.872 11.553.325 1.604 1.521 7.271 2.813 14.037.722-2.22 1.761-4.628 2.523-6.26-.591-4.22-1.139-13.058 3.54-17.976 6.298-6.62 15.691-4.906 15.691-4.906-14.313 14.699-18.695 25.28-18.723 25.35l-.023-.023c-.999 2.245-2.094 5.022-2.415 6.969.306 1.649.607 3.335.9 5.017q.323-1.341.783-2.646c1.938-5.466 8.717-10.365 9.865-9.19.706.755-.667.963-.831 4.921-.05.677-.019 1.362.06 2.068 1.735-.757 3.716-1.42 5.773-1.795 1.078-1.367 1.95-2.232 2.083-2.23.208.005.289.74.568 1.924a15.4 15.4 0 0 1 3.14.166l.095.099c1.973.31 3.512 1.077 4.702 2.05a10.2 10.2 0 0 1 2.401 2.801l.009-.004.046.093c.165-1.8.643-3.899 1.802-5.794a1 1 0 0 1 .01-.231c.026-.158.133-.348.311-.559-.519-2.361-.581-4.196-.581-4.218l.087-.017-.133-.11s4.169-.94 8.524.173c1.389-.243 2.79-.36 4.043-.397-2.757-10.136.825-22.47 2.49-22.99 1.23-.384 8.199 3.45 13.407 9.543 1.006.033 2.074.091 3.221.226a518 518 0 0 0 3.601-3.22l-.256-.116c-6.667-3.203-9.463-7.49-13.269-9.485-3.811-1.803-4.699-.762-4.969-1.633-.445-1.645 7.429-5.444 13.563-4.368 5.532.896 10.764 3.543 14.68 6.71l1.065-.975a4.7 4.7 0 0 1-.557-1.838c-1.837-1.054-3.483-1.954-5.213-2.364-4.498-1.142-5.203.288-5.661-.78a.65.65 0 0 1-.061-.326l-.029.037c-.475-.945 1.786-3.224 5.069-5.051-2.206-2.25-4.222-5.174-4.783-8.419-1.027-5.986 4.15-9.643 6.09-10.377s8.332 1.792 9.671 6.725c.407 1.538.507 3.185.398 4.823 1.723.089 4 .588 6.436 1.83 2.666-1.725 5.504-2.48 8.013-2.75-.15-1.426.104-2.834 1.074-4.166-.627-1.288-1.016-2.32-1.035-2.926-.041-2.599 1.145-4.118 2.892-4.855l.193.004a5 5 0 0 0-.622.42q.424-.27.913-.465l-.193-.05c1.261-.458 2.902-.716 4.441-.688 1.874.073 4.329.752 6.611 2.19l.83-.642c-1.571-2.93-3.395-4.806-4.724-6.046-1.727 1.423-5.448 2.637-10.972-.948-5.979-3.864-7.02-9.273-6.321-10.512.687-1.215 7.498-2.872 13.136.44.106-10.959 8.17-22.37 9.939-22.244 1.825.13 11.775 11.863 11.436 23.31q-.004.168-.012.332a32 32 0 0 1 2.289-1.06c-1.467-2.312-2.119-4.417-1.483-4.935.782-.563.847.883 4.776 1.629 3.342.635 7.141-.53 12.505-.044-.28-7.56 4.601-12.249 6.526-12.597 1.407-.195 5.985 2.447 8.315 6.999h.559c3.479-.989 6.937-1.695 10.362-2.075.031-.439.161-.73.401-.805.404-.193.565.103 1.132.657a53 53 0 0 1 1.291-.09c-.773-.22-1.489-.5-2.129-.85-5.987-3.48-9.974-10.58-9.974-10.58s9.99-8.285 20.01-4.345c1.143.451 2.24 1.137 3.283 1.976a37 37 0 0 0-.309-1.634c-1.375-3.2-2.799-4.094-3.781-12.195-.901-7.427-.382-13.77-1.479-16.485 5.46 1.16 12.877 5.34 13.741 14.499.665 7.241-4.729 11.83-7.197 13.533.257 1.207.458 2.464.619 3.72q.456.457.892.942c2.405-5.466 5.428-10.775 9.21-15.705-.815-1.98-.494-6.617 1.837-10.282M-348.001 782.05c.013.486-.013.988-.091 1.507q.318-.08.645-.158a31 31 0 0 1-.554-1.349m35.092-21.591c.709.17 1.383.37 2.021.59a8 8 0 0 1-.523-.553 16 16 0 0 1-1.498-.037m26.82-22.057q.577.086 1.168.161c1.315.156 2.675.33 4.009.517a40 40 0 0 1-1.724-3.722 820 820 0 0 1-3.453 3.044m82.253-70.479c.892 2.104 1.332 3.772 1.25 3.93-.288.276-2.192-.942-5.675-1.243l1.626 3.781c3.321 1.948 8.109 3.59 10.441 5.67.907.136 1.704.191 2.379.136l-.112.111.206-.013a24 24 0 0 1-1.14 1.8q.063.316.04.647a4 4 0 0 0 .093-.349s.607 3.188-4.349 5.502c-.517.253-1.002.463-1.46.639 2.489 5.757 4.471 10.309 5.508 12.622l.044.099c2.464-.611 11.308-.593 18.892 2.412-1.29-2.21-2.161-4.315-2.566-5.787a147 147 0 0 1-3.733-4.561c-1.98 3.098-4.546 4.969-4.591 5.002l-.198-.187c-.887-.858-4.512-4.568-5.765-8.97-.731-2.567.109-6.055 1.005-9.409a175 175 0 0 1-5.178-8.753c-2.529-.786-4.831-1.857-6.717-3.079m-31.159 22.816c1.041 1.055 1.645 1.794 1.661 1.813a12 12 0 0 1-.396.44q.495.316.958.634a35 35 0 0 1-1.139-3.936zm-152.625-5.199a58 58 0 0 1 1.817 4.216q.424-.543.864-1.043c-.954-.75-1.915-1.816-2.681-3.173m3.424 4.077q.337-.034.621-.038a6 6 0 0 1-.375-.199zm189.728-17.918c.986 1.734 2.06 3.555 3.223 5.439.462-1.812.815-3.492.783-4.848a30 30 0 0 1-4.006-.591m-21.934.851c.168.805.105 1.663-.13 2.546q.7.128 1.46.28c1.551.309 3.056.653 4.505 1.01a68 68 0 0 0 1.42-2.948l-1.296-3.008c-1.145-.108-2.286-.25-3.363-.463q-1.289 1.287-2.596 2.583m-164.114-4.487c.389.637.766 1.312 1.119 2.018q.164-.102.331-.201c.083-.37.188-.763.313-1.17-.578-.164-1.171-.357-1.763-.647m178.896-10.421q.326.73.741 1.631.583-.048 1.182-.079-.889-.827-1.798-1.68zm-149.899-25.245q.2 2.481.457 4.665.442-.739.897-1.49c-.116-1.242-.114-2.263-.008-2.957-.469 0-.919-.078-1.346-.218m181.136-7.373c2.685 3.739 4.128 7.124 6.406 9.337q.096.094.191.183c-.555-2.214-.668-4.001-.397-4.631-1.168-1.116-3.448-2.77-6.2-4.889m-160.536-18.249a30 30 0 0 0-2.705.808c-.702 1.226-2.442 3.707-4.279 6.927a7.3 7.3 0 0 1 1.547-.287l.119-.007a423 423 0 0 1 5.318-7.441m-5.384-1.465a9 9 0 0 1-.784.319c1.896.144 3.239.547 3.7.861q.561-.193 1.189-.379c-.078-.076-.143-.17-.147-.233l-.371-.307a73 73 0 0 1-3.587-.261m6.093.294q-.648.012-1.27.003-.175.236-.291.383a28 28 0 0 1 1.561-.386m-11.707.246.065-.011a9 9 0 0 1-.501-.145q.219.086.436.156m9.865-.237.017-.019h-.042zm185.653-7.506a12 12 0 0 1-.128 1.689c.125-.594.19-1.202.214-1.785zm-140.497-41.209.012.017.032-.031zm14.42-14.827c-1.058 1.477-2.138 3.132-3.252 4.78q1.707-1.495 3.43-2.98a15 15 0 0 1-.178-1.8m36.64-27.831q-.306.114-.603.242l.073.171zm21.186-19.727c.912-.002 1.78.051 2.593.16a25 25 0 0 1-2.211-2.171c-.109.572-.241 1.249-.382 2.011m-2.109-5.176c-.315.476-.723.98-1.225 1.457.718-.227 1.368-.38 1.922-.476a27 27 0 0 1-.697-.981m-15.634-12.745c-.862.321-1.636.689-2.279 1.062a14.6 14.6 0 0 1 2.253-1.004zm59.019-121.97c2.404 3.849 4.476 7.003 5.758 8.631 2.004-.445 11.955 2.341 16.147 8.631l.077.12c1.106-2.454 2.404-4.058 2.404-4.058l.04.168.053-.07s5.424 2.892 8.023 7.368c2.515 4.331.515 13.357 1.969 17.365l4.412 5.734q.598-.476 1.238-.918c1.449-5.378 4.609-9.802 4.627-9.828.028.013 4.368 2.012 7.923 5.963a17 17 0 0 1 1.886-.722q1.248-1.885 2.504-3.773c-.647-.046-1.172-.167-1.53-.338l-.031.032q-.011-.012-.001-.047l-.094-.05-.001-.001c-.39-.246-.836-.947-1.22-1.941-4.419-1.872-7.742-4.643-7.665-5.538.02-.892 3.687-4.464 8.509-6.728q.142-.234.297-.464l-.24-.086-.111-.018c-1.545-.198-2.585-.575-2.61-.584l.098-.094.047-.058-.3-.085-.033.041-.07-.071c-8.199-2.433-15.194-9.816-16.746-12.873a10 10 0 0 1-.756.186l-.364.073c-2.855.544-5.475.273-6.869-1.747-2.242 1.587-5.038 2.885-8.413 3.272-6.969.906-14.043-4.147-18.103-7.749zm21.522 28.811c-.372.549-.76.944-1.125 1.129-.846.43-2.572.959-4.584 1.018 4.17 1.11 6.833 3.69 7.393 5.107 2.605 1.266 7.147 3.529 12.969 6.55l-3.89-5.054c-2.447-1.174-6.205-3.245-8.712-5.896-.855-.889-1.57-1.845-2.051-2.854m47.813-15.166a96 96 0 0 1-1.096 2.038q.195.153.399.341.5.065 1.012.167l.185-.26c-.01-.818.061-1.442.166-1.804q-.121-.2-.244-.41zm-1.561-.254c-.201.337-.47.695-.801 1.062a5 5 0 0 1-.143.226 3 3 0 0 1-.069.163q.463.2.88.44.064.035.129.076c.39-.719.698-1.342.922-1.82q-.457-.074-.918-.147m-24.883-12.974-.066.089.126-.041zm19.998-10.374c-.403 2.579-1.363 4.149-1.74 4.715l.193.003a1 1 0 0 1-.149.18c.52 1.165 1.845 2.517 2.932 4.509 1.57-.846 3.005-1.371 4.576-2.339a11 11 0 0 0 1.195-.797c.04-.815.103-1.7.192-2.668a40.8 40.8 0 0 1-7.199-3.603m-10.44-.902a15.8 15.8 0 0 1-3.505 2.695c5.435 1.19 10.431 4.006 13.849 7.172a68 68 0 0 1-1.896-3.875c-1.581.664-5.781-1.843-8.448-5.992m-22.66 2.069a5126 5126 0 0 0-21.874 6.424c4.908.26 11.48.234 19.596-.616a84 84 0 0 1 1.86-4.785zm64.057-8.155c-2.063 2.073-4.761 3.287-7.374 3.875q.141.896.2 1.835c.981.374 1.975.865 2.935 1.496a256 256 0 0 1 4.83-5.503q.228-.414.466-.821a3.7 3.7 0 0 1-.897-.759q-.087-.065-.16-.123m-226.106-35.713c.36 1.522.457 2.9.317 3.916.675.263 1.237.639 1.662 1.133q.044.053.06.139l.649-.32a24.6 24.6 0 0 1-2.688-4.868m486.185-23.86c-.316.736-.683 1.41-1.113 2.002a20.4 20.4 0 0 1-2.19 2.436q-.264.255-.534.501c.468.555.82 1.086 1.06 1.554 1.829-2.076 3.809-3.349 5.684-3.454a.36.36 0 0 1 .171.039 11 11 0 0 1 2.99-1.253 25 25 0 0 0-6.068-1.825m-355.932-31.186.508.327a19 19 0 0 1-.275-.551zm8.925-6.812c-2.77 2.588-4.372 2.822-7.607 5.599q.186.423.393.832a484 484 0 0 0 1.738-1.065 30 30 0 0 1 1.9-1.176 410 410 0 0 0 2.058-1.291 32 32 0 0 1 1.647-1.968 14 14 0 0 1-.129-.931m16.185-11.075c-1.878.103-4.155.318-6.132.765-1.269.292-2.721.714-4.108 1.072q.227.502.539 1.081c.621 1.181 1.474 2.277 2.459 3.419q.441-.145.873-.269c1.599-1.979 3.881-4.266 6.369-6.068m3.368-2.033q.132-.063.266-.123l-.316-.204q.023.165.05.327m89.082-44.895.24-.089-.243-.149zM83.196 142.78q-.892.135-1.817.291c.945.049 1.669.134 2.077.19q-.135-.239-.26-.481m13.18-9.446a165 165 0 0 1 2.124 3.637 27 27 0 0 1 .837.488 13 13 0 0 1 2.2-.502c-1.098-1.452-1.879-2.715-2.502-3.434-.347.179-1.348.119-2.66-.189m517.636-48.81c-1.274 3.256-1.026 5.504-1.401 5.639-.178.004-1.478-1.131-2.969-2.863.259 2.232.2 4.77-.216 7.385a175 175 0 0 1 5.552 8.523c3.404.682 6.903 1.474 8.88 3.266 3.391 3.074 5.11 7.968 5.487 9.144l.081.261c-.027.013-2.85 1.495-6.52 1.899a148 148 0 0 1 2.436 5.366c1.139 1.016 2.64 2.73 4.049 4.865.667-8.13 4.571-16.066 6.211-18.004q-.034-.043-.07-.084c-1.614-1.955-4.816-5.748-8.874-10.53-.361.332-.765.673-1.221 1.025-4.27 3.417-6.859 1.462-6.859 1.462q.172.041.354.07a2.4 2.4 0 0 1-.562-.322c-.73.109-1.439.183-2.119.224q.052-.087.103-.179l-.149.051c.348-.581.653-1.32.933-2.193-.832-3.012-.183-8.031-.457-11.871zm-92.533 23.367c.534.236 1.108.447 1.696.598a12 12 0 0 1-1.572-.633zm34.882-9.61c.681 3.407 1.152 6.184 1.635 7.725.685.036 2.238.929 3.977 2.408l-.081-.252c-.974-3.024-3.369-5.816-5.531-9.88m52.514-.91a30 30 0 0 1-1.244 3.853c1.202.63 2.863 1.058 4.693 1.447a175 175 0 0 0-3.449-5.3m-9.602-12.584q.361 1.193.709 2.356.293-.522.595-1.024-.623-.772-1.134-1.388zm16.619-5.519c-.285 1.06-.664 2.146-1.075 3.22l2.122 2.496c.704.024 1.882.052 3.273.033a102 102 0 0 1 1.486-5.92c-.896-.181-1.693-.504-2.34-1.011q-1.742.597-3.466 1.182m26.589-9.285a35 35 0 0 1 3.025 2.766 37 37 0 0 1-.145-1.14c-.364.11-.569.161-.569.161-.005-.01-.402-.88-.89-2.293zm62.531-23.444a40 40 0 0 1 2.572 3.194 196 196 0 0 1 1.313-3.822q.195-.563.373-1.12-2.101.87-4.258 1.748m-442.404-1.257c-.998 1.364-1.924 2.882-2.669 4.201a34 34 0 0 1 5.079-2.133 19.4 19.4 0 0 1-2.41-2.068m-14.545 1.432.042-.103-.134-.092zm3.901-14.445a42 42 0 0 1-.969 1.59 23 23 0 0 1 1.606 2.71 57 57 0 0 1-.512-4.299q-.062.003-.125 0m488.964-1.747q-.267.66-.631 1.359.151.36.264.715.126-1.006.367-2.074M282.42 18.187c1.101 1.893 1.775 3.9 2.066 5.634q.45-.01.926.006-.015-.875.019-1.762c-.184-1.17-.376-2.366-.58-3.572-.833-.114-1.597-.182-2.431-.306M775.833 8.63q.482.521.964 1.094.216-.258.428-.508a8.6 8.6 0 0 1-1.392-.586M511.804-30.199q-2.736.72-5.48 1.263c1.442.392 2.783.962 3.826 1.776a9.7 9.7 0 0 1 1.847 1.967q.43.197.86.424.16.086.318.174c.609-1.34 1.37-2.561 2.18-3.6-1.543-.564-2.789-1.28-3.551-2.004m-7.831-4.302a38 38 0 0 1-.954 3.826 90 90 0 0 0 8.331-1.793c.176-.337.419-.756.744-1.228-2.088.285-4.801.216-8.121-.805m42.911-1.82.041-.016-.01-.019zm-22.705-6.044c-.852.816-3.814 2.102-7.652 2.965q.341.623.567 1.192c1.598-.927 3.601-1.763 6.105-2.346a27 27 0 0 1 1.713-.353q-.406-.74-.733-1.458M394.163-57.479a24.6 24.6 0 0 1 3.173 4.566l.575-.439a.3.3 0 0 1-.098-.115c-.255-.6-.342-1.27-.28-1.992-.972-.325-2.165-1.023-3.37-2.02m216.173 2.738q-.268.563-.565 1.137.521-.653 1.036-1.228a23 23 0 0 1-.471.091m10.828-1.813c-3.701.22-6.696.68-8.107.766a31 31 0 0 0-1.922 2.068q4.636-.805 9.028-1.47.029-.053.059-.104c.291-.487.606-.904.942-1.26m-8.324-3.204a9 9 0 0 1-.633.562 73 73 0 0 1-1.355 3.33l.11.47c.055.03.11.131.144.235.295-.32.587-.62.867-.898-.077-.553.156-1.936.867-3.7m-2.269 4.514.025-.007-.006-.03zm32.661-5.591a4.3 4.3 0 0 1-.401 1.303c.669.213 1.586.663 2.647 1.318q.875-.075 1.734-.144a124 124 0 0 0-3.98-2.477m-28-3.615a9 9 0 0 1-.091.514l.039-.054a8 8 0 0 0 .052-.46m93.454-.21q.014.219.012.424.13-.252.309-.539zm-1.816-4.99c.877 1.288 1.407 2.622 1.656 3.81q.644-.175 1.319-.314a57 57 0 0 1-2.975-3.497m-18.815-1.376c-.003.659-.093 1.276-.203 1.866.421.07.82.149 1.189.239q.162-.106.326-.207a28 28 0 0 1-1.312-1.898" clip-rule="evenodd"/><path fill="url(#b)" d="m-334.236 588.115-.026-.031.098-.095z"/><path fill="url(#c)" fill-rule="evenodd" d="M1105.3-103.867c-.87 3.152.36 9.686.87 17.487 1.88-1.414 3.37-2.141 3.91-1.948 1.28.352 4.93 7.295 5.89 15.115.03.062.05.125.08.188.18.435.33.887.46 1.354.58.083 1.17.171 1.76.264 7.24-3.603 16-4.11 18.83-3.294.42.107.73.241.9.397l.03-.027c6.9-8.677 21.55-12.132 23-10.746l-.03.13c1.28 1.304 1.68 15.918-5.17 24.298 3.61 1.536 6.98 3.127 10.27 4.748 2.31-.667 6.62-.712 10.49.41-.64-.967-1.15-2.03-1.46-3.184-2.7-9.754 2.83-22.188 4.46-22.448l.13.037c1.76-.223 13.24 7.854 15.17 17.821 1.01 5.022-1.07 8.818-3.38 11.205 2.7-.72 6.1-1.086 9.42.035.11-1.887.33-3.353.74-4.028 2.3-3.738 5.79-3.065 9.14-.878 3.95 2.63 9.03 10.362 3.78 19.208-.4.687-.81 1.324-1.25 1.917 1.01.285 2.05.567 3.1.845 4.43.06 7.81.863 8.23 1.69.05.1.08.24.1.414q.765.189 1.56.378c-.92-4.465-1.59-8.66-1.13-9.945 1.3-3.796 4.33-4.083 7.6-3.08-.15-1.652-.36-3.146-.85-4.512-1.53-4.222-3.12-4.094-2.57-5.07.9-1.727 9.79 1.412 13.83 6.747 4.74 6.408 6.82 14.77 6.54 21.175l.59.128a97 97 0 0 1 5.3-9.006.6.6 0 0 1-.11-.046l.04-.131c-1.17-.884-3.77-12.021.74-18.676 3.59-5.356 10.38-4.344 12.41-3.506s5.25 7.638 2.5 12.52c-3.69 6.6-13.39 10.16-15.42 9.875-1.15 1.723-2.97 5.03-5.06 9.056l.87.189c3.76-3.91 10.42-9.503 17.44-9.148 3.39.12 6.28 1.195 8.64 2.6 1.23-2.123 3.82-2.6 6.71-2.282l.37.044c.51.063 1.07.176 1.65.342 2.5.69 5.5 2.372 7.63 5.194 1.88-2.115 3.7-3.388 4.28-2.95.72.479-.59 1.109-.54 5.065.02 1.517.41 3.014.9 4.68 2.11.584 5.64 2.604 7.92 6.058.84-.575 1.76-1.085 2.77-1.503q.75-.316 1.56-.526c4.54-4.397 10.39-7.35 14.09-8.506-1-2.671-1.52-6.4-.68-9.976 1.64-7.017 9.03-15.418 10.47-15.023 1.58.432 5.12 7.601 2.5 17.167-1.95 7.104-5.85 9.87-7.83 11 .16 1.375.25 3.064.21 4.929 2.55-1.897 11.62-2.354 16.72 2.908 1.71 1.782 3.09 3.913 4.19 6.162 3.42-1.495 6.14-2.074 6.72-1.625l-.04.131c.3.23.6 1.104.83 2.423.17-2.98.85-5.27 1.65-5.268.86-.046.11 1.158 2.61 4.38 1.77 2.144 4.36 3.499 7.25 5.988.78-.405 1.45-.68 1.96-.81-.53-8.24-1.07-14.408-1.32-17.248-.49-1.634-.98-4.463-3.04-7.17l-.13-.037c-3.34-4.297-5.82-5.54-8.89-7.227-2.58-1.41-4.25-3.56-4.04-4.345q0 .004.12.1c0-.022.01-.044.01-.064.22-.786 9-1.903 14.65 4.293 5.63 6.216 4.44 13.42 3.1 15.372.28 2.975.7 8.084 1.13 14.654l2.28-6.005c-.38-3.661-.63-10.426 2.06-14.065 4.75-6.555 14.35-5.218 14.43-5.206 0 .065.41 6.198-2.09 10.699-2.22 4.245-10.45 7.209-13.47 10.373l-2.92 7.654c.2.506.39 1.101.58 1.766 1.89-1.292 3.93-2.35 5.58-3.016.46-.606.84-.952 1.09-.966.16-.008.44.109.81.336.76-.184 1.3-.192 1.5.014.22.202.4.765.46 1.59.98.937 2.09 2.173 3.14 3.618.25-.545.53-.95.8-1.183 1-.797 5.41-.995 9.47.884-.07-2.454-.08-4.98-.01-7.556-1.39-2.888-3.17-11.212-.24-17.15.72-1.454 1.67-2.533 2.72-3.327.03-.118.06-.237.08-.355-.53-2.64-1.21-5.535-2.09-8.117-.02.009-.02.013-.02.013-1.72-3.006-3.36-3.737-5.43-11.63-1.86-7.131-2.18-13.7-3.61-16.205 5.55.392 13.54 3.708 15.58 12.722 1.65 7.06-3.11 12.199-5.39 14.196.7 1.92 1.27 3.955 1.73 5.937 1.68-6.247 4.09-12.425 7.44-18.274-1.03-1.93-1.37-6.48.51-10.266 2.52-5.085 9.58-10.198 10.69-9.612.87.462 1.93 4.364.56 9.283a19.5 19.5 0 0 1-1.76 4.338c-3.1 5.627-7.03 6.858-8.46 7.232-3.57 6.238-6.05 12.858-7.7 19.53 2.55-1.041 5.16-.895 6.3-.582l.17-.095c0 .003-.03.047-.07.127 1.98.713 5.24 6.735 3.34 11.62-2.57 6.264-9.92 10.903-12.6 11.527-.06 2.61-.03 5.165.07 7.642 1.14.752 2.21 1.706 3.09 2.9.18-.655.36-1.31.58-2.097 5.15-9.013 18.16-14.187 19.55-13.1 1.39 1.079 3.39 15.048-2.31 23.734q2.7.914 5.46 1.89c1.6-5.171 4.8-9.328 4.82-9.352.06.03 10.83 5.337 12.03 15.34.52-.238 1.02-.455 1.51-.65-1.6-4.92-1.61-9.7-.91-10.246l-.04.131c1.08-.832 12.11 1.203 17.12 7.648 2.31 2.947 2.46 6.025 1.9 8.403l.03.015c1.01-.893 2.25-1.782 3.7-2.41 1.55-3.558 3.25-5.957 3.99-6.051 1.33-.132 7.68 4.759 11.81 11.597.87.893 1.41 1.567 1.47 1.74.01.01.01.018.01.024l-.14-.062v.003c.06.095.1.16.1.19l-.09-.167c-.01 0-.13.001-.36.016 1.24 2.388 2.16 4.964 2.5 7.616.01.067.02.134.02.2.06.026.13.051.19.077.02-7.096 1.97-13.256 3.18-13.708a.6.6 0 0 1 .18-.103c.64-.248 3.16.864 6.19 2.681-1.53-.9-2.89-1.57-3.92-1.941 2.06.89 5.05 2.644 8 5.067 4.13-.233 8.71.222 12.56 2.137 7.75 3.673 7.8 11.718 7.12 14.208-.17.628-.81 1.372-1.77 2.089q.165.104.33.214c1.13-.393 2.23-.711 3.29-.91-.67-1.755-.61-4.095-.86-6.604.45.486 1.48.971 2.83 1.715l.06-.127c-.15-4.015-1.15-6.264 1.78-15.961 2.68-9.268 6.58-16.795 6.67-20.716 5.92 4.158 12.8 13.087 9.07 24.606-.08.25-.16.495-.25.735 6.1-1.68 10.73-1.055 14.43-2.486 4.27-1.65 4.14-3.234 5.12-2.684 1.73.898-1.31 9.925-6.65 13.956-5.6 4.295-12.77 6.495-18.81 6.814.47.28.95.601 1.42.962-.42-.307-.85-.579-1.27-.817 2.13 1.29 4.41 3.423 5.64 6.522 0 .009 0 .017.01.026 5.23-9.35 17.88-15.072 19.77-14.349.09.018.17.043.23.08.58.442 1.32 2.9 1.77 6.404-.2-1.493-.47-2.769-.76-3.738 1.11 4.522 1.69 13.733-1.54 20.88 1.31.942 2.07 1.76 2.07 2.237.01.213-.11.534-.34.938 1.59.277 3.17.684 4.69 1.24.48.166.95.368 1.41.597.2-.97.29-1.82.25-2.537 2.35 1.505 4.86 3.697 6.88 6.48.34-.007.68-.009 1.01-.005 1.21-3.463 2.66-5.823 3.41-5.919q.135-.016.36.042c.39-3.719 1.56-6.799 2.46-6.735.82.085-.06 1.252 2.11 4.664 2.04 3.377 6.16 5.351 9.9 11.305 1.22 2.053 2.25 4.513 3.03 6.873q2.13.688 4.26 1.356c-.83-2.918-.91-6.211.58-7.058 1.2-.683 2.53.831 5 3.53 1.91-1.929 4.19-3.536 6.55-4.836l-.15-.081c-1.91 1.308-8.77.557-13.47-3.408-5.52-4.61-9.72-15.06-8.57-16.154 1.15-1.095 9.21-1.139 16.4 5.62 6.51 6.15 6.25 11.715 6.29 13.133l.67.27a40 40 0 0 1 3.92-1.711c.84-3.804 4.33-9.52 10.03-11.179 10.74-3.115 24.56 2.643 24.88 4.563s-8.55 14.704-19.51 17.056c-.6.118-1.03.141-1.46.164.71.94 1.37 1.95 1.96 3.002 1.89.645 3.81 1.533 5.51 2.714.38.067.79.145 1.22.237 4.31-3.82 9.81-6.622 11.61-6.593-.12-.034-.35-.097-.45-.123.43-.023.73-.082.96.12.83.692 1.52 4.572.12 9.506-.27 1.011-.63 2.07-1.09 3.155q.435.5.84 1.054c2.1.439 4.21.874 6.31 1.305 1.86-.076 3.92.206 5.92 1.097-2.61-10.411 2.5-23.074 4.34-23.817a.7.7 0 0 1 .25-.123c.73-.082 2.95 1.09 5.71 3.395-1.52-1.21-2.86-2.093-3.82-2.565 4.09 2.31 12.79 9.996 14.73 18.937.05.2.08.398.12.594a30 30 0 0 1 2.92-2.192c.06-1.892.36-3.206.74-3.425.45-.253 2.29-.04 4.65.687 1.04-.328 2.15-.538 3.26-.652.05-.034.1-.062.16-.08-.05.025-.09.05-.14.077 4.6-.465 9.21.717 9.18 1.978a1 1 0 0 1-.05.192c-.15.852-1.23.244-4.19 2.635 1.38 1.065 2.62 2.313 3.57 3.75 2.15 3.407 1.8 6.637.83 8.994l.26.049c.46-.34.97-.674 1.51-.983q-.135-.605-.24-1.214c-1.03-6.056 2.16-14.06 3.77-13.76.79.217-.19 1.216 1.51 4.783 1.13 2.363 3.2 4.241 5.32 7.07.68-1.81 1.62-3.045 2.31-3.433 1.63-.82 9.85 1.15 12.88 7.615.31-.619.72-1.071 1.16-1.654 7.05-7.651 20.81-9.939 21.87-8.662.5.55.58 3.372-.07 6.998.24.274.53.575.88.897.61.529 1.38 1.108 2.35 1.705l.06.096c.05.035.11.072.17.107 1.81 1.037 4.63 1.606 7.07 2.674.44.032.9.072 1.36.122.7-1.161 1.34-1.865 1.76-1.836.54.027 1.65.928 2.74 2.581 4.12.929 8.38 2.617 11.59 5.431 2.56 2.29 3.82 4.942 4.35 7.449q.495.123.96.27l.78.162c3.1-4.416 6.39-9.71 10.32-11.559 6.3-2.914 14.45-1.815 14.48-1.81.01.032.56 8.761-4.26 15.035.71.228 1.42.493 2.12.795 4.11-5.617 9.49-6.488 10.68-5.743 1.03.645 2.18 5.749.21 10.727 1.69.4 3.37.804 5.06 1.21 1.2-2.151 2.5-3.679 3.04-3.602l.1.167c.51.141 1.53 1.224 2.34 3.066.56-.554 1.07-1.121 1.53-1.724 2.69-3.63 1.62-4.907 2.78-5.013q.18-.017.36.072a30.5 30.5 0 0 1 1.84-3.978c2.76-4.881 6.07-5.102 6.07-5.102s-.18 2.205 2.21 5.821c1.81 2.717 6.39 5.479 7.25 9.256.4-.211.82-.408 1.25-.588 5.47-2.332 14.01-.127 18.68 1.424-.62-2.53-.68-4.943-.57-6.846-2.13-1.122-4.55-7.568-3.14-13.586 1.64-7.017 9.03-15.417 10.47-15.022 1.58.432 5.12 7.602 2.5 17.168-2.37 8.648-7.64 10.867-8.81 11.533l-.06.02c-.09 1.571.12 3.222.49 5.257q.21-.312.39-.545c1.73-2.201 11.7-2.993 17.09 2.571 4.96 5.17 7.17 13.275 7.73 18.694 1.06-.993 2.07-1.545 2.7-1.608.99-.123 3.64 1.35 5.84 3.939q1.365.312 2.73.619c.2-1.892.71-3.881 1.64-5.708 3.18-6.454 12.18-13.005 13.56-12.348 1.34.79 3.31 8.517-1.34 17.245a24.7 24.7 0 0 1-2.2 3.37l2.14.456c3.33-.842 7.9-1.35 12.23.323 1.01-5.403 1.96-9.715 1.62-12.205 5.45 2.533 11.97 8.108 13.18 16.616.97.387 1.95.844 2.92 1.374l4.82.957c.76-.465 1.61-.87 2.62-1.229 1.85-.611 3.86-1.001 5.87-1.227 1.25-1.213 1.26-1.891 1.99-1.691.43.115.66.658.75 1.479q.795-.036 1.59-.043c-.45-.745-.92-1.429-1.46-2.043-2.81-3.163-4.11-2.534-3.99-3.487.2-1.776 8.94-2.2 14.25 1.087 5.52 3.378 9.75 8.819 12.02 13.913l1.5.311c.41-3.546.99-6.419 1.36-8.041-.01-.002-.03-.004-.04-.007-1.32-.362-7.37-9.203-5.82-16.387 1.32-5.838 7.5-7.245 9.48-7.266 2.11.017 7.13 4.913 6.46 9.941-.36 2.544-1.53 5.017-2.96 7.147.78.834 1.6 1.951 2.37 3.24.66-.381 1.36-.705 2.1-.957 9.38-3.34 17.62 3.127 17.64 3.143-.37.118-.73.237-1.1.355.59.296 1.17.663 1.72 1.112.58.432 1.13.946 1.66 1.553.52.61.98 1.27 1.39 1.963.04-.067.08-.133.13-.2.01-.106.03-.207.07-.343a.8.8 0 0 0-.02.262c1.55-2.406 3.62-4.374 5.17-5.31-.15-1.19-.36-2.292-.73-3.323-1.41-3.625-2.7-3.556-2.36-4.306.74-1.312 6.95.57 10.78 4.304.52-2.784.9-4.955 1.14-6.374-.05-1.681.3-4.666-1.12-7.935-2.17-4.962-4.21-6.789-6.77-9.321-2.13-1.994-3.27-4.558-2.66-5.237.61-.678 9.21.41 12.95 7.913 3.71 7.286 1.01 13.775-.84 15.536-.28 1.649-.72 4.044-1.28 7.042a26 26 0 0 1 1.83 2.771l.32-.432c.59-3.596 2.12-10.157 5.62-13.083l.14.036c2.03-1.652 4.33-2.378 6.53-2.603.59-1.521 1.17-3.074 1.73-4.655-2.48-1.594-8.99-9.724-9.17-17.786-.09-6.364 6.14-11.561 8.48-11.342 1.42.132 4.47 1.072 6.84 3.429.94-7.958.98-16.201-.35-24.476l-.01-.003.01-.01-.03-.153c-1.2-.648-5.41-3.426-6.57-11.362-1.26-8.799 2.94-14.833 4.27-15.034 1.46-.162 7.05 8.272 7.67 14.78.44 4.666-1.58 9.31-3.42 11.124 1.29 7.854 1.38 15.676.63 23.261 1.31-2.022 2.77-4.057 4.33-5.848-1.6-2.95-4.85-10.626-.09-17.854 5.98-8.928 15.9-9.03 22.07-7.338-2.72 2.213-5.71 9-10.63 16.107-5.23 7.58-7.28 7.957-10.23 10.279-2.2 2.494-4.21 5.574-5.87 8.266-.02.16-.04.321-.07.482a10.9 10.9 0 0 1 1.27 3.43c1.13-1.179 2.27-1.778 2.91-1.93a.8.8 0 0 1 .19-.019c-.01-.051-.02-.077-.02-.077 1.79-.354 7.06 5.175 7.63 12.374.41 5.44-.8 11.093-2.21 15.194 2.49-3.912 4.43-7.359 6.03-10.062.61-1.048 1.13-2.003 1.61-2.843-1.33-1.382-2.76-4.964 1.16-10.346 3.81-5.154 8.72-6.063 9.8-5.346 1.11.587 2.16 7.073-1.49 12.131-2.94 4.252-5.79 4.991-7.8 4.48-.5.839-1.07 1.806-1.72 2.916-2.4 4.132-5.5 9.764-10.07 16.121-.81 1.16-2.08 2.934-3.67 5.162 2.33-1.246 4.79-1.794 6.62-2.025.72-2.166 3.68-7.126 10.08-9.431 7.9-3.049 13.67 2.194 15.11 5.689 1.29 3.03 1.45 6.033-2.01 7.338-1.44.593-6.93-.489-11.64-1.356-4.59-.942-8.72-.974-10.61-1.069-2.41.207-6.68 1.007-9.73 3.887-.7.974-1.43 2.004-2.21 3.08 3.13 1.661 6.03 4.168 8.1 7.798 1.08.982 1.94 2.079 2.14 3.356.12.373.16.75.08 1.127 3.89-4.79 7.93-6.914 10.04-10.185 2.25-3.511 1.52-4.767 2.27-5.035.1-.081.23-.128.42-.145l.52.143-.03.118c1.87 1.145 4.1 9.218 2.38 15.037l-.13-.037a31.5 31.5 0 0 1-2.49 5.943c2.79 1.452 7.1 5.284 9.43 12.02q.21.63.33 1.207 6.795 1.869 13.26 3.701c-.52-1.082-.7-2.091-.32-2.823.01-.01.01-.02.02-.03-.08.073-.16.158-.22.256.03-.131.07-.262.1-.392.75-1.284 2.89-.442 6.91.844 1.91-1.295 3.71-2.534 6.91-3.824 5.22-2.081 7.95-.225 7.97-.212-.01.005-.78.777-1.39 2.717 4.85-1.179 10.07-1.065 13.99-.464 1.05-3.327 4.33-3.842 7.84-3.134 1.39.252 3.06.918 4.68 2.007 4.85-.713 10.97-.655 15.9 1.797 7.71 3.804 7.8 11.716 7.12 14.207-.17.621-.8 1.355-1.74 2.064.35.213.68.445.98.689.56.471 1.3 1.405 1.82 2.658.1-2.186.57-3.615.88-3.75.03-.009.07-.004.13.012-.71-1.829-.75-4.325-1-7.028.42.465 1.47.957 2.85 1.728-.13-4.095-1.19-6.29 1.77-16.088 2.68-9.268 6.58-16.793 6.67-20.715 5.92 4.159 12.8 13.086 9.07 24.605q-.15.487-.33.95c6.19-1.741 10.87-1.088 14.61-2.533 4.27-1.649 4.14-3.235 5.12-2.685 1.73.898-1.31 9.926-6.65 13.957-10.56 8.098-26.7 8.748-30.32 3.39a.45.45 0 0 1-.05-.314 11 11 0 0 1-2.67-2.006c.32 2.928 1.04 5.348 1.8 7.169 1.45.822 4.33 2.656 8.03 4.48 6.27-1.911 13.24-1.022 13.67-.113l-.01.038c.03.025.06.05.08.075l.03.054c.2.421-.19 2.138-1.13 4.325a9.6 9.6 0 0 1 1.73-1.511c0-.201.01-.377.04-.525 1.19-4.324 4.67-4.64 8.44-3.465.85.234 1.79.63 2.73 1.185.89-.72 1.79-1.138 2.7-1.092-.03-.012-.05-.025-.08-.036.02-.001.78-.025 1.78.518 1.18-1.587 2.53-3.142 3.96-4.441 5.23-4.627 10.1-5.406 13.1-8.106 2.97-2.569 2.34-3.869 3.29-3.748 1.65.171 2.06 8.455-1.12 13.36-3.49 5.604-9.24 9.794-14.39 11.73 2.01-.104 3.66-.11 4.83-.087.13-2.051 5.98-5.567 12.16-5.155 6.63.548 15.56 6.095 15.3 7.572s-6.24 5.757-15.4 4.656c-8.34-1.016-11.22-5.466-11.92-6.505a.7.7 0 0 1-.1-.219c-1.28-.027-3.07.602-5.34.736.1 1.757 0 3.269.22 5.1.21 2.474 1.94 6.57 1.33 9.549.77.142 1.5.333 2.18.564 1.68-.863 3.16-1.306 3.93-1.17v-.003l.04-.131c.26.072.49.276.49.276.11.209.13.362.06.535-.06.386-.57.777-1.18 2.105 3.23 2.101 4.87 4.987 4.89 6.282-.02.798-1.11 2.351-2.9 3.826 1.9 2.385 3.69 5.617 4.24 8.798.67 4.056.48 8.237-.3 12.1 2.78.474 5 1.325 5.08 1.889.15.786-1.98 3.556-6.04 5.253 2.6.957 4.92 2.11 6.68 3.188 3.96-3.207 7.94-6.331 9.56-6.492 4.41-.624 5.92 2.61 6.36 6.675.43 4.625-2.54 13.392-12.68 14.84l-.09.822a21 21 0 0 1-9.66-.815c.87.737 1.7 1.656 2.38 2.903 2.36 1.855 3.78 3.511 3.71 4.214l-.01.045c-.05.445-.78 1.291-2.01 2.311.21 5.661-2.79 9.656-4.24 10.204-.84.314-3.11-.223-5.47-1.636-2.09 1.248-4.66 2.147-7.5 2.03.29.501.67 1.169.92 1.802 3.68 9.743-.64 22.929-2.3 23.321-1.54.359-12.18-6.107-16.06-15.053-3.67 5.297-10.14 8.581-10.14 8.581l-.09-.167-.09-.117c-.01-.017-.03-.037-.04-.059v.14c-.08.014-.13-.113-.17-.363a28 28 0 0 1-1.59-2.534c-.85-1.498-1.83-3.516-2.48-5.838a9 9 0 0 1-.92 2.026l.03.239c1.54 2.315 3.33 5.056 5.29 7.232 2.5 1.925 4.32 2.361 8.82 8.742 4.26 6.098 6.9 11.896 9.21 13.795-5.39 1.623-13.95 1.393-19.07-6.208-4.13-6.161-1.35-12.91-.03-15.439a70 70 0 0 1-3.83-5.042c.71 6.48.7 13.165-.32 19.884 1.66 1.412 3.64 5.565 3.22 9.773-.41 5.571-5.09 12.705-6.4 12.744l-.06-.003c-1.18-.325-4.91-5.29-3.78-13.01.83-6.317 4.02-8.832 5.24-9.688 1.09-7.14 1-14.247.12-21.108-1.97 1.866-4.41 2.67-5.6 2.833l-.17.096s.01-.033.01-.094c-1.85-.062-6-3.377-7.01-7.675-1.49.696-2.67 1.373-3.45 2.088a25.4 25.4 0 0 1-.1-5.052c-4.3 1.478-8.04.673-10.88-.811 2.39 5.379 6.46 11.974 6.11 16.927-.48 6.884-5.35 13.406-5.39 13.459 0 0-11.77-5.48-12.36-16.208-.22-3.967 1.89-8.5 4.22-12.229-.51.705-1.12 1.39-1.85 2.03-5.28 4.903-13.85 7.959-17.27 8.457-1.38 4.777-3.58 8.812-4.56 8.811-1.55-.003-7.18-5.77-7.29-15.663-.02-1.626.11-3.081.34-4.378-4.11-1.663-7.84-4.275-10.86-7.214-1.94.255-3.5.611-5.25.863.04 1.441.03 2.63.02 3.486a.4.4 0 0 1 .08-.008l.04-.131c1.55.003 9.63 8.134 9.55 16.144-.07 6.459-6.22 9.285-8.47 9.794-2.23.377-8.48-3.591-8.96-9.075-.5-7.545 5.7-15.96 7.61-16.681.01-.851-.21-2.03-.24-3.476q-.735.098-1.53.161c-.7.674-1.54 1.279-2.44 1.814-1.53 3.404-3.75 6.616-6.95 8.473-3.98 2.353-8.13 2.727-11.55 2.4-2.88 1.743-6.7 2.722-11.08 1.543-.97-.257-1.98-.619-3.02-1.104a22 22 0 0 1-7.42-5.67c.14.53.24 1.097.27 1.706 2.79 3.129 4.01 2.571 3.89 3.494-.1.838-2.01 1.349-4.58 1.335-.04.111-.08.223-.11.336-2.54 7.194-8.91 9.818-10.75 9.314-.84-.231-2.51-2.055-3.74-4.668a16 16 0 0 1-.81-1.932c.21.602.46 1.175.71 1.714-1.14-2.548-1.84-5.802-.96-9.052-1.5.29-2.57.219-2.6.217l.02-.076c-.25.017-.45.024-.57.026v-.008c-1.11.051-2.23.012-3.35-.098-2.14 5.111-5.12 9.03-6.42 9.676q-.225.138-.39.175l-.02.048c-.8-.019-3.4-2.542-5.86-6.322-2.19 1.141-4.71.081-7.18-1.759-3.73-2.855-8.15-10.968-2.31-19.372q.165-.236.33-.465-5.235-1.109-10.5-2.417c-4.19.437-8.02.595-11.13.857 1.66 2.409 2.57 4.354 2.57 4.363-.04.031-10.14 7.328-19.65 3.191-4.46 2.724-9.17 4.312-9.91 3.645-.85-.885-1.1-5.8 1.9-11.366-1.71-2.683-3.04-5.51-3.9-7.636-1.56 2.107-3.15 3.785-4.6 4.939.51 2.254-2.73 8.409-8.18 11.284-6.32 3.48-17.59 3.353-18.19 1.922-.59-1.432 2.45-8.911 11.23-13.126 8.12-3.835 13.25-1.444 14.53-.952l3.59-3.807c-.02.004-.6.116-.73.081-1.9.044-5.73-3.024-7.85-7.364-.52 1.279-1.29 2.509-2.41 3.567-1.54 1.406-3.86 2.269-6.18 2.781-.54 1.088-1.07 1.767-1.42 1.759l-.09-.151c-.01-.006-.03-.012-.04-.018h-.02c-.32-.032-.9-.402-1.55-1.087-.85.09-1.63.141-2.32.162-1.78 4.917-5.6 9.371-6.69 8.727-.72-.478.45-1.143-.03-5.077-.31-2.062-1.28-3.963-2.25-6.289-.31.111-.62.216-.92.311-1.67 2.122-3.25 3.512-3.87 3.342-1.28-.351-4.2-5.967-2.36-13.528-2.26.205-4.67.096-6.79-.529-3.24-.96-6.31-2.502-9.05-4.366a22 22 0 0 1-6.82-2.172c1.1 1.46 1.9 3.527 2.06 6.418.12 1.898-.1 3.615-.54 5.128-1.23 4.485-4.28 7.211-5.79 7.586v.065q-.015-.007-.03-.055l-.1.018c-.78.107-2.82-.781-4.79-2.417-1.37.13-2.91-.218-4.49-.83-2-.742-4.49-2.538-6.28-5.2-8.67 2.752-18.85.938-19.44-.435-.1-.257-.05-.799.14-1.542.46-1.915 1.96-5.323 4.32-8.747a38 38 0 0 1-4.34-6.207c-.38 1.717-.66 3.291-.59 4.814.16 4.553 1.61 4.95.87 5.592-1.35 1.319-8.92-4.558-11-10.902-2.22-6.991-1.79-14.807.08-20.684-1.04.241-2.2.484-3.51.725-2.28.423-4.52.737-6.64.995 1.32 1.948 2.24 3.57 2.33 4.445.5 4.363-2.88 5.835-6.91 6.138-.22.011-.45.015-.68.011-.58 3.455-1.41 5.921-1.84 6.063-.23.078-.69-.122-1.28-.56-2-1.428-5.85-5.614-7.82-11.109-1.46-1.942-2.52-4.46-2.83-7.661-.2-1.956-.13-3.764.1-5.412q-2.01-.277-4.05-.526c.86 2.796 1.17 4.934.69 5.467-.38.419-1.95.801-4.2.957-.77 7.974-4.27 15.138-5.65 15.366-1.01.166-4.93-2.241-8.78-6.132-5.67 1.852-10.77 2.118-11.5 1.281-.61-.695-.68-4.466.27-9.059-2.8-2.201-4.78-5.533-6.03-8.697-.88 1.206-1.79 2.338-2.73 3.312q.15.259.3.507c2.33 3.878 3.86 3.452 3.57 4.5-.29 1.065-3.59 1.116-7.3.066.53 9.128 1.09 15.772 1.3 18.312.43 1.667.98 4.224 2.93 6.706 3.35 4.297 5.7 5.505 8.9 7.227 2.58 1.411 4.25 3.56 4 4.477q0-.002-.12-.102c0 .022-.01.044-.01.065-.25.917-9 1.903-14.61-4.424-5.62-6.352-4.39-13.605-2.99-15.421-.25-2.885-.63-7.945-1.02-14.493l-2.35 5.929c.25 2.703.39 6.992-.6 10.504-.36 1.321-.88 2.538-1.61 3.525-4.77 6.577-14.54 5.174-14.56 5.171 0-.002.05-.042.13-.12l-.09-.011c0-.033-.29-6.15 2.22-10.663 2.43-4.379 11.2-7.285 13.9-10.587l2.67-6.726c-.48-.18-.96-.377-1.43-.593-5.35 1.509-10.76 1.064-10.81 1.061 0 0-.51-4.767 1.07-9.86q-.84-.578-1.59-1.251c-1.51-.071-3.01-.143-4.52-.218.29.58.45 1.094.49 1.489l.04.009c0 .011-.01.019-.04.026.01.036.01.071.01.105v.002c-.01.461-.39 1.203-1.04 2.041.65 4.756-.03 9.03-.84 9.42-.77.441-5.72-.879-10.13-3.861-.18-.001-.37-.007-.55-.017.02.088.03.171.05.25.01.035.03.07.04.104.63 1.441.83 2.535.83 2.542l-.13-.036-.07-.011c.03.1.05.2.08.301l.05.008-.02.095c2.47 9.694-1.72 21.446-3.3 21.818-.21.049-.6-.037-1.1-.246-1.04-.394-2.67-1.313-4.46-2.684.81.607 1.56 1.099 2.23 1.481-1.25-.794-2.73-1.889-4.24-3.225-.26 1.91-.46 3.608-.21 5.219.47 3.934 1.86 4.033 1.21 4.842-1.05 1.261-8.19-3.09-10.55-8.386-2.63-5.884-2.98-12.711-1.87-17.971a63 63 0 0 1-2.36 3.613c1.67 1.227 1.33 8.086-2.45 12.952-4.12 5.213-13.72 9.343-14.76 8.495-1.14-1.015-1.37-8.405 4.76-15.319 5.53-6.235 10.75-6.214 12-6.152l-.09-.167c.08.002.16.014.23.035.73-1.044 1.22-2.874 2.37-4.827-1.53-.916-2.72-1.879-4.35-2.733-.38-.216-.82-.419-1.3-.618-1.1.586-2.37 1.212-3.85 1.885-8.82 3.904-17.1 5.856-20.05 8.282-.05.102-.07.156-.07.156-.26-2.727-.1-5.979.8-9.223 1.17-4.292 3.62-8.581 8.09-11.641a14.7 14.7 0 0 1-.21-3.287c-2.41-.41-4.82-.852-7.2-1.329-.32.011-.64.017-.95.019a3.8 3.8 0 0 1-.19 1.161c-.04.44-.08.692-.08.701-.01 0-.09.003-.25.005-.35.375-1.4 1.229-3.44 1.165.06.77.07 1.219.07 1.219-.02.004-2.1.391-5.01.304a779 779 0 0 0-3.57 9.323c-.01.039-.03.077-.04.116 2.43 1.6 9.42 8.746 11.67 16.735 2.18 7.501-1.31 11.475-2.82 12.33-1.47.724-7.41-2.873-9.48-9.218-1.55-4.577-1.81-9.679-1.57-13.608-1.28 3.905-2.21 7.285-2.94 9.976-.3 1.074-.56 2.039-.8 2.896 1.48.973 3.49 3.799 1.25 9.347-2.17 5.369-6.11 7.247-7.36 6.996l-.04-.007-.15-.043v-.02c-1.1-.648-3.3-5.899-1.35-11.054 1.01-2.822 2.35-4.376 3.68-5.128.79-.456 1.56-.617 2.27-.594.23-.815.48-1.733.75-2.729 1.12-4.063 2.66-9.697 5.22-16.462.45-1.22 1.17-3.094 2.07-5.451-1.83 1.607-3.91 2.613-5.45 3.2-.21 2.157-1.72 7.006-6.65 10.492-6.31 4.47-12.48 1.229-14.67-1.623-1.9-2.352-2.73-4.976.05-6.89 1.21-.796 6.15-1.276 10.58-1.471 4.57-.313 8.42-1.263 9.93-1.543 2.09-.769 5.55-2.446 7.53-5.583a.4.4 0 0 0 .04-.104c-4.11-.401-9.21-1.872-12.68-6.241-1.21-1.482-2.02-3.374-2.57-5.42q-.915-.306-1.83-.617c1.32 3.481 1.75 6.408 1.75 6.437 0 0-12.32 4.233-20.22-3.004-1.33-1.209-2.4-2.844-3.25-4.673-3.05-.035-6.32-.573-9.03-2.071l.03-.131-.26-.149c-1.33-.764-2.32-1.697-3.06-2.699-1.93 1.709-4.68 3.284-7.84 3.877-7.04 1.453-17.87-1.796-18-3.381-.13-1.586 4.83-7.834 14.58-9.39l.17-.025c.36-.149.71-.265 1.06-.343.64-.125 1.28-.195 1.92-.226 0-.031 0-.062.01-.092l.13-.019c.22-.023.58-.026.98-.02a10.7 10.7 0 0 1-2.22-2.096c-.01-.005-.01-.01-.01-.015l-.45-.215c-5.26 3.883-12.21 5.357-13.02 4.568-.59-.569-.9-4.533 0-8.926-3.71.134-6.62-.355-6.64-.359 0-.029-.02-1.788.44-4.256-1.29 1.042-2.29 1.992-2.89 2.881a26 26 0 0 1-1.5-5.737c-.33.036-.58.009-.72-.084-.12-.079-.24-.249-.38-.498-1.67-.086-3.41-.326-5.09-.789-1.51-.406-2.97-.991-4.27-1.806-1.56-.961-2.64-2.142-3.38-3.385-1.26.061-2.62.024-4.03-.138-.7.705-1.51 1.345-2.44 1.863-.64.374-1.34.689-2.1.924-5.39 1.623-14.18-2.898-14.21-3.327l.08-.262q0 .031.06.09c.48-.2 2.59-1.149 4.9-3.239.46-.406.94-.818 1.43-1.223-.7-.603-1.36-1.266-1.99-1.992-1.04.91-1.8 1.442-1.92 1.41-.39-.109-.01-2.54-1.06-5.926 0-.017-.01-.036-.01-.053l-.03-.067c-.63-.321-1.26-.64-1.88-.957-3.23 4.115-6.53 6.593-8.43 9.484 1.11 2.598 2.17 2.773 1.9 3.484-.01.013-.01.026-.01.039l.1.01q-.06.104-.18.18c0 .015-.01.031-.02.046-.03.131-.2.226-.5.286l.02-.094c-.62.162-1.68.019-2.96-.388-.37 1.454-.07 1.965-.77 2.144-.76.15-1.83-1.368-2.7-3.662-2.48-1.36-5.06-3.364-6.7-5.819l-.35-.515a32 32 0 0 1-1.79-3.13c-.91-.738-1.75-1.587-2.39-2.525-2.61-3.809-3.93-8.507-4.14-12.603l-.66-.235q-.57.095-1.2.089a59 59 0 0 1-2.5 3.658l.11.03c.81.646 2.38 8.825-1.16 13.49-2.73 3.76-7.56 2.858-9.07 2.164-1.31-.604-3.02-4.415-2.06-7.709a6 6 0 0 1-.67-.364l-.09-.167q.165.093.33.174a4 4 0 0 1-.35-.235c0 .02.01.041.02.061-1.08-.717-2.14-1.995-3.04-3.367-1.15-1.931-1.99-5.026-1.61-8.35a18.2 18.2 0 0 1-3.15-3.697c-1.93.098-4.27.021-6.66-.515-2.21.855-4.55 1.481-6.74 1.92-3.49 4.095-9.01 7.014-9.83 6.074-.51-.704.81-.904 1.86-4.704q.075-.268.12-.54c-.97-.026-1.6-.139-1.72-.321-.06-.092-.06-.278-.01-.538.06-.576.46-1.632 1.16-2.935-2.67-1.18-5.52-2.775-8.05-4.796l-3.29-.432c.25 2.55.58 4.773.21 8.504-.69 5.588-3.63 7.038-3.63 7.038 0-.01-.55-2.128-4.26-4.549a8 8 0 0 0-.85-.496c2.96 3.208 5.34 5.764 7.19 6.741-6.45 3.445-17.47 5.499-26.04-2.907-.21-.199-.4-.4-.59-.603-1.22 6.271-3.89 10.121-4.24 14.074-.53 4.505 1.01 5.068.14 5.674-1.58 1.116-8.37-5.534-9.51-12.186-1.98-10.406 1.77-21.828 6.63-26.453a658 658 0 0 1-5.96-1.038c-.09.07-.19.141-.29.212-2.01 4.258-6.51 8.538-7.43 8.159-.29-.079-.64-.551-.94-1.326-3.17 2.646-6.07 4.864-7.44 5.09-.27.046-.53.077-.79.094-2.08 2.641-3.68 4.831-4.28 6.548l-.09-.12c-.03.072-.05.144-.08.214-.09-.166-.32-.37-.42-.537l.06-.142c-.5-.724-1-1.513-1.46-2.357-.9-.209-2.12-.648-3.51-1.307-4.73-2.206-11.61-6.875-14.57-13.225-1.77-3.865-1.41-7.36-.35-10.08-.32.423-.67.841-1.04 1.246-.17.095-.44.023-.7-.049-.09-.167-.02-.429.05-.691.25-.269.48-.544.71-.823-1.13-.28-2.26-.564-3.4-.854-1.53 1.862-3.8 4.047-8.6 7.319-7.79 5.281-15.43 8.595-18.14 11.513 0 .004-.01.009-.01.013a6 6 0 0 0-.06.252c-.01-.048-.03-.096-.04-.144l-.09.108c-1.54-5.695-1.58-14.147 3.91-20.615-5.26-.139-15.63-2.383-21.44-8.702-.9-.969-1.6-1.963-2.13-2.965-2.42 3.858-6.32 7.034-6.62 7.05-.34-.093-.11-1.892-.78-4.558-1.55 4.212-3.59 7.49-4.54 7.468l-.08-.145c-.02.077-.03.114-.05.109q-.12-.015-.18-.165c-.03-.006-.05-.013-.08-.021-.9-.193-2.6-1.79-4.08-4.524-6.11 1.331-12.79-.263-12.8-.266 0-.014.04-1.136.34-2.835-4.86 1.753-9.46 2.516-11.02 2.032q-.435-.105-.6-.314c0-.003.02-.021.07-.057-.38-.623-.44-2.125.01-4.132-1.92 1.425-3.52 2.176-4 1.989-.99-.379-3.8-6.612-3.79-12.846-.01-.011-.02-.023-.02-.034-2.21-2.839-4.57-5.937-5.28-8.802-.39.043-.81.082-1.24.114-2.86.153-4.78-.395-5.99-.968-1.47.468-3.02.802-4.44 1.011-.11 2.162-.53 3.901-1.76 4.598.06-.012.13-.024.19-.039-.01.009-.53.415-1.51.531.01 1.682-.11 3.412-.43 4.997-1.22 6.005-4.17 9.003-4.8 12.351-.77 3.312.34 3.899-.33 4.279-1.17.664-5.74-4.815-6.19-9.868-.46-5.71 1.36-11.585 3.9-15.568a53 53 0 0 1-3.43 2.643c1.02 1.442-1.2 7.061-5.73 9.935-4.96 3.15-13.9 3.801-14.43 2.667-.54-1.135 1.28-7.256 8.31-11.248 6.23-3.647 10.59-2.031 11.6-1.612l-.13-.035q.09.029.15.072c.9-.63 1.79-1.985 3.27-3.228-.93-1.141-1.58-2.233-2.61-3.386-1.83-2.041-6.71-4.64-6.28-7.993.04-.6.35-1.192 1.04-1.754q.15-.125.36-.21c-.39-.913-.75-1.917-1.04-2.968-.5.117-1.07.291-1.71.55l.04-.13c-2.7 1.092-6.21 5.626-9.95 2.77-1.38-1.057-1.8-2.45-1.85-3.868-.31.463-.59.73-.82.741-.8.043-2.97-1.642-4.68-4.855a296 296 0 0 0-4.15 3.47c1.11 2.607 2.27 4.264 2.79 11.565.49 7.462-.31 14.004.62 16.795l-.13-.037c-5.39-1.476-12.72-6.16-13.15-15.434-.06-1.848.25-3.503.79-4.97-3.38 3.009-6.27 5.644-7.97 7.217-.83 3.877.47 10.922-1.61 14.365-2.33 3.859-7.26 6.445-7.28 6.459 0-.001-.02-.025-.05-.07.01.13.01.199.01.201-.02-.026-4.71-6.032-2.96-12.191.12-.439.26-.879.45-1.318 1.47-3.352 5.99-6.048 8.97-7.526 1.21-1.101 5.46-5.03 10.61-9.606-2.28.517-4.88.859-6.67 1.04-3.32 2.669-10.63 7.666-17.25 6.167-8.89-2.013-12.23-10.915-12.25-10.963 19.98 4.77 31.32 3.102 31.36 3.096l-.01.031c2.44-.293 5.39-.775 7.23-1.496 3.24-2.853 6.69-5.822 9.88-8.421a18 18 0 0 1-.45-1.209c-.11.198-.21.364-.32.492-.79.917-1.6 1.48-2.44 1.765-1.18.446-2.39.315-3.59-.201q-.375-.14-.75-.334c-.31.932-.64 1.512-.92 1.593a.6.6 0 0 1-.2.021c.02.047.03.073.04.074-.97.38-7-2.433-11.13-7.162-1.72-.226-2.91-.531-2.98-.646-.1-.182.49-.628 1.36-1.473-.58-.88-1.08-1.81-1.46-2.782l.03-.132c-.74-1.854-.87-3.569-.65-5.089.19-1.323.63-2.5 1.18-3.497 0-.004-.01-.006-.01-.006l.06-.087c-1.63.78-3.68 1.445-5.9 1.42a1 1 0 0 1-.21.11c-.31.123-.93.015-1.71-.31-.53-.105-1.07-.256-1.61-.46-2.95-1.125-5.62-4.407-7.35-7.125-7.3 7.56-19.73 10.801-21.03 9.638-.95-.86-1.23-8.81 1.33-16.403-.48-.881-.98-1.829-1.45-2.884-1.49-.474-3.03-.955-4.61-1.442l.03.28c.66 7.366-1.59 11.963-1.35 16.254.4 4.196 1.75 4.426 1.14 5.104-1.18 1.225-8.48-3.591-10.7-9.411-2.06-5.21-2.47-11.06-1.75-16.044l-1.38-.416a4.9 4.9 0 0 1-1.3 1.42c.04 2.117.11 3.992.64 5.688 1.32 4.448 2.91 4.32 2.23 5.26a.64.64 0 0 1-.25.22l.05.006c-.57.892-3.68.118-6.94-1.766-.8 3.047-2.28 6.277-4.78 8.42-4.61 3.95-10.4 1.376-12.03.086-1.62-1.291-2.73-8.074.82-11.75 1.12-1.139 2.48-2.068 3.94-2.813-.8-1.524-1.54-3.736-1.72-6.465-2.85-1.406-4.95-3.457-6.47-5.474-1.15.86-2.49 1.364-4.13 1.213-.78 1.197-1.47 2.06-1.98 2.387-2.21 1.367-4.12 1.125-5.65.002l-.1-.167c.22.125.45.23.68.318-.3-.15-.58-.333-.86-.544.01.064.03.128.05.19-1.04-.848-2.1-2.126-2.86-3.462-.9-1.647-1.57-4.103-1.51-6.8-.32-.127-.65-.255-.98-.383-1.71 2.85-2.39 5.378-2.77 7.154 2.11.754 5.06 3.328 4.81 9.91-.26 7.115-4.37 10.778-5.79 10.812-1.4.032-6.31-4.969-6.35-11.507-9.47 5.522-23.4 4.442-24.2 2.858-.82-1.635 4.16-16.19 14.16-21.761.1-.055.2-.109.29-.16-.7-.443-1.4-.917-2.08-1.423-1.23 2.444-2.71 4.083-3.48 3.801-.88-.383.33-1.18-1.05-4.936-1.16-3.196-4.11-5.861-6.44-10.718-6.35 4.114-12.87 2.322-14.16.848-.89-1.11-.96-6.394 1.75-10.726-.09-.156-.19-.317-.28-.48-2.63-2.482-5.01-5.09-7.09-7.837-.4.198-.71.236-.9.068-.37-.248-.2-.537-.02-1.309-.25-.352-.49-.706-.74-1.062.21.777.34 1.533.36 2.263.08 6.925-3.97 13.986-3.97 13.986-.05-.018-12.24-4.359-13.98-14.96-.2-1.212-.18-2.506.01-3.831-.43.364-.84.73-1.24 1.1-2.05 2.82-2.08 4.502-8.54 9.496-5.92 4.578-11.63 7.38-13.4 9.713-1.8-5.283-2.01-13.793 5.41-19.227 5.88-4.281 12.59-2 15.31-.752.91-.838 1.88-1.655 2.88-2.437.11-.416.22-.833.35-1.249-5.92.734-12.03.858-18.2.135-1.29 1.714-5.43 3.815-9.78 3.69-5.74-.166-13.21-4.887-13.05-5.971.19-1.216 5.2-5.056 12.92-4.35 6.57.613 9.21 3.844 10.02 4.974 6.35.73 12.63.549 18.72-.28.27-.723.57-1.44.89-2.137-1.06-1.512-1.58-3.054-1.71-3.926-.09-.707.34-1.837 1.18-3.015-.96-.192-1.84-.428-2.63-.675-1.6 1.743-8.47 2.434-13.96-.39-6.43-3.314-12.81-12.525-12.02-13.86.79-1.333 8.63-3.13 17.18 1.748 7.8 4.53 8.84 10.027 9.04 11.35l.09.167c.01.03.01.06.02.09.95.296 1.96.293 3.16.496.16-.181.34-.361.52-.539-1.21-.432-1.95-.935-1.92-1.39.07-.624.7-.363 2.48-1.086.01-1.76.45-4.022 1.41-6.239-.52-1.831-1.17-4.085-2.15-6.712-2.47-6.453-4.56-7.59-6.71-13.671-1.8-5.271.33-7.926.34-7.938.02.024 1.42 1.652 5.73 2.274.97.171 2.11.152 3.32.092 1.62-.395 3.38-.51 5.18-.16-.25-.632-.8-1.205-.88-1.931-2.33-10.076 3.54-22.7 5.29-22.923 1.52-.193 10.09 6.594 13.48 15.102 2.34-1.214 4.93-2.173 7.76-2.874a89 89 0 0 0-5.81-6.237c-.92.052-2.44.024-4.33-.523-2.43-.676-5.49-2.198-8.68-5.511-6.95-7.116-7.27-15.233-6.12-16.328.02.035.04.071.07.107q.03-.04.06-.071c1.02-1.131 11.67 2.773 16.54 8.193 3.59 4.119 4.8 9.835 4.18 12.581a94 94 0 0 1 6.64 7.24c.65-.12 1.32-.228 1.99-.324-2.33-2.567-4.27-6.045-4.51-10.602-.56-11.849 8.21-18.603 14.98-21.118m1038.49 431.329q-.54.178-1.17.331c.16.58.3 1.188.35 1.844.35-.66.74-1.329 1.16-1.995-.11-.058-.23-.118-.34-.18m-74.06.841c.04.165.09.333.13.505l-.09-.454a.2.2 0 0 1-.04-.051m93.24-5.445c-.15 1.204-.58 2.575-1.35 3.929a58 58 0 0 1 2.69-3.721c-.45-.056-.9-.126-1.34-.208m-97.96-2.984c-.02.105-.07.21-.12.246-.02.128-.05.287-.07.474a78 78 0 0 1 1.61 3.215c.22.153.45.323.67.51-.84-1.702-1.19-3.062-1.15-3.619-.3-.256-.62-.531-.94-.826m34.51.34c-1.01.735-1.89 1.256-2.54 1.521.24.403.41.829.51 1.268 1.35-.96 2.61-1.89 3.77-2.783zm63.52 1.454.33.09a6 6 0 0 1-.35-.513c.01.136.02.277.02.423m-98.11-3.234a31 31 0 0 0 2.08 1.91c1.41-.025 4.43.199 8.14.127-.36-.329-.71-.72-1.04-1.182-.02-.033-.04-.067-.07-.099-2.95-.213-5.99-.463-9.11-.756m-.42 1.6v-.031c-.01-.002-.01-.004-.02-.005 0 .012.01.024.02.036m-.95-1.609c.23.367.45.73.65 1.089q.3.03.48.054c-.37-.355-.75-.736-1.13-1.143m-64.02-12.252c0-.006.01-.012.01-.018l-.04-.013zm-96.89-5.674a15.3 15.3 0 0 0 2.08 1.413c-.63-.368-1.32-.845-2.01-1.42zm78.23-.19c-.47.395-.96.752-1.46 1.074 1.81.153 3.79.233 5.77.345-1.44-.467-2.88-.94-4.31-1.419m-44.13-16.137c.17.136.34.267.52.393.03-.05.07-.1.11-.149zm-30.67-4.73c-.17.401-.33.77-.49 1.101.57.026 1.21.12 1.88.307-.56-.501-1.03-.982-1.39-1.408m1.69-5.671a24 24 0 0 1-.74 3.012c.55-.2 1.2-.434 1.93-.703-.47-.782-.87-1.554-1.19-2.309m-161.62-27.557c-.82.034-1.52.09-2.04.142.11.287.23.575.34.863.4.001.84.049 1.33.145.07-.001.16.002.26.007q.075-.013.18-.024a6.6 6.6 0 0 1-.07-.982c-.01-.048 0-.099 0-.151m-.57-2.065c-.7.428-1.27.686-1.64.781-.07.137-.14.278-.22.42l.15.399c.55-.031 1.34-.071 2.31-.103q.03-.245.09-.516c-.13-.309-.26-.629-.37-.957zm479.51-1.99c-.29.406-.58.794-.88 1.166q.615-.392 1.35-.694c-.16-.154-.32-.312-.47-.472m-37.92-19.952q-.09.363-.21.734c.28.446.52.881.73 1.305-.21-.697-.39-1.378-.52-2.039m-34.23-14.491a40 40 0 0 1-2.31 3.387q2.22.705 4.38 1.406c-.14-.359-.3-.722-.46-1.086-.54-1.209-1.08-2.466-1.61-3.707m-63.69-18.062a37 37 0 0 1-2.8 2.995l1.46.393c.37-1.439.7-2.337.7-2.356.01.001.22.036.58.115q.015-.586.06-1.147m-26.18-10.241c-1.39.09-2.56.21-3.26.29q-.96 1.32-1.92 2.655c.49 1.039.95 2.091 1.32 3.125 1.18.299 2.36.602 3.55.907.61-.556 1.38-.941 2.25-1.192-.16-.445-.33-.91-.5-1.397-.53-1.49-1.01-2.96-1.44-4.388m-20.86 1.876.18.042q.45-.654 1.02-1.472c-.23-.317-.46-.643-.68-.975-.17.791-.34 1.593-.52 2.405m26.63-45.457c-1.24 2.239-2.6 4.066-3.66 5.168-.64 1.887-1.31 3.736-2 5.542 3.68.113 6.6 1.362 6.65 1.38l-.06.266c-.29 1.202-1.62 6.215-4.75 9.547-1.83 1.942-5.26 3.007-8.6 3.955a175 175 0 0 1-4.87 8.933c.62 2.573.88 5.099.8 7.344 1.35-1.843 2.56-3.077 2.74-3.087.38.107.31 2.366 1.83 5.511.82-1.12 1.62-2.233 2.42-3.333-.03-3.85-1.07-8.802-.48-11.87-.35-.849-.71-1.562-1.1-2.114.05.015.11.028.15.04l-.12-.171c.69-.012 1.4.006 2.14.058.15-.144.33-.267.53-.367-.12.029-.24.062-.35.099 0 0 2.43-2.153 6.96.918q.72.47 1.29.926c3.67-5.087 6.57-9.12 8.02-11.196.02-.029.04-.059.07-.088-1.79-1.804-6.31-9.409-7.61-17.461m-529.16 32.263c-.26.187-.52.371-.79.551-.6 1.278-1.22 2.568-1.84 3.794 1.29-.41 2.28-.55 2.64-.398.56-.766 1.24-2.086 2.22-3.619a13 13 0 0 1-2.23-.328m463.49-7.426c-1.62 1.61-3.1 2.622-3.78 2.711-.36 1.575-.61 4.381-1.02 7.831 1.84-4.222 4-7.194 4.74-10.285zm50.65 1.765c-1.8.531-3.42 1.088-4.57 1.811.6 1.221 1.12 2.479 1.54 3.743.99-1.735 2-3.59 3.03-5.554m-89.34 1.211c-.57.197-1.13.452-1.64.73l.13.024c.47-.276.97-.53 1.51-.754m-441.09-.086c-.4.088-1.11.231-2.05.354q.93.082 1.83.146c.07-.167.15-.334.22-.5m-143.88-27.373.23-.169-.24-.069c0 .08.01.16.01.238m-92.37-37.658.3-.229c-.09-.033-.19-.066-.28-.101-.01.109-.02.219-.02.33m-11.21-7.84c-.9 1.216-1.66 2.377-2.19 3.603q-.255.601-.45 1.12c1.41.248 2.89.553 4.18.745 2.01.29 4.29.325 6.18.28-2.63-1.601-5.08-3.702-6.83-5.549-.29-.06-.59-.126-.89-.199m-16.99-9.863c-.11.282-.22.57-.32.86 3.44 2.513 5.05 2.621 8.02 4.984.01-.316.03-.63.05-.939-.62-.587-1.22-1.2-1.79-1.834q-1.065-.558-2.16-1.124c-.78-.37-1.46-.725-1.98-1.023-.6-.307-1.21-.615-1.82-.924m-1.73-.246c.08.068.16.136.25.205.07-.195.15-.385.23-.57-.16.123-.33.244-.48.365m261.91-39.213c.29 2.44.89 4.453 1.54 6.147.79-.105 1.56-.136 2.29-.07a20 20 0 0 1 3.21.634c.24.064.48.131.71.202.24-.686.51-1.262.79-1.708-2.72-.507-4.83-1.555-5.88-3.111a.3.3 0 0 1-.05-.167 11 11 0 0 1-2.61-1.927m-394.47-10.752c0 .057-.02.105-.05.142-.38.527-.91.946-1.56 1.262.22 1.001.23 2.383-.01 3.929.48-1.482 1.2-3.228 2.29-5.065-.22-.088-.44-.179-.67-.268M1278.4-26.14c-8.16-.209-14.71.282-19.59.927 7.12 1.515 14.59 3.077 22.32 4.684-.17-.33-.34-.66-.5-.987a82 82 0 0 1-2.23-4.624" clip-rule="evenodd"/><path fill="url(#d)" d="m2050.59 330.88-.13-.036.14-.002c-.01.024-.01.036-.01.038"/><path fill="url(#e)" d="m595.877-64.963-.146.01.129-.046z"/><defs><radialGradient id="a" cx="0" cy="0" r="1" gradientTransform="matrix(0 332.883 -951.29 0 908.563 348.618)" gradientUnits="userSpaceOnUse"><stop stop-color="#c5ddf9"/><stop offset="1" stop-color="#8ab4d0"/></radialGradient><radialGradient id="b" cx="0" cy="0" r="1" gradientTransform="matrix(0 332.883 -951.29 0 908.563 348.618)" gradientUnits="userSpaceOnUse"><stop stop-color="#c5ddf9"/><stop offset="1" stop-color="#8ab4d0"/></radialGradient><radialGradient id="c" cx="0" cy="0" r="1" gradientTransform="matrix(0 332.883 -951.29 0 908.563 348.618)" gradientUnits="userSpaceOnUse"><stop stop-color="#c5ddf9"/><stop offset="1" stop-color="#8ab4d0"/></radialGradient><radialGradient id="d" cx="0" cy="0" r="1" gradientTransform="matrix(0 332.883 -951.29 0 908.563 348.618)" gradientUnits="userSpaceOnUse"><stop stop-color="#c5ddf9"/><stop offset="1" stop-color="#8ab4d0"/></radialGradient><radialGradient id="e" cx="0" cy="0" r="1" gradientTransform="matrix(0 332.883 -951.29 0 908.563 348.618)" gradientUnits="userSpaceOnUse"><stop stop-color="#c5ddf9"/><stop offset="1" stop-color="#8ab4d0"/></radialGradient></defs></svg>