<svg xmlns="http://www.w3.org/2000/svg" width="412" height="187" fill="none" viewBox="0 0 412 187"><path fill="#a2c1db" d="M-10.582 66.104c-4.362-10.912-3.131-23.866 3.202-33.757 1.548-2.394 3.553-4.752 6.262-5.597 5.489-1.69 11.33 5.21 8.796 10.349l13.756-9.222c.352 2.675.669 5.35 1.02 8.025 5.665-7.638 16.924-10.525 25.543-6.477-4.82-1.619-2.357-9.997 2.674-10.806 5.032-.775 9.535 2.992 12.912 6.794-1.794-2.992-3.659-6.16-3.623-9.645 0-3.485 2.673-7.216 6.157-7.005 2.251.14 4.116 1.83 5.629 3.485a64 64 0 0 1 8.69 11.897 4156 4156 0 0 0 5.348-19.853C86.24 2.602 86.91.667 88.598.14c2.252-.74 4.222 1.619 5.348 3.696 3.87 6.97 6.896 14.397 9.077 22.07 3.483-6.3 7.776-12.179 12.701-17.459.95-1.02 2.006-2.042 3.343-2.429 2.181-.563 4.398.775 6.086 2.253 12.561 10.842 14.038 32.208 3.096 44.704a44.1 44.1 0 0 1 15.199 4.048c-3.94 3.028-7.845 6.055-11.786 9.082 1.759.387 3.483.915 5.172 1.549 0-.352 0-.669.07-1.021.528-3.027 3.096-5.949 6.157-5.738 5.841.458 9.324 10.948 14.355 7.956 4.468-2.64-.387-11.088 3.659-14.327 6.755 4.33 10.52 12.919 9.112 20.839 9.992-6.055 22.341-8.167 33.776-5.738.985.211 2.146.599 2.392 1.584.176.704-.211 1.443-.598 2.042a98 98 0 0 1-11.962 15.734c10.414-6.265 23.959-7.04 35.007-2.006-5.242 3.168-9.851 7.427-13.37 12.426 3.413.246 6.791.739 10.168 1.443 1.97-.915 4.152-1.338 6.263-1.197 5.734.387 10.766 3.802 15.48 7.075-1.548-2.534-3.166-5.561-2.111-8.377 1.337-3.556 6.403-4.295 9.711-2.43 3.307 1.901 5.207 5.457 6.931 8.836a102.4 102.4 0 0 1 6.825-23.443c8.022 5.35 13.088 14.924 12.983 24.569 5.347-7.709 15.198-12.003 24.452-10.77a89 89 0 0 1-13.827 23.689c11.68-9.047 28.04-11.581 41.902-6.477a73.9 73.9 0 0 1-24.839 19.043c12.103-6.406 27.654-5.667 39.053 1.901-5.735 3.063-11.505 6.16-17.239 9.223 10.449-1.901 21.426-.81 31.312 3.097 5.77-3.942 11.47-8.025 17.029-12.285 5.84 8.484 6.051 20.452.563 29.181 5.735-4.681 12.666-7.884 19.948-9.152 2.78 9.328-2.216 20.346-11.082 24.359 7.881-1.971 16.782 1.056 21.848 7.427.634.81 1.232 1.725 1.197 2.746-.071 1.76-1.936 2.851-3.589 3.485-8.972 3.555-18.682 5.35-28.357 5.174 6.051 1.443 11.61 4.823 15.656 9.504.668.775 1.337 1.655 1.478 2.675.316 2.676-3.061 4.33-5.735 4.119s-5.454-1.303-8.022-.423c7.459 3.872 14.918 7.78 22.376 11.652-1.724 8.166-10.554 13.2-18.893 13.376-8.338.176-16.254-3.309-23.819-6.723a41.45 41.45 0 0 1-1.301 19.677c-1.056 3.379-3.659 7.216-7.142 6.476-2.006-.422-3.308-2.288-4.398-4.012-2.92-4.682-5.489-9.575-7.74-14.608-1.795 4.576-3.624 9.116-5.419 13.692-.563 1.444-1.196 2.957-2.392 3.978-3.448 2.957-9.007-.317-10.66-4.541s-1.056-8.976-2.147-13.376c-5.523 1.76-11.047 3.555-16.571 5.315 2.815 2.253 5.067 5.245 6.298 8.624-9.253 1.76-19.139.176-27.407-4.364 1.02 3.379 3.659 5.984 5.418 9.046 1.759 3.063 2.427 7.392-.141 9.786-2.709 2.534-7.107 1.302-10.484-.317a70 70 0 0 1-17.557-12.285c-4.468 5.526 1.443 16.509-4.89 19.677-2.779 1.408-6.263-.176-8.303-2.499-2.041-2.359-3.131-5.351-4.715-8.026-.527-.88-1.196-1.76-2.181-2.042-1.759-.457-3.202 1.268-4.574 2.464-3.659 3.204-9.886 2.852-13.123-.739-3.272-3.59-3.026-9.821.493-13.165-3.73.669-8.092.986-11.822.141v.035c-.035 0-.07-.07-.14-.07-2.639-.598-4.891-1.76-6.298-3.802-3.835-1.936-7.952-3.344-12.209-4.012 3.835 3.977 7.635 7.955 11.47 11.932.704.74 1.478 1.62 1.442 2.64-.035.986-.809 1.76-1.618 2.324-5.418 3.766-12.807 1.267-18.717-1.655a160 160 0 0 1-21.497-12.883c-1.618 4.646-.422 10.067-2.674 14.432-2.04 3.907-6.896 6.125-11.188 5.069s-7.564-5.28-7.564-9.68c-3.976 7.427-11.118 13.094-19.245 15.347-1.196.317-2.533.599-3.694.141-4.293-1.725-.774-8.8-3.167-12.778-2.392 1.091-4.855 2.183-7.494 2.112-2.603-.07-5.383-1.689-5.84-4.259-.141-.739-.07-1.478 0-2.218a11 11 0 0 1-2.498-.844c-4.292-2.148-8.55-4.26-12.842-6.407-.176 4.119 4.363 8.202 2.252 11.687-1.865 3.097-6.58 1.865-9.746.176a175 175 0 0 1-18.717-11.44c1.407 3.168-2.955 5.772-6.368 6.195-9.886 1.232-20.23-1.267-28.463-6.935a229 229 0 0 1-16.923 3.485c-1.618.282-3.413.493-4.785-.422-1.266-.845-1.794-2.464-2.814-3.591-2.393-2.675-6.58-2.288-10.168-2.147-3.589.141-8.092-.88-8.831-4.4l5.313-171.496z"/></svg>