<svg xmlns="http://www.w3.org/2000/svg" width="305" height="204" fill="none" viewBox="0 0 305 204"><path fill="#335e80" d="M134.832 80.361c.214.129-6.051 3.031-6.854 3.32-4.23 1.532-15.099 6.083-19.533 5.269-2.442-.45-4.262-2.056-5.836-3.759-4.402-4.787-2.056-9.145-4.37-11.651-2.002-2.174-4.626-2.656-6.414-4.616-.31-.332-3.234-1.007-3.256-1.67-6.875-3.449-12.904-7.957-18.59-12.873-.333 2.153-.729 5.098 1.006 5.526 6.597 1.65 16.203 10.913 12.776 19.351-1.681 4.145-4.83 9.435-4.466 14.104.054.675-.14 1.81-.225 2.774-1.21-2.367-3.876-6.597-4.637-7.079-5.547-3.534-9.97-10.548-8.353-17.07 1.778-7.11 4.626-9.938 1.831-17.852.31-.182.536-.535.771-.9-4.53-3.994-8.888-8.203-13.3-12.315-3.78-3.523-5.194-9.135-8.696-12.937-.707 4.413 1.52 8.76 1.328 13.28-.043.9-1.22 3.277-.921 4.348.482 1.68 1.778 4.497 2.356 6.532 1.092 3.813-.428 14.243-2.367 17.724-.417.738-.246-1.682-.47-2.506-.868-3.01-3.867-5.901-5.173-8.835-.45-1.007-1.328-1.842-1.778-2.849-.621-1.392-.418-2.945-.257-4.24.396-3.096.428-5.912 1.253-9.007 1.574-5.88 5.665-8.685 4.101-14.147-.096-.31-.257-1.413-.364-2.484-2.88-2.624-8.76-7.903-9.113-9.135-.664-2.335-16.47-7.154-26.162-9.97 1.2 1.114 1.82 2.484 3.78 3.566 1.778.985 2.977.771 4.626 1.071 5.27.985 6.447 6.104 9.392 9.306 2.602 2.838 4.701 6.672 6.286 10.206.365.835.986 1.37 1.521 1.97.043.043.514 1.028.782 1.446-1.05-.771-6.865-3.33-7.41-3.641-4.263-2.356-9.414-3.395-12.691-7.4-2.891-3.555-1.628-9.295-4.862-12.765-.846-1.874-2.035-2.442-3.052-3.93-.16-.247-.535-.429-.953-.59C4.728 5.41 2.66 4.82 2.029 4.617-.509 3.813-15.555-.33-15.5-1.284c.075-1.767 10.12 2.752 11.18 2.806 5.74.235 12.412 3.351 17.96 3.587.941.043 1.905.428 2.88.889 2.077-.279 5.975.107 5.922-2.56-.022-1.178-.9-4.819-.118-6.457 3.224-6.736 9.938-11.202 17.82-10.474 4.176.386 9.178.011 13.13-1.392 2.344-.824 5.225-1.649 5.054-1.478-2.817 2.924-8.878 4.466-10.71 8.268-.792 1.649-2.045 3.073-3.148 4.669C41 1.629 41.985 4.156 34.703 5.74c-7.09 1.542-6.05-4.059-14.061.932-.45.278-.953.396-1.457.492.76.31 1.532.546 2.292.578 4.616.204 9.081 5.29 14.575 5.109C46.568 12.488 55.5 5.634 65.406 2.796c1.52-.428 3.03-.675 4.53-.846C71.337.91 76.574.515 75.728-2.43c-.332-1.125-2.11-4.423-1.778-6.211 1.371-7.347 6.704-13.387 14.5-14.714 4.134-.707 8.867-2.357 12.326-4.745 2.046-1.403 4.616-2.945 4.498-2.741-1.97 3.555-7.421 6.607-8.203 10.752-.332 1.81-1.178 3.49-1.831 5.322-2.046 5.772-.44 7.978-7.057 11.384-6.447 3.32-6.897-2.356-13.333 4.551-.15.15-.29.29-.46.396 1.82-.107 3.662-.214 5.547-.47.45-.065.91-.161 1.37-.236-2.506.878-5.622 2.302-7.132 2.977a20 20 0 0 1-2.56.931c1.629 1.285 3.653 2.646 4.766 1.489 4.723-4.894 17.552-8.578 23.153-1.392 2.742 3.534 5.762 8.91 9.981 10.923.61.29 1.499 1.028 2.292 1.585-2.656-.15-7.657.075-8.45.482-5.825 3.041-14.125 3.373-18.955-1.307C79.134 11.45 78.106 7.572 69.86 6.03c0-.257-.096-.525-.214-.792a52 52 0 0 1-7.057 1.081c-2.356.193-4.53 1.853-6.918 2.527-4.24 1.221-7.839 4.434-12.037 5.633-.685.193-4.905.986-4.733 1.628.15.514 2.677 1.756 3.062 2.12 1.489 1.382 4.745 5.023 6.908 7.7 1.788.89 3.866 1.789 4.862.022.567-1.018 1.627-4.626 3.127-5.655 6.157-4.23 14.2-4.733 20.657-.16 3.427 2.42 7.936 4.594 12.07 5.365 2.441.45 5.343 1.189 5.108 1.253-3.898 1.114-9.917-.578-13.397 1.81-1.51 1.039-3.31 1.638-5.066 2.474-5.525 2.634-5.943 5.322-13.043 3.062-6.918-2.206-3.202-6.543-12.648-6.222h-.192c.053.054.128.15.16.204 3.823 5.58 6.372 13.697 13.194 16.792 1.681-.375 13.311.674 15.057.535 1.863-.15 5.365.225 6.918-.578 1.874-.975 2.42-7.882 5.397-7.946 7.025-.129 13.44 2.302 19.651 2.195 2.881-.053 6.736-3.352 8.246-3.384.257 0-3.716 5.644-4.273 6.308-2.902 3.437-10.024 12.83-14.286 14.328-2.345.825-4.722.354-6.928-.332-6.212-1.949-6.35-6.885-9.606-7.914-1.114-.342-2.174-.417-3.213-.428-3.277.129-6.811-.128-9.028-.31-1.928.042-3.984.064-5.676.02 1.125 1.447 3.524 2.539 4.84 3.856 8.311 8.31 11.17 9.585 21.301 15.196.975.546 4.316 2.624 7.122 4.487.77.364 1.499.643 2.099.664 2.109.097 6.05-5.622 8.652-4.176 6.147 3.405 10.495 8.717 15.925 11.726 2.516 1.403 7.518.471 8.824 1.2zm-22.939-62.947c.975.053 1.66.139 1.671.3.011.781-.76.353-1.671-.3M81.394.9c1.242-.428 2.377-.77 2.999-.75.332.011.717.012 1.049.022A123 123 0 0 1 81.394.9m4.048-.728c2.849-.557 5.708-1.146 8.62-1.467a.6.6 0 0 1-.074-.203c-.15-.514 3.673-2.26 4.337-2.453 5.462-1.563 5.654-6.532 9.82-10.977 2.185-2.334 4.552-3.866 6.972-5.836 1.017-.825 2.227-1.82 3.737-2.024 1.093-.15 2.271.15 3.363 0 3.18-.439 7.228.568 10.238-.3.814-.235 2.795-1.66 2.377-.92-1.928 3.49-9.981 10.301-13.772 11.394-2.034.578-5.097.985-6.779 1.467-1.06.31-2.452 2.56-3.202 3.073-4.037 2.774-9.413 3.03-12.775 6.693 1.552.247 3.277.793 4.572 1.146 1.35.364 2.828.407 4.305.407-.042-.193.204-.096.482.01 1.585-.02 3.17-.063 4.659.162 3.652.546 7.218 1.413 10.891 1.788 1.135.107 4.101.46 7.346.9 3.77-.986 4.809 1.145 8.268 1.092 2.024-.032 2.966-.825 4.54-1.392 5.055-1.778 8.632 2.056 12.787 3.362 3.684 1.157 7.4 3.416 10.548 5.687.75.535 1.542.707 2.303.931.064.022.953.632 1.403.868-1.296-.14-7.604.535-8.225.557-4.862.085-9.863 1.767-14.693-.065-4.08-1.552-5.879-6.714-9.981-8.395-2.184-.472-4.187-.953-4.262-.964-5.322-.225-12.283.31-17.059-1.382-1.371-.492-2.795-.867-4.23-1.21 1.188 1.103 1.82 2.463 3.758 3.545 1.778.985 2.978.771 4.627 1.07 5.269.986 6.447 6.105 9.392 9.307 2.602 2.838 4.69 6.661 6.286 10.206.375.824.996 1.381 1.521 1.97.042.043.524 1.039.781 1.467-1.028-.75-6.864-3.33-7.41-3.64-4.263-2.357-9.414-3.395-12.691-7.4-2.891-3.556-1.627-9.296-4.862-12.766-.846-1.874-2.034-2.442-3.052-3.93-.042-.064-.107-.107-.16-.16C102.041.214 93.292.482 85.453.203zm52.86 29.493c.107.085.193.15.171.171s-.085-.043-.171-.171M79.07 96.179c.45.878.696 1.51.568 1.595-.664.407-.686-.47-.568-1.595m91.562-82.503s-.107 0-.246-.075c.15.022.236.043.246.075M35.709 34.462s-.085-.042-.182-.182c.129.086.193.15.182.182"/><path fill="#335e80" d="M125.998 182.1c.045-.151-.605-.437-1.543-.753.711.888 1.331 1.52 1.543.753m-1.543-.753c-.605-.767-1.271-1.731-1.785-2.182-3.554-3.131-4.991-9.196-6.686-13.395-3.448-8.549-17-8.534-22.99-5.103-.44.256-.908.241-1.377.046-1.604-1.957-3.222-3.914-4.795-5.9-5.763-7.315-11.934-15.096-19.225-20.966-.272-.211-.514-.452-.786-.662 6.473.286 8.667 3.461 14.43 6.773 5.899 3.386 14.006 1.053 18.998-3.357.68-.602 5.566-2.017 8.213-2.528-.908-.362-1.967-.858-2.647-.994-4.659-.948-8.94-5.478-12.524-8.278-7.276-5.689-19.013 1.069-22.477 7.014-1.074 1.851-4.78-.181-6.716-1.038-4.931-4.606-9.227-9.693-14.869-13.697-3.373-2.393-7.502-4.711-11.238-6.291-6.625-2.814-13.462-9.256-18.318-14.449-2.39-2.558-4.87-5.147-7.638-7.314-1.588-1.235-5.249-2.273-6.232-3.974-.454-.768 8.592-1.746 9.817-2.002 2.586-.526 5.309-1.64 8.032-2.212.907.331 1.905.647 2.238 1.144 1.21 1.82 2.647 2.528 3.63 4.831 3.873 4.29 2.194 11.228 5.657 15.593 3.903 4.936 10.165 6.291 15.308 9.256.665.376 7.714 3.627 8.954 4.575-.318-.526-.877-1.73-.922-1.791-.636-.722-1.377-1.399-1.816-2.408-1.86-4.334-4.326-9.015-7.442-12.507-3.524-3.958-4.855-10.19-11.253-11.499-2.012-.406-3.479-.165-5.627-1.4-3.449-1.986-3.418-4.65-7.2-6.065.575-.075 1.165-.12 1.74-.105 3.6.06 7.653.255 11.269.03 2.904-.18 6.519 2.062 9.196 2.784.484.136 1.044.256 1.649.392 1.013 1.173 2.087 2.001 2.858 3.837 3.873 4.29 2.209 11.228 5.657 15.593 3.903 4.937 10.165 6.291 15.308 9.256.665.377 7.699 3.628 8.954 4.576-.317-.527-.862-1.731-.922-1.791-.636-.723-1.377-1.4-1.816-2.408-1.86-4.335-4.325-9.016-7.441-12.508-3.525-3.958-4.84-10.189-11.254-11.498-2.012-.407-3.479-.166-5.627-1.4-1.709-.978-2.571-2.137-3.464-3.206a96 96 0 0 0 5.945.798c3.766 1.776 5.657-.18 9.544.858 2.39.632 3.267 1.836 4.977 2.965 5.46 3.582 10.814.105 16.124-.211 4.689-.286 9.77-1.851 14.157-3.612 1.029-.407 2.042-.377 2.995-.437.076 0 1.331-.466 1.921-.617-1.558-.21-8.848-2.875-9.59-3.07-5.747-1.535-11.147-4.967-17.41-4.23-5.445.648-9.15 6.502-14.762 7.03-3.419-.422-7.155-.859-7.714-.904-6.595-.496-12.494-2.89-18.212-4.033 5.249-2.394 8.713-.889 15.035-.889 6.822 0 12.66-6.05 14.763-12.356.287-.858 3.797-4.515 5.839-6.276-.968.135-2.133.24-2.799.451-4.507 1.49-10.497-.286-15.004-.933-9.151-1.31-15.928 10.385-15.928 17.263 0 1.701-2.677 2.092-4.825 2.303-.393-.045-.786-.105-1.165-.135-4.205-.271-8.364 1.43-12.463 1.79-.363-.15-.696-.285-.636-.03.016.016.016.03.03.046-.347.015-.68.045-1.028.045-2.148-.03-4.719.165-7.366.421 4.432-3.642 8.183-3.085 14.279-4.71 6.595-1.762 10.648-9.106 11.042-15.744.06-.903 2.495-5.343 4.008-7.57-.908.391-2.012.782-2.587 1.159-3.963 2.603-10.225 2.423-14.732 2.965-9.181 1.098-12.69 14.132-10.906 20.77.439 1.595-1.906 2.649-3.902 3.401-2.481.256-4.946.512-7.11.647-4.325.256-18.347-10.67-21.826-13.741-3.872-3.417-8.682-5.674-11.48-10.325-.227.166-3.827 2.408-3.464 3.04 1.089 1.882 12.1 8.7 14.732 10.536.65.451 1.27.933 1.906 1.415.832 2.107 3.872 7.149 1.467 8.534-7.184 4.123-15.322 18.166-8.47 26.85 3.373 4.275 8.833 9.392 9.983 14.961.166.797.771 2.062 1.21 3.16.62-3.175 2.344-9 3.055-9.813 5.325-5.975 8.153-15.638 4.054-22.696-4.235-7.3-8.304-9.798-8.198-18.678 4.356 3.431 8.47 7.028 12.796 10.25 4.114 3.07 8.804 5.297 13.069 8.097.802.526 1.361 1.279 1.966 1.986.136 2.047 1.997 8.098-.786 8.85-8.017 2.137-19.528 13.591-15.156 23.765 2.148 4.997 6.095 11.349 5.748 17.023-.046.813.196 2.197.347 3.356 1.422-2.905 4.599-8.097 5.506-8.684 6.686-4.395 11.934-13.019 9.817-20.891-2.269-8.413-5.687-11.83-2.798-21.04 4.371 3.717 7.804 8.578 12.493 12.085 4.584 3.417 11.602 4.681 14.37 9.437.696 1.204.741 3.567.998 4.891.136.693.394 1.596.636 2.439-.847 1.038-2.27 4.334-2.45 5.012-1.786 6.652-7.851 7.013-13.175 12.146-2.799 2.694-4.614 5.598-6.973 8.579-.999 1.249-2.178 2.739-2.405 4.575-.167 1.34.226 2.739.075 4.079-.469 3.868.847 8.759-.136 12.432-.272.993-1.966 3.416-1.074 2.905 4.205-2.424 12.343-12.312 13.598-16.963.666-2.468 1.09-6.216 1.649-8.263.348-1.294 3.07-3.025 3.69-3.943 3.374-5.087 3.495-11.83 8.244-15.969.046.346.121.723.151 1.054v.527c-.045.105-.015.376.016.647.075 4.665-.923 9.677-1.226 14.358-.226 3.522 1.891 9.618 4.75 15.713.272 1.024.71 1.806 1.21 2.529.847 1.67 1.724 3.296 2.617 4.846.544 2.243-.03 3.582-.136 5.554-.394 6.487 5.324 9.377 8.243 13.786 2.587 3.899 6.49 7.496 10.21 10.401.877.692 1.346 1.565 1.876 2.378.045.06 1.059.903 1.497 1.339-.59-1.46-1.92-9.045-2.117-9.783-1.543-5.719-1.24-12.086-5.022-17.113-3.343-4.455-10.513-4.65-13.674-9.482-.907-.707-1.467-1.415-1.936-2.137a32 32 0 0 1-.635-1.686c-2.027-5.96-4.704-12.687-4.81-19.099-.03-2.017.09-4.019.211-6.02.968 1.685 2.345 2.829 3.04 5.388.636 2.378.031 3.732-.09 5.764-.393 6.487 5.31 9.377 8.244 13.787 2.586 3.898 6.489 7.495 10.21 10.4.877.692 1.346 1.565 1.875 2.378.03.06 1.059.903 1.498 1.339-.59-1.46-1.922-9.045-2.118-9.783-1.543-5.719-1.24-12.085-5.022-17.112-3.343-4.455-10.512-4.636-13.674-9.467-1.966-1.536-2.299-3.101-3.75-4.741-.046-.046-.076-.106-.107-.166.106-2.303.121-4.605-.211-6.923-.439-2.995-.787-6.382-1.483-9.302-.302-1.249-2.964-3.762-1.724-3.431 4.402 1.174 7.215 6.487 10.8 9.151 3.872 2.889 6.791 6.592 10.24 9.993 2.813 2.77 6.186 5.208 8.712 8.263 3.797 4.591 7.684 9.828 12.222 14.193 0 .181 0 .346-.03.497q.726.361 1.361.722c1.331 1.189 2.708 2.303 4.16 3.296 2.465 2.785 3.267 5.991 5.732 10.25 3.404 5.87 11.602 7.872 18.136 6.547.893-.18 5.839 1.009 8.38 1.897zm-51.624-3.868c.075.166.12.271.166.256.045 0-.03-.12-.166-.256m-68.066-29.68c-.53 1.069-.817 1.851-.666 1.942.832.481.817-.587.666-1.942m-16.866-22.14c-.226 1.174-.317 2.002-.136 2.047.923.241.636-.782.136-2.047m55.194-73.372c1.044-.452 1.815-.889 1.135-1.28-.136-.075-.575.467-1.135 1.28m31.855 6.818c1.12-.166 1.997-.392 1.422-.949-.106-.105-.68.301-1.422.949m32.037 24.758c.166.03.302.03.302-.015s-.106-.03-.302.015m-47.51 32.374c.105.166.181.271.196.226.03-.045-.06-.135-.196-.226m48.992 17.851c1.059.421 1.921.647 1.709-.106-.045-.15-.741-.075-1.709.106m-32.233 69.881s-.09-.121-.182-.226c.06.165.121.271.167.256 0-.03.015-.015 0-.03zm5.808-86.813s-.06-.121-.196-.226c.105.18.181.271.196.226M304.955 77.658c.211-.787-2.11-2.558-2.456-3.133-1.793-3.118-8.875-14.03-11.753-15.952-.949-.62-2.742-.741-3.827-1.029-4.129-1.105-7.625.06-11.226-.212-3.45-2.134-7.323-4.54-7.925-4.934-4.219-2.8-8.423-5.539-12.627-8.293 1.733-.076 3.345-.545 5.695.09 2.381.636 3.255 1.847 4.958 2.982 5.439 3.602 10.773.106 16.062-.212 4.671-.287 9.734-1.861 14.103-3.632 1.025-.409 2.034-.378 2.984-.439.075 0 1.311-.47 1.913-.62-1.552-.212-8.799-2.891-9.538-3.088-5.725-1.544-11.104-4.994-17.343-4.253-5.529.666-9.266 6.78-15.022 7.083-2.215.893-3.707.47-5.711.817-5.093-3.344-10.231-6.734-15.369-10.094 4.234 1.453 8.483-1.907 13.139-2.18 5.063-.302 8.483 3.875 13.923 1.68 8.709-3.51 12.943-13.015 22.466-14.983 1.642-.333-3.33.333-5.003.303-3.33-.06-6.66-.969-10.155-1.907-7.519-2.028-17.388-4.162-22.105 4.359-1.16 2.088-.512 5.948-2.049 7.688-2.124 2.406-7.338 3.163-11.512 4.177-5.861-3.844-11.707-7.658-17.689-11.623-.543-.363-1.1-.696-1.658-1.03a52 52 0 0 1 5.666-3.238c2.034-.999 5.439-3.602 7.564-3.738 2.561-.152 7.458 6.735 10.592 4.918 7.399-4.283 12.552-10.866 19.091-14.65 3.029-1.755 9.116-.726 10.698-1.65.272-.15-7.413-3.571-8.392-3.904-5.169-1.77-18.473-7.113-23.853-6.008-2.953.605-5.138 2.603-7.006 4.706-5.244 5.933-2.305 11.2-5.048 14.302-2.381 2.694-5.56 3.345-7.699 5.767-.377.423-4.008 1.332-3.918 2.134-5.485-3.133-11.195-5.6-16.921-8.597 4.535-4.525 6.991-9.852 13.877-9.02 3.255.394 6.118 2.3 9.327.454 5.379-3.118 5.53-11.366 8.423-14.635 1.853-2.088 4.942-5.1 7.971-5.282.452-.03 2.742-.862 2.712-.923-.934-1.635-9.493-2.558-11.482-3.087-9.673-2.603-27.694 1.165-26.88 14.62.135 2.376 1.838 5.402 1.326 7.37-.558 2.089-5.681 7.295-7.429 9.338-.708-.394-1.416-.772-2.124-1.196-1.974-1.15-3.662-2.906-5.41-4.343-3.812-.06-13.636-8.914-14.314-6.326-.136.53 14.917 10.609 17.117 11.214 2.818.757 5.364 4.056 7.112 5.63a8 8 0 0 0 1.356.969c.241 2.058 4.656 6.931 1.371 8.838-1.235.712-5.575 2.089-6.795 3.95-5.003 7.613-5.44 17.435.256 25.214 3.028 4.132 5.756 9.596 6.78 14.605.603 2.966 1.552 6.493 1.628 6.205 1.28-4.782-.92-12.092 1.913-16.39 1.236-1.877 1.914-4.072 2.893-6.236 3.089-6.81 6.344-7.37 3.436-15.982-2.833-8.384-8.016-3.768-7.821-15.3.016-1.348-.813-2.498-.949-3.754 3.195 1.105 7.007 1.71 9.719 3.224 3.074 1.71 6.027 3.496 8.95 5.297.467 1.755 4.189 7.506 1.597 9.005-7.157 4.147-15.263 18.267-8.438 27 3.36 4.298 8.8 9.443 9.945 15.043.166.802.769 2.089 1.206 3.178.617-3.178 2.32-9.05 3.043-9.867 5.304-6.009 8.122-15.725 4.038-22.823-4.339-7.537-8.483-9.989-8.151-19.524 4.083 2.589 8.076 5.222 12.069 7.886.693.469 1.914 1.362 3.285 2.406.165 1.377 1.476 4.631 1.823 5.221 3.45 5.994-.558 10.534-.678 17.95-.06 3.904.708 7.25 1.16 11.033.196 1.589.407 3.48 1.552 4.949.829 1.06 2.095 1.786 2.938 2.845 2.411 3.072 6.796 5.63 8.694 8.945.513.892 1.025 3.829 1.296 2.83 1.251-4.692-.015-17.496-2.426-21.688-1.281-2.225-3.631-5.191-4.686-7.038-.678-1.165.015-4.328-.196-5.418-1.19-5.842-5.665-10.609-5.514-16.663 2.335 1.771 4.821 3.617 6.916 5.025.738 1.347 1.702 2.996 2.923 4.071 1.687 1.498 3.42 3.496 5.093 5.676-1.281 6.356 1.808 11.547 5.786 16.632 1.823 2.331 2.998 4.087 4.415 6.554.09.15 1.25 2.406 1.31 2.77.031-.152.317-1.03.302-1.106-.317-1.559-.256-4.147-.091-5.796.784-8.112-1.928-16.133-9.869-19.418-.226-.378-.437-.772-.663-1.15-1.16-2.028-2.712-3.799-4.234-5.615 4.46 1.59 10.653 6.856 16.469 10.958-.136 2.103 1.13 3.269 2.2 5.145 4.731 8.233 9.553 10.398 19.347 10.564 1.462.03 11.451 4.783 11.572 4.344zm-79.709.287c-.226 1.18-.316 2.013-.135 2.059.919.242.633-.787.135-2.059m75.942-35.687s-.121-.03-.317.015c.181.03.302.03.317-.015"/></svg>