<svg xmlns="http://www.w3.org/2000/svg" width="2020" height="1367" fill="none" viewBox="0 0 2020 1367"><path fill="#456b8d" d="M2008.78 272.405c4.48 2.846 14.49-10.071 10.15.153-3.39 8.013-49.75 98.746-53.65 107.963-1.9 4.51-5.44 4.729-6.65 10.487-2.48 11.757-5.58 19.792-8.88 31.461-2.17 7.706-1.22 18.631-4.45 26.228-2.24 5.298-6.48 10.093-8.87 15.741-7.33 17.296-10.18 36.081-15.54 55.062-3.07 10.903-25.85 95.942-26.69 96.928-3.17 3.743-5.04 11.209-8.88 15.741-1.33 1.576 0 13.245 0 15.741 0 21.018-11.62 71.569-6.65 89.149 3.45 12.195 5.67 26.513 11.1 39.343 1.78 4.203-1.78 11.537 0 15.741.34.788 1.71-.613 2.23 0 1.35 1.598 7.04 43.305 8.88 49.829 5.24 18.566-2.99 41.882 2.22 60.316 5.97 21.127 13.96 44.203 19.98 65.548 1.11 3.941-1.11 9.174 0 13.115 4.11 14.559 6.69 31.699 8.88 47.199.72 5.17-1.08 10.64 0 15.74 6.17 29.19 12.6 61.37 17.76 91.78 7.06 41.75 10.82 84.86 17.75 125.86 2.95 17.39 8.88 31.86 8.88 49.83 0 13.84 7.27 44.23 6.65 44.58-10.88 6.41-37.92 0-51.06 0-5.73 0-50.29 14.03-53.29 10.49-3.59-4.25-4.43-57.65-6.65-65.55-15.48-54.85 26.08-112.17 11.14-165.11-.93-3.32.92-7.18 0-10.48-2.08-7.34-4.49-26.32-6.66-31.46-.33-.79-1.89.78-2.22 0-3.93-9.29-8.71-54.58-13.33-68.18-6.15-18.15-11.82-46.588-22.2-62.943-8.9-13.989-18.67-27.804-26.64-41.947-4.34-7.685-7.54-19.419-13.32-26.228-14.3-16.88-33.66-33.497-51.07-47.202-10.27-8.101-20.85-12.326-31.08-18.347-10.99-6.48-16.54-20.251-26.64-26.228-4.72-2.78-16.33-8.801-19.98-13.114-20.44-24.148-52.12-26.491-75.47-47.202-4.54-4.028-8.6-9.392-13.33-13.114-5.41-4.269-12.55-5.889-17.76-10.487-2.52-2.233-3.85-6.217-6.65-7.859-2.15-1.27-6.73-1.358-8.88-2.628-11.73-6.918-21.09-19.025-33.31-26.228-7.35-4.335-26.63-10.903-26.63-20.974 0-1.576-31.05-52.5-28.86-55.061 10.57-12.479 22.98 23.688 28.86 34.088 12.07 21.39 21.98 27.892 44.39 36.715 3.5 1.379 5.45 6.239 8.88 7.859 6.49 3.065 11.62 3.022 17.76 7.86 20.48 16.135 40.64 31.877 62.16 44.575 10.98 6.48 22.21 17.252 22.21 15.741 0-3.809-9.71-15.106-11.1-18.346-2.04-4.817-2.25-13.18-4.45-18.347-2.04-4.816-6.18-8.845-8.88-13.114-4.17-6.568-11.75-24.761-15.53-31.461-6.77-1.861-.86-7.268-2.23-10.487-.87-2.036-5.45-6.677-4.45-7.859 5.73-6.765 18.89 14.449 22.21 18.346 2.54 3 2.32 13.224 4.45 15.742 10.3 12.172 14.57 23.185 22.2 36.715 11.55 20.47 15.61 30.65 33.31 44.574.87.679 1.48 1.752 2.22 2.628.74 1.751.89 4.072 2.23 5.254 8.97 7.947 19.61 12.676 26.63 20.974 1.69 1.992 8.77 2.495 11.1 5.254 5.79 6.831 13.04 14.756 22.21 18.347 7.17 2.824 14.25 6.349 17.76 10.486 1.48 1.752 7.39-1.751 8.87 0 3.38 3.985 20.56 15.742 26.64 15.742 3.47 0 43.02 38.707 37.74 26.228-10.73-25.353-15.26-80.239-22.21-104.891-4.04-14.296 0-49.829 0-65.548 0-35.621 16.64-64.673 7.5-97.075-1.63-5.78-53.08-53.77-54.11-55.018-1.71-2.014-4.01-9.983-6.66-13.114-5.17-6.108-14.97-15.719-19.98-23.601-1.41-2.211-.81-5.648-2.22-7.86-2.52-3.962-9.83-8.428-13.33-10.486-9.03-5.321-11.1-15.742-17.76-20.974-5.5-4.335-11.54-5.78-15.53-10.487-4.08-4.817-6.87-10.662-13.33-15.742-1.94-1.532-5-.656-6.65-2.627-11.62-13.727-27.63-29.074-42.18-41.947-5.75-5.101-9.57-13.662-15.54-18.347-7.52-5.933-17.12-8.845-24.43-15.741-12.62-11.932-26.13-26.907-39.96-36.715-5.58-3.963-12.36-6.24-17.75-10.487-5.64-4.444-7.7-9.129-13.33-13.114-6.16-4.357-28.86-23.601-31.08-28.855-1.32-3.131-2.45-10.75-4.45-13.114-.74-.876-2.97-1.752-2.23-2.628 8.21-9.698 13.2 5.145 19.98 10.487 25.86 20.361 53.98 43.677 82.15 60.316 1.32.788 3.04-.547 4.45 0 3.84 1.511 7.54 8.385 11.1 10.487 19.22 11.363-11.56-13.464 8.88 2.627 3.63 2.868.8 4.992 4.45 7.86 2.8 2.189 31.99 27.761 33.31 26.228 4.61-5.451 4.39-22.134 6.65-28.855 8.04-23.754 11.1-45.078 11.1-70.803 0-6.787-.35-57.908 4.45-55.062 2.74 1.62 4.93 10.049 6.66 13.114 20.48 36.278 4.89 98.017-4.45 131.119-1.86 6.546-4.47 28.812-4.45 28.834 16.38 19.353 41.33 48.012 62.16 60.316 17.09 10.093 36.63 18.368 44.4 36.715 5.39 12.742 16.47 23.163 22.2 36.715 1.47 3.459 15.16 24.52 15.53 23.601 1.84-4.335 3.43-3.569 4.33-7.86 11.08 1.51 6.83-19.66 7.62-26.185 3.99-32.905 3.99-69.314 0-102.263-1.07-8.845 2.38-20.427 0-28.834-3.56-12.61-26.26-173.788-20.18-180.969 1.65-1.949-5.16-9.283-3.07-10.531 17.15-10.136 19.6 16.074 25.48 26.517 3.78 6.699 7.06 81.373 10.23 88.905 18.06 42.648 16.78 95.016 26.64 141.605 1.74 8.232-1.41 17.887 0 26.229 1.06 6.261 5.84 52.434 6.65 52.434 1.69 0 5.17-20.098 6.66-23.601 8.28-19.594 12.82-9.918 19.98-18.347 2.72-3.218 7.75-14.34 8.88-18.346 2.31-8.21 2.13-74.985 0-81.29-1.26-3.7-8.21-43.524-6.66-47.202 1.8-4.225 10.25 8.451 11.11 10.487 1.55 3.656 2.55.766 4.44 5.254 3.01 7.094 8.88 40.043 8.88 47.202 0 1.774 3.86 24.302 4.45 23.601 8.19-9.677 7.75-30.059 11.1-41.947 1.62-5.693 6.6-10.312 8.88-15.742 7.03-16.595 55-88.675 65.68-105.489z"/><path fill="#4d698c" d="M341.239.002c-.385-.386-33.631 51.726-36.919 61.634-11.87 35.694-29.802 70.152-52.308 101.729-14.413 20.227-29.751 39.811-45.192 59.369.694-5.404 1.336-10.809 2.107-16.213 3.006-21.102-2.107-43.954 3.083-64.722 1.361-5.404 2.004-38.988 6.166-43.157 13.642-13.665 12.306-33.892 24.612-46.244 4.368-4.375-5.652-25.71-6.166-27.742-8.35 19.146-29.622 34.381-33.836 55.483-3.108 15.518-9.685 30.444-12.306 46.245-6.68 40.172-.334 96.221-18.472 132.533-9.172 18.4.925 71.207-6.166 92.464-1.799 5.404-3.109 10.911-4.162 16.47-26.951-31.396-55.34-79.16-81.983-105.872-2.954-2.959 19.577-137.602-3.083-160.274-14.027-14.051 0 24.782 0 33.892 0 30.444-1.952 57.105-9.223 86.313-1.85 7.438 4.599 35.437-3.083 27.742-8.735-8.75-11.895-23.418-15.39-33.892-8.992-27.047 2.056 13.356-6.165-3.088-6.218-12.456-7.554-28.874-12.307-43.157-8.915-26.764 2.93-59.035-6.166-86.313-3.982-11.941 6.218-33.841-3.083-43.157-2.26-2.265-5.55 2.47-6.166 3.088-14.978 15.003 0 79.88 0 98.64 0 85.645 44.164 143.135 98.477 209.608 13.873 16.984 28.8 33.326 42.879 50.182-.796 4.812-1.67 9.676-2.877 14.54-4.111 16.444 3.314 35.771 0 52.395-9.84 49.307-3.572 103.041-11.048 153.352-11.458-12.533-29.468-24.371-38.203-33.12-11.459-11.478-6.166-43.028-6.166-58.572 0-3.577-2.39-56.153-15.39-43.157-2.98 2.985 2.055 8.209 3.083 12.327 4.265 17.088 3.751 79.468 0 83.225-.051.052-24.278-14.72-30.778-27.742-3.88-7.771-7.81-12.532-12.307-21.565-6.68-13.382-19.089-102.346-27.696-110.967-1.361-1.364-11.612 2.393-12.306 3.088-8.195 8.209 4.753 45.396 6.166 52.396 15.184 76.071 61.378 137.19 125.17 184.181-12.46 53.451-22.12 110.324-29.776 164.109-2.827 19.815-32.578 148.462-40.002 163.362-12.487 24.985-19.27 53.245-30.78 80.135-3.082 7.18-17.033 21.57-9.222 21.57 9.865 0 58.166 6.48 64.614 0 5.267-5.28 4.214-35.34 6.166-43.16 8.119-32.53 16.263-65.159 24.613-98.639 24.022-96.221 39-194.347 55.391-292.807 5.113-30.675 5.986-62.457 7.785-94.034 18.549-19.403 54.569-58.597 56.83-63.152 4.059-8.106 11.869-27.304 18.472-33.892 12.05-12.07 58.038-16.728 73.864-24.654 9.994-4.992 18.498-10.808 27.696-15.415 4.444-2.239 12.306 3.912 12.306-3.088s7.168-21.565 0-21.565c-20.964 0-46.528 20.664-67.698 27.741-16.674 5.559-27.695 16.007-27.695 12.327 0-.232 47.015-77.924 49.225-80.137 13.822-13.845 5.986-54.943 12.306-73.961 14.773-44.392 21.324-95.14 43.085-138.709 2.415-4.812 18.704-27.51 12.307-33.892-15.21-15.235-43.419 68.814-46.168 77.049-3.906 11.709-11.793 23.084-15.39 33.892-4.984 14.978-2.312 30.856-6.166 46.245-4.83 19.378-15.492 37.289-21.529 55.484-5.755 17.267-6.86 36.028-12.307 52.395-12.897 38.756-77.332 87.574-104.308 129.239 6.988-55.51-8.17-114.519 2.775-169.308 4.907-24.55 8.118-49.564 11.175-74.758 10.714-14.051 25.281-29.054 31.91-42.359 12.126-24.319 41.312-42.694 52.308-64.722 15.62-31.268 22.249-67.425 36.919-101.703C328.47 42.181 351.695 10.58 341.213.054z"/><path fill="#436a8c" d="m1499.5 190.922.02-.015c-.02.174-24.33 218.495 17.68 306.656 42.03 88.197 121.85 161.655 181.33 40.583 9.71-19.777 18.15-42.361 25.48-66.307-43.51-95.394-39.09-248.781-37.45-254.164 2.23-7.279 11.37-6.827 11.44-6.823 0 0-7.45 141.773 31.32 242.722 33.03-119.532 40.56-262.789 40.56-262.789s8.02.422 9.13 10.032c.7 6.102-9.25 153.11-43.01 268.685a228 228 0 0 0 8.44 16.684c55.66 99.453 154.2 50.803 211.07-13.041 56.86-63.845 51.09-234.933 51.09-234.933l-.01-.001 11.53-8.678s9.66 97.037-16.6 175.478c-26.26 78.44-95.93 175.027-210.22 137.466-25.83-8.486-45.44-29.342-60.31-56.628-19.03 59.185-44.86 107.325-79.43 119.107-103.24 35.181-152.65-96.39-166.53-199.832s5.47-226.624 5.47-226.624zM654.244 116.394s16.502 189.943-43.323 264.272c-59.824 74.33-167.123 134.197-235.198 26.84C307.63 300.149 307.63 104 307.63 104s-10.318 0-12.386 8.257 6.184 320.019 136.169 355.115C561.397 502.469 633.607 390.975 658.36 302.2s8.252-196.131 8.252-196.131l-12.386 10.325z"/></svg>