<svg xmlns="http://www.w3.org/2000/svg" width="1049" height="1049" fill="none" viewBox="0 0 1049 1049"><g fill="#3c658a" opacity=".31"><path d="M524.5 873.5a34390 34390 0 0 1 524.5 4 34390.366 34390.366 0 0 1-1049 0q26.225-.4 52.45-.76 236.025-3.24 472.05-3.24"/><path d="M175.5 524.5a34390 34390 0 0 1-4 524.5 34390.366 34390.366 0 0 1 0-1049q.4 26.225.76 52.45 3.24 236.025 3.24 472.05"/><path d="M524.5 590.5a34390 34390 0 0 1 524.5 4 34390.366 34390.366 0 0 1-1049 0q26.225-.4 52.45-.76 236.025-3.24 472.05-3.24"/><path d="M458.5 524.5a34390 34390 0 0 1-4 524.5 34390.366 34390.366 0 0 1 0-1049q.4 26.225.76 52.45 3.24 236.025 3.24 472.05"/><path d="M524.5 449.5a34390 34390 0 0 1 524.5 4 34390.366 34390.366 0 0 1-1049 0q26.225-.4 52.45-.76 236.025-3.24 472.05-3.24"/><path d="M740.5 524.5a34390 34390 0 0 1-4 524.5 34390.366 34390.366 0 0 1 0-1049q.4 26.225.76 52.45 3.24 236.025 3.24 472.05"/><path d="M524.5 167.5a34390 34390 0 0 1 524.5 4 34390.366 34390.366 0 0 1-1049 0q26.225-.4 52.45-.76 236.025-3.24 472.05-3.24"/><path d="M881.5 524.5a34390 34390 0 0 1-4 524.5 34390.366 34390.366 0 0 1 0-1049q.4 26.225.76 52.45 3.24 236.025 3.24 472.05"/></g></svg>