<svg xmlns="http://www.w3.org/2000/svg" width="280" height="851" fill="none" viewBox="0 0 280 851"><g fill="#cde5f6" opacity=".51"><path d="M110.546 223.829c-3.743 6.573-6.191 21.025-.08 42.512 6.092 21.421 20.654 49.664 50.602 83.618 38.052 43.142 40.234 86.851 29.862 119.544-4.203 13.248-10.466 24.688-17.231 33.55 5.22 2.376 10.809 5.863 16.674 10.725 11.192 9.279 14.46 23.724 13.537 40.421-.924 16.715-6.068 36.126-12.224 55.869-6.19 19.851-13.367 39.944-18.56 58.438-5.196 18.504-8.257 34.947-6.365 47.332 7.77 50.877 32.478 94.308 67.101 115.228l-2.029 3.149c-35.859-21.666-60.966-66.25-68.84-117.804-2.019-13.223 1.26-30.337 6.459-48.854 5.202-18.527 12.474-38.92 18.59-58.537 6.15-19.723 11.168-38.761 12.065-54.991.899-16.249-2.353-29.247-12.219-37.425-5.955-4.937-11.51-8.331-16.584-10.545a85 85 0 0 1-2.354 2.715c-4.254 4.694-8.597 8.385-12.676 10.85-4.033 2.437-8.024 3.805-11.498 3.492-3.148-.283-5.677-1.215-7.482-2.72-1.831-1.525-2.798-3.544-2.943-5.72-.286-4.266 2.549-8.798 7.237-11.847 6.369-4.144 16.301-5.79 28.514-1.262 6.704-8.606 12.999-19.919 17.19-33.13 10.011-31.558 8.03-73.933-29.123-116.055-30.216-34.258-45.101-62.969-51.375-85.028-6.255-21.994-3.989-37.551.424-45.299zm57.066 280.792c-10.738-3.663-19.003-1.921-23.923 1.28-3.961 2.577-5.707 5.983-5.538 8.506.082 1.219.6 2.308 1.635 3.17 1.059.883 2.775 1.619 5.371 1.852 2.27.205 5.395-.692 9.125-2.945 3.682-2.225 7.746-5.651 11.819-10.146a80 80 0 0 0 1.511-1.717"/><path d="m94.126 223.292-8.571 13.99c7.345-.541 22.109-.589 22.398 3.546s10.772-2.525 15.977-6.372l-17.266-12.087c26.914-13.857 71.993-46.492 64.778-149.861-4.436-63.552-129.657-90.274-146.366 4.098-18.27 103.19 46.156 137.858 69.05 146.686"/></g></svg>