<svg xmlns="http://www.w3.org/2000/svg" width="178" height="815" fill="none" viewBox="0 0 178 815"><g fill="#9cacc8" opacity=".11"><path d="M83.625 209.667c-4.367 5.914-8.387 19.58-4.954 41.016 3.422 21.37 14.235 50.296 39.241 86.497 31.773 45.998 28.865 88.429 15.107 118.789-5.576 12.303-12.933 22.624-20.477 30.4 4.764 2.892 9.758 6.898 14.86 12.263 9.737 10.238 11.234 24.553 8.428 40.559-2.809 16.025-10 34.167-18.206 52.514-8.249 18.447-17.481 37.013-24.613 54.265-7.136 17.261-11.977 32.778-11.572 44.947 1.664 49.989 20.526 94.735 51.538 118.895l-2.319 2.806c-32.12-25.022-51.235-70.926-52.92-121.581-.432-12.992 4.695-29.131 11.837-46.404 7.145-17.282 16.501-36.128 24.654-54.357 8.196-18.328 15.223-36.124 17.951-51.684 2.73-15.578 1.083-28.494-7.5-37.518-5.181-5.448-10.152-9.36-14.794-12.078a82 82 0 0 1-2.584 2.349c-4.643 4.042-9.258 7.106-13.477 9.017-4.17 1.889-8.18 2.751-11.496 2.052-3.005-.635-5.339-1.824-6.909-3.484-1.591-1.682-2.293-3.741-2.184-5.857.214-4.15 3.47-8.198 8.343-10.603 6.622-3.268 16.395-3.718 27.662 2.053 7.456-7.536 14.829-17.732 20.389-30 13.281-29.306 16.229-70.426-14.793-115.337-25.23-36.525-36.3-65.939-39.825-87.947-3.514-21.942.457-36.695 5.604-43.666zm22.862 277.517c-9.942-4.766-18.117-4.033-23.233-1.508-4.118 2.032-6.193 5.119-6.32 7.573-.06 1.186.315 2.296 1.215 3.247.92.973 2.492 1.88 4.97 2.403 2.168.458 5.287-.049 9.144-1.796 3.809-1.725 8.124-4.564 12.569-8.435a74 74 0 0 0 1.655-1.484"/><path d="m67.842 207.269-9.876 12.517c7.15.321 21.403 1.968 21.208 5.991-.196 4.024 10.684-1.201 16.149-4.316l-15.275-13.645c27.562-10.285 74.807-36.608 79.701-137.19C162.757 8.788 44.981-31.362 18.031 57.792c-29.467 97.486 28.73 138.331 49.81 149.477"/></g></svg>