<svg xmlns="http://www.w3.org/2000/svg" width="277" height="792" fill="none" viewBox="0 0 277 792"><g fill="#bcd0e9" opacity=".51"><path d="M164.581 225.41c4.226 28.1 6.959 76.152 1.383 128.843-5.576 52.702-19.451 109.923-48.345 156.453-18.305 29.48-24.013 56.914-22.536 82.148 1.475 25.203 10.111 48.124 20.351 68.604 5.12 10.241 10.652 19.89 15.897 28.911 5.255 9.037 10.209 17.42 14.219 25.19 4.012 7.775 7.029 14.845 8.447 21.239 1.414 6.378 1.214 11.984-1.089 16.92-7.889 16.905-15.173 22.856-20.68 23.971-5.382 1.089-9.764-2.352-12.212-6.209l-2.389 1.516c2.739 4.317 8.12 8.892 15.163 7.466 6.92-1.401 14.726-8.498 22.682-25.547 2.648-5.674 2.788-11.961 1.288-18.729-1.497-6.751-4.647-14.078-8.696-21.925-4.051-7.85-9.052-16.313-14.286-25.314-5.243-9.017-10.736-18.599-15.813-28.754-10.156-20.312-18.614-42.84-20.057-67.505-1.442-24.637 4.11-51.494 22.115-80.49 29.205-47.032 43.155-104.721 48.755-157.646 5.601-52.936 2.863-101.229-1.399-129.562z"/><path d="m174.928 224.522 8.334 14.051c-7.188-.516-21.638-.506-21.937 3.658s-10.533-2.5-15.613-6.352l16.947-12.238c-26.288-13.844-70.282-46.523-62.813-150.62 4.591-63.999 127.259-91.394 143.242 3.55 17.477 103.817-45.718 138.973-68.16 147.951"/></g></svg>