<svg xmlns="http://www.w3.org/2000/svg" width="280" height="851" fill="none" viewBox="0 0 280 851"><g fill="#e3edff" opacity=".51"><path d="M110.552 223.8c-3.743 6.573-6.191 21.025-.08 42.512 6.092 21.42 20.654 49.663 50.602 83.617 38.052 43.143 40.234 86.852 29.862 119.545-4.203 13.248-10.466 24.688-17.231 33.55 5.22 2.375 10.808 5.863 16.673 10.725 11.193 9.278 14.461 23.724 13.538 40.42-.924 16.716-6.069 36.126-12.225 55.87-6.189 19.851-13.367 39.943-18.559 58.438-5.196 18.504-8.257 34.947-6.366 47.332 7.771 50.876 32.479 94.308 67.101 115.228l-2.028 3.149c-35.859-21.667-60.966-66.25-68.84-117.805-2.02-13.223 1.26-30.336 6.459-48.853 5.202-18.527 12.474-38.92 18.59-58.537 6.15-19.723 11.168-38.761 12.065-54.991.899-16.249-2.353-29.247-12.219-37.426-5.955-4.937-11.51-8.331-16.584-10.544a84 84 0 0 1-2.354 2.714c-4.254 4.695-8.598 8.386-12.676 10.851-4.033 2.436-8.024 3.804-11.498 3.492-3.148-.283-5.677-1.215-7.482-2.72-1.831-1.526-2.798-3.545-2.943-5.72-.286-4.266 2.549-8.798 7.237-11.848 6.369-4.143 16.301-5.789 28.514-1.261 6.704-8.606 12.999-19.92 17.19-33.13 10.011-31.558 8.03-73.933-29.123-116.056-30.216-34.257-45.101-62.968-51.375-85.028-6.255-21.994-3.989-37.55.424-45.298zm57.065 280.791c-10.737-3.662-19.002-1.92-23.922 1.281-3.961 2.577-5.707 5.983-5.538 8.506.081 1.219.6 2.308 1.635 3.17 1.059.883 2.774 1.619 5.37 1.852 2.271.204 5.396-.692 9.126-2.945 3.682-2.226 7.746-5.651 11.819-10.146a79 79 0 0 0 1.51-1.718"/><path d="m94.126 223.292-8.571 13.99c7.345-.541 22.109-.589 22.398 3.546s10.772-2.525 15.977-6.372l-17.266-12.087c26.914-13.857 71.993-46.492 64.778-149.861-4.436-63.552-129.657-90.274-146.366 4.098-18.27 103.19 46.156 137.858 69.05 146.686"/></g></svg>