<svg width="14" height="19" viewBox="0 0 14 19" fill="none" xmlns="http://www.w3.org/2000/svg">
<path d="M0.0873603 0.605289C3.63449 0.901129 6.08133 4.48292 6.86136 6.23683C7.69403 3.64933 10.7642 0.230277 12.7068 0C12.7508 0.854743 13.5737 5.3046 12.4203 7.0196C10.9784 9.16334 9.50019 6.57658 7.99843 8.22664C12.7257 10.2765 13.1457 15.8949 12.7689 17.9579C11.4163 19.4077 7.36463 13.3401 6.89165 10.1789C5.34577 13.3851 1.75778 15.9012 0.357631 16.1733C-0.638196 18.3512 0.739481 12.4803 0.949941 10.6707C1.1604 8.86112 4.16492 8.12965 5.64087 7.99011C4.88887 7.45199 3.2281 6.41254 2.60103 6.55971C1.81719 6.74367 -0.211374 5.52726 0.0873603 0.605289Z" fill="#A3C7DC"/>
</svg>
