<svg width="17" height="19" viewBox="0 0 17 19" fill="none" xmlns="http://www.w3.org/2000/svg">
<path d="M0.000613919 1.69382C4.38549 1.08393 7.6308 4.53674 8.70535 6.33938C9.56116 3.14926 14.5269 0.783911 16.9027 0C17.0127 0.968445 16.9056 3.47418 15.598 5.74957C13.9634 8.59381 11.9752 6.02289 10.2347 8.317C16.1866 9.40283 16.3754 13.3653 16.0464 15.832C14.8937 16.4073 9.78864 14.3506 9.00008 10.852C7.30691 14.9425 3.47277 17.3387 1.76734 18.0255C1.69273 17.2405 1.57873 15.1375 1.71957 13.0059C1.8604 10.8744 5.51038 9.23156 7.31777 8.67659C6.35711 8.26071 4.24527 7.51308 3.48313 7.84965C2.53045 8.27036 -0.0456053 7.41821 0.000613919 1.69382Z" fill="#A3C7DC"/>
</svg>
