<svg width="554" height="1080" viewBox="0 0 554 1080" fill="none" xmlns="http://www.w3.org/2000/svg">
<g opacity="0.3">
<path d="M-51.874 -166L553.937 -81.667C553.937 -81.667 493.167 240.553 370.666 497.852C248.165 755.151 124.496 844.892 100.056 941.953C75.6157 1039.01 90.9072 1079.51 92.3517 1098.47C93.859 1117.43 104.471 1132.82 114.661 1139.15C124.85 1145.47 150.055 1157.92 150.055 1157.92L-327.866 1091.39C-327.866 1091.39 -292.878 1083.21 -278.606 1082.74C-264.335 1082.28 -242.88 1070.36 -226.181 1069.43C-209.482 1068.51 -87.3237 903.609 -77.2079 874.004C-67.0292 844.407 -50.8293 549.448 -51.874 -166Z" fill="url(#paint0_linear_69_1530)"/>
<path d="M372.891 231.166L493.514 -90.0779L460.944 -94.6119L340.647 279.361C330.655 293.212 303.608 329.473 293.114 343.254C319.768 233.579 365.826 2.02025 402.846 -102.699L349.087 -110.183C339.103 -18.4656 311.595 231.447 266.517 382.957C236.746 418.508 179.469 479.056 147.225 510.485C146.771 498.692 147.048 485.212 148.283 470.275C155.75 380.195 206.506 -45.8703 219.311 -128.249L206.861 -129.982C195.621 -48.3133 146.616 451.554 128.829 527.937C106.849 548.337 84.3556 567.273 61.5073 584.503L144.866 -138.612L123.173 -141.632L53.4899 590.544C46.4081 595.787 39.2803 600.892 32.1235 605.727C35.0381 562.064 30.6609 472.986 42.7617 368.906C59.1883 227.059 75.6437 -50.6347 92.427 -145.912L46.779 -152.266C33.1121 -3.07674 31.4306 517.361 14.8019 596.159C13.1255 604.143 11.0211 612.465 8.65685 620.817C-14.6371 635.069 -38.1806 647.298 -61.9604 656.91C-66.8861 793.003 -72.7212 860.646 -77.2704 873.995C-39.0427 807.813 16.7242 730.289 195.512 573.933C374.426 417.594 553.937 -81.667 553.937 -81.667C553.937 -81.667 483.462 65.778 372.899 231.101L372.891 231.166Z" fill="url(#paint1_linear_69_1530)" style="mix-blend-mode:multiply"/>
<path d="M25.5255 933.235C-24.0101 962.257 -95.7652 1034.24 -58.2544 989.365C-4.59667 925.132 246.118 675.741 206.998 707.87C-57.7929 925.149 -64.994 1004.8 -93.9324 1033.44C-122.871 1062.08 -190.947 1076.13 -226.189 1069.5C-242.888 1070.42 -264.343 1082.34 -278.615 1082.81C-292.886 1083.28 -327.874 1091.46 -327.874 1091.46L150.11 1158C150.11 1158 124.914 1145.48 114.716 1139.22C111.28 1137.09 107.799 1133.82 104.6 1129.86C104.483 1129.78 104.24 1129.68 104.123 1129.6C86.1087 1116.48 71.5529 1125.06 42.7331 1122.71C13.8504 1120.34 106.144 950.289 86.116 976.858C66.0799 1003.49 14.8612 1094.31 -8.91788 1107.37C-32.6885 1120.36 -88.7722 1115 -71.7501 1105.18C-54.7196 1095.29 37.9067 1000.1 83.2027 938.149C128.562 876.207 110.51 905.304 133.943 869.269C158.209 829.771 197.017 787.725 236.114 728.159C159.977 839.825 74.91 904.391 25.4373 933.422L25.5255 933.235Z" fill="url(#paint2_linear_69_1530)" style="mix-blend-mode:multiply"/>
<path d="M340.71 279.369C330.718 293.22 250.405 515.968 279.274 396.131C305.927 286.455 365.889 2.029 402.846 -102.699L367.824 -107.576C375.207 -9.59696 279.252 392.35 256.508 440.343C233.709 488.263 190.186 537.538 178.117 546.196C169.223 552.579 147.505 575.401 147.225 510.485C146.771 498.692 147.048 485.212 148.283 470.275C150.298 446.367 155.334 398.691 161.906 340.164C161.906 340.164 142.958 496.504 129.278 552.585C115.607 608.6 77.3849 638.733 66.1702 643.269C54.9555 647.804 57.2785 638.784 61.5703 584.511L71.1984 500.961C65.9856 541.123 56.6146 601.978 44.303 626.308C25.1909 664.071 32.1321 605.661 32.1321 605.661C35.0468 561.998 30.6695 472.92 42.7703 368.84C59.1969 226.993 75.6523 -50.7006 92.4356 -145.978L66.9079 -149.531C66.9079 -149.531 30.8815 547.237 23.3318 614.774C15.7193 682.302 -42.9764 779.432 -53.9498 781.615C-64.9233 783.799 -61.889 656.853 -61.889 656.853C-66.8146 792.946 -72.6497 860.589 -77.1989 873.938C-38.9712 807.756 16.7957 730.232 195.584 573.876C374.427 417.594 553.937 -81.667 553.937 -81.667C553.937 -81.667 326.439 393.751 372.899 231.101L493.514 -90.0779L471.256 -93.1772C461.9 -39.3442 349.22 300.103 339.74 318.399C330.26 336.695 340.647 279.361 340.647 279.361L340.71 279.369Z" fill="#EBF4F9"/>
<path d="M150.11 1158C150.11 1158 124.914 1145.48 114.716 1139.22C111.28 1137.09 107.799 1133.82 104.6 1129.86C104.483 1129.78 104.24 1129.68 104.123 1129.6C86.1087 1116.48 71.5529 1125.06 42.7331 1122.71C28.5475 1121.53 43.6349 1079.76 60.2789 1040.79C26.6908 1087.01 16.6219 1115.76 7.54693 1118.6C-1.52803 1121.45 1.40689 1112.65 -29.1727 1113.49C-54.6659 1117.56 -84.8877 1112.69 -71.8044 1105.1C-60.6591 1098.64 -17.2642 1055.77 24.0671 1009.57C-8.40763 1044.75 -76.4347 1102.8 -107.866 1108.24C-139.359 1113.66 -149.375 1087.75 -110.376 1060.5C-71.3775 1033.26 -77.1589 1118.74 93.3368 924.185C109.234 902.807 114.141 897.062 117.561 892.899C62.5548 964.565 -37.0247 993.976 -75.3422 1027.81C-113.597 1061.65 -67.3418 1000.69 -67.2704 1000.63C-65.6919 998.335 -62.7872 994.697 -58.38 989.347C-29.5785 954.854 56.0016 867.1 123.025 798.034C58.3759 844.369 -17.6995 931.392 -70.8027 998.751C-80.4356 1014.77 -86.5463 1025.85 -94.1124 1033.35C-96.6848 1035.9 -99.6176 1038.28 -102.731 1040.56C-152.895 1108.46 -205.346 1105.2 -230.422 1097.67C-255.488 1090.07 -256.254 1079.69 -278.803 1082.78C-280.103 1082.93 -281.323 1082.96 -282.614 1083.05C-298.421 1084.49 -328 1091.44 -328 1091.44L149.984 1157.98L150.11 1158Z" fill="#7399B2"/>
<path d="M42.753 368.971C38.0469 409.667 35.8166 448.058 34.7557 482.369C40.7949 501.434 62.4527 496.828 66.5404 453.991L123.228 -141.559L92.4183 -145.848C75.635 -50.5704 59.1712 227.188 42.753 368.971Z" fill="url(#paint3_linear_69_1530)" style="mix-blend-mode:screen"/>
<path d="M161.906 340.164C160.46 353.282 159.026 365.807 157.748 377.624C153.784 414.58 272.368 349.71 294.29 268.601C323.109 126.954 341.396 -39.0874 349.087 -110.183L219.311 -128.249C209.919 -67.7276 180.055 178.145 161.906 340.164Z" fill="url(#paint4_linear_69_1530)" style="mix-blend-mode:screen"/>
<path d="M432.488 137.939C508.142 14.2104 554 -81.6582 554 -81.6582L493.576 -90.0697L392.015 180.482C401.586 176.778 432.018 138.602 432.551 137.948L432.488 137.939Z" fill="url(#paint5_linear_69_1530)" style="mix-blend-mode:screen"/>
<path d="M76.0695 458.5C71.1982 500.962 130.62 484.052 149.454 383.825C170.981 205.644 198.758 -71.0043 206.861 -129.982L144.866 -138.612L76.0066 458.491L76.0695 458.5Z" fill="url(#paint6_linear_69_1530)" style="mix-blend-mode:screen"/>
<path d="M310.561 268.015C313.637 285.74 348.989 253.551 363.985 207.063L461.006 -94.6038L402.846 -102.699C394.056 -77.8796 384.018 -42.9624 373.414 -2.68938C351.405 82.0526 328.844 186.333 310.506 267.941L310.561 268.015Z" fill="url(#paint7_linear_69_1530)" style="mix-blend-mode:screen"/>
<path d="M25.0785 462.733C33.0477 275.574 36.6459 -41.1531 46.779 -152.266L-51.874 -166C-51.6367 6.26488 -52.3853 154.073 -53.8421 279.714C-54.9753 366.368 22.5149 528.843 25.087 462.668L25.0785 462.733Z" fill="url(#paint8_linear_69_1530)" style="mix-blend-mode:screen"/>
<path d="M109.831 1135.43C109.831 1135.43 109.37 1135.03 109.144 1134.8C107.544 1133.32 106.032 1131.65 104.537 1129.85C98.3194 1122.03 93.3328 1111.13 92.3433 1098.53C90.8359 1079.57 75.6158 1039.02 100.048 942.02C110.09 902.133 136.937 863.458 173.522 813.88C187.421 795.073 202.672 774.73 218.982 752.15C147.516 849.027 71.2562 906.402 25.4539 933.293C-24.0817 962.315 -95.8368 1034.3 -58.326 989.423C-4.6683 925.19 246.047 675.799 206.926 707.928C-57.8646 925.207 -65.0656 1004.85 -94.004 1033.5C-122.942 1062.14 -191.018 1076.19 -226.261 1069.56C-232.512 1069.88 -239.423 1071.83 -246.43 1074.04C-251.102 1075.51 -255.736 1077.18 -260.219 1078.68C-266.975 1080.92 -273.349 1082.68 -278.686 1082.87C-292.886 1083.28 -327.875 1091.46 -327.875 1091.46L150.109 1158C150.109 1158 124.913 1145.48 114.715 1139.22C113.119 1138.21 111.431 1136.91 109.831 1135.43Z" fill="url(#paint9_linear_69_1530)" style="mix-blend-mode:multiply"/>
</g>
<defs>
<linearGradient id="paint0_linear_69_1530" x1="28.8508" y1="1153.71" x2="207.509" y2="-129.693" gradientUnits="userSpaceOnUse">
<stop stop-color="#C6DFF7"/>
<stop offset="1" stop-color="#D3DEF9"/>
</linearGradient>
<linearGradient id="paint1_linear_69_1530" x1="126.97" y1="962.108" x2="310.692" y2="-115.149" gradientUnits="userSpaceOnUse">
<stop stop-color="#FBFBFB"/>
<stop offset="1" stop-color="#CFE7F8"/>
</linearGradient>
<linearGradient id="paint2_linear_69_1530" x1="-75.6489" y1="1139.16" x2="103" y2="-144.175" gradientUnits="userSpaceOnUse">
<stop stop-color="#D8D8D8"/>
<stop offset="1" stop-color="#A2A2A2"/>
</linearGradient>
<linearGradient id="paint3_linear_69_1530" x1="35.3421" y1="491.662" x2="123.495" y2="-141.588" gradientUnits="userSpaceOnUse">
<stop stop-color="#7A7AED"/>
<stop offset="0.2" stop-color="#548EA5"/>
<stop offset="0.41" stop-color="#30525E"/>
<stop offset="0.59" stop-color="#16252B"/>
<stop offset="0.72" stop-color="#060A0B"/>
<stop offset="0.8"/>
</linearGradient>
<linearGradient id="paint4_linear_69_1530" x1="217.979" y1="395.418" x2="292.81" y2="-142.139" gradientUnits="userSpaceOnUse">
<stop stop-color="#7ACDED"/>
<stop offset="0.2" stop-color="#548EA5"/>
<stop offset="0.41" stop-color="#30525E"/>
<stop offset="0.59" stop-color="#16252B"/>
<stop offset="0.72" stop-color="#060A0B"/>
<stop offset="0.8"/>
</linearGradient>
<linearGradient id="paint5_linear_69_1530" x1="454.829" y1="189.226" x2="497" y2="-113.715" gradientUnits="userSpaceOnUse">
<stop stop-color="#7AB7ED"/>
<stop offset="0.2" stop-color="#546BA5"/>
<stop offset="0.41" stop-color="#303F5E"/>
<stop offset="0.59" stop-color="#16252B"/>
<stop offset="0.72" stop-color="#060A0B"/>
<stop offset="0.8"/>
</linearGradient>
<linearGradient id="paint6_linear_69_1530" x1="100.538" y1="482.051" x2="189.432" y2="-156.529" gradientUnits="userSpaceOnUse">
<stop stop-color="#F2F2F2"/>
<stop offset="0.2" stop-color="#9B9B9B"/>
<stop offset="0.41" stop-color="#585858"/>
<stop offset="0.59" stop-color="#303030"/>
<stop offset="0.72" stop-color="#262626"/>
<stop offset="0.8"/>
</linearGradient>
<linearGradient id="paint7_linear_69_1530" x1="360.753" y1="279.31" x2="417.014" y2="-124.849" gradientUnits="userSpaceOnUse">
<stop stop-color="#D9D9D9"/>
<stop offset="0.2" stop-color="#A8A8A8"/>
<stop offset="0.41" stop-color="#585858"/>
<stop offset="0.59" stop-color="#383838"/>
<stop offset="0.72" stop-color="#131313"/>
<stop offset="0.8"/>
</linearGradient>
<linearGradient id="paint8_linear_69_1530" x1="-54.7232" y1="467.993" x2="35.2032" y2="-177.999" gradientUnits="userSpaceOnUse">
<stop stop-color="#EFEFEF"/>
<stop offset="0.2" stop-color="#A9A9A9"/>
<stop offset="0.41" stop-color="#686868"/>
<stop offset="0.59" stop-color="#282828"/>
<stop offset="0.72" stop-color="#0D0D0D"/>
<stop offset="0.8"/>
</linearGradient>
<linearGradient id="paint9_linear_69_1530" x1="-80.8973" y1="1125.84" x2="-35.6309" y2="800.669" gradientUnits="userSpaceOnUse">
<stop stop-color="#CEDCFF"/>
<stop offset="0.322115" stop-color="#D4E0FF"/>
<stop offset="1" stop-color="white"/>
</linearGradient>
</defs>
</svg>
