<svg width="99" height="55" viewBox="0 0 99 55" fill="none" xmlns="http://www.w3.org/2000/svg">
<path d="M6.93123 24.2676C6.96116 23.3671 6.81671 22.4884 6.44194 21.5948C6.24243 21.665 6.06025 21.7342 5.87403 21.7932C5.40924 21.939 5.00752 21.8118 4.66406 21.4815C4.5538 21.3746 4.45992 21.2494 4.3696 21.1258C3.84442 20.4039 3.63161 19.7029 4.44765 18.7449C4.56175 18.6081 4.67941 18.4729 4.81142 18.3143C4.69404 18.0479 4.58581 17.7897 4.45427 17.4875C4.30685 17.5253 4.16049 17.5508 4.02579 17.5983C3.56601 17.7716 3.10594 17.7207 2.65636 17.577C2.46696 17.5162 2.2844 17.3908 2.13447 17.2583C1.8819 17.0307 1.79726 16.7276 1.95372 16.4147C2.11327 16.0946 2.31759 15.7982 2.53385 15.435C2.47511 15.3165 2.41859 15.1441 2.3171 15.0071C1.93857 14.484 1.54166 13.9741 1.1565 13.4565C0.876868 13.0861 0.570182 12.7294 0.330897 12.3341C-0.14565 11.5487 -0.105414 10.771 0.438317 10.0124C0.822309 9.47643 1.29614 9.05544 1.87108 8.73316C2.80343 8.21019 3.8136 7.89849 4.82742 7.71523C5.02972 7.41365 5.20342 7.12931 5.40408 6.86085C5.69535 6.47088 6.09668 6.2469 6.57957 6.1766C7.12264 6.09427 7.61111 6.18708 7.97249 6.65205C8.03238 6.7287 8.10248 6.8013 8.17509 6.88767C9.08954 6.54304 9.98531 6.14381 10.9653 6.66481C11.1452 6.49312 11.3032 6.33309 11.4775 6.18432C11.8327 5.8812 12.2219 5.6266 12.6785 5.48996C13.5335 5.23382 14.4391 5.60423 14.6794 6.45667C14.7076 6.55767 14.7098 6.66013 14.7358 6.81515C15.7585 6.41582 16.3199 5.72398 16.6561 4.82906C16.7121 4.67991 16.6557 4.4779 16.6252 4.304C16.5411 3.82362 16.4137 3.34564 16.3572 2.86024C16.2922 2.31621 16.3612 1.77516 16.5744 1.26261C16.8759 0.526094 17.4227 0.102801 18.2145 0.0222899C18.918 -0.0498423 19.6057 0.0614565 20.283 0.235921C20.8086 0.370139 21.3228 0.550191 21.8483 0.684409C22.7777 0.921361 23.7254 1.01821 24.6871 1.02388C25.7966 1.03002 26.9082 1.04127 28.008 1.21659C30.3253 1.58852 32.514 2.33616 34.5668 3.48601C36.4975 4.56615 38.2297 5.89029 39.7959 7.4514C41.3952 9.0437 42.5752 10.9114 43.4395 12.9809C43.8284 13.9103 44.1699 14.8614 44.5369 15.8025C44.782 16.4286 45.0154 17.0624 45.2928 17.6729C46.4066 20.1336 48.0636 22.14 50.3673 23.5801C51.3958 24.2236 52.4375 24.8559 53.5039 25.4312C56.1674 26.8705 58.7715 28.3983 61.2259 30.1743C62.5047 31.0994 63.8394 31.9345 65.2207 32.7009C66.0118 33.1403 66.825 33.5384 67.6207 33.9671C67.8822 34.1056 68.1415 34.1416 68.4388 34.1094C70.1141 33.9415 71.7305 34.1838 73.2983 34.8025C74.5836 35.3118 75.768 35.9761 76.8743 36.8013C77.5002 37.2707 78.1691 37.6699 78.9624 37.7719C79.4703 37.8393 79.9885 37.873 80.5053 37.8808C81.0985 37.8879 81.695 37.8582 82.2838 37.8168C83.934 37.6973 85.3864 38.2111 86.7136 39.1614C88.055 40.1178 89.1914 41.2647 90.0553 42.6701C90.3251 43.1123 90.6198 43.5358 90.8844 43.9801C91.8328 45.5912 93.1227 46.8721 94.6473 47.9331C95.7487 48.7012 96.8599 49.4565 97.9614 50.2246C98.2146 50.4018 98.4683 50.5876 98.6756 50.8125C99.151 51.3268 99.1123 51.9148 98.5869 52.3769C98.3963 52.544 98.1715 52.6921 97.9388 52.7902C96.321 53.4608 94.6912 53.5722 93.0457 52.8692C92.2049 52.5056 91.4752 51.9829 90.7527 51.4336C90.5458 51.2765 90.344 51.1173 90.1534 50.9419C89.6961 50.5031 89.1511 50.2379 88.5452 50.0646C86.434 49.4605 84.3342 48.8104 82.1647 48.439C81.1062 48.2562 80.0568 48.2675 79.0062 48.4772C78.3202 48.6161 77.6469 48.7944 76.9624 48.9298C76.328 49.0572 75.6956 49.1897 75.0547 49.2635C73.4201 49.4448 71.9307 49.0164 70.582 48.0865C70.2205 47.8371 69.8492 47.6004 69.5055 47.3292C69.0292 46.9541 68.4837 46.8366 67.9035 46.8775C67.4672 46.9087 67.0266 46.9593 66.6028 47.0593C64.1718 47.6447 61.7076 47.7886 59.2175 47.7184C57.9552 47.6842 56.6891 47.7076 55.4245 47.7275C54.8842 47.7349 54.3428 47.7841 53.8034 47.8384C52.334 47.9896 50.9823 48.475 49.7671 49.3197C49.0274 49.8372 48.3049 50.3833 47.584 50.9258C46.4007 51.8139 45.1404 52.5671 43.7747 53.1437C41.5255 54.0911 39.17 54.5019 36.7399 54.4787C34.0178 54.4561 31.3408 54.0555 28.6915 53.4343C25.7356 52.7397 22.8831 51.7473 20.0945 50.5584C18.0876 49.7033 16.0173 49.0829 13.8538 48.7564C13.2944 48.671 12.7419 48.5208 12.1996 48.3667C11.9292 48.2878 11.6713 48.1509 11.4286 48.0079C10.7831 47.6231 10.4134 47.0403 10.4082 46.2896C10.405 45.8569 10.4636 45.4085 10.5918 44.9946C10.8257 44.2288 11.1268 43.4836 11.3978 42.7297C11.7198 41.8286 11.9995 40.9177 12.1376 39.9625C12.2862 38.9441 12.1824 37.952 11.9159 36.9741C11.8636 36.7823 11.7357 36.6086 11.6221 36.441C11.3943 36.0973 11.1262 35.7784 10.9154 35.425C10.5245 34.7739 10.4131 34.0829 10.7024 33.3453C11.0314 32.5065 10.8522 31.7862 10.185 31.1679C9.4904 30.525 8.75667 29.992 7.79753 29.8141C7.34777 29.7296 6.90127 29.5788 6.49435 29.3267C5.55995 28.7493 5.11364 27.757 5.30726 26.6736C5.41779 26.0659 5.69365 25.5551 6.10691 25.1079C6.36929 24.8238 6.65199 24.5613 6.945 24.2651L6.93123 24.2676ZM41.8102 14.0398C41.9424 13.9786 41.9942 13.8784 41.9156 13.7471C41.8812 13.6899 41.7999 13.604 41.7693 13.6162C41.6346 13.6636 41.7021 13.752 41.7451 13.8383C41.7765 13.9026 41.7875 13.975 41.8087 14.0434C41.8474 14.0517 41.8866 14.0686 41.9233 14.0718C41.9477 14.0739 41.9783 14.0618 42.0059 14.0568C41.986 14.044 41.9673 14.0189 41.9464 14.0184C41.8995 14.0192 41.8531 14.0288 41.8066 14.0383L41.8102 14.0398ZM1.23234 11.4425C1.21029 11.4838 1.18978 11.5214 1.17486 11.5657C1.16436 11.6584 1.1115 11.7709 1.14646 11.8368C1.29032 12.1104 1.45103 12.3744 1.62349 12.6308C2.0774 13.3219 2.51447 14.0226 2.78255 14.8109C2.79873 14.8517 2.84909 14.882 2.91514 14.9444C3.93126 13.5822 4.0853 11.9742 4.32147 10.3425C3.21 10.3017 2.20735 10.6547 1.15992 10.8276C1.1137 10.9345 1.06652 11.0241 1.03513 11.1162C1.01299 11.187 1.01886 11.2614 1.01299 11.3435L1.23388 11.439L1.23234 11.4425ZM6.07042 13.8771C5.8225 15.047 5.36842 16.1363 4.71627 17.1652C4.82392 17.2879 4.91732 17.4044 5.02093 17.5169C5.12252 17.6242 5.23075 17.726 5.35217 17.8462C5.92374 17.4632 6.36358 16.9937 6.78714 16.5129C7.66442 15.5306 8.243 14.3979 8.51682 13.0997C8.73789 12.0408 9.01855 10.9907 9.26609 9.93905C9.27591 9.89678 9.23836 9.84671 9.22218 9.80588C8.88806 9.58105 8.42298 9.65906 8.07759 9.29403C8.58233 9.08517 8.97914 9.4682 9.43305 9.37691C9.47888 9.23181 9.52163 9.09382 9.57622 8.91867C9.00561 8.84954 8.47679 8.78157 7.93931 8.71408C7.7346 9.1288 7.69744 9.58637 7.41715 9.89229C7.20464 9.88497 7.1382 9.78435 7.10141 9.65427C6.96179 9.17523 6.94348 8.68945 7.05363 8.20001C7.11467 7.92193 7.17263 7.65097 7.11245 7.35007C6.77043 7.20218 6.50602 7.32466 6.27387 7.55836C6.02843 7.80322 5.8817 8.10345 5.79042 8.4319C5.6821 8.82909 5.58091 9.22937 5.50619 9.63686C5.34184 10.4961 5.20753 11.3642 5.03808 12.2255C4.82453 13.3257 4.45316 14.3704 3.79677 15.2918C3.55817 15.6284 3.29059 15.944 3.05556 16.2822C2.97824 16.3925 2.95176 16.5418 2.8988 16.6838C3.7683 16.8441 3.93266 16.7672 4.33292 16.086C4.7665 15.3474 5.10032 14.5656 5.38937 13.7603C5.68044 12.96 6.0158 12.1746 6.34403 11.3862C6.49299 11.032 6.67911 10.6896 7.001 10.4439C7.01814 10.5021 7.05059 10.5542 7.03875 10.5914C6.78475 11.433 6.52873 12.2696 6.27117 13.1097C6.1771 13.3566 5.97201 13.5766 6.07196 13.8736L6.07042 13.8771ZM22.0758 6.28034C22.0419 6.35872 22.0081 6.4371 21.9742 6.51548C20.822 6.46128 19.6749 6.40507 18.5018 6.3503C18.4612 6.46383 18.4103 6.5814 18.3773 6.70667C18.3659 6.7525 18.3846 6.8071 18.395 6.9004C18.8315 6.99611 19.2833 7.08574 19.7294 7.1983C20.2071 7.31605 20.6786 7.44806 21.1501 7.58006C21.2739 7.61665 21.3924 7.68482 21.3179 7.87672C20.439 7.76735 19.5813 7.44297 18.601 7.50962C19.1353 8.08321 19.2544 8.75636 19.2828 9.42412C19.5614 9.49383 19.7947 9.53128 20.0095 9.61149C21.5988 10.2099 23.2602 10.4166 24.9444 10.5021C26.0252 10.555 27.1087 10.5922 28.1904 10.692C29.9885 10.8563 31.5872 11.5307 32.9989 12.6571C34.0324 13.4846 34.9273 14.4467 35.7629 15.4677C36.4477 16.3094 37.1208 17.1586 37.7739 18.0246C39.5801 20.4295 41.8954 22.2046 44.5494 23.5679C46.9653 24.8071 49.4033 26.0051 51.7607 27.3501C53.2437 28.1943 54.7298 29.0314 56.2112 29.8792C57.6728 30.7142 59.1626 31.4938 60.7406 32.0789C61.3088 32.2907 61.8887 32.4654 62.5989 32.7006C62.4343 32.5533 62.3825 32.497 62.3245 32.4551C61.2352 31.7176 60.1423 30.9786 59.0448 30.2503C57.6691 29.334 56.2565 28.4737 54.7978 27.6907C53.1132 26.7847 51.4353 25.873 49.806 24.8683C47.4891 23.4393 45.6773 21.5267 44.3517 19.1647C43.5779 17.7856 42.6952 16.482 41.8193 15.1729C41.3587 14.4874 40.8343 13.842 40.2342 13.2738C39.3608 12.4478 38.3613 11.8253 37.2681 11.3315C36.4676 10.9726 35.6665 10.6051 34.9085 10.1674C33.8306 9.54058 32.9568 8.64684 32.0626 7.79075C31.5961 7.34379 31.1215 6.90597 30.6341 6.48799C30.0186 5.95542 29.3108 5.60706 28.5004 5.44694C27.7833 5.30599 27.0688 5.27615 26.3435 5.27125C23.8911 5.25107 21.4417 5.22377 18.9997 4.95439C18.8509 4.93658 18.6954 4.95391 18.5094 4.95382C18.5456 5.26127 18.5748 5.53608 18.6085 5.82976C18.7664 5.85576 18.8912 5.88012 19.0155 5.89581C20.038 6.02501 21.0605 6.15422 22.0794 6.28188L22.0758 6.28034ZM13.0248 43.632L12.6847 43.6752C12.3574 44.354 12.1399 45.072 12.0371 45.8183C11.9489 46.4526 12.0377 46.5798 12.6067 46.8385C13.1527 47.0915 13.7406 47.1893 14.3264 47.2819C16.4807 47.6298 18.551 48.2502 20.5779 49.059C23.2447 50.1191 25.9371 51.1099 28.7356 51.7872C31.0232 52.345 33.3317 52.747 35.6845 52.8805C37.5297 52.9849 39.3507 52.8419 41.1391 52.3636C43.1398 51.8247 44.9374 50.8851 46.5786 49.6325C47.3174 49.0682 48.0598 48.5053 48.8194 47.9711C49.9555 47.1726 51.2049 46.6302 52.5621 46.3375C53.4761 46.1407 54.4009 46.0458 55.3321 46.034C56.7496 46.0127 58.1722 45.9892 59.591 46.0234C61.7951 46.08 63.9755 45.9275 66.1285 45.408C66.6294 45.2863 67.1429 45.2038 67.6563 45.151C68.7525 45.0414 69.7562 45.302 70.6439 45.9777C70.9942 46.2433 71.3655 46.48 71.722 46.7314C72.6485 47.3858 73.6822 47.6552 74.8013 47.5512C75.4432 47.4947 76.0792 47.3637 76.7105 47.2435C77.397 47.1132 78.0759 46.9416 78.7593 46.8184C79.9659 46.6001 81.1687 46.5959 82.3764 46.8347C83.3416 47.028 84.2914 47.2568 85.2235 47.5753C85.4557 47.6546 85.6876 47.8225 85.9969 47.6645C84.9072 46.8888 83.8296 46.1437 82.6911 45.4907C81.5256 44.8218 80.3427 44.1834 79.1598 43.5451C77.93 42.878 76.6382 42.3448 75.331 41.8472C74.8958 41.6801 74.4472 41.5538 74.0047 41.4132C73.3321 41.1985 72.6334 41.2008 71.9368 41.1491C70.0392 41.0094 68.1729 41.1497 66.3288 41.6294C65.2801 41.9033 64.2212 42.1516 63.1638 42.3964C60.8002 42.9433 58.4172 43.0462 56.0053 42.756C54.2604 42.547 52.5357 42.203 50.8203 41.8376C47.7593 41.1906 44.7628 41.3918 41.807 42.3889C41.0988 42.6282 40.3916 42.8848 39.6839 43.1327C38.1113 43.6791 36.501 44.0485 34.8274 44.0268C33.7713 44.0142 32.7119 43.9705 31.6597 43.8707C29.7006 43.6875 27.7805 43.2675 25.8976 42.7028C24.7112 42.3462 23.5295 41.9494 22.4326 41.3567C21.5005 40.8521 20.573 40.3369 19.7081 39.7261C18.033 38.5535 16.4674 37.2549 15.1044 35.7225C14.5352 35.083 14.0027 34.4172 13.5958 33.6661C13.4352 33.3726 13.291 33.0607 13.2054 32.7403C12.9445 31.7691 13.3958 31.2242 14.392 31.287C14.7253 31.3085 15.0574 31.3717 15.3828 31.4406C16.8746 31.7558 18.3665 32.0415 19.8948 32.1061C22.1845 32.1996 24.4315 31.9322 26.6569 31.4017C27.7653 31.1367 28.8595 30.8359 29.9699 30.576C32.1632 30.0612 34.3809 29.705 36.6432 29.7445C37.5759 29.7587 38.4883 29.8784 39.3968 30.1148C40.6669 30.444 41.8065 31.0553 42.916 31.7169C44.4446 32.6316 45.9225 33.6343 47.448 34.5561C48.4877 35.1834 49.55 35.778 50.6385 36.3121C52.2719 37.1115 54.0123 37.6146 55.7832 38.0082C57.9539 38.4943 60.1537 38.7858 62.366 38.9897C64.6798 39.2036 67.0011 39.2728 69.3236 39.3002C71.432 39.3239 73.4853 39.7001 75.4846 40.3574C78.3251 41.2896 80.9659 42.6641 83.5199 44.1999C85.8258 45.586 87.9832 47.1786 90.0018 48.9649C90.7936 49.6667 91.6084 50.3447 92.4488 50.983C93.7992 52.0067 95.3071 52.2358 96.9254 51.7304C97.0382 51.6946 97.1911 51.693 97.2233 51.4913C97.1832 51.457 97.1401 51.4003 97.0826 51.367C95.7223 50.5716 94.4004 49.7166 93.1118 48.8042C91.7439 47.8406 90.5908 46.6738 89.7132 45.2413C89.3329 44.6244 88.9511 44.011 88.5862 43.3881C87.831 42.0931 86.8114 41.0475 85.5854 40.1959C84.6253 39.5313 83.5807 39.1303 82.3883 39.2279C81.9503 39.2627 81.513 39.2765 81.0721 39.2889C80.5807 39.3005 80.0909 39.3086 79.6021 39.3045C78.3774 39.2908 77.2728 38.8724 76.2417 38.2447C75.6029 37.8542 74.9845 37.4262 74.3297 37.0627C72.6986 36.1502 70.9413 35.6863 69.0678 35.667C68.3859 35.6597 67.7305 35.7865 67.0997 36.0423C66.5506 36.2658 66.0121 36.5235 65.4594 36.7455C64.6908 37.0559 63.9298 37.3781 63.1446 37.6391C61.1027 38.3123 59.1156 38.1255 57.2075 37.1397C56.3807 36.7145 55.5871 36.2318 54.8172 35.7044C53.3877 34.7268 52.0216 33.6709 50.6878 32.5697C48.7074 30.9395 46.6455 29.439 44.3394 28.298C43.1024 27.687 41.8241 27.2104 40.4635 26.973C38.8763 26.6927 37.3252 26.9058 35.7912 27.3335C34.069 27.8152 32.4008 28.4555 30.7296 29.0734C29.0549 29.6898 27.3826 30.32 25.6493 30.7588C24.8281 30.9661 23.9852 31.0964 23.1513 31.2644C23.1159 31.1899 23.0784 31.1103 23.043 31.0357C24.1781 30.6893 25.3279 30.3872 26.4388 29.9795C27.8717 29.4531 29.2706 28.8485 30.6813 28.266C32.3772 27.5615 34.0433 26.7891 35.8039 26.2479C36.7937 25.9443 37.797 25.6973 38.8358 25.6518C38.9434 25.6475 39.0967 25.6842 39.1431 25.5182C39.0963 25.4895 39.0577 25.4517 39.0134 25.4368C36.8702 24.6622 35.0042 23.4325 33.2504 22.0017C32.1087 21.0725 30.9363 20.1849 29.6702 19.426C27.931 18.3821 26.0702 17.7467 24.0135 17.8088C23.4217 17.8278 22.8298 17.8763 22.236 17.8902C21.4617 17.9106 20.6864 17.9433 19.9164 17.9148C18.6082 17.8693 17.3549 17.5599 16.2112 16.9089C15.6995 16.6157 15.2338 16.2452 14.7095 15.8832C14.0744 17.1563 12.8003 17.7556 11.6534 18.5791C12.1618 19.1246 12.6199 19.6398 13.103 20.1363C14.1611 21.2197 15.4128 22.0316 16.769 22.6899C16.9298 22.7679 17.1038 22.8347 17.2503 22.9361C17.3118 22.9796 17.3135 23.103 17.3443 23.1882C17.255 23.2088 17.1601 23.2523 17.076 23.2413C16.9762 23.2278 16.881 23.1739 16.7884 23.1339C15.9334 22.7642 15.0891 22.3695 14.3253 21.8278C13.2468 21.0654 12.2173 20.2481 11.5152 19.0945C11.4635 19.0087 11.3852 18.9452 11.3182 18.8655C10.9585 19.1202 10.7007 19.4231 10.535 19.7574C10.9098 20.1521 11.244 20.5038 11.5803 20.8607C11.9683 21.2738 12.3416 21.7016 12.7429 22.1035C13.8748 23.2315 15.1946 24.0813 16.6754 24.6666C18.005 25.1908 19.3955 25.4664 20.8269 25.5399C21.9847 25.6007 23.1471 25.6509 24.3012 25.7397C25.0187 25.792 25.7433 25.8178 26.4409 26.0433C26.5265 26.0507 26.6156 26.0597 26.7012 26.0671C27.0042 26.1389 27.3052 26.2056 27.6083 26.2775C27.5779 26.3574 27.5496 26.4424 27.5193 26.5223C25.7837 26.2624 24.0379 26.1629 22.283 26.1822C21.5863 26.1896 20.892 26.2108 20.1974 26.1938C17.4556 26.1289 14.9895 25.2697 12.8248 23.5767C11.927 22.8755 11.1708 22.0326 10.4443 21.1603C10.3529 21.0489 10.2938 20.8922 10.0786 20.9302C9.89033 21.4536 9.85587 22.0223 9.72618 22.5667C9.59649 23.1111 9.41586 23.6462 9.254 24.2063C9.72535 24.7104 10.1784 25.1981 10.6314 25.6857C10.596 25.7677 10.5606 25.8496 10.5251 25.9316C9.92998 25.577 9.45864 25.0729 8.97968 24.5571C8.87338 24.6464 8.78605 24.7017 8.72057 24.7749C8.6551 24.8481 8.61302 24.9356 8.56026 25.0185C9.37315 26.1312 10.2675 27.1142 11.3745 27.8889C11.4579 28.1068 11.6632 28.1406 11.8491 28.1998C12.4935 28.4405 13.1365 28.6846 13.7774 28.9237C13.7486 29.0001 13.7233 29.078 13.6946 29.1543C11.2949 28.7087 9.45415 27.4011 8.03751 25.4352C7.6071 25.6678 7.31198 25.9884 7.02601 26.3173C6.94263 26.4123 6.88514 26.5355 6.83074 26.6515C6.44367 27.5075 6.86216 28.2805 7.7847 28.4257C8.06539 28.471 8.34405 28.5111 8.62367 28.5686C9.76509 28.8042 10.7757 29.2835 11.5982 30.1297C12.3266 30.8802 12.6647 31.7707 12.5487 32.8116C12.5114 33.1422 12.4293 33.4789 12.3055 33.7848C12.1493 34.1655 12.2023 34.4929 12.4301 34.8071C12.7817 35.2848 13.117 35.7807 13.505 36.2234C15.8377 38.9067 18.4385 41.2831 21.5115 43.1151C22.9644 43.9802 24.4978 44.6686 26.1072 45.1616C28.5462 45.9075 31.0503 46.1995 33.6024 46.1359C35.863 46.0816 38.0721 45.6963 40.2613 45.1713C41.7712 44.8092 43.2729 44.4267 44.7872 44.0835C47.366 43.4986 49.9851 43.2314 52.6301 43.2756C52.7815 43.2776 52.9493 43.2318 53.0308 43.415C53.0804 43.5253 52.8904 43.6419 52.6269 43.6548C51.1542 43.7158 49.6915 43.8614 48.2366 44.1161C46.5527 44.4113 44.8995 44.8214 43.2503 45.2712C41.7056 45.6943 40.1644 46.1485 38.6066 46.5237C35.5462 47.264 32.445 47.5215 29.3035 47.178C26.7617 46.8951 24.3296 46.2409 22.0387 45.0939C19.9733 44.0612 18.0806 42.7564 16.3363 41.2452C15.3828 40.4185 14.4764 39.5318 13.5506 38.6705C13.4966 38.6387 13.4392 38.6054 13.3852 38.5736C13.385 38.6327 13.3884 38.6934 13.3898 38.7489C13.3527 39.6464 13.3157 40.5438 13.2723 41.485C13.2723 41.485 13.2941 41.5325 13.3292 41.5688C14.9051 43.2736 16.7238 44.6521 18.8317 45.6354C18.9457 45.6847 19.0509 45.7641 19.1506 45.8368C19.1689 45.8531 19.1503 45.9255 19.1354 45.9698C19.1292 45.984 19.0955 46.0033 19.0761 45.9991C18.9794 45.9784 18.8744 45.9669 18.7833 45.9233C18.0648 45.5703 17.3417 45.228 16.639 44.848C15.4526 44.2081 14.3695 43.4268 13.3863 42.5027C13.3019 42.4239 13.2058 42.3528 13.0691 42.2387C12.942 42.6108 12.836 42.9244 12.7295 43.2294C12.8335 43.3801 12.9223 43.5073 13.0075 43.6329L13.0248 43.632ZM66.2921 34.712C65.6684 34.3746 65.1749 34.0978 64.6701 33.8373C64.4427 33.7178 64.202 33.6094 63.9596 33.5342C63.1673 33.2932 62.3725 33.0678 61.5761 32.8461C59.7465 32.3341 58.0365 31.5355 56.3625 30.6636C54.9409 29.922 53.5511 29.1265 52.1484 28.3508C50.1327 27.2424 48.0744 26.2128 46.0084 25.201C44.7306 24.5766 43.4637 23.9273 42.2413 23.2041C40.3591 22.09 38.744 20.6516 37.3729 18.9423C36.7267 18.1385 36.0887 17.3255 35.4389 16.5202C34.7105 15.6131 33.9391 14.7467 33.0752 13.9672C32.2844 13.2531 31.4276 12.6331 30.4305 12.24C29.556 11.8957 28.6488 11.7149 27.7158 11.6624C26.7114 11.6087 25.7075 11.5637 24.7015 11.5135C23.3802 11.4496 22.0827 11.2522 20.8262 10.8231C20.2448 10.6224 19.6598 10.4202 19.052 10.2123C18.6497 11.0449 18 11.6182 17.2625 12.1112C16.9642 12.3121 16.6755 12.5298 16.3797 12.7444C15.5526 13.3467 15.191 14.1926 15.0772 15.1795C15.3005 15.3183 15.5015 15.4306 15.6896 15.5627C16.7108 16.2622 17.8379 16.6777 19.0621 16.8391C20.0902 16.975 21.1224 16.935 22.1546 16.895C22.7999 16.8696 23.4438 16.8182 24.089 16.8223C25.5518 16.8332 26.9601 17.1165 28.2965 17.7325C29.2421 18.1667 30.1302 18.6946 30.9575 19.3144C32.073 20.1478 33.1757 21.001 34.2411 21.9015C36.1954 23.5627 38.4122 24.7539 40.7929 25.6734C40.9848 25.7479 41.1932 25.7746 41.3892 25.8298C41.9616 25.9927 42.5427 26.1255 43.0981 26.3276C45.6246 27.2425 47.9143 28.5879 50.0226 30.2353C50.864 30.8909 51.7316 31.4564 52.7088 31.8959C54.0569 32.5042 55.4391 33.0046 56.8577 33.4108C58.8523 33.9815 60.796 34.6697 62.6707 35.5565C62.8565 35.6453 63.0488 35.7285 63.23 35.828C63.4325 35.9367 63.6216 35.9296 63.8232 35.835C64.6149 35.4711 65.4086 35.1123 66.2952 34.7049L66.2921 34.712ZM14.5271 32.686C14.6188 32.8652 14.685 33.0249 14.7768 33.1746C15.4101 34.1842 16.1783 35.0873 17.0462 35.9066C17.193 36.0462 17.3716 36.1615 17.5507 36.2559C19.6673 37.3656 21.8796 38.225 24.2049 38.7738C27.6966 39.5986 31.2266 39.924 34.8081 39.5824C36.9458 39.3818 39.0545 39.0039 41.1562 38.5933C43.8424 38.0632 46.5416 37.6107 49.2731 37.3964C49.3786 37.387 49.4802 37.3379 49.7026 37.2734C49.0437 36.9293 48.4783 36.6721 47.9529 36.3518C46.3175 35.3613 44.6985 34.3525 43.0759 33.3422C42.1756 32.7837 41.2547 32.2629 40.2832 31.8301C39.1085 31.3095 37.8832 31.0334 36.5976 31.0822C35.6954 31.115 34.7921 31.16 33.8973 31.2636C32.2234 31.4574 30.5978 31.8625 28.9715 32.2884C27.6983 32.6216 26.4155 32.9381 25.1221 33.1908C22.9827 33.6104 20.8209 33.6906 18.649 33.4323C17.4904 33.295 16.366 33.0202 15.239 32.7316C15.0221 32.6759 14.8114 32.5763 14.5271 32.686ZM64.7827 40.4618C64.6701 40.4385 64.5713 40.4127 64.4735 40.4043C63.6522 40.3282 62.8282 40.2679 62.0064 40.1832C59.2312 39.8924 56.4813 39.4645 53.7798 38.7489C53.6087 38.7045 53.4238 38.6921 53.2474 38.6793C52.8113 38.6514 52.3725 38.6393 51.9343 38.6063C50.9284 38.5266 49.9279 38.5422 48.9194 38.6347C46.3458 38.8751 43.7962 39.2654 41.2485 39.6904C39.4157 39.9974 37.5794 40.3028 35.7292 40.4839C30.1149 41.0376 24.7109 40.2443 19.5751 37.8332C19.4519 37.7757 19.3226 37.7325 19.1358 37.656C19.2043 37.7617 19.2194 37.8147 19.2555 37.8388C20.032 38.3903 20.7879 38.9793 21.5998 39.4784C22.5881 40.0876 23.623 40.6281 24.7324 41.0063C25.7618 41.3542 26.7933 41.6776 27.8521 41.9283C29.8414 42.4036 31.848 42.7215 33.8925 42.8148C35.7194 42.9028 37.4993 42.6787 39.2281 42.0645C39.9578 41.8049 40.689 41.5417 41.4227 41.2923C43.7178 40.5128 46.0687 40.0832 48.505 40.219C49.9507 40.2986 51.3708 40.5743 52.7904 40.8414C54.3103 41.1307 55.8381 41.3727 57.3846 41.4832C59.8911 41.6621 62.32 41.2281 64.7157 40.5386C64.7346 40.5341 64.7433 40.504 64.7807 40.4567L64.7827 40.4618ZM18.3986 4.52534C18.6794 4.54103 18.9067 4.56317 19.136 4.56086C21.4586 4.5587 23.7807 4.54788 26.1033 4.54572C26.67 4.54552 27.2394 4.52952 27.805 4.57111C29.1018 4.66247 30.2824 5.07148 31.2586 5.96301C31.9253 6.5727 32.5921 7.18239 33.2455 7.80325C34.4198 8.91152 35.6944 9.85599 37.2128 10.4618C38.8417 11.1154 40.262 12.0848 41.4162 13.4254C41.472 13.4919 41.5662 13.5284 41.642 13.578C41.684 13.5201 41.7156 13.4957 41.7131 13.4819C41.6891 13.3616 41.6854 13.2331 41.6307 13.1249C40.9413 11.6681 40.0792 10.3269 38.9673 9.15255C37.5176 7.62495 35.8847 6.33528 34.0518 5.29317C32.1954 4.23672 30.2367 3.46586 28.1253 3.07728C26.9502 2.86094 25.7622 2.85046 24.5773 2.83286C23.3592 2.81362 22.1609 2.68028 20.9919 2.29322C20.356 2.08168 19.7089 1.88642 19.0503 1.76655C18.1034 1.58968 18.023 1.70716 18.0107 2.64492C18.0021 3.27128 18.2035 3.86162 18.3955 4.53246L18.3986 4.52534ZM7.93753 23.2607C8.00473 23.1248 8.0575 23.0419 8.08735 22.9533C8.15475 22.7583 8.21858 22.5618 8.26663 22.3627C8.3994 21.8111 8.50926 21.2539 8.6507 20.7019C8.93935 19.5453 9.49714 18.539 10.4191 17.7663C10.7528 17.4835 11.1201 17.2405 11.4761 16.9843C11.8322 16.7281 12.1939 16.4785 12.5444 16.2156C13.0568 15.8325 13.3974 15.3285 13.5874 14.7129C13.6951 14.3662 13.8205 14.0271 13.9389 13.685C14.1477 13.0945 14.4374 12.5516 14.8727 12.0928C14.9335 12.0303 15.0631 11.9848 14.9566 11.8203C14.6082 11.7458 14.2334 11.6641 13.8585 11.5823C13.7582 11.5601 13.642 11.5648 13.5591 11.5121C13.4853 11.4675 13.4535 11.3649 13.3987 11.2863C13.4794 11.2366 13.5541 11.1716 13.6413 11.1459C13.7097 11.1247 13.7947 11.153 13.8685 11.168C14.4268 11.2656 14.9851 11.3633 15.5872 11.4671C16.0046 11.1571 16.4644 10.8273 16.9145 10.4806C17.2247 10.2426 17.4779 9.95037 17.6025 9.56444C17.7271 9.17852 17.659 8.95455 17.3311 8.68591C17.231 8.60455 17.1145 8.54148 17.021 8.45453C16.65 8.12918 16.4535 7.72284 16.471 7.22291C16.4755 7.08531 16.5076 6.94271 16.5274 6.79904C15.9161 6.99991 15.3304 7.19067 14.7003 7.39606C14.5439 8.17842 13.8723 8.73382 13.4963 9.50578C13.6475 9.53736 13.7453 9.57539 13.8375 9.57722C14.5576 9.58414 15.2809 9.58393 16.0041 9.58373C16.131 9.58363 16.2656 9.56572 16.3884 9.58497C16.4444 9.59229 16.5293 9.67972 16.523 9.72353C16.5193 9.78111 16.4456 9.86344 16.3874 9.88058C16.266 9.91689 16.1345 9.92767 16.0045 9.9349C15.0833 10.0017 14.1645 10.1119 13.241 9.94938C13.1178 10.2344 12.9788 10.4873 12.8979 10.7525C12.7408 11.2724 12.6259 11.8021 12.4759 12.325C12.4161 12.5318 12.3707 12.7151 12.5439 12.8915C12.5678 12.9145 12.5127 13.081 12.4934 13.0769C12.2013 13.0774 12.1883 13.3129 12.1204 13.4992C11.6483 14.8259 10.9268 16.0151 10.0852 17.1398C9.72745 17.6152 9.31678 18.0466 8.82282 18.387C8.75744 18.4306 8.65249 18.419 8.45259 18.451C8.57911 18.2562 8.63756 18.1504 8.71584 18.0574C8.92565 17.7971 9.168 17.5594 9.35442 17.2847C10.4606 15.6655 11.2176 13.8953 11.5724 11.9597C11.7369 11.0709 11.8764 10.1713 12.2669 9.34634C12.4645 8.92854 12.6886 8.51796 12.9309 8.12375C13.245 7.61255 13.3267 7.42372 13.363 6.8897C13.2626 6.89702 13.1592 6.88191 13.0775 6.91426C12.7065 7.05831 12.4294 7.32755 12.1655 7.61516C11.3067 8.55477 10.8224 9.69435 10.4842 10.8971C10.2331 11.7908 10.0334 12.7024 9.81741 13.6028C9.53838 14.7762 9.03751 15.8368 8.28165 16.7828C7.63326 17.5977 6.86449 18.2802 6.06271 18.9315C5.76325 19.1742 5.48257 19.4419 5.19073 19.6963C4.98525 19.8781 4.98198 20.1008 5.075 20.3355C5.12151 20.4529 5.18535 20.5693 5.25073 20.6822C5.42916 20.9835 5.59969 21.0487 5.88518 20.8677C6.14208 20.7039 6.37365 20.4911 6.61331 20.2987C6.89129 20.0764 7.14799 19.8153 7.53392 19.7834C7.60711 20.3183 7.55733 20.4236 6.8553 21.2745C7.04548 21.5682 7.26473 21.8533 7.43344 22.1673C7.6057 22.4828 7.73252 22.8252 7.92173 23.2581L7.93753 23.2607ZM53.8599 33.2436C55.1421 34.2294 56.303 35.0359 57.5367 35.7427C59.1743 36.6792 60.8784 36.9044 62.6725 36.2762C62.698 36.2661 62.722 36.2595 62.7459 36.253C62.8633 36.2065 63.005 36.1916 63.0047 35.9969C62.4101 35.7779 61.811 35.54 61.1995 35.3306C60.2001 34.9914 59.1956 34.6544 58.1829 34.356C56.8977 33.9736 55.6007 33.6285 54.3098 33.269C54.2232 33.2443 54.1248 33.2567 53.8619 33.2487L53.8599 33.2436ZM8.13042 7.61687C8.15132 7.93038 7.97569 8.18006 8.03858 8.43561C8.61987 8.50936 9.1538 8.57531 9.71574 8.64492C9.90851 8.29693 10.1028 7.94537 10.3207 7.54904C10.0864 7.49426 9.91542 7.42031 9.74316 7.41771C9.22638 7.40992 8.71653 7.46434 8.13042 7.61687ZM4.35863 10.0414C4.39964 9.80962 4.44769 9.6105 4.46771 9.40771C4.47878 9.29409 4.45317 9.17729 4.44643 9.05597C3.1603 9.28217 2.32326 9.64337 1.83884 10.1866C2.67559 10.0706 3.4772 9.94781 4.35709 10.045L4.35863 10.0414Z" fill="url(#paint0_linear_304_4989)"/>
<path d="M13.0248 43.632C13.5448 44.0725 14.0644 44.5128 14.5793 44.9553C14.59 44.9599 14.5731 44.9991 14.5663 45.0343C14.5342 45.05 14.4892 45.0855 14.4642 45.0747C14.3487 45.029 14.226 44.9801 14.1197 44.913C13.5857 44.5637 13.112 44.1432 12.6809 43.6734C12.793 43.6585 12.9088 43.6451 13.0209 43.6302L13.0248 43.632Z" fill="url(#paint1_linear_304_4989)"/>
<path d="M23.1546 31.2656C22.1033 31.5257 20.965 31.5959 20.4876 31.3895C20.9898 31.3233 21.4146 31.2701 21.8408 31.2134C22.2411 31.1581 22.6445 31.0957 23.0463 31.0369C23.0817 31.1114 23.1192 31.1911 23.1546 31.2656Z" fill="url(#paint2_linear_304_4989)"/>
<path d="M6.26935 13.113C6.72345 13.2755 7.17909 13.4345 7.62857 13.6077C7.73699 13.6503 7.82385 13.7429 7.9342 13.8202C7.70272 14.0034 7.55145 13.8154 7.38593 13.7776C7.21328 13.7368 7.04891 13.6573 6.87732 13.6042C6.68638 13.547 6.49236 13.497 6.28408 13.4407C6.20301 13.6087 6.13763 13.7413 6.07042 13.8771C5.97047 13.5802 6.17528 13.3599 6.26935 13.113Z" fill="url(#paint3_linear_304_4989)"/>
<path d="M22.0758 6.28034C22.7583 6.26675 23.4316 6.34205 24.2529 6.41811C23.742 6.64122 23.2104 6.64816 21.9723 6.51877C22.0062 6.44039 22.0401 6.362 22.074 6.28362L22.0758 6.28034Z" fill="url(#paint4_linear_304_4989)"/>
<path d="M1.23234 11.4425C1.59881 11.2796 1.98519 11.3239 2.3612 11.3638C2.73009 11.4007 3.12064 11.3581 3.58504 11.6435C2.69119 11.608 1.9315 11.6349 1.17486 11.5657C1.19334 11.5229 1.21183 11.4802 1.23234 11.4425Z" fill="url(#paint5_linear_304_4989)"/>
<path d="M27.6197 26.2696C27.965 26.3512 28.3098 26.4242 28.652 26.513C28.7401 26.5341 28.8189 26.6063 28.9211 26.6632C28.5741 26.8007 28.5339 26.796 27.5323 26.5109C27.5626 26.4309 27.5909 26.3459 27.6212 26.266L27.6197 26.2696Z" fill="url(#paint6_linear_304_4989)"/>
<path d="M10.6414 25.6814C10.9668 25.9067 11.3168 26.1046 11.5995 26.4679C11.2677 26.4203 10.9117 26.2395 10.5315 25.9257C10.5669 25.8438 10.6024 25.7618 10.6378 25.6799L10.6414 25.6814Z" fill="url(#paint7_linear_304_4989)"/>
<path d="M13.7857 28.923C13.8331 28.9308 13.8953 28.9239 13.9314 28.948C13.9874 28.9849 14.0238 29.0472 14.0685 29.1003C14.0169 29.1414 13.9688 29.2136 13.9101 29.2221C13.8444 29.2275 13.7722 29.1794 13.7065 29.1552C13.7353 29.0788 13.7605 29.0009 13.7893 28.9246L13.7857 28.923Z" fill="url(#paint8_linear_304_4989)"/>
<path d="M11.3829 27.8882C11.5416 27.9907 11.6987 28.0967 11.8574 28.1991C11.6716 28.1399 11.4663 28.1061 11.3829 27.8882Z" fill="url(#paint9_linear_304_4989)"/>
<path d="M66.1533 43.0419C69.3443 41.9605 72.7045 42.2675 75.4361 43.6179C75.3513 43.6869 75.2872 43.7861 75.2195 43.7864C75.0405 43.7894 74.8633 43.7592 74.684 43.724C73.595 43.5237 72.5059 43.3235 71.4215 43.1125C69.9347 42.8248 68.4509 42.8725 66.9714 43.1547C66.796 43.1887 66.6195 43.2351 66.439 43.2416C66.3712 43.2419 66.3017 43.1484 66.1497 43.0404L66.1533 43.0419Z" fill="url(#paint10_linear_304_4989)"/>
<path d="M26.3382 49.2915C26.1423 49.3632 26.0937 49.3972 26.0484 49.3945C23.7864 49.2664 21.7097 48.5629 19.7793 47.3941C19.6551 47.3193 19.604 47.2126 19.7289 47.0509C19.8333 47.0834 19.9576 47.0991 20.065 47.1539C21.5482 47.9095 23.137 48.3428 24.7401 48.7526C25.1633 48.8595 25.587 48.9751 26.0091 49.0942C26.0921 49.1174 26.1637 49.1864 26.3382 49.2915Z" fill="url(#paint11_linear_304_4989)"/>
<path d="M34.6119 48.2893C34.8648 48.2717 35.1192 48.2506 35.372 48.2331C36.7719 48.1449 38.1316 47.8659 39.4506 47.3875C40.2533 47.0961 41.0655 46.851 41.8953 46.6727C41.9712 46.8493 41.8884 46.9235 41.7597 46.9863C40.9041 47.4198 40.0212 47.7696 39.0842 47.9903C37.7219 48.3146 36.3382 48.4437 34.9427 48.4534C34.8244 48.453 34.7027 48.4216 34.5835 48.4038C34.5918 48.3651 34.6016 48.3229 34.6063 48.2826L34.6119 48.2893Z" fill="url(#paint12_linear_304_4989)"/>
<path d="M12.6939 25.3553C13.1833 25.6219 13.6604 25.9171 14.1657 26.1567C14.6782 26.3994 15.2096 26.6081 15.7478 26.7816C16.261 26.9443 16.7953 27.0485 17.3265 27.1598C17.8649 27.2742 18.4239 27.2918 19.0333 27.5257C18.8878 27.5981 18.83 27.6534 18.7709 27.6533C17.1917 27.7062 15.6953 27.4017 14.3049 26.6271C13.7865 26.3395 13.2824 26.0285 12.7768 25.721C12.6633 25.6508 12.5862 25.5456 12.6939 25.3553Z" fill="url(#paint13_linear_304_4989)"/>
<path d="M78.1104 45.6579C77.8892 45.6511 77.7337 45.6684 77.5875 45.6348C76.7584 45.4497 75.9338 45.2539 75.1093 45.058C74.2583 44.855 73.4119 44.6412 72.564 44.431C72.4917 44.4124 72.4189 44.3852 72.3609 44.3432C72.3284 44.3207 72.3108 44.2539 72.315 44.2049C72.3161 44.1631 72.3541 44.095 72.3816 44.09C72.504 44.071 72.633 44.0464 72.7507 44.0677C73.9339 44.3045 75.1263 44.5199 76.2966 44.806C76.866 44.9465 77.4044 45.2173 77.9572 45.4352C77.9928 45.4506 78.0119 45.5139 78.1104 45.6579Z" fill="url(#paint14_linear_304_4989)"/>
<path d="M23.2993 22.9509C23.2044 22.9648 23.1121 22.9926 23.0214 22.9872C21.5751 22.9285 20.1387 22.8275 18.7575 22.3444C18.2734 22.1731 17.8072 21.9504 17.3365 21.7384C17.2652 21.7076 17.2248 21.6055 17.073 21.4088C17.3383 21.4897 17.4524 21.5094 17.5577 21.5592C18.4758 21.9985 19.4531 22.2223 20.4506 22.3703C21.2392 22.4829 22.0313 22.5971 22.8189 22.722C22.9855 22.7475 23.1438 22.8117 23.3082 22.8617L23.3013 22.956L23.2993 22.9509Z" fill="url(#paint15_linear_304_4989)"/>
<path d="M29.4897 20.4683C29.0819 20.3258 28.6664 20.2011 28.2627 20.0393C27.2564 19.638 26.2486 19.2402 25.1619 19.0833C25.1217 19.0786 25.0872 19.0214 25.0491 18.9922C25.2063 18.7557 25.4189 18.8899 25.611 18.9053C27.0545 19.0389 28.372 19.5029 29.4861 20.4668L29.4897 20.4683Z" fill="url(#paint16_linear_304_4989)"/>
<path d="M27.6334 16.6929C27.2477 16.6657 26.8821 16.5626 26.5277 16.4432C24.6761 15.8159 22.7794 15.5666 20.8289 15.6959C20.6469 15.706 20.6485 15.7024 20.4798 15.5449C20.511 15.5119 20.5407 15.4528 20.5769 15.4473C21.9057 15.2692 23.2362 15.2144 24.5703 15.4149C25.6029 15.5696 26.5558 15.9479 27.4804 16.4111C27.543 16.4424 27.5835 16.5149 27.6251 16.5752C27.6383 16.5936 27.6296 16.6236 27.6334 16.6929Z" fill="url(#paint17_linear_304_4989)"/>
<path d="M31.7155 19.0372C31.168 18.7582 29.0552 17.2188 28.9081 17.0114C28.9005 16.9996 28.9281 16.965 28.9528 16.908C29.1843 16.8813 29.3647 17.0312 29.5499 17.1409C30.5586 17.742 31.1212 18.2305 31.7155 19.0372Z" fill="url(#paint18_linear_304_4989)"/>
<path d="M29.101 15.5091C27.8282 15.0982 26.7127 14.7343 25.5513 14.359C25.6157 14.298 25.6618 14.2207 25.7036 14.2218C26.5934 14.2472 28.1588 14.8226 29.101 15.5091Z" fill="url(#paint19_linear_304_4989)"/>
<path d="M28.7068 9.60427C29.2617 9.48476 29.6776 9.64768 30.0753 9.76466C31.0881 10.063 32.0936 10.3879 33.0174 10.9312C33.959 11.4821 34.8106 12.1337 35.5885 12.8971C36.7946 14.0784 37.7453 15.4494 38.6219 16.8646C38.5148 17.0635 38.4232 17.0112 38.3247 16.8967C37.6402 16.0933 36.9507 15.2919 36.2729 14.4829C35.5916 13.6724 34.8826 12.8964 34.0611 12.224C32.7222 11.1249 31.1924 10.4084 29.5375 9.94232C29.3379 9.88561 29.1403 9.834 28.9438 9.77017C28.8995 9.75524 28.8624 9.71384 28.7104 9.60581L28.7068 9.60427Z" fill="url(#paint20_linear_304_4989)"/>
<path d="M39.638 17.0968C40.1315 17.53 42.808 20.6115 43.0685 21.0456C42.8552 21.1183 42.7483 20.9452 42.6278 20.8423C41.5153 19.8749 40.5382 18.7801 39.669 17.5923C39.5939 17.4921 39.5351 17.3737 39.5024 17.2538C39.4934 17.2161 39.5853 17.1501 39.6329 17.0988L39.638 17.0968Z" fill="url(#paint21_linear_304_4989)"/>
<path d="M13.5915 13.3528C13.2202 13.2726 12.9284 13.2141 12.6371 13.1346C12.5948 13.1248 12.5697 13.0167 12.5628 12.9545C12.5598 12.932 12.6517 12.8661 12.6802 12.8784C12.9781 12.9818 13.3133 13.0084 13.588 13.3513L13.5915 13.3528Z" fill="url(#paint22_linear_304_4989)"/>
<defs>
<linearGradient id="paint0_linear_304_4989" x1="-3.5" y1="82.5" x2="13.0139" y2="13.298" gradientUnits="userSpaceOnUse">
<stop stop-color="#DEC184" stop-opacity="0.28"/>
<stop offset="0.629808" stop-color="#E5B77A" stop-opacity="0.38"/>
<stop offset="1" stop-color="#FBEFD9" stop-opacity="0.15"/>
</linearGradient>
<linearGradient id="paint1_linear_304_4989" x1="-3.5" y1="82.5" x2="13.0139" y2="13.298" gradientUnits="userSpaceOnUse">
<stop stop-color="#DEC184" stop-opacity="0.28"/>
<stop offset="0.629808" stop-color="#E5B77A" stop-opacity="0.38"/>
<stop offset="1" stop-color="#FBEFD9" stop-opacity="0.15"/>
</linearGradient>
<linearGradient id="paint2_linear_304_4989" x1="-3.5" y1="82.5" x2="13.0139" y2="13.298" gradientUnits="userSpaceOnUse">
<stop stop-color="#DEC184" stop-opacity="0.28"/>
<stop offset="0.629808" stop-color="#E5B77A" stop-opacity="0.38"/>
<stop offset="1" stop-color="#FBEFD9" stop-opacity="0.15"/>
</linearGradient>
<linearGradient id="paint3_linear_304_4989" x1="-3.5" y1="82.5" x2="13.0139" y2="13.298" gradientUnits="userSpaceOnUse">
<stop stop-color="#DEC184" stop-opacity="0.28"/>
<stop offset="0.629808" stop-color="#E5B77A" stop-opacity="0.38"/>
<stop offset="1" stop-color="#FBEFD9" stop-opacity="0.15"/>
</linearGradient>
<linearGradient id="paint4_linear_304_4989" x1="-3.5" y1="82.5" x2="13.0139" y2="13.298" gradientUnits="userSpaceOnUse">
<stop stop-color="#DEC184" stop-opacity="0.28"/>
<stop offset="0.629808" stop-color="#E5B77A" stop-opacity="0.38"/>
<stop offset="1" stop-color="#FBEFD9" stop-opacity="0.15"/>
</linearGradient>
<linearGradient id="paint5_linear_304_4989" x1="-3.5" y1="82.5" x2="13.0139" y2="13.298" gradientUnits="userSpaceOnUse">
<stop stop-color="#DEC184" stop-opacity="0.28"/>
<stop offset="0.629808" stop-color="#E5B77A" stop-opacity="0.38"/>
<stop offset="1" stop-color="#FBEFD9" stop-opacity="0.15"/>
</linearGradient>
<linearGradient id="paint6_linear_304_4989" x1="-3.5" y1="82.5" x2="13.0139" y2="13.298" gradientUnits="userSpaceOnUse">
<stop stop-color="#DEC184" stop-opacity="0.28"/>
<stop offset="0.629808" stop-color="#E5B77A" stop-opacity="0.38"/>
<stop offset="1" stop-color="#FBEFD9" stop-opacity="0.15"/>
</linearGradient>
<linearGradient id="paint7_linear_304_4989" x1="-3.5" y1="82.5" x2="13.0139" y2="13.298" gradientUnits="userSpaceOnUse">
<stop stop-color="#DEC184" stop-opacity="0.28"/>
<stop offset="0.629808" stop-color="#E5B77A" stop-opacity="0.38"/>
<stop offset="1" stop-color="#FBEFD9" stop-opacity="0.15"/>
</linearGradient>
<linearGradient id="paint8_linear_304_4989" x1="-3.5" y1="82.5" x2="13.0139" y2="13.298" gradientUnits="userSpaceOnUse">
<stop stop-color="#DEC184" stop-opacity="0.28"/>
<stop offset="0.629808" stop-color="#E5B77A" stop-opacity="0.38"/>
<stop offset="1" stop-color="#FBEFD9" stop-opacity="0.15"/>
</linearGradient>
<linearGradient id="paint9_linear_304_4989" x1="-3.5" y1="82.5" x2="13.0139" y2="13.298" gradientUnits="userSpaceOnUse">
<stop stop-color="#DEC184" stop-opacity="0.28"/>
<stop offset="0.629808" stop-color="#E5B77A" stop-opacity="0.38"/>
<stop offset="1" stop-color="#FBEFD9" stop-opacity="0.15"/>
</linearGradient>
<linearGradient id="paint10_linear_304_4989" x1="-3.5" y1="82.5" x2="13.0139" y2="13.298" gradientUnits="userSpaceOnUse">
<stop stop-color="#DEC184" stop-opacity="0.28"/>
<stop offset="0.629808" stop-color="#E5B77A" stop-opacity="0.38"/>
<stop offset="1" stop-color="#FBEFD9" stop-opacity="0.15"/>
</linearGradient>
<linearGradient id="paint11_linear_304_4989" x1="-3.5" y1="82.5" x2="13.0139" y2="13.298" gradientUnits="userSpaceOnUse">
<stop stop-color="#DEC184" stop-opacity="0.28"/>
<stop offset="0.629808" stop-color="#E5B77A" stop-opacity="0.38"/>
<stop offset="1" stop-color="#FBEFD9" stop-opacity="0.15"/>
</linearGradient>
<linearGradient id="paint12_linear_304_4989" x1="-3.5" y1="82.5" x2="13.0139" y2="13.298" gradientUnits="userSpaceOnUse">
<stop stop-color="#DEC184" stop-opacity="0.28"/>
<stop offset="0.629808" stop-color="#E5B77A" stop-opacity="0.38"/>
<stop offset="1" stop-color="#FBEFD9" stop-opacity="0.15"/>
</linearGradient>
<linearGradient id="paint13_linear_304_4989" x1="-3.5" y1="82.5" x2="13.0139" y2="13.298" gradientUnits="userSpaceOnUse">
<stop stop-color="#DEC184" stop-opacity="0.28"/>
<stop offset="0.629808" stop-color="#E5B77A" stop-opacity="0.38"/>
<stop offset="1" stop-color="#FBEFD9" stop-opacity="0.15"/>
</linearGradient>
<linearGradient id="paint14_linear_304_4989" x1="-3.5" y1="82.5" x2="13.0139" y2="13.298" gradientUnits="userSpaceOnUse">
<stop stop-color="#DEC184" stop-opacity="0.28"/>
<stop offset="0.629808" stop-color="#E5B77A" stop-opacity="0.38"/>
<stop offset="1" stop-color="#FBEFD9" stop-opacity="0.15"/>
</linearGradient>
<linearGradient id="paint15_linear_304_4989" x1="-3.5" y1="82.5" x2="13.0139" y2="13.298" gradientUnits="userSpaceOnUse">
<stop stop-color="#DEC184" stop-opacity="0.28"/>
<stop offset="0.629808" stop-color="#E5B77A" stop-opacity="0.38"/>
<stop offset="1" stop-color="#FBEFD9" stop-opacity="0.15"/>
</linearGradient>
<linearGradient id="paint16_linear_304_4989" x1="-3.5" y1="82.5" x2="13.0139" y2="13.298" gradientUnits="userSpaceOnUse">
<stop stop-color="#DEC184" stop-opacity="0.28"/>
<stop offset="0.629808" stop-color="#E5B77A" stop-opacity="0.38"/>
<stop offset="1" stop-color="#FBEFD9" stop-opacity="0.15"/>
</linearGradient>
<linearGradient id="paint17_linear_304_4989" x1="-3.5" y1="82.5" x2="13.0139" y2="13.298" gradientUnits="userSpaceOnUse">
<stop stop-color="#DEC184" stop-opacity="0.28"/>
<stop offset="0.629808" stop-color="#E5B77A" stop-opacity="0.38"/>
<stop offset="1" stop-color="#FBEFD9" stop-opacity="0.15"/>
</linearGradient>
<linearGradient id="paint18_linear_304_4989" x1="-3.5" y1="82.5" x2="13.0139" y2="13.298" gradientUnits="userSpaceOnUse">
<stop stop-color="#DEC184" stop-opacity="0.28"/>
<stop offset="0.629808" stop-color="#E5B77A" stop-opacity="0.38"/>
<stop offset="1" stop-color="#FBEFD9" stop-opacity="0.15"/>
</linearGradient>
<linearGradient id="paint19_linear_304_4989" x1="-3.5" y1="82.5" x2="13.0139" y2="13.298" gradientUnits="userSpaceOnUse">
<stop stop-color="#DEC184" stop-opacity="0.28"/>
<stop offset="0.629808" stop-color="#E5B77A" stop-opacity="0.38"/>
<stop offset="1" stop-color="#FBEFD9" stop-opacity="0.15"/>
</linearGradient>
<linearGradient id="paint20_linear_304_4989" x1="-3.5" y1="82.5" x2="13.0139" y2="13.298" gradientUnits="userSpaceOnUse">
<stop stop-color="#DEC184" stop-opacity="0.28"/>
<stop offset="0.629808" stop-color="#E5B77A" stop-opacity="0.38"/>
<stop offset="1" stop-color="#FBEFD9" stop-opacity="0.15"/>
</linearGradient>
<linearGradient id="paint21_linear_304_4989" x1="-3.5" y1="82.5" x2="13.0139" y2="13.298" gradientUnits="userSpaceOnUse">
<stop stop-color="#DEC184" stop-opacity="0.28"/>
<stop offset="0.629808" stop-color="#E5B77A" stop-opacity="0.38"/>
<stop offset="1" stop-color="#FBEFD9" stop-opacity="0.15"/>
</linearGradient>
<linearGradient id="paint22_linear_304_4989" x1="-3.5" y1="82.5" x2="13.0139" y2="13.298" gradientUnits="userSpaceOnUse">
<stop stop-color="#DEC184" stop-opacity="0.28"/>
<stop offset="0.629808" stop-color="#E5B77A" stop-opacity="0.38"/>
<stop offset="1" stop-color="#FBEFD9" stop-opacity="0.15"/>
</linearGradient>
</defs>
</svg>
