<svg width="701" height="343" viewBox="0 0 701 343" fill="none" xmlns="http://www.w3.org/2000/svg">
<path d="M200.483 312.67C201.028 313.836 201.436 316.194 201.473 317.366C202.859 318.668 200.593 322.148 203.034 322.273C205.532 322.4 207.564 321.519 209.957 320.956C211.006 320.708 214.265 321.088 215.026 319.652C215.97 317.871 216.037 315.837 216.321 313.866C216.568 312.154 217.103 309.803 217.174 308.727C217.337 306.259 217.915 303.563 219.302 301.39C222.207 296.84 227.878 294.022 230.271 289.102C231.944 285.662 232.723 280.882 234.88 277.754C235.565 276.761 235.826 275.455 236.466 274.495C237.072 273.585 238.114 272.681 238.571 271.598C239.476 269.455 240.24 266.933 241.922 265.241C245.291 261.852 251.175 261.066 255.228 258.446C258.345 256.431 260.951 253.783 262.795 250.518C263.354 249.527 263.735 248.456 264.262 247.472C264.862 246.352 265.711 245.18 265.587 243.963C265.475 242.873 263.864 237.148 261.935 238.087C259.804 239.123 248.512 260.192 245.585 255.535C244.92 254.478 246.983 251.781 247.083 250.708C247.546 245.772 248.959 238.51 246.808 233.949C246.022 232.283 242.611 224.557 239.848 227.543C238.457 229.046 240.647 234.001 240.704 235.889C240.783 238.504 240.672 241.548 240.576 243.963C240.455 246.965 240.274 248.92 239.673 250.28C237.326 255.596 231.578 263.883 226.234 255.508C225.653 254.598 224.611 253.996 224.213 252.995C223.796 251.949 223.257 250.787 222.76 249.787C219.103 242.444 218.434 233.869 220.239 225.911C220.5 224.762 221.151 219.704 220.16 216.704C219.798 215.61 218.032 210.966 215.974 212.618C213.408 214.676 213.289 218.996 209.56 219.79C208.176 220.084 207.362 218.616 206.963 218.241C204.456 215.886 204.866 213.448 205.79 211.03C206.97 207.938 210.63 201.818 207.431 198.812C206.602 198.034 205.199 197.38 204.115 198.203C203.123 198.955 202.729 201.129 202.403 202.163C201.601 204.708 202.037 209.684 199.806 208.733C198.185 208.041 194.312 201.522 193.237 200.227C191.687 198.36 189.538 196.879 187.015 197.217C184.519 197.551 187.441 204.019 188.066 204.877C190.966 208.858 194.307 213.264 198.023 216.561C202.157 220.229 210.84 232.6 210.028 238.42C209.834 239.813 205.513 242.396 202.157 239.493C199.05 236.805 197.074 233.699 194.692 230.432C192.113 226.893 190.258 221.54 186.028 219.593C185.479 219.341 183.535 218.913 183.38 219.893C183.205 220.999 184.219 222.994 184.732 223.907C186.236 226.588 188.051 229.163 189.918 231.603C191.026 233.052 192.32 234.475 192.864 235.311C193.485 236.265 194.696 237.322 194.697 238.594C194.698 240.03 189.246 241.134 189.874 242.296C190.73 243.882 195.433 245.399 197.293 246.119C198.704 246.665 199.847 246.687 201.37 246.802C203.335 246.951 205.84 248.834 206.709 249.748C209.16 252.325 211.059 255.357 213.142 258.208C215.013 260.77 217.269 262.95 219.365 265.322C220.899 267.059 221.398 269.185 221.834 271.413C222.482 274.725 223.962 277.724 222.176 281.024C220.716 283.723 219.885 287.298 218.14 289.822C217.004 291.466 213.452 295.896 211.857 296.757C208.455 298.594 208.667 298.48 205.045 286.428C203.569 281.518 203.196 279.186 203.673 274.34C203.931 271.714 203.847 269.447 202.815 267.033C201.838 264.746 197.278 262.052 195.179 260.834C192.05 259.019 188.652 258.555 185.355 256.112C183.734 254.91 182.905 254.001 182.102 253.083C181.311 252.179 180.771 251.096 179.705 249.787C177.873 247.539 176.198 245.547 175.417 246.805C174.155 248.836 175.662 256.94 177.116 258.534C180.108 261.814 184.866 265.901 188.939 267.71C190.991 268.622 193.565 269.384 195.004 271.239C195.356 271.692 195.802 273.494 195.611 275.874C195.324 279.453 195.517 282.724 196.696 286.142C199.031 292.913 202.519 307.594 188.386 298.304C186.78 297.249 176.964 287.103 175.671 290.814C175.132 292.363 174.99 294.581 176.008 295.958C177.649 298.179 179.274 300.438 181.688 301.905C184.081 303.36 186.589 304.641 189.001 306.069C190.293 306.833 191.129 307.697 192.199 308.335C193.75 309.26 196.615 309.564 197.449 310.186C198.489 310.96 199.975 311.581 200.483 312.67Z" fill="#0F1628"/>
<path fill-rule="evenodd" clip-rule="evenodd" d="M268.566 316.82C268.47 313.746 267.968 307.54 266.579 305.18C265.854 303.947 263.141 301.967 260.071 299.726C254.41 295.594 247.533 290.574 249.655 287.712C252.184 284.304 255.299 286.42 258.39 288.518C260.849 290.189 263.293 291.848 265.414 290.706C268.41 289.093 267.325 283.43 266.669 280.009C266.451 278.869 266.28 277.978 266.323 277.568C266.672 274.287 270.852 281.063 272.99 282.548C273.902 283.181 274.812 283.578 275.311 284.644C276.429 287.035 274.521 288.859 273.796 290.588C273.036 292.398 273.024 295.715 273.445 299.345C273.788 302.307 278.376 302.925 280.591 302.251C284.957 300.922 284.123 291.982 283.516 288.901C283.211 287.351 281.875 286.057 280.338 284.568C276.149 280.51 272.566 275.867 269.081 271.206C267.401 268.959 266.32 264.181 268.704 262.062C272.626 258.574 276.676 265.119 280.584 271.434C284.05 277.035 287.404 282.454 290.458 280.535C291.905 279.625 291.641 277.949 291.372 276.234C291.163 274.905 290.951 273.553 291.528 272.515C291.965 271.728 293.049 271.535 293.49 270.748C294.793 268.423 291.715 265.548 290.34 264.022C288.989 262.522 288.222 260.675 286.834 258.627C285.373 256.471 283.211 254.317 281.543 253.05C278.205 250.515 275.726 246.588 272.866 243.549C270.967 241.532 270.605 237.421 270.316 234.14C269.897 229.393 262.573 215.388 271.602 216.358C277.2 216.959 277.673 222.142 278.096 226.766C278.267 228.649 278.431 230.439 278.929 231.79C279.658 233.77 280.299 235.933 280.978 237.776C281.851 240.145 285.124 242.572 287.774 241.993C289.317 241.656 289.215 239.386 289.104 236.922C288.933 233.129 289.525 229.38 289.376 225.573C289.329 224.356 289.296 223.518 289.439 223.175C289.917 222.026 291.72 221.995 292.736 222.21C298.173 223.36 297.884 233.102 296.387 236.748C295.52 238.859 295.614 241.717 295.76 246.16C295.801 247.392 295.845 248.747 295.874 250.241C295.924 252.804 297.212 254.855 298.79 256.765C299.908 258.12 301.652 259.156 302.717 260.751C305.021 264.205 308.113 267.468 312.615 267.349C314.71 267.294 315.596 262.854 316.231 261.349C319.804 252.882 315.011 242.499 312.059 234.488C311.602 233.249 311.168 228.257 310.733 223.26C310.572 220.972 310.34 218.681 310.096 216.4C309.696 212.665 306.913 209.216 303.696 207.524C300.975 206.093 299.477 204.012 297.192 202.918C295.33 202.026 289.989 202.132 284.713 202.683C276.242 203.569 267.708 203.752 259.254 204.878C255.319 205.402 252.841 205.623 250.56 204.845C248.416 204.115 247.333 203.469 246.552 203.263C244.783 202.797 243.517 200.34 242.447 198.587C241.418 196.899 239.489 195.655 237.487 193.626C235.462 191.573 237.425 187.079 234.61 185.956C230.51 184.32 225.947 184.479 221.634 184.343C219.095 184.262 216.276 184.56 213.379 184.866C207.104 185.529 200.344 186.334 194.76 182.753C193.777 182.122 191.987 180.974 192.832 179.743C193.591 178.636 196.746 178.462 200.702 178.243C202.06 178.168 203.512 178.088 204.995 177.963C208.558 177.663 207.306 171.768 205.867 169.794C204.112 167.386 203.143 160.696 203.31 157.709C203.387 156.333 205.426 156.123 206.449 156.582C208.16 157.352 208.113 160.013 208.792 161.856C209.985 165.081 210.674 170.134 213.309 172.497C215.079 174.084 217.092 174.475 219.735 174.704C221.952 174.896 223.956 175.814 225.991 176.213C226.951 176.402 228.788 176.593 231.026 176.293C236.059 175.617 231.491 162.496 231.156 160.085C230.933 158.482 231.625 155.264 233.708 155.188C235.669 155.117 237.503 157.538 238.8 159.133C239.729 160.275 239.837 161.945 240.061 165.392C240.113 166.185 240.171 167.073 240.246 168.069C240.66 173.558 241.654 180.993 242.56 182.593C243.441 184.148 245.222 186.149 246.831 187.734C248.827 189.702 250.59 188.763 252.254 187.876C253.392 187.269 254.484 186.687 255.573 187.076C257.182 187.651 257.906 189.633 259.047 191.46C261.244 194.978 267.791 194.476 271.214 194.113C272.594 193.967 272.887 192.304 272.31 191.215C271.855 190.356 270.735 189.498 269.548 188.588C267.441 186.973 265.121 185.195 265.919 182.959C266.459 181.447 269.136 180.016 270.726 180.628C272.226 181.205 273.267 182.284 274.785 183.856C275.658 184.76 276.69 185.828 278.057 187.058C282.101 190.695 288.902 190.383 294.012 190.148L294.513 190.125C297.56 189.988 296.887 184.168 296.388 182.393C293.907 173.568 282.769 168.288 274.667 167.246C272.09 166.915 268.987 166.649 266.655 166.487C262.97 166.232 257.105 163.646 256.963 159.506C256.922 158.291 258.066 157.801 259.07 157.371C259.667 157.115 260.214 156.881 260.435 156.528C261.275 155.183 259.068 153.634 257.224 152.339C251.711 148.468 250.332 153.698 244.874 149.744C241.73 147.466 234.413 140.457 233.591 136.302C233.482 135.754 230.557 129.155 230.249 128.547C228.916 125.924 225.915 125.034 223.604 124.349C218.888 122.952 214.694 121.382 210.345 119.189C209.387 118.705 208.924 116.411 208.672 115.876C207.747 113.914 212.379 114.788 216.768 115.617C218.859 116.011 220.895 116.396 222.249 116.458C223.677 116.524 223.537 112.56 223.111 108.776C222.818 106.167 221.209 105.132 219.805 104.23C219.301 103.905 218.823 103.597 218.442 103.24C216.842 101.737 204.202 87.2733 208.791 85.2348C210.99 84.2582 213.025 88.6765 214.292 89.8668C216.863 92.2809 218.517 94.8814 221.711 96.5363C224.322 97.8894 225.649 91.9436 227.256 89.4607C228.864 86.9779 229.172 80.5639 232.137 82.7113C235.102 84.8591 230.533 90.3809 229.199 95.0777C227.426 101.322 225.4 116.175 230.827 120.138C231.581 120.688 232.934 120.619 234.245 120.424C234.874 120.331 239.398 119.387 239.846 118.264C241.084 115.159 240.146 112.577 240.045 109.336C239.943 106.095 240.86 105.798 241.538 105.234C243.727 103.416 244.364 106.313 245.008 112.425C245.652 118.537 246.563 119.205 244.808 123.44C243.789 125.9 241.059 127.504 240.901 129.669C240.713 132.248 243.659 138.521 245.359 140.799C246.81 142.744 257.273 146.978 258.864 143.547C260.491 140.04 260.1 134.546 259.858 131.149C259.742 129.513 259.66 128.363 259.855 128.156C262.2 125.66 264.65 131.47 265.589 132.928C269.821 139.497 267.6 148.115 267.925 155.414C268.061 158.475 276.488 155.735 278.243 155.728C280.719 155.718 281.446 158.804 282.352 160.404C284.159 163.594 289.91 165.012 293.213 165.653C300.493 167.063 300.462 151.661 300.35 148.005C300.267 145.28 297.577 143.425 295.719 141.151C294.089 139.157 291.938 136.928 290.257 135.117C288.178 132.877 285.136 132.175 282.313 131.331C279.71 130.553 277.565 128.536 275.431 127.282C273.2 125.969 271.53 124.14 270.902 121.609C269.845 117.345 275.768 119.902 279.553 121.536C281.061 122.187 282.23 122.691 282.48 122.558C284.467 121.501 284.861 119.307 285.055 112.961C285.133 110.441 284.606 97.9323 287.385 98.3587C295.814 99.6515 291.289 112.717 291.098 117.62C290.955 121.273 291.593 126.217 292.198 128.061C292.772 129.813 295.864 132.962 297.973 131.845C299.942 130.802 299.75 127.901 299.565 125.096C299.394 122.515 299.229 120.016 300.755 119.116C304.513 116.901 305.676 122.651 306.29 124.827C306.791 126.605 306.797 128.97 306.807 133.228C306.812 135.479 306.818 138.26 306.9 141.762C307.036 147.574 310.868 151.687 313.941 156.156C317.154 160.829 323.909 154.933 325.668 151.691C326.774 149.652 326.087 146.734 325.453 144.044C324.402 139.585 323.987 135.011 323.841 130.436C323.766 128.118 324.531 129.795 325.838 132.657C327.688 136.71 330.623 143.14 333.798 143.978C339.149 145.391 339.854 134.103 340.052 130.931L340.062 130.766C340.224 128.191 342.078 123.591 342.608 120.445C342.968 118.303 346.45 117.914 348.114 118.169C349.969 118.454 349.635 126.826 348.917 131.016C348.307 134.573 344.922 137.407 345.667 141.352C345.911 142.649 347.494 142.883 349.045 143.112C349.747 143.216 350.442 143.318 351.005 143.518C351.836 143.813 352.51 144.481 353.299 144.919C354.086 145.357 354.021 147.984 353.881 150.858C353.733 153.874 347.36 151.594 345.76 151.443C343.414 151.221 340.645 151.521 338.046 152.687C333.731 154.622 331.266 158.701 328.092 161.918C322.968 167.112 317.162 171.997 314.667 179.085C313.759 181.664 313.786 183.568 313.809 185.167C313.824 186.254 313.838 187.2 313.554 188.121C312.657 191.03 312.777 193.031 312.827 197.211C312.846 198.868 313.748 200.05 314.678 201.269C317.812 205.379 320.552 210.426 321.314 215.569C321.492 216.776 321.654 218.187 321.819 219.615C322.217 223.084 322.628 226.66 323.32 227.685C324.375 229.249 325.463 230.722 327.087 231.756C331.791 234.75 337.449 229.23 340.085 225.619C342.427 222.412 340.007 215.465 339.591 212.146C339.267 209.561 338.38 204.407 337.055 202.808C335.73 201.209 332.016 197.289 329.121 194.727C326.225 192.164 326.133 190.598 326.065 188.554C325.988 186.247 327.292 184.127 328.276 182.943C331.457 179.464 337.033 185.179 340.179 189.413C341.235 190.833 342.002 191.866 342.283 191.883C343.44 191.954 344.009 190.589 344.767 188.768C345.159 187.829 345.6 186.769 346.199 185.722C347.648 183.189 348.658 179.984 349.373 177.939C349.696 177.016 350.016 176.449 351.637 176.398C353.257 176.347 355.709 179.698 356.257 180.678L356.285 180.729C359.048 185.652 353.604 190.455 351.297 194.542C349.745 197.289 347.824 214.226 351.462 215.017C353.174 215.39 355.359 215.905 357.032 216.932C360.83 219.265 353.964 224.952 352.834 226.295C351.727 227.611 350.95 229.297 350.14 231.056L349.97 231.424C348.993 233.539 347.467 235.531 346.448 237.815C344.396 242.412 342.644 247.454 340.139 251.823C339.185 253.485 338.944 255.809 337.989 257.475C332.511 267.027 333.907 280.628 337.543 290.449C340.706 298.992 353.181 306.218 352.069 315.742C351.799 318.057 344.924 316.704 343.667 316.715C341.476 316.735 334.391 316.464 324.395 316.621C313.317 316.796 301.91 317.703 291.238 320.831C285.135 322.619 278.939 324.435 272.913 321.651C271.961 320.911 271.007 320.312 270.068 319.956C269.593 319.738 269.05 317.121 268.566 316.82ZM296.222 282.957C296.651 282.472 297.286 281.565 297.331 281.233C297.975 280.715 298.216 279.947 298.771 279.356C302.969 275.891 317.039 287.988 315.391 291.234C313.968 294.035 309.289 299.276 305.825 299.38C302.241 299.488 300.031 296.515 297.382 294.615C296.377 293.894 294.776 292.746 294.211 291.449C293.09 288.874 294.422 284.993 296.222 282.957Z" fill="#0F1628"/>
<path d="M386.377 232.425C386.307 233.723 386.289 237.524 384.968 236.839C381.693 235.139 366.916 216.395 366.554 216.8C364.421 219.185 363.72 222.407 366 225.177C366.721 226.053 373.258 233.045 371.35 233.646C370.767 233.83 364.22 237.776 364.435 238.447C362.631 242.558 378.152 237.843 381.444 247.646C381.8 250.705 383.309 257.61 383.471 260.559C383.821 266.895 376.36 294.437 366.068 290.507C362.314 289.073 353.651 283.316 352.431 279.375C351.664 276.898 349.661 266.466 346.464 270.145C330.81 288.163 369.348 301.553 361.028 314.98C359.985 316.664 374.711 321.998 375.258 318.153C376.455 309.744 387.726 303.617 386.832 295.015C386.576 292.559 386.583 288.709 386.819 287.702C388.013 282.599 391.086 282.28 393.753 278.079C394.404 277.054 396.771 272.879 397.642 272.553C400.04 271.655 402.052 270.962 404.057 270.457C405.475 270.1 408.806 267.138 409.303 265.911C411.83 259.67 410.867 254.834 404.563 260.709C403.773 261.444 396.866 267.077 395.442 265.45C392.034 261.557 395.225 250.796 398.348 246.92C401.102 243.502 404.316 241.302 407.885 238.88C410.487 237.113 428.611 228.307 423.92 223.279C421.927 221.143 416.697 222.675 414.992 224.537C412.752 226.982 409.28 232.884 405.082 230.936C403.252 230.088 405.142 222.594 405.141 221.246C405.127 206.463 400.047 187.722 411.512 176.189C414.896 172.784 419.591 168.428 414.669 163.93C413.804 163.139 410.542 159.488 409.154 161.82C408.453 162.998 404.838 173.314 402.262 167.297C398.963 159.593 404.3 150.758 402.329 143.051C401.937 141.518 399.314 136.408 397.276 137.514C392.413 140.155 399.212 150.622 394.203 153.93C392.877 154.806 390.069 156.078 388.879 154.449C388.305 153.663 381.372 146.398 380.743 151.126C379.965 156.96 391.142 166.199 394.42 170.886C398.359 176.521 393.009 188.922 392.547 194.938C392.143 200.202 392.17 202.575 392.451 203.044C394.394 206.296 397.217 211.292 397.024 215.166C396.903 217.601 395.34 220.911 392.39 219.679C389.97 218.668 378.86 195.285 378.198 195.841C368.735 203.788 386.841 223.829 386.377 232.425Z" fill="#0F1628"/>
<path d="M451.25 308.032C450.839 309.617 450.731 310.996 450.755 311.759C450.111 311.78 450.405 312.122 450.779 312.413C452.262 312.862 454.852 311.277 458.586 311.783C460.199 312.002 461.423 312.486 463.882 313.039C467.16 313.776 469.002 314.929 470.838 313.812C474.083 311.839 475.868 308.221 477.887 305.114C481.01 300.306 484.239 296.026 488.442 292.017C489.523 290.986 491.34 289.478 492.402 287.522C494.345 283.945 499.068 281.5 502.144 279.091C510.119 272.845 515.767 262.793 520.996 254.266C522.199 252.306 524.718 244.84 521.545 243.899C519.526 243.3 516.681 242.281 515.078 244.263C513.374 246.37 510.332 248.394 509.583 251.146C508.905 253.635 509.199 256.823 507.603 258.951C506.866 259.935 505.591 261.266 503.754 263.404C502.941 264.35 502.747 265.695 501.954 265.872C499.929 266.324 501.154 260.49 501.501 259.785C502.076 258.617 503.32 257.779 503.225 256.159C503.146 254.812 500.773 247.338 498.051 248.972C497.713 249.175 497.536 249.785 497.138 250.423C495.519 253.018 494.219 255.776 494.262 258.934C494.31 262.388 495.332 268.183 492.687 271.112C490.724 273.284 488.289 274.827 486.271 276.873C484.633 278.533 473.438 290.356 471.213 286.885C470.973 286.509 470.96 285.96 470.819 285.283C470.502 283.761 469.994 279.474 469.921 276.175C469.759 268.872 469.697 260.275 473.981 253.899C476.003 250.888 478.193 247.935 479.983 244.777C482.612 240.137 486.635 236.603 489.675 232.283C493.795 226.431 495.153 218.323 495.954 211.342C496.904 203.068 498.453 193.199 496.2 184.997C495.897 183.891 495.374 182.432 494.582 179.907C493.357 176.001 493.621 169.971 494.915 165.943C495.997 162.578 499.117 154.237 492.713 153.326C491.394 153.138 488.944 152.832 488.703 153.762C487.445 158.622 488.746 163.896 487.024 168.692C486.634 169.776 486.547 171.233 485.415 171.385C484.309 171.533 482.952 171.661 482.26 170.866C480.161 168.455 479.785 164.935 477.174 162.782C476.19 161.97 475.393 161.394 474.769 160.596C474.086 159.725 471.933 154.887 470.338 156.254C467.761 158.462 468.785 162.173 470.715 164.449C472.291 166.306 475.264 166.794 476.38 169.063C477.369 171.074 477.003 175.582 474.61 176.481C465.438 179.925 460.574 171.876 458.107 164.794C456.59 160.439 453.729 154.679 448.298 154.757C444.656 154.809 439.043 155.636 435.49 153.93C434.266 153.343 429.615 149.203 429.072 152.143C428.908 153.031 428.316 154.718 429.225 155.629C430.411 156.816 431.431 157.688 432.799 158.351C437.003 160.386 442.248 159.636 446.578 161.216C448.128 161.782 449.128 162.128 449.806 162.765C451.684 164.528 451.734 169.797 450.47 171.869C447.089 177.41 440.279 180.635 434.806 183.477C433.785 184.007 431.343 183.661 431.057 184.9C430.654 186.648 432.623 189.716 434.255 190.166C440.41 191.862 447.773 186.215 453.43 184.194C455.831 183.337 459.091 181.924 461.669 182.826C466.554 184.535 471.226 187.885 475.071 191.182C477.638 193.384 482.31 196.451 483.168 199.85C484.655 205.738 484.957 211.165 482.671 216.897C482.174 218.143 481.087 222.515 479.366 225.111C478.763 226.021 474.858 227.756 473.375 227.507C470.18 226.97 467.749 198.502 463.118 206.057C461.588 208.553 458.861 211.118 459.009 214.28C459.149 217.272 461.838 220.372 462.934 223.193C464.025 225.998 464.501 230.815 465.354 233.661C466.281 236.753 467.471 239.349 468.064 242.497C469.246 248.763 465.834 254.028 463.203 260.076C462.594 261.474 461.937 262.318 461.481 263.85C459.576 270.243 459.095 277.103 456.416 283.293C456.329 283.495 455.114 287.118 453.633 286.247C450.509 284.41 448.57 283.234 447.356 280.454C445.619 276.475 447.058 270.025 444.577 266.439C443.776 265.281 442.224 265.332 441.221 265.365L441.206 265.365C439.37 265.425 437.869 266.075 436.442 268.63C434.138 272.758 445.229 295.089 449.823 302.783C450.432 303.801 451.933 305.395 451.25 308.032Z" fill="#0F1628"/>
<path fill-rule="evenodd" clip-rule="evenodd" d="M567.732 257.888C568.356 255.666 569.607 253.485 571.051 250.031C577.475 234.662 547.457 225.26 538.273 220.879C533.057 218.392 529.055 212.677 525.693 208.166C524.438 206.482 521.533 188.792 524.607 188.65C526.25 188.574 527.177 191.506 528.091 193.341C531.123 199.431 534.59 202.661 540.943 205.119C547.436 207.632 552.277 212.321 558.404 215.276C561.025 216.54 573.509 230.647 576.422 228.367C578.395 226.823 578.64 222.792 579.824 220.507C580.984 218.268 576.34 215.579 574.565 213.231C571.519 209.201 567.346 206.029 564.128 202.075C557.828 194.332 547.807 191.504 541.677 183.622C536.821 177.377 533.449 168.557 533.736 160.619C534.146 149.263 549.416 180.516 550.05 181.33C551.286 182.919 553.746 183.078 558.616 182.854C563.014 182.651 562.315 175.005 564.9 172.574C566.682 170.898 569.93 175.168 570.228 176.658C571.081 180.921 569.74 183.191 569.288 186.144C568.049 194.239 578.588 215.261 589.421 212.602C597.804 210.545 585.921 200.139 584.492 198.491C578.042 191.049 579.036 172.554 585.844 165.247C588.361 162.546 597.045 177.105 598.671 178.566C600.194 179.935 601.919 180.637 602.468 180.855C606.009 182.26 602.375 170.245 601.164 168.648C593.75 158.867 576.427 163.759 567.03 160.95C559.547 158.714 556.548 150.336 549.856 147.527C547.947 146.726 545.343 146.894 543.224 146.262C532.727 143.133 521.778 142.312 512.281 136.531C510.166 135.244 508.949 134.227 508.021 134.254C503.977 134.371 506.549 145.44 505.482 147.359C503.428 151.054 498.05 145.846 497.004 144.146C495.922 142.387 493.38 142.166 491.479 140.983C485.823 137.463 480.841 133.157 475.741 128.911C474.305 127.716 472.854 125.749 471.037 124.791C469.456 123.958 467.053 123.594 464.858 123.123C460.263 122.137 449.313 114.163 451.044 108.276C451.131 107.978 467.429 113.962 469.751 113.972C471.373 113.979 472.422 112.415 473.402 111.612C480.81 105.54 462.308 87.1129 467.223 85.3588C480.264 80.7042 473.458 94.4952 479.522 98.9227C484.836 102.802 488.218 87.4322 492.146 85.9666C493.87 85.3236 494.482 92.1325 494.543 92.9418C495.384 104.136 477.517 111.878 480.809 122.614C482.021 126.568 492.673 132.012 496.676 131.666C509.995 130.515 493.941 113.736 498.052 111.07C505.284 106.38 510.135 123.919 513.931 127.705C523.482 137.229 522.359 117.749 521.316 113.056C520.934 111.341 519.225 110.795 519.119 109.946C518.791 107.309 524.329 106.943 525.678 106.941C533.385 106.931 530.09 118.074 532.667 121.61C534.112 123.593 537.877 132.132 541.387 130.264C549.643 125.871 547.718 111.164 547.225 103.336C546.966 99.209 521.492 101.053 519.978 99.9907C516.076 97.2536 513.839 93.1046 510.433 89.8981C504.351 84.1733 495.787 82.832 488.759 79.0177C487.067 78.0994 487.256 73.8824 488.395 72.6698C490.785 70.125 493.291 71.6683 495.41 73.7576C497.977 76.2895 502.622 77.7131 506.227 77.4603C518.297 76.6137 502.29 47.3224 506.374 45.1984C516.57 39.8969 516.368 76.5844 518.178 82.4281C523.061 98.2028 527.17 77.4211 529.072 76.2787C530.669 75.3198 532.459 77.948 533.996 79.9125C536.101 82.604 533.488 85.8177 533.321 87.9264C533.055 91.2943 540.674 84.034 541.324 83.7292C544.698 82.1479 546.922 84.168 548.804 84.7303C556.1 86.9107 555.268 73.5617 553.557 70.1617C551.959 66.9858 545.184 67.2217 542.191 66.3273C537.798 65.0143 535.623 60.1401 531.621 58.2052C529.273 57.07 527.436 55.7769 525.276 53.7574C524.132 52.6878 524.424 49.0675 524.845 45.3314C525.188 42.2793 532.649 45.5491 534.092 45.9466C539.666 47.4823 535.657 26.2115 535.59 24.2668C535.51 21.9084 546.895 24.4405 545.736 21.2357C544.125 16.7841 535.192 5.86449 540.683 1.30163C548.06 -4.8283 548.253 12.6078 549.38 13.9733C550.507 15.3381 552.118 17.4476 554.099 18.5582C559.324 21.4891 561.748 -0.289097 566.652 3.34957C572.999 8.05865 567.072 20.3791 568.634 26.8492C569.838 31.8371 578.488 18.8622 582.247 23.258C588.538 30.6135 574.692 36.7637 569.705 38.4686C558.091 42.4393 558.257 70.8329 563.194 78.5365C565.541 82.1982 571.037 75.1853 573.283 76.361C583.785 81.8588 565.835 103.119 561.411 107.829C557.039 112.484 554.312 133.864 562.21 136.276C564.968 137.118 564.964 132.819 565.779 131.287C569.233 124.794 574.083 145.647 575.023 146.654C576.258 147.977 587.477 149.105 588.832 146.696C592.251 140.622 580.869 130.304 577.589 126.654C574.548 123.27 572.045 117.898 571.887 113.337C571.809 111.071 577.325 115.685 577.632 116.012C578.946 117.407 579.045 118.995 579.908 119.433C583.308 121.16 575.42 99.8397 579.142 97.4356C586.348 92.7805 588.47 117.438 593.623 119.003C596.563 119.896 588.52 93.3352 588.128 89.4263C587.3 81.1715 587.903 74.9813 588.409 73.8043C593.121 62.8271 597.564 89.7267 597.944 91.022C598.43 92.6748 600.965 89.6281 601.227 89.3764C602.571 88.0831 604.291 90.559 604.86 91.4218C607.877 95.9942 606.063 105.317 604.533 110.436C602.302 117.899 601.489 127.868 604.524 135.101C605.78 138.093 610.761 138.872 613.697 138.389C622.789 136.896 613.503 116.314 611.704 111.549C611.074 109.88 611.283 108.067 610.935 104.38C609.649 90.7663 611.596 88.5161 611.741 85.6402C612.016 80.1889 617.122 85.1877 618.548 87.5792C624.471 97.5187 615.713 123.115 628.003 129.483C630.532 130.793 629.496 118.013 629.328 117.041C628.908 114.61 627.85 112.057 627.312 109.659C626.759 107.197 623.609 91.5854 627.275 91.4265C637.725 90.9736 632.257 108.103 637.109 110.736C639.817 112.205 639.616 110.605 641.413 109.445C643.02 108.406 645.059 110.926 645.761 112.01C648.191 115.765 642.171 119.693 640.111 121.96C634.092 128.584 646.421 138.068 650.866 141.403C655.867 145.156 657.136 151.15 657.723 157.006C658.049 158.653 658.614 160.212 659.193 161.781C659.797 162 661.342 161.92 662.067 162.138C664.292 162.808 662.424 153.337 662.122 152.188C659.898 143.723 661.355 134.674 658.437 126.454C657.783 124.613 657.008 122.961 656.658 117.589C655.344 97.4186 638.299 81.5602 626.99 66.3866C623.764 62.0582 615.814 54.0635 618.664 47.8722C621.537 41.6289 625.59 56.4442 628.319 57.5177C632.385 59.1177 630.087 44.9898 630.986 45.021C635.235 45.1685 635.285 52.2327 636.341 54.983C638.279 60.0321 637.567 67.0519 641.287 71.2642C649.628 80.709 648.705 58.645 647.753 55.4187C647.027 52.9555 640.765 40.9792 644.242 39.3317C653.972 34.7226 650.116 50.7658 656.73 51.1717C657.999 51.2496 658.037 48.7988 659.222 46.545C660.672 43.7885 662.034 42.4337 663.334 41.8495C666.697 40.339 668.27 47.6779 668.555 49.4731C669.343 54.4249 664.497 56.8415 662.862 60.9888C661.124 65.3955 670.352 92.2579 674.036 90.5747C676.863 89.2831 675.036 82.8936 674.045 80.9825C671.991 77.0238 672.444 69.145 676.09 66.0996C682.134 61.0519 683.595 81.4942 683.407 83.1324C683.064 86.1215 682.903 88.0639 682.537 89.8206C680.889 97.7311 674.931 103.17 672.334 110.593C670.986 114.444 672.013 119.932 673.283 123.759C673.759 125.194 676.045 125.948 678.395 128.271C699.667 149.292 697.504 171.526 698.197 199.047C699.148 236.902 700.143 274.729 700.797 312.595C701.016 325.251 700.66 325.263 700.174 325.1C689.754 321.603 678.847 322.115 667.983 322.625L667.867 322.631C636.367 324.109 604.959 327.436 573.518 329.727C567.208 330.187 560.004 332.318 553.769 330.648C550.639 329.81 547.394 329.952 545.856 328.921C541.936 326.293 527.607 316.487 530.719 311.158C536.537 308.377 529.625 295.32 527.478 292.268C524.93 288.646 517.747 274.042 522.127 270.403C528.532 265.082 530.194 277.171 532.211 280.313C534.951 284.583 541.119 288.649 545.495 290.915C554.001 295.32 554.742 281.51 554.91 276.831C555.299 265.986 565.375 266.294 567.732 257.888ZM640.886 156.771C641.86 157.839 643.778 159.789 644.104 160.323C645.409 163.315 646.148 177.521 640.188 176.806C634.26 176.095 623.671 177.259 620.972 169.798C618.361 162.581 636.282 149.573 640.886 156.771ZM548.862 31.4565C552.935 30.5822 558.042 35.375 556.588 39.3952C556.123 44.2826 555.453 48.6664 551.896 52.3296C550.286 53.9874 544.471 56.1432 544.337 51.7513C544.257 49.11 545.621 47.8439 546.333 45.4536C547.2 42.5399 544.695 32.3512 548.862 31.4565Z" fill="#0F1628"/>
<path d="M128.255 328.725C127.446 330.545 126.986 333.442 126.742 334.573C126.498 335.704 124.951 335.91 124.585 336.062C123.801 336.425 123.353 337.338 122.502 337.572C116.216 339.294 109.339 338.958 102.948 340.348C99.1087 341.184 95.1962 342.022 91.2704 342.249C84.7418 342.627 78.2802 341.775 71.7786 341.4C65.9702 341.064 60.1348 340.733 54.3206 340.527C51.7477 340.436 48.9731 340.786 46.4303 340.285C44.8878 339.982 42.1084 338.644 39.8415 337.657C35.0031 335.549 28.9469 331.989 27.3419 326.46C25.775 321.062 25.6303 311.28 21.5507 306.845C16.5029 301.359 16.3 304.171 10.0643 299.632C7.76117 297.956 5.73837 287.596 2.9955 286.544C-0.479404 285.21 -1.26549 276.21 2.42907 276.103C9.30654 275.904 11.1893 285.022 16.1989 288.41C17.0463 288.983 17.6258 289.718 18.4955 290.038C20.617 290.818 19.9278 285.264 19.8504 284.594C18.9866 277.116 15.3212 269.731 17.7985 262.056C18.1813 260.871 18.2529 258.486 19.9147 258.257C21.2225 258.077 22.9615 258.11 23.6596 258.622C24.9986 259.604 25.9505 261.315 26.3776 262.909C27.8776 268.509 30.5344 274.434 29.2442 280.36C28.5839 283.392 28.4635 286.405 28.4303 289.513C28.3375 298.222 38.4774 337.473 52.3303 316.258C53.5489 314.392 52.6892 310.918 52.6892 307.511C52.4734 305.08 52.9126 301.475 52.536 300.566C51.4619 298.414 51.2654 295.841 50.089 293.685C48.7177 291.172 46.7624 288.597 46.7375 285.637C46.7076 282.077 46.6133 279.629 46.5254 279.168C45.4973 273.77 42.6578 269.716 40.9055 264.712C39.7656 261.457 40.272 257.181 41.5734 254.029C42.1062 252.739 48.8668 242.692 51.2735 244.196C55.4552 246.808 53.828 249.633 52.3303 253.002C50.8327 256.372 50.1707 259.453 50.089 262.056C49.8146 270.8 53.3961 283.437 57.5243 291.368C58.6082 293.451 59.5963 296.034 61.3344 297.648C61.4926 297.795 64.0546 300.386 64.4121 299.632C65.4467 297.454 67.2299 295.257 67.373 292.827C67.7195 286.943 69.5341 281.286 70.4236 275.488C70.9495 272.06 73.3235 268.01 72.9934 264.712C72.6717 261.497 69.6586 259.004 68.6092 255.871C67.5142 252.601 64.8024 246.492 67.373 243.287C68.6334 241.715 72.6183 242.36 74.2944 243.05C77.3352 244.3 79.6051 250.882 83.3556 249.143C87.1423 247.387 85.5671 238 85.8298 234.564C86.1493 230.386 88.4473 226.725 89.8493 222.854C90.2099 221.858 90.1657 221.068 90.6649 220.622C91.9695 219.457 93.303 218.205 94.7451 217.212C95.713 216.545 96.9484 214.238 98.3395 214.347C99.4839 214.437 101.434 215.069 101.785 216.32C102.779 219.871 98.3724 225.913 96.4249 228.584C95.6155 229.694 94.4381 230.511 94.0513 231.714C93.5314 233.331 92.0835 240.361 95.0199 240.846C99.1271 241.524 103.136 236.688 106.436 235.037C107.65 234.43 108.994 233.789 110.023 232.816C110.985 231.904 112.076 229.915 113.712 229.386C116.186 228.587 115.81 235.272 114.967 236.155C111.909 239.354 107.963 241.649 104.557 244.431C97.8455 249.913 93.6382 255.94 88.3901 262.856C87.4306 264.12 86.798 265.838 85.8149 267.246C84.2501 269.486 82.5245 272.555 81.8224 275.175C81.1788 277.578 80.2489 284.87 84.3583 285.413C90.4513 286.218 99.0414 276.823 101.069 272.421C102.366 269.606 106.323 250.718 110.629 254.071C114.92 257.411 112.465 269.127 110.674 273.404C108.939 277.55 106.31 282.234 102.789 285.113C97.8738 289.133 91.5165 291.865 87.0259 296.167C84.6975 298.397 82.5445 300.324 79.5473 301.616C77.244 302.61 73.1586 302.802 72.3765 305.807C71.9752 307.349 72.1864 315.717 75.5155 314.737C76.7296 314.379 77.625 313.252 78.6485 312.411C82.5996 309.165 87.7974 302.727 93.3041 303.129C97.8856 303.464 89.7551 322.68 98.6061 322.662C101.068 322.657 105.063 321.683 106.688 319.679C107.547 318.619 108.048 317.557 109.113 315.639C111.176 311.923 114.013 308.399 113.96 303.918C113.918 300.311 110.189 281.393 117.909 284.353C128.112 288.265 121.548 305.869 117.898 312.673C117.139 314.089 115.377 318.518 117.198 319.584C119.713 321.055 125.114 311.026 125.786 309.175C128.252 302.384 130.647 292.293 135.89 287.074C136.752 286.215 137.589 284.635 139.13 284.704C141.5 284.81 143.744 284.483 143.822 286.025C144.064 290.822 140.673 294.08 137.954 297.582C136.74 299.147 135.279 300.228 135.331 301.727C135.483 306.147 138.223 309.351 142.207 305.698C144.813 303.31 149.034 293.735 153.928 298.639C158.438 303.158 147.446 313.084 144.372 315.194C142.894 316.208 138.796 316.45 137.045 317.617C133.047 320.279 130.194 324.365 128.255 328.725Z" fill="#0F1628"/>
</svg>
