<svg xmlns="http://www.w3.org/2000/svg" width="237" height="274" fill="none" viewBox="0 0 237 274"><path fill="#210a4f" d="M69.232 134.201c.574-.967 2.815-1.64 2.95-3.673.219-3.255-6.617-3.851-7.094-1.932-1.17 4.702-3.614 19.07-10.823 14.756-2.878-1.723 1.177-25.307 4.153-28.345 1.305-1.332 8.136-6.62 4.352-9.229-2.599-1.792-7.227 5.054-8.87.624-.473-1.276-3.155-6.188-4.727-3.282-4.626 8.551-4.831 24.57-4.947 33.623l-.003.186c-.122 9.541 9.318 26.442 1.87 34.739-1.483 1.651-7.546 6.699-9.845 4.688-4.821-4.218-6.631-11.359-13.699-12.893-1.569 1.365-3.016 2.388-4.668 3.976-1.356.153-4.807-2.392-7.067-1.099-20.36 11.654-6.937 107.487-.296 107.187 5.62-.254 16.073-19.473 19.11-23.566 3.854-5.196 13.318-12.212 10.655-19.763-2.26-6.408-5.638-11.938-2.34-18.754 5.999-12.397 10.544-15.327 22.235-21.455 2.795-1.465 14.128-2.985 14.282 2.502.14 4.993.366 9.216 1.117 11.385 2.88 8.319 15.79 10.978 13.502 21.493-.869 3.991-14.162 7.551-12.92 11.317 1.132 3.435 6.717 4.874 9.063 7.326 1.809 1.89 8.074 14.738 10.392 13.41 7.29-4.175 15.443-16.984 25.559-16.238 4.557.336 53.509 13.651 52.91 10.22-.616-3.534-17.119-14.217-14.246-14.369 7.188-.38 20.519-6.88 23.855-13.917.892-1.883-.664-6.183 1.655-6.552 7.888-1.257 19.648-6.753 26.773-.432 1.772 1.573 12.466 10.779 13.971 5.633 1.681-5.744-2.766-13.739-8.299-15.708-17.013-6.054 19.123-7.466 19.08-7.927-.599-6.359-36.843-7.094-16.592-12.426 4.437-1.168 17.174.241 16.002-7.472-.661-4.347-22.213-2.336-23.571-.917-4.808 5.025-13.346 30.532-24.18 22.833-4.733-3.362 11.338-17.591 2.687-18.813-11.099-1.568-5.347 17.265-15.379 19.766-11.791 2.94 9.24-30.714-6.704-27.259-6.758 1.464-5.46 33.149-5.016 37.264.503 4.657 2.602 8.229-.126 9.683-7.371 3.928-31.477 12.957-34.863-1.595-.831-3.57-.407-10.141-1.951-11.46-4.577-3.907-18.168 29.516-21.722 17.868-2.818-9.236 9.744-22.525 17.521-25.943 1.824-.802 12.269 2.061 12.963-2.55.478-3.175.864-6.414.031-6.398-2.324.046-13.16 2.561-11.638-2.958.323-1.172 6.03-6.931 1.955-7.539-14.999-2.24-9.413 19.769-20.584 22.015-5.542 1.114-29.556-5.14-20.95-16.058 3.461-4.391 8.815-8.16 14.64-7.975 7.183.227 17.004 1.855 23.163-3.071 2.317-1.853 25.438-18.061 24.899-10.689-.337 4.619-2.676 6.641-2.822 8.827-.304 4.545 5.72 2.917 7.662 1.129 7.999-7.365 18.972-4.412 29.689-11.718 1.685-1.149 3.342-3.883 5.91-3.798 5.699.188 10.22 3.923 15.876 3.846 3.143-.043 2.812-5.908.842-7.292-3.913-2.749-9.671-1.676-13.025-4.825-2.065-1.938.896-4.518 2.956-4.514 2.235.005 14.921.356 10.747-5.906-2.419-3.628-15.615 3.474-15.788-.299-.398-8.662 24.763-6.257 16.912-15.334-1.325-1.532-3.636-3.569-5.757-3.024-1.536.394-9.072 4.167-9.009 2.553.239-6.167 9.68-12.057 5.064-18.982-1.832-2.748-6.16-1.454-7.557.992-2.968 5.195-2.996 14.315-8.514 17.799-3.56 2.247-2.55-7.406-3.417-8.62-1.48-2.071-4.874-7.964-8.341-5.651-2.583 1.723 1.369 21.968 2.229 22.966 2.188 2.539 7.653 4.839 7.285 8.571-.652 6.611-.238 12.907-2.989 14.549-11.236 6.703-22.861 1.784-16.243-11.406 1.424-2.837 6.055-4.222 5.531-7.966-.374-2.673-4.701-7.311-7.427-5.59-7.705 4.863-14.164 30.965-29.615 22.363-2.131-1.186-1.838-12.295 1.086-12.508 2.808-.204-5.369-11.596-12.329.479-.828 1.438-2.669 9.327-5.44 7.788-5.396-2.998-13.885-14.261-6.538-19.988 7.513-5.856 21.974-3.888 31.054-7.228 4.85-1.785 6.073-7.876 10.478-10.062l.358-.177c9.323-4.626 18.022-8.942 28.553-10.077 5.149-.554 13.493-.543 14.568-2.675.282-.557.605-3.256-.629-3.076-8.269 1.203-16.268-.891-24.452-.406-1.623.097-14.578 2.78-14.698 2.23-.495-2.253 2.244-10.319 4.631-10.476 1.678-.11 18.852.727 11.864-7.26-2.671-3.052-12.433 4.061-14.26-1.702-.36-1.136-1.402-10.862-4.057-7.886-9.067 10.165-3.998 50.733-11.405 39.302-3.609-5.569.688-24.202-6.114-26.206-11.06-3.259 3.201 27.72-6.598 27.41-4.741-.149-9.985-1.241-13.813-4.296-1.749-1.395-3.173-3.872-5.287-3.67-3.398.325-5.206 5.065-9.096 2.466-3.821-2.551-1.27-18.9 4.515-18.935 7.633-.047 9.608-.455 12.761-2.296 5.419-3.164 8.973-9.194 14.283-12.743 1.596-1.066 4.385-.635 5.548-2.305 1.219-1.75 1.257-8.155-2.26-7.338-2.069.48-7.928 5.686-8.935.354-1.288-6.825 7.874-14.474-2.937-18.866-2.974-1.208-3.851 5.858-3.96 7.212-.582 7.166-.294 17.927-6.386 23.226-1.932 1.68-10.605 2.07-10.638-1.72-.045-5.232.267-7.846-1.573-9.732-1.415-1.45-4.11-2.589-4.541-4.635-2.954-14 18.75-17.127 15.939-35.696-3.756-24.818-17.707 24.981-21.143 10.982-2.154-8.774 8.728-23.618-.028-31.252-1.034-.902-4.967-2.455-5.369-.115C79.68 7.803 82.85 39.8 76.612 41.895c-7.875 2.644-10.816-17.81-15.874-11.937C53.14 38.781 71.193 50.543 76.28 54.97c8.319 7.239 9.766 19.682 9.817 30.629.005 1.086 3.068 17.291-2.123 14.185-3.443-2.06-2.444-9.486-5.825-10.217-1.158-.251-2.524 1.33-4.435.864-11.234-2.736 4.272-27.288-6.097-31.023-3.621-1.303-.78 27.852-9.55 18.237-1.099-1.206-8.176-14.163-10.607-9.188-5.237 10.717 14.075 22.865 19.627 28.939 1.486 1.625 5.345 1.3 5.904 4.422 1.892 10.565 31.046 47.913 15.31 58.27-1.918 1.262-5.797 5.165-8.032 1.777-10.744-16.288-8.306 19.654-17.323 13.877-9.938-6.367-6.955-16.884 2.105-24.111.497-.397 21.77-10.006 12.647-12.506-1.895-.52-10.978-.691-8.466-4.923"/></svg>