<svg xmlns="http://www.w3.org/2000/svg" width="307" height="71" fill="none" viewBox="0 0 307 71"><path stroke="url(#a)" stroke-width=".3" d="M305.812 43.988c-33.742.201-39.863 14.368-69.713 25.93m69.758-27.56c-35.976-.529-42.314 15.14-74.428 27.56m74.458-28.633c-37.139-1.15-42.336 15.426-78.202 28.633m78.235-29.833c-38.277-1.477-44.626 16.346-79.233 29.833m79.271-31.18c-38.575-1.458-48.905 17.347-83.663 31.18m83.708-32.802c-39.851-2.29-50.537 17.787-89.781 32.802m89.814-33.987c-40.705-1.884-57.529 19.356-92.555 33.987m92.585-35.08c-40.111-2.324-56.691 18.987-99.525 35.08m99.542-35.69c-42.825-2.39-64.144 20.182-102.356 35.69m92.42-37.156c-35.635.435-55.49 19.959-99.622 37.156m99.622-37.156c3.191.01 6.505.157 9.964.457m-9.964-.457c3.186-.039 6.499.075 9.967.356m-9.967-.356c-32.916-.094-52.782 14.588-84.851 29.639m0 0c-5.026 2.584-10.374 5.121-16.189 7.517m16.189-7.518a324 324 0 0 1-17.238 7.518m17.238-7.518c32.186-16.55 51.137-35.008 94.845-30.25m.015-.567c-53.979-6.427-72.152 20.18-114.349 38.335m114.37-39.081c-57.85-6.802-79.96 22.35-115.274 39.08m115.295-39.839c-59.116-6.625-85.591 23.422-118.085 39.84M2.393 26.248C18.291 11.817 39.382 4.606 62.112.48M1.613 28.5C19.764 10.538 44.88 3.816 72.113.292M.987 30.747C21.984 8.402 52.546 3.996 88.113.411M.707 32.247C24.653 6.408 62.108 5.52 106.613.47M.329 34.538c3.38-3.652 7.101-6.771 11.16-9.464m0 0C35.525 9.126 71.411 8.142 118.584.247M11.489 25.074A66.8 66.8 0 0 0 .113 35.043m11.376-9.97C34.749 8.903 68.126 6.577 110.113.357M.156 36.747C27.532 7.57 78.138 10.476 132.113.491M.138 38.247C27.068 7.534 75.042 14.848 138.113.311m-138 40.127C30.943 4.808 87.702 16.98 148.613.31M.398 43.247c31.06-39.06 78.409-21.15 149.715-42.97M.875 45.747C35.153 3.734 84.006 25.907 155.514.247m-154.18 48C36.104 5.38 74.582 27.51 143.185 5.388m0 0q2.808-.905 5.683-1.911m-5.683 1.911C71.407 29.26 37.988 6.658 2.041 49.748m141.144-44.36A280 280 0 0 0 157.613.14M2.432 50.948C42.817 4.262 79.749 34.082 159.865.248m-156.76 52.5C46.016 5.638 79.31 37.367 161.739.246"/><path stroke="#fff" stroke-opacity=".32" stroke-width=".3" d="M305.812 43.988c-33.742.201-39.863 14.368-69.713 25.93m69.758-27.56c-35.976-.529-42.314 15.14-74.428 27.56m74.458-28.633c-37.139-1.15-42.336 15.426-78.202 28.633m78.235-29.833c-38.277-1.477-44.626 16.346-79.233 29.833m79.271-31.18c-38.575-1.458-48.905 17.347-83.663 31.18m83.708-32.802c-39.851-2.29-50.537 17.787-89.781 32.802m89.814-33.987c-40.705-1.884-57.529 19.356-92.555 33.987m92.585-35.08c-40.111-2.324-56.691 18.987-99.525 35.08m99.542-35.69c-42.825-2.39-64.144 20.182-102.356 35.69m92.42-37.156c-35.635.435-55.49 19.959-99.622 37.156m99.622-37.156c3.191.01 6.505.157 9.964.457m-9.964-.457c3.186-.039 6.499.075 9.967.356m-9.967-.356c-32.916-.094-52.782 14.588-84.851 29.639m0 0c-5.026 2.584-10.374 5.121-16.189 7.517m16.189-7.518a324 324 0 0 1-17.238 7.518m17.238-7.518c32.186-16.55 51.137-35.008 94.845-30.25m.015-.567c-53.979-6.427-72.152 20.18-114.349 38.335m114.37-39.081c-57.85-6.802-79.96 22.35-115.274 39.08m115.295-39.839c-59.116-6.625-85.591 23.422-118.085 39.84M2.393 26.248C18.291 11.817 39.382 4.606 62.112.48M1.613 28.5C19.764 10.538 44.88 3.816 72.113.292M.987 30.747C21.984 8.402 52.546 3.996 88.113.411M.707 32.247C24.653 6.408 62.108 5.52 106.613.47M.329 34.538c3.38-3.652 7.101-6.771 11.16-9.464m0 0C35.525 9.126 71.411 8.142 118.584.247M11.489 25.074A66.8 66.8 0 0 0 .113 35.043m11.376-9.97C34.749 8.903 68.126 6.577 110.113.357M.156 36.747C27.532 7.57 78.138 10.476 132.113.491M.138 38.247C27.068 7.534 75.042 14.848 138.113.311m-138 40.127C30.943 4.808 87.702 16.98 148.613.31M.398 43.247c31.06-39.06 78.409-21.15 149.715-42.97M.875 45.747C35.153 3.734 84.006 25.907 155.514.247m-154.18 48C36.104 5.38 74.582 27.51 143.185 5.388m0 0q2.808-.905 5.683-1.911m-5.683 1.911C71.407 29.26 37.988 6.658 2.041 49.748m141.144-44.36A280 280 0 0 0 157.613.14M2.432 50.948C42.817 4.262 79.749 34.082 159.865.248m-156.76 52.5C46.016 5.638 79.31 37.367 161.739.246"/><defs><linearGradient id="a" x1="163.527" x2="-.647" y1="-16.372" y2="75.952" gradientUnits="userSpaceOnUse"><stop offset=".225" stop-color="#e091be" stop-opacity=".78"/><stop offset=".521" stop-color="#726dd8"/><stop offset="1" stop-color="#e0be91" stop-opacity=".69"/></linearGradient></defs></svg>