<svg width="2081" height="1551" viewBox="0 0 2081 1551" fill="none" xmlns="http://www.w3.org/2000/svg">
<g opacity="0.3" filter="url(#filter0_f_457_33)" style="mix-blend-mode:overlay">
<path d="M1638.82 18.2669L67.1226 1032.56L21.2445 1182.02L1719.37 17.0289L1638.82 18.2669Z" fill="white" fill-opacity="0.48"/>
<path d="M1913.06 27.0174L1739.5 29.6848L51.0225 1201.14L24.1803 1373.04L1913.06 27.0174Z" fill="white" fill-opacity="0.48"/>
<path d="M17.4489 935.059L1497.73 79.1203L1476.14 79.4521L16.8407 895.49L17.4489 935.059Z" fill="white" fill-opacity="0.48"/>
<path d="M736.147 1421.64C1015.59 1083.97 2009.68 91.3082 2017.41 85.4784L2025.99 119.776L882.402 1474.98L736.147 1421.64Z" fill="white" fill-opacity="0.48"/>
<path d="M964.139 1496.41L2034.33 152.459L2061.9 172.093L1045.1 1532.63L964.139 1496.41Z" fill="white" fill-opacity="0.48"/>
<path d="M45.6829 1204.85L51.0225 1201.14M51.0225 1201.14L1739.5 29.6848L1913.06 27.0174L24.1803 1373.04L51.0225 1201.14ZM67.1226 1032.56L1638.82 18.2669L1719.37 17.0289L21.2445 1182.02L67.1226 1032.56ZM1497.73 79.1203L17.4489 935.059L16.8407 895.49L1476.14 79.4521L1497.73 79.1203ZM2017.41 85.4784C2009.68 91.3082 1015.59 1083.97 736.147 1421.64L882.402 1474.98L2025.99 119.776L2017.41 85.4784ZM2034.33 152.459L964.139 1496.41L1045.1 1532.63L2061.9 172.093L2034.33 152.459Z" stroke="white" stroke-opacity="0.74" stroke-width="9"/>
</g>
<defs>
<filter id="filter0_f_457_33" x="2.86102e-06" y="0.000781059" width="2080.56" height="1550.51" filterUnits="userSpaceOnUse" color-interpolation-filters="sRGB">
<feFlood flood-opacity="0" result="BackgroundImageFix"/>
<feBlend mode="normal" in="SourceGraphic" in2="BackgroundImageFix" result="shape"/>
<feGaussianBlur stdDeviation="6.15" result="effect1_foregroundBlur_457_33"/>
</filter>
</defs>
</svg>
