<svg width="699" height="189" viewBox="0 0 699 189" fill="none" xmlns="http://www.w3.org/2000/svg">
<path d="M461.472 65C466.723 65 471.496 66.3076 475.791 68.9227C480.124 71.5005 483.575 74.9936 486.145 79.4019C488.715 83.7729 490 88.6296 490 93.972C490 99.3143 488.715 104.19 486.145 108.598C483.575 112.969 480.124 116.462 475.791 119.077C471.496 121.692 466.723 123 461.472 123C456.222 123 451.431 121.692 447.099 119.077C442.803 116.462 439.37 112.969 436.8 108.598C434.267 104.19 433 99.3143 433 93.972C433 88.6296 434.267 83.7729 436.8 79.4019C439.37 74.9936 442.803 71.5005 447.099 68.9227C451.431 66.3076 456.222 65 461.472 65ZM481.023 113.866C482.455 112.409 483.52 110.709 484.217 108.766C484.915 106.786 485.264 104.694 485.264 102.49C485.264 98.9034 484.401 95.1488 482.675 91.2261C480.95 87.3034 478.416 83.6235 475.075 80.1865C471.698 76.7868 468.081 74.209 464.226 72.4531C460.371 70.6599 456.681 69.7633 453.157 69.7633C450.954 69.7633 448.898 70.1182 446.988 70.828C445.079 71.5378 443.409 72.6212 441.977 74.0782C440.545 75.5726 439.48 77.2911 438.783 79.2338C438.085 81.1765 437.736 83.2686 437.736 85.5102C437.736 89.0966 438.599 92.8512 440.325 96.7739C442.05 100.659 444.584 104.32 447.925 107.757C451.302 111.157 454.919 113.754 458.774 115.547C462.629 117.303 466.319 118.181 469.843 118.181C472.046 118.181 474.102 117.826 476.012 117.116C477.921 116.406 479.591 115.323 481.023 113.866Z" fill="white"/>
<path d="M504.175 101.069V78.0947C504.175 74.9651 503.178 72.3143 501.183 70.142C499.187 67.9329 496.793 66.8284 494 66.8284V66H517.182V66.8284C514.355 66.8284 511.944 67.9329 509.949 70.142C507.987 72.3143 507.006 74.9651 507.006 78.0947V91.1282C507.721 95.5 507.83 96.3218 508.229 97.5C510.358 102.581 510.876 104.125 514.401 108.138C517.792 112.372 521.916 115.318 526.771 116.974C527.935 117.379 528.343 117.5 529.574 117.5C531.502 117.353 532.784 116.436 534.148 115C535.777 113.159 537.823 109.427 538.721 107.034C539.652 104.604 540.269 101.225 540.269 98.5V73.7317C540.269 73.5477 540.253 73.382 540.219 73.2347C540.02 71.3938 539.321 69.8659 538.124 68.6509C536.961 67.4359 535.547 66.8284 533.885 66.8284H533.835V66H556V66.8284H555.95C554.221 66.8284 552.741 67.5095 551.511 68.8718C550.281 70.1972 549.632 71.8541 549.566 73.8422V114.268C549.665 116.22 550.314 117.858 551.511 119.183C552.741 120.509 554.221 121.172 555.95 121.172H556V122H546.604C544.775 122 543.212 121.245 541.915 119.736H541.865C541.799 119.625 541.732 119.515 541.666 119.404L541.516 119.239C541.483 119.165 541.45 119.11 541.416 119.073C541.35 118.999 541.317 118.944 541.317 118.907C541.283 118.834 541.233 118.76 541.167 118.686C541.134 118.576 541.067 118.447 540.967 118.3C540.901 118.116 540.818 117.913 540.718 117.692C540.652 117.471 540.568 117.214 540.469 116.919C540.336 116.33 540.269 115.741 540.269 115.152V108C538.721 111.5 536.931 115.502 533.639 118.3C530.347 121.061 527.419 122 523.129 122C518.84 122 515.049 120.619 511.757 117.858C508.465 115.06 506.204 111.452 504.973 107.034C504.441 105.082 504.175 103.094 504.175 101.069Z" fill="white"/>
<path d="M643.203 77.1015V100.089C643.203 102.115 643.47 104.104 644.004 106.057C645.237 110.477 647.505 114.088 650.806 116.887C654.107 119.65 657.908 121.032 662.21 121.032C666.511 121.032 669.447 120.092 672.748 117.329C676.05 114.53 677.844 110.526 679.396 107.024V114.18C679.396 114.769 679.463 115.358 679.597 115.948C679.697 116.243 679.78 116.5 679.847 116.722C679.947 116.943 680.03 117.145 680.097 117.329C680.197 117.477 680.263 117.606 680.297 117.716C680.364 117.79 680.414 117.863 680.447 117.937C680.447 117.974 680.48 118.029 680.547 118.103C680.58 118.14 680.614 118.195 680.647 118.269L680.797 118.435L680.997 118.766H681.047C682.748 122.358 689.934 122.216 691.334 121.776C691.585 121.697 692.001 121.427 692.521 121.032C692.847 120.783 693.213 120.486 693.605 120.156C695.159 118.845 697.104 117.017 698.457 115.704C697.608 116.411 695.903 117.486 693.138 118.435C689.531 119.672 688.934 115.524 688.718 113.295V72.8466C688.785 70.8574 689.435 69.1996 690.669 67.8734C691.903 66.5104 693.387 65.8289 695.121 65.8289H695.171V65H672.944V65.8289H672.994C674.662 65.8289 676.079 66.4367 677.246 67.6524C678.446 68.8681 679.146 70.3969 679.346 72.2388C679.38 72.3862 679.396 72.5519 679.396 72.7361V97.5184C679.396 100.244 678.778 103.625 677.844 106.057C676.944 108.451 674.892 112.186 673.258 114.028C671.891 115.464 670.606 116.382 668.672 116.529C667.438 116.529 667.028 116.408 665.861 116.003C660.993 114.345 656.858 111.398 653.457 107.162C650.148 103.402 649.481 101.809 647.658 97.4485C647.534 97.1516 647.405 96.8419 647.269 96.5178C646.911 95.4647 646.786 94.6961 646.252 91.4256C646.188 91.0351 646.118 90.609 646.042 90.1424V77.1015C646.042 73.9702 647.026 71.3178 648.993 69.1444C650.994 66.934 653.411 65.8289 656.245 65.8289V65H633V65.8289C635.801 65.8289 638.202 66.934 640.202 69.1444C642.203 71.3178 643.203 73.9702 643.203 77.1015Z" fill="white"/>
<path d="M584.829 114.384V90.017V89.1187V72.2427C584.829 70.2215 584.111 68.5184 582.676 67.1335C581.24 65.7112 579.522 65 577.52 65H568V65.8983H568.057C570.059 65.8983 571.778 66.6095 573.213 68.0318C574.649 69.4167 575.366 71.1011 575.366 73.0849V114.272C575.366 116.293 574.649 118.015 573.213 119.437C571.778 120.822 570.059 121.514 568.057 121.514H568V122.413H592.195V121.514H592.139C590.137 121.514 588.437 120.841 587.039 119.493C585.641 118.108 584.905 116.405 584.829 114.384Z" fill="white"/>
<path d="M594.292 89.1187H584.829V90.017C588.493 90.1565 596.457 90.1722 598.995 89.1187C599.524 88.9689 600.034 88.7818 600.525 88.5572C601.281 88.2578 602.017 87.9022 602.735 87.4905C603.453 87.0787 604.133 86.6109 604.775 86.0868C605.455 85.6002 606.078 85.0762 606.645 84.5148C607.249 83.9533 607.797 83.3544 608.288 82.7181C608.817 82.0444 609.289 81.3707 609.705 80.6969C610.12 79.9857 610.498 79.2559 610.838 78.5073L611.405 77.1598V77.0475C611.745 76.0743 612.028 75.1198 612.255 74.1841C612.519 73.2109 612.934 72.2564 613.501 71.3207C613.917 70.6469 614.408 70.0293 614.974 69.4679C615.541 68.9064 616.164 68.4011 616.844 67.952C618.204 67.0537 619.715 66.4548 621.377 66.1553C621.868 66.0805 622.36 66.0243 622.851 65.9869H623.361V65.0886H610.725V76.2053C610.573 76.7668 610.385 77.3095 610.158 77.8335C609.856 78.5821 609.497 79.312 609.081 80.0232C608.666 80.7343 608.212 81.4081 607.721 82.0444C607.193 82.6807 606.645 83.2796 606.078 83.841C605.474 84.4399 604.85 84.9826 604.208 85.4692C603.566 85.9558 602.886 86.3863 602.168 86.7606C601.451 87.1723 600.695 87.5279 599.902 87.8273C599.146 88.1642 598.353 88.4262 597.522 88.6134C596.691 88.8005 595.86 88.9502 595.029 89.0625C594.802 89.1 594.556 89.1187 594.292 89.1187Z" fill="white"/>
<path fill-rule="evenodd" clip-rule="evenodd" d="M584.586 90.9839H585.875C592.904 90.9839 598.172 97.6531 604.56 105.74C604.866 106.127 605.174 106.517 605.484 106.909C615.059 119.173 627.211 134 651.24 134C666.247 134 681.959 125.971 688.772 120.572L691 118.349L688.802 119.173L686.593 120.912C683.371 123.383 670.482 131.163 654.923 131.163C633.824 131.163 624.072 118.79 615.158 107.48C614.075 106.107 613.005 104.749 611.929 103.431C607.694 98.277 603.4 93.6986 597.809 91.2031C594.328 89.6629 590.697 89.6363 588.988 89.8465C588.867 89.8664 588.743 89.8846 588.614 89.9013C587.589 90.0335 586.293 90.0687 584.678 90.0687L584.586 90.9839Z" fill="white"/>
<path d="M594.292 89.1187H584.829V90.017C588.493 90.1565 596.457 90.1722 598.995 89.1187C599.524 88.9689 600.034 88.7818 600.525 88.5572C601.281 88.2578 602.017 87.9022 602.735 87.4905C603.453 87.0787 604.133 86.6109 604.775 86.0868C605.455 85.6002 606.078 85.0762 606.645 84.5148C607.249 83.9533 607.797 83.3544 608.288 82.7181C608.817 82.0444 609.289 81.3707 609.705 80.6969C610.12 79.9857 610.498 79.2559 610.838 78.5073L611.405 77.1598V77.0475C611.745 76.0743 612.028 75.1198 612.255 74.1841C612.519 73.2109 612.934 72.2564 613.501 71.3207C613.917 70.6469 614.408 70.0293 614.974 69.4679C615.541 68.9064 616.164 68.4011 616.844 67.952C618.204 67.0537 619.715 66.4548 621.377 66.1553C621.868 66.0805 622.36 66.0243 622.851 65.9869H623.361V65.0886H610.725V76.2053C610.573 76.7668 610.385 77.3095 610.158 77.8335C609.856 78.5821 609.497 79.312 609.081 80.0232C608.666 80.7343 608.212 81.4081 607.721 82.0444C607.193 82.6807 606.645 83.2796 606.078 83.841C605.474 84.4399 604.85 84.9826 604.208 85.4692C603.566 85.9558 602.886 86.3863 602.168 86.7606C601.451 87.1723 600.695 87.5279 599.902 87.8273C599.146 88.1642 598.353 88.4262 597.522 88.6134C596.691 88.8005 595.86 88.9502 595.029 89.0625C594.802 89.1 594.556 89.1187 594.292 89.1187Z" fill="white"/>
<path fill-rule="evenodd" clip-rule="evenodd" d="M584.586 90.9839H585.875C592.904 90.9839 598.172 97.6531 604.56 105.74C604.866 106.127 605.174 106.517 605.484 106.909C615.059 119.173 627.211 134 651.24 134C666.247 134 681.959 125.971 688.772 120.572L691 118.349L688.802 119.173L686.593 120.912C683.371 123.383 670.482 131.163 654.923 131.163C633.824 131.163 624.072 118.79 615.158 107.48C614.075 106.107 613.005 104.749 611.929 103.431C607.694 98.277 603.4 93.6986 597.809 91.2031C594.328 89.6629 590.697 89.6363 588.988 89.8465C588.867 89.8664 588.743 89.8846 588.614 89.9013C587.589 90.0335 586.293 90.0687 584.678 90.0687L584.586 90.9839Z" fill="white"/>
<path fill-rule="evenodd" clip-rule="evenodd" d="M218.055 95.8361V86.5079C218.055 73.5079 205.803 65 193.311 65C178.589 65 169.147 77.6616 169.147 85.0902C169.147 88.691 169.426 93.3996 173.891 97.2377C167.942 101.443 167.629 107.626 168.198 111.476C169.039 117.312 176.564 121 182.364 121C188.164 121 194.856 120.968 207.943 111.476C208.091 118.492 211.512 122 219.542 122C223.855 122 231.531 122 235.806 115.459C237.536 112.078 237.409 109.852 235.272 106.582C232.763 102.744 227.791 97.9689 218.055 95.8361ZM207.943 86.5079V93.3996C198.401 90.2295 183.194 92.5656 176.029 96.3033C171.003 92.5083 170.973 87.0516 171.045 84.1557C171.045 77.1399 180.112 67.5 192.158 67.5C205.096 67.5 207.943 76.6032 207.943 86.5079ZM218.055 113.849V97.2377C229.394 100.041 237.628 107.437 233.135 114.525C231.522 117.069 227.368 118.262 225.138 118.262C221.271 118.262 218.055 116.429 218.055 113.849ZM177.213 111.476C175.875 108.639 176.264 103.779 179.111 101.443L179.586 100.975C183.213 102.883 188.032 104.713 193.346 104.713C195.877 104.402 200.558 103.125 199.04 100.508C197.142 97.2377 193.82 100.508 194.769 101.91C195.718 103.311 191.448 104.342 188.601 103.593C186.04 103.14 183.055 101.506 180.535 99.7982L181.214 99.3242C188.076 94.1849 201.607 92.5656 207.943 94.6377V108.918C203.184 112.529 198.091 115.459 190.829 116.393C184.331 117.229 179.112 115.501 177.213 111.476Z" fill="white"/>
<path d="M294.283 111.08L295 111.626C292.317 114.829 289.064 117.359 285.241 119.216C281.418 121.072 277.265 122 272.781 122H272.615C267.322 121.927 262.525 120.617 258.225 118.069C253.924 115.485 250.469 112.045 247.859 107.75C245.286 103.455 244 98.7232 244 93.5546V93.0632C244.147 87.8218 245.507 83.09 248.08 78.8678C250.653 74.6456 254.09 71.2787 258.39 68.7672C262.728 66.2557 267.524 65 272.781 65C278.368 65 283.458 66.4377 288.053 69.3132C288.274 69.4224 288.494 69.477 288.715 69.477C289.082 69.477 289.395 69.295 289.652 68.931C290.424 67.8027 290.81 66.5287 290.81 65.1092V65.0546H291.692V87.4397H290.81V87.3851C290.81 85.8927 290.405 84.5642 289.597 83.3994C289.303 83.0354 288.99 82.6715 288.659 82.3075C287.998 81.5067 287.263 80.7241 286.454 79.9598C285.462 78.977 284.451 78.067 283.422 77.2299C280.334 74.7548 277.136 72.8803 273.828 71.6063C270.557 70.3324 267.396 69.6954 264.345 69.6954C262.139 69.6954 260.063 70.0594 258.115 70.7874C256.203 71.4789 254.512 72.5345 253.042 73.954C251.609 75.41 250.524 77.1025 249.789 79.0316C249.091 80.9243 248.742 82.9626 248.742 85.1466C248.742 88.6772 249.624 92.3716 251.388 96.2299C253.152 100.052 255.725 103.655 259.107 107.04C262.525 110.389 266.164 112.937 270.024 114.684C273.92 116.431 277.651 117.305 281.216 117.305C283.422 117.305 285.48 116.959 287.391 116.267C289.339 115.539 291.049 114.466 292.519 113.046C293.328 112.136 293.879 111.463 294.173 111.026L294.283 111.08Z" fill="white"/>
<path d="M302 66H350V78.3062H349.116C349.043 75.0618 347.919 72.3582 345.747 70.1953C343.574 67.9951 340.923 66.895 337.793 66.895H330.612V115.001C330.686 117.015 331.385 118.711 332.711 120.091C334.074 121.434 335.731 122.105 337.682 122.105H337.738V123H314.207V122.105H314.262C316.214 122.105 317.89 121.415 319.289 120.035C320.688 118.618 321.388 116.921 321.388 114.945V66.895H314.207C311.077 66.895 308.426 67.9951 306.253 70.1953C304.081 72.3582 302.939 75.0618 302.829 78.3062H302V66Z" fill="white"/>
<path fill-rule="evenodd" clip-rule="evenodd" d="M395.978 65.49C393.399 65.49 389.978 67.0824 384.305 77.6899C391.442 72.4353 401.253 67.591 408.894 68.5742C412.002 68.9742 414.419 72.6768 414.419 79.5405C414.419 86.8971 410.826 96.0435 403.99 103.94C397.153 111.838 394.182 111.274 394.182 111.274C397.153 111.838 412.016 106.243 429.891 88.7933C423.214 97.2465 415.616 105.151 405.855 111.274C398.855 114.518 392.501 116.552 386.791 117.374C366.612 119.362 361.056 115.289 360.959 113.056C357.025 120.796 351.331 129.316 343.641 140.821C341.931 143.379 340.122 146.086 338.212 148.964C363.215 156.275 407.712 164.45 432.728 154C445.024 149.45 452.694 142.768 456.426 136C455.484 143.477 452.759 146.367 451.437 146.911C472.666 141.343 492.906 142.283 504.693 143.351C516.531 144.422 525 151.461 525 156.167C515.608 139.761 473.336 144.516 473.336 144.516C461.355 145.719 454.882 148.697 449.221 151.301C445.131 153.182 440.795 154.252 436.452 155.551C398.945 166.764 366.324 158.178 335.611 152.466C322.625 165.489 307.462 172 301.214 172C292.599 172 290.037 170.324 287.473 166.764C283.886 160.153 285.424 150.49 308.487 146.421C315.662 145.155 319.763 144.895 327.449 146.421C329.141 144.037 330.854 141.711 332.631 139.298C338.45 131.399 344.95 122.573 353.588 107.769C361.173 95.2057 363.914 89.8557 365.743 86.286C367.023 83.7863 367.856 82.1596 369.593 79.5405C380.138 70.2649 391.003 63.0137 395.978 65.49ZM366.485 103.94L362.202 111.274C376.356 119.797 386.973 109.236 391.255 104.976C391.345 104.887 391.431 104.801 391.515 104.717C399.896 95.4873 403.967 85.7547 405.855 77.0731C405.855 75.3368 404.013 74.1259 400.329 73.4405C397.52 73.4405 390.13 77.3015 378.158 85.0236C375.793 88.8526 373.514 92.3272 371.607 95.2344C368.575 99.8556 366.485 103.043 366.485 103.94ZM324.559 150.067C314.015 162.267 296.699 174.393 289.012 165.747C284.274 160.153 291.062 153.541 298.748 151.469C305.843 149.556 316.598 148.366 324.559 150.067Z" fill="white"/>
<path fill-rule="evenodd" clip-rule="evenodd" d="M154.759 180.938C161.401 186.313 168.511 189 176.088 189C186.157 189 195.498 184.039 204.113 174.116C205.826 172 208.005 169.118 208.005 166.518C208.005 166.208 208.213 166.829 208.005 166.518C206.81 170.533 202.118 174.512 199.921 176C195.784 179.085 191.11 180.628 185.897 180.628C183.095 180.628 180.24 180.266 177.334 179.542C167.681 177.268 160 174.012 154.291 169.774C148.583 165.64 144.535 160.782 142.147 155.2C139.76 149.619 138.567 143.623 138.567 137.215C138.567 130.29 139.604 123.054 141.68 115.509C143.86 107.963 146.559 100.521 149.776 93.1821C152.994 85.74 156.264 78.7629 159.585 72.251L161.92 67.4446C166.799 56.7982 172.456 46.6686 178.891 37.0558C185.326 27.3396 193.318 20.4659 202.868 16.4348L205.67 16.8999C211.379 18.1403 216.05 18.7605 219.682 18.7605C224.561 18.7605 227 17.6235 227 15.3495C227 13.0755 224.509 11.9385 219.527 11.9385C209.562 12.1452 199.961 15.2978 190.724 21.3962C181.901 27.1846 173.961 34.2133 166.903 42.4824C159.948 50.7514 154.499 58.9171 150.555 66.9795L146.195 76.1272H111.632L114.123 69.7703C117.237 61.2945 120.766 53.3872 124.71 46.0484C130.107 36.3322 137.373 30.8023 146.507 29.4586C150.866 29.4586 155.381 27.7014 160.052 24.187C167.11 18.8121 170.639 13.0238 170.639 6.82198C170.639 4.13453 169.861 1.86054 168.304 0C169.549 1.65382 170 4.74282 170 6.5C170 10.0144 167.837 12.6103 164.412 15.8146C160.986 19.0189 157.146 21.0861 152.89 22.0164C150.814 22.4299 148.479 22.6366 145.884 22.6366C139.656 22.6366 132.027 21.8614 122.997 20.3109C112.099 18.4504 99.9028 17.2617 86.4095 16.7449H84.3855C75.5629 16.7449 66.7922 18.1403 58.0734 20.9311C49.4584 23.7219 42.1927 28.2182 36.2764 34.42C30.3601 40.5185 26.8829 48.5291 25.845 58.452C19.0983 61.0361 13.2858 65.1706 8.40741 70.8556C3.63283 76.4372 0.882259 83.6727 0.155693 92.5619L0 95.3527C0 105.999 3.78852 114.268 11.3656 120.16C18.9426 126.155 28.6994 129.153 40.6358 129.153C56.5165 129.049 70.5807 124.398 82.8285 115.199C95.1802 105.896 104.366 93.8023 110.386 78.918H144.95C138.618 92.872 134.674 106.723 133.117 120.47L132.962 126.982C132.962 138.869 134.934 149.463 138.878 158.766C142.926 168.172 148.219 175.563 154.759 180.938ZM75.3553 113.958C64.1454 122.847 52.8836 127.395 41.57 127.602H40.7915C31.0348 127.602 23.3539 124.656 17.749 118.765C12.144 112.769 9.34156 104.087 9.34156 92.717C9.34156 85.0681 10.8985 78.7112 14.0123 73.6464C17.1262 68.4783 21.0185 64.5505 25.6893 61.863C25.8969 71.1657 28.9588 79.1247 34.8752 85.7399C40.8953 92.3552 48.628 95.6628 58.0734 95.6628C61.7062 95.6628 65.5466 95.0427 69.5947 93.8023C78.6248 90.7014 85.2158 86.1534 89.3676 80.1583C93.5194 74.0599 95.5953 68.0131 95.5953 62.018C95.5953 56.7465 94.0903 52.1468 91.0803 48.219C88.174 44.2912 84.0741 42.3273 78.7805 42.3273C77.1198 42.3273 75.3034 42.5857 73.3313 43.1025H73.0199C70.425 43.6194 69.1276 44.4979 69.1276 45.7383C69.1276 46.2551 69.2833 46.6686 69.5947 46.9787C70.0098 47.2888 70.4769 47.4438 70.9959 47.4438C72.0338 47.2371 72.5528 46.6686 72.5528 45.7383C72.5528 45.3249 72.3452 44.9114 71.93 44.4979C73.1756 44.1879 74.3692 44.0328 75.511 44.0328C79.7666 44.0328 83.1399 46.1001 85.631 50.2346C88.1221 54.2658 89.3676 58.9688 89.3676 64.3437C89.3676 69.9253 87.7588 75.4036 84.5412 80.7785C81.4273 86.1534 76.2894 89.9778 69.1276 92.2518C65.8061 93.1821 62.6404 93.6472 59.6303 93.6472C54.0254 93.6472 49.2508 92.1485 45.3066 89.1509C41.3624 86.1534 38.3523 82.2256 36.2764 77.3675C34.2005 72.5094 33.1626 67.2379 33.1626 61.5529L33.3182 58.6071C36.6397 57.5734 39.9092 57.0566 43.1269 57.0566L45.9294 57.2116C54.1292 58.0386 59.4746 61.6046 61.9657 67.9098C61.1353 68.1165 60.6164 68.685 60.4088 69.6153C60.4088 70.1321 60.5645 70.5972 60.8759 71.0107C61.291 71.3208 61.7581 71.4758 62.2771 71.4758C62.7961 71.4758 63.2113 71.3208 63.5226 71.0107C63.9378 70.5972 64.1454 70.1321 64.1454 69.6153C64.1454 69.3052 64.0416 68.84 63.834 68.2199C62.7961 63.982 60.2531 60.7777 56.2051 58.6071C52.1571 56.4364 47.4344 55.3511 42.037 55.3511C39.2346 55.3511 36.3802 55.6612 33.4739 56.2814C34.6157 46.9787 37.1587 39.7432 41.1029 34.5751C45.1509 29.4069 50.185 25.8408 56.2051 23.8769C62.329 21.8097 68.9719 20.776 76.1337 20.776C82.4652 20.776 88.9524 21.2929 95.5953 22.3265C102.238 23.3601 108.725 24.4454 115.057 25.5824C122.842 27.1329 130.003 28.2699 136.543 28.9934C137.788 28.9934 139.137 29.0968 140.591 29.3035C127.928 33.4381 117.6 42.534 109.608 56.5915C105.871 63.2067 102.55 69.9254 99.6433 76.7473C96.8409 83.5693 93.6232 90.1846 89.9904 96.5931C86.3576 102.898 81.4792 108.687 75.3553 113.958Z" fill="white"/>
<path d="M514.5 61.2459C514.5 62.9126 514.877 64.4973 515.63 66H517.137C516.452 65.3443 515.927 64.5519 515.562 63.623C515.196 62.694 515.014 61.7924 515.014 60.918C515.014 60.4262 515.071 59.9754 515.185 59.5656C515.687 58.1721 516.566 57.1749 517.822 56.5738C519.078 55.9454 520.322 55.5355 521.555 55.3443C522.148 55.2623 522.742 55.2213 523.336 55.2213C524.317 55.2213 525.299 55.3443 526.281 55.5902C527.628 56 528.952 56.5055 530.253 57.1066C530.39 57.1339 530.527 57.1885 530.664 57.2705C530.87 57.3251 531.064 57.3798 531.247 57.4344C532.114 57.7623 532.982 57.9262 533.849 57.9262C534.557 57.9262 535.253 57.776 535.938 57.4754C537.011 56.9563 537.856 56.123 538.473 54.9754C539.112 53.8005 539.454 52.5301 539.5 51.1639C536.322 57.2705 532.486 53.5991 528.527 51.9326C527.07 51.319 525.847 51 524.294 51C523.632 51 522.959 51.0683 522.274 51.2049C520.904 51.5328 519.626 52.1612 518.438 53.0902C517.274 54.0191 516.326 55.194 515.596 56.6148C514.865 58.0082 514.5 59.5519 514.5 61.2459Z" fill="white"/>
</svg>
