<svg xmlns="http://www.w3.org/2000/svg" width="518" height="1080" fill="none" viewBox="0 0 518 1080"><path fill="url(#a)" fill-rule="evenodd" d="M155.294-173q1.018 3.846 2.078 7.765a79 79 0 0 0-8.204-.226 396 396 0 0 0 4.495-6.727q.272-.409.545-.812h-39.013a75 75 0 0 0 3.35 4.12c-.08 3.905.611 7.445 1.688 10.051 2.618 6.689 7.028 11.642 13.764 9.803 3.238 7.259 8.698 16.171 15.938 23.063-3.93 1.067-6.065.606-6.078.604 0 0-.195 6.637 8.989 13.189 5.636 3.991 9.666 5.673 13.921 7.497 2.19 8.165 3.081 12.664 6.053 12.536l.779-.244a2.7 2.7 0 0 1-.673-.097h.072c1.642-.153 3.149-1.548 4.402-3.6a3866 3866 0 0 0 8.129 26.334 26 26 0 0 0-1.667 1.876c-8.811 11.224-10.597 22.622-10.017 28.896-4.272.32-8.55 1.048-12.694 2.256l-.081-.26c-11.66 3.401-22.827 15.91-22.733 20.292l-.231.074.328 1.04c.236.304.454.47.694.542 1.264.976 2.585-1.617 10.938-1.621 7.782-.005 15.741 4.513 28.011 5.864-.72.277-1.315.743-1.808 1.357-1.937 1.716-2.846 4.36-3.329 7.246-3.871 7.411-4.953 15.004-4.355 22.08-2.65-.138-5.183-.266-7.58-.388-8.149-2.016-14.11-8.325-17.079-12.174-1.879-3.27-6.299-10.264-9.686-19.015-3.639-8.864-7.769-19.29-10.321-21.063-5.95-4.422-10.826-.889-14.529 4.563-4.319 6.218-6.896 21.61 6.791 31.609 10.807 8.272 22.363 7.887 26.784 6.746 2.372 2.832 5.956 6.38 10.58 8.958-5.477-.271-9.828-.474-12.662-.587-15.646-.805-28.48.08-38.037.509-2.566.118-4.813.2-6.77.26-1.312-3.926-5.65-7.935-15.983-8.27-12.464-.66-22.246 8.131-22.03 10.637-.042 2.587 6.807 9.872 19.613 10.71 13.3.767 17.777-5.527 18.669-9.254 1.927-.112 4.103-.262 6.526-.374 6.281-.235 14.176-.714 23.461-.752-8.433 2.062-19.256 6.15-27.96 12.745-11.502 8.76-15.102 23.615-12.564 26.25l.107-.116q.106.17.233.294c.96.927 3.198 2.193 6.409 2.822-1.934 1.835-3.366 3.816-4.405 5.843q-.44.205-.883.414c-6.324.124-13.686.076-20.273-.937-7.093-2.435-9.954-5.493-28.373-6.082C21.339 62.67 6.675 64.988 0 62.795c3.842 12.233 14.753 28.822 36.256 29.217 17.318.182 26.724-13.599 29.952-19.493 4.703.686 9.701.93 14.527.949-13.577 6.956-26.645 15.58-38.465 26.26-5.047-1.13-15.048.501-22.42 6.301-10.286 8.092-18.421 26.659-16.566 28.936 1.774 2.016 16.477 2.545 29.918-9.111 12.104-10.55 12.217-20.654 12.01-23.369l.23-.207.022-.006-.001-.012C57.95 91.055 71.855 82.176 86.275 75.15c-1.401 6.541.32 12.697 1.63 15.223 2.167 4.18 17.66 9.037 28.273 1.986 13.377-9.03 19.999-28.813 20.005-34.7a292 292 0 0 1 9.709-2.132c2.751 3.446 6.468 6.537 11.454 8.175l.081.26c8.712 2.72 21.411-1.812 28.109-4.703l1.068.061a52 52 0 0 0-2.673 6.095 835 835 0 0 0-13.239 5.473c-4.969-1.21-18.809 1.282-27.055 15.42-8.584 14.419-1.098 30.083.704 30.375 1.802.291 4.89-4.396 5.931-10.156 1.493-7.045 2.357-12.464 8.356-21.497 3.969-5.925 9.364-8.578 12.137-10.49 2.654-1.122 6.723-2.83 11.966-4.98-2.139 10.49 1.418 22.985 4.426 22.81 1.639-.23.125-2.327 4.702-8.626 1.328-1.75 2.957-3.295 4.79-4.845 3.26 1.604 8.81 2.952 14.543 2.96a1.6 1.6 0 0 1-.463.247 4 4 0 0 0 .656-.247q.236-.001.473-.005a28.5 28.5 0 0 0-1.801 4.466 22 22 0 0 0-.818 4.474 19.4 19.4 0 0 0-.005 4.103q-.89-.723-1.79-1.465s-1.979 20.923 13.823 33.117a24.4 24.4 0 0 0 3.886 2.501c-1.342 2.682-2.327 5.284-2.892 7.492-5.135-.1-10.564.611-15.229 2.77-9.191 4.317-11.999 18.066-9.735 21.644 2.182 3.318 11.242 12.196 22.494 8.09 13.765-5.181 22.093-24.953 21.275-27.556q-.014-.038-.033-.078c3.131-1.134 8.595-3.265 15.008-6.419l1.1 2.861c-6.117 9.338-10.69 22.364-10.402 35.31.224 12.511 10.399 26.757 13.609 25.178 1.734-.831-.736-2.342 1.549-10.494.444-1.582 1.085-3.118 1.858-4.671a92 92 0 0 0 1.794 2.632c-1.293 1.029-1.948 2.014-1.686 2.85.456 1.45 1.613.739 5.011 1.533 2.558 3.141 5.386 6.098 8.416 8.547 1.699 1.311 3.296 2.296 4.904 3.075l3.613 9.157c.152 2.201.451 4.357.847 6.403-13.001 11.267-15.328 28.279-13.689 40.198 3.828-3.261 12.114-6.333 22.299-10.491 1.872 9.102 7.681 16.253 12.699 20.941q.776 2.048 1.551 4.098c-2.426-.226-5.104-.267-8.052-.051-19.729 1.622-30.59 13.325-30.47 16.433.38 3.026 21.155 11.085 35.464 9.45 4.079-.417 7.978-1.715 11.378-3.431q.962 2.632 1.919 5.275c-1.974 6.511-1.582 12.577-.311 14.093.794 1.001 2.814 2.1 5.63 2.805-8.512 6.818-19.753 19.329-23.088 33.274-3.518 15.116 8.608 31.037 14.192 31.572.389.037.837.058 1.335.063-3.03 2.82-5.573 4.973-8.315 6.522q-.046-.038-.096-.074c-2.389-1.252-11.833-7.721-28.955-2.343-18.94 5.949-27.168 19.684-26.188 22.808.899 2.863 23.041 6.202 36.629 1.363 11.653-4.151 19.875-15.216 19.458-20.016 3.327-1.869 7.314-4.6 10.898-8.386 2.455 9.556 7.994 26.325 17.835 32.997a31 31 0 0 0 2.348 1.474c-5.423 5.545-5.109 16.253-7.729 22.233-3.486 7.957-7.393 10.043-7.393 10.043s3.956 5.333 15.151 4.676c3.469-.239 6.231-.676 8.687-1.212q.049.405.27.687c1.433 1.838 2.431-1.335 11.455-.738 1.505.107 3.016.359 4.559.708-2.229 3.349-2.943 6.248-2.625 7.262l-.178.342c.455.996 4.43 1.521 9.359 1.223q1.705 4.908 3.443 9.83c-10.517 2.069-17.861 9.537-17.828 11.972.039 2.818 7.324 10.922 21.227 11.758.255 1.512.579 2.993.962 4.434-15.78-1.323-29.868 9.074-29.919 9.111.032.068 7.008 14.982 18.731 22.426 7.368 4.613 19.837 4.413 30.634 4.861l.565 1.478q.255.941.59 1.917c-3.653 3.598-6.749 8.596-7.831 15.387-1.255 8.462.522 17.468 3.414 25.402-1.597 3.634-1.908 6.484-1.374 7.412.403.737 2.287 1.057 4.993.97q.63 1.255 1.272 2.431c.842 5.261 2.937 10.622 3.157 14.799q.003.205.005.408l-.101.195c.052 2.288-.09 4.21-.325 5.804a22 22 0 0 1-.558 2.452c-6.797 2.849-11.468 6.032-11.851 7.468-.998 3.173 17.76 23.874 38.263 27.442 1.461.113 2.662.307 4.041.16-7.598 12.108-2.012 28.081 1.141 29.951 1.394.73 4.489.974 8.27.154-2.465 6.637-3.385 12.156-6.137 16.62-4.155 6.737-6.899 6.17-6.408 7.731 1.241 3.042 18.158-.271 27.242-8.557a48 48 0 0 0 1.776-1.729c1.11.581 2.22 1.072 3.296 1.488l.192.479c-5.014.925-10.831 3.83-14.227 11.156-1.401 3.143-2.155 6.585-2.453 10.064-7.227-2.392-7.367-4.859-8.973-4.202q-.174.037-.374.132c-2.151 1.319.847 10.352 6.61 17.591a8 8 0 0 1-.273-.138q.137.11.302.175c1.394 1.747 2.95 3.388 4.633 4.79 1.33 4.756 2.969 8.092 3.876 8.568.787.412 3.322-.506 6.568-2.459a62 62 0 0 0 6.85 2.537q-.439.407-.873.841c-12.947 12.952-16.451 35.94-15.912 45.331-.251-2.139-.211-5.345.175-9.219-.892 7.142-.459 12.153.469 13.292.111.116.275.214.484.299 3.237 2.281 30.082-2.834 44.775-18.514.675 4.348 2.425 8.108 4.573 11.165a4370 4370 0 0 1 4.639 12.046q-.495 1.276-.864 2.556a47 47 0 0 0-6.5 1.57c-9.813 2.998-15.593 8.365-15.855 10.514-.096.602.326 1.042.831 1.741l-.277-.885c1.901 3.062 12.569 9.279 23.671 12.408.304.812.615 1.582.922 2.309-.149 4.139.438 8.339 1.395 12.212a53 53 0 0 0-2.932 6.548c-.504-.7-1.009-1.4-1.855-2.278-15.826-15.902-46.952-16.992-49.836-14.371-2.883 2.621 2.395 32.131 19.273 46.846 8.967 7.804 22.358 7.472 29.677 4.778a79 79 0 0 0 7.122 4.738l.275 1.429c-2.35 1.596-11.992 7.198-15.293 24.819-3.59 19.428 5.22 32.959 8.305 33.706s16.122-17.644 17.906-31.929c1.579-12.22-4.585-24.581-8.857-26.385l-.021-.332c4.741 2.563 9.918 4.663 15.227 5.781-1.864 7.087-2.98 10.959-.527 12.244 3.041 1.594 8.492-2.115 12.506-6.674q1.18 4.307 2.331 8.644c-3.122 3.878-6.149 8.27-8.28 12.556-5.974 12.742-4.834 21.819-8.306 28.915-3.391 7.355-6.311 7.129-5.562 8.609.869 1.586 7.313.21 13.999-3.155.095.29.202.512.324.658.971 1.158 6.51 1.035 13.653-.674a62 62 0 0 0 1.1 1.695c-2.498 6.413-3.468 13.013-3.462 18.594 1.165-.843 2.698-1.605 4.54-2.328.116 1.027.287 2.04.525 3.026a55 55 0 0 0 3 9.251c-.929.049-1.6.194-1.955.428-.799.528-1.348 2.698-1.518 5.923-15.529 2.299-30.397 13.262-36.809 20.022 1.32-1.53 3.179-3.36 5.466-5.33-5.409 4.56-8.743 8.46-8.854 9.93.001.14.039.29.106.46.837 3.98 24.161 19.07 45.569 17.76-.011.01-.022.03-.032.04-3.886 5.43-5.012 11.57-4.87 16.57a26 26 0 0 1 0-3.03 29 29 0 0 0-.082 3.43c-7.078-9.82-18.546-19.51-31.837-24.29-12.571-4.63-31.06.04-30.694 3.93.135 2.24 2.662.3 10.058 5.7 6.42 4.69 10.382 13.16 19.821 21.62-.501.11-1.006.23-1.514.37-23.418 6.21-30.995 27.46-31.578 41.94 6.693-4.1 23.582-5.69 42.084-11.22 19.489-5.58 22.188-9.7 28.782-14.31.099 0 .194-.01.285-.02.208 3.07.51 5.34.178 6.62 3.946-3.15 7.947-5.59 10.181-8.61 1.483 1.57 3.212 3.09 5.094 4.55-.008.26-.008.53-.004.79-2.251-.84-4.19-1.11-5.434-.72-4.929 1.55-18.41 10.36-16.196 27.39.946 8.56 5.139 16.76 10.004 23.46-.878 7.6-.592 14.53.133 18.96-.49-2.13-.833-5.15-.971-8.7.227 7.08 1.084 12.53 2.189 13.33.098.08.223.14.372.2 2.065 1.54 14.541-1.86 26.515-9.5l.067.39c-.104.08-.209.17-.312.25-4.094 3.45-7.429 7.8-10.102 12.48-.275-.38-.414-.59-.418-.59l.177-.34c-.049.03-.121.16-.211.37h-.004l-.044-.29q-.018 0-.034.03c-.227.29-.779 1.93-1.341 4.36-7.034 14.37-8.382 30.36-6.717 32.46.959 1.14 6.83 1.4 14.497.15 2.63 1.76 5.475 2.9 8.07 3.63h-.003l.009.07c-4.609 1.63-9.629 5.21-12.085 12.3-5.416 15.43 3.102 36.2 5.668 37.11l-.259.08c1.68.6 9.716-4.6 16.252-12.64.859.61 1.773 1.23 2.729 1.84-15.573 12.9-12.786 36.88-12.786 36.88s10.5.91 20.965-2.01c.897 3.8 1.808 7.55 2.735 11.24-20.801-.2-42.136 18.32-42.451 21.82-.317 3.53 22.472 19.82 43.224 18.74 1.557-.49 2.854-.9 4.152-1.31-1.049 2.79-1.5 5.61-1.526 8.35a249 249 0 0 1-12.789 8.4c-3.957-3.84-19.719-11.18-33.051-8.73-10.272 2.1-16.881 14.11-15.931 18.22-.182.01-.28.02-.286.02l.34.18c.711 2.26 3.291 6.82 7.801 9.98-13.017 4.45-26.835 7.46-41.199 8.21-2.188-2.02-8.513-7.3-21.343-6.43-3.395.24-6.472.88-9.202 1.75-9.764 3.02-15.181 9.04-15.012 11 .217 2.51 16.46 8.85 27.751 7.59 8.407-.94 15.696-6.44 17.824-10.28 13.476-.69 26.482-3.33 38.812-7.27-2.833 2.93-5.648 6.08-8.113 9.35-5.837-1.68-19.639-4.13-29.736 6.3-12.951 13.22-9.877 30.27-4.532 40.02 2.666-5.12 13.374-12.77 23.361-23.63 11.039-12.05 10.496-15.59 13.695-21.74 0 0-.015-.01-.042-.02 3.384-4.29 7.519-8.57 11.388-12.33.23-.08.458-.16.687-.25 2.471.91 5.319 1.34 8.549.98 13.17-1.49 25.239-13.53 28.597-18.99 4.414-2.67 8.654-5.42 12.703-8.21 1.234 8.88 6.347 16.09 8.771 16.91.682.2 1.666.23 2.855.06-1.287 3.35-2.165 6.56-2.681 9.22-1.327.99-2.079 1.9-2.175 2.5-.141.55.457 1.45 1.601 2.54.008.86.113 1.45.307 1.72.286.4 1.287.67 2.802.78 2.915 2.07 6.896 4.35 11.125 6.14-.921 1.03-1.711 2-2.351 2.88l-16.035 3.39c-8.605-1.67-22.505-12.31-32.048-11.44-10.311.67-20.219 8.04-20.266 8.08.034.07 8.173 17.74 24.385 18.64 9.042.6 20.15-7.16 25.899-11.77l12.58-2.66c-10.591 7.84-18.734 14.09-23.444 17.77-4.729-.13-18.14 5.68-22.506 21.89-4.311 16.22 7.08 29.8 8.637 29.31.04-.01.08-.03.121-.05-.022.21-.04.31-.04.31 1.556-.49 3.362-5.63 2.943-11.5-.487-7-1.084-12.53 2.526-22.81l-.081-.27c2.325-6.4 6.563-10.28 8.782-12.88 4.505-3.5 14.298-11.09 27.596-20.91.764.71 1.958 1.55 3.484 2.42-1.056 7.57-.528 13.4-2.227 18.7-2.708 7.71-5.548 7.74-4.539 9.14.86 1.34 5.448.01 10.644-2.94-1.968 1.82-3.109 3.28-3.176 4.03l-.26.08c-.13 1.46 3.792 5.42 10.007 9.55-2.592 4.29-4.682 8.92-5.831 13.73-3.328 14.3 7.267 29.08 13.219 31.31-3.183 1.95-5.929 3.93-8.064 5.7-4.049-2.11-12.931-5.69-26.995-1.27-18.94 5.95-27.168 19.68-26.187 22.81.899 2.86 23.042 6.2 36.629 1.36 6.926-2.47 12.639-7.38 16.048-11.96 5.955 4.98 17.255 11.62 29.575 14.51q1.232 1.14 2.568 2.04a29.7 29.7 0 0 0 5.533 3.04c-3.338 7.6-2.918 15.72-1.614 19.91-2.279 2.62-4.368 4.91-6.902 6.59-6.61 4.36-9.08 2.85-9.109 4.57-.109 1.46 4.001 3.14 9.596 4.01-2.441 6.65-2.025 13.52-.471 18.48.348 1.16.757 2.22 1.207 3.15l.325.67c2.596 5.21 6.203 9.05 11.109 8.82.105 3.05.557 6.25 1.528 9.5V554.454c-1.11-.764-2.085-1.047-2.626-1.151-.168-.256-.264-.395-.27-.404 0 0-.467.211-1.269.622-.715.169-1.435.488-2.159.934a69 69 0 0 0-1.056-1.568 509 509 0 0 0-5.561-13.564 30.5 30.5 0 0 0 5.294-3.93 39.4 39.4 0 0 0 7.647 2.353V502.32a131 131 0 0 0-6.235-3.737c-.187-1.027-.321-1.988-.365-2.854-.335-3.679.002-6.718-.116-10.289 2.538-.097 4.784-.506 6.716-.83v-1.204c-1.42-.013-3.007-.004-4.738.038a53 53 0 0 0 4.738-2.073V429.57c-8.9 2.373-21.713 8.044-30.298 17.272l-.188.059q0 .001.043.096-.212.23-.419.464l-.062-.136-.082-.261c-.01.011-1.626 1.543-3.373 4.162l-.129.181q-.177.165-.367.355a23 23 0 0 0-.568-.946c.236-10.665-2.897-20.423-4.48-21.253-1.532-.937-9.459 2.552-16.753 8.81-2.124-.197-3.776-.023-4.563.458l-.002.001a4 4 0 0 0-.174.123q-.054-.049-.085-.041l.029.085c-.625.489-1.31 1.323-1.968 2.443q-2.265-3.934-4.533-7.851c.213-1.329.338-2.675.388-4.028 10.28-2.861 17.741-8.894 17.741-8.894-.029-.056-5.144-9.663-13.493-17.055a45 45 0 0 0-.542-3.038l14.206-2.803c8.478.966 22.873 12.596 32.876 11.945 6.551-.427 12.972-3.454 16.796-5.614v-8.518c-3.906-5.296-10.806-12.131-20.656-12.678-2.454-.161-5.063.285-7.678 1.109-6.985 2.133-14.045 7.026-18.328 10.368l-12.521 2.47c10.6-7.747 18.699-13.876 23.288-17.418 4.572.389 18.104-5.406 22.709-21.75 4.571-16.305-6.56-29.965-8.376-29.395q-.063.02-.126.048c.025-.213.044-.309.044-.309-1.816.571-3.622 5.713-3.203 11.586.569 7.256 1.085 12.527-2.526 22.811-2.064 5.976-5.768 9.68-8.106 12.213-4.048 3.104-14.626 11.237-29.408 22.032-2.251-7.387-5.91-12.886-8.018-12.224-2.076.652.298 2.766-3.707 10.887q-.249.534-.526 1.059c-2.665-.538-5.551-.838-8.529-1.003 3.962-5.548 7.434-12.479 8.1-19.589 8.758-3.376 15.027-7.583 15.541-9.354.619-2.137-5.36-10.448-14.618-17.989 2.388-10.685 2.183-19.909.814-21.424-1.876-2.073-17.722-.199-31.975 7.145-2.701-3.623-5.044-5.854-6.158-6.035-1.416-.229-4.686 2.598-8.456 7.08a538 538 0 0 1-3.5-7.384 45.4 45.4 0 0 0 9.216-5.697c5.052-3.993 8.14-8.508 9.831-13.064 7.104-9.286 9.981-20.302 10.218-25.218.098-1.465-.056-2.447-.445-2.761-.698-.564-5.743.717-12.187 3.481a20 20 0 0 0-.757-1.131c-4.883-6.472-11.011-10.553-17.813-4.985-1.378 1.097-3.107 4.404-4.962 8.73-2.73-3.292-5.679-6.711-8.868-10.105a160 160 0 0 0-5.017-5.119c11.922-3.209 25.533-10.966 34.894-22.28 8.43-10.368 10.122-29.485 6.437-30.33-1.884-.552-.985 2.311-8.47 7.522-2.491 1.764-5.437 3.004-8.745 4.217 2.631-4.942 4.538-9.897 5.75-14.028 8.318.26 15.674-.911 19.402-2.199 1.457-.484 2.42-.99 2.743-1.439 1.667-2.49-6.303-21.592-20.323-33.207 2.539-5.904 2.87-12.036 1.952-16.21-.678-3.315-1.766-6.294-3.464-8.456.62-5.088-.102-9.496-1.125-10.691a4 4 0 0 0-.133-.14c.04-.056.06-.095.052-.121l-.108.07c-2.267-2.136-10.159-4.321-19.04-1.532-3.012.916-6.142 2.401-9.211 4.651-4.693 3.4-7.298 7-8.562 10.435a44.3 44.3 0 0 0-3.736-13.843c.169-6.636-.563-13.481-2.459-19.98-1.236-4.234-3.662-8.406-6.463-12.002 14.726-5.085 21.014-16.088 20.217-18.625-.386-1.23-4.441-2.391-9.816-2.897a60 60 0 0 0-1.527-1.22c2.868-4.15 5.016-7.84 8.145-10.606 6.106-5.062 8.494-3.811 8.522-5.536-.099-2.542-11.729-4.141-21.939-1.82a63 63 0 0 0-2.776-3.719c.442-1.845.439-3.219.141-3.8l-.014-.025-.018-.092.161-.308c-.368-.602-2.082-.755-4.504-.496-3.375-3.352-7.338-6.321-11.369-7.386-2.998-.746-5.901-.707-8.615-.195 5.01-8.27 6.026-18.043 3.892-21.198-.082-.257-.906-1.115-.927-1.137l10.292 1.914c.558 2.684 2.094 13.925 17.338 23.434 16.608 10.225 32.488 7.24 34.251 4.684S556.916 41.716 544.21 34.84c-10.741-6.063-24.612-4.85-27.85-1.546-3.508-1.186-8.054-2.046-13.297-2.401 2.651-3.744 5.97-9.048 8.63-14.838 12.615-.985 20.619-6.725 21.19-9.11.315-1.977-7.459-8.192-16.87-12.742-3.337-20.497-26.557-29.596-26.654-29.634-.007.012-2.296 3.653-4.561 9.054-3.808-4.953-8.222-11.23-13.486-17.8a640 640 0 0 0-7.304-20.3q.564.033 1.137.05c20.464.721 29.335-15.504 30.092-24.892.425-6.149-.523-11.543-4.812-13.989 3.698-8.238 5.131-15.344 4.287-16.727l-.096.029q-.242-.241-.714-.461c-2.5-1.499-12.324-2.272-23.239-.332a47 47 0 0 0-3.471-5.757l.018-.004a24 24 0 0 0-.66-.93l.151-.047c-.016-.029-1.061-1.923-3.177-4.136 6.419-2.043 11.137-6.747 14.183-11.44a35 35 0 0 1-2.109 3.06 32 32 0 0 0 2.369-3.465c3.074-4.887 4.334-9.677 3.811-11.343-1.144-3.644-12.457-11.529-27.313-8.007q-.349.086-.689.179c-2.765-4.354-5.686-7.007-7.213-6.276-1.677.804.579 2.245-1.663 10.337-.988.72-1.842 1.49-2.579 2.306A43.9 43.9 0 0 0 444.039-173zM558.91 1061.52c-1.412.35-2.679.5-3.732.52 2.092 5.13 2.611 9.81 1.13 13.27a.74.74 0 0 1-.223.27c.224 2.78-.104 5.06-.418 6.48 3.795-3.13 6.532-6.33 8.677-9.26-1.038-1.22-1.919-2.48-2.598-3.78-.977-1.96-1.77-4.02-2.414-6.09a50 50 0 0 1-.422-1.41m94.618-583.167q-.446.213-.966.411a30 30 0 0 1-1.202 1.666l.303.563c1.476.711 2.53 1.394 3.086 1.905a96 96 0 0 1 .95-.074q.253-.344.505-.69c-.643-.886-1.57-2.18-2.676-3.781m2.825-1.903q-.77.653-1.574 1.189-.12.08-.252.163a71 71 0 0 0 2.442 3.274q.54-.754 1.08-1.514c-.424-.661-.825-1.464-1.189-2.383a10 10 0 0 1-.278-.459 5 5 0 0 1-.229-.27M279.106 199.631a22 22 0 0 0 3.007 1.976l-.094-.24a25 25 0 0 1-2.913-1.736m249.352-28.34a38 38 0 0 1-2.597 4.506 50 50 0 0 1 5.862-2.029c-.929-.706-2.024-1.545-3.265-2.477m9.637-2.666a30 30 0 0 1-.861 3.873 52 52 0 0 1 2.379-.376 17 17 0 0 1-1.518-3.497m38.409-18.214a29 29 0 0 1-.207 4.934l.08.097c.193-1.832.222-3.546.127-5.031m-321.365-16.038c-9.093 1.483-16.443 1.054-22.439 3.168q-.254.09-.498.179c4.461.977 7.765 2.367 8.652 3.416 3.041-1.1 8.034-3.716 14.285-6.763m256.834-18.651q.067-.652.103-1.296-.187-.011-.372-.024zM192.939 49.594c-3.985.222-8.205.523-12.618.93 2.836 2.445 5.533 4.574 7.992 5.725a60.5 60.5 0 0 1 4.626-6.655m-52.51-27.267c-1.099 4.965-9.006 20.808-21.146 31.73 5.109-.343 9.659-.03 12.656.553 3.87-.967 7.708-1.84 11.499-2.627-3.805-6.337-4.867-12.632-4.876-12.691l.511-.187c2.329-.826 12.206-4.022 21.211-2.347 5.25.976 10.754 5.593 15.966 10.188a350 350 0 0 1 20.301-1.486c3.659-3.834 7.629-7.009 11.497-9.303-4.564-.275-7.948-.97-8.156-1.259-.24-.761 3.64-3.09 7.282-9.068l-8.225-.454c-6.448 4.22-13.654 11.342-19.458 13.669-1.052 1.505-1.86 2.886-2.363 4.146q-.052-.164-.1-.3-.084.193-.16.382a49 49 0 0 1-2.211-3.65 4.8 4.8 0 0 1-1.194-.504q.266.255.541.479s-6.252-1.754-5.985-12.703a36 36 0 0 1 .154-3.188c-12.536-.666-22.457-1.168-27.526-1.37zm80.489 26.843a75 75 0 0 1-.911 2.188q2.274-.855 4.612-1.726l-.118-.338a275 275 0 0 0-3.583-.124m268.137-34.042q1.16 4.395 2.287 8.807c1.175.364 2.304.797 3.384 1.285-1.705-3.214-3.709-6.626-5.671-10.092M206.501 7a165 165 0 0 1-1.801 2.368 205 205 0 0 1-5.825 7.18 138 138 0 0 0 4.019 5.174l6.545.355c1.214-1.957 2.484-3.878 3.825-5.618q-1.156-3.456-2.317-6.957c-1.592-.415-3.072-1.293-4.446-2.502m274.453-20.845.025.085.016-.09zM194.908-40.047c-2.84.936-4.708 1.359-4.729 1.363 0 0-.169-.388-.435-1.101-.669.403-1.335.785-1.989 1.152 2.78.34 5.484.836 8.069 1.464q-.46-1.441-.916-2.878m238.071-98.017a56 56 0 0 1-.7 3.141q.557-1.171 1.127-2.278c-.177-.349-.319-.64-.427-.863m-9.808-18.59a14.6 14.6 0 0 1-.864 3.03c-.03.074-.064.146-.094.219a856 856 0 0 1 8.599 16.168c.449-2.023.756-3.914.963-5.572-1.573-2.351-4.47-7.681-8.604-13.845m10.733 18.421.019.045.038-.074zm4.457-9.042c-1.947 3.271-3.866 5.319-4.839 5.867-.104.784-.227 1.61-.379 2.469.205-.071.433-.105.549-.056q.358-.161.879-.393c1.228-2.226 2.473-4.27 3.662-6.198q.021-.819.128-1.689m4.572-9.502q-.348.315-.668.641l-.039.128q.336-.389.707-.769" clip-rule="evenodd"/><path fill="url(#b)" d="m467.37-126.316-.16-.243.078-.017z"/><defs><linearGradient id="a" x1="556" x2="73.5" y1="-157.5" y2="758" gradientUnits="userSpaceOnUse"><stop stop-color="#9fc9ea"/><stop offset="1" stop-color="#d4e5ff"/></linearGradient><linearGradient id="b" x1="556" x2="73.5" y1="-157.5" y2="758" gradientUnits="userSpaceOnUse"><stop stop-color="#9fc9ea"/><stop offset="1" stop-color="#d4e5ff"/></linearGradient></defs></svg>