<svg xmlns="http://www.w3.org/2000/svg" width="305" height="493" fill="none" viewBox="0 0 305 493"><path fill="url(#a)" d="m235 357.408.195.127.078-.042z"/><path fill="url(#b)" fill-rule="evenodd" d="M-127.949 63.362c.096 1.884-.048 3.874-.551 5.853V45.471c2.624-1.522 6.079-2.46 10.092-1.25l.374.12c3.725 1.243 6.932 3.883 9.445 6.783a34.5 34.5 0 0 1 6.783 5.877c2.268 2.566 3.855 5.015 4.954 7.264q.84-.237 1.685-.47l-.157-.526C-101.65 42.26-107.593 25.58-109.7 19.79c-1.064-1.79-2.532-4.969-5.924-7.57-5.325-3.78-8.52-4.437-12.822-5.53l-.053-.014v-6.4c3.602-.602 8.333-.395 12.756 2.36 8.86 5.812 9.509 15.04 8.44 17.517 1.254 3.38 3.328 9.173 5.848 16.662l.829-7.277c-1.54-4.179-3.927-12.22-1.931-17.677q.285-.727.63-1.395C-97.929 1.972-86.856.27-86.856.27l-.125.224c.144.447 2.367 7.526.865 13.511-1.469 5.854-10.436 12.47-12.916 17.288l-1.086 9.535a850 850 0 0 1 7.07 22.393 271 271 0 0 1 12.667-3.046c-4.736-1.81-8.735-3.611-9.654-4.958l-.03-.041a9.4 9.4 0 0 1-1.064-1.83c-.53-1.225-.667-2.392-.496-3.505.12-.805.396-1.586.803-2.342l.132-.202q.016-.02.028-.041c.345-.583.767-1.147 1.248-1.697.85-1.03 1.873-2.022 3.136-2.856 5.388-3.956 18.015-6.62 26.614 4.493.723.935 1.367 1.88 1.942 2.826 1.243-3.904 2.657-6.54 3.445-6.781.95-.213 4.196 1.478 7.907 4.504a20.7 20.7 0 0 1 5.94-2.901c.072-1.062.224-2.209.472-3.445.282-1.314.642-2.53 1.057-3.65-1.761-4.516-2.44-8.338-4.401-11.217-2.841-4.167-4.414-3.47-3.948-4.605.473-1.994 10.852-1.235 16.366 3.534a31 31 0 0 1 1.879 1.715c.805.232 2.102 1.615 3.292 3.77 3.069 4.06 5.243 8.677 6.395 12.952l.161-.044c.172-1.62.362-3.017.536-4.147-2.779-3.239-4.664-6.357-4.962-7.248.228.024.68.063 1.327.083-.732-2.832-.988-6.284-.247-9.65 1.83-8.305 10.467-18.482 12.096-17.99s5.939 8.793 2.975 20.099c-.651 2.362-1.466 4.342-2.354 5.998 4.053-.718 8.024-1.144 10.994-.043 1.946.697 3.749 1.753 5.33 2.903-.807-1.846-1.385-3.954-1.516-6.163-.655-7.919 4.07-18.933 5.768-18.971 1.51-.034 6.49 4.711 7.796 13.19 7.114-6.34 20.185-10.65 21.497-8.955 1.04 1.146.473 8.307-4.745 15.75.66.419 1.288.875 1.866 1.372a33.6 33.6 0 0 1 4.611 4.887c3.493 1.757 7.941 4.78 10.485 9.547.696-2.022 1.316-3.64 1.743-4.71a.7.7 0 0 1-.325-.045l.062.33c-1.497-.694-6.956-12.34-3.49-21.013 2.797-6.806 10.315-7.636 12.925-7.364 2.478.474 7.519 7.236 5.578 13.163-2.421 8.009-11.99 14.534-14.59 14.913-.457 1.14-.85 3.023-1.62 5.283.473.966.866 2 1.16 3.108 3.44-4.871 8.59-10.365 14.892-11.597 11.84-2.315 20.258 6.95 20.258 6.95-5.898 1.025-11.126 2.218-15.695 3.456 1.046.93 2.297 2.713 3.294 5.01 5.55-1.45 9.789-.146 10.628 1.028.558.781.377 3.47-.848 6.65q.208.4.397.831c.407.885.733 1.809.987 2.758 4.445-.139 9.156.477 13.647 2.324a905 905 0 0 0 8.286-17.355c.527-2.088 1.643-5.384 1.091-9.422l.196.128c-.927-6.656-2.668-9.527-4.924-13.311-1.803-3.2-2.236-6.363-1.38-7.242l.047-.037c1.115-.71 10.67 3.461 12.583 13.506 2.056 10.042-3.532 17.095-6.195 18.585-1.463 3.24-4.103 8.871-7.654 16.088l.102.051 5.954-4.906c1.989-4.267 5.925-11.404 10.866-13.69 9.22-4.294 18.608 2.983 18.656 3.02 0 0-1.616 3.024-4.304 6.116 1.69 3.672 2.938 8.047 2.853 12.231-.041 3.608-.526 7.235-1.35 10.757.158.504.242 1.22.228 2.106 2.416 1.545 4.65 3.743 6.449 6.81 3.723-3.84 6.645-6.866 8.343-8.65-2.137-3.139-7.017-16.378-5.306-28.004 1.485-10.548 7.889-14.03 10.385-14.365l-.015-.148.195.127c2.352-.184 7.776 7.694 6.789 16.84-.62 6.792-3.195 13.576-5.759 18.545 3.854-4.418 7.025-8.3 9.492-11.489a70 70 0 0 1 2.622-3.23c-1.337-1.998-2.429-6.702 3.71-12.779 5.677-5.763 11.616-5.949 13.222-5.14l.142.08c1.365.895 1.164 9.692-4.432 15.24l-.514.532c-4.537 4.57-8.12 4.86-10.434 3.581a120 120 0 0 0-2.499 3.197c-3.695 4.776-8.908 11.439-15.889 18.67a999 999 0 0 1-6.065 6.286c3.24-1.197 6.514-1.45 8.879-1.398 1.229-2.53 5.937-8.57 14.539-10.5 10.469-2.351 16.485 5.05 17.753 9.915l-.133.201c.948 4.078.461 7.791-3.924 8.947-1.963.441-8.347-1.73-14.208-3.846-4.711-1.602-9.209-2.466-11.875-2.999-2.344-.284-8.701-.654-13.824 2.7l.095.212a30.7 30.7 0 0 1 2.392 9.07c3.945-2.198 7.344-3.815 9.027-3.966 8.713-4.34 17-1.37 18.515.704 1.421 2.084.344 14.339-8.126 20.016.779.512 1.692.822 2.471 1.333l.156.104c5.156-.756 7.589 1.23 7.605 1.243-.013.012-1.14.973-2.209 3.392 3.339 3.568 5.971 7.808 7.845 11.745a16 16 0 0 0 1.503-.95c5.254-3.754 4.551-5.656 5.985-5.291a.96.96 0 0 1 .479.282c2.02.693 1.533 8.97-1.736 16.088 4.202-.58 7.893-.338 8.047.469.578 1.243-1.886 7.116-8.386 11.493 7.81 3.395 15.963 13.062 14.907 14.674q-.019.026-.041.054c3.438.264 6.839.999 9.984 1.983 3.637-5.114 7.297-8.251 9.275-12.187 2.72-5.416 1.098-6.768 2.407-7.062 2.422-.715 7.429 10.346 5.989 18.907-.501 2.982-1.355 5.907-2.466 8.698.236.334.362.628.366.869.047.746-1.058 2.505-3.006 4.692-2.232 4.028-4.937 7.586-7.748 10.368a102 102 0 0 1 6.368-2.964c-1.113-2.793 5.044-11.316 13.678-14.354 9.432-3.319 24.371-1.009 24.942 1.094s-5.253 11.82-18.346 15.617c-11.784 3.504-18.217-.714-19.777-1.737a1.2 1.2 0 0 1-.224-.188c-1.739.732-3.791 2.639-6.785 4.183 1.072 2.305 1.705 4.438 2.938 6.872 1.02 2.013 3.119 4.419 4.81 6.976 3.122-.773 5.532-.803 5.912.056.35 1.018-1.25.758-3.65 4.578.354 1.353.375 2.707-.134 4.032-.316 1-1.079 1.881-2.445 2.571l.195.128a2.2 2.2 0 0 1-.619.19c-.675 2.288-1.32 4.822-2.383 7.645 7.427-1.027 14.67-.29 15.276 1.079.654 1.768-3.492 10.843-14.347 16.484 2.55 1.89 4.295 4.17 5.333 6.172a5.4 5.4 0 0 1 .405-1.036 6 6 0 0 1 .016-.468c.017.018 1.319 1.427 4.95 1.805l-.132.202c2.885.3 7.536-1.292 10.374.669.844.522 1.543 1.33 2.01 2.557 2.048 5.376-4.711 9.296-4.405 11.802l-.132.201c.006.021.279 1.084.383 2.656l.014.008c1.976-.293 3.593-.54 4.748-.73 2.687-.46 5.569-1.002 8.505-1.586.659-3.843.123-6.154 4.558-14.905 4.051-8.225 8.946-14.546 9.868-18.193l.076-.344c4.86 4.915 9.553 14.331 4.049 24.834-1.325 2.516-3.058 4.365-4.936 5.722a885 885 0 0 0 13.156-3.04c3.558-3.191 6.827-12.653 11.541-15.356 4.306-2.468 10.094-2.642 11.474-2.646l.303.002s1.353 10.68-5.809 16.064c-3.289 2.536-8.839 2.905-12.905 2.771-.139.11-.312.196-.509.24-.125-.072-7.974 1.823-17.672 3.958 2.607.831 5.384 2.012 7.287 2.881 5.173-.898 16.086-1.936 22.124 3.74 8.236 7.419 6.052 19.237 6.052 19.237-12.087-11.572-21.842-17.655-27.011-20.428-1.809-.693-8.534-3.812-12.556-4.537-5.836 1.254-12.018 2.51-17.413 3.433-.85.14-1.949.311-3.258.508-.341.258-1.002.819-1.804 1.818-.399 2.765-1.583 5.502-2.971 5.655a1 1 0 0 1-.196.009c-1.738 4.565-1.308 12.121-5.3 16.151.088.74.131 1.48.125 2.209-.236 9.333-4.485 18.705-9.407 24.358a98 98 0 0 1 11.74-4.963l-.004-.01.132-.201c-.64-1.574 5.268-13.54 13.718-16.638 6.877-2.402 12.189 3.098 13.478 5.383 1.093 2.157-.736 10.463-6.701 13.175-7.999 3.61-19.255.029-20.522-1.538-2.478.851-7.213 2.874-12.668 5.703q-.315.328-.632.636c5.216-1.132 17.886-3.065 24.877 2.87 3.455 2.933 5.327 6.629 6.325 10.063 5.559-1.448 11.428-.146 11.428-.146l-.019.288.214-.161c-.001.039-.437 12.116-9.409 16.872-4.859 2.491-12.557 1.257-16.988.211l-1.605.359c5.143 2.143 9.244 3.799 11.96 4.009q-.403.504-.838 1.018l.124.029c3.051-1.218 11.596-1.151 17.701 6.638 6.468 7.987 3.184 18.506 2.203 18.726-1.309.294-3.509-2.301-4.658-5.647-1.275-4.004-2.424-7.351-6.761-12.212-3.3-3.44-7.118-4.239-8.833-5.194l-1.553-.353c-2.916 3.07-6.636 6.104-11.124 8.145.214 1.126.297 2.207.169 3.27a54 54 0 0 1 4.934 2.578c3.836.511 6.939 1.701 7.625 2.858l.005-.065-.063-.33c.258.457.321.787.321.787-.015.264-.078.433-.203.558-.148.361-.533.435-1.268.65 2.671 2.204 4.235 4.093 4.166 4.88-.219 1.668-7.289 7.384-16.354 11.024q.855.446 1.758 1.005c8.382 5.498 10.152 12.995 9.157 14.935-.944 1.437-8.652 3.709-16.261.889a145 145 0 0 1-.705 5.948c2.86 1.295 4.657 2.58 4.737 3.288l-.132.202c.071.632-.901 2.381-2.652 4.605.712.201 1.347.598 1.887 1.23a6 6 0 0 1 .348.451l.07.083c2.53-1.565 5.266-2.98 7.97-3.962 9.696-3.722 16.803-2.228 22.372-4.337s5.387-3.955 6.689-3.389c1.949 1.278-1.995 12.805-9.157 18.189-7.706 5.623-17.468 8.397-25.396 8.584l-.134.217a94 94 0 0 1 5.866 2.206c1.184-2.866 11.458-4.701 19.387-.82 8.848 4.364 17.503 16.665 16.376 18.806-1.19 1.812-11.729 4.693-23.697-1.716-10.665-5.843-11.975-13.616-12.483-15.39l.326-.072a1.4 1.4 0 0 1-.022-.273c-1.518-.635-3.883-.661-6.521-1.547a41 41 0 0 1-2.518 3.384c-.437 1.102-.862 2.225-1.233 3.493-1.343 4.592-.896 14.102-6.401 16.539l-.127-.083c-.856.359-1.889.383-3.138-.042a1.6 1.6 0 0 1-.315-.14c-1.665 2.53-3.803 5.061-6.504 7.098a37 37 0 0 1 4.683-1.158c10.399-1.82 16.908 1.009 22.665-.112 5.951-.993 5.903-3.041 7.072-2.274 1.817 1.48-4.474 12.332-12.276 16.143-10.271 5.017-22.599 5.44-30.685 2.938a123 123 0 0 1 12.097 10.597q.104-.347.261-.496l-.132.201c1.447-1.354 16.344-1.953 23.536 5.357 5.765 6.085 2.76 14.482 1.173 16.898s-11.012 4.875-16.526.106c-7.017-5.911-9.125-18.596-8.364-21.876-2.126-2.142-6.976-6.536-13.135-11.15l-.196-.074c3.398 4.323 12.198 16.882 9.457 27.954-3.367 13.601-17.205 18.614-17.261 18.634 7.42-26.2 6.916-42.823 6.616-47.067a21 21 0 0 1-.518-.237 69 69 0 0 1-.95 3.203 42 42 0 0 1-2.961 7.227c-3.763 6.998-8.253 7.52-8.29 7.524.706-.312 1.743-.873 2.923-1.855-1.435.898-2.489 1.089-2.687 1.118q-.082.107-.166.207s.011-.132 0-.387l-.064.058c-.033-.022-.008-.092.057-.209-.076-1.073-.542-3.706-3.065-7.525-.243-.34-.518-.679-.817-1.02a130 130 0 0 1-3.15 2.927q-.294 1.123-.703 2.23a26 26 0 0 1-1.146 2.506c6.175 6.73 10.834 12.625 14.466 14.584-7.167 3.902-18.478 6.506-28.907 1.606-.81.454-1.421.632-1.743.469-.46-.231-1.026-1.03-1.541-2.29a30 30 0 0 1-3.694-2.811 96 96 0 0 1-3.051 1.516c-1.89 6.868-4.735 11.8-5.272 16.584-.639 6.493 1.38 7.242.196 8.194-2.234 1.702-11.758-8.001-13.382-17.419q-.075-.437-.141-.874a94 94 0 0 1-1.194.26c-2.957 1.909-5.198 2.934-5.215 2.942-.01-.014-.309-.463-.763-1.265-1.491 1.066-2.787 1.51-3.483 1.361-.416-.069-1.03-.591-1.7-1.468a82 82 0 0 1-6.509.204c.318.174.462.367.44.777-.112 1.264-3.396 2.279-7.595 2.405-.102 2.75-.553 4.635-1.217 5.065-1.095.782-7.383.264-14.437-2.184 43.561 39.997 66.469 70.741 58.474 82.914-15.449 23.518-140.42-31.139-283.819-122.938V73.557a6.6 6.6 0 0 1 1.024.02q.186.021.37.045c.125-3.58.539-6.668.54-9.452a11 11 0 0 1-1.383-.808m250.542-.046c-2.239 3.864-5.183 8.121-7.581 13.998q-.279-.45-.58-.9c-2.722-3.972-5.905-6.863-9.312-8.907l3.145-2.593-.079.203q.137-.173.279-.348c3.2-1.337 8.995-.992 14.128-1.453M26.825 37.127c.402 1.327.816 2.741 1.332 4.233q-.694-.27-1.35-.452-.36-.494-.744-.953-.652-.811-1.364-1.52 1.037-.575 2.126-1.308m-44.9 3.204c.82.92 1.707 1.839 2.647 2.709q-1.347.23-2.68.55c.134-1.222-.105-2.327.032-3.259m246.474 222.206c1.756 4.856 3.377 5.844 5.475 10.792q-.156.147-.318.293-.5.024-1.028.074c-4.512.498-7.427 1.318-10.409 2.239.952-.86 1.516-1.56 1.589-1.975l.132-.201c.214-.778-1.315-2.842-3.976-5.219a22.9 22.9 0 0 0 5.321-2.942c1.44-1.045 2.548-2.138 3.214-3.061m-14.734 30.748c.912.971 1.839 2.222 2.853 3.505-.87-.009-1.677.005-2.434.037a171 171 0 0 1-.419-3.542m12.386 38.51a42 42 0 0 0-5.299.186c.144-.756.25-1.574.3-2.445l.03-.026c1.04.418 2.727 1.148 4.969 2.285m15.851 9.852a157 157 0 0 1 4.916 3.722c-4.215 4.104-8.14 10.291-11.545 12.124l.047.014-.962.216a313 313 0 0 0-5.158-2.103c-.111-2.368.482-3.702.487-3.713 0 0-1.99-.447-5.021.76a609 609 0 0 0-.617-3.275l.041-.004c7.148-.899 13.708-4.572 17.812-7.741" clip-rule="evenodd"/><path fill="url(#c)" fill-rule="evenodd" d="m-90.7 47.325.016-.03-.006.002z" clip-rule="evenodd"/><path fill="url(#d)" d="m-23.754 32.441.17.018q-.053-.16-.038-.22z"/><defs><linearGradient id="a" x1="-114.47" x2="250.274" y1="378.048" y2="-29.86" gradientUnits="userSpaceOnUse"><stop stop-color="#deecfb"/><stop offset="1" stop-color="#9bc9e6"/></linearGradient><linearGradient id="b" x1="-114.47" x2="250.274" y1="378.048" y2="-29.86" gradientUnits="userSpaceOnUse"><stop stop-color="#deecfb"/><stop offset="1" stop-color="#9bc9e6"/></linearGradient><linearGradient id="c" x1="-114.47" x2="250.274" y1="378.048" y2="-29.86" gradientUnits="userSpaceOnUse"><stop stop-color="#deecfb"/><stop offset="1" stop-color="#9bc9e6"/></linearGradient><linearGradient id="d" x1="-114.47" x2="250.274" y1="378.048" y2="-29.86" gradientUnits="userSpaceOnUse"><stop stop-color="#deecfb"/><stop offset="1" stop-color="#9bc9e6"/></linearGradient></defs></svg>