<svg width="997" height="595" viewBox="0 0 997 595" fill="none" xmlns="http://www.w3.org/2000/svg">
<path d="M914.776 436.151C914.758 436.157 914.739 436.162 914.72 436.167L914.613 436.06C914.619 436.063 914.676 436.095 914.776 436.151Z" fill="#8AB4D0"/>
<path fill-rule="evenodd" clip-rule="evenodd" d="M76.3048 0C75.5194 2.50599 76.3184 7.78754 76.4972 14.0664C78.0474 12.9859 79.2646 12.4449 79.6935 12.6162C80.7124 12.9368 83.4416 18.6182 83.9855 24.9248C84.0064 24.9757 84.0277 25.0267 84.048 25.0781C84.1792 25.4323 84.2887 25.7996 84.3771 26.1777C84.8408 26.2614 85.3091 26.3503 85.7814 26.4424C91.7005 23.7585 98.7485 23.6053 101.002 24.3418C101.336 24.4407 101.579 24.5565 101.714 24.6865C101.72 24.6794 101.726 24.6721 101.732 24.665C107.524 17.8977 119.388 15.5479 120.519 16.7021L120.486 16.8066C121.477 17.8929 121.374 29.6372 115.633 36.168C118.483 37.5057 121.148 38.8808 123.742 40.2783C125.614 39.809 129.079 39.8983 132.152 40.9111C131.668 40.1168 131.291 39.2471 131.07 38.3115C129.19 30.4004 133.99 20.5762 135.303 20.415L135.407 20.4482C136.825 20.32 145.816 27.1392 147.076 35.1992C147.736 39.2612 145.962 42.2491 144.033 44.0986C146.223 43.5981 148.963 43.404 151.597 44.4004C151.742 42.8878 151.963 41.7165 152.313 41.1865C154.265 38.2511 157.047 38.8926 159.679 40.7461C162.767 42.9716 166.626 49.3286 162.152 56.2803C161.815 56.8201 161.461 57.3195 161.094 57.7832C161.899 58.0411 162.72 58.2979 163.559 58.5518C167.118 58.7282 169.804 59.4714 170.119 60.1475C170.157 60.2291 170.179 60.3425 170.186 60.4834C170.595 60.5989 171.009 60.7145 171.426 60.8311C170.824 57.2188 170.404 53.8317 170.812 52.8125C171.96 49.8019 174.404 49.6596 177.001 50.5605C176.927 49.2294 176.804 48.0225 176.447 46.9111C175.344 43.477 174.064 43.5337 174.534 42.7656C175.305 41.4053 182.35 44.1831 185.445 48.584C189.062 53.8674 190.491 60.6421 190.08 65.7773C190.236 65.8172 190.393 65.8575 190.55 65.8975C192.346 62.7196 194.082 60.189 195.068 58.8184C195.036 58.8068 195.009 58.7945 194.986 58.7793L195.019 58.6748C194.105 57.9309 192.342 48.9124 196.155 43.6992C199.192 39.5017 204.612 40.5115 206.219 41.2432C207.825 41.9753 210.214 47.5288 207.863 51.3691C204.714 56.5626 196.821 59.1405 195.196 58.8525C194.223 60.2032 192.667 62.8062 190.869 65.9785C191.1 66.0374 191.332 66.0962 191.565 66.1553C194.7 63.1241 200.206 58.8257 205.832 59.3145C208.555 59.5094 210.844 60.4555 212.698 61.6523C213.748 59.9834 215.843 59.6755 218.153 60.0137L218.448 60.0605C218.859 60.1258 219.301 60.2327 219.761 60.3828C221.753 61.0085 224.111 62.4467 225.741 64.7744C227.312 63.1308 228.809 62.1609 229.263 62.5303C229.824 62.9349 228.759 63.4036 228.681 66.582C228.651 67.8005 228.927 69.0142 229.268 70.3662C230.946 70.8967 233.719 72.6204 235.454 75.46C236.145 75.0224 236.9 74.64 237.725 74.333C238.128 74.1779 238.55 74.0533 238.987 73.9561C242.763 70.5564 247.542 68.3543 250.55 67.5342C249.821 65.3599 249.514 62.3511 250.289 59.5029C251.811 53.9161 257.987 47.3842 259.138 47.7422C260.392 48.1347 263.029 53.9948 260.646 61.6006C258.876 67.2483 255.66 69.3566 254.036 70.207C254.129 71.3156 254.152 72.6746 254.065 74.1709C256.165 72.7211 263.464 72.6169 267.41 76.9902C268.73 78.4705 269.778 80.2218 270.597 82.0596C273.382 80.9576 275.584 80.5717 276.036 80.9492L276.004 81.0537C276.235 81.2476 276.454 81.9579 276.602 83.0234C276.822 80.6354 277.435 78.8176 278.074 78.8418C278.766 78.8301 278.127 79.7738 280.046 82.4336C281.4 84.2066 283.443 85.3697 285.694 87.4521C286.331 87.1502 286.88 86.9479 287.288 86.8584C287.105 80.2261 286.85 75.2579 286.729 72.9697C286.382 71.643 286.076 69.3573 284.5 67.124L284.396 67.0908C281.836 63.5438 279.877 62.4731 277.461 61.0303C275.43 59.8224 274.15 58.048 274.346 57.4229C274.346 57.4229 274.374 57.4519 274.439 57.5078C274.442 57.4901 274.445 57.4723 274.45 57.4561C274.647 56.831 281.732 56.1893 286.087 61.3281C290.426 66.4827 289.262 72.2332 288.135 73.7617C288.268 76.1586 288.458 80.2736 288.612 85.5615L290.621 80.8057C290.421 77.8541 290.414 72.4156 292.683 69.5713C296.697 64.4344 304.385 65.8018 304.417 65.8076C304.418 65.8313 304.575 70.7877 302.432 74.3398C300.529 77.6842 293.836 79.8263 291.312 82.2793L288.752 88.3418C288.894 88.7535 289.033 89.2367 289.16 89.7754C290.722 88.793 292.384 88.002 293.734 87.5156C294.118 87.0419 294.438 86.7749 294.634 86.7715C294.767 86.7692 294.987 86.8719 295.272 87.0654C295.894 86.9392 296.329 86.9489 296.476 87.1201C296.651 87.289 296.778 87.7456 296.8 88.4092C297.559 89.1901 298.415 90.2155 299.222 91.4062C299.439 90.976 299.674 90.6586 299.897 90.4795C300.723 89.8683 304.271 89.836 307.478 91.4629C307.488 89.4898 307.553 87.4611 307.686 85.3945C306.657 83.0358 305.461 76.3006 307.988 71.6172C308.611 70.4704 309.407 69.6304 310.272 69.0234C310.297 68.9291 310.322 68.8346 310.348 68.7402C309.999 66.6049 309.537 64.2609 308.9 62.1621C308.89 62.1682 308.884 62.1719 308.884 62.1719C307.591 59.7078 306.298 59.0739 304.861 52.6748C303.575 46.8948 303.511 41.6111 302.434 39.5576C306.874 40.0326 313.194 42.9277 314.578 50.2256C315.698 55.9432 311.727 59.9312 309.833 61.4688C310.346 63.0313 310.739 64.6814 311.054 66.2861C312.583 61.3188 314.695 56.4274 317.559 51.8281C316.783 50.2475 316.643 46.5843 318.262 43.5986C320.437 39.5885 326.249 35.6867 327.124 36.1895C327.811 36.5851 328.551 39.7498 327.308 43.6602C326.967 44.7587 326.47 45.9181 325.772 47.0928C323.118 51.5219 319.927 52.3969 318.761 52.6553C315.714 57.5614 313.537 62.8055 312.017 68.1152C314.091 67.3527 316.184 67.5467 317.092 67.8311L317.229 67.7598C317.226 67.7642 317.207 67.7982 317.171 67.8584C318.743 68.4879 321.184 73.4199 319.521 77.2871C317.27 82.2426 311.237 85.7543 309.064 86.1777C308.943 88.2723 308.892 90.3254 308.897 92.3174C309.794 92.9544 310.621 93.7513 311.298 94.7354C311.461 94.2144 311.625 93.6925 311.82 93.0674C316.222 85.9795 326.813 82.2026 327.904 83.1152C328.985 84.0211 330.192 95.2966 325.356 102.106C326.785 102.648 328.229 103.207 329.688 103.783C331.124 99.6702 333.826 96.4209 333.833 96.4121C333.833 96.4121 342.371 100.989 343.05 109.079C343.469 108.903 343.883 108.744 344.282 108.602C343.133 104.605 343.263 100.765 343.844 100.348L343.812 100.451C344.702 99.8148 353.496 101.768 357.335 107.088C359.107 109.522 359.135 111.998 358.616 113.892C358.632 113.899 358.641 113.903 358.641 113.903L358.64 113.905C359.475 113.217 360.502 112.539 361.685 112.076C363.033 109.264 364.464 107.388 365.06 107.333C366.133 107.266 371.093 111.376 374.213 116.987C374.885 117.73 375.299 118.287 375.341 118.428C375.345 118.435 375.345 118.442 375.344 118.447L375.236 118.394L375.236 118.396C375.285 118.473 375.311 118.526 375.312 118.551L375.239 118.414C375.234 118.414 375.133 118.412 374.95 118.417C375.878 120.37 376.546 122.466 376.741 124.604C376.746 124.658 376.75 124.713 376.754 124.767C376.802 124.789 376.85 124.811 376.898 124.833C377.126 119.135 378.868 114.245 379.85 113.917C379.902 113.881 379.952 113.855 380 113.841C380.516 113.659 382.507 114.626 384.891 116.173C383.691 115.406 382.62 114.828 381.805 114.5C383.428 115.275 385.777 116.769 388.079 118.801C391.402 118.733 395.066 119.23 398.102 120.88C404.22 124.054 404.03 130.517 403.409 132.496C403.253 132.996 402.721 133.575 401.926 134.122C402.014 134.182 402.101 134.242 402.186 134.305C403.1 134.021 403.995 133.798 404.853 133.669C404.37 132.24 404.485 130.362 404.352 128.34C404.699 128.743 405.515 129.164 406.575 129.8C406.592 129.767 406.611 129.734 406.631 129.699C406.626 126.47 405.887 124.635 408.518 116.933C410.941 109.568 414.291 103.637 414.474 100.491C419.11 104.002 424.372 111.371 421.048 120.513C420.976 120.711 420.901 120.905 420.822 121.096C425.774 119.924 429.474 120.56 432.489 119.518C435.963 118.317 435.904 117.041 436.675 117.511C438.039 118.281 435.336 125.443 430.928 128.525C426.307 131.812 420.485 133.371 415.626 133.453C415.996 133.691 416.37 133.962 416.737 134.266C416.408 134.006 416.073 133.776 415.741 133.572C417.42 134.671 419.185 136.449 420.081 138.974C420.084 138.981 420.086 138.988 420.088 138.995C424.564 131.638 434.885 127.409 436.387 128.045C436.459 128.062 436.518 128.085 436.564 128.116C437.021 128.489 437.543 130.483 437.804 133.31C437.68 132.105 437.503 131.073 437.301 130.286C438.058 133.949 438.259 141.363 435.455 147.008C436.479 147.803 437.068 148.481 437.059 148.865C437.055 149.036 436.948 149.291 436.751 149.608C438.022 149.877 439.278 150.249 440.486 150.739C440.866 150.887 441.239 151.063 441.604 151.26C441.788 150.487 441.889 149.807 441.878 149.23C443.718 150.507 445.67 152.34 447.209 154.633C447.483 154.637 447.754 154.645 448.02 154.658C449.095 151.913 450.325 150.059 450.929 150.004C451.005 149.997 451.103 150.013 451.22 150.049C451.645 147.074 452.669 144.634 453.391 144.711C454.05 144.803 453.306 145.714 454.951 148.518C456.492 151.288 459.744 152.993 462.571 157.883C463.494 159.567 464.247 161.572 464.809 163.489C465.937 163.899 467.064 164.304 468.191 164.702C467.609 162.334 467.637 159.687 468.86 159.05C469.845 158.536 470.865 159.792 472.772 162.03C474.357 160.537 476.236 159.311 478.168 158.336C478.13 158.313 478.092 158.291 478.054 158.268C476.48 159.262 470.994 158.46 467.331 155.14C463.035 151.278 459.967 142.766 460.92 141.92C461.874 141.074 468.352 141.271 473.928 146.907C478.975 152.034 478.609 156.495 478.596 157.636L479.13 157.873C480.205 157.379 481.283 156.959 482.324 156.611C483.115 153.582 486.077 149.092 490.703 147.926C499.42 145.735 510.351 150.758 510.555 152.31C510.757 153.861 503.26 163.87 494.392 165.441C493.909 165.519 493.562 165.525 493.216 165.531C493.755 166.306 494.26 167.135 494.701 167.998C496.196 168.57 497.714 169.34 499.043 170.338C499.353 170.403 499.679 170.476 500.016 170.562C503.592 167.621 508.087 165.529 509.531 165.604C509.434 165.574 509.251 165.517 509.176 165.493C509.522 165.487 509.763 165.449 509.94 165.618C510.588 166.197 511.031 169.332 509.768 173.254C509.519 174.058 509.199 174.897 508.794 175.756C509.018 176.033 509.234 176.323 509.438 176.627C511.116 177.04 512.793 177.451 514.47 177.858C515.969 177.851 517.609 178.136 519.196 178.91C517.401 170.474 521.871 160.454 523.365 159.909C523.441 159.859 523.512 159.829 523.575 159.818C524.163 159.774 525.914 160.779 528.062 162.71C526.874 161.695 525.826 160.947 525.065 160.54C528.282 162.514 535.051 168.938 536.348 176.174C536.377 176.335 536.402 176.496 536.425 176.654C537.186 176.056 537.99 175.492 538.831 174.978C538.932 173.461 539.211 172.415 539.527 172.25C539.892 172.06 541.367 172.284 543.238 172.936C544.086 172.702 544.984 172.566 545.879 172.507C545.919 172.481 545.961 172.46 546.006 172.447C545.97 172.466 545.934 172.484 545.898 172.505C549.603 172.265 553.266 173.347 553.208 174.358C553.199 174.417 553.184 174.467 553.165 174.512C553.013 175.191 552.169 174.673 549.724 176.507C550.801 177.402 551.763 178.44 552.477 179.622C554.111 182.42 553.734 185.003 552.889 186.868C552.956 186.883 553.023 186.899 553.09 186.914C553.474 186.655 553.89 186.401 554.336 186.169C554.274 185.843 554.219 185.515 554.174 185.188C553.528 180.295 556.316 173.96 557.603 174.247C558.23 174.443 557.413 175.218 558.68 178.131C559.519 180.061 561.126 181.629 562.747 183.963C563.344 182.529 564.134 181.564 564.694 181.272C566.034 180.662 572.576 182.482 574.822 187.761C575.09 187.273 575.43 186.921 575.802 186.466C581.679 180.526 592.8 179.088 593.616 180.145C594.001 180.601 593.978 182.869 593.358 185.762C593.541 185.988 593.765 186.239 594.038 186.508C594.509 186.95 595.11 187.438 595.875 187.945L595.916 188.023C595.961 188.054 596.006 188.084 596.052 188.114C597.478 188.999 599.724 189.538 601.651 190.466C602.007 190.505 602.372 190.551 602.743 190.604C603.335 189.693 603.872 189.145 604.207 189.181C604.635 189.217 605.503 189.973 606.334 191.332C609.611 192.197 612.985 193.676 615.484 196.029C617.473 197.942 618.409 200.108 618.757 202.137C619.022 202.212 619.278 202.294 619.524 202.382C619.729 202.433 619.935 202.483 620.141 202.534C621.252 201.07 622.395 199.481 623.586 198.03C622.451 194.354 621.661 191.309 620.583 189.916C623.731 189.677 627.839 190.321 631.093 192.801C633.752 192.162 636.464 192.168 638.279 192.286C638.366 191.91 638.472 191.535 638.599 191.163C640.239 186.344 645.937 180.94 647.023 181.364C648.106 181.791 650.068 186.905 647.405 193.372C645.201 198.99 641.712 200.488 640.61 200.819C640.174 201.841 639.77 202.87 639.392 203.902C642.613 200.674 646.174 200.299 647.012 200.865C647.821 201.413 648.597 205.544 646.867 209.484C647.072 209.541 647.276 209.598 647.481 209.654C647.478 209.612 647.475 209.571 647.476 209.531C647.456 208.724 647.583 208.037 647.822 207.447C648.6 204.828 651.252 204.054 654.269 204.116L654.381 204.006C655.778 204.028 657.531 204.412 659.257 205.247C659.643 204.315 660.133 203.305 660.849 202.107C663.2 198.267 665.864 198.186 665.864 198.186C665.864 198.186 665.655 199.952 667.477 202.925C667.91 203.632 668.569 204.349 669.282 205.098C670.256 204.503 670.878 204.182 670.89 204.176C670.899 204.188 671.371 204.813 672.014 205.899C672.926 204.156 673.58 202.686 673.793 201.527C675.864 203.422 677.936 206.178 679.164 209.504C679.224 209.507 679.285 209.511 679.345 209.515C680.838 209.308 682.327 209.115 683.81 208.934C684.179 206.952 684.497 205.197 684.357 203.501C684.121 200.656 683.379 199.718 683.118 199.161C682.461 198.8 681.982 198.467 681.743 198.176C679.193 194.925 681.008 192.068 684.12 189.854C685.663 188.704 688.127 187.69 690.918 187.517C692.886 185.052 694.864 183.353 695.466 183.541C696.192 183.768 697.38 185.83 697.79 189.002C699.329 189.831 700.831 191.041 702.208 192.739C704.443 195.448 705.471 198.277 706.18 200.781C706.438 199.032 707.359 197.058 709.372 195.073C713.564 190.942 718.544 190.426 720.943 190.96C721.056 190.451 721.232 190.042 721.461 189.781L721.523 189.716L721.635 189.605L721.638 189.607C723.085 188.26 727.402 185.564 731.943 188.068L732.165 188.195C734.372 189.497 736.057 191.619 737.264 193.812C738.514 195.079 739.727 196.625 740.788 198.485C741.884 200.431 742.562 202.21 742.956 203.794C743.335 203.77 743.715 203.746 744.096 203.725C744.086 203.605 744.077 203.487 744.068 203.368C742.902 189.11 741.39 177.662 740.837 173.684C740.403 172.396 739.9 170.17 738.092 168.048C735.211 164.909 733.262 164.053 730.667 162.768C728.572 161.73 727.102 160.277 727.326 159.489L727.353 159.415C727.588 158.758 734.511 157.272 739.325 161.921C744.184 166.837 743.336 172.81 742.316 174.243C742.654 176.569 743.186 180.546 743.771 185.665L745.294 181.139C744.882 178.264 744.458 172.812 746.477 169.605C746.663 169.322 746.862 169.055 747.069 168.802C750.781 163.933 758.079 164.362 758.079 164.362C758.079 164.362 758.041 164.406 757.969 164.488C758 164.797 758.449 169.611 756.674 173.22C754.937 176.751 748.312 179.743 746.071 182.476L744.076 188.405C744.552 192.772 745.047 197.804 745.492 203.245C745.504 203.379 745.515 203.513 745.526 203.648C748.326 203.512 751.161 203.44 754.024 203.438C751.25 201.637 748.944 199.942 748.542 198.958C748.538 198.948 748.533 198.937 748.528 198.927C748.323 198.469 748.183 198.033 748.1 197.616C747.928 196.762 748.001 195.999 748.262 195.312C748.448 194.816 748.732 194.356 749.095 193.93L749.206 193.819C749.203 193.824 749.2 193.83 749.196 193.835C749.201 193.829 749.206 193.824 749.211 193.818L749.206 193.819C749.214 193.812 749.223 193.804 749.231 193.796C749.53 193.472 749.876 193.17 750.258 192.886C750.941 192.346 751.729 191.852 752.65 191.493C756.627 189.708 765.046 189.737 769.014 197.997C769.347 198.692 769.63 199.382 769.867 200.064C771.194 197.746 772.456 196.258 772.991 196.212C773.626 196.206 775.467 197.728 777.421 200.165C778.879 199.547 780.3 199.234 781.607 199.128C781.798 198.461 782.051 197.75 782.378 196.996C782.738 196.197 783.134 195.471 783.552 194.814C783.045 191.694 783.135 189.164 782.276 187.061C781.034 184.016 779.934 184.244 780.387 183.585C780.961 182.379 787.48 184.282 790.346 188.076C790.686 188.513 791.006 188.964 791.31 189.427C791.792 189.685 792.43 190.744 792.895 192.28C794.298 195.288 795.054 198.529 795.205 201.412C795.241 201.41 795.277 201.408 795.314 201.406C795.645 200.397 795.956 199.531 796.222 198.835C794.892 196.39 794.116 194.144 794.047 193.536C794.19 193.582 794.473 193.669 794.882 193.771C794.802 191.865 795.11 189.629 796.043 187.585C798.345 182.541 805.245 177.234 806.218 177.77C807.19 178.306 808.806 184.187 805.37 190.989C804.632 192.406 803.842 193.557 803.049 194.491C805.733 194.588 808.324 194.86 810.068 195.968C811.215 196.678 812.22 197.599 813.072 198.548C812.81 197.261 812.729 195.837 812.947 194.411C813.611 189.273 818.131 182.897 819.22 183.105C820.188 183.292 822.716 186.998 822.391 192.58C827.796 189.512 836.724 188.551 837.329 189.812C837.836 190.685 836.495 195.172 832.15 199.203C832.514 199.56 832.851 199.938 833.152 200.333C833.86 201.266 834.483 202.261 835.027 203.291C836.302 202.218 837.589 201.628 838.344 201.727C838.964 201.807 839.97 202.098 841.055 202.665C841.042 200.145 841.514 197.326 843.004 195.107C843.492 194.396 844.052 193.83 844.651 193.381C844.661 190.613 844.508 187.819 844.161 185.014L844.156 185.012L844.159 185.003C844.154 184.962 844.149 184.921 844.144 184.88C843.202 184.325 839.9 181.972 839.2 175.565C838.443 168.464 841.99 163.739 843.061 163.616C844.236 163.528 848.486 170.464 848.793 175.708C849.013 179.467 847.256 183.136 845.727 184.541C846.065 187.198 846.232 189.846 846.254 192.471C846.64 192.311 847.03 192.186 847.418 192.091C847.298 189.666 847.794 186.934 849.649 184.328C854.71 177.332 862.677 177.537 867.587 179.074C865.334 180.772 862.735 186.137 858.581 191.701C856.948 193.896 855.689 195.311 854.631 196.314C854.978 197.942 854.921 199.784 854.017 201.335C852.235 204.559 848.465 206.904 845.679 208.054C845.798 208.448 845.895 208.864 845.962 209.303C846.906 208.389 847.835 207.94 848.36 207.837C848.407 207.828 848.458 207.826 848.511 207.828C848.502 207.787 848.497 207.766 848.497 207.766C848.963 207.691 849.7 208.116 850.493 208.918C851.096 208.816 851.705 208.765 852.317 208.776C855.492 208.834 858.054 210.018 859.981 211.409C863.158 207.594 866.988 207.04 867.814 207.635C868.689 208.138 869.341 213.376 866.266 217.333C864.256 220.031 862.354 220.878 860.857 220.853C861.395 221.174 861.741 221.509 861.862 221.788C862.111 222.363 861.628 224.052 860.412 225.912C860.464 226.101 860.511 226.295 860.552 226.495C860.691 227.115 860.772 227.748 860.805 228.388C863.66 228.907 866.581 229.945 869.194 231.736C872.914 227.01 875.603 223.464 876.852 221.805C877.473 220.545 878.636 218.597 878.836 215.947L878.943 216.056C879.261 211.685 878.543 209.617 877.621 206.896C876.908 204.61 877.063 202.534 877.73 202.091L877.765 202.073C878.573 201.773 884.099 205.74 883.947 212.405C883.887 219.088 879.358 222.82 877.455 223.406C876.079 225.271 873.626 228.501 870.374 232.615C870.393 232.631 870.413 232.647 870.432 232.663L874.901 230.349C876.752 227.901 880.239 223.889 883.703 223.107C890.172 221.63 895.168 227.553 895.193 227.584C895.193 227.584 893.749 229.291 891.611 230.895C892.188 233.467 892.386 236.426 891.76 239.082C891.241 241.377 890.436 243.622 889.429 245.755C889.461 246.098 889.417 246.566 889.287 247.129C890.617 248.444 891.742 250.151 892.47 252.352C895.37 250.413 897.648 248.884 898.975 247.979C898.04 245.686 896.737 236.578 899.417 229.399C901.806 222.879 906.367 221.535 908.005 221.662C908.012 221.601 908.015 221.569 908.016 221.565L908.122 221.673C909.648 221.877 912.033 227.641 910.153 233.337C908.83 237.582 906.259 241.556 903.944 244.373C907.007 242.084 909.561 240.042 911.57 238.347C912.329 237.696 913.04 237.136 913.685 236.646C913.105 235.188 913.051 232.04 917.797 229.006C922.206 226.108 926.021 226.802 926.936 227.536L927.015 227.607C927.763 228.365 926.433 233.946 922.106 236.717L921.704 236.986C918.186 239.278 915.86 238.974 914.559 237.843C913.949 238.331 913.27 238.901 912.527 239.538C909.517 242.078 905.281 245.613 899.839 249.269C898.801 249.976 897.172 251.07 895.11 252.446C897.341 252.126 899.464 252.414 900.966 252.77C902.095 251.325 905.925 248.118 911.677 248.063C918.677 247.997 921.503 253.538 921.648 256.812L921.536 256.923C921.583 259.652 920.765 261.952 917.81 262.09C916.497 262.102 912.721 259.846 909.271 257.695C906.484 256.03 903.733 254.864 902.105 254.159C900.648 253.658 896.642 252.553 892.916 253.99C892.927 254.039 892.937 254.089 892.947 254.139C893.394 256.329 893.429 258.386 893.234 260.248C896.052 259.386 898.441 258.82 899.535 258.954C905.687 257.379 910.569 260.405 911.252 261.935C911.662 262.941 910.77 266.624 908.338 269.719C909.587 269.046 911.271 269.079 913.018 269.497C914.123 269.739 915.448 270.323 916.716 271.244C920.629 270.812 925.542 271.036 929.428 273.147C935.513 276.425 935.357 282.783 934.736 284.763C934.582 285.257 934.06 285.828 933.279 286.37C933.556 286.551 933.814 286.747 934.051 286.951C934.484 287.346 935.051 288.117 935.434 289.139C935.575 287.386 935.996 286.252 936.252 286.153C936.274 286.147 936.308 286.151 936.353 286.166C935.834 284.677 935.876 282.672 935.752 280.494C936.075 280.879 936.907 281.305 937.989 281.964C938.001 278.671 937.219 276.878 939.877 269.096C942.3 261.731 945.65 255.801 945.833 252.654C950.469 256.165 955.732 263.534 952.407 272.676C952.314 272.934 952.215 273.185 952.11 273.43C957.134 272.211 960.875 272.87 963.92 271.818C967.394 270.618 967.336 269.341 968.107 269.811C969.47 270.582 966.767 277.743 962.359 280.825C953.648 287.022 940.665 287.077 937.916 282.67C937.876 282.605 937.869 282.519 937.888 282.416C936.871 281.819 936.182 281.152 935.802 280.728C935.969 283.088 936.477 285.052 937.036 286.537C938.175 287.239 940.435 288.795 943.357 290.367C948.448 289.014 954.021 289.93 954.34 290.672L954.33 290.702C954.353 290.723 954.372 290.744 954.387 290.765L954.411 290.809C954.559 291.153 954.196 292.519 953.383 294.249C953.89 293.731 954.377 293.357 954.812 293.087C954.819 292.925 954.834 292.784 954.861 292.666C955.939 289.228 958.741 289.074 961.738 290.127C962.417 290.339 963.156 290.686 963.897 291.159C964.631 290.606 965.364 290.296 966.097 290.359C966.076 290.349 966.056 290.338 966.035 290.328C966.051 290.328 966.664 290.331 967.443 290.796C968.439 289.556 969.566 288.346 970.757 287.345C975.087 283.78 979.024 283.296 981.512 281.215C983.967 279.238 983.498 278.176 984.261 278.3C985.58 278.484 985.672 285.148 982.975 288.995C980.013 293.395 975.267 296.594 971.079 297.999C972.692 297.973 974.018 298.017 974.958 298.069C975.122 296.426 979.925 293.772 984.874 294.281C990.183 294.914 997.196 299.627 996.942 300.806C996.685 301.985 991.761 305.247 984.436 304.098C977.77 303.04 975.589 299.384 975.053 298.529C975.02 298.472 974.996 298.411 974.98 298.35C973.957 298.291 972.502 298.745 970.675 298.787C970.703 300.201 970.577 301.412 970.703 302.889C970.795 304.882 972.071 308.221 971.495 310.596C972.108 310.731 972.685 310.906 973.227 311.111C974.597 310.467 975.8 310.153 976.419 310.285L976.417 310.283L976.449 310.179C976.658 310.244 976.835 310.414 976.835 310.414C976.925 310.585 976.929 310.709 976.87 310.846C976.812 311.154 976.387 311.453 975.861 312.503C978.398 314.283 979.629 316.647 979.604 317.688C979.566 318.328 978.649 319.544 977.171 320.677C978.623 322.647 979.968 325.294 980.315 327.864C980.74 331.141 980.463 334.493 979.723 337.572C981.943 338.034 983.701 338.781 983.749 339.236C983.852 339.872 982.059 342.034 978.746 343.279C980.811 344.123 982.637 345.117 984.024 346.034C987.297 343.573 990.583 341.18 991.885 341.098C995.444 340.724 996.567 343.365 996.802 346.642C997.01 350.368 994.372 357.321 986.184 358.19L986.092 358.849C983.121 359.177 980.515 358.705 978.354 357.914C979.037 358.532 979.677 359.294 980.188 360.314C982.027 361.873 983.115 363.244 983.042 363.806L983.035 363.842C982.977 364.198 982.368 364.856 981.351 365.64C981.354 370.192 978.831 373.313 977.648 373.711C976.968 373.939 975.158 373.441 973.302 372.238C971.593 373.181 969.499 373.827 967.226 373.651C967.441 374.062 967.728 374.609 967.911 375.124C968.017 375.437 968.111 375.754 968.196 376.074C970.709 375.782 973.154 376.231 973.846 376.377L974.039 376.42C974.039 376.42 973.467 383.122 968.466 385.705C967.747 390.146 966.159 393.633 965.39 393.785C965.248 393.813 965.014 393.764 964.705 393.648C964.883 393.858 965.054 394.075 965.212 394.303C969.449 400.154 966.449 407.382 966.444 407.394C960.315 398.364 954.922 393.152 952.003 390.677C951.161 390.129 948.546 388.181 946.271 386.896C945.235 387.505 944.539 387.83 944.539 387.83L944.468 387.693L944.399 387.597C944.389 387.582 944.378 387.565 944.366 387.548C944.365 387.618 944.363 387.656 944.363 387.66C944.305 387.67 944.264 387.566 944.242 387.364C944.059 387.087 943.781 386.643 943.457 386.063C943.243 386.063 943.028 386.062 942.813 386.062C943.342 386.835 943.894 387.589 944.469 388.276C946.422 389.895 947.87 390.297 951.298 395.552C954.543 400.572 956.501 405.304 958.297 406.896C953.922 408.044 947.059 407.612 943.167 401.359C940.024 396.292 942.45 390.953 943.589 388.961C942.873 388.042 942.16 387.055 941.485 386.057C941.236 386.055 940.987 386.051 940.737 386.049C940.999 390.878 940.758 395.819 939.822 400.759C941.119 401.941 942.582 405.332 942.128 408.699C941.633 413.161 937.672 418.755 936.619 418.749L936.571 418.744C936.179 418.621 935.454 417.835 934.824 416.512C934.169 416.934 933.441 417.259 932.644 417.434C927.048 418.641 920.357 414.82 919.762 413.647C918.065 413.852 914.767 414.493 910.901 415.551C910.737 415.662 910.573 415.768 910.41 415.87C913.893 415.862 922.239 416.362 925.889 421.102C927.692 423.443 928.381 426.056 928.549 428.382C932.293 428.219 935.86 429.852 935.86 429.852C935.859 429.858 935.841 429.921 935.809 430.033C935.913 429.985 935.967 429.959 935.967 429.959C935.961 429.983 934.033 437.623 927.659 439.429C924.219 440.352 919.476 438.513 916.792 437.24L915.719 437.25C918.707 439.319 921.097 440.935 922.801 441.44C922.584 441.618 922.359 441.797 922.128 441.976C922.153 441.987 922.179 441.999 922.203 442.011C924.316 441.652 929.758 442.863 932.589 448.663C935.624 454.639 932.091 460.896 931.435 460.902C930.56 460.911 929.51 458.956 929.234 456.666C928.969 453.939 928.693 451.648 926.59 447.956C924.955 445.312 922.629 444.28 921.665 443.437C921.385 443.306 921.07 443.161 920.723 442.999C918.443 444.557 915.655 445.984 912.512 446.671C912.495 447.418 912.401 448.118 912.174 448.778C913.177 449.525 914.113 450.31 914.969 451.097C917.346 451.947 919.162 453.129 919.443 453.961C919.447 453.948 919.451 453.934 919.455 453.92L919.46 453.701C919.562 454.028 919.557 454.247 919.557 454.247C919.511 454.413 919.448 454.513 919.352 454.575C919.208 454.785 918.952 454.78 918.453 454.815C919.856 456.586 920.596 458.005 920.444 458.497C920.076 459.531 914.784 462.208 908.505 463.289C908.828 463.557 909.156 463.85 909.489 464.17C914.086 468.821 914.19 473.843 913.29 474.943C912.492 475.73 907.263 476.124 902.794 473.286C902.4 474.522 901.98 475.754 901.531 476.981C903.179 478.198 904.151 479.264 904.105 479.727L903.992 479.837C903.95 480.25 903.092 481.232 901.671 482.41C902.098 482.636 902.449 482.975 902.707 483.452C902.767 483.562 902.82 483.674 902.868 483.787C902.879 483.807 902.889 483.829 902.901 483.85C904.728 483.198 906.667 482.671 908.526 482.414C915.221 481.367 919.552 483.291 923.393 482.708C927.233 482.125 927.37 480.924 928.123 481.462C929.192 482.544 925.1 489.353 919.795 491.806C914.111 494.337 907.504 494.77 902.421 493.806C902.383 493.846 902.344 493.886 902.306 493.926C903.745 494.785 904.906 495.552 905.746 496.134C906.893 494.469 913.699 494.705 918.227 498.263C923.275 502.254 927.116 511.28 926.105 512.491C925.098 513.483 917.98 513.88 911.221 508.157C905.215 502.974 905.441 497.839 905.359 496.639L905.578 496.637C905.58 496.576 905.588 496.517 905.601 496.46C904.72 495.848 903.214 495.508 901.652 494.582C901.017 495.2 900.323 495.813 899.583 496.395C899.154 497.038 898.729 497.696 898.319 498.453C896.835 501.197 895.821 507.321 891.976 508.122L891.906 508.052C891.311 508.163 890.648 508.037 889.909 507.596C889.847 507.56 889.786 507.516 889.728 507.464C888.32 508.849 886.61 510.17 884.609 511.1C885.677 511.001 886.738 510.961 887.754 511.001C894.637 511.263 898.404 513.957 902.23 514.029C906.162 514.21 906.411 512.898 907.052 513.547C908.009 514.739 902.513 520.796 897.014 522.159C889.776 523.953 881.853 522.537 877.036 519.837C880.061 523.376 882.276 526.647 883.306 528.246C883.382 528.109 883.46 528.014 883.54 527.966L883.429 528.076C884.539 527.411 894.123 529.067 897.712 534.71C900.558 539.378 897.494 544.32 896.151 545.644C894.809 546.966 888.46 547.245 885.594 543.451C881.925 538.723 882.314 530.349 883.247 528.361C882.183 526.705 879.69 523.24 876.391 519.456C876.352 519.432 876.314 519.406 876.276 519.382C877.853 522.602 881.751 531.812 878.489 538.496C874.483 546.707 864.969 548.01 864.931 548.016C873.245 532.328 875.194 521.661 875.583 518.914C875.482 518.841 875.382 518.767 875.285 518.692C874.955 519.325 874.622 519.952 874.241 520.604C873.53 521.874 872.686 523.2 871.364 524.807C868.007 528.753 865.072 528.472 865.048 528.47C865.541 528.367 866.279 528.152 867.166 527.688C866.128 528.064 865.43 528.041 865.299 528.032C865.254 528.07 865.209 528.107 865.164 528.142C865.164 528.142 865.19 528.059 865.218 527.895C865.186 527.913 865.169 527.923 865.169 527.923C865.151 527.904 865.176 527.863 865.234 527.797C865.332 527.103 865.394 525.361 864.307 522.581C864.198 522.331 864.069 522.077 863.925 521.819C863.13 522.31 862.327 522.789 861.516 523.254C861.288 523.704 861.037 524.147 860.762 524.58C860.443 525.064 860.082 525.545 859.689 526.021C862.708 531.155 864.876 535.552 866.925 537.297C861.82 538.804 854.247 538.918 848.263 534.368C847.685 534.547 847.27 534.576 847.087 534.429C846.825 534.218 846.573 533.631 846.417 532.758C845.727 532.07 845.066 531.307 844.444 530.461C843.73 530.657 843.012 530.839 842.291 531.01C840.147 535.13 837.658 537.885 836.661 540.861C835.366 544.913 836.552 545.667 835.667 546.112C834.009 546.892 829.258 539.403 829.509 533.177C829.517 532.985 829.527 532.793 829.539 532.601C829.274 532.604 829.007 532.603 828.741 532.603C826.594 533.415 825.024 533.763 825.012 533.766C825.007 533.752 824.878 533.425 824.698 532.854C823.602 533.33 822.714 533.436 822.29 533.246C822.034 533.145 821.714 532.729 821.406 532.078C820.017 531.882 818.623 531.629 817.226 531.317C817.405 531.472 817.471 531.615 817.401 531.873C817.157 532.663 814.922 532.862 812.227 532.367C811.786 534.106 811.241 535.247 810.758 535.431C809.952 535.779 806.011 534.589 801.846 532.064C824.171 563.52 834.585 586.253 827.82 592.92C814.172 606.371 735.974 549.138 653.026 465.199C594.956 406.436 550.015 350.116 532.925 317.041C532.729 317.666 532.55 318.24 532.386 318.763C533.544 319.587 535.075 321.914 533.12 326.305C531.224 330.554 527.998 331.947 527.001 331.709L526.977 331.703L526.852 331.664C526.853 331.659 526.854 331.653 526.856 331.648C525.986 331.094 524.373 326.815 526.094 322.732C526.979 320.496 528.104 319.287 529.197 318.722C529.841 318.378 530.468 318.27 531.036 318.31C531.239 317.661 531.468 316.932 531.716 316.14C531.808 315.846 531.905 315.543 532.004 315.229C530.865 312.943 529.868 310.776 529.017 308.735C528.725 308.962 528.419 309.186 528.093 309.399C522.895 312.806 518.03 310.024 516.359 307.67C514.903 305.727 514.308 303.596 516.6 302.14C517.593 301.535 521.57 301.293 525.135 301.265C525.562 301.251 525.982 301.229 526.393 301.202C525.261 296.92 525.121 293.519 526.061 291.118C523.221 291.705 515.952 292.605 511.103 287.833C510.075 286.824 509.266 285.48 508.63 283.986C506.187 283.87 503.578 283.343 501.439 282.062L501.471 281.957L501.261 281.83C500.221 281.179 499.45 280.4 498.885 279.574C497.287 280.891 495.034 282.076 492.479 282.461C486.784 283.424 478.178 280.501 478.119 279.224C478.061 277.947 482.227 273.072 490.103 272.105C490.148 272.1 490.194 272.096 490.238 272.091C490.531 271.982 490.819 271.899 491.102 271.847C491.614 271.765 492.133 271.726 492.647 271.72C492.646 271.695 492.648 271.67 492.655 271.646L492.765 271.636C492.944 271.624 493.226 271.631 493.548 271.647C492.911 271.153 492.315 270.568 491.826 269.899C491.824 269.896 491.821 269.891 491.819 269.888C491.701 269.826 491.583 269.764 491.466 269.702C487.128 272.668 481.502 273.65 480.875 272.992C480.424 272.517 480.285 269.326 481.137 265.825C478.166 265.825 475.855 265.353 475.816 265.345C475.816 265.345 475.852 263.924 476.293 261.939C475.225 262.739 474.393 263.473 473.889 264.17C473.408 262.8 473.03 261.215 472.852 259.52C472.583 259.539 472.386 259.51 472.277 259.432C472.183 259.365 472.086 259.224 471.986 259.021C470.646 258.903 469.254 258.66 467.921 258.239C466.721 257.869 465.566 257.358 464.538 256.666C463.318 255.849 462.483 254.868 461.925 253.849C460.91 253.862 459.818 253.792 458.691 253.621C458.108 254.167 457.441 254.658 456.681 255.047C456.156 255.328 455.585 255.561 454.965 255.728C450.59 256.875 443.662 252.99 443.655 252.645L443.688 252.541L443.72 252.437C443.72 252.453 443.738 252.478 443.77 252.511C444.159 252.364 445.879 251.662 447.795 250.051C448.183 249.739 448.579 249.422 448.982 249.111C448.439 248.607 447.923 248.055 447.438 247.453C446.584 248.154 445.957 248.559 445.862 248.53C445.549 248.432 445.928 246.491 445.184 243.741C445.18 243.727 445.175 243.713 445.171 243.698C445.163 243.68 445.156 243.661 445.148 243.643C444.652 243.366 444.158 243.092 443.667 242.82C440.957 246.031 438.238 247.926 436.621 250.191C437.443 252.311 438.284 252.482 438.046 253.045C438.044 253.055 438.042 253.065 438.039 253.075C438.095 253.084 438.124 253.087 438.124 253.087C438.087 253.142 438.036 253.188 437.975 253.227C437.968 253.238 437.962 253.251 437.954 253.263C437.922 253.367 437.784 253.439 437.542 253.478L437.567 253.402C437.061 253.515 436.212 253.37 435.197 253.006C434.856 254.162 435.083 254.582 434.519 254.705C433.902 254.803 433.084 253.553 432.455 251.687C430.5 250.522 428.486 248.838 427.238 246.819L426.977 246.396C426.478 245.568 426.032 244.708 425.633 243.83C424.92 243.211 424.271 242.505 423.784 241.733C421.799 238.599 420.874 234.788 420.82 231.492C420.648 231.423 420.475 231.354 420.302 231.285C419.993 231.325 419.67 231.336 419.336 231.321C418.473 232.576 417.717 233.566 417.224 234.187L417.307 234.213C417.94 234.754 418.965 241.368 415.987 245.013C413.689 247.954 409.829 247.089 408.641 246.488C407.606 245.965 406.34 242.854 407.205 240.237C407.027 240.146 406.853 240.042 406.683 239.926L406.611 239.789C406.698 239.843 406.788 239.892 406.878 239.938C406.783 239.877 406.69 239.81 406.598 239.74C406.602 239.756 406.606 239.773 406.611 239.789C405.768 239.182 404.952 238.125 404.273 236.997C403.4 235.413 402.819 232.904 403.219 230.246C401.95 229.029 401.15 227.791 400.796 227.186C399.245 227.209 397.368 227.079 395.461 226.579C393.663 227.201 391.769 227.637 389.994 227.926C387.073 231.113 382.557 233.297 381.927 232.519C381.536 231.939 382.606 231.816 383.553 228.795C383.597 228.653 383.636 228.51 383.672 228.365C382.888 228.316 382.39 228.207 382.293 228.057C382.254 227.981 382.256 227.832 382.3 227.624C382.368 227.163 382.717 226.327 383.321 225.302C381.208 224.277 378.966 222.914 376.993 221.218C376.128 221.072 375.252 220.925 374.367 220.775C374.493 222.83 374.692 224.626 374.287 227.61C373.581 232.042 371.21 233.139 371.172 233.156C371.168 233.138 370.778 231.425 367.881 229.38C367.676 229.233 367.451 229.093 367.211 228.957C369.498 231.619 371.333 233.74 372.791 234.578C367.508 237.158 358.601 238.489 351.96 231.49C351.803 231.325 351.652 231.157 351.507 230.988C350.347 235.989 348.088 239.003 347.695 242.168C347.14 245.77 348.361 246.267 347.643 246.729C346.342 247.579 341.08 242.042 340.356 236.667C339.068 228.253 342.414 219.191 346.446 215.617C344.889 215.294 343.306 214.959 341.696 214.61C341.615 214.664 341.534 214.718 341.452 214.772C339.718 218.133 335.976 221.44 335.25 221.109C335.02 221.037 334.754 220.647 334.533 220.017C331.916 222.05 329.517 223.747 328.413 223.889C328.193 223.918 327.981 223.935 327.778 223.941C326.03 226.001 324.681 227.714 324.149 229.075C324.126 229.043 324.104 229.009 324.082 228.977C324.057 229.034 324.034 229.091 324.012 229.147C323.94 229.011 323.763 228.841 323.692 228.704C323.708 228.667 323.725 228.629 323.742 228.591C323.356 227.995 322.983 227.347 322.634 226.656C321.922 226.462 320.95 226.073 319.854 225.504C316.117 223.595 310.733 219.647 308.536 214.463C307.23 211.308 307.62 208.512 308.553 206.358C308.277 206.689 307.985 207.013 307.675 207.328C307.538 207.4 307.328 207.334 307.119 207.269C307.048 207.132 307.113 206.923 307.178 206.715C307.383 206.506 307.581 206.292 307.771 206.074C306.875 205.817 305.972 205.557 305.063 205.291C303.78 206.741 301.901 208.43 297.944 210.918C291.544 214.934 285.311 217.373 283.05 219.639C283.047 219.642 283.043 219.646 283.04 219.649C283.003 219.78 282.984 219.85 282.984 219.85C282.975 219.811 282.966 219.772 282.957 219.733C282.931 219.761 282.904 219.789 282.879 219.816C281.806 215.199 282.022 208.411 286.618 203.376C282.401 203.112 274.132 201.01 269.651 195.768C268.955 194.963 268.423 194.144 268.025 193.324C265.971 196.352 262.752 198.79 262.506 198.794C262.238 198.709 262.477 197.272 262.017 195.111C260.645 198.449 258.914 201.022 258.151 200.977L258.088 200.857C258.075 200.919 258.062 200.949 258.046 200.944C257.986 200.934 257.94 200.888 257.906 200.807C257.887 200.801 257.868 200.794 257.848 200.786C257.126 200.605 255.804 199.274 254.699 197.036C249.775 197.923 244.483 196.467 244.425 196.451C244.426 196.44 244.492 195.541 244.784 194.185C240.832 195.452 237.116 195.931 235.875 195.497C235.646 195.433 235.483 195.344 235.4 195.228C235.4 195.228 235.42 195.213 235.457 195.184C235.172 194.672 235.167 193.464 235.585 191.865C234.008 192.955 232.702 193.512 232.318 193.348C231.538 193.015 229.457 187.928 229.648 182.922C229.641 182.913 229.635 182.904 229.628 182.895C227.937 180.551 226.135 177.994 225.65 175.673C225.331 175.696 224.997 175.715 224.646 175.729C222.349 175.769 220.818 175.273 219.869 174.778C218.669 175.111 217.421 175.334 216.271 175.461C216.122 177.194 215.731 178.579 214.722 179.103C214.774 179.095 214.826 179.087 214.876 179.077C214.862 179.087 214.439 179.395 213.652 179.459C213.611 180.81 213.462 182.196 213.159 183.459C212.003 188.245 209.554 190.568 208.946 193.238C208.235 195.876 209.109 196.379 208.561 196.665C207.6 197.164 204.089 192.633 203.873 188.562C203.667 183.963 205.298 179.299 207.459 176.174C206.313 177.059 205.332 177.735 204.628 178.196C205.404 179.384 203.458 183.832 199.739 186.009C195.664 188.394 188.469 188.658 188.07 187.732C187.672 186.806 189.312 181.942 195.071 178.94C200.177 176.192 203.631 177.616 204.435 177.982L204.33 177.949C204.373 177.966 204.414 177.988 204.45 178.013C205.185 177.533 205.94 176.469 207.169 175.514C206.452 174.571 205.963 173.675 205.167 172.72C203.759 171.028 199.914 168.799 200.36 166.119C200.405 165.638 200.673 165.172 201.242 164.74C201.326 164.676 201.427 164.625 201.542 164.584C201.253 163.839 200.994 163.022 200.79 162.169C200.387 162.248 199.924 162.373 199.402 162.562L199.434 162.458C197.233 163.257 194.288 166.796 191.369 164.396C190.288 163.506 189.991 162.375 189.991 161.234C189.729 161.597 189.494 161.803 189.312 161.807C188.668 161.817 186.975 160.401 185.694 157.771C184.581 158.619 183.426 159.519 182.26 160.439C183.075 162.564 183.963 163.928 184.166 169.806C184.349 175.812 183.512 181.042 184.178 183.311C184.143 183.3 184.108 183.289 184.073 183.277L184.074 183.278C179.791 181.937 174.037 177.962 173.966 170.503C173.965 169.017 174.262 167.697 174.74 166.534C171.939 168.853 169.544 170.884 168.134 172.099C167.351 175.187 168.189 180.882 166.423 183.587C164.438 186.627 160.389 188.563 160.389 188.563C160.389 188.563 160.376 188.542 160.351 188.506C160.353 188.608 160.356 188.663 160.357 188.667C160.337 188.64 156.752 183.684 158.329 178.792C158.437 178.443 158.568 178.094 158.731 177.747C160.008 175.098 163.712 173.063 166.148 171.963C167.152 171.114 170.682 168.082 174.949 164.557C173.106 164.906 171.008 165.105 169.565 165.198C166.819 167.246 160.804 171.047 155.531 169.651C148.433 167.772 146.011 160.492 146.011 160.492C161.951 164.91 171.107 163.887 171.107 163.887L171.099 163.912C173.067 163.748 175.447 163.446 176.943 162.92C179.632 160.723 182.49 158.438 185.125 156.443C185.008 156.128 184.898 155.801 184.797 155.46C184.707 155.616 184.617 155.746 184.527 155.846C183.869 156.559 183.198 156.988 182.519 157.192C181.557 157.516 180.586 157.376 179.638 156.927C179.441 156.845 179.245 156.747 179.05 156.637C178.77 157.376 178.485 157.832 178.263 157.89C178.22 157.902 178.164 157.905 178.097 157.9C178.115 157.937 178.125 157.958 178.126 157.961C177.338 158.238 172.582 155.805 169.402 151.888C168.022 151.656 167.076 151.377 167.026 151.282C166.948 151.134 167.435 150.792 168.161 150.139C167.721 149.415 167.347 148.654 167.066 147.862L167.098 147.758C166.554 146.247 166.5 144.866 166.725 143.652C166.91 142.595 167.302 141.662 167.771 140.878C167.767 140.875 167.764 140.873 167.764 140.873C167.78 140.85 167.796 140.827 167.812 140.805C166.479 141.384 164.816 141.859 163.033 141.774C162.975 141.811 162.919 141.838 162.866 141.856C162.612 141.946 162.118 141.842 161.495 141.559C161.073 141.458 160.648 141.322 160.222 141.144C157.884 140.154 155.831 137.44 154.52 135.207C148.445 141.067 138.37 143.31 137.36 142.338C136.614 141.619 136.623 135.228 138.902 129.205C138.538 128.483 138.165 127.708 137.817 126.848C136.633 126.423 135.411 125.992 134.156 125.555C134.163 125.63 134.169 125.705 134.174 125.78C134.494 131.715 132.554 135.342 132.619 138.795C132.822 142.175 133.898 142.399 133.39 142.926C132.403 143.875 126.683 139.796 125.07 135.059C123.564 130.815 123.407 126.106 124.124 122.124C123.76 122 123.394 121.875 123.027 121.75C122.752 122.186 122.385 122.551 121.946 122.853C121.913 124.554 121.916 126.062 122.296 127.439C123.23 131.049 124.509 130.993 123.935 131.729C123.886 131.799 123.816 131.855 123.728 131.897C123.75 131.901 123.765 131.903 123.765 131.903C123.283 132.603 120.804 131.891 118.248 130.284C117.515 132.708 116.234 135.258 114.165 136.907C110.345 139.944 105.767 137.711 104.5 136.628C103.234 135.545 102.542 130.065 105.5 127.216C106.427 126.334 107.549 125.627 108.745 125.071C108.142 123.824 107.613 122.026 107.547 119.83C105.302 118.619 103.673 116.91 102.513 115.246C101.567 115.903 100.476 116.269 99.1632 116.101C98.498 117.04 97.9202 117.714 97.5011 117.961C95.686 118.994 94.1579 118.745 92.963 117.799L92.8908 117.662C93.065 117.768 93.2443 117.86 93.4279 117.937C93.1922 117.808 92.9656 117.652 92.7472 117.475C92.7599 117.527 92.7726 117.578 92.7863 117.629C91.9767 116.918 91.1606 115.862 90.5861 114.767C89.9132 113.418 89.4426 111.425 89.5744 109.262C89.3163 109.15 89.0585 109.037 88.8009 108.925C87.3428 111.164 86.7261 113.175 86.3664 114.59C88.0364 115.256 90.3303 117.409 89.9396 122.688C89.5278 128.393 86.1186 131.216 84.9757 131.202C83.854 131.187 80.0557 127.029 80.2101 121.777C72.4485 125.938 61.2924 124.667 60.6974 123.372C60.0838 122.036 64.5051 110.491 72.7003 106.307C72.7797 106.265 72.8596 106.226 72.9386 106.187C72.3854 105.811 71.8399 105.41 71.3078 104.984C70.245 106.911 69.0139 108.185 68.4035 107.937C67.7049 107.603 68.6976 106.998 67.7052 103.941C66.861 101.342 64.5721 99.1162 62.8419 95.1484C57.6238 98.2679 52.4343 96.6405 51.4455 95.4189C50.764 94.5026 50.8564 90.2567 53.1623 86.8564C53.0921 86.7282 53.0201 86.597 52.9464 86.4629C50.906 84.3939 49.0718 82.2297 47.4806 79.9639C47.1593 80.1115 46.9039 80.1333 46.758 79.9932C46.4664 79.783 46.6132 79.5555 46.7843 78.9414C46.5928 78.6515 46.4044 78.3595 46.2209 78.0664C46.3639 78.6963 46.4445 79.308 46.4445 79.8945C46.3071 85.4578 42.8459 91.0107 42.8459 91.0107C42.8459 91.0107 33.1486 87.1738 32.0519 78.5928C31.9286 77.6129 31.9866 76.575 32.175 75.5166C31.8194 75.7962 31.4738 76.0789 31.1437 76.3643C29.4204 78.5699 29.3417 79.9191 24.0138 83.7422C19.1291 87.2471 14.4599 89.3322 12.9709 91.1543C11.6782 86.8596 11.7567 80.0195 17.8752 75.8711C22.7193 72.6037 28.0371 74.6292 30.1906 75.71C30.942 75.063 31.7494 74.4355 32.5724 73.8359C32.669 73.5052 32.7766 73.1746 32.8918 72.8447C28.1114 73.2624 23.2025 73.1838 18.2677 72.4248C17.1874 73.7638 13.797 75.3315 10.3136 75.1055C5.70341 74.8063 -0.153663 70.7979 0.00308025 69.9316C0.193683 68.9608 4.32756 66.0228 10.5041 66.8125C15.7603 67.4955 17.7863 70.1668 18.4064 71.0977C23.4826 71.8672 28.5336 71.9037 33.4435 71.415C33.6854 70.8417 33.9478 70.2759 34.2218 69.7246C33.4177 68.4796 33.0392 67.2263 32.9669 66.5225C32.9084 65.9519 33.2931 65.0576 34.0031 64.1357C33.2373 63.9541 32.5336 63.7378 31.9103 63.5166C30.5691 64.8702 25.0368 65.2276 20.7101 62.7998C15.6365 59.9529 10.7859 52.3707 11.4582 51.3223C12.1308 50.2743 18.4776 49.0577 25.2033 53.2227C31.3346 57.0872 32.007 61.5309 32.131 62.5996L32.2033 62.7363C32.2072 62.7602 32.2094 62.7841 32.2111 62.8076C32.9662 63.0737 33.7793 63.1008 34.7345 63.2988C34.8733 63.1578 35.0188 63.0178 35.171 62.8809C34.2081 62.4982 33.6278 62.0737 33.673 61.709C33.7424 61.2101 34.2435 61.4388 35.6925 60.9092C35.751 59.4964 36.1721 57.6915 37.008 55.9395C36.6433 54.4535 36.1813 52.6242 35.4689 50.4863C33.6735 45.2336 32.0279 44.2607 30.4806 39.3145C29.1961 35.0471 30.961 32.9764 30.9835 32.9502C30.9908 32.9595 32.0598 34.3156 35.5216 34.9434C36.2958 35.1085 37.2094 35.1256 38.1808 35.1123C39.495 34.8421 40.9091 34.8 42.3459 35.1338C42.1629 34.6191 41.7392 34.1428 41.6935 33.5566C40.1203 25.3985 45.1944 15.4314 46.6115 15.3027C47.8367 15.1929 54.5191 20.8909 56.9962 27.8213C58.9132 26.9142 61.0141 26.2181 63.3097 25.7373C61.908 23.9565 60.4152 22.2269 58.8263 20.5605C58.0886 20.5761 56.8664 20.5099 55.3595 20.0156C53.4302 19.4024 51.0176 18.0906 48.5509 15.3379C43.1773 9.42254 43.1572 2.89514 44.1105 2.04883C44.127 2.07847 44.1445 2.10804 44.1613 2.1377C44.1789 2.11722 44.1966 2.09835 44.215 2.08203C45.0639 1.20369 53.5071 4.64741 57.2619 9.14062C60.0236 12.5521 60.8258 17.1778 60.2501 19.3652C62.0803 21.2924 63.7846 23.3 65.3712 25.3711C65.8992 25.2932 66.4375 25.2262 66.9845 25.1689C65.1833 23.0397 63.7243 20.1898 63.6681 16.5234C63.5579 6.99278 70.8 1.8234 76.3048 0ZM921.17 426.956C918.119 428.415 913.432 429.859 908.749 429.454L908.722 429.452C908.706 430.176 908.688 430.9 908.668 431.624C910.767 431.269 911.976 431.826 911.976 431.826C911.971 431.832 911.41 432.602 911.157 434.127C912.209 434.827 913.21 435.516 914.16 436.173L914.804 436.167C914.794 436.162 914.785 436.156 914.776 436.151C917.199 435.449 920.548 432.041 923.798 430.001C922.896 428.914 922.018 427.9 921.17 426.956ZM909.524 416.383C909.373 416.932 909.194 417.439 908.998 417.901C910.133 418.025 911.278 418.235 912.404 418.507C911.129 417.475 910.152 416.78 909.546 416.371C909.539 416.375 909.531 416.379 909.524 416.383ZM930.887 385.753C930.634 385.87 930.135 386.138 929.487 386.665C928.855 388.373 927.725 389.956 926.819 389.864C926.775 389.861 926.732 389.853 926.693 389.843C924.96 392.516 924.202 397.392 921.105 399.415C921.059 399.899 920.986 400.377 920.883 400.841C919.457 406.758 915.465 412.152 911.553 415.083C915.091 414.163 918.124 413.717 919.721 413.524C919.721 413.522 919.719 413.52 919.719 413.518L919.831 413.407C919.638 412.317 925.042 405.496 930.857 404.676C932.339 404.49 933.616 404.781 934.686 405.318C935.832 402.361 937.618 401.07 938.404 400.56C939.326 395.685 939.557 390.805 939.288 386.033C937.123 386.005 934.996 385.957 933.034 385.875C932.473 385.848 931.749 385.806 930.887 385.753ZM909.66 393.312C909.62 393.739 909.582 394.161 909.547 394.578C909.908 394.639 910.285 394.713 910.682 394.797C910.322 394.329 909.977 393.835 909.66 393.312ZM955.65 385.969C953.573 385.998 950.742 386.038 947.613 386.057C947.572 386.084 947.53 386.112 947.488 386.139C948.995 387.012 950.545 388.102 951.609 388.893C953.62 388.972 956.902 389.292 959.891 390.443C958.458 389.214 956.956 387.695 955.65 385.969ZM952.929 381.232C951.878 382.636 950.577 383.845 949.316 384.831C951.362 384.809 953.233 384.776 954.782 384.745C954.05 383.637 953.41 382.461 952.929 381.232ZM939.11 383.613C938.553 384.105 937.953 384.494 937.368 384.799C937.847 384.809 938.329 384.817 938.814 384.824C938.934 384.523 939.039 384.235 939.139 383.951C939.129 383.839 939.121 383.726 939.11 383.613ZM930.305 382.433C930.285 382.497 930.271 382.561 930.265 382.626L930.152 382.736C930.153 382.76 930.182 383.472 930.034 384.481C930.037 384.484 930.04 384.486 930.042 384.488C930.891 384.543 931.64 384.586 932.27 384.622C931.588 384.061 930.89 383.311 930.305 382.433ZM919.401 376.769C918.964 376.913 918.508 377.043 918.036 377.15C918.734 378.766 919.537 380.482 920.236 382.187C921.463 382.152 922.814 382.185 924.475 382.354C924.704 382.38 924.926 382.412 925.141 382.446C925.223 382.399 925.305 382.351 925.385 382.303C924.939 379.988 924.387 378.845 923.934 377.329C922.262 377.485 920.742 377.24 919.401 376.769ZM609.284 324.722C608.962 325.694 608.532 326.585 607.955 327.308C607.334 328.103 606.621 328.74 605.861 329.251C608.196 331.093 610.565 332.986 612.965 334.931C613.074 334.571 613.201 334.21 613.347 333.849C612.236 332.008 611.715 330.168 611.555 328.529C611.513 328.449 611.472 328.367 611.43 328.285C611.02 327.515 610.564 326.7 610.051 325.848C609.912 325.606 609.775 325.374 609.64 325.15C609.521 325.007 609.402 324.864 609.284 324.722ZM588.568 307.043C588.578 307.071 588.588 307.099 588.598 307.127C589.06 308.303 589.195 309.187 589.195 309.192L589.09 309.159C589.087 309.159 589.067 309.155 589.031 309.148C589.051 309.23 589.07 309.311 589.088 309.393C589.112 309.397 589.126 309.4 589.129 309.4L589.106 309.477C589.287 310.315 589.404 311.171 589.472 312.03C589.572 311.613 589.693 311.187 589.836 310.754C590.145 309.816 590.507 308.94 590.907 308.123C590.264 307.75 589.612 307.332 588.977 306.869C588.83 306.863 588.683 306.853 588.535 306.84C588.548 306.911 588.558 306.979 588.568 307.043ZM965.504 310.302C965.259 310.619 965.014 310.923 964.768 311.213C965.105 311.016 965.469 310.84 965.865 310.694C965.746 310.566 965.625 310.435 965.504 310.302ZM935.63 293.182C935.577 293.374 935.514 293.568 935.442 293.765C935.653 294.131 935.836 294.487 935.994 294.834C935.841 294.269 935.721 293.716 935.63 293.182ZM554.644 294.282C554.649 294.189 554.655 294.095 554.662 294.001C554.345 293.935 554.028 293.867 553.711 293.8C554.02 293.958 554.331 294.119 554.644 294.282ZM526.036 285.61C526.541 287.104 526.851 288.468 527.033 289.427C527.165 289.266 527.304 289.112 527.452 288.967C527.675 288.747 527.914 288.547 528.171 288.365C527.891 287.668 527.669 286.927 527.493 286.16C527.007 285.979 526.521 285.795 526.036 285.61ZM906.798 271.384C906.664 271.506 906.528 271.626 906.388 271.743C906.47 271.758 906.552 271.772 906.633 271.787C906.683 271.646 906.738 271.512 906.798 271.384ZM883.088 233.197C879.75 232.79 876.1 231.776 873.876 232.191C873.8 232.253 873.723 232.314 873.65 232.376C873.65 232.376 873.677 232.334 873.728 232.257L871.367 233.479C873.261 235.249 874.897 237.528 876.091 240.433C876.179 240.65 876.261 240.868 876.338 241.084C878.671 237.666 881.131 235.355 883.088 233.197ZM416.594 231.394C416.076 232.402 415.542 233.42 415.014 234.387C416.055 234.094 416.857 234.012 417.142 234.144C417.617 233.545 418.2 232.504 419.032 231.302C418.464 231.253 417.866 231.138 417.249 230.975C417.036 231.117 416.817 231.257 416.594 231.394ZM404.301 226.86C403.975 226.92 403.397 227.012 402.64 227.084C403.138 227.146 403.628 227.203 404.109 227.255C404.169 227.123 404.234 226.992 404.301 226.86ZM857.659 215.9C856.397 215.922 855.191 215.964 854.042 216.022C854.075 216.196 854.104 216.372 854.13 216.549C854.558 217.311 854.965 218.401 855.222 219.679C856.47 219.624 857.583 219.747 858.526 219.964C858.536 219.948 858.546 219.933 858.556 219.918C857.926 219.211 857.288 217.835 857.659 215.9ZM701.693 207.179C701.908 207.162 702.122 207.146 702.335 207.129C702.131 207.024 701.919 206.916 701.698 206.805C701.699 206.929 701.697 207.053 701.693 207.179ZM825.568 203.405C825.038 203.618 824.526 203.798 824.033 203.948C824.271 204.315 824.493 204.7 824.695 205.104C824.817 205.334 824.932 205.571 825.04 205.813C825.302 205.95 825.569 206.108 825.839 206.286C825.714 205.264 825.644 204.306 825.568 203.405ZM706.746 204.707C706.734 205.257 706.709 205.767 706.673 206.222C706.965 206.166 707.259 206.116 707.556 206.072C707.259 205.678 706.971 205.224 706.746 204.707ZM723.24 198.966C722.894 201.113 722.022 203.369 720.295 205.232C720.839 205.336 721.495 205.33 722.147 205.542C722.224 205.568 722.3 205.595 722.377 205.622C722.946 203.357 723.632 201.445 724.013 199.67C723.736 199.453 723.478 199.217 723.24 198.966ZM639.093 200.051C638.526 201.556 637.725 203.095 636.589 204.467C636.907 204.582 637.224 204.708 637.541 204.842C638.056 203.318 638.628 201.801 639.265 200.297C639.206 200.221 639.149 200.139 639.093 200.051ZM796.484 199.308C796.269 199.883 796.271 200.62 796.019 201.38C796.614 201.366 797.21 201.372 797.804 201.396C797.323 200.714 796.882 200.006 796.484 199.308ZM289.556 200.711L289.745 200.582C289.68 200.561 289.615 200.541 289.55 200.52C289.552 200.584 289.554 200.648 289.556 200.711ZM216.466 167.795C216.547 167.736 216.63 167.678 216.713 167.62C216.641 167.591 216.568 167.561 216.495 167.53C216.485 167.617 216.475 167.706 216.466 167.795ZM207.69 161.175C206.938 162.125 206.291 163.035 205.833 164.004C205.678 164.321 205.548 164.617 205.438 164.891C206.564 165.13 207.743 165.419 208.772 165.61C210.375 165.901 212.21 165.995 213.722 166.014C211.663 164.652 209.752 162.894 208.401 161.36C208.166 161.304 207.929 161.242 207.69 161.175ZM194.336 152.762C194.236 152.985 194.139 153.214 194.05 153.443C196.741 155.562 198.035 155.695 200.348 157.678C200.363 157.425 200.388 157.174 200.42 156.926C199.936 156.437 199.472 155.927 199.03 155.401C198.472 155.082 197.906 154.759 197.333 154.436C196.715 154.116 196.181 153.811 195.769 153.557C195.296 153.293 194.818 153.028 194.336 152.762ZM192.949 152.515C193.014 152.572 193.079 152.629 193.145 152.687C193.21 152.532 193.277 152.381 193.346 152.234C193.213 152.329 193.08 152.422 192.949 152.515ZM404.409 128.611C404.57 130.579 404.993 132.214 405.468 133.593C406.109 133.531 406.725 133.529 407.309 133.603C408.178 133.73 409.038 133.94 409.87 134.204C410.058 134.263 410.245 134.324 410.43 134.388C410.64 133.843 410.879 133.389 411.116 133.039C408.947 132.553 407.284 131.65 406.486 130.37C406.462 130.332 406.45 130.286 406.447 130.234C405.479 129.67 404.805 129.04 404.409 128.611ZM87.9523 108.552C87.9455 108.598 87.9322 108.636 87.9093 108.665C87.5858 109.077 87.1467 109.398 86.6144 109.633C86.7613 110.443 86.73 111.553 86.4933 112.787C86.9192 111.611 87.5509 110.23 88.4845 108.787C88.3071 108.709 88.1295 108.63 87.9523 108.552ZM213.057 67.4297C206.512 67.0256 201.236 67.2296 197.305 67.6064C202.973 69.0292 208.931 70.5001 215.086 72.0146C214.962 71.7447 214.837 71.4759 214.715 71.208C214.09 69.8803 213.513 68.5823 213.057 67.4297Z" fill="#8AB4D0"/>
<path d="M794.052 193.391C794.04 193.414 794.039 193.463 794.047 193.536C793.977 193.513 793.94 193.501 793.94 193.501L794.052 193.391Z" fill="#8AB4D0"/>
</svg>
