<svg xmlns="http://www.w3.org/2000/svg" width="476" height="1080" fill="none" viewBox="0 0 476 1080"><path fill="#d0e8fb" fill-rule="evenodd" d="M676.273 1674.89c-1.705 2.37-3.675 4.41-5.9 5.67-.77.43-1.549.78-2.332 1.08-10.988 4.36-22.915-3.15-22.915-3.15.003 0 .131 0 .369-.01l-.136-.08s3.815-9.56 10.47-14.57c4.566-3.43 13.436-3.59 20.444-4.51zM676.273 1643.93c-12.043-2.71-19.36-12.64-22.429-20.56l.003.01-.093-.24c4.179.93 12.444-.56 22.519-1.47zM50.864-101.105C63.416-94.05 64.557-90.796 68.56-86.57c4.359 3.178 9.724 5.949 14.258 8.328l.444.018c1.04-.795 2.215-1.5 3.542-2.071-4.382-.76-8.265-2.168-11.173-3.453a50 50 0 0 1-4.948-2.443c-.465-.018-.71-.095-.697-.23l.257-.026-.116-.066-.232-.143-.325-.143s4.803-12.473 13.824-20.208c-17.14-5.439-31.009-23.746-30.637-26.63.404-3.12 23.769-13.525 42.334-8.596 1.206.341 2.503.916 3.476 1.347-.75-5.178.412-10.071 2.309-14.127-3.037-4.067-4.453-8.135-4.034-9.725.73-2.771 7.49-9.018 17.911-9.699 1.639-2.448 3.052-3.944 3.859-4.131l.081-.02c1.276-.252 4.579 2.031 8.427 6.007a18.4 18.4 0 0 1 5.776 3.836 38.8 38.8 0 0 1-3.321-17.576l1.492-.309c.739-18.88 16.256-25.974 24.819-26.059 7.537.042 13.752 2.214 13.44 10.419.011 2.994-4.966 10.878-10.1 18.745 2.31 3.035 4.864 7.066 7.11 11.666 2.345-7.772 7.021-12.205 8.492-12.065 1.048.039 3.028 3.952 4.423 8.967 6.938-2.162 14.568-3.301 22.134-2.823 5.936.404 12.202 3.083 16.933 6.108 2.367-3.555 5.011-5.839 6.471-6.021 2.378-.216 7.978 2.243 12.441 7.782 2.322-1.363 2.942-2.38 3.639-2.559.305-.156.588-.164.993.016 0 0 .416.378.598.846l-.234.09-.005-.004c.397 1.398-.138 4.199-1.404 7.433a29 29 0 0 1 1.445 3.887c5.349-1.678 13.188.739 17.764.647 3.399.067 6.153-.405 9.393-.554-.182-4.19.633-7.591.344-9.922a1.7 1.7 0 0 1-.422-.142c-2.036-1.096-10.742-5.536-14.18-20.641-3.749-16.6 2.97-28.367 5.63-29.13 2.66-.761 14.518 14.582 16.776 26.642 1.922 11.254-3.422 22.653-7.159 23.276.265 2.145.566 5.172.753 8.87 2.579-9.8 9.176-21.15 18.796-28.596 8.394-6.757 23.664-7.557 24.287-4.564.402 1.73-2.102.815-6.253 6.736-4.386 6.011-4.892 15.099-12.391 25.552-2.111 2.878-4.709 5.641-7.396 8.107 1.198 1.737 1.285 3.154 1.285 3.154l-.08-.135c.257 1.668-.339 3.393-1.494 5.157 1.196 1.624 2.101 3.264 2.691 4.785 2.867 6.703 2.944 13.141-4.762 16.128a5.3 5.3 0 0 1-.956.179c-.551 1.036-1.335 2.208-2.444 3.447 3.836-2.124 6.91-3.162 7.72-2.876l.104.05q.074.046.151.12l.069-.026c1.747.619 4.694 13.239 2.373 25.1 4.045 6.452 7.953 11.393 9.733 13.892 3.484 1.056 8.057 1.922 13.486 1.948-1.029-.805-2.663-2.283-4.184-4.52-.233.059-.429.053-.585-.029-10.508-5.627-12.364-35.359.493-56.242 6.384-10.558 22.367-17.832 24.339-14.824 1.194 1.693-1.739 1.752-3.957 9.888-1.944 7.13.137 15.597-1.887 27.283a33 33 0 0 1 1.68-.795c20.42-8.994 38.09 1.94 46.835 12.024-7.175.895-20.239 9.463-36.728 16.124-17.411 7.264-21.634 5.743-29.169 6.268 1.673 2.377 2.774 4.22 3.705 4.901-5.004.045-9.587.445-13.076-.516q.062.151.046.228c-.188.6-2.72 1.737-6.711 2.325 2.397.723 4.249 1.903 5.219 2.834.504.511.99 1.072 1.447 1.678 1.122-1.869 2.351-3.15 3.457-3.579 4.438-1.72 18.968-3.04 27.401 10.397 5.426 8.577 6.688 19.793 6.295 28.817 2.302 2.763 3.841 5.708 4.564 8.202 1.962 6.318 1.636 12.417-4.268 14.967 1.844 7.085 3.039 16.635 1.793 25.757 3.441-1.492 4.711-3.05 4.719-3.06 0 0 3.957 4.664 1.116 14.658-1.761 6.111-3.693 9.639-5.706 13.397 3.117 7.134 5.063 10.884 2.851 12.5l-.7.272q.25-.21.428-.457-.026.022-.052.042c-1.27.834-3.155.697-5.237-.06q4.58 11.524 9.291 23.622c.724.09 1.478.213 2.278.391 12.792 3.01 20.631 10.184 23.821 15.032 3.257-2.225 6.754-4.161 10.43-5.674l-.092-.234c10.345-4.257 25.571-1.676 28.024 1.53l.208-.08.363.938c.004.354-.057.6-.189.788-.348 1.43-2.789.324-8.802 5.123-5.602 4.47-8.731 12.296-16.783 20.323.677-.215 1.374-.222 2.082-.063 2.38.121 4.554 1.501 6.56 3.3 7.046 3.107 12.19 7.948 15.828 13.382 1.827-1.622 3.577-3.171 5.231-4.637 4.704-6.135 5.366-14.101 5.29-18.578-.529-3.433-1.369-11.006-3.963-19.25-2.478-8.47-5.501-18.346-4.684-21.089 1.739-6.602 7.279-6.863 13.078-5.07 6.681 1.991 17.385 11.585 13.286 26.647-3.021 12.166-11.556 18.533-15.393 20.253-.079 3.402-.618 8.015-2.463 12.528a1401 1401 0 0 1 8.773-7.702c10.795-9.574 20.538-16.315 27.661-21.502a393 393 0 0 0 5.021-3.705c-1.314-3.579-.497-8.957 6.746-15.138 8.588-7.641 20.68-6.94 21.965-5.013 1.518 1.837.778 11.016-7.954 18.982-9.129 8.198-15.969 6.243-18.753 4.074-1.451 1.028-3.103 2.17-4.911 3.483-4.654 3.443-10.61 7.637-17.313 12.947 7.254-3.364 17.391-6.645 27.446-6.905 13.311-.31 24.443 8.31 24.131 11.665l-.144-.022q.022.183.002.346c-.157 1.218-1.04 3.415-2.989 5.714 2.446.209 4.615.811 6.528 1.672l.873-.21c4.622-3.547 9.892-7.813 14.049-12.329 3.703-5.83 4.004-9.675 16.918-20.688 12.104-10.351 23.988-17.115 27.53-22.53 4.268 11.01 5.955 29.22-9.289 41.866-12.356 10.088-27.046 5.58-32.757 3.195-2.99 3.197-6.447 6.246-9.908 9.035 13.769-2.801 28.129-4.109 42.774-3.22 2.982-3.715 11.115-8.291 19.754-8.356 12.053-.092 28.581 8.591 28.555 11.295-.117 2.471-10.392 11.305-26.764 10.646-14.775-.633-20.665-7.838-22.077-9.909l-.285-.017-.018.008-.007-.01c-15.427-.882-30.536.723-44.951 3.958 4.77 3.901 7.07 9.319 7.58 11.89.843 4.254-7.512 16.655-19.201 17.684-14.817 1.193-30.955-9.234-34.344-13.467a269 269 0 0 0-8.211 4.049c.001 4.061-.896 8.422-3.541 12.467l.091.233c-4.704 6.966-16.448 11.006-22.929 12.777l-.733.658a48 48 0 0 1 5.427 2.848 766 766 0 0 1 12.672-3.673c2.88-3.727 14.271-9.891 28.332-4.46 14.465 5.44 18.085 21.014 16.956 22.26s-6.045-.351-10.106-3.897c-5.125-4.211-8.861-7.613-18.371-10.663-6.263-1.982-11.669-.789-14.764-.571-2.555.719-6.464 1.829-11.473 3.298 7.571 6.317 12.195 17.352 9.929 18.955-1.31.777-1.427-1.602-8.342-3.502-1.962-.497-4.022-.672-6.232-.732-1.423 3.027-4.642 7.188-8.762 10.49.165-.006.327-.031.476-.089a3.6 3.6 0 0 1-.614.2l-.344.268a26 26 0 0 1 3.864 2.178 20.2 20.2 0 0 1 3.16 2.749 18 18 0 0 1 2.363 2.95q.224-1.032.445-2.084s13.454 13.917 9.094 31.775a22.5 22.5 0 0 1-1.358 4.034c2.508 1.157 4.712 2.463 6.388 3.727 3.637-3.024 7.952-5.633 12.55-6.761 9.095-2.179 19.02 6.099 19.448 9.976.338 3.641-1.077 15.238-11.534 18.752-12.883 4.186-30.242-5.252-31.15-7.595q-.012-.035-.021-.075c-2.904.984-8.061 2.593-14.488 4.01l.853 2.69c9.77 3.202 20.549 9.946 27.784 19.427 7.032 9.13 7.902 25.23 4.684 25.939-1.725.399-.817-2.108-7.148-6.66-1.228-.883-2.573-1.619-4.022-2.293q.136 1.443.222 2.925c1.522-.002 2.56.33 2.852 1.082.506 1.305-.736 1.459-2.724 3.984-.035 3.73-.37 7.484-1.142 10.988-.468 1.92-1.051 3.547-1.76 5.033q1.335 4.346 2.665 8.664a49 49 0 0 1 3.071 5.095c15.832.632 27.287 11.535 32.961 21.053-4.63-.146-12.358 2.408-22.076 5.271 3.885 7.625 3.817 16.11 2.902 22.369q.618 1.92 1.24 3.84c1.615-1.558 3.519-3.127 5.764-4.666 15.127-10.176 29.671-7.999 31.371-5.694 1.466 2.396-8.848 20.138-20.084 27.188-3.175 2.045-6.726 3.353-10.159 4.073q.822 2.447 1.652 4.898c5.163 3.551 8.369 8.14 8.326 9.962.004 1.176-.817 3.129-2.438 5.255 10.044.011 25.325 2.551 35.741 10.667 11.222 8.853 11.651 27.281 7.941 30.876q-.39.377-.925.812c3.802.288 6.869.375 9.733-.087q.011-.054.026-.109c1-2.274 4.075-12.358 19.487-18.332 17.047-6.609 30.864-1.457 31.955 1.354.999 2.577-13.013 17.71-25.571 22.04-10.771 3.713-23.049.478-25.508-3.215-3.468.568-7.907.895-12.663.231 3.728 8.287 9.383 23.537 6.138 33.996a28 28 0 0 1-.842 2.41c7.09.872 13.02 8.757 18.343 11.554 7.084 3.721 11.094 2.975 11.094 2.975s.219 6.112-8.213 12.076c-2.634 1.822-4.872 3.095-6.948 4.121q.199.32.201.65c.026 2.146-2.517.437-8.666 6.055-1.022.942-1.964 1.992-2.873 3.13 3.529 1.129 5.71 2.803 6.064 3.716l.324.144c.245.978-2.313 3.641-6.03 6.26a2076 2076 0 0 1 3.174 9.053c8.757-4.558 18.334-3.407 19.71-1.636 1.592 2.05 1.01 12.07-8.513 20.664a45 45 0 0 1 1.857 3.744c10.593-10.025 26.707-10.643 26.765-10.646.016.067 3.571 14.808-.584 26.904-2.649 7.555-11.736 14.581-19.247 21.11l.443 1.388q.358.823.678 1.719c4.697.489 9.798 2.305 14.48 6.568 5.768 5.367 9.668 12.869 12.148 20.24 3.239 1.697 5.101 3.569 5.25 4.544.133.761-1.038 2.075-3.035 3.568q.268 1.264.483 2.48c2.418 4.27 3.993 9.331 6.237 12.464q.115.15.23.295l.185.083c1.278 1.676 2.485 2.978 3.571 3.989a21 21 0 0 0 1.811 1.444c6.528-1.858 11.719-2.253 12.82-1.441 2.543 1.71.947 27.389-11.754 41.744-.986.921-1.739 1.751-2.815 2.438 12.428 4.344 17.591 19.048 16.398 22.206-.583 1.327-2.67 3.282-5.862 4.865 5.59 3.359 9.425 6.801 13.971 8.43 6.863 2.459 8.511.473 9.056 1.879.855 2.902-13.221 10.244-24.521 9.505a45 45 0 0 1-2.272-.223 29 29 0 0 1-1.516 2.966l.137.455c4.14-2.218 9.995-3.471 16.651-.153 2.815 1.456 5.336 3.499 7.55 5.83 3.825-5.875 2.508-7.73 4.041-8.181a1.6 1.6 0 0 1 .345-.12c2.306-.288 5.342 7.935 5.358 16.457q.061-.13.116-.256a1.1 1.1 0 0 1-.116.299c.001 2.059-.175 4.134-.58 6.11 1.778 4.187 2.516 7.53 2.137 8.393-.329.749-2.681 1.546-6.14 2.007a57 57 0 0 1-3.469 5.763q.55.04 1.111.105c16.762 1.875 32.5 16.4 37.51 23.467-1.049-1.683-2.921-3.967-5.426-6.533 4.748 4.627 7.318 8.481 7.305 9.834a1.3 1.3 0 0 1-.177.493c-1.017 3.502-23.273 15.256-42.859 12.421 2.013 3.517 2.915 7.228 3.128 10.662a3787 3787 0 0 0 3.588 11.335q1.088.633 2.09 1.342a44 44 0 0 1 5.58-2.607c8.784-3.485 16.029-2.947 17.453-1.55.415.378.364.936.403 1.73l-.31-.796c.393 3.296-3.709 13.903-9.898 22.537.249.758.468 1.491.664 2.191 2.487 2.892 4.479 6.252 6.017 9.588a49 49 0 0 1 5.874 3.026c-.039-.793-.078-1.587.026-2.705 2.244-20.541 24.014-39.22 27.595-38.992.361.023.819.29 1.346.771v60.961c-2.369 1.647-4.772 2.85-6.886 3.554a73 73 0 0 1-2.401 7.504l.624 1.186c1.278-.099 4.37-.513 8.663.36v26.182q-.64-.555-1.229-1.129c-8.16-7.884-10.833-20.322-8.796-24.076l-.175-.251c-1.938 4.57-4.456 9.057-7.633 12.914 5.416 4.028 8.445 6.172 7.419 8.507-1.272 2.895-7.327 3.36-12.836 2.387a984 984 0 0 0 3.293 7.56c4.475.996 9.179 2.415 13.176 4.274a54 54 0 0 1 6.781 3.976v588.834q-.768-.705-1.476-1.23c-2.31-1.67-4.435-2.66-6.703-4.16-2 2.96-4.317 4.85-5.304 6.61.063.08.117.16.162.26l-.091-.23c.961 1.78 4.748 9.47-.765 21.58-5.994 13.64-16.878 18.13-19.058 17.36s-2.673-17.29 2.166-26.98c4.417-8.84 14.301-13.97 17.138-12.37a102 102 0 0 1 4.198-6.79c-6.824 5.42-17.253 9.86-27.81 10.08-9.354.13-20.265-7.23-19.266-9.5.57-1.3 1.855.62 7.784-1.41 6.02-1.79 10.963-7.75 21.744-11.12 2.845-.88 5.996-1.44 9.083-1.73.027-1.83.673-2.84.686-2.86-.014.11-.024.23-.033.35 1.045-2.39 4.154-3.49 8.099-4.09.115-2.66.436-5.55 1.015-8.35-1.277-2.09-2.647-5.52-2.905-10.79-.024-.81-.03-1.57-.025-2.31-5.389-.76-11.516-4.49-17.14-8.01-.021-.01-.043-.03-.065-.04-11.432 1.19-23.393-2.8-24.273-4.54-.434-.85.64-3.93 2.893-7.7-3.596 1.2-6.361 1.37-7.575.79-.062.09-.093.14-.093.14-.278-.17-.506-.53-.689-1.05-1.183-2.78-.652-11.35 1.645-20.59-3.059.87-5.108 1.16-5.133 1.16-.007-.02-4.192-11.97-2.906-23.43-5.292-2.2-8.542-5.02-9.067-6.64-.02-.05-.037-.09-.054-.14-.19-.06-.305-.16-.337-.29-.013-.04.053-.07.192-.11l-.283-.13c-.219-1.74 5.408-6.09 12.839-9.74-5.018-.73-8.272.04-8.506-.56-.028-.57 5.061-8.31 11.679-13.46-1.937-.79-3.893-1.89-5.84-3.36-12.685-9.47-18.759-28.08-20.007-37.7-10.824 11.29-26.331 12.81-37.065 11.05.06-.06.12-.12.18-.19-.091-.01-.181-.03-.271-.04 0 0 .156-.05.451-.16.006-.01.014-.02.021-.02 4.841-5.52 9.475-20.16 17.692-35.43 5.091-9.43 8.67-13.99 11.795-17.14-.747-2.05-1.482-4.07-2.207-6.09-.47.47-.929.96-1.376 1.46-.467.18-.935.36-1.259.22-.182-.47-.362-.94-.22-1.27.674-.75 1.372-1.47 2.087-2.15-4.788 2.46-11.129 3.77-18.55 1.26-12.204-4.24-22.064-15.98-27.003-24.24-1.471-2.43-2.508-4.59-3.061-6.19a48 48 0 0 1-4.597-2.25c-.085.05-.169.09-.252.14-.325-.15-.74-.53-1.064-.67.125-.06.252-.12.38-.19-.079-.04-.159-.09-.237-.13 3.035-1.43 6.749-4.78 11.198-9.09-.017-.47-.009-.95.025-1.46.156-2.55 3.674-8.3 7.929-14.6-1.478-.41-2.41-.96-2.61-1.48-.868-1.61 6.131-10.68 13.559-15.16.113-.19.224-.39.334-.58-1.043-3.63-2.052-7.21-3.028-10.72-7.565 9.77-27.8 18.8-47.257 17.13-12.416-.85-25.895-12.06-24.144-15.16.947-1.72 2.27 1 10.431-.82 7.184-1.37 13.74-7 25.01-10.41-.408-.31-.814-.63-1.217-.97-17.034-14.14-15.347-34.74-10.248-47.22 2.14 3.21 7.276 7.09 13.719 11.92q-.518-.795-1.071-1.47c-5.142-6.34-9.133-6.96-9.146-6.96 0 0 2.102-5.66 12.222-7.97 6.771-1.38 10.91-1.2 15.634-1.22l-1.414-5.94c-4.183-4.26-7.646-9.19-10.314-13.87-2.256 1.54-4.117 2.46-5.162 2.69-.47.13-.81.16-.989.08-.359-.2-.684-1.33-.916-3.11q-.488.15-.965.33c-6.772 2.63-6.889 5.1-8.277 4.29-1.878-1.32 2.433-11.99 9.283-19.17.39-4.1 1.098-8.51 2.248-12.72-1.435-4.29-2.017-8.56-2.201-12.12a33.3 33.3 0 0 1-7.376-5.08c-6.024 1.32-11.857.36-15.615-1.39-2.686-1.39-5.229-3.1-6.747-4.93l-.325-.15c-.293-.37-.558-.75-.793-1.15-5.86 2.38-13.173-.05-14.528-2.34-1.557-2.63-4.126-11.33 2.257-17.04 7.888-7.37 23.184-6.03 24.52-4.66l.073.19c1.346-1.22 3.496-3.11 6.237-5.27-.083-.76-.108-1.5-.063-2.22-.184-.38-.368-.77-.553-1.15-7.553.37-16.418-1.17-23.896-5.24-1.841-1-3.556-2.38-5.081-3.91a59 59 0 0 1-6.078-2.69l-1.01-.54c-4.812-2.55-8.974-6.91-11.939-11.21-4.37-1.15-7.356-2.84-7.224-4.27.196-1.31 1.191-.85 3.787-1.8-.989-2.27-1.45-4.19-1.27-5.37l-.168.07c.052-.56.194-.89.428-.98.027-.02.054-.03.08-.05q.118-.225.297-.36s.011.06.039.19c.023-.01.046-.01.069-.02 1.253-.63 1.772 1.27 6.749 2.83 4.941-4.04 8.861-10.56 15.799-17.25-.698-1.08-1.401-2.17-2.109-3.26-.043-.02-.086-.03-.129-.05-.034-.01-.068-.01-.102-.02-6.408-1.29-10.793-.13-11.066-.83-.082-.21.75-1.71 2.225-3.77a36 36 0 0 1-4.03-3.29c-.651.97-1.316 1.93-1.971 2.86-3.397 4.64-4.74 8.68-5.017 9.59.08.07.139.11.178.11l-.234.09-.233.09c-.791.03-10.742-15.24-8.783-25.43.286-1.45.732-2.79 1.296-4.03.775-1.8 1.798-3.41 2.958-4.82-.563-2.56-.89-5.05-1.015-7.372-2.419-1.124-4.791-2.887-6.846-5.556-1.741-2.249-3.088-4.815-4.118-7.508-1.166-2.987-1.935-6.137-2.408-9.186-.482-.199-.818-.401-.986-.604-.198-.24-.292-.686-.289-1.305a47.6 47.6 0 0 1-10.804-1.671c1.518-1.258 3.07-3.274 4.738-5.841-4.477 1.311-7.722 1.608-7.722 1.608-.012-.045-1.455-5.28-1.911-12.111-7.886 2.481-15.214 2.644-16.368 1.683-1.602-1.336-.212-14.365 5.916-24.745l-.478-.78-.028-.016c-1.605-1.018-3.036-2.295-4.264-3.678.087.736.146 1.379.147 1.792l-.009.251a.5.5 0 0 1-.167.032 24 24 0 0 1-.053 3.557 12 12 0 0 1-.428 2.014l-.014.313c-1.012 18.177-11.534 28.453-14.466 28.512-2.932.058-10.937-19.204-9.6-32.387.49-5.909 2.86-11.245 5.631-15.102-1.978-1.169-3.878-2.817-5.528-5.1l-.323-.461-.234.09c-3.26-4.704-4.864-10.599-5.503-16.175-3.516-1.23-6.716-2.877-9.183-5.078-14.764-13.139-9.328-36.535-9.328-36.535.047.002 5.5.243 12.137 2.006q-.745-1.624-1.48-3.252c-3.856-.618-7.477-1.755-10.423-3.695-8.669-5.544-12.328-14.611-13.841-22.084l-.183.093c-5.378 4.233-7.799 10.888-8.816 14.861-.227 2.827-1.243 10.074-.955 18.51.48 8.167.532 17.309-.7 19.673-2.984 5.468-7.953 4.431-12.624 1.391-5.643-3.471-12.753-14.189-5.747-26.605 5.464-9.685 14.069-13.375 17.986-14.171.786-2.935 2.236-6.935 4.836-10.597a916 916 0 0 1-9.602 4.821c-11.923 5.97-21.964 9.863-29.204 12.67l-4.864 1.885c.177 1.296.027 2.749-.661 4.274-1.127 2.589-3.722 5.346-8.708 7.712-9.085 4.559-19.129 1.51-20.528-.397l-.033.013-.109-.28-.019-.055c-.698-2.247 2.001-9.842 11.439-14.828 9.752-5.14 15.313-1.987 17.376.539l5.16-2c4.796-1.859 10.821-4.197 17.741-7.271-7.159 1.184-16.566 1.65-25.253-.325-12.026-2.614-19.746-12.825-18.695-15.658 1.284-2.923 7.914-10.074 22.081-7.482 15.075 2.618 29.498 14.101 32.893 18.259q.101-.05.204-.1c3.227-1.585 9.037-4.525 16.424-8.292-.71-5.327-.392-9.21-.389-9.242 0 0 .825-.068 2.248-.117-.502-3.726.866-5.802 1.487-6.53-.026-.281-.037-.436-.038-.446 0 0 .458-.117 1.271-.282.611-.29 1.313-.474 2.091-.569a62 62 0 0 1-.142-1.736 470 470 0 0 1-3.797-12.956 28 28 0 0 1-6.069.215c-4.767 8.779-12.17 14.087-19.82 17.031-5.779 2.263-11.711 3.17-16.763 3.199l.273-.152c3.892-5.876 5.909-21.428 11.404-38.328a126 126 0 0 1 2.728-7.423c-.457-.846-.912-1.615-1.379-2.263-1.874-2.84-3.863-4.833-5.831-7.469-3.365 2.483-6.631 3.711-8.406 5.254q.08.198.109.417l-.324-.144c.35 2.29 1.375 11.863-9.017 23.167-11.52 12.55-25.117 13.51-27.193 11.62-1.751-1.746 4.009-20.147 12.792-28.672 8.21-7.845 20.722-9.761 23.287-6.938a124 124 0 0 1 6.181-5.004c-9.434 3.039-22.023 3.665-33.308-.043-10.158-3.337-19.487-15.62-17.372-17.788 1.362-1.336 1.804 1.188 9.108 1.321 3.001.148 6.08-.533 9.534-1.365-2.737-2.521-5.023-5.025-6.716-7.173a39 39 0 0 0 3.137 3.804c-2.851-3.018-4.847-5.845-5.764-7.664-.479-.894-.71-1.576-.659-1.973.384-2.967 21.144-12.857 39.387-10.149l.17-.066.024.094q.285.044.568.093l-.033-.133-.091-.235c.013.001 2.057.175 4.819 1.055l.197.056q.222.017.468.044a21 21 0 0 1-.134-1.007c-6.302-7.538-9.658-16.36-8.996-17.867.563-1.555 8.273-3.602 17.119-3.293 1.414-1.363 2.704-2.188 3.546-2.294h.002q.095-.009.196-.012.01-.067.038-.078l.028.078c.73-.008 1.703.199 2.821.626q-.633-4.133-1.253-8.255a31 31 0 0 1-2.595-2.675c-9.041 3.852-17.878 3.8-17.878 3.8-.011-.057-1.854-9.91-.097-20.028a42 42 0 0 1-1.356-2.498l-11.833 6.151c-5.545 5.569-9.216 22.212-16.788 27.495-7.823 5.458-19.136 6.071-19.136 6.071l-.036-.158q-.192.241-.197.249s-4.437-17.682 6.734-27.671c1.673-1.527 3.806-2.706 6.161-3.617 6.252-2.481 14.145-3.019 19.148-3.077l10.429-5.42c-12.081.519-21.431.766-26.77.855-3.066 2.909-16.134 6.519-28.844-2.593-12.662-9.104-12.507-25.332-10.872-25.966q.057-.021.117-.038c-.139-.139-.209-.196-.209-.196 1.635-.634 5.891 2.028 8.966 6.494 3.762 5.548 6.421 9.637 14.932 14.96 4.921 3.114 9.716 3.649 12.853 4.128 4.698-.094 16.985-.323 33.826-1.055-2.626-6.61-3.155-12.669-1.258-13.405 1.869-.724 1.376 2.162 8.926 5.702q.487.242.987.459c1.609-1.918 3.513-3.794 5.56-5.625-6.04-1.713-12.523-4.705-17.089-9.438-8.243 2.606-15.172 3.184-16.56 2.205-1.674-1.182-2.15-10.599.175-21.347-7.861-6.315-13.016-13.07-12.902-14.947.158-2.57 12.637-10.332 27.114-13.242-.139-4.16.264-7.112.961-7.882.887-.979 4.865-.826 10.154.232q-.84-3.69-1.726-7.325a41.8 41.8 0 0 1-9.907 1.199c-5.93.032-10.747-1.442-14.584-3.747-10.45-2.598-18.853-8.87-21.85-12.271-.913-.997-1.367-1.792-1.268-2.242.179-.807 4.545-2.786 10.771-4.502a18 18 0 0 1-.106-1.249c-.207-7.464 1.856-13.923 9.951-13.828 1.622-.002 4.768 1.383 8.59 3.429.071-3.938.227-8.094.57-12.369.197-2.438.421-4.613.667-6.568-10.423 4.545-24.676 6.79-37.916 4.031-12.026-2.613-24.234-15.395-22.068-18.122 1.038-1.48 2.037 1.097 10.418.542 2.807-.162 5.639-.964 8.717-1.993-4.734-2.044-8.956-4.512-12.202-6.787-5.835 4.969-11.802 8.355-15.225 9.572-1.326.489-2.31.679-2.8.541-2.631-.833-7.879-19.159-4.469-35.577-5.221-2.788-8.985-7.009-10.724-10.541-1.418-2.775-2.347-5.543-2.368-8.075-3.372-3.305-5.387-6.891-5.338-8.339q.005-.087.016-.177-.093-.025-.107-.058l.117-.011c.403-2.84 4.825-8.95 12.819-12.049 2.693-1.073 5.8-1.804 9.301-1.949 5.332-.252 9.276.84 12.161 2.586a40.8 40.8 0 0 1-5.272-12.109c-3.936-4.678-7.344-10.023-9.717-15.789-1.545-3.757-2.198-8.154-2.25-12.351-13.519 4.807-24.369.505-25.254-1.778-.429-1.107 1.821-4.274 5.397-7.728q.179-.859.398-1.756c-4.45-1.337-8.117-2.757-11.958-2.948-7.304-.132-8.303 2.141-9.315.917-1.39-1.887 6.058-9.724 14.739-13.924a58 58 0 0 1-.14-4.271c-1.379-1.074-2.167-2.064-2.287-2.653l-.004-.027-.04-.076-.293-.129c-.082-.645 1.064-1.74 2.955-2.947.502-4.351 1.646-8.767 3.934-11.85 1.728-2.26 3.84-3.901 6.087-5.093-8.36-3.07-14.709-9.518-14.987-13.015-.089-.232.01-1.323.013-1.351l-6.305 7.294c1.142 2.252 6.499 11.224.998 26.829-6.072 16.905-19.214 23.887-21.951 23.062-2.738-.826-5.099-21.468.091-33.72 4.242-10.537 14.92-17.639 19.149-17.123 1.842-2.87 4.619-6.103 8.187-9.373-4.06-1.17-9.497-3.077-14.74-5.714-9.643 6.544-18.701 7.015-20.484 5.627-1.363-1.241.657-10.182 4.813-18.866-9.383-16.667 2.093-36.563 2.141-36.646.011.004 3.752 1.309 8.487 3.892-.108-5.753-.541-12.807-.531-20.561a592 592 0 0 1-6.415-18.805q-.387.347-.789.69c-14.31 12.284-30.021 5.71-35.963-.61-3.84-4.18-6.26-8.605-4.58-12.831-7.397-3.802-12.513-8.091-12.701-9.571l.086-.034q.035-.313.248-.742c.938-2.517 7.561-8.721 16.53-13.6a43 43 0 0 1-.812-6.137l-.015.007a21 21 0 0 1-.06-1.049l-.136.053c-.005-.03-.342-1.993-.092-4.802-5.793 2.22-11.892 1.548-16.782-.078a32 32 0 0 0 3.277.99 29 29 0 0 1-3.696-1.131c-5.022-1.749-8.683-4.471-9.264-5.971-1.272-3.28 2.335-15.457 15.049-21.464q.3-.138.598-.267c-.513-4.723.063-8.311 1.582-8.662 1.669-.386.874 1.948 7.139 6.481 1.126-.05 2.183.013 3.181.176-4.118-2.825-8.374-6.878-11.799-12.551a32.6 32.6 0 0 1-2.595-5.328c-2.99-7.806-1.914-14.994.74-20.599-1.247-6.218-1.347-13.91 2.218-21.64 2.803-6.225 8.275-10.892 14.228-14.335.812-1.754 1.761-3.405 2.864-4.824a54 54 0 0 1 .008-2.83c-2.659.21-4.863.022-6.42.212-.963 3.625-15.224 16.577-29.155 17.082-10.145.16-18.604-10.572-18.332-14.72.506-4.238 4.528-16.037 16.36-17.39 14.673-1.647 31.112 11.652 31.41 14.5l-.234.09q.007.074.001.155c1.567-.19 3.747-.424 6.394-.631.132-3.258.492-6.17.592-9.79-5.959-4.982-11.453-11.333-15.278-18.555-2.336.66-4.979 1.169-7.965 1.44-18.163 1.652-29.8-7.58-30.1-10.428-.187-1.796 6.797-6.586 15.297-10.016.266-6.37 4.253-22.66 12.248-33.267a22.6 22.6 0 0 1 3.373-3.78C92.418-7.782 84.504-3.06 77.187-2.714 57.402-1.78 45.13-22.352 45.13-22.352c.008-.008 11.085-10.225 23.664-12.408 9.018-1.565 21.88 4.649 32.197 8.033-3.257-4.93-5.441-11.643-3.545-19.814-3.271.604-6.43.836-9.281.769 1.164-1.561 2.183-3.86 3.177-6.721-8.071-1.034-14.935-8.03-15.4-11.42l-.168.04.143-.325c.075-2.207 1.087-6.845 4.137-10.81-12.747-.325-25.797.85-38.685 4.181-1.34 2.4-5.349 8.723-16.777 11.435C10.645-55.872.838-61.77.02-63.878l-.018-.11c-.178-2.406 12.023-12.325 22.164-14.134 7.638-1.55 15.626 1.288 18.53 4.08 12.129-3.138 24.385-4.407 36.4-4.334a124 124 0 0 1-9.967-6.078C62.742-81.546 50.89-75.18 38.81-81.61c-14.907-7.964-16.944-23.612-14.985-33.803 3.918 3.87 15.05 7.639 27.038 14.309m192.031-46.191q.47.382.955.767a56 56 0 0 0-1.973 1.824c.399-.803.745-1.663 1.018-2.591M106.953-19.856q.285 1.239.635 2.418c-2.178.51-4.613 1.544-6.95 3.216a106 106 0 0 0 6.315-5.634m2.578 1.485q.539.319 1.008.547-.379.006-.781.04zM98.933 20.52a51 51 0 0 0 3.439-2.5q.193.297.396.591a29 29 0 0 0-.387 2.201c-1.093-.177-2.234-.315-3.448-.292M283.76-81.305c1.318.266 2.602.457 3.84.585q-.65.223-1.307.518a29 29 0 0 0-2.533-1.103M124.418 98.447c-1.159 1.985-1.949 3.694-2.311 4.936a7.9 7.9 0 0 0-2.419-.683 229 229 0 0 1 4.39-7.442q.165 1.58.34 3.189M311.452-23.567q1.033.306 2.079.64c2.32.763 4.727 1.531 7.102 2.257a73 73 0 0 0-5.773 4.879 1408 1408 0 0 0-3.408-7.776M114.258 154.468q.43.027.85.077l.101.07q-.465-.087-.951-.147m8.752 4.208c3.282 1.235 5.84 1.605 6.855 1.44a53 53 0 0 0 1.693 1.558c-.189.067-.372.174-.428.276q-.35.09-.858.223c-2.163-.896-4.234-1.651-6.198-2.355a16 16 0 0 0-1.064-1.142m8.406 3.944.013.044-.071-.032zm-2.868-19.425a13.4 13.4 0 0 0 2.364 1.683c.064.037.129.069.193.104a787 787 0 0 0 3.108 16.577 56 56 0 0 1-3.896-3.455c-.22-2.597-1.2-8.097-1.769-14.909m3.63 19.015a53 53 0 0 0 2.31 1.858 71 71 0 0 0-2.121-.992 42 42 0 0 0-.189-.866m227.647-66.347c2.582-.96 4.169-1.73 4.187-1.738 0 0-.103-.376-.321-1.042a69 69 0 0 0 2.094-.315 65 65 0 0 0-4.964 5.693zM169.076 279.17l.03.075-.063-.056zm209.456-142.79q1.27.332 2.657.669c2.834.69 5.618 1.286 8.319 1.816.096 2.564.097 4.734.083 6.033l-4.505 4.02c-1.999-.711-4.017-1.363-5.982-1.844q-1.155-3.152-2.333-6.338c.907-1.214 1.467-2.696 1.761-4.356M179.904 304.672q1.692 3.828 3.418 7.651a27 27 0 0 0-1.696 2.87c-.621-3.292-1.141-6.899-1.722-10.521m212.499-129.663q.937.534 1.914 1.051-2.128.693-4.312 1.409l-.109-.311c.741-.643 1.578-1.362 2.507-2.149m42.48-65.588c3.645 2.941 18.443 9.794 33.457 10.674-3.873 2.69-6.967 5.53-8.788 7.674a269 269 0 0 0-9.784 4.72c-.906-6.748-3.761-11.887-3.788-11.935l-.476.159c-2.15.745-11.093 4.124-16.61 10.506-3.216 3.721-4.522 10.207-5.63 16.51a323 323 0 0 0-15.462 10.602c-4.837-.655-9.518-.657-13.62-.084 3.126-2.821 5.16-5.267 5.145-5.595-.266-.685-4.397-.131-10.453-2.338l5.656-5.055c7.066-.671 16.345.311 21.859-1.352 1.622.479 2.998 1.008 4.084 1.625q-.057-.149-.101-.274.172.091.335.184a45 45 0 0 0-.508-3.898q.352-.477.57-1.049-.044.337-.114.655s3.49-4.856-2.997-12.581a33 33 0 0 0-1.943-2.205c8.636-7.686 15.486-13.751 19.017-16.81zm-22.106 49.808a323 323 0 0 1 9.614-6.585c-.635 3.39-1.351 6.471-2.459 8.714a55 55 0 0 0-7.155-2.129m-191.53 230.997a24 24 0 0 1-.819-.873l.254-.23zm195.518-134.238c7.395-4.16 12.437-8.694 17.966-10.621q.234-.082.462-.158c-2.648 3.268-4.226 6.168-4.262 7.433-2.82.956-7.916 1.945-14.166 3.346M194.76 452.286a27 27 0 0 0 2.985 3.43l-.001.117a28 28 0 0 1-2.984-3.547m38.107-8.977c1.026.938 1.995 1.7 2.846 2.292-.704.38-1.351.75-1.928 1.097a15.6 15.6 0 0 0-.918-3.389m8.467-3.622c1.521.712 3.014 1.3 4.459 1.749a46 46 0 0 0-5.384 1.909c.262-1.042.568-2.274.925-3.658m195.704-122.966a20 20 0 0 1-1.027 3.151l-.07-.227c.418-.917.788-1.891 1.097-2.924m-112.285 416.06q.928.027 1.816-.049c.088-.006.18-.018.275-.028.091 1.505.122 2.786.125 3.76q-.822-.232-1.647-.469a13 13 0 0 0-.515-2.398 10 10 0 0 0-.064-.49q.01-.137.01-.326m3.126-.255q.445-.104.931-.26.888.282 1.823.508l.106.58c-.653 1.359-1.019 2.457-1.125 3.145q-.356.238-.726.492l-.76-.206a184 184 0 0 0-.249-4.259m180.185 360.164c.198 1.29.553 2.65 1.022 4.03-.293.52-.581 1.04-.86 1.57-2.23 1.34-4.479 2.71-6.611 4.07.51-2.43.578-4.28.232-4.91 1.297-1.18 3.591-2.67 6.217-4.76m11.541 33.56c.293-.16.584-.33.875-.5-.086.75-.211 2.09-.259 3.84a233 233 0 0 1-.616-3.34m78.68 258.24c-.149.01-.295.01-.439.02l.265-.46c.058.15.116.29.174.44" clip-rule="evenodd"/><path fill="#d0e8fb" fill-rule="evenodd" d="M490.645 1122.44c-.175-.2-.341-.41-.497-.61.119.2.246.39.383.59.037 0 .076.01.114.02" clip-rule="evenodd"/><path fill="#d0e8fb" d="m114.188 190.434-.024-.266-.067.032z"/></svg>