<svg width="999" height="895" viewBox="0 0 999 895" fill="none" xmlns="http://www.w3.org/2000/svg">
<path d="M100.043 510.99L99.7649 511.173C99.7272 511.153 99.69 511.132 99.6521 511.112C99.899 511.035 100.035 510.993 100.043 510.99Z" fill="url(#paint0_linear_60_11012)"/>
<path fill-rule="evenodd" clip-rule="evenodd" d="M169.379 58.2352C171.675 57.0804 180.163 57.3453 188.277 65.5856C197.051 74.2738 195.489 80.9983 193.578 83.8564C194.733 85.2039 196.001 86.7307 197.327 88.474C200.852 93.033 205.384 98.5835 210.892 104.9C207.228 97.7953 203.547 88.0964 202.661 78.3854C201.25 65.3096 209.002 54.0454 212.365 54.3095L212.643 54.1269C212.643 54.1269 212.635 54.197 212.621 54.3392C216.188 54.8184 225.34 59.7969 227.464 74.8767C229.909 91.4991 222.935 110.427 219.88 114.916C222.306 117.465 226.482 121.791 231.804 127.281C234.375 122.897 237.568 119.754 241.02 117.545C241.001 116.278 241.121 115.255 241.346 114.534C240.169 109.498 239.475 104.314 239.418 99.1551C239.296 93.1726 241.079 86.9182 243.494 81.668C239.653 77.2477 237.343 72.9245 237.343 72.9245C237.412 72.8707 250.83 62.4665 264.006 68.6072C271.068 71.8745 276.693 82.0784 279.536 88.1782L288.045 95.1937C288.094 95.1689 288.142 95.1442 288.191 95.1196C283.115 84.8024 279.343 76.7508 277.252 72.1193C273.445 69.989 265.459 59.9052 268.398 45.5477C271.133 31.1869 284.788 25.2225 286.382 26.2377L286.448 26.2916C287.672 27.548 287.053 32.0711 284.476 36.6449C281.252 42.0549 278.764 46.1591 277.439 55.6762L277.719 55.493C276.93 61.2664 278.525 65.9776 279.278 68.9631C281.19 73.0948 285.324 81.9321 291.12 93.776C297.539 91.1356 304.272 90.255 310.625 90.4529C310.988 89.0966 311.454 87.7757 312.036 86.5107C312.215 86.0997 312.404 85.7043 312.603 85.3236C310.852 80.7746 310.593 76.932 311.391 75.815C312.59 74.1368 318.648 72.2733 326.58 74.3455C328.005 71.0608 329.793 68.5119 331.287 67.1816C324.758 65.4121 317.287 63.7068 308.856 62.241C308.856 62.241 320.887 48.9942 337.809 52.3042C346.815 54.0656 354.176 61.9205 359.093 68.8844C359.513 67.3019 360.075 65.8227 360.749 64.4412C359.651 61.2098 359.088 58.5169 358.436 56.8887C354.72 56.3472 341.043 47.0173 337.583 35.5676C334.81 27.0929 342.014 17.4247 345.555 16.7476C349.286 16.3587 360.031 17.5452 364.028 27.2764C368.981 39.6757 361.178 56.326 359.039 57.3178L359.129 56.8473C359.012 56.9011 358.856 56.921 358.664 56.9119C359.275 58.4413 360.16 60.7543 361.155 63.6454C364.791 56.8286 371.147 52.5075 376.14 49.9953C378.094 47.4715 380.293 45.1076 382.73 43.0081C383.557 42.2988 384.453 41.646 385.397 41.0477C377.94 30.4055 377.128 20.1673 378.615 18.5293C380.491 16.105 399.171 22.2684 409.339 31.3311C411.205 19.2101 418.323 12.4257 420.481 12.4738C422.908 12.5282 429.66 28.2761 428.723 39.5981C428.537 42.7558 427.71 45.7696 426.557 48.4083C428.817 46.7643 431.393 45.2542 434.175 44.2575C438.419 42.6842 444.095 43.2925 449.888 44.3192C448.619 41.9516 447.454 39.1215 446.523 35.7437C442.287 19.5798 448.447 7.71362 450.776 7.00927C453.104 6.3053 465.447 20.8556 468.062 32.7299C469.121 37.5417 468.755 42.4762 467.709 46.5259C468.633 46.4965 469.28 46.4407 469.606 46.4077C469.18 47.6804 466.486 52.139 462.514 56.7696C462.763 58.3847 463.034 60.3832 463.28 62.6993C463.357 62.7199 463.433 62.7413 463.51 62.7622C465.157 56.649 468.264 50.0486 472.65 44.2442C474.35 41.1624 476.205 39.1858 477.355 38.8542C478.217 38.0017 479.111 37.1814 480.04 36.4015C487.92 29.5837 502.754 28.4983 503.431 31.3489C504.097 32.9707 501.848 31.9753 497.788 37.9333C494.984 42.049 494.015 47.5139 491.497 53.9714C492.091 55.5721 492.605 57.3094 493.009 59.1888C493.363 60.9561 493.58 62.5955 493.684 64.1138C496.433 64.9418 499.333 66.2673 502.172 68.2622C507.476 63.9348 512.117 61.5172 513.474 61.822C514.599 62.1672 516.62 65.9363 518.397 71.5175C519.219 70.1642 520.139 68.8131 521.173 67.4774C533.462 51.5896 551.508 55.3974 559.208 61.0524C561.014 62.2453 562.475 63.665 563.691 65.1367C564.378 65.9227 564.981 66.7297 565.474 67.5618C565.487 67.582 565.501 67.6015 565.514 67.6216C565.511 67.6202 565.508 67.619 565.505 67.6175C565.513 67.6317 565.52 67.6467 565.529 67.6609C565.523 67.6481 565.519 67.6345 565.514 67.6216L565.703 67.9096C566.284 68.9908 566.68 70.1075 566.851 71.2583C567.094 72.8498 566.9 74.5186 566.141 76.2705C565.772 77.1264 565.27 77.9981 564.62 78.885C564.606 78.9045 564.592 78.9247 564.578 78.9442C563.265 80.87 557.549 83.4442 550.781 86.0335C556.912 87.3535 562.95 88.8082 568.884 90.388C568.97 90.1037 569.056 89.8204 569.142 89.5383C572.593 78.0765 575.964 67.5154 578.988 58.3715L577.436 44.7398C573.891 37.8516 561.076 28.3929 558.977 20.0232C556.831 11.4657 560.007 1.34476 560.213 0.705863C560.096 0.495552 560.034 0.386089 560.034 0.386089C560.034 0.386089 575.86 2.81905 581.575 14.9649C581.903 15.6024 582.206 16.2665 582.476 16.9593C585.329 24.7625 581.917 36.2575 579.716 42.2326L580.9 52.6367C584.503 41.9295 587.467 33.6457 589.259 28.8148C587.731 25.2735 588.658 12.0792 601.321 3.77036C613.767 -3.98405 627.911 2.3806 628.113 3.89839L628.137 4.07044C628.256 5.86247 624.44 8.3032 619.476 9.56535C613.328 11.1288 608.762 12.0669 601.15 17.4728C596.303 21.1914 594.204 25.7351 592.684 28.2958C589.672 36.5723 581.179 60.4215 572.136 90.4563C572.062 90.7062 571.988 90.9573 571.913 91.209C572.718 91.4304 573.52 91.6541 574.321 91.8801C575.892 88.6648 578.16 85.1636 581.401 81.4951C584.528 77.9938 587.835 75.2352 591.095 73.0933C594.686 68.9458 599.271 65.1725 604.594 63.3948L605.129 63.2244C616.004 59.9422 624.013 67.7067 626.494 71.2605C626.498 71.2591 626.501 71.2588 626.501 71.2588L626.69 71.5467L626.792 71.7153C627.163 72.3805 627.351 73.3369 627.361 74.4807C632.744 74.4377 643.173 77.8324 650.255 88.6174C653.656 93.7979 654.72 98.4533 654.47 102.323C657.137 97.2786 660.641 91.6856 666.67 86.9056C683.088 73.6625 700.329 81.7063 706.734 89.0339C712.384 95.2102 714.959 102.168 708.004 107.967C707.36 108.482 706.181 108.974 704.607 109.447C703.794 110.522 701.774 112.192 699.964 118.184C698.885 121.756 698.76 125.664 698.641 130.084C701.848 131.194 705.064 132.335 708.283 133.507C712.443 126.906 718.169 121.928 723.493 118.807C723.417 121.39 724.145 124.842 725.298 128.998C727.173 126.965 728.471 125.841 728.495 125.82C728.507 125.829 735.245 131.322 741.264 139.542C748.437 133.074 757.996 131.868 763.932 133.043L764.121 133.331C770.612 134.583 775.938 137.463 776.4 143.436C776.643 144.811 776.6 146.341 776.186 148.062C775.743 150.388 772.111 154.804 767.478 159.781C772.759 162.681 777.94 165.723 782.989 168.918C783.958 168.462 784.824 168.246 785.494 168.311C785.494 168.311 785.503 168.388 785.522 168.534C788.19 168.91 793.031 170.578 796.891 174.406C798.057 160.785 797.638 146.681 794.889 132.538C792.683 131.321 785.895 126.507 783.754 113.447C781.021 98.3566 787.568 88.2949 790.085 87.8787C792.603 87.4631 802.33 101.671 803.631 112.759C804.615 121.141 801.169 129.367 798.011 132.037C800.581 145.477 801.097 158.866 800.175 171.845C802.472 168.09 805.069 164.061 807.772 160.785C804.94 155.659 799.374 142.783 806.762 130.884C815.978 115.778 832.403 115.296 842.789 118.364C838.431 122.048 833.762 133.758 825.921 145.492C818.078 157.415 814.679 158.852 810.184 162.245C810.135 162.335 810.075 162.431 810 162.528C806.544 166.672 803.329 171.686 800.623 176.143C802.023 176.922 802.904 177.628 803.123 178.159C803.293 178.574 803.204 179.292 802.883 180.241C803.131 180.302 803.38 180.361 803.627 180.425C804.027 180.529 804.426 180.637 804.823 180.75C807.179 181.415 809.537 182.46 811.801 183.739C820.595 173.826 834.768 168.258 844.356 166.151C844.805 158.708 844.782 149.769 848.227 144.859C853.302 137.411 863.161 133 863.161 133C863.161 133 863.226 133.102 863.348 133.293C863.349 133.289 863.351 133.288 863.351 133.288C863.373 133.321 873.259 147.798 866.927 160.591L867.017 160.12C865.387 163.534 862.131 166.444 858.52 168.806C857.684 169.362 856.826 169.887 855.964 170.384C855.979 172.163 855.881 174.218 855.652 176.462C858.566 175.273 861.017 174.283 862.936 173.514C864.785 169.981 875.195 162.343 889.469 166.39C903.785 170.587 909.315 185.078 908.111 186.281L907.988 186.387C906.615 187.415 902.096 186.34 897.914 183.499C892.751 179.886 888.901 177.059 879.55 174.958C874.167 173.749 869.692 174.815 866.708 175.396C864.433 176.296 860.471 177.876 855.194 180.039C853.934 188.264 851.025 198.146 845.72 206.162C846.752 206.557 847.757 207.014 848.722 207.54C859.317 213.355 859.226 225.356 858.23 229.304C858.056 229.842 857.659 230.436 857.08 231.045C858.21 234.051 858.554 236.528 858.109 237.62C857.496 238.938 855.4 241.001 852.233 242.703C853.636 245.388 854.962 248.037 856.211 250.653C862.666 249.205 867.566 250.202 868.394 251.462C869.236 252.744 866.366 258.461 861.917 263.715C863.273 267.156 864.481 270.539 865.547 273.867C868.662 264.304 872.189 250.357 874.306 231.934C874.306 231.934 888.033 244.341 885.464 261.675C883.989 271.626 875.451 279.422 868.446 284.26C868.611 284.956 868.769 285.649 868.92 286.34C875.083 284.562 880.033 283.251 882.559 282.215C883.488 277.976 891.849 265.341 902.735 261.874C911.023 259.319 920.881 266.441 921.656 270.05C922.432 273.66 922.051 284.615 912.281 288.555C900.894 292.853 884.652 285.811 882.545 283.325C882.464 283.132 882.452 282.848 882.508 282.485C879.94 283.534 875.162 285.359 869.084 287.109C869.127 287.311 869.169 287.513 869.21 287.715C869.717 287.925 870.122 288.167 870.414 288.435L870.646 288.283L871.401 289.434C871.507 289.816 871.494 290.081 871.371 290.304C880.44 293.012 890.422 298.691 897.583 306.847C904.745 315.325 907.2 330.598 904.126 331.38C902.355 331.719 903.271 329.471 896.984 325.36C890.831 321.336 882.029 321.416 871.277 314.719C871.007 318.951 870.44 323.11 869.581 327.213C869.97 327.466 870.353 327.722 870.73 327.98C874.271 324.894 877.688 322.253 879.693 322.704L879.783 322.233C881.181 322.481 882.198 323.002 882.911 323.726L882.966 323.438C886.453 327.427 884.352 333.779 882.527 339.121C882.685 339.37 882.819 339.601 882.929 339.814C886.588 344.633 889.207 349.87 890.912 354.665C893.51 351.973 899.711 347.168 911.625 347.051C927.772 346.752 937.738 355.861 937.947 358.607C938.244 360.882 921.788 369.209 909.93 368.754C899.093 368.338 889.214 360.761 889.353 357.045C887.383 356.851 884.656 356.522 881.368 355.967C889.917 360.667 899.01 369.19 904.227 379.496C904.68 380.417 905.072 381.386 905.409 382.384C954.933 364.414 988.064 360.26 996.782 373.538C1019.65 408.365 863.118 551.838 646.927 693.688C430.736 835.539 236.979 922.314 213.922 887.201C202.495 869.797 235.235 825.842 297.492 768.658C287.411 772.157 278.424 772.898 276.859 771.781C275.909 771.165 275.266 768.47 275.119 764.538C269.119 764.359 264.425 762.907 264.265 761.101C264.233 760.514 264.44 760.238 264.894 759.989C261.758 760.015 258.657 759.916 255.59 759.698C254.633 760.952 253.756 761.698 253.162 761.796C252.166 762.009 250.315 761.375 248.184 759.851C247.534 760.997 247.107 761.639 247.093 761.66C247.068 761.648 243.866 760.183 239.641 757.453C239.07 757.333 238.501 757.209 237.933 757.081C237.87 757.498 237.804 757.915 237.732 758.331C235.412 771.796 221.8 785.669 218.606 783.235C216.915 781.873 219.8 780.804 218.887 771.52C218.119 764.68 214.053 757.629 211.352 747.81C209.886 747.113 208.432 746.391 206.991 745.643C205.272 747.171 203.507 748.504 201.712 749.661C200.976 751.463 200.167 752.605 199.51 752.936C199.049 753.168 198.176 752.914 197.019 752.265C182.113 759.271 165.948 755.547 155.706 749.968C160.896 747.168 167.554 738.739 176.379 729.118C175.756 727.917 175.204 726.719 174.742 725.535C174.352 724.48 174.018 723.415 173.737 722.346C172.213 720.976 170.712 719.581 169.235 718.162C168.808 718.649 168.415 719.134 168.068 719.62C164.463 725.08 163.796 728.845 163.688 730.378C163.78 730.546 163.816 730.646 163.768 730.677C163.768 730.677 163.736 730.649 163.677 730.594C163.661 730.959 163.678 731.148 163.678 731.148C163.598 731.053 163.519 730.954 163.441 730.852C163.157 730.81 161.65 730.538 159.6 729.254C161.286 730.658 162.768 731.459 163.777 731.906C163.724 731.9 157.308 731.153 151.93 721.148C149.836 717.095 148.639 713.864 147.697 710.816C147.18 709.241 146.757 707.745 146.34 706.237C146.098 706.352 145.851 706.465 145.599 706.575C145.172 712.643 144.45 736.41 155.055 773.868C154.975 773.839 135.198 766.672 130.386 747.226C126.469 731.396 139.045 713.44 143.902 707.26C143.809 707.295 143.716 707.331 143.622 707.365C134.819 713.963 127.888 720.245 124.849 723.308C125.936 727.997 122.925 746.132 112.896 754.584C105.015 761.402 91.5444 757.886 89.2767 754.433C87.0089 750.978 82.714 738.973 90.9528 730.272C101.232 719.822 122.522 720.677 124.591 722.614L124.402 722.326C124.552 722.467 124.675 722.707 124.775 723.036C127.713 720.081 133.959 714.084 142.064 707.885C130.508 711.462 112.889 710.858 98.2099 703.685C87.0583 698.236 78.0675 682.721 80.6645 680.605C82.3357 679.509 82.2663 682.437 90.7717 683.856C98.9991 685.458 108.302 681.414 123.165 684.016C125.36 684.396 127.615 684.969 129.858 685.672C125.996 682.759 122.941 679.14 120.562 675.524C120.412 675.608 120.263 675.676 120.112 675.724C118.327 676.331 116.85 676.297 115.627 675.784L115.446 675.903C107.577 672.418 108.216 658.821 106.297 652.256C105.767 650.443 105.159 648.838 104.535 647.262C103.218 645.674 102.015 644.04 100.936 642.424C97.1658 643.691 93.7854 643.728 91.6169 644.636C91.6181 644.765 91.6093 644.895 91.5845 645.026L92.0513 645.13C91.3246 647.666 89.4527 658.778 74.2097 667.133C57.1063 676.296 42.0443 672.177 40.3433 669.586C38.7322 666.525 51.1021 648.937 63.7481 642.699C75.0795 637.151 89.7635 639.773 91.4551 643.871C93.5219 643.009 96.3602 641.899 99.8381 640.717C99.7739 640.613 99.71 640.51 99.6469 640.407C88.3171 640.139 74.3647 636.173 63.352 628.134C53.1161 620.436 47.4782 603.957 50.2642 602.129C52.1245 601.32 51.8661 603.961 59.8242 606.975C67.7827 609.989 77.9408 607.854 91.7985 613.175C95.6631 614.58 99.5733 616.602 103.189 618.84C103.222 618.8 103.255 618.76 103.288 618.721C103.443 618.5 103.608 618.285 103.786 618.076C104.558 617.173 105.465 616.606 106.483 616.318C103.98 613.138 102.592 610.637 102.693 609.733L102.504 609.445C102.618 608.433 105.187 606.595 109.274 604.744C108.878 601.905 108.543 599.071 108.266 596.24C97.392 600.271 86.3751 597.023 85.0263 594.969C83.6043 592.196 86.1337 581.477 98.1132 573.617C98.9738 573.083 99.8114 572.606 100.626 572.18C87.6705 566.976 77.5658 558.802 77.2533 556.418C77.1545 555.293 79.3904 552.593 83.2075 549.441C82.156 549.134 81.6065 549.028 81.3949 548.511C81.2162 548.334 81.126 548.091 81.1052 547.714C81.1052 547.714 81.195 547.243 81.5632 546.589L81.473 547.06C81.4747 547.093 81.4778 547.124 81.4807 547.154C82.461 545.5 86.8956 543.799 92.3789 543.067C94.5733 541.773 96.939 540.521 99.4294 539.382C99.2467 537.862 99.3656 536.316 99.672 534.707C93.2566 531.789 87.9399 527.451 83.7727 523.062C82.9545 523.249 82.2133 523.416 81.5537 523.566C79.1029 524.931 73.6459 526.075 68.9302 530.993C62.731 537.943 61.0885 542.727 59.267 548.452C57.6246 553.236 54.4805 556.946 52.6102 556.526C51.2074 556.211 46.5141 541.171 55.7581 529.752C64.4841 518.617 76.6956 518.521 81.056 520.262C81.1145 520.248 81.1736 520.234 81.2332 520.221C80.82 519.731 80.4194 519.246 80.0357 518.765C83.9168 518.465 89.778 516.098 97.1281 513.034L94.8353 512.52C88.5024 514.015 77.501 515.78 70.5556 512.219C57.7334 505.419 57.1106 488.152 57.1086 488.097C57.1086 488.097 57.2134 488.177 57.4139 488.328C57.3954 488.066 57.3872 487.922 57.387 487.915C57.387 487.915 65.7758 486.054 73.72 488.124C75.1464 483.214 77.8226 477.93 82.7592 473.737C92.7514 465.252 110.859 468.015 118.314 469.634C118.013 469.34 117.71 469.038 117.411 468.724C109.614 464.679 102.846 461.787 99.3048 460.57C97.4948 462.811 81.4072 467.93 69.9762 462.769C61.4513 458.891 58.8367 447.017 60.3992 443.933C62.2403 440.666 69.8328 432.802 79.6616 436.237C91.7379 440.666 100.181 457.774 99.2669 460.024L99.456 460.312C99.4545 460.316 99.4509 460.321 99.4492 460.326C102.781 461.473 109.072 463.824 116.228 467.422C109.194 459.34 103.121 445.94 102.783 432.596C102.775 431.554 102.838 430.497 102.962 429.439C97.258 423.677 97.8715 412.874 95.3884 406.347C95.2983 406.351 95.2048 406.348 95.1074 406.335C93.1246 406.116 91.4319 402.202 90.862 398.249C89.7157 396.821 88.7712 396.018 88.2835 395.65C86.4134 395.368 84.8415 395.124 83.6279 394.924C75.9171 393.605 67.0814 391.808 58.741 390.016C52.993 391.053 43.381 395.511 40.796 396.502C33.4081 400.467 19.4664 409.164 2.19289 425.708C2.19289 425.708 -0.929047 408.812 10.8422 398.206C19.4713 390.089 35.0681 391.574 42.4605 392.858C45.1807 391.615 49.1503 389.927 52.8753 388.739C39.0159 385.686 27.7984 382.977 27.6189 383.08C27.3379 383.016 27.0906 382.894 26.8915 382.737C21.0808 382.928 13.1483 382.401 8.44774 378.775C-1.78807 371.078 0.145367 355.808 0.145367 355.808L0.579295 355.805C2.55048 355.812 10.823 356.06 16.9773 359.589C23.7139 363.452 28.3867 376.981 33.4716 381.543C37.8735 382.596 44.6292 384.185 52.2742 385.889C49.5904 383.949 47.1125 381.305 45.2195 377.709C37.3526 362.692 44.0601 349.231 51.0056 342.203L51.1151 342.696C52.4321 347.909 59.4278 356.946 65.2182 368.705C71.557 381.217 70.7898 384.522 71.7318 390.016C75.9285 390.851 80.0479 391.626 83.8879 392.283C85.5378 392.555 87.8489 392.907 90.673 393.326C90.6798 393.322 90.6867 393.319 90.6934 393.315C90.8418 391.068 91.2323 389.549 91.2402 389.518L91.0512 389.23C91.4896 385.648 81.8299 380.043 84.7562 372.358C85.4242 370.603 86.4235 369.448 87.6292 368.702C91.6849 365.897 98.332 368.174 102.456 367.745L102.267 367.457C107.456 366.916 109.317 364.902 109.341 364.875C109.358 365.098 109.366 365.321 109.365 365.544C109.501 365.799 109.733 366.298 109.943 367.026C111.426 364.164 113.921 360.904 117.564 358.202C102.051 350.136 96.1249 337.162 97.0595 334.635C97.9262 332.677 108.278 331.624 118.893 333.092C117.374 329.056 116.451 325.432 115.487 322.162C115.157 322.108 114.861 322.019 114.602 321.89L114.88 321.707C112.929 320.72 111.838 319.461 111.386 318.031C110.658 316.137 110.688 314.2 111.195 312.266C107.765 306.805 105.478 307.177 105.978 305.721C106.522 304.494 109.965 304.536 114.428 305.641C116.845 301.985 119.844 298.545 121.302 295.667C123.065 292.187 123.969 289.139 125.502 285.843C121.223 283.635 118.289 280.908 115.804 279.862C115.709 279.961 115.603 280.052 115.484 280.13C113.254 281.593 104.061 287.624 87.2193 282.615C68.5068 277.185 60.1824 263.293 60.9984 260.286C61.8148 257.279 83.1657 253.977 96.6455 258.722C108.985 263.066 117.785 275.251 116.194 279.244C118.449 280.196 121.575 281.599 125.295 283.482C121.278 279.504 117.411 274.418 114.221 268.659C111.437 265.532 109.858 263.017 109.926 261.951C109.931 261.605 110.112 261.186 110.449 260.707C108.862 256.718 107.641 252.535 106.924 248.272C104.867 236.032 112.022 220.218 115.484 221.241C117.355 221.661 115.036 223.594 118.925 231.338C121.751 236.965 126.982 241.45 132.18 248.762C136.674 247.355 141.534 246.303 146.449 245.926C146.428 245.899 146.407 245.874 146.39 245.849C144.88 243.545 156.532 229.723 167.695 224.87C158.405 218.612 154.884 210.216 155.709 208.437C155.929 207.284 161.205 206.938 167.21 207.767C162.538 197.59 161.843 185.756 164.73 184.766C164.932 184.557 165.16 184.42 165.414 184.362C167.463 183.841 166.458 186.56 173.968 191.927C174.654 192.417 175.371 192.866 176.116 193.286C178.794 187.656 182.555 181.594 187.327 176.494C185.8 173.035 184.189 171.661 184.17 171.644C184.193 171.625 187.67 168.785 195.04 169.867C195.114 169.818 195.188 169.768 195.262 169.719C196.376 168.988 197.68 168.544 198.794 167.813C186.688 159.696 185.15 142.174 187.18 139.195C189.345 136.229 201.19 131.985 213.642 138.189C216.047 138.405 220.905 140.717 226.543 143.859C226.98 139.778 227.999 135.384 229.961 130.892C230.006 130.79 230.051 130.689 230.097 130.589C222.776 125.794 213.69 126.323 210.34 126.729C206.529 127.491 200.101 128.726 193.369 131.016C184.992 134.042 175.868 137.145 173.062 136.515C166.795 134.862 166.1 129.553 167.454 123.723L167.265 123.435C169.077 116.481 177.674 105.899 192.636 109.259C204.93 112.02 211.66 120.656 213.416 124.272C216.796 124.199 221.475 124.56 226.106 126.271C222.323 122.373 219.335 119.278 217.438 117.283C207.461 106.945 200.011 97.4199 194.729 90.5902C193.431 88.8821 192.24 87.347 191.158 86.0206C187.851 87.8487 182.73 87.4328 176.246 80.9007L175.51 80.1388C167.513 72.2083 167.227 59.6301 169.177 58.3505L169.379 58.2352ZM847.561 374.17C850.19 378.78 852.417 384.62 853.168 391.584C853.69 396.427 853.187 400.636 852.003 404.248C864.748 398.538 876.857 393.41 888.253 388.9C884.803 386.629 881.013 383.802 877.156 379.551C875.975 378.248 874.849 376.832 873.785 375.359C870.189 377.127 865.679 378.347 860.343 378.227C854.589 378.003 850.468 376.384 847.561 374.17ZM805.605 412.196C805.12 412.58 804.633 412.964 804.144 413.349C803.751 413.766 803.35 414.201 802.942 414.656C801.452 416.247 800.101 417.784 798.87 419.247C795.94 422.799 793.663 425.891 791.793 428.291C792.17 429.82 792.411 431.322 792.531 432.791C801.839 428.061 810.931 423.551 819.784 419.273C819.209 418.771 818.694 418.184 818.251 417.499C816.96 419.097 815.884 420.112 815.094 420.409C814.853 420.561 814.645 420.654 814.472 420.68L814.75 420.497C813.452 420.693 809.718 417.468 805.605 412.196ZM818.139 417.321C818.06 417.421 817.98 417.517 817.903 417.612C817.983 417.524 818.064 417.431 818.147 417.337C818.144 417.332 818.142 417.326 818.139 417.321ZM889.484 356.428C889.531 356.315 889.592 356.207 889.666 356.105C889.688 356.077 889.712 356.048 889.736 356.017C888.58 355.761 887.266 355.585 885.81 355.463C887.264 355.657 888.437 356.326 889.484 356.428ZM90.1785 488.457C87.9279 490.093 85.5828 491.863 83.1522 493.779C89.1761 499.646 94.7868 508.492 99.6521 511.112C99.6308 511.118 99.6087 511.126 99.5857 511.133L100.961 511.441C103.297 510.47 105.758 509.453 108.332 508.434C108.491 505.049 107.643 503.141 107.636 503.126C107.636 503.126 110.48 502.487 114.813 504.213C115.103 502.651 115.396 501.09 115.694 499.531L115.635 499.524C105.419 498.239 96.0434 492.987 90.1785 488.457ZM112.833 474.372C115.369 474.307 117.918 474.382 120.406 474.638C120.2 473.556 120.048 472.388 119.978 471.141C119.963 471.129 119.949 471.117 119.934 471.105C118.448 471.703 116.037 472.746 112.833 474.372ZM661.142 118.101C661.192 117.83 661.246 117.562 661.305 117.297C660.781 117.433 660.277 117.569 659.791 117.699C660.241 117.833 660.691 117.966 661.142 118.101ZM651.455 110.48C650.737 111.484 649.913 112.327 649.096 113.035C649.712 113.264 650.319 113.507 650.919 113.76C651.05 112.768 651.229 111.665 651.455 110.48ZM616.788 91.7444C616.788 95.7244 617.38 100.141 617.559 105.259C617.735 105.237 617.911 105.213 618.088 105.193C619.58 105.038 620.983 105.353 622.196 105.38C619.351 100.591 618.521 95.3531 618.765 90.5888C618.14 91.0184 617.481 91.4066 616.788 91.7444ZM130.534 419.314C129.231 420.701 127.906 422.49 126.457 424.324C127.7 424.311 128.853 424.331 129.936 424.378C130.149 422.731 130.347 421.043 130.534 419.314ZM109.478 375.352C106.967 382.295 104.651 383.707 101.652 390.782C101.801 390.922 101.953 391.062 102.107 391.2C102.583 391.226 103.073 391.258 103.576 391.307C110.025 392.019 114.191 393.19 118.452 394.507C117.092 393.277 116.286 392.277 116.181 391.684L115.993 391.396C115.687 390.285 117.871 387.333 121.675 383.934C118.779 382.812 116.186 381.302 114.071 379.728C112.012 378.235 110.429 376.672 109.478 375.352ZM461.734 57.6617C460.563 58.9772 459.294 60.291 457.951 61.5344C459.233 61.7555 460.512 62.0166 461.782 62.3199C461.589 60.5746 461.931 58.994 461.734 57.6617ZM397.563 53.0814C396.989 54.9785 396.397 57.0004 395.66 59.1334C396.319 58.8756 396.965 58.6595 397.589 58.4864C397.932 58.016 398.287 57.5612 398.653 57.1234C399.273 56.3509 399.924 55.6261 400.601 54.9497C399.614 54.4019 398.601 53.7812 397.563 53.0814ZM260.693 90.5235C263.893 96.0488 268.101 102.135 271.528 110.536C271.793 110.107 272.069 109.678 272.357 109.251C276.247 103.572 280.797 99.4379 285.665 96.5151L281.171 92.8088C281.244 92.9987 281.284 93.099 281.284 93.099C281.154 92.9331 281.019 92.7678 280.884 92.6012C276.312 90.689 268.029 91.1835 260.693 90.5235Z" fill="url(#paint1_linear_60_11012)"/>
<path d="M882.545 283.325C882.549 283.334 882.552 283.343 882.556 283.351L882.516 283.29C882.525 283.302 882.535 283.313 882.545 283.325Z" fill="url(#paint2_linear_60_11012)"/>
<path d="M469.851 46.3813C469.851 46.3813 469.767 46.3914 469.606 46.4077C469.657 46.2556 469.677 46.1493 469.662 46.0934L469.851 46.3813Z" fill="url(#paint3_linear_60_11012)"/>
<defs>
<linearGradient id="paint0_linear_60_11012" x1="250" y1="606.5" x2="192.5" y2="-189" gradientUnits="userSpaceOnUse">
<stop stop-color="#1B4E70"/>
<stop offset="1" stop-color="#B2B5D6"/>
</linearGradient>
<linearGradient id="paint1_linear_60_11012" x1="250" y1="606.5" x2="192.5" y2="-189" gradientUnits="userSpaceOnUse">
<stop stop-color="#1B4E70"/>
<stop offset="1" stop-color="#B2B5D6"/>
</linearGradient>
<linearGradient id="paint2_linear_60_11012" x1="250" y1="606.5" x2="192.5" y2="-189" gradientUnits="userSpaceOnUse">
<stop stop-color="#1B4E70"/>
<stop offset="1" stop-color="#B2B5D6"/>
</linearGradient>
<linearGradient id="paint3_linear_60_11012" x1="250" y1="606.5" x2="192.5" y2="-189" gradientUnits="userSpaceOnUse">
<stop stop-color="#1B4E70"/>
<stop offset="1" stop-color="#B2B5D6"/>
</linearGradient>
</defs>
</svg>
