<svg xmlns="http://www.w3.org/2000/svg" width="640" height="71" fill="none" viewBox="0 0 640 71"><path fill="#fff" d="M213.743 14.38C229.186 7.447 245.681 0 263.295 0c19.166 0 28.06 9.318 43.348 14.38 12.496 4.153 28.904-9.764 43.347-6.16 7.481 1.853 12.117 11.17 18.58 14.38 8.704 4.341 17.943-.155 26.836 2.059 7.48 1.87 22.372 4.976 28.904 8.22 4.016 1.99 6.119 6.829 10.324 8.219 10.997 3.655 23.941-5.766 35.092-2.06 12.048 3.999 31.61 11.652 45.416 8.22 5.395-1.338 14.599-4.067 20.648-2.059 23.751 7.877 76.337 12.338 103.224 12.338 4.861 0-9.583 2.06-14.443 2.06-15.443 0-29.921 4.118-45.416 4.118-22.423 0-45.312 10.707-68.132 6.16-19.028-3.792-37.66-8.22-57.809-8.22-21.992 0-56.067 6.744-76.388 0-3.326-1.098-13.013-7.91-16.511-6.16-32.352 16.113-133.249 10.279-175.476 10.279-14.702 0-26.957-4.136-41.28-6.16-26.99-3.844-57.29 0-84.644 0-13.685 0-27.335 4.118-41.279 4.118-5.55 0-22.062-2.06-16.512-2.06 18.115 0 33.455-6.88 51.604-10.278 25.181-4.702 51.207-3.655 76.388-6.16 18.477-1.837 24.268-12.544 39.228-18.499 13.754-5.474 30.214-4.77 45.416-12.338z"/></svg>