<svg xmlns="http://www.w3.org/2000/svg" width="866" height="96" fill="none" viewBox="0 0 866 96"><path fill="#fff" d="M289.221 19.443C310.117 10.07 332.436 0 356.271 0c25.934 0 37.969 12.599 58.655 19.443 16.908 5.615 39.111-13.202 58.655-8.33 10.122 2.507 16.395 15.105 25.141 19.444 11.777 5.87 24.278-.209 36.312 2.784 10.122 2.53 30.272 6.729 39.111 11.114 5.434 2.692 8.279 9.235 13.97 11.114 14.879 4.942 32.394-7.796 47.483-2.784 16.302 5.406 42.773 15.754 61.454 11.114 7.299-1.81 19.753-5.5 27.939-2.785 32.138 10.65 103.293 16.683 139.675 16.683 6.577 0-12.967 2.784-19.543 2.784-20.897 0-40.487 5.568-61.454 5.568-30.342 0-61.313 14.478-92.191 8.33-25.748-5.128-50.959-11.114-78.222-11.114-29.759 0-75.866 9.119-103.363 0-4.501-1.485-17.608-10.696-22.342-8.33-43.776 21.787-180.302 13.899-237.441 13.899-19.894 0-36.476-5.592-55.856-8.33-36.522-5.197-77.522 0-114.534 0-18.518 0-36.989 5.569-55.856 5.569-7.51 0-29.852-2.785-22.343-2.785 24.512 0 45.268-9.304 69.826-13.898 34.074-6.357 69.29-4.942 103.363-8.33 25.001-2.482 32.837-16.96 53.081-25.011 18.611-7.402 40.883-6.45 61.453-16.682z"/></svg>