<svg xmlns="http://www.w3.org/2000/svg" width="1920" height="1080" fill="none" viewBox="0 0 1920 1080"><path fill="url(#a)" d="M1542.89 227.297c-3.47.296-14.96 14.066-10.95 50.17-34.06-23.568-79.44 18.422-64.1 80.421-66.93-25.895-127.65-6.69-121.09 50.391-31.6-45.047-108.5-29.877-111.86 22.085-62.69-48.203-114.17-11.607-126.74 30.851-36.01-32.48-98.79-22.64-111.175 13.56-23.651-25.776-64.245-27.174-81.99 14.473-11.304-42.149-76.762-44.897-104.305-11.026-22.435-36.484-63.414-53.262-101.393-11.305-8.951-35.413-38.501-35.413-62.918-15.962-14.649-43.971-68.24-59.189-102.549-19.451-2.754-51.597-66.862-56.11-94.186-39.738 2.366-48.36-48.305-49.968-78.235-28.711 11.399-36.802-29.17-73.908-67.213-61.547-4.615-45.129-23.561-70.027-66.065-74.533 14.456-48.144-26.112-81.239-66.065-71.364 8.9-33.443-18.647-71.552-56.225-58.58 7.026-27.514-54.207-88.8-93.143-37.543C22.688 26.395-27 18.916-27 43.665V1134.11h1975V-43.366c-23.16-22.73-81.61-5.353-96.8 20.913-35.47-10.824-44.58 24.754-39.98 35.81-54.2-12.436-77.63 18.051-67.24 51.212-13.9-19.12-40.44-10.596-40.44 12.971-59.37 2.08-83.14 32.092-80.74 61.874-31.95-8.721-99.81 28.201-79.91 87.883"/><path fill="url(#b)" d="M1542.89 227.297c-3.47.296-14.96 14.066-10.95 50.17-34.06-23.568-79.44 18.422-64.1 80.421-66.93-25.895-127.65-6.69-121.09 50.391-31.6-45.047-108.5-29.877-111.86 22.085-62.69-48.203-114.17-11.607-126.74 30.851-36.01-32.48-98.79-22.64-111.175 13.56-23.651-25.776-64.245-27.174-81.99 14.473-11.304-42.149-76.762-44.897-104.305-11.026-22.435-36.484-63.414-53.262-101.393-11.305-8.951-35.413-38.501-35.413-62.918-15.962-14.649-43.971-68.24-59.189-102.549-19.451-2.754-51.597-66.862-56.11-94.186-39.738 2.366-48.36-48.305-49.968-78.235-28.711 11.399-36.802-29.17-73.908-67.213-61.547-4.615-45.129-23.561-70.027-66.065-74.533 14.456-48.144-26.112-81.239-66.065-71.364 8.9-33.443-18.647-71.552-56.225-58.58 7.026-27.514-54.207-88.8-93.143-37.543C22.688 26.395-27 18.916-27 43.665V1134.11h1975V-43.366c-23.16-22.73-81.61-5.353-96.8 20.913-35.47-10.824-44.58 24.754-39.98 35.81-54.2-12.436-77.63 18.051-67.24 51.212-13.9-19.12-40.44-10.596-40.44 12.971-59.37 2.08-83.14 32.092-80.74 61.874-31.95-8.721-99.81 28.201-79.91 87.883"/><defs><radialGradient id="a" cx="0" cy="0" r="1" gradientTransform="matrix(0 1042.43 -2150.24 0 961.009 193.991)" gradientUnits="userSpaceOnUse"><stop offset=".137" stop-color="#e1eaff"/><stop offset="1" stop-color="#d5e1ff"/></radialGradient><linearGradient id="b" x1="961.009" x2="961.009" y1="573.194" y2="721.821" gradientUnits="userSpaceOnUse"><stop stop-color="#e1eefc"/><stop offset="1" stop-color="#e8e5ff"/></linearGradient></defs></svg>