<svg xmlns="http://www.w3.org/2000/svg" width="2170" height="1102" fill="none" viewBox="0 0 2170 1102"><path fill="url(#a)" fill-rule="evenodd" d="m2099.66 520.752 21.97-47.5c-30.54 11.833-100.03 46.8-133.63 92 68.4-39.6 102.94-46.167 111.66-44.5m-41.16 89c-47.84-15.167-186.6-7.3-359 145.5-34.4 30.488-71.58 59.562-111.63 85.781a853 853 0 0 1-25.02 15.767c-138.32 83.809-309.21 132.154-516.35 90.621 317.59 131.039 674.24 24.687 889.87-82.965 48.54-24.233 89.93-48.532 122.13-70.204zm-1356.502 197.5c-338-167.2-549.746-113.333-613.368-65.5-7.078 94.652-1.485 163.64 36.868 121 32.316-35.928 88.916-64.34 159.771-81.278 115.51-27.614 268.905-24.736 416.729 25.778m-611.314-90c57.771-57.899 215.814-176.458 385.814-187.5-114.8-45.6-289.578-10.333-362.617 13-6.845 41.176-13.855 88.973-19.133 135.278a1839 1839 0 0 0-4.064 39.222" clip-rule="evenodd"/><path fill="url(#b)" fill-rule="evenodd" d="M316.37 0c-48.716 46.162-116.919 168.883 0 290.471 62.744 65.251 169.795 64.522 292.746 63.685 163.431-1.113 354.956-2.417 507.864 150.794 129.77 133.4 5.19 220.166-86.98 225.352 340.98 102.948 641.07 4.672 651.5-4.55 13-11.5 96-17 223.5-199.5 42.52-60.867 87.62-99.69 129.07-123.642 15.19-148.607 19.91-294.578 18.77-402.61zm277.552 279.972c-116.405-8.399-135.251-58.827-130.123-82.992 24.615 44.396 64.528 37.497 81.407 28.498-16.879-12.332-45.511-44.096-24.999-72.493 23.087 45.016 145.976 77.971 262.945 109.338 103.87 27.854 203.072 54.457 223.578 87.142-60.899-43.995-267.301-58.994-412.808-69.493m325.628-40.996c72.304 10.799 170.29 71.826 210.25 100.99-20.94-41.996-92.31-129.387-210.25-142.986-147.43-16.998-273.066-68.993-325.628-117.488 25.64 101.99 235.247 145.986 325.628 159.484" clip-rule="evenodd"/><path fill="#e1e9f9" fill-rule="evenodd" d="M1315.05 806.42c-41.03 8.799-118.37 3.666-151.92 0 39.88 24.19 105.12 23.747 188.69 23.179 13.15-.089 26.75-.181 40.79-.181 62.17 20.384 120.27 27.503 170.24 27.382 71.61-.173 126.52-15.211 152.82-27.382-23.63 5.583-71.68 12.577-127.8 11.615-32.66-.561-68.06-3.816-102.96-11.615-28.69-6.412-50.45-11.712-67.66-15.906-53.93-13.138-63.33-15.43-102.2-7.092" clip-rule="evenodd"/><path fill="url(#c)" d="M31.125 895.91c55.767 97.491 146.148 140.99 445.494 178.98 299.347 38 1030.081 43.5 1308.281-32.49 63.82-17.44 113.36-84.111 151.47-177.944-215.63 107.652-572.28 214.004-889.87 82.965-28.81-5.776-58.322-13.291-88.543-22.691-58.44 16.124-138.159 21.133-244.809 3.677-202.55-33.152-355.502-97.204-427.879-146.933-70.855 16.938-127.455 45.35-159.771 81.278-38.353 42.64-43.946-26.348-36.868-121 63.622-47.833 275.368-101.7 613.368 65.5 90.457 54.274 175.715 92.52 255.959 117.478 30.221 9.4 59.733 16.915 88.543 22.691 207.14 41.533 378.03-6.812 516.35-90.621-49.97.121-108.07-6.998-170.24-27.382-14.04 0-27.64.092-40.79.181-83.57.568-148.81 1.011-188.69-23.179 33.55 3.666 110.89 8.799 151.92 0 38.87-8.338 48.27-6.046 102.2 7.092 17.21 4.194 38.97 9.494 67.66 15.906 34.9 7.799 70.3 11.054 102.96 11.615 40.05-26.219 77.23-55.293 111.63-85.781 172.4-152.8 311.16-160.667 359-145.5l41.16-89c-8.72-1.667-43.26 4.9-111.66 44.5 33.6-45.2 103.09-80.167 133.63-92l47.87-103.5c-26.63-5.053-77.46-.643-135.43 32.858-41.45 23.952-86.55 62.775-129.07 123.642-127.5 182.5-210.5 188-223.5 199.5-10.43 9.222-310.52 107.498-651.5 4.55-84.255-25.438-171.007-63.161-256.502-117.549-340.786-216.792-576.413-156.118-655.024-96.803a2689 2689 0 0 0-4.593 26.802c73.039-23.333 247.817-58.6 362.617-13-170 11.042-328.043 129.601-385.814 187.5a1839 1839 0 0 1 4.064-39.222c-29.496 11.795-54.81 27.363-63.623 46.898-4.006 8.881-8.203 16.828-12.172 24.343-20.16 38.175-34.423 65.183 12.172 146.639"/><defs><linearGradient id="a" x1="86" x2="2169.5" y1="688.039" y2="688.039" gradientUnits="userSpaceOnUse"><stop stop-color="#d2e8fb"/><stop offset="1" stop-color="#b1c7e8"/></linearGradient><linearGradient id="b" x1="86" x2="2169.5" y1="688.039" y2="688.039" gradientUnits="userSpaceOnUse"><stop stop-color="#d0e2f4"/><stop offset="1" stop-color="#d7d7f1"/></linearGradient><linearGradient id="c" x1="86" x2="2169.5" y1="688.039" y2="688.039" gradientUnits="userSpaceOnUse"><stop stop-color="#e2e9f9"/><stop offset="1" stop-color="#d5e0f4"/></linearGradient></defs></svg>