<svg xmlns="http://www.w3.org/2000/svg" width="1920" height="1080" fill="none" viewBox="0 0 1920 1080"><path fill="url(#a)" d="M1541.89 173.188c-3.47.296-14.96 14.066-10.95 50.169-34.06-23.567-79.44 18.423-64.1 80.422-66.93-25.896-127.65-6.69-121.09 50.391-31.6-45.047-108.5-29.877-111.86 22.085-62.69-48.204-114.17-11.607-126.74 30.85-36.01-32.479-98.79-22.639-111.175 13.561-23.651-25.777-64.245-27.175-81.99 14.473-11.304-42.149-76.762-44.898-104.305-11.027-22.435-36.483-63.414-53.262-101.393-11.305-8.951-35.412-38.501-35.412-62.918-15.961-14.649-43.971-68.24-59.189-102.549-19.451-2.754-51.598-66.862-56.111-94.186-39.738 2.366-48.36-48.305-49.969-78.235-28.711 11.399-36.802-29.17-73.909-67.213-61.548-4.615-45.128-23.561-70.026-66.065-74.532 14.456-48.145-26.112-81.24-66.065-71.365 8.9-33.442-18.647-71.551-56.225-58.58 7.026-27.513-54.207-88.8-93.143-37.542C21.688-27.716-28-35.194-28-10.445V1080h1975V-97.475c-23.16-22.731-81.61-5.353-96.8 20.913-35.47-10.825-44.58 24.754-39.98 35.809-54.2-12.435-77.63 18.052-67.24 51.212-13.9-19.12-40.44-10.596-40.44 12.972-59.37 2.08-83.14 32.092-80.74 61.874-31.95-8.722-99.81 28.2-79.91 87.883"/><path fill="url(#b)" d="M1541.89 173.188c-3.47.296-14.96 14.066-10.95 50.169-34.06-23.567-79.44 18.423-64.1 80.422-66.93-25.896-127.65-6.69-121.09 50.391-31.6-45.047-108.5-29.877-111.86 22.085-62.69-48.204-114.17-11.607-126.74 30.85-36.01-32.479-98.79-22.639-111.175 13.561-23.651-25.777-64.245-27.175-81.99 14.473-11.304-42.149-76.762-44.898-104.305-11.027-22.435-36.483-63.414-53.262-101.393-11.305-8.951-35.412-38.501-35.412-62.918-15.961-14.649-43.971-68.24-59.189-102.549-19.451-2.754-51.598-66.862-56.111-94.186-39.738 2.366-48.36-48.305-49.969-78.235-28.711 11.399-36.802-29.17-73.909-67.213-61.548-4.615-45.128-23.561-70.026-66.065-74.532 14.456-48.145-26.112-81.24-66.065-71.365 8.9-33.442-18.647-71.551-56.225-58.58 7.026-27.513-54.207-88.8-93.143-37.542C21.688-27.716-28-35.194-28-10.445V1080h1975V-97.475c-23.16-22.731-81.61-5.353-96.8 20.913-35.47-10.825-44.58 24.754-39.98 35.809-54.2-12.435-77.63 18.052-67.24 51.212-13.9-19.12-40.44-10.596-40.44 12.972-59.37 2.08-83.14 32.092-80.74 61.874-31.95-8.722-99.81 28.2-79.91 87.883"/><defs><radialGradient id="a" cx="0" cy="0" r="1" gradientTransform="matrix(0 1042.43 -2150.24 0 960.009 139.882)" gradientUnits="userSpaceOnUse"><stop offset=".137" stop-color="#e1eaff"/><stop offset="1" stop-color="#d5e1ff"/></radialGradient><linearGradient id="b" x1="960.009" x2="960.009" y1="519.085" y2="667.712" gradientUnits="userSpaceOnUse"><stop stop-color="#e1eefc"/><stop offset="1" stop-color="#c4ddf2"/></linearGradient></defs></svg>