<svg xmlns="http://www.w3.org/2000/svg" width="329" height="77" fill="none" viewBox="0 0 329 77"><path fill="#dfe8ff" d="M217.059 43.5c-3.591-.238-42.519 15.696-59.034 23.097 0 1.91 7.096 10.088 7.335 10.327.186.185 33.842-13.232 52.177-20.576l.607-.243 1.069-.429 5.505 1.194c-.08-4.297 1.388-13.274 7.898-14.802s8.776 11.619 9.095 18.383l35.663-1.432c.398.08.909-.669-.24-4.298-.718-6.684 0-12.891 5.984-10.743 4.787 1.72 7.739 10.425 8.616 14.563l2.154.716c.319-.875.144-4.345-3.111-11.22-6.223-12.415-20.823-15.04-23.217-16.234s-21.541-15.996-23.455-17.19c-1.915-1.193-30.158-2.864-31.754-2.625-1.277.19-.532 10.523 0 15.665 3.181 2.647 8.092 13.597 4.708 15.848"/><path fill="#cddcf7" d="M232.616 48.037c-1.995-.16-6.367 2.865-5.984 12.414.479 11.937 12.77 13.135 12.77 0 0-8.895-4.442-12.971-6.786-12.414"/><path fill="#b6cbea" fill-rule="evenodd" d="M241.711 60.451c-.319-6.764-2.585-19.91-9.095-18.383s-7.978 10.505-7.898 14.802l-5.505-1.194-1.069.428-.607.244c-.718 5.426.092 18.825 11.01 20.337 9.898 1.37 13.164-9.47 13.164-16.234m-15.079 0c-.383-9.55 3.989-12.573 5.984-12.414 2.344-.557 6.786 3.52 6.786 12.414 0 13.135-12.291 11.937-12.77 0" clip-rule="evenodd"/><path fill="#fff" fill-opacity=".2" fill-rule="evenodd" d="M241.711 60.451c-.319-6.764-2.585-19.91-9.095-18.383s-7.978 10.505-7.898 14.802l-5.505-1.194-1.069.428-.607.244c-.718 5.426.092 18.825 11.01 20.337 9.898 1.37 13.164-9.47 13.164-16.234m-15.079 0c-.383-9.55 3.989-12.573 5.984-12.414 2.344-.557 6.786 3.52 6.786 12.414 0 13.135-12.291 11.937-12.77 0" clip-rule="evenodd"/><path fill="#aac3e4" d="M211.793 27.267q.268.145.558.386c-.532-5.142-1.277-15.474 0-15.665-2.065-.965-26.663 9.62-36.637 13.912-2.36 1.016-3.902 1.68-4.131 1.753-.467.151-2.733 4.193-5.404 8.958-2.81 5.012-6.069 10.824-8.154 13.751 2.873-1.246 7.035-3.115 11.845-5.276h.001c13.622-6.12 32.441-14.573 41.922-17.82"/><path fill="#fff" fill-opacity=".2" d="M211.793 27.267q.268.145.558.386c-.532-5.142-1.277-15.474 0-15.665-2.065-.965-26.663 9.62-36.637 13.912-2.36 1.016-3.902 1.68-4.131 1.753-.467.151-2.733 4.193-5.404 8.958-2.81 5.012-6.069 10.824-8.154 13.751 2.873-1.246 7.035-3.115 11.845-5.276h.001c13.622-6.12 32.441-14.573 41.922-17.82"/><path fill="#c7d9f5" d="M158.025 66.597c16.515-7.401 55.443-23.335 59.034-23.096 3.384-2.25-1.527-13.2-4.708-15.848a3.4 3.4 0 0 0-.558-.386c-9.481 3.246-28.3 11.7-41.922 17.819h-.001c-4.81 2.16-8.972 4.03-11.845 5.276-.295 1.054-.589 1.976-.858 2.82-1.337 4.19-2.06 6.46.858 13.415"/><path fill="#fff" fill-opacity=".2" d="M158.025 66.597c16.515-7.401 55.443-23.335 59.034-23.096 3.384-2.25-1.527-13.2-4.708-15.848a3.4 3.4 0 0 0-.558-.386c-9.481 3.246-28.3 11.7-41.922 17.819h-.001c-4.81 2.16-8.972 4.03-11.845 5.276-.295 1.054-.589 1.976-.858 2.82-1.337 4.19-2.06 6.46.858 13.415"/><path fill="url(#a)" d="M217.059 43.501c-3.59-.239-42.519 15.695-59.034 23.096 0 1.91 7.096 10.088 7.336 10.327.185.185 33.841-13.232 52.177-20.576l.607-.243 1.068-.428 5.505 1.193c-.08-4.297 1.388-13.274 7.899-14.801 6.51-1.528 8.776 11.618 9.095 18.382l35.662-1.432c.399.08.91-.669-.239-4.297-.718-6.685 0-12.892 5.983-10.744 4.787 1.72 7.739 10.425 8.617 14.563l2.154.717c.319-.876.144-4.345-3.112-11.221-6.223-12.414-20.823-15.04-23.216-16.234s-21.541-15.995-23.456-17.189-30.157-2.865-31.753-2.626c-1.277.19-.532 10.523 0 15.666 3.18 2.646 8.092 13.596 4.707 15.847"/><path fill="#fff" fill-opacity=".2" d="M217.059 43.501c-3.59-.239-42.519 15.695-59.034 23.096 0 1.91 7.096 10.088 7.336 10.327.185.185 33.841-13.232 52.177-20.576l.607-.243 1.068-.428 5.505 1.193c-.08-4.297 1.388-13.274 7.899-14.801 6.51-1.528 8.776 11.618 9.095 18.382l35.662-1.432c.399.08.91-.669-.239-4.297-.718-6.685 0-12.892 5.983-10.744 4.787 1.72 7.739 10.425 8.617 14.563l2.154.717c.319-.876.144-4.345-3.112-11.221-6.223-12.414-20.823-15.04-23.216-16.234s-21.541-15.995-23.456-17.189-30.157-2.865-31.753-2.626c-1.277.19-.532 10.523 0 15.666 3.18 2.646 8.092 13.596 4.707 15.847"/><path fill="#c6def3" fill-rule="evenodd" d="M70.5.963c-2-2.8-6.167 1.167-8 3.5-.945 1.418-1.583 4.26-2 7.786L54 27.463c1.866 1.302 4.861 3.73 5.885 5.6q.026.982.057 1.9c.154 4.475.404 7.691.558 8 .4.8-1.5 20.667-2.5 30.5h8.5l-4-3.5 4-25 1.5 25 2.5 3.5 9-3.5h-9l2-33c-.667-8-2.5-24.3-4.5-25.5-1.153-.692-.18-2.234.96-4.038C70.29 5.316 71.846 2.85 70.5.963m-10.689 27.5a201 201 0 0 1 .061-6.5c-.872.5-3.75 3.5-.06 6.5" clip-rule="evenodd"/><path fill="#c6def3" d="M93.5 9.465c-2.8-3.6.167-5.333 2.5-7 2.4-1.408 4.333 8.08 4.5 13 1.167.834 4 3.8 6 9s-.833 13.5-2.5 17c.167-3.666.4-11.5 0-13.5-.5-2.5-2-7-2-4v46l-6 3.5 3-3.5v-22c-1.167 7-3.4 21.2-3 22s-4.167-1-6.5-2l4.5-1.5c.667-8 2-24.5 2-26.5v-19c-1.166 2.334-4.1 7-6.5 7s-6-2.333-7.5-3.5h-4l4-2c2.667 1.834 8.2 4.8 9 2 1-3.5 6.5-9 6-10.5s0 0-3.5-4.5M304.887 41.3c-1.382-2.312-.399-5.675.951-6.735 1.481-.236 3.479.863 4.916 2.254 1.437 1.39 1.42 4.668 2.348 5.195.735 4.608 3.287 14.26 3.665 16.63.415 2.6-.052 4.56-2.963 6.816.862.11 1.701.794 5.625 0 3.924-.795 7.471-1.484 7.823-1.4-.265 2.574-1.106 7.67-2.354 7.464-1.56-.257-.909.651-.394-2.469s-2.132-.672-3.614-.436c-1.185.19-7.226 1.122-10.136 1.924-.513-1.1-.825-2-1.308-4.5-2.025-.893-4.701-2.086-5.537-3.076l4.02 5.652-1.5 2.642-7 .473-1.152-2.039c3.371-.031 8.442-.992 6.152-2.652-2.863-2.075-7.648-6.73-6.403-8.447.996-1.374 8.143-.793 11.593-.33.257-1.56.444-4.83-.867-5.432-2.647 2.448-7.921 4.302-9.896 4.617s-2.627-.594-2.942-2.569 3.457-.551 5.432-.866 8.336-4.874 8.1-6.355l-.788-4.938c-1.047.842-1.939-.096-3.771-1.424M13.496 15.584c1.08-5.257-4.049-3.65-6.748-2.19l-.9 5.257c-.75.438-2.25 1.665-2.25 3.067 0 1.401-1.799 13.58-1.799 17.961L0 65.965c1.65 0 5.308-.175 6.748-.876s0-1.169-.9-1.315h-2.25l2.25-24.095c.75 2.483 1.8 8.5 1.8 9.2 0 .701-.45 8.908-.9 14.895l3.149 1.315c1.95-.438 5.398-1.49 3.599-2.19-1.8-.702-3.15-1.169-3.599-1.315.75-5.257 1.26-12.617.9-14.019s-.45-10.514-.9-13.143c-.525-3.066 1.26 0 2.7 0 1.799 0 1.799-2.628 0-3.943-1.44-1.051-2.1-3.212-2.7-5.257v-4.38c.75.437 2.52-.001 3.599-5.258"/><defs><linearGradient id="a" x1="99.501" x2="304.51" y1="53.426" y2="57.323" gradientUnits="userSpaceOnUse"><stop stop-color="#90b0d6"/><stop offset="1" stop-color="#dde7ff"/></linearGradient></defs></svg>