<svg xmlns="http://www.w3.org/2000/svg" width="889" height="554" fill="none" viewBox="0 0 889 554"><path fill="#f8faff" d="M374.584 519.97C330.083 590.991 76.439 586.546 0 603.605c144.743 6.615 603.394 45.72 811.685-77.421C1023.42 401.01 125.224 323.795 429.808 323.795s456.058-46.675 449.434-90.961c-8.514-56.921-392.685-104.84-218.533-118.02C881.512 98.104 900.811 63.637 774.8 47.971 633.463 30.399 831.67 10.912 889 2.209c-16.272-5.222-27.5 0-102 3.5-92.857 4.362-251.168 42.262-111.533 51.14 139.634 8.877 38.598 23.499-144.743 41.254s-52.221 69.454 66.411 84.599c128.044 16.345 144.175 46.999 46.545 58.488-108.63 12.783-395.204 3.122-526.324 61.61-141.58 63.154 312.855 128.394 257.228 217.17"/></svg>