<svg width="1717" height="1300" viewBox="0 0 1717 1300" fill="none" xmlns="http://www.w3.org/2000/svg">
<path d="M4.49989 939.554V833.352L1286.58 5.96666L1367.13 4.72869L4.49989 939.554Z" fill="white" fill-opacity="0.48"/>
<path d="M4.49989 1123.76L4.49989 976.735L1387.26 17.3846L1560.81 14.7172L4.49989 1123.76Z" fill="white" fill-opacity="0.48"/>
<path d="M4.49989 693.116L1123.89 67.1519L1145.48 66.8201L4.49989 726.568V693.116Z" fill="white" fill-opacity="0.48"/>
<path d="M1575.2 9.99584L1.28854e-05 1132.49L0 974.38L1385.82 12.9063L1575.2 9.99584ZM8.99922 979.09L8.99928 1115.02L1546.44 19.4389L1388.7 21.8632L8.99922 979.09ZM1381.98 0L0.000424893 948.099L0.000194604 830.901L1285.22 1.48703L1381.98 0ZM8.99944 835.803L8.99963 931.011L1352.28 9.45745L1287.94 10.4464L8.99944 835.803ZM1162.71 62.0546L0.000167791 734.369L0.000461742 690.476L1122.69 62.6697L1162.71 62.0546ZM8.99965 695.755L8.99977 718.768L1128.25 71.5853L1125.1 71.6338L8.99965 695.755Z" fill="white" fill-opacity="0.74"/>
<path d="M1673.75 107.476L1665.16 73.1783C1658.17 78.4487 845.033 890.262 482.579 1295.5H671.231L1673.75 107.476Z" fill="white" fill-opacity="0.48"/>
<path d="M1709.65 159.793L1682.08 140.159L762.084 1295.5L860.881 1295.5L1709.65 159.793Z" fill="white" fill-opacity="0.48"/>
<path d="M1716.01 158.799L863.135 1300L752.748 1300L1681.22 134.019L1716.01 158.799ZM1678.67 108.619L673.322 1300L472.517 1300L479.225 1292.5C660.53 1089.8 954.496 785.465 1203.96 531.201C1328.7 404.058 1442.33 289.414 1525.22 206.227C1566.66 164.633 1600.42 130.902 1624.04 107.402C1635.84 95.6534 1645.12 86.4586 1651.55 80.1169C1654.77 76.947 1657.29 74.4842 1659.05 72.7694C1659.93 71.9134 1660.64 71.2341 1661.16 70.7436C1661.56 70.3635 1662.09 69.8597 1662.45 69.5859L1667.88 65.4942L1678.67 108.619ZM771.42 1291L858.625 1291L1703.29 160.787L1682.94 146.298L771.42 1291ZM1662.68 81.8006C1661.32 83.1353 1659.71 84.713 1657.87 86.5274C1651.45 92.8544 1642.19 102.037 1630.38 113.782C1606.78 137.27 1573.03 170.993 1531.59 212.58C1448.72 295.753 1335.11 410.379 1210.38 537.503C963.976 788.654 674.287 1088.51 492.652 1291L669.14 1291L1668.82 106.334L1662.68 81.8006Z" fill="white" fill-opacity="0.74"/>
</svg>
