<svg width="2056" height="1526" viewBox="0 0 2056 1526" fill="none" xmlns="http://www.w3.org/2000/svg">
<path d="M1626.52 5.96662L54.8225 1020.26L8.94439 1169.72L1707.07 4.72865L1626.52 5.96662Z" fill="white" fill-opacity="0.48"/>
<path d="M1900.76 14.7172L1727.2 17.3845L38.7224 1188.84L11.8802 1360.74L1900.76 14.7172Z" fill="white" fill-opacity="0.48"/>
<path d="M5.1488 922.759L1485.43 66.82L1463.84 67.1518L4.54067 883.19L5.1488 922.759Z" fill="white" fill-opacity="0.48"/>
<path d="M723.847 1409.34C1003.29 1071.67 1997.38 79.008 2005.11 73.1781L2013.69 107.476L870.102 1462.68L723.847 1409.34Z" fill="white" fill-opacity="0.48"/>
<path d="M951.839 1484.11L2022.03 140.158L2049.6 159.793L1032.8 1520.33L951.839 1484.11Z" fill="white" fill-opacity="0.48"/>
<path d="M1626.52 5.96662L54.8225 1020.26L8.94439 1169.72L1707.07 4.72865L1626.52 5.96662Z" stroke="white" stroke-opacity="0.74" stroke-width="9"/>
<path d="M1900.76 14.7172L1727.2 17.3845L38.7224 1188.84L11.8802 1360.74L1900.76 14.7172Z" stroke="white" stroke-opacity="0.74" stroke-width="9"/>
<path d="M5.1488 922.759L1485.43 66.82L1463.84 67.1518L4.54067 883.19L5.1488 922.759Z" stroke="white" stroke-opacity="0.74" stroke-width="9"/>
<path d="M723.847 1409.34C1003.29 1071.67 1997.38 79.008 2005.11 73.1781L2013.69 107.476L870.102 1462.68L723.847 1409.34Z" stroke="white" stroke-opacity="0.74" stroke-width="9"/>
<path d="M951.839 1484.11L2022.03 140.158L2049.6 159.793L1032.8 1520.33L951.839 1484.11Z" stroke="white" stroke-opacity="0.74" stroke-width="9"/>
</svg>
