<svg xmlns="http://www.w3.org/2000/svg" width="500" height="1209" fill="none" viewBox="0 0 500 1209"><path fill="url(#a)" d="M261.822 682.253C189.923 779.195 54.02 1002.42 0 1106.12l57.285 102.86c27.126-76.87 100.68-264.576 177.893-400.415s91.19-213.001 88.526-234.603c.097-14.403-.202-64.274-2.166-148.532-2.455-105.321 26.131-138.086 34.71-142.864s40.82-37.707 49.238-46.138c8.417-8.432 19.211-29.416 39.39-36.911 16.143-5.996 29.297-.094 33.855 3.606l4.29-2.389c-1.857-3.333-8.78-9.71-21.621-8.548 16.522-10.698 20.537-27.035 20.48-33.866 1.218-.055 2.034-.384-4.451-1.265-9.514 33.374-24.296 30.377-30.016 33.562s-10.332-1.733-6.042-4.122c19.222-12.577 22.382-40.541 28.252-56.912s30.972-28.479 30.176-29.908l-2.386-4.286c-3.656.164-24.781 19.416-29.232 18.151 6.476-12.591 16.882-26.87 21.275-32.437.688-1.007 1.428-4.164-1.118-8.736-5.085.96-9.052 10.656-23.339 35.459 6.476-12.591.884-24.201-2.721-28.432-2.918-5.239-10.182-14.92-15.901-11.734 26.878 28.08 7.183 46.536 6.549 48.761-.508 1.78-14.741-18.619-21.794-29.04l1.119 8.735 18.772 26.98c3.29 8.15 4.121 30.273-18.877 53.563 14.852-35.225-3.497-79.161-14.528-96.726l-10.009 5.574c3.763 2.271 13.36 13.897 21.643 42.226-4.714-13.846-21.259-22.475-28.942-25.059l-4.129 6.042c7.1.414 22.986 6.291 29.739 26.489 8.44 25.247-.923 45.435-11.082 64.195s-31.284 38.011-48.915 53.446c-14.105 12.347-24.089 24.021-27.318 28.315-2.806 2.81-8.768 7.129-10.17 1.92 1.903-6.674 14.426-54.827 17.758-62.298 3.333-7.471 11.105-30.517 16.19-31.477 4.068-.768 20.445-7.018 28.124-10.047.9-1.749 1.49-6.071-3.343-9.369-3.303 4.834-16.205 9.025-22.244 10.516l4.763-8.267c4.235-3.607 13.214-12.6 15.244-19.72s11.754-10.29 16.362-10.984l-5.569-10.001c-5.881-.468-17.308 22.741-29.381 31.337 3.302-4.834 1.045-20.548-.496-27.8l-7.311.328c2.918 5.238 7.482 16.797 2.399 21.125-.766-4.066-6.577-10.688-9.386-13.49l-4.29 2.389c3.605 4.231 10.721 13.869 10.343 18.572-.473 5.878-3.794 30.189-20.629 47.052-13.469 13.49-14.191 10.398-12.869 7.166 2.16-17.424 7.687-54.817 12.512-64.991 6.031-12.718 10.954-17.331 24.619-23.07 10.931-4.59 17.377.929 19.233 4.263 1.484.421 4.387-.197 4.129-6.043-4.451-1.264-9.859-7.611-9.225-9.836.507-1.78 9.428-2.131 13.826-2.085-1.273-1.163-5.152-3.869-10.494-5.386-8.514 6.239-27.909 14.919-36.542 18.479 3.967-9.696 14.189-30.363 23.34-35.459s18.541-.344 22.093 2.67l2.698-5.246c-4.293-3.225-15.486-8.97-25.91-6.16 2.03-7.12 8.149-14.52 10.955-17.33l-3.978-7.144c-6.458 8.587-21.499 30.69-30.005 50.401-2.555-18.043 8.138-31.36 13.803-35.763l-3.182-5.715c-2.595 2.069-8.895 7.574-13.342 13.045 1.015-3.56-.645-14.614-1.602-19.696l-7.472-3.326c.48 5.348.998 19.285-.773 32.25-4.197-2.154-10.758-5.863-13.514-7.448-1.376 2.015-2.475 6.994 4.139 10.797 20.825 7.12 10.505 22.226 8.29 38.433-1.531-8.131-16.327-15.863-23.534-18.713-.477.266-1.365 2.258-1.107 8.104 4.289-2.389 21.782 12.202 23.062 24.591-8.893 10.942-14.591 45.561-16.329 61.502-1.322 3.232-13.823 6.145-15.483-4.909-2.076-13.818-12.837-32.795-16.181-42.164s-10.12-70.558-9.013-78.662 14.042-12.913 22.621-17.691c6.863-3.823 17.058-.765 21.298 1.24l4.128-6.042c-2.491-1.108-10.396-3.194-22.093-2.67 8.256-12.084 19.96-17.978 24.78-19.415l-1.119-8.736c-2.702-.367-9.377-.018-14.459 4.31-6.354 5.41-18.739 23.537-22.233 27.355-3.493 3.817-5.246-2.693-4.935-12.226.249-7.625 9.199-29.455 13.642-39.416l-9.063-6.183c-.369 2.701-3.711 12.174-14.126 28.456.885-6.483-14.16-22.062-21.794-29.041l-5.719 3.185c6.046 9.735 18.934 30.633 22.116 36.348 3.978 7.143 3.194 22.554-2.214 16.207C248.099 29.843 220.546 7.503 208.25 0l-3.333 7.471c8.214 3.537 25.694 14.516 29.9 30.142-7.38-7.87-20.033-11.304-25.437-12.038-.634 2.225-1.013 6.928 2.548 7.94 17.643 1.405 45.317 30.914 43.575 41.243-1.393 8.262 3.193 65.784 6.548 91.992-3.021-2.061-11.041-14.621-26.059-36.205 1.885-11.531.133-30.645-.979-38.76-.104 3.177-1.391 11.63-5.708 20.024-1.532-8.132-20.787-28.354-30.223-37.45l-4.128 6.043c10.286 11.742 32.609 41.735 39.62 67.779-8.524-7.233-21.994-11.461-27.663-12.671l-5.558 6.839c7.472 3.326 25.31 12.483 36.887 22.507 14.472 12.53 34.985 29.182 44.706 66.818 9.72 37.637-3.835 109.457 7.551 121.2 2.503 2.582 4.558 140.045 2.828 167.212s7.715 104.763-31.503 162.167"/><defs><linearGradient id="a" x1="278.614" x2="278.615" y1="80.073" y2="780.073" gradientUnits="userSpaceOnUse"><stop stop-color="#7dabcb"/><stop offset="1" stop-color="#8db1d0"/></linearGradient></defs></svg>