<svg width="307" height="71" viewBox="0 0 307 71" fill="none" xmlns="http://www.w3.org/2000/svg">
<path d="M305.812 43.9882C272.07 44.1892 265.949 58.3555 236.099 69.9176M305.857 42.3574C269.881 41.8291 263.543 57.4974 231.429 69.9176M305.887 41.2849C268.748 40.1354 263.551 56.7114 227.685 69.9176M305.92 40.0847C267.643 38.6083 261.294 56.431 226.687 69.9176M305.958 38.7378C267.383 37.2802 257.053 56.0852 222.295 69.9176M306.003 37.1163C266.152 34.8264 255.466 54.9028 216.222 69.9176M306.036 35.9315C265.331 34.0471 248.507 55.2868 213.481 69.9176M306.066 34.8384C265.955 32.5138 249.375 53.8246 206.541 69.9176M306.083 34.2278C263.258 31.8386 241.939 54.4097 203.727 69.9176M296.147 32.7621C260.512 33.1973 240.657 52.721 196.525 69.9176M296.147 32.7621C299.338 32.7712 302.652 32.9193 306.111 33.2193M296.147 32.7621C299.333 32.7231 302.646 32.8368 306.114 33.1185M296.147 32.7621C263.231 32.6676 243.365 47.3496 211.296 62.4005M211.296 62.4005C206.27 64.9846 200.922 67.5222 195.107 69.9176M211.296 62.4005C205.931 64.9184 200.225 67.4465 194.058 69.9176M211.296 62.4005C243.482 45.8505 262.433 27.3921 306.141 32.1497M306.156 31.583C252.177 25.1564 234.004 51.7632 191.807 69.9176M306.177 30.837C248.327 24.0347 226.217 53.1864 190.903 69.9176M306.198 30.0784C247.082 23.4532 220.607 53.4995 188.113 69.9176M2.39227 26.2471C18.2916 11.8172 39.3822 4.60678 62.1133 0.480188M1.61329 28.4987C19.764 10.538 44.8801 3.8163 72.1133 0.291897M0.987029 30.7471C21.9836 8.40169 52.546 3.99567 88.1133 0.410581M0.706794 32.2471C24.6532 6.40828 62.108 5.51864 106.613 0.469883M0.3294 34.5378C3.70962 30.8863 7.4304 27.7668 11.489 25.0739M11.489 25.0739C35.5254 9.12594 71.4112 8.14217 118.584 0.247073M11.489 25.0739C7.37843 27.9318 3.58375 31.2222 0.113281 35.0428M11.489 25.0739C34.7497 8.9018 68.126 6.57557 110.113 0.356218M0.155718 36.7471C27.5322 7.5699 78.1383 10.4759 132.113 0.490622M0.137503 38.2471C27.068 7.53416 75.0419 14.8482 138.113 0.311325M0.113284 40.4376C30.9423 4.80792 87.702 16.9812 148.613 0.309654M0.397988 43.2471C31.4589 4.18774 78.8065 22.0965 150.113 0.276666M0.87509 45.7471C35.1534 3.7339 84.0063 25.9073 155.514 0.247143M1.33422 48.2471C36.1047 5.37958 74.5816 27.5089 143.185 5.38837M143.185 5.38837C145.057 4.78485 146.951 4.14839 148.868 3.47677M143.185 5.38837C71.4069 29.2592 37.9884 6.65763 2.04125 49.7471M143.185 5.38837C147.83 3.84356 152.636 2.10412 157.613 0.139648M2.43202 50.9478C42.8172 4.26234 79.7486 34.0821 159.865 0.24717M3.10466 52.7471C46.0163 5.63921 79.3106 37.3688 161.739 0.247048" stroke="url(#paint0_linear_301_47)" stroke-width="0.3"/>
<path d="M305.812 43.9882C272.07 44.1892 265.949 58.3555 236.099 69.9176M305.857 42.3574C269.881 41.8291 263.543 57.4974 231.429 69.9176M305.887 41.2849C268.748 40.1354 263.551 56.7114 227.685 69.9176M305.92 40.0847C267.643 38.6083 261.294 56.431 226.687 69.9176M305.958 38.7378C267.383 37.2802 257.053 56.0852 222.295 69.9176M306.003 37.1163C266.152 34.8264 255.466 54.9028 216.222 69.9176M306.036 35.9315C265.331 34.0471 248.507 55.2868 213.481 69.9176M306.066 34.8384C265.955 32.5138 249.375 53.8246 206.541 69.9176M306.083 34.2278C263.258 31.8386 241.939 54.4097 203.727 69.9176M296.147 32.7621C260.512 33.1973 240.657 52.721 196.525 69.9176M296.147 32.7621C299.338 32.7712 302.652 32.9193 306.111 33.2193M296.147 32.7621C299.333 32.7231 302.646 32.8368 306.114 33.1185M296.147 32.7621C263.231 32.6676 243.365 47.3496 211.296 62.4005M211.296 62.4005C206.27 64.9846 200.922 67.5222 195.107 69.9176M211.296 62.4005C205.931 64.9184 200.225 67.4465 194.058 69.9176M211.296 62.4005C243.482 45.8505 262.433 27.3921 306.141 32.1497M306.156 31.583C252.177 25.1564 234.004 51.7632 191.807 69.9176M306.177 30.837C248.327 24.0347 226.217 53.1864 190.903 69.9176M306.198 30.0784C247.082 23.4532 220.607 53.4995 188.113 69.9176M2.39227 26.2471C18.2916 11.8172 39.3822 4.60678 62.1133 0.480188M1.61329 28.4987C19.764 10.538 44.8801 3.8163 72.1133 0.291897M0.987029 30.7471C21.9836 8.40169 52.546 3.99567 88.1133 0.410581M0.706794 32.2471C24.6532 6.40828 62.108 5.51864 106.613 0.469883M0.3294 34.5378C3.70962 30.8863 7.4304 27.7668 11.489 25.0739M11.489 25.0739C35.5254 9.12594 71.4112 8.14217 118.584 0.247073M11.489 25.0739C7.37843 27.9318 3.58375 31.2222 0.113281 35.0428M11.489 25.0739C34.7497 8.9018 68.126 6.57557 110.113 0.356218M0.155718 36.7471C27.5322 7.5699 78.1383 10.4759 132.113 0.490622M0.137503 38.2471C27.068 7.53416 75.0419 14.8482 138.113 0.311325M0.113284 40.4376C30.9423 4.80792 87.702 16.9812 148.613 0.309654M0.397988 43.2471C31.4589 4.18774 78.8065 22.0965 150.113 0.276666M0.87509 45.7471C35.1534 3.7339 84.0063 25.9073 155.514 0.247143M1.33422 48.2471C36.1047 5.37958 74.5816 27.5089 143.185 5.38837M143.185 5.38837C145.057 4.78485 146.951 4.14839 148.868 3.47677M143.185 5.38837C71.4069 29.2592 37.9884 6.65763 2.04125 49.7471M143.185 5.38837C147.83 3.84356 152.636 2.10412 157.613 0.139648M2.43202 50.9478C42.8172 4.26234 79.7486 34.0821 159.865 0.24717M3.10466 52.7471C46.0163 5.63921 79.3106 37.3688 161.739 0.247048" stroke="white" stroke-opacity="0.32" stroke-width="0.3"/>
<defs>
<linearGradient id="paint0_linear_301_47" x1="163.527" y1="-16.3725" x2="-0.64658" y2="75.9517" gradientUnits="userSpaceOnUse">
<stop offset="0.225413" stop-color="#E091BE" stop-opacity="0.78"/>
<stop offset="0.521429" stop-color="#726DD8"/>
<stop offset="1" stop-color="#E0BE91" stop-opacity="0.69"/>
</linearGradient>
</defs>
</svg>
