<svg width="39" height="45" viewBox="0 0 39 45" fill="none" xmlns="http://www.w3.org/2000/svg">
<g opacity="0.65">
<path d="M32.3357 2.37052C34.2321 0.0131416 34.9844 -0.245536 37.2576 0.745656C37.8544 1.00688 38.4898 1.29345 38.6206 2.1015C38.6281 2.14016 38.5687 2.21138 38.5173 2.2373C38.456 2.27508 38.3822 2.28014 38.3091 2.29636C37.4016 0.858886 35.7237 2.22756 34.6501 1.21559C34.4992 1.07486 33.9403 1.66163 33.8643 2.18168C36.6706 3.89176 36.877 3.89438 38.3072 2.26291C39.0867 3.12717 38.2978 4.13264 38.4767 5.13325C38.7969 6.84606 38.211 8.71619 38.3169 10.5668C38.366 11.4252 37.5183 12.0486 36.9501 12.6584C36.4519 13.1963 36.3372 13.5958 36.8243 14.2507C38.94 17.1106 37.9628 19.7239 36.0038 22.0968C35.3404 22.8922 35.1846 23.4961 35.6726 24.3523C35.7491 24.487 35.8051 24.6342 35.8506 24.7822C36.9861 28.8174 36.5941 29.8236 32.9012 31.5712C31.866 32.0619 31.1698 32.8372 30.6126 33.7317C28.6462 36.8997 25.815 37.8047 22.4764 37.4238C21.0762 37.2681 19.6765 37.0284 18.2941 36.7203C16.0973 36.2331 14.3108 36.4453 12.824 38.657C11.8635 40.0828 11.1111 41.8188 9.50555 42.6957C9.17725 42.8749 8.87944 43.1248 8.55114 43.304C5.44649 44.9776 2.56002 43.1611 2.9441 39.5197C3.30247 36.0759 2.50349 33.1145 1.13272 30.0524C-0.213148 27.0557 0.0592999 23.7745 0.930201 20.5977C1.17919 19.6796 1.63767 18.7248 2.41196 18.2968C3.81682 17.5176 3.70895 16.3722 3.49235 15.0832C3.41286 14.6186 3.33833 14.148 3.30099 13.6805C3.08594 10.6622 4.44359 9.05811 7.3067 9.07987C9.82572 9.09727 12.3313 9.61924 14.8732 9.20416C15.6436 9.07854 16.0725 8.99315 16.2161 8.08232C16.3677 7.12619 16.8338 6.30515 17.793 5.96512C20.0689 5.15419 22.3521 4.65614 24.6264 5.94385C24.187 6.39931 23.6604 6.25637 23.1475 6.16846C21.7261 5.91905 20.3096 6.03304 18.9407 6.42358C17.161 6.93744 16.2248 8.88196 16.9321 10.7025C18.0421 13.5531 19.5497 16.1413 21.7126 18.2537C24.2566 20.7429 27.4735 21.77 30.6982 22.6567C32.2086 23.0735 33.9184 22.6316 35.1487 21.6686C37.898 19.5157 37.759 15.9773 34.9428 13.5404C34.8379 15.4055 35.1137 17.2669 34.3609 19.4563C33.8243 17.7527 34.1763 16.5086 34.175 15.2832C34.181 13.2626 34.2126 13.2604 32.2257 12.9267C31.315 16.0558 30.8279 16.9734 29.4392 18.1264C29.4653 17.3803 29.8773 16.8148 30.1695 16.1904C30.5711 15.3514 30.907 14.4722 31.2056 13.5899C31.4185 12.9653 31.4182 12.4057 30.6879 12.0305C30.0234 11.6956 29.6503 11.8331 29.1807 12.4081C28.0187 13.8254 27.0082 15.3945 25.2196 16.9554C26.4209 14.5618 27.7711 12.919 28.9729 11.1801C27.0732 9.59805 26.951 9.58965 25.329 11.3798C24.5727 12.2151 23.8779 13.1078 22.9175 14.2594C23.2759 11.5543 25.3448 10.8247 26.5773 9.25155C26.125 8.2809 25.5219 7.63397 24.3539 8.02191C24.3424 7.82124 24.3365 7.62578 24.325 7.42511C25.3797 7.08971 25.1903 6.55429 24.552 5.93776C25.0809 5.5657 25.6041 5.18843 26.0286 4.65566C26.5174 4.04572 27.1874 3.55205 27.9134 3.57498C28.9204 3.6066 29.6274 3.3902 30.2893 2.47738C30.7842 1.78868 31.6385 1.37191 32.3822 2.35055C32.2707 2.43654 32.1674 2.57234 32.0422 2.60332C31.834 2.66237 31.6058 2.65005 31.3914 2.69275C30.8422 2.80318 30.4472 3.1101 30.339 3.7163C30.2106 4.43022 30.8116 4.57924 31.1848 4.90619C31.8919 5.52359 33.1706 5.31272 33.3835 6.62998C31.9898 6.21638 31.7738 7.98837 30.5449 8.33012C30.9596 7.535 31.2934 6.89653 31.6123 6.27586C29.8515 3.97919 28.8581 6.49286 27.4796 7.08551C27.642 5.94955 28.7134 5.62979 28.8936 4.71087C27.7253 4.53922 27.1854 4.62663 26.6393 5.06703C25.6889 5.83736 25.5368 6.50813 26.3146 7.43407C28.539 10.0683 31.2172 11.9438 34.605 12.4444C36.2217 12.686 37.9674 10.6524 37.5506 9.00774C37.2704 7.90216 36.7154 7.81713 36.0715 8.76788C35.945 8.77656 35.8136 8.79117 35.6816 8.79464C35.5877 8.26386 35.5384 7.67965 34.9071 7.5551C34.2119 7.42373 34.0635 8.06627 33.8572 8.52812C33.5483 9.23203 33.2661 9.93972 32.4751 10.3522C32.4772 9.00335 33.8558 8.04136 33.347 6.63808C33.8608 5.81937 34.3766 6.51146 34.8201 6.68248C35.4473 6.91924 36.0338 7.27632 36.717 7.29099C37.337 7.30999 37.6824 6.96732 37.811 6.34852C37.8971 5.91171 38.1826 5.3549 37.6967 5.09165C37.3747 4.91789 36.8202 4.74889 36.4979 5.21869C35.9363 6.03509 35.8994 5.4836 35.8329 4.96773C35.7858 4.60722 35.9401 4.16014 35.481 3.99578C34.784 3.92609 34.6922 5.00125 33.9717 4.98354C33.8429 4.30406 34.8639 3.84227 34.0507 3.22095C33.1928 2.55793 32.7029 3.61004 31.9808 3.74913C32.205 3.23009 32.3984 2.8195 32.3443 2.33636L32.3357 2.37052ZM27.4694 34.9155C27.3372 34.0851 28.2552 33.5801 28.0852 32.7355C26.2346 32.3813 26.2681 32.4125 25.1369 33.7213C24.6505 34.2807 24.3415 35.2588 23.2592 35.0197C23.8138 34.0807 25.0451 33.6884 24.9128 32.3936C24.3704 32.0671 23.8084 31.8594 23.3412 32.0146C22.1619 32.3921 22.0047 34.0817 20.7337 34.4264C20.5985 33.2661 22.324 32.9126 21.8942 31.6886C20.3986 30.7896 19.2488 30.9412 18.3419 32.5648C17.9104 33.3442 17.2388 33.9947 16.2207 33.9527C16.7456 32.6799 18.2217 32.2205 18.5176 30.8291C18.2042 30.2518 17.5999 30.3213 17.1611 30.0492C16.1967 29.4662 15.5314 29.3944 14.9315 30.745C14.2057 32.3897 12.7454 33.4021 11.2403 34.2777C11.842 33.3298 12.5505 32.4921 13.2479 31.644C15.3653 29.0812 15.3415 28.9429 12.388 27.4332C12.2788 27.3736 12.1034 27.4528 11.8828 27.4791C10.7715 29.5979 9.79747 31.8976 8.18544 33.771C8.17255 33.0836 8.40539 32.5304 8.70705 31.978C9.4822 30.5482 10.235 29.0975 10.9444 27.6274C11.1569 27.182 11.5161 26.525 10.7747 26.2345C9.80567 25.8477 9.09486 24.8892 7.97203 24.8655C7.16078 26.5888 6.95819 28.5949 5.81626 30.1786C5.65443 29.0146 6.07252 28.001 6.39512 26.9827C7.3599 23.9674 7.37603 23.9719 5.20155 21.933C5.11214 21.8496 4.92868 21.879 4.81148 21.8647C4.19782 22.3265 4.16248 23.0956 3.88142 23.7304C3.58119 24.4002 3.7258 25.2632 3.03565 25.9597C2.65314 24.822 2.98644 23.8982 3.37641 23.1327C4.06245 21.8097 4.3145 20.483 4.05672 19.0289C5.29478 19.7721 5.67727 21.2792 6.70247 22.2777C8.75847 24.2799 11.2138 25.5888 13.5487 27.1018C17.6746 29.7789 22.2572 31.0985 27.0627 31.5074C29.5455 31.7231 31.9764 31.3101 34.1527 29.8681C34.8457 29.4064 35.6594 28.8357 35.5413 27.8813C35.3717 26.4883 35.2007 25.073 34.5607 23.7795C34.3032 23.2544 33.9632 23.1378 33.4805 23.2996C32.9823 23.4681 33.1002 23.8629 33.1597 24.2562C33.2136 24.6442 33.2787 25.0427 33.2428 25.4313C33.1281 26.5695 33.0959 27.7637 32.0522 29.1224C32.2875 27.4107 32.4964 26.2547 32.5832 25.0904C32.653 24.1846 32.3248 23.6252 31.2944 23.6455C30.4754 23.6625 29.8178 23.3551 29.5732 24.7206C29.1787 26.8853 28.7392 27.3408 27.2896 28.4476C27.5295 28.017 27.7058 27.7699 27.8064 27.4943C28.1922 26.4718 28.8064 25.5566 29.0129 24.4512C29.1623 23.6407 29.005 23.0192 28.169 22.8303C27.3863 22.649 27.4203 23.335 27.2425 23.834C26.7543 25.1938 26.2506 26.5602 24.8922 27.3194C25.5969 26.0455 26.2322 24.7596 26.649 23.3543C26.9863 22.2232 26.1627 22.067 25.5131 21.7143C24.7815 21.3168 24.4255 21.6602 24.1687 22.3494C23.4261 24.3478 21.8285 25.5486 20.4886 27.0004C20.6675 26.0592 21.3573 25.5418 21.8416 24.8538C22.4521 23.9669 23.1892 23.1665 23.5787 22.1157C23.717 21.7592 23.9751 21.4617 23.7816 21.0385C23.1296 19.6282 21.4647 19.4683 20.7117 20.8238C19.7084 22.6107 18.2715 23.9404 16.954 25.4131C17.8927 23.5132 19.0431 21.8002 20.3306 20.1729C21.3224 18.924 21.1792 18.9171 20.1703 17.6489C19.3099 16.5719 18.6126 17.0507 17.9018 17.6646C16.9242 18.5152 15.9112 19.301 15.0368 20.2899C14.2521 21.1832 13.56 22.2156 12.3003 23.0352C13.1016 21.3237 14.2314 20.2669 15.1898 19.0819C16.1978 17.8375 17.6213 17.1075 18.7151 16.0699C18.3451 14.5955 17.5243 13.8404 16.1258 13.9924C16.2723 13.3164 17.1974 13.3984 16.8917 12.5856C16.6476 11.9252 16.1726 11.8515 15.6351 11.8884C15.1925 11.9187 14.7481 12.0108 14.3018 12.0694C11.7901 12.3649 9.45118 13.2753 7.20385 14.4927C8.26402 12.9594 9.8386 12.4652 11.3971 11.9665C12.6853 11.5536 14.0042 11.3064 15.3551 11.2472C15.6979 11.2293 16.1388 11.2606 16.0671 10.6556C16.0124 10.1613 15.6619 10.0454 15.2744 10.0216C14.9823 10.0025 14.6698 9.99597 14.3872 10.0489C12.5235 10.3895 10.6689 10.2426 8.8178 9.97227C4.84403 9.39997 3.59478 11.3268 4.3669 14.9281C4.43187 15.2314 4.50929 15.5674 4.46265 15.8616C4.28582 16.9314 4.89219 18.0986 4.07539 19.078C3.73849 18.922 3.53846 18.2922 3.01549 18.8597C2.15894 19.7915 1.59459 20.8375 1.36729 22.1346C0.621024 26.4724 1.68501 30.367 3.86018 33.9895C5.00588 35.8919 6.65301 36.9428 8.79231 37.1653C9.20714 37.204 9.90095 36.8486 9.92723 37.7702C7.56993 38.4524 5.74461 37.2458 3.86519 35.556C3.76545 37.141 3.64035 38.3751 3.61569 39.6079C3.55707 42.466 5.65797 43.8663 8.10185 42.6633C10.0105 41.7209 10.9771 39.847 12.1511 38.1772C12.1907 38.1297 11.8982 37.8252 11.7659 37.6384C11.7632 37.4987 11.7119 37.2504 11.7578 37.2192C14.1903 35.9107 16.6572 35.1091 19.4188 36.0388C20.5298 36.4102 21.7408 36.495 22.9201 36.5819C24.5515 36.7106 26.1783 36.6661 27.6093 35.6054C28.7463 34.7663 29.8993 33.9317 30.5008 32.4242C29.6951 32.2109 29.11 32.3406 28.8385 33.1427C28.5763 33.9218 28.178 34.5423 27.4638 34.9103L27.4694 34.9155Z" fill="url(#paint0_linear_309_101)"/>
<path d="M9.57726 19.4613C10.9896 16.779 12.6598 14.4428 15.7876 14.0994C14.7693 15.0702 13.3607 15.4131 12.3722 16.4435C11.4184 17.4323 10.5038 18.4576 9.58285 19.4665L9.57726 19.4613Z" fill="url(#paint1_linear_309_101)"/>
<path d="M2.96514 27.509C2.87989 27.3133 2.74194 27.1214 2.73604 26.9259C2.72201 26.6806 2.58552 26.2367 3.0227 26.2963C3.39043 26.3438 3.25036 26.7619 3.22783 27.0153C3.21138 27.1899 3.02503 27.3538 2.91308 27.5237L2.97073 27.5142L2.96514 27.509Z" fill="url(#paint2_linear_309_101)"/>
<path d="M2.91308 27.5237C3.08857 27.5397 3.19618 27.7561 3.10819 27.7901C2.69431 27.9528 2.96721 27.6375 2.97073 27.5142L2.91308 27.5237Z" fill="url(#paint3_linear_309_101)"/>
<path d="M5.7704 30.8643C5.80393 30.8956 5.848 30.9262 5.8555 30.9648C5.87433 31.109 5.78763 31.1654 5.62572 31.1093C5.61455 31.0989 5.60753 30.9763 5.63595 30.9183C5.65512 30.8835 5.72394 30.8843 5.7704 30.8643Z" fill="url(#paint4_linear_309_101)"/>
<path d="M11.8138 37.6518C11.6048 37.9739 11.3798 38.0173 11.1337 37.6928C11.2308 37.5407 11.1207 37.2796 11.4474 37.2572C11.7741 37.2348 11.7001 37.5141 11.8082 37.6465L11.8138 37.6518Z" fill="url(#paint5_linear_309_101)"/>
<path d="M11.1759 37.6899C10.9688 38.0455 10.7475 38.0607 10.5014 37.7362C10.5936 37.59 10.4884 37.323 10.8151 37.3006C11.1418 37.2782 11.0678 37.5575 11.1759 37.6899Z" fill="url(#paint6_linear_309_101)"/>
<path d="M10.5436 37.7333C10.3358 38.0778 10.1077 38.0654 9.86912 37.7796C9.96621 37.6275 9.85605 37.3664 10.1827 37.344C10.5094 37.3216 10.4355 37.6009 10.5436 37.7333Z" fill="url(#paint7_linear_309_101)"/>
<path d="M24.354 8.03295C23.1794 8.58362 21.9215 8.97214 20.7111 10.3759C21.6947 8.24343 21.8519 8.12631 24.3202 7.44208C24.3317 7.64275 24.3376 7.83821 24.3491 8.03888L24.354 8.03295Z" fill="url(#paint8_linear_309_101)"/>
<path d="M34.2119 20.0036C34.2461 20.046 34.2914 20.0988 34.3101 20.1479C34.3169 20.1754 34.2718 20.2177 34.2476 20.2585C34.2587 20.1738 34.2591 20.0899 34.2702 20.0052L34.2069 20.0095L34.2119 20.0036Z" fill="url(#paint9_linear_309_101)"/>
<path d="M34.2702 20.0052C34.0889 19.8889 33.9529 19.7303 34.0778 19.5091C34.1062 19.4512 34.3703 19.4443 34.3946 19.4986C34.5183 19.7195 34.3797 19.8857 34.2125 20.0147L34.2758 20.0104L34.2702 20.0052Z" fill="url(#paint10_linear_309_101)"/>
<path d="M35.9643 9.49139C36.0475 9.92777 36.0856 10.5016 35.5424 10.4381C35.2069 10.3996 35.4918 9.8316 35.5204 9.49947C35.6686 9.50049 35.8168 9.50152 35.9643 9.49139Z" fill="url(#paint11_linear_309_101)"/>
<path d="M36.068 8.80715C36.1775 9.05706 36.1376 9.28364 35.9693 9.48546C35.8217 9.49558 35.6736 9.49456 35.5254 9.49353C35.5814 9.27144 35.627 9.05007 35.683 8.82798C35.8095 8.8193 35.9415 8.81583 36.073 8.80122L36.068 8.80715Z" fill="url(#paint12_linear_309_101)"/>
<path d="M34.5923 0.112005C35.3791 -0.149169 36.1986 0.0649934 37.3374 0.561554C37.9221 0.817479 38.6681 1.14143 38.8184 2.06928C38.8289 2.13226 38.8111 2.18524 38.799 2.21354C38.785 2.24644 38.7655 2.27493 38.7478 2.29745C38.7224 2.32973 38.6866 2.3607 38.6468 2.38781C38.9001 2.81365 38.8812 3.25958 38.8144 3.67757C38.7945 3.80256 38.7696 3.92871 38.7461 4.05035C38.7223 4.17344 38.6994 4.29346 38.6818 4.41276C38.6467 4.65105 38.6345 4.87695 38.6736 5.09642L38.7254 5.42998C38.8219 6.21377 38.7579 7.01957 38.6764 7.81818C38.5823 8.73954 38.4646 9.64971 38.5164 10.555C38.5452 11.0576 38.3089 11.4769 38.0196 11.8317C37.8742 12.0098 37.7105 12.1781 37.5511 12.3365C37.3892 12.4974 37.2351 12.646 37.0966 12.7947L37.0957 12.7936C36.8533 13.0554 36.7382 13.2506 36.716 13.4336C36.6974 13.5876 36.7415 13.7698 36.9067 14.0197L36.9851 14.1312L37.1797 14.4064C38.1077 15.7785 38.3588 17.1087 38.1388 18.3893C37.9056 19.7459 37.1471 21.0252 36.1575 22.2239C35.8342 22.6116 35.6556 22.9296 35.6036 23.2352C35.5529 23.5335 35.6176 23.8516 35.8464 24.2531L35.9067 24.3685C35.9626 24.4856 36.0058 24.6061 36.0417 24.7228L36.0431 24.7279L36.238 25.4499C36.6509 27.0639 36.7632 28.1953 36.37 29.1126C35.9753 30.0334 35.0904 30.6968 33.6423 31.4316L32.9864 31.7514C31.9974 32.2203 31.3272 32.9624 30.7826 33.8366C29.7801 35.4517 28.5501 36.5 27.1367 37.0926C25.7257 37.684 24.1466 37.8154 22.4542 37.6224L22.4534 37.6213C21.3976 37.5038 20.3423 37.3401 19.2948 37.1344L18.2507 36.9148C17.1665 36.6744 16.2096 36.6133 15.3496 36.868C14.4959 37.1208 13.7128 37.6923 12.9899 38.7676C12.7528 39.1194 12.5282 39.4915 12.2965 39.8701C12.0659 40.2469 11.8286 40.6298 11.5702 40.9965C11.0529 41.7304 10.4418 42.4119 9.601 42.8711C9.44741 42.955 9.29927 43.0566 9.14141 43.1648C8.98646 43.2709 8.82162 43.384 8.64718 43.4792C7.04627 44.3423 5.46663 44.3212 4.3297 43.5717C3.26256 42.868 2.62945 41.5527 2.71758 39.8451L2.74482 39.4984C3.09826 36.1018 2.31287 33.1768 0.950583 30.1336C-0.422781 27.0757 -0.13922 23.7403 0.737049 20.5439C0.989135 19.6149 1.4662 18.59 2.31503 18.1207C2.97185 17.7564 3.25658 17.3211 3.36459 16.8373C3.44853 16.461 3.42878 16.0452 3.36755 15.5874L3.29516 15.1161C3.21556 14.6508 3.13933 14.1727 3.10125 13.6958L3.10145 13.6939C2.99201 12.1569 3.27984 10.9399 3.99828 10.1087C4.71962 9.27429 5.84048 8.86817 7.30783 8.87925C8.57472 8.888 9.84711 9.02419 11.0944 9.10423C12.3489 9.18471 13.5927 9.2105 14.8409 9.0067C15.2387 8.94182 15.4899 8.89286 15.6674 8.77192C15.8255 8.6641 15.9513 8.47649 16.0185 8.05026C16.1771 7.0502 16.6746 6.1493 17.7259 5.77645L18.1553 5.62691C20.2537 4.92068 22.4098 4.53777 24.5647 5.68141C25.047 5.33937 25.5007 4.99685 25.8722 4.53063C26.3752 3.90298 27.0994 3.34861 27.9197 3.37449C28.4089 3.38986 28.805 3.34414 29.1527 3.19592C29.4976 3.04886 29.8125 2.79298 30.127 2.35918C30.3904 1.99293 30.7674 1.67252 31.2059 1.59156C31.5999 1.5189 32.0001 1.64765 32.3621 2.02155C33.2155 0.981962 33.8699 0.351824 34.5923 0.112005ZM37.2576 0.745656C34.9968 -0.240131 34.2401 0.00957847 32.3663 2.33137C31.6262 1.37775 30.7809 1.79334 30.2893 2.47738C29.6274 3.3902 28.9204 3.6066 27.9134 3.57498C27.1874 3.55205 26.5174 4.04572 26.0286 4.65566C25.6114 5.17928 25.0984 5.55174 24.5788 5.91763C22.3202 4.66335 20.0531 5.15985 17.793 5.96512L17.6188 6.03411C16.7768 6.40802 16.3582 7.186 16.2161 8.08232L16.1855 8.24293C16.0172 9.00337 15.5955 9.08639 14.8732 9.20416C12.3313 9.61924 9.82572 9.09727 7.3067 9.07987L7.04263 9.08171C4.36028 9.15889 3.0927 10.7566 3.30099 13.6805C3.33833 14.148 3.41286 14.6186 3.49235 15.0832C3.70895 16.3722 3.81682 17.5176 2.41196 18.2968L2.27039 18.3821C1.58107 18.843 1.16365 19.737 0.930201 20.5977C0.0592999 23.7745 -0.213148 27.0557 1.13272 30.0524C2.50335 33.1142 3.30222 36.0752 2.94399 39.5187C2.5599 43.1601 5.44646 44.9766 8.55111 43.303C8.79728 43.1686 9.0268 42.9953 9.2644 42.841L9.50555 42.6957C10.9103 41.9283 11.6625 40.5027 12.4719 39.2033L12.824 38.657C14.3108 36.4453 16.0973 36.2331 18.2941 36.7203C19.6765 37.0284 21.0762 37.2681 22.4764 37.4238C25.815 37.8047 28.6462 36.8997 30.6126 33.7317C31.1349 32.8932 31.7793 32.1587 32.7108 31.6659L32.9012 31.5712C36.5941 29.8236 36.9861 28.8174 35.8506 24.7822C35.8166 24.6714 35.7766 24.5604 35.7265 24.4554L35.6726 24.3523C35.2458 23.6033 35.3114 23.0466 35.7787 22.3867L36.0038 22.0968C37.9628 19.7239 38.94 17.1106 36.8243 14.2507C36.3372 13.5958 36.4519 13.1963 36.9501 12.6584C37.5183 12.0486 38.366 11.4252 38.3169 10.5668C38.2177 8.83197 38.726 7.07928 38.5262 5.45584L38.4767 5.13325C38.2999 4.14334 39.0686 3.14908 38.3301 2.2911C38.3962 2.27802 38.4619 2.27145 38.5173 2.2373C38.5687 2.21138 38.6281 2.14016 38.6206 2.1015C38.5061 1.39436 38.0052 1.08604 37.4819 0.845119L37.2576 0.745656ZM3.86519 35.556C5.73045 37.2331 7.54206 38.4323 9.8737 37.7834C10.1037 38.0561 10.3217 38.0733 10.5233 37.7615C10.754 38.0494 10.9603 38.0351 11.1564 37.7182C11.3879 38.0049 11.5972 37.9652 11.7956 37.6745C11.9369 37.862 12.1882 38.1328 12.1511 38.1772L11.7184 38.8104C10.7208 40.3006 9.7718 41.8387 8.10185 42.6633L7.87366 42.768C5.60445 43.7442 3.68646 42.4641 3.61636 39.8714L3.61569 39.6079C3.64035 38.3751 3.76545 37.141 3.86519 35.556ZM4.03596 35.9731C3.94132 37.374 3.83841 38.4904 3.81597 39.6119C3.78774 40.9928 4.28018 41.9829 5.03243 42.4918C5.78262 42.9993 6.83946 43.061 8.0131 42.4834L8.34763 42.3031C9.10418 41.8588 9.70524 41.2532 10.2448 40.5691C10.8454 39.8075 11.3504 38.9785 11.9217 38.1575C11.9064 38.1369 11.8885 38.112 11.8666 38.0848C11.8429 38.0553 11.8166 38.021 11.7878 37.986C11.7072 38.054 11.6145 38.1029 11.5061 38.113C11.3828 38.1245 11.2736 38.084 11.1768 38.015C11.091 38.0985 10.9897 38.159 10.8668 38.1675C10.742 38.176 10.6329 38.1284 10.537 38.0556C10.4493 38.1342 10.3473 38.1876 10.2258 38.1923C10.0638 38.1984 9.92525 38.1165 9.81047 38.0074C7.55677 38.5815 5.7764 37.4897 4.03596 35.9731ZM3.01549 18.8597C3.53177 18.2995 3.73363 18.905 4.06284 19.0706C4.30839 20.5082 4.05577 21.8226 3.37641 23.1327C2.98644 23.8982 2.65314 24.822 3.03565 25.9597C3.68282 25.3066 3.59596 24.5065 3.83019 23.8572L3.88142 23.7304C4.16248 23.0956 4.19782 22.3265 4.81148 21.8647C4.92868 21.879 5.11214 21.8496 5.20155 21.933C7.37603 23.9719 7.3599 23.9674 6.39512 26.9827L6.1457 27.7474C5.8996 28.5166 5.69488 29.3056 5.81626 30.1786C6.95819 28.5949 7.16078 26.5888 7.97203 24.8655C9.09486 24.8892 9.80567 25.8477 10.7747 26.2345C11.5161 26.525 11.1569 27.182 10.9444 27.6274C10.235 29.0975 9.4822 30.5482 8.70705 31.978C8.40539 32.5304 8.17255 33.0836 8.18544 33.771C9.79747 31.8976 10.7715 29.5979 11.8828 27.4791C12.1034 27.4528 12.2788 27.3736 12.388 27.4332L12.9077 27.7011C15.336 28.9695 15.2329 29.2415 13.2479 31.644C12.5505 32.4921 11.842 33.3298 11.2403 34.2777C12.6513 33.4568 14.0235 32.5153 14.7875 31.0458L14.9315 30.745C15.5313 29.3946 16.1967 29.4655 17.1608 30.0482C17.5996 30.3202 18.2042 30.252 18.5176 30.8291C18.2217 32.2205 16.7456 32.6799 16.2207 33.9527C17.2388 33.9947 17.9104 33.3442 18.3419 32.5648C19.2488 30.9412 20.3986 30.7896 21.8942 31.6886C22.324 32.9126 20.5985 33.2661 20.7337 34.4264C21.9648 34.0926 22.151 32.4964 23.2331 32.0535L23.3412 32.0146C23.8084 31.8594 24.3704 32.0671 24.9128 32.3936C25.0451 33.6884 23.8138 34.0807 23.2592 35.0197C24.2061 35.2289 24.5608 34.5057 24.9606 33.947L25.1369 33.7213C26.2681 32.4125 26.2346 32.3813 28.0852 32.7355C28.2544 33.5771 27.3439 34.0812 27.4685 34.9065C28.0904 34.5844 28.4725 34.0709 28.7335 33.4271L28.8385 33.1427C29.11 32.3406 29.6951 32.2109 30.5008 32.4242C29.8993 33.9317 28.7463 34.7663 27.6093 35.6054C26.1783 36.6661 24.5515 36.7106 22.9201 36.5819C21.8881 36.5058 20.8318 36.4307 19.8395 36.1644L19.4188 36.0388C16.6572 35.1091 14.1903 35.9107 11.7578 37.2192C11.7215 37.2439 11.7438 37.4045 11.7569 37.5398C11.7137 37.4034 11.7008 37.2398 11.4474 37.2572L11.3442 37.2757C11.1645 37.3361 11.2043 37.5171 11.152 37.6499C11.079 37.5087 11.1123 37.2803 10.8151 37.3006L10.712 37.3191C10.5322 37.38 10.5681 37.5628 10.5198 37.6924C10.4474 37.5511 10.4794 37.3238 10.1827 37.344L10.0798 37.3625C9.94397 37.4081 9.93503 37.5229 9.91621 37.6337C9.82683 36.8851 9.18518 37.2017 8.79231 37.1653L8.39655 37.1128C6.57886 36.8274 5.13849 35.907 4.0813 34.3358L3.86018 33.9895C1.75293 30.4801 0.688522 26.7148 1.30263 22.5391L1.36729 22.1346C1.59459 20.8375 2.15894 19.7915 3.01549 18.8597ZM3.39136 18.829C3.35423 18.8359 3.27961 18.8679 3.16246 18.995L3.16159 18.9939C2.3802 19.844 1.85375 20.7875 1.60962 21.9365L1.56422 22.1683C0.827926 26.4487 1.87531 30.2949 4.03121 33.8855C5.14491 35.7348 6.73669 36.7483 8.81113 36.9647C8.88978 36.972 8.98664 36.962 9.11939 36.9475C9.24018 36.9344 9.39072 36.9183 9.53293 36.9377C9.68204 36.9581 9.83868 37.0196 9.95503 37.1694C9.96056 37.1765 9.96401 37.1852 9.96926 37.1925C10.0298 37.1645 10.097 37.1491 10.1689 37.1441C10.2774 37.1367 10.3796 37.1527 10.4667 37.2064C10.4756 37.2119 10.4832 37.2188 10.4912 37.2248C10.499 37.2173 10.5065 37.2089 10.5153 37.2018C10.5942 37.1378 10.6925 37.1082 10.8011 37.1007C10.9096 37.0933 11.0118 37.1093 11.0989 37.163C11.1078 37.1685 11.1154 37.1754 11.1235 37.1814C11.1316 37.1735 11.1394 37.165 11.1486 37.1575C11.2274 37.0938 11.3256 37.0648 11.4333 37.0573C11.4989 37.0528 11.5622 37.0578 11.6211 37.0735C11.6285 37.0668 11.636 37.0595 11.6449 37.0534L11.6544 37.0476L11.6628 37.0426C14.1126 35.7247 16.6423 34.8923 19.4824 35.8483L19.8925 35.9716C20.8609 36.2315 21.8976 36.3058 22.9345 36.3822C24.5569 36.5102 26.1212 36.4591 27.4906 35.4441L27.6315 35.3393L27.3332 35.0609L27.3278 35.0564L27.1197 34.8623L27.2581 34.7897C27.245 34.3661 27.4527 34.0199 27.6177 33.7311C27.7879 33.4331 27.9181 33.1867 27.9045 32.9044C27.5121 32.8298 27.2192 32.7775 26.9835 32.7549C26.7223 32.7297 26.5502 32.7434 26.4068 32.7934C26.2642 32.8432 26.1294 32.9362 25.9548 33.1075C25.7775 33.2816 25.5742 33.5203 25.288 33.8514C25.176 33.9803 25.0729 34.1349 24.9556 34.3059C24.8416 34.4722 24.7154 34.6529 24.566 34.8084C24.4152 34.9654 24.234 35.1045 24.0072 35.1847C23.7789 35.2655 23.5184 35.2808 23.2164 35.2141L22.9468 35.1549L23.0871 34.9175C23.2386 34.6609 23.4337 34.4461 23.6296 34.2526C23.8352 34.0494 24.0184 33.8908 24.1992 33.7016C24.5199 33.3661 24.7404 33.0219 24.7181 32.5127C24.2152 32.2245 23.7589 32.0868 23.4045 32.2044L23.4026 32.2042C22.8916 32.3678 22.594 32.8153 22.2378 33.3437C21.8976 33.8483 21.5033 34.424 20.7865 34.6186L20.5619 34.68L20.5355 34.4493C20.455 33.7588 20.9396 33.3077 21.2787 32.9446C21.46 32.7504 21.6088 32.5768 21.6927 32.3878C21.7647 32.2256 21.7898 32.0464 21.7257 31.8217C21.0252 31.4125 20.4394 31.2662 19.9398 31.3754C19.4301 31.4869 18.9554 31.8767 18.5167 32.6622C18.0682 33.472 17.3392 34.1988 16.2125 34.1523L15.927 34.1404L16.0357 33.8761C16.3181 33.1914 16.8572 32.7261 17.3171 32.2894C17.7697 31.8596 18.1535 31.4492 18.3019 30.8586C18.1809 30.6755 18.0178 30.5846 17.8184 30.5123C17.6963 30.4681 17.59 30.4405 17.4509 30.3944C17.3232 30.3522 17.1869 30.2994 17.058 30.2199L16.8832 30.1187C16.4903 29.901 16.1949 29.8144 15.9516 29.8669C15.7203 29.9168 15.4769 30.1081 15.2233 30.5973L15.1145 30.8254C14.3607 32.5333 12.8486 33.5726 11.3408 34.4497L11.0712 34.1695C11.6809 33.209 12.3998 32.3603 13.0941 31.5159C13.6256 30.8726 14.0118 30.3941 14.2529 30.0104C14.4966 29.6224 14.563 29.3751 14.524 29.183C14.485 28.9912 14.3278 28.7907 13.9523 28.5316C13.6737 28.3394 13.2987 28.131 12.816 27.8789L12.2966 27.6112C12.291 27.611 12.2684 27.6098 12.2131 27.62C12.1699 27.6279 12.0955 27.6422 12.0157 27.6568C10.9327 29.7333 9.94681 32.0302 8.33717 33.9008L7.99514 34.2984L7.98539 33.7739C7.97162 33.035 8.22368 32.4451 8.53137 31.8817L9.10675 30.8079C9.67783 29.7295 10.2334 28.6398 10.7642 27.5397C10.8779 27.3016 10.9987 27.0654 11.0182 26.8539C11.0273 26.7562 11.0124 26.6792 10.9739 26.6164C10.9352 26.5534 10.8583 26.4816 10.7022 26.4204L10.7003 26.4192C10.1906 26.2156 9.73882 25.8573 9.32074 25.5803C8.92681 25.3194 8.54333 25.1152 8.09717 25.0734C7.73143 25.8847 7.49286 26.7528 7.20858 27.6351C6.91266 28.5534 6.56873 29.4762 5.97852 30.2948L5.70425 30.6741L5.81125 30.6285L5.90685 30.7173C5.91229 30.7224 5.9172 30.7276 5.92829 30.7373C5.93763 30.7455 5.95154 30.757 5.96499 30.7707C5.98239 30.7883 6.01367 30.8224 6.03475 30.8714L6.05148 30.9263L6.05412 30.9383L6.05664 31.025C6.05131 31.1161 6.01656 31.2168 5.91536 31.281C5.79685 31.356 5.65815 31.332 5.55997 31.298L5.52023 31.2839L5.48894 31.255C5.45952 31.2275 5.44596 31.1978 5.4412 31.1871C5.43501 31.1731 5.43041 31.1604 5.42822 31.1523C5.42378 31.1359 5.42169 31.1201 5.42017 31.1082C5.417 31.0836 5.41558 31.0562 5.41585 31.0292C5.41631 30.984 5.42196 30.9004 5.45685 30.8293L5.4606 30.8218L5.51284 30.7557C5.53138 30.7394 5.55033 30.7282 5.56575 30.7201C5.59579 30.7045 5.62549 30.6964 5.64242 30.692C5.65341 30.6891 5.68404 30.682 5.68476 30.6818L5.61784 30.2052C5.44835 28.985 5.88911 27.9172 6.20447 26.9218C6.44682 26.1644 6.62551 25.6084 6.72631 25.1636C6.8267 24.7206 6.84472 24.4088 6.78111 24.1362C6.71784 23.8654 6.56877 23.6093 6.29032 23.2883C6.01008 22.9652 5.61355 22.592 5.0689 22.0813C5.07305 22.0846 5.06069 22.0762 5.00307 22.0723C4.97386 22.0703 4.94384 22.0694 4.90622 22.0688C4.89768 22.0687 4.88845 22.0671 4.87892 22.0669C4.64981 22.2593 4.51641 22.5092 4.40963 22.8005C4.35154 22.959 4.30345 23.1223 4.24972 23.2951C4.19704 23.4645 4.13918 23.6407 4.06401 23.8105C3.99757 23.9587 3.95339 24.1232 3.91499 24.3043C3.87963 24.471 3.84221 24.6904 3.79963 24.8783C3.70821 25.2814 3.56076 25.714 3.17795 26.1004L3.15604 26.1216C3.2425 26.1499 3.31667 26.1984 3.37192 26.2704C3.44444 26.3649 3.46565 26.4757 3.47086 26.5668C3.47609 26.6584 3.46632 26.7526 3.45547 26.8303L3.42698 27.0325C3.41316 27.1791 3.33177 27.3036 3.26692 27.3906C3.24932 27.4142 3.22963 27.4373 3.21135 27.4603C3.23813 27.4872 3.26146 27.515 3.2791 27.5431C3.30998 27.5924 3.3381 27.6589 3.33942 27.7323C3.34088 27.8129 3.30452 27.9286 3.18073 27.9765L3.17986 27.9755C3.12305 27.9977 3.07126 28.0158 3.02424 28.0256C2.98086 28.0347 2.92103 28.0418 2.86021 28.0258C2.78468 28.0057 2.71855 27.9512 2.69142 27.8683C2.67049 27.804 2.68129 27.7449 2.68819 27.7147C2.68903 27.711 2.6904 27.707 2.69137 27.7033L2.56192 27.6924L2.71687 27.4555L2.7161 27.4535C2.69217 27.407 2.66468 27.3541 2.63998 27.302C2.59173 27.2 2.5419 27.0745 2.53664 26.9364L2.51478 26.7366C2.50659 26.6591 2.49905 26.561 2.51204 26.4682C2.52513 26.375 2.56293 26.2577 2.66999 26.1757C2.72974 26.13 2.7983 26.1058 2.87101 26.0961L2.84643 26.0227C2.43844 24.8091 2.7995 23.8244 3.19847 23.0413C3.84628 21.792 4.09144 20.5479 3.87894 19.1924C3.80994 19.1439 3.7501 19.0879 3.70165 19.0409C3.61911 18.9607 3.56332 18.9027 3.50366 18.8626C3.45144 18.8274 3.42003 18.8236 3.39136 18.829ZM30.22 32.5675C29.9413 32.5167 29.7171 32.5223 29.54 32.5891C29.3553 32.6588 29.1949 32.8034 29.0761 33.0797L29.0282 33.2061C28.7722 33.9664 28.3807 34.6077 27.6868 35.0143L27.7276 35.2671C28.7253 34.5276 29.6661 33.7825 30.22 32.5675ZM27.4638 34.9103L27.4694 34.9155C27.4689 34.9127 27.4689 34.9093 27.4685 34.9065C27.4669 34.9073 27.4654 34.9094 27.4638 34.9103ZM5.7704 30.8643C5.72394 30.8843 5.65512 30.8835 5.63595 30.9183L5.6205 30.9705C5.6111 31.0293 5.61748 31.1002 5.62572 31.1093C5.76725 31.1583 5.85106 31.1209 5.85741 31.0145L5.8555 30.9648C5.848 30.9262 5.80393 30.8956 5.7704 30.8643ZM15.2744 10.0216C15.6619 10.0454 16.0124 10.1613 16.0671 10.6556C16.1388 11.2606 15.6979 11.2293 15.3551 11.2472L14.8496 11.2773C13.6748 11.3699 12.5241 11.6053 11.3971 11.9665L10.8126 12.155C9.45289 12.6046 8.13141 13.1514 7.20385 14.4927C9.31074 13.3514 11.4984 12.4791 13.8332 12.1312L14.3018 12.0694C14.7481 12.0108 15.1925 11.9187 15.6351 11.8884C16.1726 11.8515 16.6476 11.9252 16.8917 12.5856C17.1974 13.3984 16.2723 13.3164 16.1258 13.9924C17.5243 13.8404 18.3451 14.5955 18.7151 16.0699C17.6213 17.1075 16.1978 17.8375 15.1898 19.0819L14.8229 19.5214C13.9537 20.5408 13.0014 21.5378 12.3003 23.0352C13.56 22.2156 14.2521 21.1832 15.0368 20.2899C15.9112 19.301 16.9242 18.5152 17.9018 17.6646C18.6126 17.0507 19.3099 16.5719 20.1703 17.6489C21.1792 18.9171 21.3224 18.924 20.3306 20.1729L19.8546 20.7869C18.759 22.2309 17.7753 23.7506 16.954 25.4131C18.1891 24.0325 19.5293 22.7772 20.5187 21.1535L20.7117 20.8238C21.4647 19.4683 23.1296 19.6282 23.7816 21.0385C23.9751 21.4617 23.717 21.7592 23.5787 22.1157C23.1892 23.1665 22.4521 23.9669 21.8416 24.8538C21.3573 25.5418 20.6675 26.0592 20.4886 27.0004C21.8285 25.5486 23.4261 24.3478 24.1687 22.3494C24.4255 21.6602 24.7815 21.3168 25.5131 21.7143C26.1627 22.067 26.9863 22.2232 26.649 23.3543C26.2322 24.7596 25.5969 26.0455 24.8922 27.3194C26.0806 26.6552 26.6146 25.5256 27.0566 24.3429L27.2425 23.834C27.4203 23.335 27.3863 22.649 28.169 22.8303C29.005 23.0192 29.1623 23.6407 29.0129 24.4512L28.9698 24.6554C28.7307 25.6707 28.1682 26.5355 27.8064 27.4943L27.7174 27.6987C27.6141 27.9046 27.4694 28.1249 27.2896 28.4476C28.7392 27.3408 29.1787 26.8853 29.5732 24.7206C29.8178 23.3551 30.4754 23.6625 31.2944 23.6455C32.3248 23.6252 32.653 24.1846 32.5832 25.0904C32.4964 26.2547 32.2875 27.4107 32.0522 29.1224C33.0959 27.7637 33.1281 26.5695 33.2428 25.4313C33.2607 25.2371 33.2532 25.0396 33.2347 24.8431L33.1597 24.2562C33.1002 23.8629 32.9823 23.4681 33.4805 23.2996C33.9632 23.1378 34.3032 23.2544 34.5607 23.7795C35.2007 25.073 35.3717 26.4883 35.5413 27.8813C35.6594 28.8357 34.8457 29.4064 34.1527 29.8681L33.7416 30.1261C31.6723 31.3588 29.3902 31.7096 27.0627 31.5074L26.1648 31.4191C21.8356 30.9438 17.7013 29.6983 13.9363 27.3484L13.5487 27.1018C11.3598 25.6833 9.06517 24.4434 7.09279 22.6443L6.70247 22.2777C5.68773 21.2894 5.30148 19.8042 4.09318 19.0532C4.83166 18.1402 4.35708 17.0679 4.43828 16.0632L4.46265 15.8616C4.49762 15.6411 4.46293 15.3964 4.41596 15.1602L4.3669 14.9281C3.59478 11.3268 4.84403 9.39997 8.8178 9.97227C10.6689 10.2426 12.5235 10.3895 14.3872 10.0489C14.5991 10.0092 14.8277 10.002 15.0519 10.0094L15.2744 10.0216ZM15.2621 10.2204C14.9735 10.2015 14.6805 10.1966 14.4237 10.2448C12.5278 10.5911 10.6462 10.4412 8.78843 10.1699C6.82489 9.88725 5.6111 10.2333 4.9664 11.0116C4.31509 11.7981 4.17949 13.0997 4.56223 14.8852C4.6166 15.139 4.69162 15.46 4.67364 15.7633L4.65973 15.8934C4.6193 16.138 4.62341 16.3939 4.64225 16.6635C4.66009 16.9189 4.69517 17.223 4.7087 17.4936C4.73354 17.9913 4.69607 18.5125 4.37854 19.0022C4.91869 19.3925 5.29169 19.9213 5.62825 20.4499C6.01534 21.0578 6.3508 21.656 6.84186 22.1343C8.879 24.1181 11.3041 25.4086 13.6575 26.9336C17.7507 29.5895 22.3007 30.901 27.0802 31.3077C29.5288 31.5205 31.9121 31.1122 34.0424 29.7006C34.3912 29.4682 34.7453 29.2246 34.9999 28.9289C35.249 28.6396 35.3932 28.3123 35.343 27.9058C35.1727 26.507 35.0034 25.1255 34.381 23.8676C34.2638 23.6288 34.1432 23.5142 34.0272 23.4654C33.9407 23.4292 33.8341 23.4198 33.6952 23.4476L33.5445 23.4885C33.4446 23.5223 33.3923 23.5621 33.3631 23.5958C33.3348 23.6284 33.3166 23.6677 33.3083 23.7225C33.2996 23.7806 33.3027 23.852 33.3135 23.9401L33.3576 24.2257L33.3574 24.2277C33.4035 24.559 33.4636 24.9266 33.4518 25.2926L33.442 25.4487L33.4418 25.4506C33.3279 26.581 33.294 27.8331 32.2105 29.2436L31.7517 29.8418L31.8542 29.0945C32.091 27.372 32.2977 26.2314 32.3839 25.0753C32.4173 24.6421 32.3502 24.3375 32.1955 24.1457C32.0654 23.9846 31.8445 23.8674 31.4692 23.8471L31.2986 23.8446C31.0886 23.849 30.8745 23.8325 30.7092 23.8278C30.5323 23.8228 30.394 23.8304 30.2797 23.8673C30.1737 23.9015 30.0802 23.964 29.9967 24.0895C29.9309 24.1883 29.8692 24.3293 29.8178 24.532L29.7703 24.7557C29.5717 25.845 29.3571 26.5328 28.9944 27.0898C28.6328 27.645 28.1337 28.0543 27.4112 28.6059L27.1145 28.3493C27.2348 28.1334 27.3446 27.9553 27.4273 27.8121C27.5124 27.6647 27.5748 27.5459 27.6189 27.425L27.6192 27.4231C27.8153 26.9032 28.0729 26.4037 28.2954 25.92C28.521 25.4296 28.7171 24.9421 28.8158 24.4141C28.8876 24.0241 28.8788 23.7144 28.7782 23.4888C28.6838 23.2773 28.4941 23.1086 28.1246 23.0251C27.9544 22.9857 27.8554 22.9992 27.7977 23.0236C27.7428 23.0469 27.697 23.0908 27.6554 23.1694C27.6116 23.2523 27.5795 23.359 27.5454 23.4906C27.5294 23.5525 27.5132 23.6213 27.4945 23.6914L27.4309 23.9007C26.9465 25.2498 26.4225 26.6927 24.9893 27.4936L24.3782 27.8359L24.7169 27.2219C25.4191 25.9525 26.0466 24.6813 26.4573 23.2967L26.5024 23.114C26.5352 22.9453 26.5326 22.8151 26.5099 22.7131C26.4803 22.5806 26.4133 22.4783 26.3157 22.3889C26.2144 22.2961 26.0813 22.2184 25.9221 22.1386C25.774 22.0643 25.5811 21.9781 25.4174 21.8892C25.0823 21.7072 24.8896 21.7243 24.7623 21.7976C24.6149 21.8826 24.482 22.0812 24.3561 22.4191C23.9726 23.4507 23.3695 24.2723 22.7009 25.0137C22.367 25.3839 22.0147 25.7359 21.6653 26.0835C21.3147 26.4323 20.967 26.7763 20.6356 27.1353L20.1613 27.6494L20.2917 26.9621C20.3893 26.4491 20.6268 26.056 20.892 25.7102C21.0234 25.5388 21.1646 25.375 21.2982 25.2174C21.4335 25.0578 21.5629 24.9025 21.6784 24.7384C21.8331 24.5138 21.995 24.2948 22.1555 24.0794C22.317 23.8625 22.4769 23.6489 22.6294 23.4307C22.9341 22.995 23.205 22.5483 23.3913 22.0459L23.3926 22.043C23.4306 21.945 23.4769 21.8511 23.5161 21.7695C23.5567 21.6847 23.591 21.6112 23.6154 21.5385C23.6496 21.4364 23.6632 21.3396 23.6383 21.2325L23.6001 21.1214C23.3005 20.4738 22.7792 20.1336 22.2682 20.0932C21.7612 20.0533 21.228 20.3056 20.8863 20.9207C19.8687 22.7328 18.4042 24.0913 17.1028 25.5458L16.7749 25.3242C17.7213 23.4087 18.8802 21.6835 20.1742 20.0481L20.488 19.6397C20.5736 19.5222 20.6411 19.4216 20.6918 19.3315C20.7908 19.1554 20.8141 19.0415 20.8022 18.9416C20.7894 18.8344 20.7323 18.7089 20.5971 18.517C20.5295 18.4209 20.4475 18.3158 20.3508 18.1941L20.0137 17.7731C19.6102 17.2681 19.2868 17.1738 19.0132 17.2193C18.7062 17.2705 18.3941 17.5031 18.0332 17.8148C17.0448 18.6747 16.0492 19.445 15.1865 20.4206C14.4204 21.2926 13.6995 22.3633 12.4093 23.2027L11.8224 23.5849L12.1191 22.9497C12.9342 21.209 14.0953 20.1171 15.0346 18.9557C15.5547 18.3136 16.1787 17.8077 16.7995 17.3382C17.3924 16.89 17.9737 16.4781 18.489 16.0043C18.3089 15.3495 18.0393 14.874 17.6783 14.5742C17.302 14.2616 16.8039 14.1191 16.147 14.1905L15.9582 14.2106L15.9252 14.2434C15.3941 14.7497 14.7631 15.0908 14.1659 15.4235C13.561 15.7604 12.9875 16.0913 12.5168 16.5819C11.5657 17.568 10.6538 18.5897 9.73098 19.6008L9.59421 19.7502L9.44589 19.6126L9.44058 19.6071L9.32896 19.5028L9.40032 19.3681C10.8148 16.6816 12.528 14.2558 15.7655 13.9003L15.9514 13.8789C16.0656 13.5002 16.3874 13.3138 16.5553 13.1823C16.6554 13.1038 16.7096 13.0442 16.735 12.9795C16.7576 12.922 16.7698 12.8278 16.7049 12.6551L16.704 12.6541C16.5975 12.3659 16.4516 12.2282 16.2926 12.1573C16.1225 12.0816 15.9098 12.0697 15.6489 12.0876C15.2125 12.1175 14.7954 12.206 14.3274 12.2675L14.3254 12.2673C11.847 12.5588 9.53257 13.4579 7.29905 14.6679L7.03923 14.3789C8.14363 12.7816 9.78681 12.2717 11.3363 11.7759C12.4774 11.4101 13.6432 11.1721 14.8345 11.0783L15.3467 11.0466C15.4418 11.0417 15.5191 11.0408 15.6006 11.0325C15.68 11.0244 15.7378 11.0106 15.7789 10.9907C15.8146 10.9733 15.8365 10.9524 15.8514 10.9189C15.8685 10.8802 15.8836 10.8078 15.8683 10.6781C15.8466 10.4821 15.7723 10.3854 15.6856 10.3286C15.5871 10.264 15.4453 10.2317 15.2621 10.2204ZM2.96567 27.5352C2.93707 27.6698 2.71711 27.9439 3.10819 27.7901C3.18694 27.7597 3.10873 27.5833 2.96567 27.5352ZM2.91308 27.5237C2.9315 27.5254 2.9489 27.5295 2.96567 27.5352C2.9673 27.5275 2.9705 27.5208 2.97073 27.5142L2.96514 27.509C2.96024 27.4977 2.95371 27.4866 2.94849 27.4754C2.93659 27.4916 2.92383 27.5074 2.91308 27.5237ZM3.0227 26.2963C2.58552 26.2367 2.72201 26.6806 2.73604 26.9259C2.7416 27.1101 2.86301 27.2914 2.94849 27.4754C3.0451 27.3437 3.17086 27.2136 3.21375 27.0795L3.22783 27.0153C3.24896 26.7777 3.37345 26.3946 3.08596 26.3086L3.0227 26.2963ZM24.5901 5.97679C25.1965 6.57707 25.3574 7.09669 24.325 7.42511C24.3365 7.62578 24.3424 7.82124 24.3539 8.02191C25.5219 7.63397 26.125 8.2809 26.5773 9.25155C25.3448 10.8247 23.2759 11.5543 22.9175 14.2594C23.8779 13.1078 24.5727 12.2151 25.329 11.3798C26.951 9.58965 27.0732 9.59805 28.9729 11.1801C27.7711 12.919 26.4209 14.5618 25.2196 16.9554C26.7843 15.5897 27.7538 14.2166 28.75 12.9456L29.1807 12.4081C29.6503 11.8331 30.0234 11.6956 30.6879 12.0305C31.4182 12.4057 31.4185 12.9653 31.2056 13.5899C30.907 14.4722 30.5711 15.3514 30.1695 16.1904C29.8773 16.8148 29.4653 17.3803 29.4392 18.1264C30.8279 16.9734 31.315 16.0558 32.2257 12.9267C34.2126 13.2604 34.181 13.2626 34.175 15.2832C34.1763 16.5086 33.8243 17.7527 34.3609 19.4563C35.1137 17.2669 34.8379 15.4055 34.9428 13.5404C37.759 15.9773 37.898 19.5157 35.1487 21.6686L34.9127 21.8424C33.7055 22.6829 32.1142 23.0475 30.6982 22.6567C27.5745 21.7978 24.4578 20.8062 21.9532 18.4822L21.7126 18.2537C19.5497 16.1413 18.0421 13.5531 16.9321 10.7025C16.2248 8.88196 17.161 6.93744 18.9407 6.42358C20.3096 6.03304 21.7261 5.91905 23.1475 6.16846C23.6468 6.25405 24.1579 6.38988 24.5901 5.97679ZM24.5728 6.24896C24.0863 6.58496 23.5319 6.43675 23.1138 6.36506C21.7258 6.12154 20.3389 6.23117 18.9956 6.61437C17.3357 7.09384 16.4519 8.91172 17.1188 10.6291L17.3295 11.1574C18.4101 13.7798 19.849 16.1532 21.8526 18.11C24.3561 20.5595 27.5264 21.5765 30.7509 22.4632C32.1915 22.8606 33.838 22.4404 35.0257 21.5107C36.3543 20.4702 36.974 19.106 36.9329 17.7163C36.895 16.4347 36.2929 15.111 35.1272 13.9818C35.118 14.2996 35.1142 14.6194 35.1138 14.9438C35.1131 15.4134 35.1137 15.8939 35.0943 16.3845C35.0567 17.3399 34.9393 18.3417 34.5799 19.4242C34.6606 19.5827 34.6581 19.7381 34.5936 19.8754C34.5766 19.9115 34.5555 19.9448 34.5327 19.976L34.7488 20.1778L34.5065 20.1941C34.5022 20.2179 34.496 20.2372 34.4907 20.2494C34.4787 20.2773 34.4633 20.3008 34.4544 20.3133C34.4459 20.3255 34.4335 20.3412 34.4292 20.347C34.4263 20.3509 34.424 20.3537 34.4224 20.356C34.421 20.3581 34.4202 20.3595 34.42 20.3597L34.0497 20.2318C34.05 20.2295 34.0492 20.2271 34.0494 20.2249L33.5675 20.2588L33.9358 19.9741C33.9149 19.9467 33.8963 19.9172 33.8804 19.8856C33.8073 19.7398 33.8112 19.5739 33.9038 19.4098C33.9329 19.3578 33.9758 19.3289 34.0003 19.3151C34.0296 19.2986 34.0595 19.2883 34.0835 19.2817C34.0891 19.2802 34.0949 19.279 34.1006 19.2777C33.8859 18.4982 33.8484 17.8126 33.8677 17.1834C33.8783 16.8394 33.9057 16.5106 33.9299 16.1972C33.9544 15.8815 33.975 15.5803 33.9746 15.2827C33.9762 14.7724 33.9798 14.4047 33.9537 14.1274C33.9277 13.8506 33.8744 13.6985 33.7923 13.5975C33.711 13.4977 33.5764 13.4177 33.3147 13.3432C33.0829 13.2771 32.7776 13.223 32.3656 13.1533C31.9341 14.6223 31.5924 15.606 31.1879 16.3618C30.7636 17.1547 30.2753 17.6912 29.5667 18.2794L29.2239 18.5649L29.2392 18.1187C29.2535 17.7096 29.374 17.3548 29.5226 17.0294C29.5966 16.8673 29.6787 16.7097 29.7586 16.5577C29.8393 16.4041 29.918 16.256 29.9887 16.1049C30.3857 15.2755 30.7197 14.4025 31.0168 13.5248C31.1192 13.2243 31.1571 12.9722 31.106 12.7633C31.0579 12.5671 30.9222 12.3753 30.5967 12.208C30.2858 12.0516 30.0805 12.0247 29.9141 12.0703C29.7409 12.1177 29.563 12.2549 29.3352 12.5338C28.1889 13.932 27.1564 15.5306 25.3512 17.106L25.0411 16.8647C26.2152 14.5254 27.5356 12.8879 28.702 11.2169C28.2952 10.8796 27.9841 10.6283 27.7222 10.46C27.4307 10.2727 27.23 10.2054 27.0571 10.2141C26.8858 10.2228 26.7006 10.3087 26.4446 10.5238C26.3161 10.6318 26.1758 10.7665 26.017 10.9309L25.4775 11.5136C24.7246 12.3451 24.0376 13.229 23.0715 14.3874L22.6289 14.9176L22.7197 14.233C22.9063 12.8241 23.5412 11.9265 24.2776 11.1889C24.6412 10.8248 25.0363 10.4937 25.4033 10.167C25.7416 9.86594 26.0592 9.56194 26.338 9.2239C26.1305 8.80355 25.9047 8.47992 25.6233 8.29306C25.3422 8.1065 24.984 8.03944 24.48 8.19248L24.1781 8.55502L24.1652 8.33561C23.0596 8.83279 21.9482 9.24618 20.8621 10.5057L20.5295 10.2914C21.0162 9.23623 21.3194 8.62638 21.8333 8.21013C22.3221 7.81422 22.988 7.60486 24.1168 7.29037L24.1168 7.28153L24.2642 7.23443C24.7819 7.06982 24.871 6.89303 24.8733 6.78293C24.8746 6.71177 24.8461 6.61566 24.766 6.49058C24.7172 6.41435 24.6508 6.33486 24.5728 6.24896ZM15.7876 14.0994C12.6598 14.4428 10.9896 16.779 9.57726 19.4613L9.58285 19.4665C10.2734 18.71 10.9604 17.9436 11.6631 17.1909L12.3722 16.4435C13.3607 15.4131 14.7693 15.0702 15.7876 14.0994ZM34.2476 20.2585C34.2718 20.2177 34.3169 20.1754 34.3101 20.1479C34.3002 20.122 34.2837 20.094 34.2646 20.0681C34.2593 20.1314 34.2559 20.1951 34.2476 20.2585ZM34.219 20.0073L34.216 20.0079L34.2169 20.009C34.2151 20.0104 34.2143 20.0134 34.2125 20.0147L34.2204 20.0133C34.2344 20.0306 34.2503 20.0488 34.2646 20.0681C34.2662 20.0487 34.2674 20.0292 34.2698 20.0098L34.2758 20.0104L34.2702 20.0052C34.2609 19.9992 34.2531 19.9906 34.2441 19.9844C34.2354 19.9916 34.2279 20.0003 34.219 20.0073ZM34.2069 20.0095L34.216 20.0079C34.2147 20.0063 34.213 20.0042 34.2117 20.0026L34.2069 20.0095ZM34.3946 19.4986C34.369 19.4448 34.1061 19.4514 34.0778 19.5091C33.9596 19.7189 34.0771 19.87 34.2441 19.9844C34.3952 19.8594 34.5099 19.7044 34.3946 19.4986ZM28.8936 4.71087C28.7134 5.62979 27.642 5.94955 27.4796 7.08551C28.8581 6.49286 29.8515 3.97919 31.6123 6.27586C31.2934 6.89653 30.9596 7.535 30.5449 8.33012C31.7658 7.9906 31.9868 6.23923 33.3564 6.62202C33.3531 6.62707 33.3502 6.63291 33.347 6.63808C33.8558 8.04136 32.4772 9.00335 32.4751 10.3522C33.2661 9.93972 33.5483 9.23203 33.8572 8.52812C34.0635 8.06627 34.2119 7.42373 34.9071 7.5551C35.5384 7.67965 35.5877 8.26386 35.6816 8.79464C35.8136 8.79117 35.945 8.77656 36.0715 8.76788C36.7154 7.81713 37.2704 7.90216 37.5506 9.00774C37.9674 10.6524 36.2217 12.686 34.605 12.4444C31.4288 11.9751 28.8764 10.2966 26.7368 7.91807L26.3146 7.43407C25.5368 6.50813 25.6889 5.83736 26.6393 5.06703C27.1854 4.62663 27.7253 4.53922 28.8936 4.71087ZM28.633 4.87874C28.1757 4.82178 27.8393 4.81337 27.5649 4.85689C27.2544 4.90618 27.0139 5.02037 26.7648 5.2212C26.3006 5.59744 26.0741 5.91805 26.0262 6.2226C25.9797 6.51911 26.0946 6.86103 26.4674 7.30491L26.8856 7.78469C29.003 10.1386 31.5163 11.785 34.6341 12.2457C35.3505 12.3528 36.1284 11.9554 36.6884 11.3024C37.2474 10.6505 37.5442 9.79583 37.3567 9.05604C37.2897 8.79174 37.2094 8.60412 37.1263 8.48241C37.0437 8.36161 36.9702 8.32229 36.9155 8.31355C36.8598 8.30478 36.7751 8.31987 36.6538 8.40933C36.6042 8.44593 36.5517 8.49328 36.4962 8.55159L36.5448 8.54696L36.2949 8.84533C36.3289 8.96107 36.3383 9.07787 36.3205 9.19378C36.3012 9.32011 36.249 9.43528 36.1754 9.54067C36.2099 9.74552 36.2346 9.99371 36.1825 10.2004C36.1513 10.324 36.0881 10.4518 35.9665 10.5398C35.8433 10.6288 35.6891 10.6562 35.5191 10.6363C35.4478 10.6281 35.3774 10.6036 35.3177 10.5549C35.2576 10.5057 35.2219 10.4428 35.2026 10.3815C35.1673 10.2688 35.1803 10.1426 35.1974 10.0441C35.2156 9.94034 35.247 9.82638 35.2712 9.73081C35.2747 9.7171 35.2772 9.70355 35.2804 9.69055L35.2695 9.69135L35.3214 9.4818L35.3371 9.29786L35.3656 9.29796C35.3798 9.23769 35.3955 9.17746 35.4096 9.11606C35.4325 9.01592 35.455 8.91312 35.4806 8.81035C35.4325 8.53606 35.4012 8.29819 35.3135 8.10402C35.2328 7.92572 35.1105 7.79882 34.868 7.75097C34.7273 7.7247 34.6295 7.73931 34.5576 7.76985C34.4841 7.80116 34.4201 7.85704 34.3599 7.93826C34.2986 8.02093 34.2456 8.12395 34.1938 8.24265C34.1681 8.30137 34.1438 8.36124 34.1185 8.42317C34.0937 8.48386 34.0669 8.54672 34.0399 8.60726C33.7366 9.29838 33.4312 10.0788 32.5675 10.5291L32.2743 10.6814L32.2752 10.3515C32.2764 9.61912 32.6536 8.98718 32.9227 8.42796C33.1879 7.8769 33.3666 7.37265 33.1855 6.78741C32.9512 6.74328 32.769 6.77721 32.6118 6.85279C32.4148 6.94759 32.2403 7.11445 32.0522 7.32824C31.8732 7.5318 31.6717 7.79051 31.4495 8.00533C31.221 8.22631 30.9492 8.42483 30.5988 8.52234L30.1544 8.64574L30.368 8.23741C30.7571 7.49141 31.0729 6.88315 31.3736 6.29912C30.9812 5.81361 30.653 5.6051 30.3758 5.54526C30.0866 5.48295 29.8093 5.57134 29.5117 5.76424C29.2085 5.96078 28.9161 6.24304 28.5926 6.53421C28.2791 6.8164 27.9368 7.10566 27.5586 7.26832L27.2312 7.40913L27.2816 7.05702C27.3721 6.4241 27.719 6.02084 28.0327 5.68081C28.2958 5.39563 28.5173 5.1654 28.633 4.87874ZM24.3202 7.44208C21.8519 8.12631 21.6947 8.24343 20.7111 10.3759C21.9198 8.97415 23.1755 8.58349 24.3486 8.03407C24.3373 7.83499 24.3316 7.64123 24.3202 7.44208ZM35.9643 9.49139C35.8168 9.50152 35.6686 9.50049 35.5204 9.49947C35.4918 9.8316 35.2069 10.3996 35.5424 10.4381C36.0856 10.5016 36.0475 9.92777 35.9643 9.49139ZM35.683 8.82798C35.627 9.05007 35.5814 9.27144 35.5254 9.49353C35.6736 9.49456 35.8217 9.49558 35.9693 9.48546C36.1376 9.28364 36.1775 9.05706 36.068 8.80715L36.073 8.80122C35.9415 8.81583 35.8095 8.8193 35.683 8.82798ZM24.3486 8.03407C24.3487 8.0354 24.349 8.03755 24.3491 8.03888L24.354 8.03295C24.3525 8.03368 24.3502 8.03334 24.3486 8.03407ZM32.3462 2.38128C32.3838 2.84502 32.198 3.2464 31.9808 3.74913C32.7029 3.61004 33.1928 2.55793 34.0507 3.22095C34.8639 3.84227 33.8429 4.30406 33.9717 4.98354C34.6922 5.00125 34.784 3.92609 35.481 3.99578C35.9401 4.16014 35.7858 4.60722 35.8329 4.96773C35.8952 5.45131 35.9317 5.96572 36.3988 5.35517L36.4979 5.21869C36.8202 4.74889 37.3747 4.91789 37.6967 5.09165C38.1826 5.3549 37.8971 5.91171 37.811 6.34852C37.6824 6.96732 37.337 7.30999 36.717 7.29099C36.2045 7.27998 35.7463 7.07627 35.2847 6.87526L34.8201 6.68248C34.3847 6.51459 33.8805 5.84454 33.376 6.59465C33.1606 5.39673 32.0406 5.49791 31.3236 5.0121L31.1848 4.90619C30.835 4.59973 30.2847 4.44905 30.3229 3.84348L30.339 3.7163C30.4337 3.18606 30.748 2.88418 31.1928 2.74318L31.3914 2.69275C31.6058 2.65005 31.834 2.66237 32.0422 2.60332C32.1534 2.57566 32.2485 2.46579 32.3462 2.38128ZM32.0958 2.79451L32.0967 2.79558C31.9728 2.83071 31.847 2.84372 31.7369 2.85338C31.6791 2.85846 31.6257 2.86227 31.5754 2.86754L31.4307 2.88842C31.1814 2.93856 30.9824 3.03045 30.8354 3.16559C30.6904 3.2989 30.5834 3.4862 30.5361 3.75136C30.5092 3.90068 30.5224 4.00727 30.5522 4.08798C30.5823 4.16937 30.6346 4.23996 30.7092 4.30905C30.7861 4.3802 30.8794 4.4435 30.9877 4.51559C31.0913 4.58453 31.2114 4.6628 31.3167 4.75503C31.4675 4.88668 31.6545 4.9798 31.8699 5.0646C31.9778 5.10707 32.0881 5.14494 32.2035 5.18669C32.3172 5.22779 32.4348 5.27194 32.5495 5.32188C32.7789 5.4217 33.0091 5.55152 33.1966 5.7554C33.3091 5.87794 33.4019 6.02383 33.4715 6.19728C33.5324 6.15078 33.5948 6.11302 33.6619 6.08799C33.8485 6.01844 34.0265 6.04458 34.1791 6.10103C34.3269 6.15576 34.4671 6.24471 34.583 6.31902C34.7081 6.39925 34.8045 6.46164 34.8922 6.49545C35.054 6.55658 35.2119 6.62458 35.3652 6.69137C35.5201 6.7588 35.6694 6.8248 35.8201 6.88337C36.1208 7.0003 36.4132 7.08401 36.7211 7.09065L36.7231 7.09086C36.9931 7.09913 37.181 7.02909 37.315 6.90957C37.4525 6.78687 37.5561 6.59099 37.6151 6.3072C37.6383 6.19025 37.6747 6.06346 37.704 5.95331C37.735 5.83653 37.7604 5.73078 37.7694 5.63522C37.7783 5.54041 37.7696 5.46929 37.7468 5.41477C37.7311 5.37731 37.7057 5.33835 37.6577 5.30212L37.6016 5.26666C37.4544 5.18731 37.2673 5.11725 37.0926 5.11307C36.9494 5.10965 36.8171 5.14947 36.7081 5.27331L36.6626 5.33131C36.5207 5.53767 36.3948 5.68451 36.2767 5.76247C36.2157 5.80272 36.1374 5.83771 36.0482 5.83331C35.9519 5.8285 35.8785 5.77985 35.8291 5.72347C35.7837 5.67141 35.7553 5.60954 35.7361 5.5554C35.7162 5.49919 35.7012 5.43729 35.6894 5.37658C35.6663 5.25726 35.65 5.11678 35.6341 4.99353L35.6228 4.83321C35.6215 4.78114 35.6226 4.73081 35.6229 4.68493C35.6236 4.58704 35.6232 4.50712 35.6132 4.43541C35.6036 4.36587 35.5862 4.3178 35.5608 4.2825C35.5392 4.25238 35.5024 4.22125 35.4338 4.1933C35.2281 4.18518 35.0991 4.32708 34.8933 4.59221C34.7067 4.83262 34.4438 5.19434 33.9669 5.18265L33.8052 5.17912L33.775 5.02072C33.7323 4.79571 33.7878 4.59542 33.861 4.42786C33.8973 4.34473 33.9397 4.26566 33.9792 4.19399C34.0202 4.11979 34.0565 4.05571 34.0883 3.99155C34.1525 3.86163 34.177 3.77029 34.1656 3.69141C34.155 3.61943 34.1074 3.51576 33.9288 3.37933L33.928 3.37826C33.7432 3.23558 33.5968 3.19801 33.4752 3.20318C33.3475 3.20865 33.2184 3.26283 33.0702 3.35435C32.9966 3.39975 32.9223 3.45136 32.8436 3.50789C32.7666 3.56323 32.6832 3.62391 32.5993 3.68017C32.4321 3.79225 32.2394 3.90268 32.019 3.9452L31.647 4.01643L31.7971 3.66908C31.9473 3.32142 32.0683 3.04882 32.1223 2.78555C32.1135 2.78847 32.105 2.79211 32.0958 2.79451ZM34.6501 1.21559C35.7184 2.22232 37.384 0.872602 38.2945 2.27551C36.8752 3.89322 36.6626 3.88691 33.8643 2.18168C33.9403 1.66163 34.4992 1.07486 34.6501 1.21559ZM34.5696 1.40893C34.5212 1.43813 34.4537 1.49636 34.3803 1.58119C34.2571 1.72339 34.1464 1.90849 34.0917 2.08463C34.7342 2.47513 35.2282 2.76684 35.6299 2.965C36.0589 3.17656 36.36 3.2701 36.6055 3.27453C36.8396 3.27873 37.0444 3.20256 37.2829 3.01988C37.5016 2.85233 37.7371 2.60325 38.0396 2.26202C37.862 2.0374 37.6629 1.91779 37.4487 1.85414C37.1834 1.77529 36.8856 1.77769 36.5524 1.79566C35.9371 1.82887 35.1739 1.92996 34.5696 1.40893ZM32.3448 2.35756C32.3416 2.36156 32.3389 2.36651 32.3357 2.37052L32.3443 2.33636C32.3451 2.34354 32.3441 2.3504 32.3448 2.35756Z" fill="url(#paint13_linear_309_101)"/>
</g>
<defs>
<linearGradient id="paint0_linear_309_101" x1="19.4288" y1="0" x2="25.9902" y2="50.9648" gradientUnits="userSpaceOnUse">
<stop stop-color="#FFD8F5"/>
<stop offset="1" stop-color="#BFAA90"/>
</linearGradient>
<linearGradient id="paint1_linear_309_101" x1="19.4288" y1="0" x2="25.9902" y2="50.9648" gradientUnits="userSpaceOnUse">
<stop stop-color="#FFD8F5"/>
<stop offset="1" stop-color="#BFAA90"/>
</linearGradient>
<linearGradient id="paint2_linear_309_101" x1="19.4288" y1="0" x2="25.9902" y2="50.9648" gradientUnits="userSpaceOnUse">
<stop stop-color="#FFD8F5"/>
<stop offset="1" stop-color="#BFAA90"/>
</linearGradient>
<linearGradient id="paint3_linear_309_101" x1="19.4288" y1="0" x2="25.9902" y2="50.9648" gradientUnits="userSpaceOnUse">
<stop stop-color="#FFD8F5"/>
<stop offset="1" stop-color="#BFAA90"/>
</linearGradient>
<linearGradient id="paint4_linear_309_101" x1="19.4288" y1="0" x2="25.9902" y2="50.9648" gradientUnits="userSpaceOnUse">
<stop stop-color="#FFD8F5"/>
<stop offset="1" stop-color="#BFAA90"/>
</linearGradient>
<linearGradient id="paint5_linear_309_101" x1="19.4288" y1="0" x2="25.9902" y2="50.9648" gradientUnits="userSpaceOnUse">
<stop stop-color="#FFD8F5"/>
<stop offset="1" stop-color="#BFAA90"/>
</linearGradient>
<linearGradient id="paint6_linear_309_101" x1="19.4288" y1="0" x2="25.9902" y2="50.9648" gradientUnits="userSpaceOnUse">
<stop stop-color="#FFD8F5"/>
<stop offset="1" stop-color="#BFAA90"/>
</linearGradient>
<linearGradient id="paint7_linear_309_101" x1="19.4288" y1="0" x2="25.9902" y2="50.9648" gradientUnits="userSpaceOnUse">
<stop stop-color="#FFD8F5"/>
<stop offset="1" stop-color="#BFAA90"/>
</linearGradient>
<linearGradient id="paint8_linear_309_101" x1="19.4288" y1="0" x2="25.9902" y2="50.9648" gradientUnits="userSpaceOnUse">
<stop stop-color="#FFD8F5"/>
<stop offset="1" stop-color="#BFAA90"/>
</linearGradient>
<linearGradient id="paint9_linear_309_101" x1="19.4288" y1="0" x2="25.9902" y2="50.9648" gradientUnits="userSpaceOnUse">
<stop stop-color="#FFD8F5"/>
<stop offset="1" stop-color="#BFAA90"/>
</linearGradient>
<linearGradient id="paint10_linear_309_101" x1="19.4288" y1="0" x2="25.9902" y2="50.9648" gradientUnits="userSpaceOnUse">
<stop stop-color="#FFD8F5"/>
<stop offset="1" stop-color="#BFAA90"/>
</linearGradient>
<linearGradient id="paint11_linear_309_101" x1="19.4288" y1="0" x2="25.9902" y2="50.9648" gradientUnits="userSpaceOnUse">
<stop stop-color="#FFD8F5"/>
<stop offset="1" stop-color="#BFAA90"/>
</linearGradient>
<linearGradient id="paint12_linear_309_101" x1="19.4288" y1="0" x2="25.9902" y2="50.9648" gradientUnits="userSpaceOnUse">
<stop stop-color="#FFD8F5"/>
<stop offset="1" stop-color="#BFAA90"/>
</linearGradient>
<linearGradient id="paint13_linear_309_101" x1="19.4288" y1="0" x2="25.9902" y2="50.9648" gradientUnits="userSpaceOnUse">
<stop stop-color="#FFD8F5"/>
<stop offset="1" stop-color="#BFAA90"/>
</linearGradient>
</defs>
</svg>
