<svg xmlns="http://www.w3.org/2000/svg" width="1072" height="470" fill="none" viewBox="0 0 1072 470"><path fill="#fff" d="M751.463 409.344v.227q0 .216-.217.217h-30.149v-.499h.072c1.876-.048 3.294-1.235 4.256-2.246q1.514-1.516 1.514-3.899 0-1.733-.793-3.828v-.144l-12.839-31.125v-.144q-.072-.072-.072-.145-.072 0-.144-.072a51.5 51.5 0 0 0-9.521-.866q-14.425 0-25.966 6.86-11.467 6.861-17.022 18.054l-.144.361-.721 1.733q-1.227 3.105-1.227 5.849 0 4.695 3.535 7.294c1.538 1.011 3.486 1.884 5.842 1.98h.216v.837h-30.437v-.557h.216c4.231-.144 8.295-2.212 12.19-5.004q5.841-4.188 8.583-10.399l29.428-71.854q1.154-2.961 1.154-5.561 0-3.827-2.38-6.427c-2.597-1.829-5.194-3.325-7.79-3.325h-.072v-.574h20.989l38.299 93.229q1.732 3.972 5.482 6.644c2.549 1.781 5.097 3.384 7.646 3.384zm-47.027-43.608h5.265q1.803-.36 1.803-1.805 0-.289-.072-.578l-.072-.072-.072-.144-18.97-46.29a20.8 20.8 0 0 0-3.101 5.127l-23.297 56.761-2.813 7.005-.073.072-.432 1.083q.649-1.011 1.37-2.022 9.666-13.287 27.264-17.765l1.299-.288a52.4 52.4 0 0 1 10.025-1.084q.433-.072.938-.072t.938.072M634.986 306.086v1.086h-.073q-3.844 0-6.601 2.749-2.756 2.75-2.756 6.586v82.859q0 3.835 2.756 6.586c1.838 1.785 4.038 3.179 6.601 3.179h.073v.656h-30.974v-.542h.073c2.563 0 4.763-1.508 6.601-3.293q2.756-2.75 2.756-6.586v-82.859q0-2.099-.87-3.836-2.829-5.499-8.487-5.499h-9.793q-2.466 0-5.077.796a21 21 0 0 0-4.788 2.098 25.5 25.5 0 0 0-4.352 3.474 37.7 37.7 0 0 0-3.844 4.486 37 37 0 0 0-3.192 5.573 53 53 0 0 0-2.539 6.368 65 65 0 0 0-1.668 7.019 66.5 66.5 0 0 0-.725 8.829q0 1.593-.218 3.329a65 65 0 0 1-.218 2.967 109 109 0 0 1-.217 3.835 70 70 0 0 0-.29 4.487 178 178 0 0 1-.363 4.849 90 90 0 0 1-.29 4.921q-.146 2.315-.29 4.703-.145 2.026-.291 4.198a76 76 0 0 1-.217 3.401l-.145 2.46q0 .507-.073 1.086v.434l-.072.217q-.726 8.322-4.28 14.401c-2.079 3.474-5.849 6.057-8.351 7.011-2.501.955-3.97.837-5.854.837-1.67 0-5.017-.837-5.017-1.928 0 0 3.525.433 5.732.057 9.284-1.578 12.281-5.77 14.167-9.943.539-1.194 1.306-3.632 1.499-4.501q.87-3.184 1.088-6.657l.073-1.231 3.336-63.031v-.651q.217-4.776 2.829-8.467 2.685-3.69 6.964-5.427 2.756-1.086 5.875-1.086z"/><path fill="#fff" d="M599.588 211.43q-14.78 18.13-26.772 34.867-11.713 16.735-26.772 43.234a2378 2378 0 0 1-30.677 51.881q-15.339 25.383-32.071 48.813-16.454 23.152-35.975 41.003-19.244 17.852-42.39 28.173Q381.785 470 353.06 470q-17.29 0-32.908-3.905-15.617-3.626-28.166-11.715a247 247 0 0 1-25.936 5.3q-12.828 1.952-27.888 1.952-14.502 0-27.609-2.789-13.107-2.51-22.868-8.368-9.76-6.137-15.617-15.62-5.856-9.484-5.857-23.152 0-9.483 3.347-18.688t9.482-16.457q6.414-7.252 15.617-11.715 9.202-4.464 21.195-4.742-10.876.558-19.522 5.3-8.645 4.463-14.78 11.715-5.857 6.973-9.203 16.178-3.068 8.926-3.068 18.13 0 13.11 5.299 22.315 5.577 8.925 15.059 14.504t21.753 8.089q12.27 2.232 26.214 2.232 15.06 0 26.773-1.953a167 167 0 0 0 23.425-6.136q-6.135-6.416-10.318-15.899-3.904-9.484-3.904-21.199 0-11.994 6.135-24.546 6.414-12.831 15.896-23.151 9.76-10.6 21.474-17.015 11.712-6.695 22.589-6.695 11.434 0 19.242 7.253 8.088 7.252 8.088 22.035 0 8.926-3.347 20.362-3.067 11.158-11.155 22.594-7.809 11.157-21.195 21.477-13.107 10.042-33.186 16.736 11.991 6.416 24.541 8.926 12.55 2.79 25.099 2.789 22.868 0 42.39-7.81 19.521-7.81 36.254-21.198 16.732-13.668 31.234-31.52 14.502-18.13 27.609-38.213a906 906 0 0 0 25.378-41.282 1595 1595 0 0 1 24.541-41.003q12.271-20.083 25.099-37.656 12.829-17.573 31.514-36.54-23.984-8.09-43.505-20.362-19.522-12.273-36.255-26.22-16.732-14.225-31.513-28.73-14.502-14.783-29.003-27.893-49.361-49.65-105.974-75.311Q288.919 4.463 228.959 4.463q-28.446 0-56.054 5.578-27.61 5.3-52.708 15.62-24.821 10.321-46.015 25.662Q52.987 66.665 37.37 86.47q-15.338 19.804-23.984 44.071-8.645 24.267-8.645 52.439 0 21.757 7.25 41.003a141.5 141.5 0 0 0 19.522 35.146q12.55 15.899 29.282 28.451a204.3 204.3 0 0 0 35.697 21.477q19.242 8.647 39.322 13.389 20.358 4.463 40.158 4.463 15.897 0 33.187-3.626a194.3 194.3 0 0 0 34.023-10.321 186.4 186.4 0 0 0 31.792-17.014q15.06-10.321 26.493-23.431 11.434-13.11 18.127-29.009 6.694-15.898 6.694-34.587 0-19.246-6.972-35.424t-19.801-27.894q-12.55-11.715-30.119-18.13-17.568-6.695-38.764-6.695-13.107 0-25.935 4.184-12.55 3.906-24.263 10.879-11.712 6.973-22.031 16.457-10.319 9.483-18.127 20.362 8.366-13.668 18.685-24.267 10.318-10.879 22.031-18.131t24.262-11.157q12.55-3.906 25.099-3.905 25.657 0 46.294 7.81t34.86 21.199q14.502 13.11 22.31 30.682 7.809 17.572 7.809 37.377 0 21.478-7.251 38.772-7.251 17.014-19.8 30.403-12.272 13.11-28.725 22.594-16.174 9.204-34.581 15.341-18.406 6.136-37.927 8.926-19.243 2.789-37.37 2.789-38.764 0-71.114-12.273-32.35-12.552-55.775-33.472-23.147-20.919-36.255-48.255Q0 209.756 0 179.911q0-45.745 18.127-79.496 18.406-33.75 49.64-56.065 31.515-22.314 73.067-33.193Q182.386 0 228.959 0q33.465 0 65.536 8.368 32.35 8.368 61.633 22.315 29.282 13.667 54.66 31.24 25.377 17.294 44.899 35.703a5178 5178 0 0 1 32.908 31.519 737 737 0 0 0 34.023 30.404q17.29 14.226 35.417 25.941t37.649 18.688q10.318-9.762 20.358-15.62 10.318-6.136 19.8-9.484t17.849-4.463q8.366-1.395 15.338-1.394 3.626 0 8.087.557 4.463.558 8.088 1.953 3.905 1.395 6.414 4.463 2.51 2.789 2.51 7.252 0 8.09-5.857 13.668-5.856 5.3-14.501 8.647-8.367 3.347-18.127 4.742-9.76 1.394-17.291 1.394-8.645 0-18.127-.837-9.481-.836-20.637-3.626m89.241-25.661q0-1.953-3.904-5.021t-15.617-3.068q-6.693 0-13.665.836-6.693.558-14.502 3.626-7.53 2.79-17.011 8.647-9.204 5.579-20.916 15.899 8.087 1.953 17.011 2.79 8.924.558 15.339.558 8.366 0 17.569-1.395 9.482-1.673 17.29-4.742 8.088-3.068 13.108-7.531 5.298-4.741 5.298-10.599M356.685 372.374q0-13.389-5.298-19.246-5.3-6.137-14.223-6.137-9.76 0-20.079 6.694-10.04 6.416-18.685 16.457-8.367 10.042-13.944 22.036-5.3 11.994-5.299 22.594 0 11.715 3.904 20.64 4.184 8.647 9.761 13.947 12.271-4.463 23.705-12.552 11.434-8.09 20.358-18.13 8.923-10.321 14.223-22.036 5.577-11.994 5.577-24.267M768.812 392.899v-67.406c0-3.852 0-8.889-.453-10.815-.452-2.814-1.658-6.561-5.125-7.45-1.959-.592-8.893-.741-8.893-.741v-.401h31.956c29.695 0 37.383 11.111 37.383 22.222 0 7.851-7.156 15.703-21.476 19.11 27.284 3.259 39.112 16.889 39.112 30.814 0 11.407-6.633 31.555-55.019 31.555h-31.956v-.401s6.934-.148 8.893-.741c3.467-.889 4.673-4.636 5.125-7.45.453-1.926.453-5.482.453-8.296m20.198-44.783v-.698h3.015c9.647 0 18.993-7.407 18.993-19.999 0-11.852-7.989-19.555-24.721-19.555h-4.824v99.553h4.824c16.581 0 42.508-8 42.508-30.814 0-12.741-12.21-27.006-36.78-28.487z"/><path fill="#fff" d="M945.098 409.343v.227q0 .217-.217.217h-30.149v-.499h.072c1.876-.048 3.294-1.234 4.256-2.245q1.514-1.516 1.514-3.9 0-1.733-.793-3.827v-.145l-12.839-31.124v-.145q-.072-.072-.072-.144-.072 0-.144-.072a51.5 51.5 0 0 0-9.521-.867q-14.425 0-25.966 6.86-11.467 6.861-17.022 18.054l-.144.361-.721 1.734q-1.227 3.105-1.227 5.849 0 4.694 3.535 7.294c1.538 1.011 3.486 1.883 5.842 1.98h.216v.836h-30.437v-.557h.216c4.231-.144 8.295-2.211 12.19-5.003q5.841-4.19 8.583-10.399l29.428-71.855q1.154-2.96 1.154-5.56 0-3.828-2.38-6.427c-2.597-1.83-5.194-3.326-7.79-3.326h-.072v-.574h20.989l38.299 93.23q1.731 3.972 5.482 6.644c2.549 1.781 5.097 3.383 7.646 3.383zm-47.027-43.607h5.265q1.803-.361 1.803-1.806 0-.289-.072-.577l-.072-.073-.072-.144-18.97-46.29a20.9 20.9 0 0 0-3.101 5.127l-23.297 56.762-2.813 7.004-.073.073-.432 1.083q.648-1.011 1.37-2.022 9.666-13.288 27.264-17.765l1.299-.289a52.4 52.4 0 0 1 10.025-1.083q.433-.072.938-.072t.938.072M1071.24 272.74c-9.71 6.375-19.96 25.681-30.76 57.918l-17.08 50.637c-10.22 20.067-19.97 31.621-29.237 34.664q-4.161 2.934-12.92 4.781v-2.39q8.322 0 21.127-17.713c7.23-14.416 13.98-33.468 20.26-57.157 5.62-16.444 9.93-27.419 12.92-32.925v-.869h-.77q-23.865 15.321-30 15.322l-.87-.87v-.76c10.43-3.55 23.68-13.221 39.74-29.014 13.43-14.416 22.37-21.624 26.83-21.624z"/></svg>