<svg width="322" height="921" viewBox="0 0 322 921" fill="none" xmlns="http://www.w3.org/2000/svg">
<path d="M129.829 262.331C124.915 295.002 121.738 350.871 128.221 412.133C134.704 473.407 150.836 539.935 184.429 594.035C205.713 628.31 212.348 660.207 210.632 689.545C208.917 718.848 198.876 745.497 186.97 769.308C181.017 781.215 174.586 792.434 168.487 802.922C162.378 813.429 156.618 823.175 151.956 832.21C147.291 841.249 143.783 849.47 142.135 856.903C140.491 864.318 140.722 870.837 143.4 876.576C152.573 896.23 161.042 903.149 167.444 904.445C173.702 905.712 178.797 901.711 181.643 897.226L184.421 898.989C181.235 904.008 174.98 909.327 166.791 907.67C158.745 906.041 149.669 897.789 140.419 877.968C137.34 871.37 137.178 864.061 138.922 856.192C140.662 848.343 144.325 839.824 149.032 830.701C153.742 821.573 159.557 811.735 165.643 801.269C171.739 790.786 178.124 779.644 184.028 767.838C195.835 744.222 205.669 718.029 207.347 689.352C209.023 660.708 202.569 629.482 181.634 595.769C147.679 541.087 131.46 474.014 124.949 412.48C118.437 350.934 121.621 294.785 126.576 261.843L129.829 262.331Z" fill="#D8E0FF"/>
<path d="M117.802 261.041L108.112 277.378C116.468 276.778 133.269 276.79 133.616 281.631C133.964 286.472 145.863 278.725 151.769 274.246L132.066 260.018C162.63 243.922 213.78 205.927 205.097 84.8973C199.758 10.4883 57.1369 -21.3627 38.5535 89.0255C18.2336 209.729 91.7081 250.603 117.802 261.041Z" fill="#D7EEFF"/>
</svg>
