<svg width="277" height="792" viewBox="0 0 277 792" fill="none" xmlns="http://www.w3.org/2000/svg">
<g opacity="0.51">
<path d="M164.581 225.41C168.807 253.51 171.54 301.562 165.964 354.253C160.388 406.955 146.513 464.176 117.619 510.706C99.3136 540.186 93.6065 567.62 95.0829 592.854C96.5577 618.057 105.194 640.978 115.434 661.458C120.554 671.699 126.086 681.348 131.331 690.369C136.586 699.406 141.54 707.789 145.55 715.559C149.562 723.334 152.579 730.404 153.997 736.798C155.411 743.176 155.211 748.782 152.908 753.718C145.019 770.623 137.735 776.574 132.228 777.689C126.846 778.778 122.464 775.337 120.016 771.48L117.627 772.996C120.366 777.313 125.747 781.888 132.79 780.462C139.71 779.061 147.516 771.964 155.472 754.915C158.12 749.241 158.26 742.954 156.76 736.186C155.263 729.435 152.113 722.108 148.064 714.261C144.013 706.411 139.012 697.948 133.778 688.947C128.535 679.93 123.042 670.348 117.965 660.193C107.809 639.881 99.351 617.353 97.9078 592.688C96.4664 568.051 102.018 541.194 120.023 512.198C149.228 465.166 163.178 407.477 168.778 354.552C174.379 301.616 171.641 253.323 167.379 224.99L164.581 225.41Z" fill="#BCD0E9"/>
<path d="M174.928 224.522L183.262 238.573C176.074 238.057 161.624 238.067 161.325 242.231C161.027 246.395 150.792 239.731 145.712 235.879L162.659 223.641C136.371 209.797 92.3774 177.118 99.8456 73.021C104.437 9.02216 227.105 -18.3727 243.088 76.5716C260.565 180.388 197.37 215.544 174.928 224.522Z" fill="#BCD0E9"/>
</g>
</svg>
