<svg width="378" height="898" viewBox="0 0 378 898" fill="none" xmlns="http://www.w3.org/2000/svg">
<g opacity="0.25">
<path d="M175.875 373.516C173.05 389.83 170.778 417.188 173.188 446.028C175.602 474.918 182.687 504.95 198.301 526.899C218.27 554.97 239.202 584.019 252.646 611.893C266.072 639.729 272.347 667.03 262.1 691.356C242.234 738.516 200.32 804.667 249.886 877.112L245.567 880.068C194.016 804.721 237.939 735.23 257.276 689.326C266.63 667.12 261.16 641.592 247.932 614.166C234.723 586.778 214.094 558.129 194.035 529.932C177.627 506.865 170.418 475.736 167.972 446.464C165.522 417.142 167.824 389.335 170.718 372.622L175.875 373.516Z" fill="url(#paint0_linear_622_68)"/>
<path d="M21.3086 147.288C15.5611 291.505 111.804 350.209 155.125 368.96C152.575 378.594 146.294 380.842 143.629 385.202C145.793 389.116 156.944 390.296 162.249 390.396C165.536 387.267 174.798 382.2 185.551 386.965C196.305 391.731 200.92 382.057 201.884 376.625C197.867 374.792 188.328 369.892 182.311 364.958C268.507 312.594 296.912 204.587 261.312 102.035C225.713 -0.515806 28.493 -32.9837 21.3086 147.288Z" fill="url(#paint1_radial_622_68)"/>
</g>
<defs>
<linearGradient id="paint0_linear_622_68" x1="190.229" y1="369.75" x2="298.522" y2="774.569" gradientUnits="userSpaceOnUse">
<stop stop-color="#71A5C4"/>
<stop offset="1" stop-color="#D7DFFF"/>
</linearGradient>
<radialGradient id="paint1_radial_622_68" cx="0" cy="0" r="1" gradientUnits="userSpaceOnUse" gradientTransform="translate(211.022 145.069) rotate(100.222) scale(154.96 104.806)">
<stop stop-color="#9490D2"/>
<stop offset="1" stop-color="#6398B8"/>
</radialGradient>
</defs>
</svg>
