<svg xmlns="http://www.w3.org/2000/svg" width="322" height="921" fill="none" viewBox="0 0 322 921"><path fill="#d8e0ff" d="M129.829 262.331c-4.914 32.671-8.091 88.54-1.608 149.802 6.483 61.274 22.615 127.802 56.208 181.902 21.284 34.275 27.919 66.172 26.203 95.51-1.715 29.303-11.756 55.952-23.662 79.763-5.953 11.907-12.384 23.126-18.483 33.614-6.109 10.507-11.869 20.253-16.531 29.288-4.665 9.039-8.173 17.26-9.821 24.693-1.644 7.415-1.413 13.934 1.265 19.673 9.173 19.654 17.642 26.573 24.044 27.869 6.258 1.267 11.353-2.734 14.199-7.219l2.778 1.763c-3.186 5.019-9.441 10.338-17.63 8.681-8.046-1.629-17.122-9.881-26.372-29.702-3.079-6.598-3.241-13.907-1.497-21.776 1.74-7.849 5.403-16.368 10.11-25.491 4.71-9.128 10.525-18.966 16.611-29.432 6.096-10.483 12.481-21.625 18.385-33.431 11.807-23.616 21.641-49.809 23.319-78.486 1.676-28.644-4.778-59.87-25.713-93.583-33.955-54.682-50.174-121.755-56.685-183.289-6.512-61.546-3.328-117.695 1.627-150.637z"/><path fill="#d7eeff" d="m117.802 261.041-9.69 16.337c8.356-.6 25.157-.588 25.504 4.253s12.247-2.906 18.153-7.385l-19.703-14.228c30.564-16.096 81.714-54.091 73.031-175.12-5.339-74.41-147.96-106.26-166.543 4.127-20.32 120.704 53.154 161.578 79.248 172.016"/></svg>