<svg width="322" height="920" viewBox="0 0 322 920" fill="none" xmlns="http://www.w3.org/2000/svg">
<g opacity="0.51">
<path d="M129.794 262.073C124.88 294.744 121.703 350.612 128.185 411.874C134.669 473.149 150.8 539.677 184.394 593.776C205.678 628.051 212.313 659.948 210.596 689.286C208.882 718.59 198.841 745.239 186.935 769.05C180.982 780.956 174.551 792.175 168.452 802.664C162.342 813.17 156.583 822.917 151.921 831.951C147.256 840.99 143.748 849.211 142.099 856.645C140.456 864.06 140.687 870.578 143.365 876.317C152.537 895.972 161.007 902.891 167.409 904.187C173.667 905.453 178.762 901.452 181.608 896.968L184.385 898.73C181.2 903.75 174.945 909.069 166.755 907.411C158.71 905.782 149.634 897.531 140.384 877.709C137.305 871.111 137.143 863.802 138.887 855.934C140.627 848.084 144.289 839.565 148.997 830.442C153.707 821.315 159.522 811.476 165.607 801.01C171.703 790.527 178.089 779.386 183.992 767.579C195.8 743.964 205.634 717.771 207.312 689.093C208.988 660.449 202.534 629.224 181.599 595.511C147.643 540.829 131.425 473.756 124.914 412.221C118.402 350.675 121.586 294.526 126.541 261.584L129.794 262.073Z" fill="#BCD0E9"/>
<path d="M117.766 261.043L108.076 277.379C116.433 276.779 133.234 276.791 133.581 281.632C133.929 286.474 145.828 278.726 151.734 274.247L132.031 260.019C162.595 243.923 213.744 205.928 205.061 84.8984C199.723 10.4893 57.1017 -21.3616 38.5184 89.0266C18.1985 209.73 91.673 250.604 117.766 261.043Z" fill="#BCD0E9"/>
</g>
</svg>
