<svg xmlns="http://www.w3.org/2000/svg" width="322" height="920" fill="none" viewBox="0 0 322 920"><g fill="#bcd0e9" opacity=".51"><path d="M129.794 262.073c-4.914 32.671-8.091 88.539-1.609 149.801 6.484 61.275 22.615 127.803 56.209 181.902 21.284 34.275 27.919 66.172 26.202 95.51-1.714 29.304-11.755 55.953-23.661 79.764-5.953 11.906-12.384 23.125-18.483 33.614-6.11 10.506-11.869 20.253-16.531 29.287-4.665 9.039-8.173 17.26-9.822 24.694-1.643 7.415-1.412 13.933 1.266 19.672 9.172 19.655 17.642 26.574 24.044 27.87 6.258 1.266 11.353-2.735 14.199-7.219l2.777 1.762c-3.185 5.02-9.44 10.339-17.63 8.681-8.045-1.629-17.121-9.88-26.371-29.702-3.079-6.598-3.241-13.907-1.497-21.775 1.74-7.85 5.402-16.369 10.11-25.492 4.71-9.127 10.525-18.966 16.61-29.432 6.096-10.483 12.482-21.624 18.385-33.431 11.808-23.615 21.642-49.808 23.32-78.486 1.676-28.644-4.778-59.869-25.713-93.582-33.956-54.682-50.174-121.755-56.685-183.29-6.512-61.546-3.328-117.695 1.627-150.637z"/><path d="m117.766 261.043-9.69 16.336c8.357-.6 25.158-.588 25.505 4.253.348 4.842 12.247-2.906 18.153-7.385l-19.703-14.228c30.564-16.096 81.713-54.091 73.03-175.12-5.338-74.41-147.96-106.26-166.543 4.128-20.32 120.703 53.155 161.577 79.248 172.016"/></g></svg>