<svg xmlns="http://www.w3.org/2000/svg" width="378" height="898" fill="none" viewBox="0 0 378 898"><g opacity=".25"><path fill="url(#a)" d="M175.875 373.516c-2.825 16.314-5.097 43.672-2.687 72.512 2.414 28.89 9.499 58.922 25.113 80.871 19.969 28.071 40.901 57.12 54.345 84.994 13.426 27.836 19.701 55.137 9.454 79.463-19.866 47.16-61.78 113.311-12.214 185.756l-4.319 2.956c-51.551-75.347-7.628-144.838 11.709-190.742 9.354-22.206 3.884-47.734-9.344-75.16-13.209-27.388-33.838-56.037-53.897-84.234-16.408-23.067-23.617-54.196-26.063-83.468-2.45-29.322-.148-57.129 2.746-73.842z"/><path fill="url(#b)" d="M21.309 147.288C15.56 291.505 111.804 350.209 155.125 368.96c-2.55 9.634-8.831 11.882-11.496 16.242 2.164 3.914 13.315 5.094 18.62 5.194 3.287-3.129 12.549-8.196 23.302-3.431 10.754 4.766 15.369-4.908 16.333-10.34-4.017-1.833-13.556-6.733-19.573-11.667 86.196-52.364 114.601-160.371 79.001-262.923C225.713-.515 28.493-32.984 21.309 147.288"/></g><defs><radialGradient id="b" cx="0" cy="0" r="1" gradientTransform="rotate(100.222 44.886 160.721)scale(154.96 104.806)" gradientUnits="userSpaceOnUse"><stop stop-color="#9490d2"/><stop offset="1" stop-color="#6398b8"/></radialGradient><linearGradient id="a" x1="190.229" x2="298.522" y1="369.75" y2="774.569" gradientUnits="userSpaceOnUse"><stop stop-color="#71a5c4"/><stop offset="1" stop-color="#d7dfff"/></linearGradient></defs></svg>