<svg width="262" height="896" viewBox="0 0 262 896" fill="none" xmlns="http://www.w3.org/2000/svg">
<g opacity="0.46">
<path d="M128.604 368.956C123.283 385.14 116.869 412.651 115 442.372C113.127 472.145 115.838 503.779 128.443 528.464C144.565 560.035 161.52 592.744 171.029 623.136C180.524 653.486 182.82 682.22 168.742 705.448C141.45 750.48 88.8651 811.541 128.466 892.722L123.626 895.083C82.4391 810.651 137.57 746.492 164.136 702.658C176.987 681.455 175.244 654.646 165.889 624.743C156.547 594.882 139.84 562.625 123.647 530.913C110.4 504.971 107.727 472.201 109.625 442.034C111.525 411.816 118.037 383.853 123.488 367.273L128.604 368.956Z" fill="url(#paint0_linear_622_65)"/>
<path d="M5.15991 115.482C-22.3076 261.437 66.8708 335.625 108.162 361.207C104.122 370.632 97.3907 371.979 94.0246 376.018C95.6403 380.327 106.816 383.199 112.202 384.097C116.017 381.404 126.205 377.634 136.438 384.097C146.671 390.56 152.819 381.404 154.615 376.018C150.8 373.55 141.823 367.132 136.438 361.207C232.036 320.819 277.142 215.123 256.272 105.388C235.402 -4.34754 39.4943 -66.9615 5.15991 115.482Z" fill="url(#paint1_radial_622_65)"/>
</g>
<defs>
<linearGradient id="paint0_linear_622_65" x1="143.781" y1="367.273" x2="143.781" y2="895.083" gradientUnits="userSpaceOnUse">
<stop stop-color="#649ABA"/>
<stop offset="1" stop-color="#CED8FF"/>
</linearGradient>
<radialGradient id="paint1_radial_622_65" cx="0" cy="0" r="1" gradientUnits="userSpaceOnUse" gradientTransform="translate(130.487 152) rotate(87.1864) scale(234.282 158.456)">
<stop stop-color="#659FCF"/>
<stop offset="1" stop-color="#B7D2E7"/>
</radialGradient>
</defs>
</svg>
