<svg xmlns="http://www.w3.org/2000/svg" width="142" height="461" fill="none" viewBox="0 0 142 461"><g fill="#c4cdde" opacity=".21"><path d="M71.983 190.023c2.886 8.335 6.366 22.504 7.38 37.812 1.016 15.333-.455 31.626-7.293 44.34-8.746 16.26-17.945 33.106-23.104 48.759-5.151 15.632-6.397 30.43 1.24 42.394 14.807 23.193 43.336 54.641 21.852 96.452l2.625 1.216c22.345-43.485-7.565-76.53-21.978-99.105-6.971-10.921-6.026-24.728-.95-40.129 5.068-15.38 14.132-31.993 22.917-48.326 7.186-13.361 8.637-30.239 7.607-45.776-1.03-15.563-4.563-29.965-7.52-38.504z"/><path d="M138.955 59.477c14.901 75.172-33.48 113.381-55.881 126.557 2.191 4.854 5.843 5.548 7.67 7.628-.877 2.219-6.94 3.699-9.862 4.161-2.07-1.387-7.597-3.329-13.149 0-5.551 3.328-8.887-1.387-9.861-4.161 2.07-1.271 6.94-4.577 9.861-7.628C15.87 165.232-8.602 110.796 2.72 54.278c11.323-56.517 117.607-88.765 136.235 5.2"/></g></svg>