<svg xmlns="http://www.w3.org/2000/svg" width="1941" height="700" fill="none" viewBox="0 0 1941 700"><path fill="url(#a)" d="M1542.86 276.217c-3.4.291-14.69 13.818-10.76 49.283-33.47-23.151-78.07 18.097-63 79-65.77-25.438-125.44-6.572-119 49.5-31.06-44.25-106.63-29.348-109.94 21.695-61.61-47.352-112.2-11.402-124.56 30.305-35.39-31.905-97.08-22.24-109.25 13.321-23.246-25.321-63.142-26.694-80.582 14.217-11.109-41.404-75.44-44.104-102.509-10.832-22.049-35.838-62.322-52.32-99.647-11.105-8.797-34.786-37.839-34.787-61.835-15.679-14.397-43.194-67.065-58.143-100.784-19.108-2.706-50.685-65.711-55.118-92.565-39.035 2.326-47.505-47.472-49.085-76.888-28.204 11.203-36.151-28.667-72.601-66.055-60.459-4.536-44.331-23.156-68.788-64.928-73.215 14.207-47.294-25.663-79.803-64.928-70.103 8.747-32.851-18.326-70.287-55.257-57.544 6.906-27.028-53.274-87.231-91.54-36.879C48.832 78.865 0 71.519 0 95.83V700h1941V10.339c-22.76-22.329-80.2-5.259-95.14 20.543-34.86-10.633-43.81 24.317-39.29 35.176-53.26-12.215-76.29 17.733-66.08 50.307-13.66-18.782-39.75-10.408-39.75 12.743-58.34 2.043-81.7 31.524-79.34 60.78-31.41-8.568-98.09 27.702-78.54 86.329"/><defs><radialGradient id="a" cx="0" cy="0" r="1" gradientTransform="matrix(0 640 -2373.6 0 971 101)" gradientUnits="userSpaceOnUse"><stop offset=".137" stop-color="#fff"/><stop offset="1" stop-color="#c2ddf5"/></radialGradient></defs></svg>