<svg width="2117" height="171" viewBox="0 0 2117 171" fill="none" xmlns="http://www.w3.org/2000/svg">
<g opacity="0.51">
<path d="M63.8355 108.658C58.8756 100.881 54.075 93.072 49.4236 85.2197C40.4098 87.1929 31.3031 89.0178 22.0934 90.6846C31.5174 70.9803 40.8609 51.2476 50.1034 31.4668C62.8482 37.3336 75.7166 42.8679 88.7184 48.0497C80.5146 68.2806 72.2204 88.4833 63.8254 108.648L63.8355 108.658Z" fill="#C8DCEC"/>
<path d="M129.808 133.166C124.246 125.822 118.844 118.424 113.6 110.973C104.79 113.672 95.8672 116.224 86.8418 118.637C94.6523 98.2437 102.372 77.812 109.991 57.3522C123.136 62.1711 136.394 66.6478 149.766 70.7722C143.214 91.6016 136.561 112.393 129.808 133.166Z" fill="#76A5C6"/>
<path d="M197.498 152.323C191.375 145.439 185.391 138.492 179.566 131.493C170.999 134.877 162.31 138.145 153.508 141.264C159.668 120.312 165.727 99.3319 171.695 78.3236C185.179 82.0759 198.767 85.476 212.428 88.5347C207.545 109.812 202.572 131.081 197.498 152.323Z" fill="#ECF4FF"/>
<path d="M266.792 163.857C260.139 157.483 253.634 151.037 247.278 144.518C239.014 148.577 230.618 152.518 222.11 156.332C226.581 134.952 230.952 113.555 235.232 92.1488C248.966 94.816 262.763 97.122 276.623 99.0867C273.446 120.692 270.169 142.278 266.802 163.857L266.792 163.857Z" fill="#C8DCEC"/>
<path d="M643.507 109.927C648.63 102.217 653.593 94.4603 658.404 86.6667C667.366 88.7853 676.436 90.7518 685.602 92.5664C676.214 71.8726 666.885 51.1676 657.616 30.4315C644.75 36.4892 631.737 42.1997 618.597 47.5625C626.838 68.3784 635.138 89.1631 643.507 109.927Z" fill="#C8DCEC"/>
<path d="M577.086 133.444C582.797 126.173 588.348 118.845 593.747 111.47C602.493 114.303 611.347 117.004 620.317 119.563C612.621 98.4262 604.984 77.2687 597.407 56.09C584.524 61.2879 571.505 66.1584 558.359 70.6912C564.552 91.6264 570.794 112.551 577.086 133.454L577.086 133.444Z" fill="#76A5C6"/>
<path d="M509.1 151.56C515.361 144.768 521.481 137.91 527.439 130.984C535.928 134.512 544.525 137.908 553.239 141.172C547.623 119.525 542.037 97.8685 536.491 76.2109C522.917 80.3318 509.217 84.0951 495.43 87.5C499.94 108.857 504.49 130.214 509.1 151.56Z" fill="#ECF4FF"/>
<path d="M439.729 162.031C446.5 155.76 453.119 149.402 459.597 142.977C467.759 147.161 476.048 151.243 484.456 155.193C480.453 133.725 476.501 112.257 472.599 90.778C458.843 93.2321 445.031 95.3372 431.172 97.0932C433.968 118.744 436.813 140.393 439.719 162.031L439.729 162.031Z" fill="#C8DCEC"/>
<path d="M342.431 166.738C334.945 161.291 327.598 155.751 320.388 150.128C312.795 155.234 305.07 160.243 297.212 165.155C298.545 143.365 299.877 121.576 301.21 99.7861C315.159 100.639 329.121 101.121 343.086 101.264C342.874 123.092 342.663 144.92 342.441 166.748L342.431 166.738Z" fill="#ECF4FF"/>
<path d="M410.539 165.462C402.645 160.612 394.888 155.65 387.26 150.595C380.077 156.274 372.763 161.865 365.297 167.359C364.949 145.532 364.6 123.705 364.252 101.877C378.22 101.65 392.191 101.072 406.136 100.124C407.604 121.91 409.071 143.686 410.529 165.472L410.539 165.462Z" fill="#76A5C6"/>
<path d="M2.49995 2.51674C2.89231 1.76797 37.1647 26.456 99.9058 51.6237C162.217 76.7201 253.007 102.306 356.32 101.501C458.989 101.965 548.599 76.8268 610.076 52.3903C671.963 27.8551 705.729 4.02126 706.106 4.73245" stroke="#A5C0D3" stroke-width="5" stroke-linecap="round" stroke-linejoin="round"/>
<path d="M767.836 109.656C762.876 101.879 758.075 94.07 753.424 86.2178C744.41 88.1909 735.303 90.0158 726.093 91.6826C735.517 71.9784 744.861 52.2457 754.103 32.4649C766.848 38.3316 779.717 43.866 792.718 49.0477C784.515 69.2787 776.22 89.4814 767.825 109.646L767.836 109.656Z" fill="#C8DCEC"/>
<path d="M833.808 134.166C828.246 126.822 822.844 119.424 817.6 111.973C808.79 114.672 799.867 117.224 790.842 119.637C798.652 99.2437 806.372 78.812 813.991 58.3522C827.136 63.1711 840.394 67.6478 853.766 71.7722C847.214 92.6016 840.561 113.393 833.808 134.166Z" fill="#76A5C6"/>
<path d="M901.498 153.321C895.375 146.437 889.391 139.49 883.566 132.491C874.999 135.875 866.31 139.143 857.508 142.262C863.668 121.31 869.727 100.33 875.695 79.3217C889.179 83.0739 902.767 86.4741 916.428 89.5328C911.545 110.81 906.572 132.079 901.498 153.321Z" fill="#ECF4FF"/>
<path d="M970.792 164.855C964.139 158.481 957.634 152.035 951.278 145.516C943.014 149.575 934.618 153.516 926.11 157.33C930.581 135.951 934.952 114.553 939.232 93.1468C952.966 95.814 966.763 98.12 980.623 100.085C977.446 121.69 974.169 143.276 970.802 164.855L970.792 164.855Z" fill="#C8DCEC"/>
<path d="M1347.51 110.925C1352.63 103.215 1357.59 95.4584 1362.4 87.6647C1371.37 89.7833 1380.44 91.7498 1389.6 93.5645C1380.21 72.8706 1370.89 52.1656 1361.62 31.4295C1348.75 37.4872 1335.74 43.1977 1322.6 48.5606C1330.84 69.3765 1339.14 90.1612 1347.51 110.925Z" fill="#C8DCEC"/>
<path d="M1281.09 134.442C1286.8 127.171 1292.35 119.843 1297.75 112.468C1306.49 115.301 1315.35 118.002 1324.32 120.561C1316.62 99.4242 1308.98 78.2667 1301.41 57.0881C1288.52 62.286 1275.5 67.1564 1262.36 71.6893C1268.55 92.6244 1274.79 113.549 1281.09 134.452L1281.09 134.442Z" fill="#76A5C6"/>
<path d="M1213.1 152.558C1219.36 145.767 1225.48 138.908 1231.44 131.982C1239.93 135.51 1248.53 138.906 1257.24 142.17C1251.62 120.523 1246.04 98.8666 1240.49 77.2089C1226.92 81.3299 1213.22 85.0932 1199.43 88.4981C1203.94 109.856 1208.49 131.212 1213.1 152.558Z" fill="#ECF4FF"/>
<path d="M1143.73 163.029C1150.5 156.758 1157.12 150.4 1163.6 143.975C1171.76 148.159 1180.05 152.241 1188.46 156.191C1184.45 134.723 1180.5 113.255 1176.6 91.776C1162.84 94.2301 1149.03 96.3353 1135.17 98.0912C1137.97 119.742 1140.81 141.391 1143.72 163.029L1143.73 163.029Z" fill="#C8DCEC"/>
<path d="M1046.43 167.736C1038.95 162.289 1031.6 156.749 1024.39 151.126C1016.79 156.232 1009.07 161.241 1001.21 166.153C1002.54 144.363 1003.88 122.574 1005.21 100.784C1019.16 101.637 1033.12 102.119 1047.09 102.262C1046.87 124.09 1046.66 145.918 1046.44 167.746L1046.43 167.736Z" fill="#ECF4FF"/>
<path d="M1114.54 166.46C1106.64 161.61 1098.89 156.648 1091.26 151.593C1084.08 157.272 1076.76 162.863 1069.3 168.357C1068.95 146.53 1068.6 124.703 1068.25 102.875C1082.22 102.648 1096.19 102.07 1110.14 101.122C1111.6 122.908 1113.07 144.684 1114.53 166.47L1114.54 166.46Z" fill="#76A5C6"/>
<path d="M706.5 3.51674C706.892 2.76797 741.165 27.456 803.906 52.6237C866.217 77.7201 957.007 103.306 1060.32 102.501C1162.99 102.965 1252.6 77.8268 1314.08 53.3903C1375.96 28.8551 1409.73 5.02126 1410.11 5.73245" stroke="#A5C0D3" stroke-width="5" stroke-linecap="round" stroke-linejoin="round"/>
<path d="M1471.83 110.656C1466.87 102.879 1462.07 95.07 1457.42 87.2178C1448.4 89.1909 1439.3 91.0158 1430.09 92.6826C1439.51 72.9784 1448.86 53.2457 1458.1 33.4649C1470.84 39.3316 1483.71 44.866 1496.71 50.0477C1488.51 70.2787 1480.21 90.4814 1471.82 110.646L1471.83 110.656Z" fill="#C8DCEC"/>
<path d="M1537.8 135.166C1532.24 127.822 1526.84 120.424 1521.59 112.973C1512.78 115.672 1503.86 118.224 1494.84 120.637C1502.65 100.244 1510.37 79.812 1517.99 59.3522C1531.13 64.1711 1544.39 68.6478 1557.76 72.7722C1551.21 93.6016 1544.56 114.393 1537.8 135.166Z" fill="#76A5C6"/>
<path d="M1605.49 154.321C1599.37 147.437 1593.39 140.49 1587.56 133.491C1578.99 136.875 1570.3 140.143 1561.5 143.262C1567.66 122.31 1573.72 101.33 1579.69 80.3217C1593.17 84.0739 1606.76 87.4741 1620.42 90.5328C1615.54 111.81 1610.57 133.079 1605.49 154.321Z" fill="#ECF4FF"/>
<path d="M1674.79 165.855C1668.13 159.481 1661.63 153.035 1655.27 146.516C1647.01 150.575 1638.61 154.516 1630.1 158.33C1634.58 136.951 1638.95 115.553 1643.23 94.1468C1656.96 96.814 1670.76 99.12 1684.62 101.085C1681.44 122.69 1678.16 144.276 1674.8 165.855L1674.79 165.855Z" fill="#C8DCEC"/>
<path d="M2051.5 111.925C2056.62 104.215 2061.59 96.4584 2066.4 88.6647C2075.36 90.7833 2084.43 92.7498 2093.6 94.5645C2084.21 73.8706 2074.88 53.1656 2065.61 32.4295C2052.74 38.4872 2039.73 44.1977 2026.59 49.5606C2034.83 70.3765 2043.13 91.1612 2051.5 111.925Z" fill="#C8DCEC"/>
<path d="M1985.08 135.442C1990.79 128.171 1996.34 120.843 2001.74 113.468C2010.49 116.301 2019.34 119.002 2028.31 121.561C2020.61 100.424 2012.98 79.2667 2005.4 58.0881C1992.52 63.286 1979.5 68.1564 1966.35 72.6893C1972.55 93.6244 1978.79 114.549 1985.08 135.452L1985.08 135.442Z" fill="#76A5C6"/>
<path d="M1917.09 153.558C1923.36 146.767 1929.47 139.908 1935.43 132.982C1943.92 136.51 1952.52 139.906 1961.23 143.17C1955.62 121.523 1950.03 99.8666 1944.49 78.2089C1930.91 82.3299 1917.21 86.0932 1903.42 89.4981C1907.93 110.856 1912.48 132.212 1917.09 153.558Z" fill="#ECF4FF"/>
<path d="M1847.72 164.029C1854.49 157.758 1861.11 151.4 1867.59 144.975C1875.75 149.159 1884.04 153.241 1892.45 157.191C1888.45 135.723 1884.5 114.255 1880.59 92.776C1866.84 95.2301 1853.03 97.3353 1839.17 99.0912C1841.96 120.742 1844.81 142.391 1847.71 164.029L1847.72 164.029Z" fill="#C8DCEC"/>
<path d="M1750.43 168.736C1742.94 163.289 1735.59 157.749 1728.38 152.126C1720.79 157.232 1713.06 162.241 1705.21 167.153C1706.54 145.363 1707.87 123.574 1709.2 101.784C1723.15 102.637 1737.11 103.119 1751.08 103.262C1750.87 125.09 1750.66 146.918 1750.44 168.746L1750.43 168.736Z" fill="#ECF4FF"/>
<path d="M1818.53 167.46C1810.64 162.61 1802.88 157.648 1795.25 152.593C1788.07 158.272 1780.76 163.863 1773.29 169.357C1772.94 147.53 1772.59 125.703 1772.25 103.875C1786.21 103.648 1800.19 103.07 1814.13 102.122C1815.6 123.908 1817.07 145.684 1818.52 167.47L1818.53 167.46Z" fill="#76A5C6"/>
<path d="M1410.49 4.51674C1410.89 3.76797 1445.16 28.456 1507.9 53.6237C1570.21 78.7201 1661 104.306 1764.31 103.501C1866.98 103.965 1956.59 78.8268 2018.07 54.3903C2079.96 29.8551 2113.72 6.02126 2114.1 6.73245" stroke="#A5C0D3" stroke-width="5" stroke-linecap="round" stroke-linejoin="round"/>
</g>
</svg>
