<svg xmlns="http://www.w3.org/2000/svg" width="2117" height="171" fill="none" viewBox="0 0 2117 171"><g opacity=".51"><path fill="#c8dcec" d="M63.836 108.658A835 835 0 0 1 49.424 85.22a764 764 0 0 1-27.33 5.465 7269 7269 0 0 0 28.01-59.218A806 806 0 0 0 88.717 48.05a7082 7082 0 0 1-24.893 60.598z"/><path fill="#76a5c6" d="M129.808 133.166a787 787 0 0 1-16.208-22.193 773 773 0 0 1-26.758 7.664 7060 7060 0 0 0 23.149-61.285 804 804 0 0 0 39.775 13.42 6857 6857 0 0 1-19.958 62.394"/><path fill="#ecf4ff" d="M197.498 152.323a837 837 0 0 1-17.932-20.83 781 781 0 0 1-26.058 9.771 7151 7151 0 0 0 18.187-62.94 821 821 0 0 0 40.733 10.21 7374 7374 0 0 1-14.93 63.789"/><path fill="#c8dcec" d="M266.792 163.857a806 806 0 0 1-19.514-19.339c-8.264 4.059-16.66 8-25.168 11.814a7436 7436 0 0 0 13.122-64.183 823 823 0 0 0 41.391 6.938 7459 7459 0 0 1-9.821 64.77zM643.507 109.927a826 826 0 0 0 14.897-23.26 759 759 0 0 0 27.198 5.9 12298 12298 0 0 1-27.986-62.135 811 811 0 0 1-39.019 17.13c8.241 20.816 16.541 41.601 24.91 62.365"/><path fill="#76a5c6" d="M577.086 133.444a814 814 0 0 0 16.661-21.974 786 786 0 0 0 26.57 8.093 12032 12032 0 0 1-22.91-63.473 810 810 0 0 1-39.048 14.601c6.193 20.935 12.435 41.86 18.727 62.763z"/><path fill="#ecf4ff" d="M509.1 151.56a803 803 0 0 0 18.339-20.576 782 782 0 0 0 25.8 10.188 21300 21300 0 0 1-16.748-64.961A810 810 0 0 1 495.43 87.5c4.51 21.357 9.06 42.714 13.67 64.06"/><path fill="#c8dcec" d="M439.729 162.031a805 805 0 0 0 19.868-19.054 803 803 0 0 0 24.859 12.216 14113 14113 0 0 1-11.857-64.415 830 830 0 0 1-41.427 6.315c2.796 21.651 5.641 43.3 8.547 64.938z"/><path fill="#ecf4ff" d="M342.431 166.738a828 828 0 0 1-22.043-16.61 829 829 0 0 1-23.176 15.027l3.998-65.369a824 824 0 0 0 41.876 1.478c-.212 21.828-.423 43.656-.645 65.484z"/><path fill="#76a5c6" d="M410.539 165.462a805 805 0 0 1-23.279-14.867 798 798 0 0 1-21.963 16.764l-1.045-65.482a812 812 0 0 0 41.884-1.753c1.468 21.786 2.935 43.562 4.393 65.348z"/><path stroke="#a5c0d3" stroke-linecap="round" stroke-linejoin="round" stroke-width="5" d="M2.5 2.517c.392-.749 34.665 23.939 97.406 49.107C162.217 76.72 253.007 102.306 356.32 101.5c102.669.464 192.279-24.674 253.756-49.11 61.887-24.536 95.653-48.37 96.03-47.659"/><path fill="#c8dcec" d="M767.836 109.656a834 834 0 0 1-14.412-23.438 764 764 0 0 1-27.331 5.465 7251 7251 0 0 0 28.01-59.218 806 806 0 0 0 38.615 16.583 7053 7053 0 0 1-24.893 60.598z"/><path fill="#76a5c6" d="M833.808 134.166a787 787 0 0 1-16.208-22.193 773 773 0 0 1-26.758 7.664 7076 7076 0 0 0 23.149-61.285 804 804 0 0 0 39.775 13.42 6857 6857 0 0 1-19.958 62.394"/><path fill="#ecf4ff" d="M901.498 153.321a837 837 0 0 1-17.932-20.83 781 781 0 0 1-26.058 9.771 7151 7151 0 0 0 18.187-62.94 821 821 0 0 0 40.733 10.21 7375 7375 0 0 1-14.93 63.789"/><path fill="#c8dcec" d="M970.792 164.855a806 806 0 0 1-19.514-19.339c-8.264 4.059-16.66 8-25.168 11.814a7429 7429 0 0 0 13.122-64.183 823 823 0 0 0 41.391 6.938 7460 7460 0 0 1-9.821 64.77zM1347.51 110.925a830 830 0 0 0 14.89-23.26 766 766 0 0 0 27.2 5.9c-9.39-20.694-18.71-41.4-27.98-62.135a813 813 0 0 1-39.02 17.13c8.24 20.816 16.54 41.601 24.91 62.365"/><path fill="#76a5c6" d="M1281.09 134.442a818 818 0 0 0 16.66-21.974c8.74 2.833 17.6 5.534 26.57 8.093-7.7-21.137-15.34-42.294-22.91-63.473a816 816 0 0 1-39.05 14.601c6.19 20.935 12.43 41.86 18.73 62.763z"/><path fill="#ecf4ff" d="M1213.1 152.558a807 807 0 0 0 18.34-20.576 786 786 0 0 0 25.8 10.188 21293 21293 0 0 1-16.75-64.961 807 807 0 0 1-41.06 11.29c4.51 21.357 9.06 42.713 13.67 64.059"/><path fill="#c8dcec" d="M1143.73 163.029a810 810 0 0 0 19.87-19.054 799 799 0 0 0 24.86 12.216c-4.01-21.468-7.96-42.936-11.86-64.415a830 830 0 0 1-41.43 6.315c2.8 21.651 5.64 43.3 8.55 64.938z"/><path fill="#ecf4ff" d="M1046.43 167.736a838 838 0 0 1-22.04-16.61 836 836 0 0 1-23.18 15.027c1.33-21.79 2.67-43.579 4-65.369 13.95.853 27.91 1.335 41.88 1.478-.22 21.828-.43 43.656-.65 65.484z"/><path fill="#76a5c6" d="M1114.54 166.46c-7.9-4.85-15.65-9.812-23.28-14.867a803 803 0 0 1-21.96 16.764l-1.05-65.482c13.97-.227 27.94-.805 41.89-1.753 1.46 21.786 2.93 43.562 4.39 65.348z"/><path stroke="#a5c0d3" stroke-linecap="round" stroke-linejoin="round" stroke-width="5" d="M706.5 3.517c.392-.749 34.665 23.939 97.406 49.107 62.311 25.096 153.101 50.682 256.414 49.877 102.67.464 192.28-24.674 253.76-49.11 61.88-24.536 95.65-48.37 96.03-47.659"/><path fill="#c8dcec" d="M1471.83 110.656a832 832 0 0 1-14.41-23.438 767 767 0 0 1-27.33 5.465 7318 7318 0 0 0 28.01-59.218 804 804 0 0 0 38.61 16.583 7118 7118 0 0 1-24.89 60.598z"/><path fill="#76a5c6" d="M1537.8 135.166a803 803 0 0 1-16.21-22.193 776 776 0 0 1-26.75 7.664 7105 7105 0 0 0 23.15-61.285 803 803 0 0 0 39.77 13.42c-6.55 20.83-13.2 41.621-19.96 62.394"/><path fill="#ecf4ff" d="M1605.49 154.321a854 854 0 0 1-17.93-20.83 785 785 0 0 1-26.06 9.771 7220 7220 0 0 0 18.19-62.94 821 821 0 0 0 40.73 10.21 7056 7056 0 0 1-14.93 63.789"/><path fill="#c8dcec" d="M1674.79 165.855a801 801 0 0 1-19.52-19.339c-8.26 4.059-16.66 8-25.17 11.814 4.48-21.379 8.85-42.777 13.13-64.183a822 822 0 0 0 41.39 6.938 7866 7866 0 0 1-9.82 64.77zM2051.5 111.925a831 831 0 0 0 14.9-23.26 756 756 0 0 0 27.2 5.9c-9.39-20.694-18.72-41.4-27.99-62.135a813 813 0 0 1-39.02 17.13c8.24 20.816 16.54 41.601 24.91 62.365"/><path fill="#76a5c6" d="M1985.08 135.442a818 818 0 0 0 16.66-21.974 788 788 0 0 0 26.57 8.093c-7.7-21.137-15.33-42.294-22.91-63.473a808 808 0 0 1-39.05 14.601c6.2 20.935 12.44 41.86 18.73 62.763z"/><path fill="#ecf4ff" d="M1917.09 153.558a788 788 0 0 0 18.34-20.576 786 786 0 0 0 25.8 10.188c-5.61-21.647-11.2-43.303-16.74-64.961a811 811 0 0 1-41.07 11.29c4.51 21.357 9.06 42.713 13.67 64.059"/><path fill="#c8dcec" d="M1847.72 164.029a810 810 0 0 0 19.87-19.054 799 799 0 0 0 24.86 12.216c-4-21.468-7.95-42.936-11.86-64.415a828 828 0 0 1-41.42 6.315c2.79 21.651 5.64 43.3 8.54 64.938z"/><path fill="#ecf4ff" d="M1750.43 168.736a822 822 0 0 1-22.05-16.61 836 836 0 0 1-23.17 15.027l3.99-65.369c13.95.853 27.91 1.335 41.88 1.478-.21 21.828-.42 43.656-.64 65.484z"/><path fill="#76a5c6" d="M1818.53 167.46a813 813 0 0 1-23.28-14.867 788 788 0 0 1-21.96 16.764c-.35-21.827-.7-43.654-1.04-65.482 13.96-.227 27.94-.805 41.88-1.753 1.47 21.786 2.94 43.562 4.39 65.348z"/><path stroke="#a5c0d3" stroke-linecap="round" stroke-linejoin="round" stroke-width="5" d="M1410.49 4.517c.4-.749 34.67 23.939 97.41 49.107 62.31 25.096 153.1 50.682 256.41 49.877 102.67.464 192.28-24.674 253.76-49.11 61.89-24.536 95.65-48.37 96.03-47.659"/></g></svg>