<svg xmlns="http://www.w3.org/2000/svg" width="1975" height="1055" fill="none" viewBox="0 0 1975 1055"><path fill="url(#a)" d="M1494.84 411.779c-15.34-61.999 30.04-103.989 64.1-80.422-4.01-36.103 7.48-49.873 10.95-50.169-19.9-59.683 47.96-96.605 79.91-87.883-2.4-29.782 21.37-59.794 80.74-61.874 0-23.568 26.54-32.092 40.44-12.972-10.39-33.16 13.04-63.647 67.24-51.212-4.6-11.055 4.51-46.634 39.98-35.809 15.19-26.266 73.64-43.644 96.8-20.913V1055H0V97.555c0-24.75 49.688-17.27 49.688 15.824 38.936-51.258 100.169 10.029 93.143 37.542 37.578-12.971 65.125 25.138 56.225 58.58 39.953-9.875 80.521 23.22 66.065 71.365 42.504 4.506 61.45 29.404 66.065 74.532 38.043-12.361 78.612 24.746 67.213 61.548 29.93-21.258 80.601-19.649 78.235 28.711 27.323-16.373 91.432-11.86 94.186 39.738 34.309-39.738 87.9-24.52 102.549 19.451 24.417-19.451 53.967-19.451 62.918 15.961 37.979-41.957 78.958-25.178 101.393 11.305 27.543-33.871 93.001-31.122 104.305 11.027 17.745-41.648 58.335-40.25 81.985-14.473 12.39-36.2 75.17-46.04 111.18-13.561 12.57-42.457 64.05-79.054 126.74-30.85 3.36-51.962 80.26-67.132 111.86-22.085-6.56-57.081 54.16-76.287 121.09-50.391"/><defs><radialGradient id="a" cx="0" cy="0" r="1" gradientTransform="matrix(0 851.118 -1755.62 0 988.009 247.882)" gradientUnits="userSpaceOnUse"><stop offset=".137" stop-color="#fff"/><stop offset="1" stop-color="#c1e2f7"/></radialGradient></defs></svg>