<svg width="1361" height="906" viewBox="0 0 1361 906" fill="none" xmlns="http://www.w3.org/2000/svg">
<path d="M336 127C207.2 10.5997 113.5 -12.1493 0 5.00043C64.5 -20.3329 312.007 -252.564 534.5 17.5006C759 290.001 513 296.001 513 544.001C513 743.06 1027 940.001 1360.5 526.501C985.5 1134.5 356.5 903 356.5 582.001C356.5 362.542 497 272.5 336 127Z" fill="url(#paint0_linear_926_18)"/>
<path d="M423 595.001C464.515 747.777 643.5 729.001 653.5 729.001C381 701.001 449 507.001 497.5 393.001C589.227 177.394 479 38.5006 295 -5.49938C417 46.5006 487 132.562 487 233.001C487 349.001 373 411.001 423 595.001Z" fill="url(#paint1_linear_926_18)"/>
<defs>
<linearGradient id="paint0_linear_926_18" x1="959" y1="107.5" x2="371.5" y2="923" gradientUnits="userSpaceOnUse">
<stop stop-color="#CBE2F0"/>
<stop offset="1" stop-color="#98BDD8"/>
</linearGradient>
<linearGradient id="paint1_linear_926_18" x1="474.25" y1="-5.5" x2="474.25" y2="729.731" gradientUnits="userSpaceOnUse">
<stop stop-color="#CAE3F6"/>
<stop offset="1" stop-color="#ACCFE6"/>
</linearGradient>
</defs>
</svg>
