<svg xmlns="http://www.w3.org/2000/svg" width="1237" height="1252" fill="none" viewBox="0 0 1237 1252"><path fill="#ccebfe" fill-rule="evenodd" d="M529 944c-65-87.5 36.5-177 118-194.5S902 787 1110.5 644s117-327.5 18-419.5-186-88-334.5-132C675.2 57.3 628.5 16.167 620 0L508.378 20.502C521.81 34.967 569.132 61.263 690.5 92.5c149.2 38.4 213.5 78 227 93 0-3.167-1.3-11.1-6.5-17.5-6.5-8 298 162.5 85 376 64.92-40.414 74.76-61.974 88.32-91.701v-.011l.01-.003c2.2-4.839 4.51-9.896 7.17-15.285-17.02 98.272-103.814 147.414-198 175.641-.638.198-1.58.478-2.802.833a708 708 0 0 1-15.476 4.369C836.63 628.595 748.947 652.435 695.5 666.5 444.7 751.468 480 886.903 529 944m633-441c56.4-122.843-31.5-236.851-82.5-278.5 92 39 170.5 204.5 131.5 290.5s-100.5 129-223.5 140.5c208-72.23 227.67-175.763 211.5-218.5-4.17 16.833-17.4 53.6-37 66" clip-rule="evenodd"/><path fill="#cbdef4" d="M1079.5 224.5c51 41.649 138.9 155.657 82.5 278.5 19.6-12.4 32.83-49.167 37-66 16.17 42.737-3.5 146.27-211.5 218.5C1110.5 644 1172 601 1211 515s-39.5-251.5-131.5-290.5"/><path fill="url(#a)" fill-rule="evenodd" d="M452 1109c-87.833-69.5-233.2-238.7-112-359.5 82.934-82.438 194.026-116.23 216.082-120.632-45.958 9.009-92.096 19.289-136.082 32.278C314.333 699.431 128.8 841.6 232 1104c28.8 31.6 158.667 16.5 220 5m-206.5-87.5c-5.6 36.4 14.333 70.17 25 82.5h47c-14.167-2.17-48.4-21.7-72-82.5M264 944c-2 0-46.5-63 3.5-130-18.4 49.2-10 107.167-3.5 130" clip-rule="evenodd"/><path fill="#c6defa" fill-rule="evenodd" d="M556.521 1109c-37.007-21.5-119.621-84.6-154.021-165 21.2 141.2 103.5 198.5 142 209.5zm-92.021-43c9.2 15.2 29.5 35 38.5 43l31 4c-6.167-1.33-28.7-12.6-69.5-47" clip-rule="evenodd"/><path fill="url(#b)" fill-rule="evenodd" d="M473.139 27.715C474.736 36.605 483.712 86.556 825 168c144.5 40 210 244.5 105 353.5-46.811 48.594-157.919 68.369-282.595 90.559h-.002c-29.751 5.295-60.275 10.728-90.882 16.723l-.439.086C534.026 633.27 422.934 667.062 340 749.5c-121.2 120.8 24.167 290 112 359.5-61.333 11.5-191.2 26.6-220-5-103.2-262.4 82.333-404.569 188-442.854C340.819 684.527 268.615 716.685 217 766 73.4 903.2 61.833 1048.5 74 1104c35.5 63.33 211.5 179.7 631.5 138.5 268.8-22 408.33-129.17 444.5-180-7 8-27.3 25.4-52.5 31 58-36.8 80.83-70.67 85-83-19.83 27.5-90.1 84.2-212.5 91-41.529 2.31-88.216-1.8-135.5-10.75 102.693-2.53 191.39-10.79 283.28-82.4 8.57-6 16.51-12.608 23.72-19.85a453 453 0 0 1-23.72 19.85c-116.84 81.96-350.618 53.43-459.78 26.75-40.318-18.48-75.567-39.662-101.479-62.1C341.042 808 564 679 681 655.5c15.819-3.177 34.297-6.218 54.504-9.542 41.911-6.895 91.255-15.014 139.718-28.115a708 708 0 0 0 15.476-4.369c1.222-.355 2.164-.635 2.802-.833 94.186-28.227 180.98-77.369 198-175.641-2.66 5.389-4.97 10.446-7.17 15.285l-.01.003v.011c-13.56 29.727-23.4 51.287-88.32 91.701 213-213.5-91.5-384-85-376 5.2 6.4 6.5 14.333 6.5 17.5-13.5-15-77.8-54.6-227-93-121.368-31.237-168.69-57.533-182.122-71.998L473 27c.046.198.088.436.139.715M270.5 1104c-10.667-12.33-30.6-46.1-25-82.5 23.6 60.8 57.833 80.33 72 82.5zM264 944c-2 0-46.5-63 3.5-130-18.4 49.2-10 107.167-3.5 130m292.521 165c-37.007-21.5-119.621-84.6-154.021-165 21.2 141.2 103.5 198.5 142 209.5zm-92.021-43c9.2 15.2 29.5 35 38.5 43l31 4c-6.167-1.33-28.7-12.6-69.5-47" clip-rule="evenodd"/><path fill="#f8faff" d="M556.521 973c-10.948-9.48-20.229-19.183-27.521-29-49-57.097-84.3-192.532 166.5-277.5 53.447-14.065 141.13-37.905 179.722-48.657-48.463 13.101-97.807 21.22-139.718 28.115-20.207 3.324-38.685 6.365-54.504 9.542C564 679 341.042 808 556.521 973"/><path fill="#fff" d="M52.564 970.086c-48.4 49.204-54.833 124.504-52 156.004.335 5.2 20.14-2.17 30-6.5-3.833-15.67-4.8-67.5 22-149.504m-24-36.5c6-42 58.5-85.5 84-102-40.5 33-43.5 65-55.5 85.5s-25.5 34.5-28.5 16.5m24-76.5a54 54 0 0 0-2.01 1.431c-2.688 4.191-4.427 16.583-17.99 23.569 1.081-9.007 11.438-18.69 17.99-23.569.582-.908 1.21-1.431 2.01-1.431m8 102.5v16c3.5-4 5-19 6.5-26s10-16 3.5-16c-11.5 4-10 18.5-10 26m65.5-146.5c1.667-4.666 6.4-14.1 12-14.5s-5.666 9.5-12 14.5m55.5-45c.834-6.166 4.1-18.3 10.5-17.5 8 1 0 4.501-10.5 17.5m23-57.5c-8.8-.4-19 11.833-23 18 5.167-2.334 18.1-7.1 28.5-7.5 13-.5 5.5-10-5.5-10.5m158.5-50c-74.5 25.5-135.5 77-138.5 79.5 9.2-16.399 53.167-52.834 74-69.001-7.666 0-28.3 3.5-49.5 17.5 57-56 114-53 142.5-55.5s73.5-1.999 98.5-10.499c20-6.8 39.667-7.167 47-6.5-5.5.333-18.5 2.1-26.5 6.5-43 20-73 12.5-147.5 38m119-70.001c-11.2 1.2-11.666 8.167-10.5 11.5 6.167 2.333 21.1 5.099 31.5-2.501s28.667-12.166 36.5-13.499c-7-.833-23-1.6-31 2-10 4.5-12.5 1-26.5 2.5m102.5-2.5c-11.6 0-20.166 6.333-23 9.499-4.5 3.773-8-4 0-9.499 17.6-11.2 34.667-3 41 2.5-1.166-.833-6.4-2.5-18-2.5"/><defs><linearGradient id="a" x1="70.368" x2="1236.4" y1="625.563" y2="625.563" gradientUnits="userSpaceOnUse"><stop stop-color="#d3dbed"/><stop offset="1" stop-color="#c1cdee"/></linearGradient><linearGradient id="b" x1="70.368" x2="1236.4" y1="625.563" y2="625.563" gradientUnits="userSpaceOnUse"><stop stop-color="#9dcaea"/><stop offset="1" stop-color="#bbd9f4"/></linearGradient></defs></svg>