<svg xmlns="http://www.w3.org/2000/svg" width="369" height="295" fill="none" viewBox="0 0 369 295"><path fill="#6077a5" d="m212.65 567.421-.018.225-.079.034z"/><path fill="#6077a5" fill-rule="evenodd" d="M.024 342.36c.338-1.704 4.004-6.118 11.767-7.019 8.277-1.066 11.214 2.56 11.944 4.766a68 68 0 0 1 4.02-.08c3.895.015 8.736-.094 14.392-.406-5.31-.998-12.01-3.066-17.557-6.628-7.558-4.681-10.345-13.493-8.808-15.175l.018-.224.104.1c1.737-1.703 8.193-4.512 17.115.621 9.88 5.603 17.076 17.185 18.2 20.677 2.368-.233 6.409-.662 11.546-1.218-1.27-3.191-1.62-6.199-1.364-8.956-.683-.517-1.18-1.006-1.47-1.425-3.174-1.465-6.227-3.249-9.001-5.362-3.24-2.421-5.836-5.969-7.632-9.438-3.952.211-7.217-.354-7.217-.354 0-.06.024-11.533 8.771-16.005 4.675-2.407 12.452-1.165 16.885-.146l7.275-1.621.02-.108c-7.608-1.582-13.469-2.916-16.806-3.726-2.717 1.144-11.41 1.211-17.846-6.32-6.522-7.425-4.031-17.181-2.828-17.608l.056-.013c1.178-.131 3.333 2.078 4.702 5.352 1.545 3.967 2.7 6.997 7.225 11.658l.019-.225c2.751 2.818 5.925 3.926 7.83 4.765 2.997.697 9.426 2.166 18.149 3.998 1.257-4.519 3.584-8.473 6.328-11.777a17 17 0 0 1-1.516-2.39 13 13 0 0 1-.398-.795c-3.153-.957-5.31-2.416-5.573-3.305-.397-1.336 1.125-5.339 5.524-8.706-1.16-2.124-1.777-4.136-1.865-5.485a168 168 0 0 0-11.95 9.902s-2.067-11.916 6.725-19.56c4.68-4.068 11.925-4.728 17.68-4.455a16.4 16.4 0 0 1-1.681-2.729c-2.18-.757-3.85-1.576-4.988-1.905-1.832 1.756-12.487 5.169-20.029 2.256-5.67-2.043-7.834-9.899-6.725-12.068 1.342-2.15 6.437-7.384 13.286-5.472 8.668 2.513 14.307 13.589 13.947 15.141l-.214-.243a.7.7 0 0 1-.158.274c1.07.31 2.67.799 4.625 1.47-2.125-4.77-1.79-9.953-1.056-13.658a32.4 32.4 0 0 1-.989-6.415c-.035-.735-.01-1.484.063-2.236-8.772-.447-14.568-4.268-14.824-5.741-.514-2.007 10.53-9.403 19.585-11.057-5.688-6.03-6.35-12.643-5.428-13.773 1.037-1.271 12.238 1.673 17.886 6.876 1.606 1.412 2.87 3.104 3.798 4.815.063-1.887.327-3.888.951-5.785.924-2.915 3.605-5.688 6.558-8.348-1.79-.308-3.782-.863-5.97-1.77-10.378-4.458-14.147-12.671-13.556-14.205.592-1.533 13.476-2.067 20.894 1.473 3.006 1.434 5.485 3.68 7.209 5.92.369-.505.608-.873.726-1.061.501.757 1.76 4.045 2.579 8.086a86 86 0 0 1 3.48 2.055l.13-.097c-2.576-3.417-4.806-7.815-6.079-12.565-.937-2.186-1.221-3.996-.92-4.747a30 30 0 0 1-.193-2.45c-.363-7.033 5.218-15.39 7.02-14.566 1.141.319-.324 1.103 1.167 5.743 1.03 3.204 3.542 5.991 5.94 10.016 1.1.349 2.24.797 3.409 1.362a26 26 0 0 1 2.907 1.687 20 20 0 0 1 5.737-2.801c-.105-4.625.533-8.103 1.259-8.699.652-.457 3.501.032 7.215 1.404-.381-1-.719-2.052-1.002-3.158-3.368-13.151 6.157-21.187 12.37-22.942 1.386-.467 2.75-.656 4.039-.692.705-.04 1.385-.026 2.034.057l.048.004-.005.003.032.005-.027-.008.232.018c.818.14 1.578.393 2.263.78.95.531 1.759 1.328 2.378 2.461a9 9 0 0 1 .776 1.944c.482 1.5-.519 5.616-1.949 10.299a262 262 0 0 1 9.839-7.84l-.345-.491a819 819 0 0 1-12.53-18.196l-7.914-4.837c-5.145-.972-15.511 1.929-20.845-.43-5.454-2.412-9.532-8.309-9.787-8.684q-.243-.038-.245-.038s7.87-7.424 16.719-5.424q.715.134 1.438.348c5.346 1.722 10.058 8.316 12.33 11.972l6.04 3.691c-4.213-6.369-7.4-11.39-9.231-14.352-2.523-.657-9.174-6.633-8.346-16.834 1.034-9.856 10.302-14.75 11.195-14.227l.102.058c1.005.682.721 3.73-.667 6.9-1.719 3.926-3.116 6.75-3.394 13.052-.03 4.13 1.521 7.135 2.255 9.01 3.163 5.044 12.352 19.479 24.613 36.777l.308.432q.678-.505 1.358-1.005c-1.062-2.173-1.987-4.836-2.597-8.088a33.3 33.3 0 0 1-.454-8.658c-.721-3.637-.829-7.648.434-11.224l.131-.355c2.766-7.16 10.233-8.203 13.158-8.049l.002-.004.232.018.132.016c.509.079 1.097.376 1.711.846 2.212-2.887 8.354-7.036 17.046-6.329 4.175.34 7.099 1.707 9.058 3.447-1.582-3.517-3.109-7.708-3.154-12.907-.244-14.253 11.205-20.1 17.773-20.47 5.639-.445 10.419 1.073 10.623 7.19.007.557-.221 1.39-.622 2.425.236.88.287 2.65 2.731 6.105 1.456 2.059 3.488 3.75 5.795 5.649a437 437 0 0 1 5.83-3.717c-1.792-4.96-2.068-10.08-1.522-14.214 1.346 1.113 3.489 2.16 6.184 3.272-.305-1.844-.366-3.003-.367-3.025.01-.002 5.737-1.311 12.62-1.104-.471-6.51 2.856-12.106 5.948-14.782l.232.019c3.363-2.94 7.111-4.582 10.487-2.346.834.441 1.633 1.1 2.379 2.036 1.056 1.202 1.902 4.973 2.632 9.51 3.74-1.61 7.513-3.107 11.314-4.471.159-.706.403-1.257.716-1.588q.001.002.131.078c1.308-1.265 4.208-3.153 7.852-3.62-6.779-6.28-14.473-11.917-23.156-16.328-1.565.67-6.951 2.288-14.805-1.996-9.181-4.813-11.827-12.483-11.004-13.998s12.44-.796 18.893 3.118c4.877 2.958 7.833 8.212 7.945 11.004 8.234 4.214 15.588 9.502 22.125 15.386-1.048-2.784-2.118-5.842-2.742-8.644-3.91-.62-13.087-3.003-16.363-11.885-4.229-11.188 2.336-20.142 8.285-24.403.154 3.853 4.46 11.206 7.46 20.26 3.101 9.135 2.455 11.544 2.398 15.349q.043.095.075.216c.774 3.563 2.112 7.36 3.365 10.654.997-.423 1.739-.599 2.113-.494.292.081.638.427 1.011.992q.202-.162.407-.32.332-.255.67-.503c1.333-.979 2.87-1.801 4.492-2.477-1.634-8.806 1.283-18.673 4.141-24.658-3.782-3.332-8.559-7.034-9.746-10.91-1.864-5.8-.122-12.887-.122-12.887l.234.023-.002-.004c.027.002 11.853.747 16.045 9.437l-.214-.243c1.143 2.287 1.343 5.232 1.103 8.137a32 32 0 0 1-.22 2.018c.954.731 2.01 1.637 3.111 2.692a832 832 0 0 1 1.453-5.107c-1.116-2.453-.866-11.175 7.22-17.102 8.183-5.886 18.207-2.813 18.348-1.672l.005.11c-.022 1.159-2.471 3.12-5.723 4.17-4.07 1.25-7.177 2.127-12.18 6.239-2.88 2.367-4.17 5.194-5.1 7.026a667 667 0 0 0-2.305 8.066c3.862 4.09 7.923 9.745 9.994 15.903.64-.386 1.301-.732 1.982-1.028 7.5-3.23 13.862 1.804 15.554 3.975.214.317.366.775.45 1.337 2.072.646 3.536 1.492 3.934 2.183.448.874.677 2.848.269 5.243q3.023.552 5.892 1.183c1.908-4.042 4.475-6.24 5.49-6.157 1.034.084 2.891 3.989 3.844 8.543q3.596 1.061 6.921 2.283c-3.806-5.633-9.778-13.307-18.722-22.09 0 0 12.316-2.162 20.492 6.41 4.694 4.92 5.305 12.71 4.976 18.453q.659.302 1.306.611c1.611-4.023 2.968-7.206 3.465-8.983-1.875-2.256-5.14-11.962-2.468-19.205 2.079-5.479 9.971-7.774 12.217-6.687s7.931 5.84 5.974 12.685c-2.437 7.855-12.937 13.586-15.137 13.676q-.207-.057-.464-.33a91 91 0 0 1-3.109 9.076q.189.092.375.185.486-.275.884-.343l.015-.186.928.075c.247.103.384.22.451.378 5.211-3.708 12.384-6.67 19.707-7.098 7.495-.294 16.658 4.742 15.799 6.706-.555 1.084-1.373-.338-6.176 1.305-4.701 1.608-8.314 6.333-16.35 9.281a60 60 0 0 1 5.958 6.094q.445-.153.886-.293c-.175-3.17-.164-6.088.909-6.97l-.214-.243c.713-.642 1.414-.968 2.095-1.047l-.13-.149c3.574-.201 6.089 3.558 8.18 6.75q.297.03.536.074c4.09.051 7.97.832 11.235 1.915-.357-2.503-.344-7.805 4.541-14.203 6.546-8.73 15.542-10.258 17.093-9.228 1.337.787-1.057 13.017-6.224 19.148-4.723 5.603-12.866 7.72-14.789 6.103a79 79 0 0 1-3.891 3.808c6.057-2.604 14.378-3.91 22.039-2.408.68.141 1.359.335 2.031.57 10.985-33.862 22.528-53.246 33.23-52.376 28.065 2.283 39.564 145.32 25.422 319.481-14.143 174.162-48.337 313.485-76.635 311.185-14.026-1.14-23.867-36.852-28.505-93.793-2.321 6.827-5.658 11.925-6.903 12.295-.723.25-2.428-.526-4.585-2.082-2.587 3.124-5.311 5.023-6.34 4.357-.327-.226-.388-.451-.332-.797a79 79 0 0 1-4.019 4.838c.271 1.031.305 1.809.11 2.166-.299.619-1.406 1.342-3.104 1.845.341.822.506 1.317.511 1.333-.016.008-2.127 1.106-5.338 2.224a93 93 0 0 1-.907.756q.295.31.583.626c6.216 6.831 7.961 19.85 5.337 20.541-1.429.336-.801-1.647-6.131-5.017-3.966-2.433-9.414-3.195-15.771-5.835q-1.471.738-2.967 1.424a29 29 0 0 1-.049 4.483c.654 1.141.927 2.047.831 2.535-.068.341-.566.701-1.392 1.048-2.455 10.856-11.153 17.924-18.382 21.066.663-3.93-1.067-10.981-2.532-19.682a25 25 0 0 1-2.59-.616 23 23 0 0 1-2.119-.789q-2.045.364-4.1.661.123.646.292 1.228c1.415 4.19 3.146 6.109 3.918 6.804.128.021.196.043.193.082l-.082.014c.188.16.296.23.296.23q-.126.005-.257.003c-.14.134-.911.824-2.447 1.383 1.449-.316 2.492-.772 3.149-1.125-.025.026-3.088 3.135-10.656 1.845a40.7 40.7 0 0 1-7.268-2.037 65 65 0 0 1-3.005-1.179q-.059.266-.127.536c3.058 2.749 15.431 13.008 39.809 22.918-.049.031-12.083 7.594-24.451 2.079-10.067-4.489-14.419-18.652-15.697-23.808l-.061.193c-.138 7.433.334 13.737.705 16.63 2.952 1.368 11.371 10.508 11.713 19.365.363 7.033-7.106 12.752-9.889 12.525-2.784-.226-10.969-2.925-12.187-10.931-1.304-9.82 7.994-20.812 9.886-21.11l-.232-.019c.137-.022.317.013.533.096a119 119 0 0 1-.899-15.51c-2.892 7.646-10.531 16.785-20.451 21.629-7.537 3.68-19.544 2.025-19.594-.238.11-1.346 1.642-.093 5.932-4.036 4.271-3.719 5.977-10.358 13.537-17.199a36 36 0 0 1 3.663-2.879c-3.157.848-6.355.973-9.272.739a1.6 1.6 0 0 1-.08.322c-.418 1.204-1.049 1.977-1.831 2.416l-.011.146c-5.127 2.746-12.112-3.244-16.409-4.949-1.187-.471-2.295-.813-3.394-1.136a39 39 0 0 1-4.075-.092c-.89 2.537-2.274 4.354-2.691 5.887q.105.078.195.179l.249-.206c1.05 1.441 6.199 7.056 4.323 18.651-2.217 12.923-10.668 19.24-12.756 19.07-2.301-.413-6.542-14.313-4.617-23.645 1.747-8.345 9.244-15.082 12.131-14.281a90 90 0 0 1 1.8-5.778l-.245-.027c-4.848 5.927-12.757 11.716-21.617 14.245-8.355 2.258-19.484-1.584-19.302-3.828.341-1.328 1.642-.093 6.554-3.082 4.913-2.99 7.993-9.291 16.585-14.466 2.354-1.476 5.056-2.72 7.751-3.717l-.022-.103a6 6 0 0 1-.137-.533c-.161-.787-.087-1.506.182-2.168-2.735.013-4.645-.286-5.085-.716l-.232-.019c-.493-.481-.406-2.614.305-5.562a140 140 0 0 1-4.954-2.996c-2.366 7.471-8.673 11.994-10.328 11.859-2.07-.394-6.735-6.196-5.951-15.846q.11-1.02.277-1.936c-8.155 4.742-16.709 6.732-18.111 5.908-.641-.415-1.152-2.728-1.248-6.072-.6.433-.884.682-1.248.58-.169.021-.336-.031-.546-.177 0 0-.213-.244-.409-.711l.214.243.053.035c-.475-1.21.46-4.28 2.347-7.506.221-1.708.536-3.489.962-5.289-.886-.535-1.66-1.24-2.391-2.072-4.22 2.207-8.742 3.238-12.813 3.636l-.652 1.392c-.29 1.874-1.947 5.257-1.283 9.814 1.132 6.192 3.001 9.055 5.297 12.404 1.869 2.863 2.542 6.08 1.541 6.903-.751.616-10.719-3.131-12.969-12.802-2.314-9.277 2.706-15.826 5.445-17.426l.052-.112q-.65.026-1.274.034c1.452-2.194 2.624-6.301 4.043-11.491l-1.227 1.008c-1.832 3.996-5.46 10.593-10.243 12.816-8.951 4.009-18.417-2.833-18.447-2.855l.25-.067-.232-.158s2.492-5.244 6.895-8.618c-2.026-2.8-3.732-6.422-3.918-10.795-.375-8.851 8.618-17.354 12.578-20.655q-.423.059-.861.103c-5.394 2.475-9.747 4.881-11.867 6.263.444 1.896-3.508 12.597-11.007 16.545-5.608 2.933-13.025-.607-14.021-2.721-.977-2.339-2.017-9.653 3.896-13.464 7.377-4.596 20.006-1.989 20.825-.567l.232.019.005.01a94 94 0 0 1 10.752-5.995c-7.231.391-16.898-1.939-24.153-7.303a17 17 0 0 1-1.61-1.408c-5.441.647-10.947-4.168-15.458-5.557q-.053.075-.123.145c-.941.966-3.731.242-6.075-1.097-1.238.018-2.058.188-2.456.295-.928.879-1.71 1.616-2.321 2.179-3.906 3.562-8.533 7.525-12.953 11.226-1.834 3.494-3.448 10.47-3.993 12.259-.954 5.585-2.106 16.629-.458 32.709 0 0-10.306-5.356-11.073-16.036-.745-7.972 6.524-15.668 10.279-19.074.467-1.967 1.215-4.784 2.129-7.262-7.384 6.118-13.487 10.971-13.507 11.11-.15.123-.318.204-.485.245-2.311 3.176-5.886 7.185-9.772 8.184-8.355 2.258-15.694-5.117-15.694-5.117l.179-.233c.822-1.047 4.39-5.353 8.827-7.167 4.858-1.986 14.012 1.145 18.557.33a868 868 0 0 0 10.126-8.216c-2.15.624-4.588.847-7.292.361-11.274-2.046-15.667-11.214-16.53-17.835l.308.146c3.327 1.464 11.051 1.49 19.726 3.29 9.304 1.819 10.748 3.601 14.069 5.382a320 320 0 0 0 6.256-5.537 321 321 0 0 0 3.375-3.183l.002-.016c-1.137-1.013-1.784-1.852-1.797-1.869l-.232-.019c-1.728-1.722-8.729 1.098-11.612-3.655-.658-1.085-.859-2.097-.756-3.05.189-3.327 4.164-5.923 5.647-8.3l-.232-.019c1.867-2.99 1.565-4.819 1.561-4.843q.189.125.367.266c.192.033.555.116 1.03.307-.91-1.979-1.613-4.664-1.54-7.728-10.743 4.917-20.122 2.685-21.082 1.137-.684-1.275 3.053-7.23 8.244-12.278-2.782-.867-5.098-1.881-7.242-2.725a2.1 2.1 0 0 1-.513.358l.018-.224c-1.336.63-2.461.688-3.411.335-1.312-.399-2.332-1.22-3.153-2.293-4.336-.441-5.088.932-5.657.061-.429-.8 1.024-2.618 3.467-4.537-.946-2.807-1.535-5.835-2.464-7.808-1.124-2.385-2.374-4.133-3.494-6.32-2.955 1.364-5.627 1.794-7.217 2.684q.021.138.01.282c-.146 1.796-.748 9.202-10.413 16.097-10.666 7.718-21.531 6.383-22.795 4.698s5.842-14.436 13.97-19.649c7.44-4.772 17.592-4.4 19.06-1.892a99 99 0 0 1 6.04-3.091c-3.79.489-8.108.437-12.503-.256-2.823.185-4.82-.018-5.36-.497-.183-.147-.331-.418-.446-.796-2.787-.811-5.524-1.898-8.095-3.288-7.381-3.989-12.842-14.373-10.859-15.793 1.001-.822 1.069 1.217 6.813 2.361 4.174.832 8.738-.092 14.796.175 1.115-2.98 2.573-6.008 4.413-8.784q-.034.001-.066-.001c-1.855-.152-4.386-12.105-2.339-20.071-7.194 2.352-13.134.74-13.74-.439-.523-.596 1.484-3.552 4.42-6.408-7.367-1.738-13.966-6.284-13.295-8.234a.93.93 0 0 1 .069-.533c.573-1.309 1.605.357 7.586-1.416a16 16 0 0 0 1.617-.58c-1.89-3.767-3.56-8.29-4.299-12.952-2.478-.624-3.88-.336-3.897-.332 0-.021-.07-3.054 3.567-6.533l.013-.179c.073-.898.378-1.777.45-2.675-9.355 3.08-19.337-3.38-20.083-5.699-.682-2.387 1.974-10.463 10.453-14.523 1.114-1.191 4.364-2.82 8.381-4.52a29.7 29.7 0 0 1-5.6-7.407c-5.597 1.909-9.088 6.972-10.263 8.926-1.176 2.348-3.187 6.287-4.762 10.826-1.865 5.723-4 11.875-5.5 13.109-3.485 2.653-6.604.818-9.15-2.326l-.232-.019c-2.956-3.855-5.029-12.834 2.977-19.412 6.578-5.406 13.977-5.404 16.635-4.838 1.364-1.832 3.5-4.176 6.335-5.933-3.65.397-6.54.703-8.392.886-9.656 1.022-17.829 1.035-23.664 1.013-1.45-.018-2.763-.021-3.92.005-.398 2.522-2.746 5.078-8.922 5.82l-.712.076c-7.55.968-14.376-4.106-14.248-5.677zm450.104-230.201a30.3 30.3 0 0 1 11.614 4.247c2.8 1.734 4.835 3.751 6.269 5.882 2.248-9.165 4.542-17.75 6.87-25.697-2.644.895-5.725 1.741-9.594 2.03-1.185.089-2.407.1-3.635.055-.55 2.651-1.772 5.562-4.052 8.356-2.509 2.974-5.084 4.498-7.472 5.127m2.853 38.161.008 1.258q.088.573.197 1.183c.23 1.456.488 2.814.758 4.078.677 3.037 1.38 5.536 1.883 7.53.972.434 1.873.929 2.706 1.476a1020 1020 0 0 1 4.11-20.142 5.7 5.7 0 0 1-1.583.08c.316 1.352.41 2.347.241 2.892a1.2 1.2 0 0 1-.114.444l.018-.224c-.435.773-3.705 1.424-8.224 1.425m7.938-4.551.057.247q-.021-.12-.046-.245zm-2.842-63.325a1.1 1.1 0 0 1-.114-.306c-.616.51-1.256 1.137-1.925 1.863.706-.695 1.55-1.042 2.039-1.557M196.539 563.318a152 152 0 0 0-.081 5.955c5.631-.772 12.677-.088 16.095-1.593l-.017.045.736-.605c.452-1.649.932-3.383 1.458-5.178-1.74-1.491-3.109-1.832-3.12-1.835 0 0 .841-1.781 3.56-3.373a694 694 0 0 1-2.131-2.415l-.028.028c-4.928 4.911-11.621 7.727-16.472 8.971m1.897-17.927a40 40 0 0 1 3.287-3.926 18 18 0 0 1-2.043-1.224l-.037.008c-.298 1.04-.744 2.758-1.207 5.142m37.732-440.262a16 16 0 0 1-.361-.421q-.216.504-.414.974zm-8.087 1.996c.238.801.345 1.59.384 2.32q.566-.349 1.143-.671a40 40 0 0 1-1.527-1.649m-24.386 10.694c2.122 1.653 4.723 3.172 7.526 5.204q.091-.155.185-.31c.536-.86 1.287-1.476 1.805-2.112-3.735-.473-6.873-2.207-9.312-4.316q-.044.768-.204 1.534m-27.266 395.262c.198 1.271.602 2.721.978 4.255.509-.668.999-1.274 1.474-1.832q-1.185-1.196-2.452-2.423m-32.186-7.042c2.659 4.223 2.45 6.044 4.977 10.582q.205-.031.412-.069.316-.365.667-.739c3.058-3.141 5.413-4.874 7.885-6.599-1.221.214-2.089.228-2.449.038l-.231-.019c-.72-.299-1.387-2.69-1.62-6.129a22 22 0 0 1-5.4 2.305c-1.652.477-3.142.672-4.241.63M121.129 186.3c.215 1.171.389 2.393.494 3.625a42 42 0 0 1 2.01-1.715c-1.011-.623-1.712-1.462-2.504-1.91m-29.091 32.299c.773 1.095 1.605 2.25 2.436 3.529q.206-.689.456-1.297a18 18 0 0 1-.285-1.133q-.23-.978-.35-1.942a28 28 0 0 1-2.257.843m-36.876 88.506c4.276.59 9.268.876 15.171 2.54a27 27 0 0 1-.34-.975c-1.413-4.434-1.728-8.576-1.265-12.385l-3.843.855.202.061q-.215 0-.432.006c-2.918 1.642-6.094 6.262-9.493 9.898" clip-rule="evenodd"/><path fill="#6077a5" d="m416.216 55.77.018.005-.049-.004zM118.485 177.287q0 .001-.087.141-.09-.136-.145-.16z"/></svg>