<svg xmlns="http://www.w3.org/2000/svg" width="278" height="204" fill="none" viewBox="0 0 278 204"><path fill="#b8d7eb" d="M127.589 171.241c-9.83-46.87-41.82-98.57-86.06-120.26-3.08-1.51-5.7-5.28-9.1-4.83-1.19.16.32 2.37.47 3.56 2.17 16.36 9.98 23.96 20.48 35.94 16.2 18.46 33.61 36.21 47.39 56.53.96 1.42 8.97 16.93 9.49 16.86 3.36-.45-5.03-4.69-8.07-6.18-7.13-3.5-13.1-8.92-18.83-14.41-7.12-6.82-62.32-46.77-65.99-41.98-2.09 2.73 10.14 13.05 11.71 15.36 15.24 22.48 38.88 35.09 59.97 51.24 2.19 1.68 14.02 9.56 13.45 10.3-1.69 2.2-26.02-8.51-29.04-9.43-34.66-10.51-50.31-19.27-73.45 10.97-.59.77 29.6-.31 32.53-.7 17.99-2.39 33.32 4.47 50.57 7.78 5.78 1.11 11.59 3.77 17.57 4.91 1.38.26 10 .86 9.81 1.11-5.34 6.98-61.4 6.05-70.52 5.75-2.45-.08-23.9-.16-22.87.62 10.97 8.4 30.31 6.07 43.29 7.54 7.54.86 77 3.45 84.37-1.55 15.25-10.34 38.79-19.35 57.16-24.51 7.11-2 25.51-7.34 31.74-6.63 1.02.12 6.14 1.73 7.28.24.74-.97-2.13-1.78-2.69-2.06-18.21-8.93-34.35-1.48-53.03 1.01-6.75.9-13.08 5.36-18.52 6.09-1.25.17-4.35 2.49-3.4 1.66 20.56-18.04 48.95-38.74 76.16-45.16 10.03-2.37 18.62-3.37 28.81-1.41.45.09 10.46 3.97 8.63 1.27-19.49-28.75-35.44-18.95-61.26-6.36-11.92 5.82-23.04 10.44-33.88 17.79-5.49 3.72-13.76 8.23-17.58 13.21-.29.38-3.36 7.03-3.96 6.57-.05-.04 5.96-10.79 8.32-19.23 8.59-30.71 16.71-58.66 39.93-81.43 6.39-6.26 13.08-11.47 19.48-17.09.14-.12 10.23-6.03 8.71-7.2-3.15-2.41-11.73.35-15.59.86-34.08 4.53-48.96 38.56-58.76 67.01-4.63 13.44-4.58 28.13-9.04 41.07-1.49 4.31-1.19 8.2-1.98 12.35-.17.88-.75 3.42-.87 2.53-3.64-27.38 3.28-145.74-16.55-160.92-1.28-.98-9.89 21.67-10.06 24.29-1.89 28.85 3.08 59.56 6.93 88.49.17 1.29-.98 26.71 1.1 26.44 1.63-.22-1.16-3.08-1.82-4.59-2.77-6.36-4.01-13.17-6.24-19.71-8.01-23.41-13.57-47.66-22.68-70.69-3.65-9.23-12.17-15.09-17.56-23.04-1.93-2.84-6.65-10.93-7.04-7.52-.68 5.97-3.67 11.56-3.73 17.41-.24 24.78 24.78 55.12 35.66 77.42 3.95 8.1 6.34 19.58 10.3 27.7 4.48 9.18 10.7 25.68 8.91 34.99z"/></svg>