<svg xmlns="http://www.w3.org/2000/svg" width="258" height="182" fill="none" viewBox="0 0 258 182"><path fill="url(#a)" fill-rule="evenodd" d="M90.59 17.214c-5.98-8.446-4.066-26.05 11.524-11.88s28.517 63.979 29.188 69.544c6.67-16.912-6.454-45.527-5.447-56.796 1.006-11.288 15.511-12.787 20.681 7.342s-7.518 51.19-8.959 53.342c12.67-9.473 14.643-25.142 18.55-34.85 3.908-9.71 15.847-12.453 17.13 3.63 1.283 16.084-34.299 41.363-34.299 41.363 16.932-4.637 27.333-8.604 36.016-17.15 8.683-8.563 17.997-1.203 15.669 8.743-2.349 9.946-33.884 21.037-48.685 17.781 17.445 10.834 34.733-2.308 40.515 6.73s-3.691 16.971-14.781 16.359c-6.484-.357-15.096-6.239-21.521-11.47 5.176 7.76 11.287 17.667 17.574 29.49a36.4 36.4 0 0 1 2.188-5.705c3.554 6.014 7.151 12.144 8.778 18.936.819 3.417 1.076 7.059.589 10.541a359 359 0 0 1 3.08 7.186l5.773-1.924c.99-.335 2.03-.698 2.717-1.487 1.848-2.145-.105-5.329-1.742-7.642-7.136-10.07-8.06-24.201-2.298-35.121 4.67 6.334 9.402 12.82 11.85 20.299s2.247 16.265-2.458 22.583a66 66 0 0 0 11.695-10.15c.63-.69 1.266-1.441 1.478-2.347.255-1.07-.121-2.175-.543-3.189-2.254-5.459-6.115-10.832-5.096-16.646.895-5.154 5.389-8.867 7.536-13.634l.044-.164c3.693 4.954 6.601 10.599 7.5 16.71.96 6.541-.598 13.63-5.077 18.486 4.185-1.943 7.142-6.296 7.404-10.905.175-3.049-.732-6.077-.515-9.125.439-6.083 5.151-10.877 9.581-15.084 3.24 7.805 2.144 17.264-2.798 24.118 3.302-2.045 3.974-6.1 6.2-9.116 2.214-3.009 4.97-5.604 8.05-7.709a34.2 34.2 0 0 1 10.122-4.701c.985-.306 10.108-1.018 10.158-1.129-5.513 11.448-16.478 20.09-28.847 22.914a69.9 69.9 0 0 1 22.039-.285c-.338 5.821-5.971 10.802-11.784 10.435-3.065-.19-5.888-1.629-8.856-2.414-6.219-1.635-13.168-.195-18.23 3.78 10.888-3.811 24.056.328 30.804 9.683-8.835 6.122-21.474 2.829-29.707-4.077-1.258-1.062-2.625-2.256-4.274-2.284-1.205-.023-2.315.601-3.349 1.215-3.741 2.176-7.484 4.361-11.225 6.537 6.372-1.564 13.197.823 18.418 4.79 5.222 3.966 9.135 9.374 12.965 14.707-10.243 2.411-21.596-.58-29.33-7.725-1.891-1.749-3.683-3.793-6.142-4.545-1.666-.508-3.454-.366-5.191-.22l-4.819.409q.404 1.014.807 2.044c3.699.886 7.208 2.253 10.092 4.683 3.04 2.564 5.085 6.063 7.081 9.507 2.756 4.745 5.509 9.5 8.255 14.242-5.861-1.513-12.032-3.259-17.465-5.96 11.901 37.417 20.451 85.184 15.234 139.588v-.019l-3.966-.375c5.368-55.884-3.984-104.686-16.464-142.275-3.1-2.207-5.748-4.911-7.661-8.308-.989-1.756-1.808-3.724-3.402-4.959-1.578-1.22-3.674-1.513-5.663-1.704a102 102 0 0 0-14.691-.344c8.205.635 15.474 5.926 20.408 12.508s7.906 14.386 10.814 22.081c-11.658-1.737-22.613-7.488-30.897-15.867 4.659 7.107 7.93 14.838 6.848 23.088a203.2 203.2 0 0 1-48.685-33.243 141 141 0 0 1 11.064 14.384 66.1 66.1 0 0 1-28.436-14.038l-43.158-2.558c11.84-9.096 29.313-10.049 42.092-2.335-9.407-6.691-12.844-19.119-13.571-30.657 6.823 10.504 21.928 13.02 28.977 23.377a162 162 0 0 1-7.751-23.351c4.547-1.67 9.462 1.509 12.577 5.222 2.966 3.538 5.147 7.725 6.389 12.168-.477-4.248.009-8.611 1.469-12.63.463-1.275 1.019-2.511 1.615-3.729-5.88-.329-5.923-8.507-1.206-15.833 5.92-9.197 11.86-28.714 10.597-35.483-12.453 29.503-32.937 43.179-52.79 44.778-19.852 1.598-28.101-12.63-9.59-17.031 18.528-4.4 53.944-22.749 54.011-36.03-.943.262-34.335 9.591-69.779 27.644-19.497 7.518-22.162-8.387-2.96-17.544 19.169-9.142 66.545-15.55 66.701-15.57-.094-.028-35.925-10.383-73.213 2.96C6.797 107.182 1.488 83.68 14.67 78.39c12.555-5.037 76.481-6.942 96.418 1.548C55.794 52.186 17.371 62.726 5.949 58.005-5.656 53.229-1.058 30.91 26.61 35.409c25.56 4.157 75.292 27.382 88.957 39.142-37.263-37.398-62.792-38.665-70.565-47.903-7.953-9.473-2.624-17.9 18.472-11.743C84.567 21.062 123.985 73.93 124 73.95c-7.44-25.91-27.43-48.31-33.41-56.736m52.911 157.381c-.145 1.162-.401 2.304-.832 3.41 1.057.035 2.115.07 3.169.114a19.3 19.3 0 0 1-2.337-3.524m-5.063-68.919c5.717 20.299 4.384 32.353-.082 39.781q.188.4.365.805c1.389 3.198 2.288 6.566 2.963 9.998.06-.263.109-.521.179-.781 1.934-7.722 6.253-14.609 10.572-21.299 5.121 6.155 8.852 13.718 9.246 21.713.394 7.994-2.918 16.373-9.469 20.964a51 51 0 0 0 13.57-2.66c.513-.173 1.043-.373 1.442-.742 1.38-1.286.423-3.551-.471-5.198-3.733-6.862-5.164-14.897-4.261-22.646-8.932-17.369-17.681-30.903-24.054-39.935m34.494 70.354c1.212.159 2.437.323 3.661.513l-.321-.797zm.632-6.825a18 18 0 0 1-2.065 3.44l3.081-1.028q-.507-1.218-1.016-2.412" clip-rule="evenodd"/><defs><linearGradient id="a" x1="244" x2="-32.972" y1="170" y2="-143.41" gradientUnits="userSpaceOnUse"><stop stop-color="#a2c0db"/><stop offset="1" stop-color="#9f6998"/></linearGradient></defs></svg>