<svg xmlns="http://www.w3.org/2000/svg" width="2584" height="884" fill="none" viewBox="0 0 2584 884"><path fill="#cfe3fc" d="M2205.39 260.947c24.54 55.42 49.11 110.887 75.62 165.097-31.95 3.284-61.66-28.022-86.62-57.037-29.17-33.923-64.28-56.442-89.39-119.387-4.06-8.93-.18-12.294-7.13-8.491 11.29 48.548 42.37 87.716 72.11 124.177-17.98 8.828-77.48 6.314-113.04-37.483 14.03 27.889 41.55 40.266 66.77 46.311 25.23 6.044 51.76 8.594 74.29 25.813 9.52 7.27 17.85 16.852 26.72 25.429 12.79 12.389 26.78 22.759 41.43 30.698 10.58 5.753 21.75 10.402 30.94 19.388 11.86 11.572 65.87 67.995 72.41 84.658 80.38 121.629 109.98 119 139.89 261.521 24.66-2.822 49.3-5.618 73.96-8.44-18.07-35.085-31.9-73.181-40.78-112.4-4.4-19.381-7.59-39.071-13.07-58.181-5.38-18.801-12.86-36.819-20.74-54.481-20.29-45.53-86.96-5.414-100.26-54.019-11.6-42.435-34.24-54.837-48.51-96.313-6.12-17.779-14.11-34.747-19.68-52.748-7.25-23.488-10.22-48.135-13.14-72.494-1.35-11.309-2.69-22.791-1.68-33.858 1.56-16.811 8.47-31.484 11.51-47.799 3.25-17.459 2-36.255.74-54.709-2.54-36.782-5.08-73.59-7.6-110.375-8.42 2.988-8.32 17.543-7.05 28.763 5.59 49.618 5.09 99.516-1.53 147.346a1876 1876 0 0 0-44.85-155.125c-5.68-.91-11.38 1.066-15.47 5.408 9.63 29.521 19.23 59.045 28.86 88.566 5.66 17.333 11.32 34.763 14.74 52.722 5.2 27.37 5.01 55.098 6.69 82.7 3.33 54.084 14.01 108.162 28.57 160.779-41.6-49.914-65.65-117.794-80.63-185.179-14.98-67.384-22.08-136.167-36.66-203.663-4.31.72-8.62 1.418-12.92 2.138 16.54 73.91 28.11 148.921 34.52 223.926-32.88-63.07-51.21-128.065-73.42-195.873-31.16-3.215-10.54 27.574-2.54 44.322 14.68 30.783 22.84 66.502 36.94 98.293"/><path fill="#b8d7eb" d="M2246.04 373.62c2.9 32.562 12.91 64.211 18.68 95.971.8 4.362-.87 8.969 0 13.332 2.96 14.823 10.38 27.865 13.35 42.643 2 10.038.87 32.851 8 39.996 8.64 8.635 22.68 14.667 32.02 23.992 31.53 31.493 67.23 57.979 101.41 85.31 17.94 14.333 36.53 28.533 45.38 50.656 3.38 8.435 8.53 14.111 13.34 21.322.72 1.068 2.08 16.581 5.35 13.332 2.61-2.604 0-22.613 0-26.664 0-6.721 7.82-29.512 2.68-34.653-1.34-1.336-6.67 1.335-8 0-5.69-5.676-17.34-11.997-24.03-18.651-12.59-12.575-25.2-27.843-37.37-39.996-4.65-4.651-9.31-14.644-13.35-18.651-5.39-5.386-12.56-9.103-16.02-16.002-5.06-10.082 0-104.94 0-127.954 0-5.853.31-34.342-2.67-37.324-2.52-2.515-.74-27.659-4.31-27.659-8.33 0-6.37 49.114-6.37 56.971l-5.34 77.32c0 3.605 6.26 16.803 2.67 23.992-.45.913-4.28 6.944-5.35 7.99-12.32 12.308-64.47-25.573-66.61-31.982-2.09-6.277 4-20.936 4-27.791 0-2.759-1.6-22.295 0-25.5 5.39-10.794 28.1-37.448 31-49 1.65-6.565 3.49-16.226-3.08-9.66-4.77 4.763-35.48 55.196-45.38 45.314-13.43-13.421-8.42-88.381-13.34-93.3-5.82-5.809-16.05-5.364-26.7-13.331z"/><path fill="#cfe9f8" d="M513.5 527.119c-119.101 19.553-372.055 85.216-483.027 122.069L0 762.914c72.986-36.31 256.456-119.875 406.447-163.654 149.991-43.78 213.737-89.45 226.862-106.813 10.095-10.274 44.595-46.288 101.836-108.148 71.55-77.325 114.881-80.951 124.366-78.409s55.554 1.342 67.467 1.148 34.268-7.747 53.973.919c15.764 6.932 21.099 20.325 21.799 26.155l4.74 1.271c.99-3.686.46-13.083-9.572-21.187 19.312 3.819 33.562-5.114 38.272-10.059.92.809 1.73 1.14-2.31-4.006-30.06 17.339-38.589 4.897-44.912 3.202-6.323-1.694-6.211-8.436-1.469-7.165 22.551 4.35 44.291-13.527 59.901-21.195s42.06 1.113 42.48-.467l1.27-4.738c-2.74-2.427-31.3-3.31-33.62-7.316 13.41-4.532 30.83-7.541 37.85-8.479 1.2-.245 3.93-1.996 5.28-7.051-4.32-2.85-13.91 1.35-41.44 9.212 13.42-4.532 17.48-16.76 17.84-22.307 1.55-5.792 3.08-17.799-3.25-19.493-.25 38.87-27.23 38.411-29.24 39.567-1.6.925 2.38-23.628 4.57-36.02l-5.28 7.05-5.3 32.438c-3.31 8.142-18.11 24.603-50.837 25.315 35.187-14.951 52.597-59.268 56.897-79.558l-11.06-2.965c1.12 4.251-.09 19.278-13.86 45.383 6.26-13.222.38-30.935-3.33-38.138l-7.17 1.464c4.8 5.239 12.12 20.517 2.91 39.718-11.52 24.002-32.291 31.978-52.644 38.376-20.352 6.397-48.919 5.514-72.321 4.322-18.722-.953-34.016.479-39.323 1.314-3.971.065-11.258-.985-8.639-5.7 6.013-3.468 48.522-29.322 56.115-32.367s29.215-14.18 33.535-11.329c3.455 2.28 19.563 9.192 27.186 12.363 1.863-.629 5.295-3.321 4.12-9.054-5.736 1.172-17.917-4.8-23.29-7.933l9.174-2.621c5.552.359 18.259.153 24.672-3.546s15.601.794 19.393 3.503l2.963-11.057c-3.896-4.429-28.257 4.28-42.908 2.047 5.736-1.172 15.054-14.024 18.996-20.304l-5.477-4.854c-1.552 5.792-6.321 17.267-12.983 16.837 2.28-3.452 2.718-12.251 2.651-16.219l-4.742-1.271c-.357 5.547-1.957 17.421-5.502 20.534-4.432 3.891-23.739 19.033-47.564 19.421-19.06.31-17.427-2.412-14.227-3.812 13.68-11.007 43.677-34.006 54.222-37.952 13.183-4.933 19.929-4.818 33.734.574 11.044 4.313 11.829 12.763 10.842 16.449.772 1.335 3.286 2.912 7.17-1.465-2.315-4.006-1.78-12.328.224-13.484 1.603-.924 8.253 5.033 11.377 8.128-.104-1.721-1.006-6.364-3.784-11.172-10.456-1.447-30.422-8.716-39.098-12.169 9.597-4.2 31.321-11.923 41.438-9.212 10.12 2.711 13.55 12.66 14 17.296l5.59-1.888c-.84-5.304-4.87-17.22-14.31-22.458 6.41-3.699 15.96-4.753 19.93-4.818l2.11-7.897c-10.61 1.67-36.795 7.069-56.622 15.3 10.725-14.733 27.672-16.851 34.802-16.069l1.7-6.318c-3.31-.32-11.663-.754-18.664.079 3.207-1.849 9.709-10.941 12.56-15.256l-3.05-7.589c-3.377 4.173-12.706 14.54-23.003 22.616-1.514-4.469-3.643-11.698-4.519-14.754-2.39.488-6.644 3.298-4.543 10.633 9.995 19.607-7.93 23.269-20.801 33.364 4.561-6.904-.68-22.755-3.871-29.818-.527-.141-2.552.671-6.435 5.048 4.742 1.271 7.145 23.922-.561 33.708-14.001 1.666-42.19 22.554-54.534 32.79-3.199 1.4-14.202-5.21-7.699-14.302 8.128-11.366 13.612-32.481 17.733-41.535 4.12-9.053 41.849-57.702 48.284-62.75 6.436-5.047 19.071.503 28.556 3.044 7.588 2.034 12.78 11.325 14.427 15.717l7.17-1.465c-1.017-2.53-5.241-9.53-14.004-17.296 14.34-2.93 26.846.986 31.304 3.31l5.28-7.05c-1.68-2.145-6.72-6.541-13.381-6.972-8.328-.538-29.837 3.856-35.003 4.164-5.166.31-1.892-5.585 4.966-12.212 5.487-5.302 27.108-14.745 37.228-18.804l-2.199-10.748c-2.145 1.683-11.139 6.157-29.95 10.598 5.149-4.038 5.191-25.696 4.569-36.02l-6.324-1.695c-2.435 11.198-7.73 35.173-9.423 41.491-2.116 7.898-13.406 18.416-12.871 10.095 11.92-29.31 7.689-64.529 4.083-78.474l-7.593 3.044c3.435 8.257 8.342 28.307.485 42.454.18-10.787-6.514-22.061-9.883-26.35-2.004 1.156-5.549 4.27-3.697 7.474 11.688 13.29 11.016 53.74 2.576 59.943-6.751 4.963-43.499 49.453-59.333 70.605-.734-3.583 2.25-18.183 6.492-44.133 9.38-6.967 21.427-21.91 26.278-28.51-2.287 2.208-9.095 7.382-18.037 10.403 4.561-6.904 4.813-34.826 4.369-47.925l-7.17 1.465c-.788 15.59-5.639 52.663-18.734 76.241-1.086-11.126-7.813-23.537-11.041-28.352l-8.751 1.04c3.05 7.59 9.483 26.581 10.817 41.836 1.668 19.07 4.805 45.304-14.415 79.092s-78.944 75.915-78.944 92.273c0 3.596-94.211 103.718-114.364 122.019s-67.386 80.586-135.5 94.5"/><path fill="#cfe3fc" d="M2117.05 514.208c27.77 44.672 241.11 248.034 314.19 313.639l-2.74 55.273-186.3-182.734c-7.31-9.154-38.73-44.123-105.97-110.766-84.04-83.302-164.43-241.102-173.56-251.172s-37.45-10.07-58.46-7.323-25.58 18.308-31.06 22.885-1.83 16.478 1.83 21.97c2.92 4.394 12.17 8.544 16.44 10.07v1.83c-3.35 0-11.69-1.281-18.27-6.407 2.19 10.984 8.22 15.562 10.96 16.477 0 .915-.55 3.112-2.74 4.577-8.77-1.465-16.44-18.308-19.18-26.547-1.53.915-5.12 4.577-7.31 11.9s.91 8.544 2.74 8.239l-2.74 1.831c-2.13-1.221-6.03-4.76-4.57-9.154-4.38 2.197-3.04 10.069-1.83 13.731h-2.74c-1.82-2.746-3.83-11.534 2.74-24.716-5.68 5.126-19.42 5.187-25.57 4.577v-3.662c4.87-.915 15.89-3.661 21.01-7.323-1.47-.732-3.05-5.798-3.66-8.239l1.83-1.831c2.13 4.577 7.31 13.365 10.96 11.901 4.57-1.831 11.88-14.647 7.31-19.224-7.31 5.493-18.27.915-24.67 2.746-5.11 1.465-4.56 10.985-3.65 15.562l-2.74.916c-1.52-3.967-3.47-13.182.91-18.309-4.38 0-12.18-8.543-15.53-12.815l2.75-8.239c2.43 2.441 9.5 8.056 18.26 10.985-1.46-2.197-4.87-10.07-6.39-13.731l3.65-4.577c.31 3.966 2.56 13.182 9.14 18.308 8.22 6.408 16.44 5.492 25.58-8.239 9.13-13.731 23.75-22.885 45.67-22.885-13.7-32.04-22.84-25.632-45.67-32.04-22.84-6.408-48.42 8.239-64.86 20.139-13.15 9.521-8.53 27.158-4.57 34.786l-3.65 1.831c-3.35-6.103-8.95-19.59-4.57-24.716-11.69.732-23.75-4.577-28.32-7.324l1.83-3.661c2.13 1.22 7.31 3.295 10.96 1.831-2.19 0-5.78-6.713-7.31-10.07l2.74-3.662c3.96 5.188 12.98 15.562 17.36 15.562 5.48 0 5.48-5.492 10.96-11.9s4.57-7.323 0-7.323-28.32 1.831-31.97 0c-2.92-1.465-6.7-4.273-8.22-5.493 1.22-1.221 4.02-3.295 5.48-1.831 7.31 4.394 20.1 3.051 25.58 1.831 2.43-.61 6.21-2.197 1.82-3.661-4.38-1.465-21.31-14.647-29.23-21.055.61-1.526 2.38-4.028 4.57-1.831 6.35 7.324 16.44 10.07 14.62 7.323-1.83-2.746 0-8.238 0-9.154 0-.732 1.21-.915 1.82-.915.31 2.441 1.65 8.605 4.57 13.731s23.14 7.628 32.89 8.239c4.87.61 15.16.732 17.35-3.662 2.74-5.493-31.06-21.054-41.11-24.716-8.03-2.929-16.13 3.662-19.18 7.323-.91.611-2.92 1.465-3.65 0 1.46-2.929 11.57-9.764 16.44-12.816h-16.44c-8.04 0-13.7 6.714-15.53 10.07l-3.66-.915c.31-2.747 3.84-9.155 15.53-12.817-4.38-1.464-11.57-6.102-14.61-8.238-1.52-.915-3.11-2.746 2.74-2.746 2.19 2.931 11.26 7.324 15.53 9.154 4.57.305 15.89 1.465 24.66 3.661-4.57-1.831-16.44-14.646-25.58-19.223-7.3-3.662-18.27-2.136-22.83-.915l-1.83-2.747c1.83-1.22 8.04-3.478 18.27-2.746-1.46-.733-7.92-6.408-10.96-9.154l2.74-2.746c2.74 3.051 9.68 9.52 15.53 10.985-4.39-2.93-5.48-12.206-5.48-16.478h4.56c-1.65 4.393 3.58 13.426 6.4 17.393 6.7 3.051 20.83 10.983 23.75 18.307s9.74 12.206 12.79 13.733c3.65.915 10.41 2.196 8.22 0-2.74-2.746-15.53-22.888-27.41-41.194-9.5-14.645-27.1-15.257-34.71-13.731.61-1.831 5.3-4.944 19.19-2.748-4.39-5.859-13.4-6.102-17.36-5.492 5.48-1.83 18.27-3.844 25.58 2.747 9.13 8.238 23.75 28.378 43.84 58.586 16.08 24.167 37.15 28.378 45.68 27.463-5.79-10.07-16.99-32.041-15.53-39.364-1.46-2.198-10.96-3.356-15.53-3.661-.91-1.22-2.19-4.028 0-5.494 4.57-1.832 10.96 1.833 20.1 5.494 2.92-2.928 2.43-10.984 1.82-14.646.92-.916 3.29-2.747 5.48-2.747 2.93 5.859-3.65 18.309-7.3 23.801 1.22.916 4.75 2.746 9.13 2.746 4.39 0 14.01-6.102 18.27-9.154l3.66 3.661c-.92.915-5.12 3.663-14.62 7.324 7.31-1.463 14.01 2.442 16.44 4.577.61 1.526 1.1 4.577-1.82 4.577-8.77-4.394-19.49-4.882-23.76-4.577.92 3.967 4.02 14.098 9.14 22.886 6.39 10.985 25.58 12.816 32.89 15.562 5.84 2.197 29.84 12.51 41.1 17.393-2.43-5.798-8.58-21.055-13.7-35.701s-33.19-70.371-45.67-87.764l16.44 6.291c9.44 15.257 29.78 46.503 35.62 49.432-2.92-7.324 2.44-26.852 5.49-35.7 1.82-1.526 6.94-3.845 12.78-.916-16.44 49.433-.91 52.179 2.74 58.587 4.39-5.859 13.4-42.72 17.36-60.418l8.22-5.493c-2.06 5.601-6.79 20.54-9.74 36.732 1.88-5.459 11.12-21.2 16.14-29.408h6.39c-9.74 15.867-30.33 52.727-34.71 73.234-4.39 20.506 6.09 46.991 11.87 57.671l65.78 110.765c3.65 7.323 12.05 20.689 16.44 15.562-3.66-16.477-4.57-70.487-5.48-108.019-.92-37.531 7.31-73.233 8.22-88.795s-11.88-21.972-22.84-23.802c-32.79-10.254-48.37 1.83-52.07 9.154-1.22-.61-3.65-2.196-3.65-3.661 11.87-25.631 54.81-10.985 55.72-14.648.73-2.93-14.92-21.969-22.84-31.122 2.74-.916 10.42-3.113 19.19-4.577 4.38 3.661 16.44 18.002 21.92 24.714l3.66-15.56 24.66-.916c-2.44 7.324-6.94 24.167-5.48 32.955s-3.05 52.483-5.48 73.232c-.92 7.629-2.19 23.253 0 24.718 2.74 1.831 8.22-13.731 11.87-20.139 3.66-6.409 37.46-45.772 39.28-46.687 1.83-.914-2.74-19.223-1.82-31.124-6.58-16.843-21.01-12.51-27.41-8.238l-1.83-4.578c4.27-4.577 16.08-10.618 29.24 1.831-1.47-7.323 2.43-22.58 4.56-29.294l11.88 3.663c-2.74 10.985-7.49 35.518-4.57 45.77 3.66 12.816 4.57 8.239 10.96 3.661 6.4-4.579 10.05-28.377 8.22-31.123-1.46-2.196-7.91-10.68-10.96-14.647l2.74-1.831 9.14 9.155-.92-13.732 4.57-1.83c2.13 2.441 6.03 12.998 4.57 35.699 15.53-9.154 10.05-23.799 9.13-26.545-.73-2.197 2.75-4.577 4.57-5.493.31 1.526 1.28 6.591 2.74 14.647 5.12-2.929 7.61-12.816 8.22-17.394 1.22-.305 3.66.366 3.66 5.493-1.46 8.788-8.53 16.477-11.88 19.224-.3.915 0 2.746 3.66 2.746 18.27-7.324 19.79-20.75 18.27-26.547h4.56c1.83 2.136 3.48 8.971-4.56 19.223 5.11-2.93 17.35-1.221 22.83 0 0 1.22-.54 3.661-2.74 3.661-15.53-2.746-36.54 9.155-42.02 10.985-4.09 1.366-15.38 11.328-21.57 17.121 1.63.075 4.82.844 10.61 3.019 14.62 5.492 22.84 1.83 30.15 0 5.84-1.465 10.96-7.934 12.78-10.985l3.66 1.83c-1.52 2.442-5.85 7.69-10.96 9.155 3.65.732 13.09 7.018 17.35 10.069l-3.65 3.662c-2.13-1.526-7.49-4.943-11.88-6.408-5.48-1.831-17.35 0-21.01 0-2.92 0 6.7 6.713 11.88 10.07l9.13 13.731-1.82 2.746c-1.83-2.136-6.22-6.957-9.14-9.154-3.65-2.746-15.53-10.07-18.27-10.985s-1.82 4.577 0 10.985c1.83 6.408 5.48 9.154 6.4 16.478.73 5.858 1.52 7.933 1.82 8.238-1.52 1.526-4.75 3.662-5.48 0s-3.35-10.069-4.56-12.816c-1.53 3.357-4.57 12.085-4.57 20.14-4.57-4.578-1.83-15.562 0-22.886 1.82-7.323-7.31-26.547-11.88-26.547s-21.01 15.562-33.8 29.293c7.31-.915 10.05 2.747 18.27 4.578 4.11.914 9.38-1.695 13.73-4.75l6.37-5.32c-1.49 1.489-3.76 3.485-6.37 5.32l-10.07 8.411h11.87l-11.87 2.746c1.82 1.221 5.84 3.845 7.3 4.578 1.47.732 6.7 6.408 9.14 9.154-1.52 0-4.93-.549-6.39-2.747-1.83-2.747-13.71-7.323-10.97-4.577 2.2 2.197 2.13 11.291 1.83 15.564-.61-1.221-2.37-5.127-4.57-10.987-2.74-7.324-2.74-8.238-8.22-11.899-5.48-3.662-11.87-1.831-17.35 0-5.49 1.831-8.23 11.9-1.83 14.646 6.39 2.747 17.35 2.747 19.18 4.577 1.46 1.465 7.92 9.765 10.96 13.732-2.74-2.746-9.13-8.604-12.79-10.069-4.56-1.831-17.35-3.662-15.52 0 4.56 0 13.7 6.408 15.52 10.069 1.47 2.93 3.66 7.934 4.57 10.07l-4.57 2.746c-1.82-3.967-6.02-12.449-8.22-14.646-2.19-2.197-13.7-5.188-19.18-6.408-2.74 2.136-10.78 11.168-21.01 30.208-15.53 20.14-15.53 36.617-10.96 52.179s8.22 62.248 31.97 118.089"/><path fill="#b8d7eb" d="M484.548 630.885s93.009-76.281 119.272-177.199c26.262-100.917 114.792-341.755 111.764-354.358-3.027-12.603 13.493-9.296 13.493-9.296s-33.335 138.325-53.749 201.123-5.76 61.706 35.854 28.644C798.594 250.353 946.49 25.365 946.49 25.365l13.72 8.1s-164.061 244.568-236.398 299.68-49.355 17.784-69.124 73.55c-19.768 55.767-84.435 228.523-167.011 283.435-11.814-31.413-3.122-59.219-3.122-59.219z"/></svg>