<svg xmlns="http://www.w3.org/2000/svg" width="1103" height="238" fill="none" viewBox="0 0 1103 238"><path fill="#fff" d="M233.692 8.33c-2.46-2.46-21.95.41-24.65 1.49-2.99 1.2-5.23 4.72-7.47 6.72-5.23 4.68-10.24 9.11-14.7 14.48-2.84 2.1-5.61 4.31-8.34 6.55.34-.4.68-.79 1.02-1.13 2.69-5.18 4.62-10.69 7.39-15.84 2.36-4.39 3.17-9.79 3.17-14.79 0-1.8 2.33-6.55 1.06-5.28-7.3 7.3-13.14 19.36-16.37 29.05-.95 2.85 1.18 5.96 0 9.51-.12.35-.41 1.22-.68 2.16-1.65 1.4-3.3 2.81-4.94 4.23 1.83-5.2 2.62-11.07 2.98-16.42.24-3.65-.16-8.05-1.06-11.62-1.92-7.67-2.53-15.48-2.6-16.87-.25.47-.98 1.02-1.09 1.56-.52 2.62-1.34 5.19-1.58 7.92-1.08 11.87-4.75 28.47-4.75 38.56 0 .63-.21 2.37-.32 4.15a408 408 0 0 1-6 5.01c2.39-5.22 6.19-12.27 4.63-16.93-1.32-3.96-4.58-17.8-4.11-22.03.32-2.89 3.23-13.21 1.12-15.31-.56-.56-.4 1.54-.75 2.24-1.2 2.39-2.77 4.88-3.36 7.84-.48 2.38-2.64 4.27-2.99 6.72-1.53 10.68-.56 19.63 1.49 29.88.6 2.98.22 6.57 1.71 9.45-.09.07-.18.15-.26.22a115 115 0 0 0-6.03 5.19c.28-4.98.45-9.98-.45-14.84-.59-3.19-1.38-6.34-2.11-9.51-11.95-51.79-13.13 9.22-2.12 28.91-2.16 2.19-4.25 4.45-6.28 6.77.12-4.38-.21-8.92-1.26-13.12-.91-3.64-2.79-8.56-4.48-11.95-1.47-2.94-4.97-5.94-5.98-8.96 0-.03-1.11-2.63-1.49-2.24-2.85 2.85-1.05 12.67-.37 16.06 1.61 8.03 6.1 14.56 8.59 22.03.13.39.53 1.65.97 2.93-2.4 2.92-4.73 5.9-7 8.91.68-4.54-1.59-8.93-2.77-13.42-11.18-42.48-11.44.85 1.47 15.17-4.29 5.75-8.39 11.56-12.42 17.2-.69.97-7.98 8.92-6.87 10.03 1.02 1.02 8.5-7.12 16.39-16.25 7.55 11.96 38.68 11.37 8.96 1.46-5.51-1.84-4.34-1.39-7.8-2.79 1.85-2.15 3.46-4.07 5.25-6.19 14.77 12.49 56.72 12.12 14.69 1.06-4.42-1.16-8.76-3.38-13.22-2.79 1.92-2.27 3.91-4.6 5.51-6.5.15.62.41 1.15.85 1.37 7.06 3.53 41.73 11.08 47.01 5.81.08-.08-7.68-3.68-13.2-5.81-5-1.92-9.36-3.97-14.79-4.23-5.82-.28-11.68.17-17.5.08 1.73-2.03 3.17-3.7 3.77-4.3 1.03-1.03 3.38-3.48 5.57-5.76 15.12 13.18 86.76 12.61 31.92-.05-3.16-.73-6.31-1.52-9.51-2.11-6.6-1.22-13.46-.52-20.17-.16 2.51-2.61 5.55-5.73 8.52-8.77 5.65 9.79 39.05 5.64 48.62 1.54 2.24-.96 4.54-1.12 6.87-1.58.54-.11 1.05-.76 1.52-1.23-1.67-.44-4.42-1.49-5.75-1.93-5.33-1.78-10.65-.77-16.37-1.58-3.67-.52-7.32-.53-11.09-.53-7.52 0-15.06 2.06-22.27 3.75 1.34-1.37 2.56-2.61 3.91-3.97.08.04.16.07.26.07.02 0 .31-.4.44-.56 2.32.18 6.1-.36 7.1-.36 10.09 0 26.69-3.68 38.55-4.75 2.73-.25 5.3-1.06 7.92-1.58.54-.11 1.09-.85 1.56-1.09-1.4-.07-9.2-.69-16.87-2.6-3.57-.89-7.97-1.3-11.62-1.06-6.44.43-13.62 1.48-19.5 4.21 2.41-2.32 4.65-4.4 6.48-5.96 1.22-.3 2.53-.75 2.98-.9 3.55-1.18 6.66.95 9.51 0 9.69-3.23 21.75-9.07 29.05-16.37 1.27-1.27-3.49 1.06-5.28 1.06-5 0-10.4.8-14.79 3.17-3.29 1.77-6.72 3.21-10.12 4.7.72-.63 1.45-1.27 2.18-1.93 2.62-.82 4.9-4.44 7.44-6.4.02-.02.05-.04.07-.06.96-.73 1.95-1.21 3.01-1.21 7.93 0 16.72-4.8 23.53-9.34 3.01-2 5.52-5.26 8.59-7.1.62-.37 2.38-.61 1.87-1.12zm-16.53 40.9c.14 0 .56.04.56.04-.17-.17-.35-.14-.56-.04m-4.26 12.53c1.14.3 1.79.32 1.12-.35-.34-.34-.71-.06-1.12.35M168.492.56c.1-.2.13-.39-.04-.56zm-60.57 76c-4.12-3.82-1.6 18.58 9.3 22.21-2.73-6.83-1.51-3.48-3.7-10.04-2.46-7.38-4.34-11.01-5.61-12.18z"/><path fill="#fff" d="M206.792 223.74c3.11-4.48 20.591-40.49 16.77-44.32-6.55-6.55-17.9-7.14-25.15-11.98-8.18-5.46-11.87-15.46-17.97-21.56-3.84-3.84-8.95-5.35-13.17-9.58-6.68-6.68 32.37.04 28.75-3.59-11.57-11.57-22.76-17.77-22.76-37.13 0-3.58-2.78-8.82-1.2-11.98 4.54-9.08 39.24 23.95 45.51 23.95.39 0-2.39-7.17-4.789-15.57-1.18-4.13-2.591-7.98-3.591-11.98-.29-1.16 1.2-3.59 0-3.59-.35 0 5.341 3.81 5.99 4.79 1.59 2.39 15.711 20.23 16.77 19.16 3.801-3.8 7.17-23.92 11.98-31.14 8.33-12.5 19.821-15.47 31.141-23.95 2.15-1.61 6.37-6.39 9.58-4.79 4.92 2.46 11.83 19.31 5.99 25.15-1.8 1.8-7.01.85-8.38 3.59-1.75 3.51 7.15 7.22 4.79 9.58-13.64 13.64-6.95 16.29-14.37 31.14-1.83 3.66 6.51 2.55 4.79 5.99-.28.56-3.86 4.79-3.59 4.79.679 0 33.049-20.72 37.129-22.76 3.55-1.78 11.65-6.31 15.57-2.4.551.55 5.61 7.94 5.99 7.19 1.25-2.49.34-7.95 3.59-9.58 2.92-1.46 15.3 8.11 16.77 9.58 3.511 3.51-15.419 19.86-17.97 21.56-6.22 4.15-15.68 6.09-20.36 10.78-2.58 2.58-7.68-5.5-9.58-3.59-8.69 8.69 5.16 2.21-9.58 9.58-2.39 1.19-15.57 2.79-15.57 4.79 0 .21 6.06 1.2 7.19 1.2 5.68 0 10.49 2.32 15.57 3.59 10.62 2.65 2.02 5.61 7.19 10.78.88.88 5.85-6.29 7.19-7.19.4-.27 4.59 3.03 5.99 3.59 2.75 1.1 6.01.62 8.38 2.4 1.53 1.15 17.77 9.78 15.57 11.98-2.36 2.36-6.759 6.18-10.78 7.19-2.01.5-47.849 3.65-47.909 3.59-1.29-1.29-1.41-6.2-2.4-7.19-2.54-2.54-7.551 6.17-9.58 7.19-3.87 1.93-13.551 0-17.971 0-3.32 0 .971-9.51-2.4-8.38-7.409 2.47-6.919 5.46-9.579 10.78-1.41 2.82-5.66-.32-7.19 1.2-1.22 1.22.27 7.97 0 9.58-4.61 27.63 2.119 44.78-32.341 27.55z"/><path fill="#fff" d="M146.573 230.92c-3.11-4.48-20.59-40.49-16.77-44.32 6.55-6.55 17.9-7.14 25.15-11.98 8.18-5.46 11.87-15.46 17.97-21.56 3.84-3.84 8.95-5.35 13.17-9.58 6.68-6.68-32.38.04-28.75-3.59 11.57-11.57 22.76-17.77 22.76-37.13 0-3.58 2.78-8.82 1.2-11.98-4.54-9.08-39.24 23.95-45.51 23.95-.39 0 2.39-7.17 4.79-15.57 1.18-4.13 2.59-7.98 3.59-11.98.29-1.16-1.2-3.59 0-3.59.35 0-5.34 3.81-5.99 4.79-1.59 2.39-15.71 20.23-16.77 19.16-3.8-3.8-7.17-23.92-11.98-31.14-8.33-12.5-19.82-15.47-31.14-23.95-2.15-1.61-6.37-6.39-9.58-4.79-4.92 2.46-11.83 19.31-5.99 25.15 1.8 1.8 7.01.85 8.38 3.59 1.75 3.51-7.15 7.22-4.79 9.58 13.64 13.64 6.95 16.29 14.37 31.14 1.83 3.66-6.51 2.55-4.79 5.99.28.56 3.86 4.79 3.59 4.79-.68 0-33.05-20.72-37.13-22.76-3.55-1.78-11.65-6.31-15.57-2.4-.55.55-5.61 7.94-5.99 7.19-1.25-2.49-.34-7.95-3.59-9.58-2.92-1.46-15.3 8.11-16.77 9.58-3.51 3.51 15.42 19.86 17.97 21.56 6.22 4.15 15.68 6.09 20.36 10.78 2.58 2.58 7.68-5.5 9.58-3.59 8.69 8.69-5.16 2.21 9.58 9.58 2.39 1.19 15.57 2.79 15.57 4.79 0 .21-6.06 1.2-7.19 1.2-5.68 0-10.49 2.32-15.57 3.59-10.62 2.65-2.02 5.61-7.19 10.78-.88.88-5.85-6.29-7.19-7.19-.4-.27-4.59 3.03-5.99 3.59-2.75 1.1-6.01.62-8.38 2.4-1.53 1.15-17.77 9.78-15.57 11.98 2.36 2.36 6.76 6.18 10.78 7.19 2.01.5 47.85 3.65 47.91 3.59 1.29-1.29 1.41-6.2 2.4-7.19 2.54-2.54 7.55 6.17 9.58 7.19 3.87 1.93 13.55 0 17.97 0 3.32 0-.97-9.51 2.4-8.38 7.41 2.47 6.92 5.46 9.58 10.78 1.41 2.82 5.66-.32 7.19 1.2 1.22 1.22-.27 7.97 0 9.58 4.61 27.63-2.12 44.78 32.34 27.55zM1005.07 136.023c-1.91-18-11.342-37.85-1.54-54.83 1.8-3.11 1.92-8.41 5.39-9.34 2.54-.68.95 64.17 1.5 64.48.05.03 4.44-21.61 4.56-22.26 1.29-7.29 8.82-55.28 20.45-54.58 5.92.36-6.85 46.16-8.99 51.51-1.2 2.98-5.35 8.71-5.55 12.01-.05.89-.61 3.45-.16 2.67 3.72-6.44 33.73-84.04 39.41-75.44 3.31 5.01-16.47 47.69-20.45 54.58-2.16 3.74-3.25 8.02-5.55 12.01-.6 1.04-2.83 2.51-1.8 3.11 4.15 2.4 4.79-8.3 7.19-12.45 2.57-4.45 41.07-62.04 47.5-58.32 1.92 1.11-29.55 46.39-32.02 50.67-.24.42-10.82 15.88-10.62 16 3.19 1.84 4.91-5.49 7.46-8.14 9.41-9.73 20.56-19.29 31.17-27.64 2.33-1.83 18.66-8.88 19.63-5.26.83 3.11-36.67 31.65-42.51 37.69-4.82 4.99-11.5 9.96-11.34 10.05.77.45 1.49-.98 2.24-1.48 6.75-4.45 39.31-25.71 45.85-21.93 16.26 9.39-59.33 41.81-60.94 40.88-.16-.09 11.06-2.96 11.45-3.07 3.63-.97 38.52-7.08 38.19-1.46-.98 16.38-59.85 15.03-61.73 18.3-.47.81 7.65.36 8.02.48 6.33 2.14 40.97 5.69 36.19 13.98-8.61 14.9-57.18-10.98-60.57-10.07-1.99.53-25.932 30.86-29.492 17.55-.53-1.99 25.402-21.71 28.182-22.46 1.11-.3-1.57-5.86-1.75-6.54-.81-3.03.43-7.19.64-10.69z"/></svg>