<svg width="610" height="610" viewBox="0 0 610 610" fill="none" xmlns="http://www.w3.org/2000/svg">
<path d="M548.907 122.875C649.227 257.847 621.135 448.588 486.163 548.907C351.191 649.227 160.45 621.135 60.1305 486.163C-40.1887 351.191 -12.097 160.45 122.875 60.1305C257.847 -40.1887 448.588 -12.097 548.907 122.875Z" fill="url(#paint0_radial_984_90)"/>
<path d="M111.197 430.93C107.482 432.622 101.638 432.988 93.5955 432.614C79.4216 424.875 47.6686 397.443 34.0475 349.619C35.5592 347.768 36.3578 346.469 36.6733 344.972C36.8259 341.833 37.0186 337.775 36.433 332.671C34.705 326.994 33.7653 321.044 28.4491 316.678C23.8933 312.937 19.349 310.554 15.9689 304.203C3.81253 281.365 30.2357 258.038 26.9805 226.874C25.7484 215.077 28.5439 193.44 36.7223 186.509C40.1078 183.64 42.5331 180.333 45.4626 177.874C52.9137 171.62 57.4804 168.668 60.9056 163.172C67.1067 153.221 73.9123 145.921 79.7324 137.426C83.741 131.576 82.9134 121.973 88.5042 119.518C89.7175 118.985 91.1284 118.926 92.8054 118.823C99.6176 118.407 105.957 118.191 115.088 118.323C128.249 118.513 137.527 119.52 141.797 115.181C148.3 108.572 152.522 102.686 168.316 92.8073C175.853 88.0929 181.9 85.8859 187.065 86.1923C192.854 86.5357 199.667 87.4772 206.226 87.996C214.054 88.6153 225.403 87.2731 234.567 85.1002C240.926 83.5922 246.123 82.7981 253.894 83.0484C262.851 83.3369 270.087 78.9922 273.42 82.2558C278.626 87.3533 283.623 95.19 285.402 101.528C287.885 110.371 287.195 117.671 294.833 127.856C296.635 130.259 298.633 131.898 300.369 131.189C304.057 129.683 308.46 126.907 313.319 125.125C318.504 123.223 323.69 118.695 329.327 115.002C335.458 110.985 343.142 106.088 350.281 106.758C352.006 106.92 353.79 107.665 355.275 108.938C361.182 114.001 365.58 124.298 371.608 121.015C377.824 117.63 384.74 111.824 390.6 110.647C392.591 110.247 393.188 111.293 393.377 112.507C394.38 118.927 393.029 129.06 395.198 135.573C395.627 136.863 396.252 138.049 397.692 138.174C401.12 138.47 409.231 134.307 416.341 137.145C417.595 137.645 418.288 138.545 418.927 139.682C421.688 144.591 427.364 148.839 430.886 154.325C434.373 159.758 436.199 165.82 434.072 172.798C432.102 179.262 429.131 184.485 428.558 191.521C427.908 199.489 433.861 205.797 430.557 210.513C428.744 213.101 423.674 214.405 419.934 219.478C419.045 220.684 418.338 222.169 419.138 223.657C420.985 227.092 424.313 229.162 427.104 232.922C435.614 244.385 438.311 254.025 446.386 256.692C454.719 259.443 470.756 259.925 470.353 268.831C469.595 285.558 461.929 309.984 465.743 315.374C469.054 320.051 473.341 325.016 478.615 324.505C484.455 323.939 494.786 324.324 496.293 329.384C497.247 332.589 495.458 336.725 495.674 345.371C495.985 357.78 496.802 368.095 487.517 374.206C480.792 378.632 469.979 382.791 465.812 379.26C459.589 373.988 448.947 362.938 450.935 357.525C453.188 351.392 458.521 340.22 454.453 334.224C452.608 331.505 450.501 328.621 447.974 328.896C445.175 329.202 439.558 331.192 439.352 328.525C439.144 325.835 438.733 315.449 431.277 312.423C429.723 311.793 427.893 311.456 426.275 311.693C420.636 312.515 414.481 315.87 406.405 314.692C400.193 313.786 391.776 315.326 386.916 312.426C385.975 311.864 385.161 310.577 385.139 309.293C385.095 306.839 393.482 294.754 386.66 290.507C383.665 288.643 379.961 286.687 380.33 283.631C381.23 276.188 381.854 266.652 386.443 255.39C388.84 249.508 393.214 241.459 390.57 234.844C389.96 233.319 388.551 231.897 387.116 231.182C385.681 230.468 384.242 230.301 382.915 230.573C377.959 231.588 372.955 232.291 355.314 229.673C347.123 228.457 323.708 233.132 317.043 223.92C316.454 223.106 316.533 221.896 317.014 220.011C319.203 211.439 323.432 203.084 320.93 196.778C320.324 195.25 319.419 193.157 317.181 192.245C306.64 187.947 295.755 190.504 291.389 187.023C289.657 185.642 295.164 168.31 283.014 164.519C276.275 162.416 270.126 162.114 267.107 163.734C261.099 166.959 257.419 178.835 249.962 178.787C247.109 178.769 242.814 174.291 233.973 171.417C232.316 170.879 231.309 171.461 229.996 172.074C221.469 176.054 208.361 182.992 197.725 182.853C190.889 182.763 182 181.077 179.759 186.967C177.952 191.716 179.186 199.968 177.578 210.189C175.805 221.457 175.384 230.752 168.968 231.683C162.694 232.593 155.557 235.439 146.749 241.433C132.344 251.237 123.539 250.266 118.608 256.302C109.295 267.705 107.908 274.539 108.27 281.663C108.792 291.947 106.123 297.061 108.21 303.624C109.537 307.798 111.032 311.607 113.622 312.065C120.005 313.192 132.368 305.742 136.07 311.592C137.142 313.286 134.956 316.786 134.302 321.471C134.022 323.476 134.683 325.435 137.36 325.989C144.102 327.384 154.072 322.277 163.079 329.688C167.166 333.05 170.026 337.288 169.486 340.753C169.268 342.15 168.402 342.95 167.261 343.278C164.917 343.951 157.159 341.342 155.172 347.659C152.098 357.435 156.454 383.165 147.577 376.258C142.531 372.331 139.307 367.623 134.572 367.393C133.451 367.338 131.985 367.81 132.239 368.8C132.891 371.347 137.088 389.892 126.631 411.519C120.898 423.378 115.868 428.803 111.197 430.93Z" fill="url(#paint1_linear_984_90)"/>
<path d="M131.03 448.129C134.736 444.35 138.388 442.347 141.116 442.358C145.276 442.357 145.774 438.896 146.798 437.96C148.536 436.154 150.811 432.742 153.799 429.141C154.24 428.112 154.56 426.683 154.14 425.447C152.265 419.939 146.173 416.389 143.937 412.428C142.848 410.498 141.624 408.109 142.357 405.887C142.731 404.755 143.572 403.527 144.748 403.096C147.034 402.257 150.534 402.691 153.603 401.144C154.982 400.449 155.751 399.197 156.252 397.785C156.752 396.373 157.259 394.723 156.419 393.18C154.559 389.762 152.245 386.794 149.882 386.728C144.969 386.589 138.883 386.198 135.241 381.103C130.434 374.379 124.506 369.093 126.141 356.088C127.779 343.06 131.385 334.241 133.049 327.297C134.598 320.83 139.335 317.006 141.032 310.548C141.926 307.143 142.928 303.747 140.573 300.721C132.534 290.39 120.945 283.605 122.362 274.119C122.792 271.24 124.167 268.54 123.134 266.164C121.212 261.742 116.708 257.041 119.026 250.686C119.537 249.287 120.391 248.563 121.666 248.23C126.988 246.839 131.358 239.432 138.705 239.521C140.082 239.538 141.44 240.143 141.468 241.423C141.661 250.087 138.125 264.789 142.662 272.134C145.931 277.425 149.244 280.499 159.101 291.694C164.586 297.923 166.216 304.321 169.424 311.834C173.653 321.737 169.454 330.598 173.273 337.801C174.966 340.993 177.55 343.995 181.077 345.036C183.71 345.814 187.887 347.636 189.981 344.738C192.939 340.644 196.621 334.495 194.025 332.451C192.349 331.132 188.983 330.992 188.312 328.446C187.369 324.862 186.929 317.894 189.424 310.968C191.778 304.434 195.129 299.453 196.803 292.963C198.174 287.648 200.553 279.459 203.673 273.101C206.206 267.937 206.41 257.143 211.063 253.711C211.955 253.054 212.994 252.622 214.187 252.605C215.38 252.589 216.886 252.789 217.564 253.705C218.873 255.473 216.497 259.331 219.678 268.801C220.37 270.862 221.622 271.631 222.922 272.216L222.963 272.234C224.252 272.814 225.712 273.471 227.875 272.124C233.506 268.619 236.858 264.68 238.167 262.223C239.527 259.673 240.428 256.742 239.789 253.797C238.73 248.913 237.188 244.126 238.966 244.138C241.032 244.153 244.625 244.68 246.491 242.475C247.314 241.503 247.197 240.104 247.606 238.896C249.167 234.295 256.591 219.453 250.319 212.312C248.042 209.719 243.248 206.403 243.605 200.486C243.941 194.916 240.854 187.163 248.313 179.31C252.656 174.738 261.644 168.838 271.756 166.722C279.471 165.108 284.762 164.742 288.274 160.785C292.398 156.139 293.142 148.657 296.303 145.026C297.143 144.062 298.238 143.249 299.175 143.603C300.113 143.956 301.392 145.53 300.737 147.603C297.765 157.012 297.112 162.718 296.026 167.576C294.832 172.913 288.683 173.472 274.388 188.634C271.628 191.56 272.508 192.761 272.74 194.684C273.71 202.704 267.12 210.176 268.925 217.262C269.37 219.012 270.089 221.321 271.891 222.618C278.214 227.169 291.458 226.575 287.792 229.48C284.751 231.89 278.502 233.836 279.458 237.442C280.117 239.929 282.368 244.27 284.828 245.796C291.252 249.782 302.333 249.651 302.931 255.157C303.552 260.871 304.449 266.785 300.746 271.877C297.519 276.315 291.9 278.949 290.521 286.523C289.47 292.29 295.795 300.949 294.286 307.757C293.696 310.421 291.735 313.58 289.744 317.133C287.087 321.874 288.27 329.104 283.944 331.74C278.634 334.976 269.902 333.202 270.155 337.879C270.262 339.859 274.985 342.275 275.045 347.465C275.059 348.655 274.677 349.976 273.699 350.511C269.29 352.923 263.328 353.056 257.441 355.899C256.175 356.51 255.368 357.636 255.711 359.101C256.498 362.461 258.291 365.519 261.208 366.691C267.348 369.158 273.262 370.107 277.16 374.772C285.045 384.209 292.352 389.602 295.279 398.713C295.945 400.788 295.749 402.706 294.745 403.545C292.949 405.044 289.909 406.28 287.945 408.949C287.092 410.109 286.763 411.292 287.2 412.784C289.099 419.268 294.911 424.481 292.078 429.055C290.907 430.944 284.047 440.674 287.708 448.115C290.685 454.164 299.664 456.719 300.042 461.944C300.136 463.249 299.53 464.72 298.775 465.791C298.021 466.861 297.173 467.703 295.808 467.806C292.724 468.037 285.301 464.056 273.846 465.062C266.255 465.728 258.784 464.767 254.528 467.94C252.102 469.748 252.384 476.869 247.148 479.95C244.884 481.283 239.348 478.829 235.564 483.075C234.626 484.127 234.081 485.41 233.929 486.876C233.216 493.788 238.629 499.945 237.517 503.941C237.279 504.798 236.225 505.853 235.046 505.932C232.764 506.083 230.169 506.985 226.339 506.717C216.217 506.01 208.454 505.185 204.202 499.288C198.328 491.143 200.262 480.788 196.131 475.264C195.3 474.152 194.183 472.67 192.887 472.535C190.469 472.282 185.938 471.486 185.002 474.662C183.444 479.946 186.648 494.46 183.917 491.399C182.9 490.26 180.513 485.519 175.302 484.916C172.112 484.546 168.779 486.837 165.009 486.555C161.023 486.258 156.871 476.55 148.363 475.925C145.644 475.726 139.953 479.793 132.27 476.206C130.708 475.476 129.907 474.639 129.65 473.347C129.087 470.51 131.065 466.788 130.837 462.684C130.504 456.715 128.339 450.874 131.03 448.129Z" fill="url(#paint2_radial_984_90)"/>
<path d="M447.585 262.637C449.356 260.64 450.619 260.052 450.944 260.49C450.944 260.49 456.567 262.512 457.052 263.871C457.538 265.231 457.532 266.595 458.451 268.518C461.161 272.85 465.206 276.854 468.971 276.629C470.456 276.541 471.161 275.668 471.783 274.169C474.867 266.731 478.41 259.686 483.747 256.546C484.944 255.842 486.474 255.603 487.409 256.415C489.324 258.077 490.427 261.037 491.224 264.576C492.952 272.243 494.698 280.937 499.088 283.443C501.172 284.634 503.459 285.823 505.778 285.501C510.61 284.83 514.19 278.458 519.278 278.732C520.164 278.78 521.096 279.825 521.578 281.154C523.543 286.569 526.968 296.671 532.977 298.078C534.031 298.325 535.229 297.988 536.536 298.008C541.748 298.09 549.356 298.086 551.494 303.387C552.717 306.419 553.175 309.652 552.684 312.624C551.648 318.895 550.752 331.091 547.032 337.597C543.124 344.431 532.308 352.949 535.047 358.871C536.168 361.293 537.709 364.083 540.381 364.862C545.86 366.461 553.493 371.775 554.963 367.385C555.654 365.321 558.711 362.255 564.021 353.447C567.25 348.09 567.892 341.124 568.876 335.747C569.86 330.37 572.134 324.914 570.966 316.156C570.217 310.532 567.905 306.437 566.724 302.147C565.308 296.999 561.59 291.026 562.241 283.157C562.756 276.934 563.527 268.191 568.371 257.664C571.256 251.394 575.304 244.355 572.734 238.615C568.076 228.211 558.897 216.382 556.646 210.053C554.418 203.793 553.377 195.947 550.335 185.375C548.178 177.878 540.705 175.441 539.705 169.944C538.404 162.789 539.744 151.771 537.934 147.223C535.767 141.778 531.888 133.724 521.553 131.926C518.016 131.31 514.304 131.435 511.75 133.753C510.621 134.777 509.915 136.223 510.488 137.107C511.612 138.841 517.84 137.175 526.619 153.501C532.009 163.525 535.547 168.246 534.048 172.29C533.7 173.229 532.605 174.042 531.439 174.559L531.416 174.569C530.251 175.085 528.624 175.806 528.135 174.944C525.793 170.823 524.584 162.715 519.668 162.18C517.057 161.896 513.304 161.732 512.394 164.182C511.425 166.793 510.06 169.703 510.996 171.752C513.172 176.516 519.991 177.789 525.639 185.431C527.432 187.858 527.977 190.835 529.231 193.743C531.367 198.696 535.862 204.545 533.284 208.226C531.788 210.363 520.304 211.551 523.102 215.294C526.819 220.268 533.877 218.887 536.24 223.041C536.862 224.134 536.8 225.88 536.402 227.201C536.003 228.522 535.484 229.844 533.864 230.272C525.53 232.475 516.061 233.746 510.882 231.201C506.565 229.079 503.845 220.365 498.225 220.872C496.135 221.061 493.928 222.865 491.324 222.911C488.96 222.953 485.565 218.811 480.778 213.552C476.114 208.427 465.764 205.774 464.265 199.408C463.786 197.37 466.384 192.135 458.252 184.631C453.3 180.06 443.823 179.244 442.384 173.433C441.088 168.205 445.025 156.806 439.91 150.023C438.825 148.584 437.029 147.54 435.596 147.24C434.163 146.94 433.081 147.307 431.59 148.343C428.085 150.778 423.957 154.779 425.257 158.741C428.092 167.378 442.691 177.877 439.784 182.437C438.755 184.052 435.296 186.209 435.233 189.95C435.141 195.349 435.749 200.174 431.69 203.894C430.768 204.739 429.566 204.952 428.295 204.156C427.024 203.36 425.393 201.696 425.158 200.143C424.762 197.532 431.929 192.433 428.062 189.748C426.274 188.507 422.868 184.594 417.542 185.551C410.54 186.81 400.973 186.26 399.705 190.429C398.76 193.537 398.558 197.465 395.842 200.511C388.636 208.591 378.98 211.852 379.092 217.426C379.14 219.791 382.76 229.486 390.748 234.695C393.077 236.214 397.098 236.597 401.262 238.211C402.934 238.859 403.916 239.684 404.072 241.804C404.787 251.553 401.511 255.792 401.421 260.406C401.316 265.815 399.343 271.834 402.334 275.008C405.577 278.449 410.519 280.579 416.947 283.554C424.241 286.93 426.117 296.087 430.437 297.56C435.977 299.448 444.802 303.08 447.351 297.664C449.48 293.141 453.936 287.936 451.761 281.664C449.521 275.207 443.88 266.812 447.585 262.637Z" fill="url(#paint3_radial_984_90)"/>
<path d="M483.251 116.83C484.937 115.412 485.598 113.03 487.563 112.929C488.048 111.724 489.089 111.296 490.169 111.363C492.338 111.981 493.908 113.637 495.719 115.144C500.199 118.871 506.704 124.899 503.539 128.028C500.769 130.767 497.054 133.156 494.035 132.316C491.015 131.475 486.268 127.892 483.483 121.771C482.379 119.343 482.348 117.589 483.251 116.83Z" fill="url(#paint4_radial_984_90)"/>
<path d="M49.5038 231.789C48.3337 229.743 51.1179 214.932 53.1854 204.866C54.3201 202.477 53.2298 200.712 55.9581 199.56C58.8433 199.991 61.7493 200.31 63.7145 201.701C64.7901 202.462 66.1544 203.772 65.9714 204.994C65.6257 207.301 64.9765 210.808 62.8851 215.879C59.6316 223.767 56.1246 228.816 52.3936 231.547C51.4995 232.201 50.0057 232.666 49.5038 231.789Z" fill="url(#paint5_radial_984_90)"/>
<path d="M344.572 527.457C339.859 524.199 332.619 518.582 322.748 511.873C320.367 511.164 319.951 508.122 318.896 507.525C317.842 506.927 317.066 506.292 316.607 505.247C316.147 504.203 315.929 502.789 316.015 501.56C316.173 499.309 316.803 497.302 318.434 495.953C320.23 494.466 322.297 493.202 324.716 493.289C330.216 493.488 334.341 494.224 338.685 493.767C343.232 493.288 347.243 492.094 351.247 490.696C356.735 488.779 364.472 482.786 370.626 483.815C379.862 485.36 384.81 485.602 389.677 487.24C394.782 488.958 400.681 488.564 403.32 492.243C403.81 492.927 403.521 494.061 403.246 495.14L403.226 495.218C402.17 499.367 402.185 505 397.769 508.904C394.542 511.757 391.227 512.695 388.937 513.467C384.408 514.993 379.321 518.134 373.703 520.971C369.138 523.276 363.163 520.977 358.246 523.431C354.449 525.326 348.412 530.113 344.572 527.457Z" fill="url(#paint6_radial_984_90)"/>
<path d="M479.647 456.626C478.133 461.58 454.922 479.731 454.922 479.731C452.044 480.034 450.678 481.05 449.469 481.48C448.261 481.91 447.24 481.76 446.256 481.257C445.271 480.754 444.351 479.923 443.968 478.982C443.586 478.041 443.617 476.958 444.138 476.111C445.176 474.426 447.866 472.898 450.316 469.99C454.458 465.076 457.711 461.805 461.097 457.544C463.786 454.159 469.061 447.057 474.38 447.841C476.436 448.144 478.944 447.721 480.731 448.784C481.537 449.264 481.922 450.189 481.61 451.652C481.297 453.115 480.146 454.994 479.647 456.626Z" fill="url(#paint7_radial_984_90)"/>
<path d="M130.959 102.389C135.968 99.4277 153.798 97.8618 164.726 98.2495C171.653 97.6687 176.027 91.9626 180.071 91.9073C181.135 91.8927 182.664 92.3885 181.875 93.7843C179.493 97.9966 177.808 102.556 176.725 105.567C175.092 110.104 172.951 113.227 169.37 118.454L169.264 118.608C164.79 125.137 162.652 130.073 158.868 132.596C154.663 135.4 148.663 139.103 142.714 140.301L142.502 140.344C137.519 141.347 132.707 142.317 128.541 146.571C123.061 152.168 118.94 158.051 108.953 159.735C102.275 160.861 95.6034 163.949 92.3067 162.005C91.4976 161.527 90.698 160.747 90.8053 159.756C91.0386 157.6 93.8647 151.956 98.5476 145.445C102.62 139.784 105.082 131.424 105.718 125.258C106.334 119.287 106.308 112.677 110.034 110.896C115.382 108.339 123.845 106.595 130.959 102.389Z" fill="url(#paint8_radial_984_90)"/>
<path d="M55.3867 378.09C52.9169 373.495 53.5576 361.993 54.426 353.737C55.6368 351.47 55.8263 350.236 56.6395 348.255C57.0671 344.1 55.3157 339.919 55.241 335.671C55.1558 330.832 51.7815 319.755 55.799 321.816C56.7782 322.319 60.6339 323.596 63.4477 327.79C67.8284 334.32 68.4224 340.147 71.4208 345.113C74.7398 350.61 77.452 355.529 77.0597 361.568C76.7148 366.878 76.5768 374.036 77.9163 380.21C78.8604 384.562 83.425 387.243 88.3823 399.843C90.7982 405.984 102.222 415.859 93.5888 420.879C88.6789 423.734 80.6938 427.212 76.0917 422.831C74.0202 420.859 73.5595 418.058 73.1433 414.924C72.3106 408.653 71.475 403.995 68.8864 398.507C66.4705 393.385 59.2625 385.301 55.3867 378.09Z" fill="url(#paint9_radial_984_90)"/>
<path d="M155.134 69.2639C159.254 66.532 163.171 63.6121 165.764 62.5933C167.574 61.2483 169.33 59.943 170.685 59.0919C172.04 58.2409 172.966 57.8559 173.905 57.465C178.449 56.5622 184.081 55.9551 188.311 55.6397C194.269 55.1954 200.097 51.3088 203.96 53.0417C204.869 53.4494 205.842 54.4117 205.802 55.9644C205.709 59.5449 206.229 64.6118 203.882 65.3186C202.138 65.8438 199.923 65.4037 197.707 66.0707C190.13 68.3515 181.047 75.0684 174.778 75.1586C169.305 75.2374 159.911 78.9448 155.776 75.5067C154.995 74.8571 154.61 73.9315 154.521 72.7677C154.432 71.6039 154.217 69.8721 155.134 69.2639Z" fill="url(#paint10_radial_984_90)"/>
<path d="M404.666 67.6754C398.375 66.6473 391.936 70.6663 385.65 69.0503C381.83 68.7043 380.146 68.0096 379.049 67.0495C377.457 64.8999 375.042 61.1266 371.442 57.3615C368.142 56.0974 364.945 56.3062 361.63 55.8117C359.852 55.5464 357.524 54.6573 359.921 52.5755C367.693 45.8259 375.076 41.6544 378.122 41.4304C383.715 41.019 390.039 43.5219 400.148 44.3426C407.059 44.9037 411.342 48.2494 416.366 49.7833C421.227 51.2672 428.012 47.7345 432.773 52.5481C435.906 55.7166 439.632 59.9703 437.941 60.8582C436.103 61.8227 433.306 61.37 430.892 61.962C429.72 62.2495 428.335 63.151 429.175 64.6597C431.498 68.8321 434.19 72.7762 435.211 75.693C437.125 81.1655 450.391 87.763 445.813 87.8386C444.45 87.8611 441.268 87.7033 437.942 86.7876C431.757 85.0849 426.12 83.0682 421.723 79.7666C416.851 76.1087 411.365 68.7701 404.666 67.6754Z" fill="url(#paint11_radial_984_90)"/>
<path d="M392.808 358.659C394.441 355.011 391.26 343.337 389.052 335.504C390.569 333.975 391.182 333.72 391.855 333.527C393.237 333.209 396.235 333.42 399.826 334.71C401.039 335.527 402.504 338.209 405.322 340.881C408.434 343.832 410.439 345.906 413.723 347.403C417.119 348.95 422.977 349.112 424.259 352.454C424.594 353.325 424.605 354.365 424.421 355.27C423.587 359.355 422.535 365.194 420.536 368.195C418.273 371.593 409.987 371.417 403.686 381.023C402.129 383.397 402.362 386.622 400.515 389.568C397.764 393.956 393.643 402.226 389.016 403.165C386.201 403.737 382.824 404.407 380.74 403.329C379.934 402.912 379.725 402.191 379.864 401.449C380.148 399.924 385.091 393.025 383.119 388.375C381.479 384.506 381.457 380.109 383.569 373.945C385.106 369.459 389.323 366.442 392.808 358.659Z" fill="url(#paint12_radial_984_90)"/>
<defs>
<radialGradient id="paint0_radial_984_90" cx="0" cy="0" r="1" gradientUnits="userSpaceOnUse" gradientTransform="translate(252.676 478.175) rotate(-54.5866) scale(428.839)">
<stop stop-color="#ADD2E9"/>
<stop offset="1" stop-color="#77A9C6"/>
</radialGradient>
<linearGradient id="paint1_linear_984_90" x1="194.986" y1="82.4863" x2="134.986" y2="720.986" gradientUnits="userSpaceOnUse">
<stop stop-color="#77A9C6"/>
<stop offset="1" stop-color="#A0C9E1"/>
</linearGradient>
<radialGradient id="paint2_radial_984_90" cx="0" cy="0" r="1" gradientTransform="matrix(276.5 -505 465.249 274.209 136.676 782.175)" gradientUnits="userSpaceOnUse">
<stop stop-color="#B4D6E8"/>
<stop offset="1" stop-color="#88B6D1"/>
</radialGradient>
<radialGradient id="paint3_radial_984_90" cx="0" cy="0" r="1" gradientTransform="matrix(276.5 -505 465.249 274.209 136.676 782.175)" gradientUnits="userSpaceOnUse">
<stop stop-color="#B4D6E8"/>
<stop offset="1" stop-color="#88B6D1"/>
</radialGradient>
<radialGradient id="paint4_radial_984_90" cx="0" cy="0" r="1" gradientTransform="matrix(276.5 -505 465.249 274.209 136.676 782.175)" gradientUnits="userSpaceOnUse">
<stop stop-color="#B4D6E8"/>
<stop offset="1" stop-color="#88B6D1"/>
</radialGradient>
<radialGradient id="paint5_radial_984_90" cx="0" cy="0" r="1" gradientTransform="matrix(276.5 -505 465.249 274.209 136.676 782.175)" gradientUnits="userSpaceOnUse">
<stop stop-color="#B4D6E8"/>
<stop offset="1" stop-color="#88B6D1"/>
</radialGradient>
<radialGradient id="paint6_radial_984_90" cx="0" cy="0" r="1" gradientTransform="matrix(276.5 -505 465.249 274.209 136.676 782.175)" gradientUnits="userSpaceOnUse">
<stop stop-color="#B4D6E8"/>
<stop offset="1" stop-color="#88B6D1"/>
</radialGradient>
<radialGradient id="paint7_radial_984_90" cx="0" cy="0" r="1" gradientTransform="matrix(276.5 -505 465.249 274.209 136.676 782.175)" gradientUnits="userSpaceOnUse">
<stop stop-color="#B4D6E8"/>
<stop offset="1" stop-color="#88B6D1"/>
</radialGradient>
<radialGradient id="paint8_radial_984_90" cx="0" cy="0" r="1" gradientTransform="matrix(276.5 -505 465.249 274.209 136.676 782.175)" gradientUnits="userSpaceOnUse">
<stop stop-color="#B4D6E8"/>
<stop offset="1" stop-color="#88B6D1"/>
</radialGradient>
<radialGradient id="paint9_radial_984_90" cx="0" cy="0" r="1" gradientTransform="matrix(276.5 -505 465.249 274.209 136.676 782.175)" gradientUnits="userSpaceOnUse">
<stop stop-color="#B4D6E8"/>
<stop offset="1" stop-color="#88B6D1"/>
</radialGradient>
<radialGradient id="paint10_radial_984_90" cx="0" cy="0" r="1" gradientTransform="matrix(276.5 -505 465.249 274.209 136.676 782.175)" gradientUnits="userSpaceOnUse">
<stop stop-color="#B4D6E8"/>
<stop offset="1" stop-color="#88B6D1"/>
</radialGradient>
<radialGradient id="paint11_radial_984_90" cx="0" cy="0" r="1" gradientTransform="matrix(276.5 -505 465.249 274.209 136.676 782.175)" gradientUnits="userSpaceOnUse">
<stop stop-color="#B4D6E8"/>
<stop offset="1" stop-color="#88B6D1"/>
</radialGradient>
<radialGradient id="paint12_radial_984_90" cx="0" cy="0" r="1" gradientTransform="matrix(276.5 -505 465.249 274.209 136.676 782.175)" gradientUnits="userSpaceOnUse">
<stop stop-color="#B4D6E8"/>
<stop offset="1" stop-color="#88B6D1"/>
</radialGradient>
</defs>
</svg>
